<svg id="Layer_1" enable-background="new 0 0 135 135" height="512" viewBox="0 0 135 135" width="512" xmlns="http://www.w3.org/2000/svg"><g><g><g><path d="m73.193512 103.0090179c-.1199951.1999512-.2800293.3898926-.4500122.5500488-1.5599976 1.4897461-4.8500366 1.6098633-6.6500244 1.8498535-3.9599571.5300293-7.9199791.5700684-11.8999596.5400391-5.3600464-.0400391-10.710022-.0900879-16.0700073-.130127-4.0700073-.0297852-8.9200459.920166-11.1100483-3.6599121-.6699829-1.4199219-.7099609-3.0700684-.3199463-4.619873.1399536-.5900879.3499756-1.170166.6099854-1.7099609.9199829-1.9702148 2.3999634-3.5800781 3.8800049-5.1401367 5.6599751-5.9499512 11.6599751-11.5898438 16.7699604-18.0600586 1.1000366-1.3898926 2.1700439-2.8398438 2.8200073-4.5100098 1.4000244-3.579834 1-9.6599083-2.1499634-12.2697716-3.3099976-2.7402344-9.8300171-2.6901855-13.710022-1.9101563-.7000122.1401367-1.4000244.3200684-2.0999756.4899902-.9800434.2399902-1.9500141.4599609-2.9500141.5600586-2.1000366.2099609-4.0900269-.3400879-4.8699951-2.6101074-.4000244-1.1499023-.4299927-2.4399414-.1099854-3.619873.1799927-.7399902.5-1.4401855.9499512-2.0400391.6400146-.869873 1.5-1.5400391 2.4000244-2.1101074 0-.0097656 0-.0097656.0100098-.0097656.1799927-.1101074.3599854-.2202148.539978-.3300781 4.0900288-2.4101563 9.1699848-3 13.830019-3.130127 1.1599731-.0397949 2.4500122.0300293 3.7299805.2102051 1.2700195.1899414 2.5400391.5 3.7999878.8999023 4.6800537 1.5698242 9.1900024 4.6599121 12.4400024 9.3598633.210022.3100586.4200439.630127.6199951.9501953 1.6300011 2.6098633 2.8200035 5.6999512 3.2900352 8.9699707.2799683 1.6599121.2299805 3.2199669.2199707 4.8098106.0100098.8000488-.1499634 1.5700684-.2399902 2.3500977-.1199951.7800293-.1900024 1.5900879-.4099731 2.3000488-.2000122.7299805-.4000244 1.4599609-.6000366 2.1899414-.2000122.7399902-.5 1.3500977-.75 2.0300293-.5100098 1.3701172-1.1300011 2.5100098-1.7299767 3.6899414-.6099854 1.1499023-1.2600098 2.1401367-1.8900146 3.1699219-.6400146.9301758-1.2799683 1.9001465-1.8999634 2.7402344-1.25 1.6999512-2.4400024 3.2199707-3.5100098 4.5698242-.2700195.3400879-.5300293.6699219-.7900391.9899902-.1900024.2399902-.1199951.1601563-.1199951.1901855-.0199585 0-.1300049.0400391-.2199707.1298828-.0700073.0900879-.0800171.2199707.0700073.4101563.0100098.0297852.039978.0598145.0499878.079834.0599976.0200195.25.0600586.3800049.0900879l.5499878.1098633c.7299805.1501465 1.4299927.3300781 2.0999756.4899902 1.3400269.3400879 2.5800171.6799316 3.7000122 1.0500488 1.5599976.5100098 6.3699913 2.1601563 9.4899864 4.4301758 2.2400513 1.6298829 3.6199952 3.5798341 2.3000489 5.6599122z" fill="#ed1c24"/></g></g><g><path d="m118.5434875 70.8491058c-.039978-2.5700684-1.7700195-3.7302246-3.9799805-4.5900879-2.5300293-.9899902-5.8400269-.2600098-8.0800171-1.5700684-.3800049-.2199707-.6900024-.5-.9500122-.8100548-1.25-1.5498047-1.1499634-4.0998535-.8999634-6.2199707.6199951-5.369873.9099731-10.7700195.8599854-16.1699219-.0100098-2.3500977-.1600342-4.880127-1.0800171-6.9899902-.3699951-.8701172-.8800049-1.6801758-1.5599976-2.3701172-6.3099976-6.4199238-13.9899902 6.0200195-16.8400269 10.130127-4.7799683 6.8498535-8.5999756 14.3798828-11.289978 22.2897911-.9099731 2.670166-2.3499756 7.1801758-.25 9.6501465.8200073.9699707 2.0700073 1.5998535 3.4299927 1.9899902 1.5400391.4499512 3.210022.6098633 4.5499878.6699219 2.9000244.130127 5.9900513.0800781 8.4400024 1.6401367.460022.2900391.8900146.6499023 1.1199951 1.1298828.2600098.5500488.2300415 1.1801758.1800537 1.7800293-.3900146 4.7800293-1.5300293 9.6000977-1.5 14.3500977.0099487 1.4799805.1300049 2.9599609.4299927 4.4199219.3899536 1.9001465 1.0999756 4.119873 2.7299805 5.0900879.4000244.2399902.8599854.4099121 1.3900146.4699707 1.8999634.2399902 3.9199829-.3500977 5.4199829-1.5600586.5200195-.4099121.9700317-.8898926 1.3300171-1.4399414 1.2000122-1.8100586 1.4599609-4.0600586 1.7000122-6.2099609.4699707-4.2399902.75-8.4299316.75-12.670166.1599731-2.0297852.2699585-4.4299316.2699585-7.0400391.6500244-.0498047 1.2800293-.0998535 1.8800049-.1599121 3.9000244-.369873 6.5300293-.8601074 8.3099976-1.4399414 3.5499879-1.1599121 3.670044-2.6899414 3.6400147-4.3698731zm-32.6500244-6.4501953c-.0599976-.0400391-.1099854-.0898438-.1699829-.1398926-2.6799927-2.3901329 3.6000366-9.4699669 5.2800293-11.3400841.3200073-.3701172.6900024-.7399902 1.1699829-.8100586.3499756-.0600586.7000122.0600586 1.0100098.2299805 2.1400146 1.1501465 1.9799805 3.6101074 2.539978 5.630127.6000366 2.1599121.9700317 3.880127-.4699707 5.9099121-1.8400268 2.6000938-6.960022 2.4599571-9.3600464.5200157z" fill="#ed1c24"/></g><g><path d="m62.5834694 51.6088753c-10.4099731-2.2299805-28.5-4.8898926-29.7699585 2.8200684-.9800434.2399902-1.9500141.4599609-2.9500141.5600586-2.1000366.2099609-4.0900269-.3400879-4.8699951-2.6101074-.4000244-1.1499023-.4299927-2.4399414-.1099854-3.619873.8799438-1.5200195 2.0199585-2.920166 3.3499756-4.1501465 0-.0097656 0-.0097656.0100098-.0097656.1799927-.1101074.3599854-.2202148.539978-.3300781 4.0900288-2.4101563 9.1699848-3 13.830019-3.130127 1.1599731-.0397949 2.4500122.0300293 3.7299805.2102051 1.2700195.1899414 2.5400391.5 3.7999878.8999023 4.6800537 1.5698241 9.1900024 4.659912 12.4400024 9.3598632z" fill="#ff2c3c"/></g><g><path d="m104.4134827 34.499012c-6.0899658 2.1098633-11.8599854 8.4899902-14.8200073 12.7998047-5.3800049 7.8400879-10.2600098 18.1201134-11.3999634 27.6501427-.0500488.4399414-.1500244.8601074-.2900391 1.2399902-1.3599854-.3901367-2.6099854-1.0200195-3.4299927-1.9899902-2.0999756-2.4699707-.6599731-6.9799805.25-9.6501465 2.6900024-7.9099083 6.5100098-15.4399376 11.289978-22.2897911 2.8500366-4.1101074 10.5300293-16.5500507 16.8400269-10.130127.6799927.6899414 1.1900024 1.5 1.5599976 2.3701172z" fill="#ff2c3c"/></g><g><path d="m73.193512 103.0090179c-.1199951.1999512-.2800293.3898926-.4500122.5500488-1.5599976 1.4897461-4.8500366 1.6098633-6.6500244 1.8498535-3.9599571.5300293-7.9199791.5700684-11.8999596.5400391-5.3600464-.0400391-10.710022-.0900879-16.0700073-.130127-4.0700073-.0297852-8.9200459.920166-11.1100483-3.6599121-.6699829-1.4199219-.7099609-3.0700684-.3199463-4.619873 8.8899555.7597656 16.9699726 3.8398438 26.0499897 3.3198242 6.1799927-.3498535 12.2399864-1.7199707 18.1499596-3.5097656 2.2400512 1.6298828 3.6199951 3.579834 2.3000488 5.6599121z" fill="#e01b2a"/></g><g><path d="m114.9034729 75.2189789c-1.7799683.579834-4.4099731 1.0700684-8.3099976 1.4399414-.5999756.0600586-1.2299805.1101074-1.8800049.1599121 0 2.6101074-.1099854 5.0102539-.2699585 7.0400391 0 4.2402344-.2800293 8.4301758-.75 12.670166-.2400513 2.1499023-.5 4.3999023-1.7000122 6.2099609-.3599854.5500488-.8099976 1.0300293-1.3300171 1.4399414-.2600098-.3000488-.4899902-.619873-.6799927-.9599609-1.9099731.9399414-3.9899902 1.619873-6.1300049 2.0500488-1.6300049-.9702148-2.3400269-3.1899414-2.7299805-5.0900879-.2999878-1.4599609-.4200439-2.9399414-.4299927-4.4199219 3.2399902-.3901367 6.7999878-1.5400391 8.3499756-4.6000977 1.8099976-3.5900879 1.1599731-8.8798828 1.6699829-12.7700195.6799927-5.1699219 2.1300049-10.1999512 4.8200073-14.510006.2600098.3100548.5700073.5900841.9500122.8100548 2.2399902 1.3100586 5.5499878.5800781 8.0800171 1.5700684 2.2099609.8598633 3.9400024 2.0200195 3.9799805 4.5900879.0300294 1.6799317-.0900267 3.209961-3.6400145 4.3698731z" fill="#e01b2a"/></g><g><path d="m118.5434875 70.8499451c-.0436554-2.568428-1.7659302-3.7288818-3.981636-4.5941467-2.5234222-.9854355-5.8358002-.2546005-8.0821991-1.566925-2.2314835-1.3038025-2.1453552-4.4778328-1.8496017-7.0348015.6202545-5.3624802.9102173-10.762722.8677292-16.1603966-.0261841-3.3267517-.3131943-6.9811249-2.6491394-9.3625946-6.3028564-6.4256992-13.9805527 6.0204849-16.837738 10.1252251-4.7729874 6.8570633-8.5925903 14.3792305-11.2881012 22.2879677-.9130325 2.6788635-2.3443832 7.1847992-.2527542 9.6557846 1.7642212 2.084198 5.470192 2.5370102 7.9795303 2.654808 2.9011536.1362 5.9965897.0865936 8.4433823 1.6427689.4556427.2897873.8923721.6479797 1.1232758 1.1343613.2585526.5446472.2270889 1.1761475.178299 1.776474-.5099792 6.2752609-2.3191605 12.5993195-1.0666351 18.7706528.4815979 2.3728027 1.4565735 5.2306213 4.1155014 5.5615387 2.5508118.3174515 5.3241043-.8464584 6.7468338-2.9988403 1.19841-1.8130112 1.4677811-4.0606995 1.7054062-6.2174377.4663925-4.2330551.7515869-8.4279327.7515869-12.663269.156517-2.033989.2617798-4.4368134.2637939-7.0391388.6529694-.0513382 1.28582-.1046219 1.8787918-.1613083 3.9036407-.3737106 6.5377884-.8639603 8.3134613-1.4447174 3.551338-1.1612628 3.6687697-2.6852878 3.6402128-4.3660052zm-32.6483154-6.4477539c-.0571747-.0461655-.1128235-.0933456-.1670837-.1417542-2.6845779-2.3953629 3.5986404-9.4679184 5.2751617-11.3452415.3232956-.3620148.6928482-.7378922 1.1727371-.8105545.3459167-.0523796.6970444.0648575 1.0050888.2307281 2.1383743 1.1514397 1.9807968 3.614994 2.5415878 5.6319885.6001358 2.1585083.9686203 3.8784256-.4676361 5.9082947-1.8435897 2.6055412-6.9582824 2.4653893-9.3598556.5265389z" fill="none"/></g><g fill="#202020"><path d="m128.2050781 83.4527893c1.2655945-8.262619 1.3665924-16.9890594-1.604126-24.8020058-.6898804-1.7060547-.9779053-1.7509766-1.2473145-1.6711426-.2694702.079834-.4910278.2939453-.2862549 2.0725098.0254745.2720032 1.669342 9.6870308.7841187 17.0756874-.1203613 2.0280762-.5205688 4.2475586-.9632568 6.6901855-5.491684 27.0156631-28.7209854 47.1820984-61.0836792 45.7165527-.4662476-.0224609-.935791-.0449219-1.4085083-.067627-26.3566284-3.011795-43.4115448-18.1645889-50.6118774-39.9196777-1.4728394-4.5236816-2.3308105-9.2167969-2.6324463-13.8747559-.9706106-15.2570839 4.8316708-28.9825897 13.4171762-38.96558 9.1408501-10.5495224 17.7710209-15.6528378 29.7266216-19.8806152.8394165-.3110352 1.2747192-.5073242 1.2580566-.5756836s-.4850464-.0068359-1.366272.173584c-12.4498558 2.7416973-22.5661564 9.331749-31.2795391 18.8479004-9.4198378 10.3566743-15.6131166 25.0492517-14.8942255 40.5676309 3.4532476 73.0548859 110.1985841 77.5413971 122.1915269 8.6130371z"/><path d="m58.5690918 10.4627953c-4.2230263-3.650558-23.0395126-9.1119957-23.3577271-7.7536621-.149784.5780651 17.9704133 7.6910724 20.8320923 10.5288085.4494019.4516602.6515503.8369141.7365112 1.3256836.0978394.4733887.0413818 1.0725098-.1060791 1.7080078-.4290161 1.8195782-5.4378128 11.9495487-4.7854614 21.4914551.225769 2.640625.7811279 2.737793 1.328186 2.7497559.5764771.0129395 1.0426025-.0991211 1.5455322-2.5637207 4.2561531-19.1802979 4.9249535-16.6023598 5.8141479-20.847168.1879883-.9807129.305603-2.1437988-.0031738-3.3984375-.2681884-1.2509765-1.0847777-2.470459-2.0040282-3.2407226z"/><path d="m61.6310425 84.5113831c.909729-1.2060547 1.7244873-2.5932617 2.586853-4.0266113 4.0438461-6.3981323 5.7736969-15.1936951 3.3946533-23.0283241-1.3529663-4.4758301-4.132019-8.8710938-8.2120972-12.3095703-7.5651703-6.2915497-16.9083405-7.2640686-25.9800415-4.9040527-1.8072491.472168-3.659605 1.1489258-5.4298687 2.1645508-3.3353653 1.899025-5.569603 4.4768372-5.2909546 8.534668.1049194 1.2548828.4119263 2.5302734 1.3203125 3.7783203 4.5285969 6.2511787 17.1260548-3.5872345 23.692503 2.7980957 2.4412155 2.34972 3.6233635 8.154705-1.8764038 15.0507851-5.262085 6.5805664-11.4228516 12.3691406-16.9493389 18.4829102-3.1379719 3.5953445-5.2177963 8.4116669-2.6859741 12.3105469 2.4882946 4.1704788 6.8624058 3.7195053 11.0609112 3.5996094 7.020752-.0793457 13.3440552-.151123 18.6552734-.2111816 3.6059494-.0758362 13.2097931-.6279449 15.9375-2.3347168.6968994-.4372559.9317017-.8195801.8891602-.8562012-.0570679-.060791-.3770752.201416-1.0770264.4846191-2.8513641 1.1481857-12.6217346 1.1984177-15.7488403 1.1210938-5.315979-.1469727-11.6123657-.3435059-18.6948853-.4802246-3.4888535.0099945-7.1422977.3852234-8.7877789-2.6337891-1.8276157-2.9502716.2620811-6.5401459 2.6013184-9.0834961 5.4768047-5.7961426 11.8532085-11.5539551 17.4176006-18.2658691 6.5913506-8.0876312 5.7362862-15.7712822 1.8433838-19.7905312-.9920654-.9870605-2.138855-1.6269531-3.2782593-2.0932617-9.2369537-3.773201-17.8825722 2.1657639-19.8474712-.4702148-.2585449-.3364258-.4775391-1.015625-.5125732-1.6706543-.1471519-2.3526764 1.2911053-3.6433563 3.3261719-4.7736816 6.6357403-3.7613792 18.672823-4.4076042 26.8169537 2.3513184 8.9407043 7.5120468 11.523468 20.7938271 1.8112183 34.1655312-1.0451393 1.6052246-3.8200226 5.213562-4.8526001 6.5622559l-.1329956.3183594c.0016479.10186-1.6562958 2.8386307.2885742 3.328125.4685669.1186523.9315796.236084 1.3890381.3520508 4.2923431 1.1100845 6.9945335 1.6809845 11.0015869 3.4042969 2.3287506 1.0002518 6.6479263 3.0344315 6.5305786 5.5205078-.0268555.2939453-.0911865.5402832-.1323242.7441406-.0544434.1855469-.0980835.3195801-.1068115.4414063-.0238037.2392578.0473633.3676758.1451416.4680176.0977783.1005859.2062378.1838379.470459.0749512.2628174-.121582.7424927-.3820801 1.1487427-1.2963867.1813354-.4609375.3363037-1.125.1952515-1.9094238-.5042114-2.9527588-4.4146957-5.3163757-7.029541-6.6508789-3.2399292-1.642662-5.7967987-2.4187164-7.4825439-2.9401855-.1934319-.0585251-2.4386635-.7376862-2.6253662-.7939453-.1216815-.0730446 2.4523008-2.9559334 4.21051-5.5329597z"/><path d="m96.914978 54.2994652c-.2410278-.755127-.6378174-1.6459961-1.3348999-2.4172363-.8869476-.8701668-1.8946457-1.5530052-3.1224365-1.5776367-1.1664429-.0204506-2.0059967.6204453-2.7334595 1.4875488l-.1737671.215332c-.8670044 1.0834961-1.6983032 2.2026367-2.4316406 3.3186035-1.4527588 2.2297363-2.6063843 4.4763184-2.7518311 6.4685059-.0924683.9729004.2410889 1.9174805.6877441 2.2959023.4376221.3981934.7633667.4133301.8405762.3115234.0939941-.1135254-.055603-.3725586-.1490479-.7561073-.1019897-.390625-.0770264-.8769531.178894-1.5595703.49823-1.3518066 1.8446045-3.1660156 3.4851074-5.0161133.8238525-.9304199 1.7254639-1.8752441 2.6636353-2.8186035l.164978-.1645508.0369873-.020752c.0686264-.0361366.1394882-.0574646.2080688-.0212402.0409546.0214844.071228.0544434.0921631.0856934.0050049.0075684.0115967.0146484.0140991.0219727.0031738.0080566-.0317993-.010498.0130615.0266113.0593872.0493164.0940552.1176758.1478271.1682129.3054199.3867531 1.6704102 6.297554 1.3521729 7.3837891-.3808594 1.1315193-1.0209885 1.841095-2.572998 2.1582031-1.5270386.3210487-2.7114868.1521034-3.4564819.0842285-.7557373-.0957031-1.1844482-.1330566-1.4958496-.0585938-.315918.0749512-.5079346.2670937-.6826172.4868202-.1747437.2199707-.3365479.4335938-.2460327.7980957.0895996.3632813.4528198.9016113 1.4222412 1.4733887 3.6224899 1.9510193 9.2537918 1.1811752 10.897583-3.7297401.7726824-2.3148843-.11985-5.6584054-1.054077-8.6442872z"/><path d="m103.7730103 31.0260277c-.6842651-.704834-1.5513916-1.3447266-2.579834-1.7558594-1.0268555-.4155273-2.2126465-.5317383-3.2911377-.3583984-2.1836548.362793-3.8605957 1.5266113-5.3136597 2.7211914-7.7285614 6.6383629-19.6410599 27.5421219-21.0188599 37.3693886-.1281738.9472656-.1849976 1.9440918-.0487061 3.0046387.1339111 1.0498047.4981689 2.2041016 1.2341309 3.1865234.7206421.973877 1.6384277 1.6291504 2.531189 2.0900879 3.9508286 2.0372314 8.519371 1.3567657 11.7826538 1.9465332.609436.1088867 1.1714478.2573242 1.6755371.4528809.2505493.0996094.4871826.2102051.7139282.3278809.2138062.1276855.4569702.262207.5744629.3640137.1401367.1132813.1543579.1491699.1428223.1325684-.0005493.0119629-.00354-.0466309.0123901.1069336.0272827.2485352-.0622559 1.0158691-.1130981 1.5949707-.590126 5.7657394-2.0177994 11.4145279-1.1061401 17.3234863.7115936 4.5192032 2.4567642 8.2414169 7.0466309 8.2443848 3.4400558.0124512 6.8812485-1.9217834 8.3256226-5.2841797 1.9567642-4.4192886 1.8421707-17.3484726 1.9524536-22.6210938.0057983-.3222656.0114746-.6391602.0170288-.9511719l.0039673-.2329102c.0009766-.0683594-.0018311-.0380859-.0025635-.0622559l-.0073853-.0693359c.0056152-.0883789-.0775146-.2788086.1098633-.2556152l.1967773-.0371094c.0733032-.0131836.0698853-.0183105.4140625-.0600586 3.2814331-.4440308 8.9837494-1.2076263 11.2667236-3.6489258.6761475-.7380371.9157104-1.5742188.9343262-2.1113281.0279541-.5510254-.0570679-.8898926-.1379395-1.1149902-.1688232-.447998-.3579712-.4787598-.5446777-.4782715-.1903687.0004883-.3668823.0571289-.5444336.4575195-.2095337.3911133-.2880859 1.1533203-1.1293335 1.7470703-2.1713715 1.6280746-9.9435425 1.9851456-12.7420044 2.1923828-2.2000885-.5392609-.6418152 11.3928375-2.6342773 23.2421875-.6853104 3.8560257-2.8330002 5.3425522-5.4468384 5.3100586-.1986694.0007324-.4290161-.020752-.5946045-.045166-1.6348267-.2466125-2.2555695-3.1978912-2.4940186-4.8347168-1.1359482-7.6115952 2.5027542-17.3960495.7825928-20.3793945-.3356934-.6047363-.8045044-1.0605469-1.1981812-1.3654785-1.5111084-1.1337891-3.1427002-1.6428223-4.7702026-1.9343262-3.3528976-.5789795-10.1429443.0294571-11.8619385-2.4133301-.5059814-.6079102-.6795044-1.8869629-.4853516-3.3122559 1.0579529-8.4319496 12.1995087-29.2057228 19.2139282-35.500248 1.1879272-1.0480957 2.5083008-1.9067383 3.7475586-2.1271973 1.2194214-.2336426 2.3398438.2055664 3.3620605 1.1870117 3.8813553 3.6434937 2.5630112 16.713501 1.8165283 25.4929199-.071228 1.3513184-.0478516 2.7224121.3687134 4.0554199.2102051.6611328.5390015 1.3120117 1.0146484 1.849369 2.3247223 2.6869888 6.7038193 1.1500931 9.9956055 2.4938965.6759644.2585449 1.2592773.548584 1.7249756.8798828.9526367.6494141 1.3619385 1.4790039 1.5574951 2.0656738.19104.59375.2344971.9423828.3170776.9387207.0564575-.0002441.1576538-.3461914.0895386-1.0285645-.0662231-.6630859-.421936-1.7421875-1.4540405-2.6188965-.4990845-.4423828-1.1242065-.828125-1.8256836-1.1687012-3.7642975-1.9653549-8.7220154-.0598907-9.7269287-3.913578-.2605591-.9897461-.2509155-2.1726074-.1260986-3.4013672 1.618332-12.3835866 2.682335-23.2928426-1.7273558-27.6928708z"/></g></g></svg>