<svg id="Layer_1" enable-background="new 0 0 135 135" height="512" viewBox="0 0 135 135" width="512" xmlns="http://www.w3.org/2000/svg"><g><g><path d="m128.4069519 54.8605309c-.3800049 8.7900391-2.1700439 17.5200157-5.2900391 25.7499962-1.6099854 4.2700195-3.75 8.6098633-7.539978 11.1601563-3.0499878 2.0595703-6.8099976 2.7099609-10.460022 3.2099609-18.6399536 2.5498047-37.6399536 2.4199219-56.2299767-.3901367-3.6400146-.5498047-7.6199951-1.4199219-9.8200073-4.3598633-1.3399658-1.7900391-1.789978-4.0703125-2.210022-6.2700195-.1999512-1.0800781-.3999634-2.1499023-.6099854-3.2299805-1.25-6.6899414-2.5100098-13.3798828-3.7699585-20.0703087-.5200195-2.7299805-1.6400146-5.3198242-2.0700073-8.0800781-.6100464-3.8598633-.2700195-5.6196289 3.8299561-5.8696289 9.6600342-.5800781 19.3500366-.8701172 29.0300293-1.0800781 4.9899864-.1098633 9.9899864-.1899414 14.9899864-.2402344 13.9899902-.1499023 27.9799805-.1298828 41.9700317-.2597656 1.7599487-.0102539 3.6199951 0 5.1399536.9101563 2.7999879 1.6796873 3.1799928 5.5498045 3.0400392 8.8198241z" fill="#8dc63f"/></g><g><path d="m76.2269592 51.4205894c-2.0044022 0-4.5324707 1.7575569-6.757782 1.9160576-2.7627106.1967773-5.6577263-.0961151-8.429657-.1377373-3.1213112-.0468636-6.2704086-.0913429-9.3320313.517971s-6.0701065 1.9315262-8.1749039 4.2368736c-4.8033447 5.2610207.0261765 9.9737282-1.5437126 15.8349495-.9985809 3.7282333-5.1989365 6.1680832-6.7116966 1.7733612-1.5840758-4.6018981-1.8979644-10.1107253-2.8002128-14.9017295-.5200195-2.7299805-1.6400146-5.3198242-2.0700073-8.0800781-.6100464-3.8598633-.2700195-5.6196289 3.8299561-5.8696289 9.6600342-.5800781 19.3500366-.8701172 29.0300293-1.0800781 4.9899864-.1098633 9.9899864-.1899414 14.9899864-.2402344.9700317 2.090332.6300049 4.6801758-2.0299683 6.0302734z" fill="#b5e557"/></g><g><path d="m110.2531128 102.4661255c-.5555038-1.3656235-1.4324951-2.6662521-2.6781082-3.7993393-7.6579666-6.9661865-18.2085953-.0640335-12.3893738 10.9915695 4.938446 9.3822708 19.9015656 4.6922989 15.067482-7.1922302z" fill="#808285"/></g><g><path d="m62.040062 102.4661255c-.5555-1.3656235-1.4324913-2.6662521-2.6781044-3.7993393-7.6579704-6.9661865-18.2085953-.0640335-12.3893738 10.9915695 4.938446 9.3822708 19.9015617 4.6922989 15.0674782-7.1922302z" fill="#808285"/></g><g><path d="m47.7251816 110.6552811c-.2000351-.3799286-.3700981-.7500839-.5300865-1.1099854 6.1806526 2.9300003 14.6515884-1.9704208 10.8411827-11.3312836-.0100098-.0302811-.0300331-.0703201-.0400429-.1001129.720108.410202 1.4301453.9200211 2.1202202 1.5499725 1.2401237 1.1402588 2.120224 2.4406891 2.67033 3.8006973 4.8404808 11.8914109-10.1211357 16.5715943-15.0616035 7.1907121z" fill="#58595b"/></g><g><path d="m95.9803314 109.6551743c-.2000351-.3799286-.3700943-.7500839-.5300903-1.1099854 6.1806564 2.9300003 14.6515884-1.9704208 10.8411865-11.3312836-.0100098-.0302811-.0300293-.0703201-.0400467-.1001129.7201157.410202 1.4301453.9200211 2.120224 1.5499725 1.2401199 1.1402588 2.120224 2.4406891 2.6703262 3.8006973 4.8404847 11.8914109-10.1211318 16.5715943-15.0615997 7.1907121z" fill="#58595b"/></g><g><path d="m84.236908 72.2706833c-8.4299927-5.4599609-12.0599976-16.4999962-11.1699829-27.1201134.960022-11.6201172 7.3599854-22.7402344 18.789978-25.4501953 14.4700317-3.4199219 29.8900146 3.9101563 35.5700073 17.4599609.5700073 1.3300781 1.0400391 2.7202148 1.4000244 4.1699219 6.3599854 25.480465-23.3900146 44.6601525-44.5900268 30.9404259z" fill="#f1f2f2"/></g><g><path d="m127.4269104 37.1603355c-1.7799683.2802734-3.7299805-.2797852-5.0499878-2.1098633-4.9500122-6.8500977-13.9400024-9.5400391-22.039978-7.9199219-7.7200317 1.5400391-17.3699951 7.2900391-20.2300415 15.0200195-1.1999512 3.2299805-4.5499878 3.9599609-7.039978 3 .960022-11.6201172 7.3599854-22.7402344 18.789978-25.4501953 14.4700317-3.4199218 29.8900146 3.9101564 35.5700073 17.459961z" fill="#fff"/></g><g fill="#202020"><path d="m79.6846924 46.0042458c-.10186 1.5728798 17.3558044 2.3090439 21.0740967 2.3413086-.2388992 4.5476112-1.0430908 18.4517784 1.5162964 18.5151405 2.57901.0627136 2.4368896-14.1386261 2.4186401-18.538578 4.06987-.091568 11.8512802-.5613136 15.7884521-1.628418 1.9971313-.5688477 2.022644-1.0830078 1.9647827-1.6420898-.0579224-.5595703-.1947021-1.0576172-2.2409058-1.2246094-2.4202805-.2290192-8.8949356.1321564-15.5634766.4482422-.1539307-7.4790039-.6412354-15.6206036-1.4332886-15.6396465-.8010864-.0195313-1.6970215 8.279295-2.213501 15.8124981-14.6085661.69392-21.2665556.8514175-21.311096 1.5561523z"/><path d="m95.159668 18.7059078c-2.1791992.465332-3.3347168.8730469-3.3041382.9936523.03479.1518555 1.2509766.0151367 3.4046631-.1791992 23.5926208-1.1295795 36.9203033 18.9698925 31.7562256 35.6743164-.8538818 2.8305664-2.2172852 5.5117188-3.967041 7.8959961-4.8270569 6.5892525-13.1181183 11.2442589-21.7271729 11.6933632-10.6494904.601265-22.0457153-4.8144608-25.4271851-18.4775429-3.3226624-13.3399315 1.1898651-28.9887257 14.9882202-35.5029297 1.0075684-.543457 1.0392456-.831543.97229-1.1040039-.0670166-.2729492-.2011719-.5136719-1.425354-.4150391-6.410881.2162094-17.191803 8.6115913-19.156311 24.6298809-7.0905151.2011719-13.5371056.4462891-19.0821495.7504883-6.6358032.3383789-11.9991455.7402344-15.7016602 1.0581055-2.078186.1923828-3.6110229.3549805-4.5736713.4868164-.0481567-.1567383-.0913696-.3217773-.1404419-.4765625-1.0389404-3.2939453-2.2489624-6.2539063-3.6535645-8.8125-5.7390174-10.7362594-15.5471915-15.4516506-22.3005361-14.7988262-2.0520022.2592773-2.1479495.6005859-2.1248782.859375.0233154.2988281.2181396.4960938 2.0917361.7255859 16.4797821 2.5002022 22.0222321 17.4213734 24.982666 33.609375 5.0944614 27.6277351 5.1317577 29.2196465 6.4195576 31.9238319.710144 1.5361328 1.9592896 2.987793 3.4012451 3.96875 2.249939 1.5112305 4.7137451 2.1689453 7.1190186 2.6044922-1.0724487.6557617-2.0330811 1.5483398-2.7349854 2.6499023-1.9844284 3.0098267-1.7813416 7.4046402-.6193848 10.1020508 3.2450829 7.2877808 8.6204185 9.2624664 13.7631836 7.5981445 5.0448303-1.5683441 7.577877-6.7040863 6.12286-11.2304688-.454586-1.4780273-.9721031-2.0947266-1.3263512-2.375-.3598633-.2768555-.6155396-.1967773-.8763428-.0917969s-.4979248.2363281-.607605.6494141c-.3117905 1.1329193 1.228653 7.6309509-4.4816895 9.2333984-4.2726822 1.2632446-6.9129677-1.2018509-8.9630737-5.1777344-.8266144-1.6553879-1.3217964-4.8037796-.121521-6.9609375.7272949-1.3496094 2.0372314-2.3398438 3.5192261-2.7382813 1.4830933-.4091797 3.0775146-.2553711 4.4517212.2211914 1.3539429.5307617 2.5314331 1.2749023 3.4404907 1.9941406 1.7805786 1.4946289 2.480835 2.9038086 2.7624512 2.7788086.2341309-.0649414.0535889-1.7680664-1.6275024-3.8852539-.352417-.4150391-.7758789-.8383789-1.2446899-1.2558594 3.3900146.3432617 6.8942833.612793 10.5233116.7822266 7.1519775.3344727 15.2877197.3120117 24.0079956-.3505859-.1810303.2260742-.3530273.4599609-.5100708.706543-2.6005707 3.9443588-1.0843658 8.445343-1.0775757 8.5454102.1533203.5229492.2512207 1.0761719.4581909 1.5566406 3.2725754 7.3495255 8.5443268 9.2870941 13.7631836 7.5981445 5.0282135-1.563179 7.5836716-6.6850815 6.1229248-11.2304688-.4546509-1.4780273-.972168-2.0947266-1.326416-2.375-.3598633-.2768555-.6155396-.1967773-.8762817-.0917969-.2608032.1049805-.4979248.2363281-.607605.6494141-.1126099.4091797-.0534058 1.1049805-.0275269 2.3066406.0092163 3.3870773-1.1930008 6.0115891-4.4542236 6.9267578-4.2694321 1.2623367-6.9326782-1.2407303-8.9630737-5.1777344-.1865234-.3735352-.2542114-.7700195-.3959961-1.159668.0284119-.1000595-2.3155823-6.8969879 3.7937012-8.5395508 6.0056534-1.656868 10.3273773 5.1394424 10.6547241 4.9941406.4092331-.1135101-.3333511-3.4587402-4.026123-6.0620117 1.4174194-.1967773 2.8579102-.4233398 4.3486328-.7602539 5.9776611-1.3401184 9.8932877-4.1713486 12.9536133-10.1196289 3.5901108-6.9482727 6.9738159-19.3456039 7.3299561-31.6870155.001709-.1318359-.0021362-.265625-.0020752-.3984375 3.6499318-21.0260445-15.5942241-38.1594387-35.6975718-34.7329098zm25.0465698 65.0751972c-2.5565567 4.864624-5.5188446 6.9953613-10.4832764 8.0678711-2.2896729.5043945-4.7636108.7587891-7.163269 1.0644531-10.6140442 1.2352676-21.314682 1.6572113-32.6763306 1.1254883-4.6897964-.218895-22.9034386-1.3335342-27.010006-4.1469727-.9309082-.6518555-1.5982666-1.4082031-2.0731812-2.3969727-.850399-1.7477417-.613636-1.2234192-6.3458252-30.8974648-.729248-3.6040039-1.5026245-6.9472656-2.4297485-10.0205078.9765015.0195313 2.4873047.0078125 4.5089111-.034668 3.7113647-.0693359 9.0794067-.1694336 15.7119141-.2929688 5.4812622-.0991211 11.8387413-.1499023 18.827877-.1660156-.2229004 3.4121094-.0107422 7.1645508.947998 11.1782227 3.730957 15.1024132 16.1626892 22.4046745 29.5426636 21.5048866 9.7088318-.6070251 19.0036621-5.9218292 24.3881836-13.5786133.0991821-.140625.1831665-.2924805.2799683-.4350586-1.0795058 6.0310595-3.4156341 14.1166232-6.0258788 19.0283205z"/></g></g></svg>