<svg id="Layer_1" enable-background="new 0 0 135 135" height="512" viewBox="0 0 135 135" width="512" xmlns="http://www.w3.org/2000/svg"><g><g><path d="m99.135231 119.8631897c0 .7299805-.0700073 1.4099121-.210022 2.0300293-.4299927 1.9699707-1.5 3.4599609-2.9899902 4.579834-5.25 3.9599609-15.7399902 3.4401855-22.0599976 4.1000977-7.8900146.8200684-15.8699913.9699707-23.799984.4199219-4.710022-.329834-8.6300049-.4499512-10.6199951-2.829834-.6199951-.75-1.0499878-1.7102051-1.2600098-2.9699707-.0899658-.5500488-.1400146-1.1501465-.1500244-1.8100586-.039978-6.4799805-.3299561-12.8901367-.75-19.3701172-.0499878-.9399414-.1199951-1.869873-.1799927-2.8100586-.25-3.5998535-1.539978-11.9499512-.8099976-16.4399414.1000366-.6298828.2399902-1.1899414.4299927-1.6499023.7200317-1.7399902 2.4000244-2.8100586 4.5900269-3.4599609 5.8800049-1.75 15.4099731-.4001465 19.5900269-.5200195 8.339962-.2299805 16.6799889-.4699707 25.0199547-.7199707 1.9899902-.0500488 3.9800415-.1101074 5.9700317-.170166.3099976-.0097656.6199951-.0200195.9299927-.0297852 1-.0200195 2.0999756-.0302734 2.8900146.5698242.7299805.5500488 1.0099487 1.4699707 1.2399902 2.3300781 3.3399659 12.9199218 2.2000123 25.6799315 2.169983 38.7499999z" fill="#e8ae82"/></g><g><path d="m63.0245018 81.7890549c.0004044-.4545593.0008087-.9091187.0012131-1.363678.1065903 3.0428848-.0470543 6.0948334-.4587059 9.1116257-.180706 1.3243027-.3018303 2.932251.7704315 3.7301788.594265.4422226 1.3869019.4800797 2.1273727.5006866 1.8811798.0523682 3.7623596.1047287 5.6435318.1570969.489563.0136261.9995041.0232925 1.4439011-.1825409.8841705-.409523 1.1936493-1.488205 1.4050369-2.4394073.9275436-4.1737976 1.856369-8.5147247.9043732-12.6830139" fill="#d1d3d4"/></g><g><path d="m102.5752335 43.9530334c-2.5100098 1.0600586-5.4000244.130127-8-.6799316-11.710022-3.6799316-24.210022-5.119873-36.5200157-4.1899414-6.5299683.4899902-13.1699829 1.6899414-18.7600098 4.8898926-2.8799438 1.6501465-5.0799561 2.3200684-6.7299805 2.2602539-7.2399921-.2302246-3.7299824-14.510252-.2799683-21.2001934.8599854-1.6599121 1.8599854-3.2600098 2.9899902-4.7700195 2.7099609-3.6699219 6.1499634-6.8498545 10.0700073-9.3898935 5.6300049-3.670166 12.2299805-6.0100098 19.0599937-6.5300293 4.2000122-.3200684 8.4099731.0400391 12.4400024 1 14.1199951 3.3598633 26.1900024 13.9799814 29.0299683 27.6098633.8500368 4.0500478.7000124 9.3100575-3.2999876 10.9999989z" fill="#ffe455"/></g><g><path d="m99.135231 119.8631897c0 .7299805-.0700073 1.4099121-.210022 2.0300293-.8800049 1.619873-1.8699951 3.1499023-2.9899902 4.579834-5.25 3.9599609-15.7399902 3.4401855-22.0599976 4.1000977-7.8900146.8200684-15.8699913.9699707-23.799984.4199219-4.710022-.329834-8.6300049-.4499512-10.6199951-2.829834-.6199951-.75-1.0499878-1.7102051-1.2600098-2.9699707 14.6300049 1.0998535 32.1699791 2.2700195 43.1099815-9.380127 8.9400024-9.5100098 11.4400024-24.4199219 10.6000366-37.5700684.3099976-.0097656.6199951-.0200195.9299927-.0297852 1-.0200195 2.0999756-.0302734 2.8900146.5698242.7299805.5500488 1.0099487 1.4699707 1.2399902 2.3300781 3.339966 12.919922 2.2000124 25.6799317 2.1699831 38.7500001z" fill="#e0a47c"/></g><g><path d="m85.9352188 78.4132385c-.3999634 2.0397949-1.9500122 3.6599121-4.6599731 3.3200684-10.4899902-1.3100586-22.6099815-2.3500977-31.6899986 4.0898438-6.2299805 4.3999023-10.1300049 11.0200195-12.2900391 18.1899413-.0499878-.9399414-.1199951-1.869873-.1799927-2.8100586-.25-3.5998535-1.539978-11.9499512-.8099976-16.4399414 1.4899902-1.8300781 3.1600342-3.5400391 5.0200195-5.1098633 5.8800049-1.75 15.4099731-.4001465 19.5900269-.5200195 8.339962-.2299804 16.6799889-.4699707 25.0199547-.7199707z" fill="#eab28c"/></g><g><path d="m76.845253 5.3431711c-.4700317.3901367-1.0500488.6999512-1.7300415.9199219-17.4099693 5.5200195-39.3099937 20.4599609-42.549984 39.9702148-7.2399921-.2302246-3.7299824-14.510252-.2799683-21.2001934.8599854-1.6599121 1.8599854-3.2600098 2.9899902-4.7700195 3-3.4099121 6.4099731-6.5498056 10.0700073-9.3898935 5.6300049-3.670166 12.2299805-6.0100098 19.0599937-6.5300293 4.2000124-.3200693 8.4099733.0400381 12.4400026.999999z" fill="#ffeb99"/></g><path d="m30.9575901 25.9607639c-.3909302.5546875-.8829346 1.4064941-1.4761353 2.7106934-1.9340115 4.3448353-3.6565056 10.8231983-2.2110596 15.3603535.3555908 1.0649414 1.0929565 2.3327637 2.399353 3.1330566.1421509.2902832.326416.6218262.5946045 1.0361328 1.3190308 1.9526367 4.3607197 5.5461426 11.2131367 11.2414551 3.7354126 3.1450195 9.8146973 7.6826134 14.6384277 11.770504 2.4268188 2.0349121 4.5053711 3.9970703 6.0475464 5.4106445.1576538.1506348.3063965.2912598.4526978.4289551-.2160645.0061035-.4396973.0126953-.65448.019043-.5500488.0131836-1.0957031.0266113-1.637085.0397949-.5216675-.0031738-1.0509644-.0136719-1.5908813-.0366211-1.0941772-.0524902-2.1708374-.1044922-3.2301636-.1555176-4.2984619-.2084961-8.4194336-.364502-12.4263306.2990723-1.9917603.369873-4.0281372.8850098-5.8804932 2.2612305-.9107056.6826172-1.7318115 1.6425781-2.2053833 2.7473145-.4364014 1.0869141-.6189575 2.0817871-.7003784 2.9672852-.5365753 5.2073822.7912025 12.7401657 1.0915527 16.9321289 1.2409019 16.1542435 1.2317772 18.3694077 1.5408936 21.7768555.1706543 1.5852051.6205444 2.6765137 1.0457153 3.3308105.4301147.6601563.8002319.9091873 1.026123 1.0002518.2365723.0856934.3554077.0144043.4638062-.0749512.2489014-.1909256.2584229-.4091873-.0401001-1.5664139-.1251831-.5883789-.2734375-1.4475098-.2205811-2.7854004.4023552-6.853363.1269188-15.0147552-.2428589-21.9199219-.1567955-3.4193115-.7440033-7.3351135-.9085693-11.8862305-.0471191-1.4404297-.0588379-2.947998.1079712-4.362793.0653076-.7241211.2367554-1.3566895.4195557-1.8266602.1972656-.4377441.5164795-.8244629.9972534-1.1833496.9578857-.7268066 2.5090942-1.2009277 4.173645-1.4765625 4.356617-.7003326 9.7470131-.2784653 14.8302612-.0195313.5634766.0249023 1.1473389.0388184 1.7478027.0432129.5805054-.0126953 1.1655884-.0256348 1.7553101-.0385742.093811-.0026855.1918945-.0053711.2859497-.0080566-1.4310722 9.7725754-1.5270233 8.7844238-1.5239868 10.2053223.0088501.7192383.1000977 1.6489258.7407837 2.5671387.3041992.4279785.7020264.7949219 1.1636963 1.0595703.4802246.2727051.9588013.4121094 1.3542442.4914551.9355392.1744232 7.1394119.5875854 8.1686401.4526367.2293091-.0302734.4537354-.0773926.6696777-.1430664.8659668-.2646484 1.5725098-.8327637 2.0291138-1.5097656.5115356-.7724609.6519165-1.3093262.8112793-1.840332.800972-3.0016556 1.7388611-8.3110199.9006348-11.7099609 17.6750107-.5490952 17.0504074-.5830917 17.5414429-.4731445.2211304.0410156.3029175.0939941.34021.1196289.0375366.0258789.1176147.1047363.2194824.3225098 2.6613388 5.2312622 3.2302551 30.7034378 2.7116089 40.0007324-.0795898.7583008-.2398071 1.4829102-.5205078 2.1462402-.5921021 1.3039551-1.6546631 2.380127-3.0408936 3.1491699-1.3626099.7932129-2.9685059 1.3010254-4.5869141 1.6940918-3.9351883.9089279-24.7881927 3.1545792-41.7805138 2.5454178-1.8168335-.0773926-3.3649292-.1975098-4.5824585-.4682617-2.4829102-.4899902-3.3935547-1.7163086-3.5211792-1.5791016-.0388794.0283203.1022949.3879395.6160889.880127.5028687.498291 1.4118652 1.0866699 2.6885376 1.4904785 1.2713623.4228516 2.8723145.6774902 4.7058716.8842773 16.3411064 1.7288361 38.4382896-.1199036 42.4956017-.9411621 1.8012085-.3913574 3.6512451-.9035645 5.4298706-1.8710938 1.7731323-.9206619 3.4788208-2.4558182 4.4343262-4.4777908 1.627655-3.5573349 2.0054016-31.2449951-.6851807-42.1669922-.2312012-.8991699-.314209-1.6865234-.8218994-2.8920898-.2557373-.5761719-.6725464-1.2426758-1.3162231-1.7597656-.640564-.5205078-1.3876343-.7944336-2.010498-.9169922-1.183609-.2198334-.295929-.2032089-19.9752808.3186035 1.5153809-1.3337402 3.6196899-3.3251953 6-5.4934082 9.7442322-8.9078789 16.0541077-13.0730019 19.9274902-19.515377 1.3179321-2.203125 1.8608398-3.9165039 2.0684814-5.0842285.0593262-.2861328.0949707-.5402832.1143799-.7683105.6520996-.2541504 1.2827148-.5856934 1.8525391-1.0366211.8782959-.6850586 1.5878906-1.5766602 2.0806885-2.5229492.5010986-.949707.7684326-1.9377441.9476929-2.9069824 2.6529084-15.1410239-15.838951-34.308502-34.7073974-36.1364761-6.8883057-.9816895-13.6109581.0769043-19.2057457 2.0935056-5.6074219 2.0766602-10.1541138 5.0725102-13.4723511 8.0754395-3.3259888 3.0163565-5.4703979 5.9770498-6.7295532 8.1159658-.6525269 1.0603027-1.0564575 1.9389648-1.3108521 2.5424805-.2590332.6003418-.3638306.9284668-.3013306.9606934.062439.0322266.2906494-.2319336.6656494-.7592773.3703613-.5300293.8826904-1.3261719 1.6297607-2.2890625 1.4482422-1.9455566 3.7246094-4.6486816 7.0750732-7.3647451 3.3430176-2.704834 7.8096313-5.3620605 13.1843872-7.1281743 3.5309448-1.121582 7.4611206-1.8303223 11.5539513-1.8837891-10.6454124 8.5493622-14.8757401 24.271553-12.8057213 31.3564472.0560913.2167969.1124268.4018555.1688843.5725098-13.6514893 1.8387756-15.950367 6.2462425-20.3023682 6.8554688-.8577271.1384277-1.5301533.0522461-1.9633198-.1865234-.4395142-.2255859-.7993774-.6833496-1.0491943-1.3330078-1.3216972-3.5005722.212698-9.8343735 1.1798706-13.4206562.3637085-1.307373.6229877-2.2058105.7785664-2.8310547.3134766-1.2512207.1408691-1.4572754-.1155396-1.5881348-.2440184-.124756-.5427873-.176758-1.3267229.9301756zm40.9004498 65.3674298c-.0689087.28125-.2177734.5834961-.2102661.5610352 0 0 .0004272-.0019531.0023193.0068359l-.0006714.0039063c.0160522 0-.013916.0056152-.0960083.0097656-.0432739.0026398-6.7314682.0193176-6.8518066.0070801l-.2697144-.0324707c-.041687-.0068359-.0813599-.0268555-.1220703-.0524902-.0617676-.0012207-.1923828-.2526855-.2398071-.6530762-.0543823-.3903809-.0418701-.8808594-.0092773-1.3969727.1901627-2.8045273.1740799-5.9526901-.3400841-8.6914063 1.7665977-.050293 3.5618858-.1013184 5.4140587-.1538086 1.4719238-.0458984 3.0075684-.0935059 4.5904541-.1428223-.1464463 1.3253022-.5721284 5.9797364-1.8671265 10.5344239zm32.319458-57.0312462c.2234497 1.5195313.2655029 3.0539551.0073853 4.3859863-.4828491 2.7634277-2.22229 3.9953613-4.7479858 3.71875-1.2573853-.1120605-2.6270142-.536377-4.0415649-.9841309-1.4514771-.4536133-2.897583-.8862305-4.3068848-1.2641602-2.6118774-.7021484-5.1205444-1.253418-7.4973145-1.6950684.0343018-.1052246.0687256-.1984863.1029663-.3195801 1.7850723-5.7558479-.3732605-21.0844269-10.130249-30.953371-.5487671-.5217285-1.0180054-.9213867-1.3903198-1.1901855.2416382.0361328.4819946.0566406.723999.0981445 13.4235457 1.641245 29.5181273 13.8358899 31.2799682 28.2036153zm-47.7136803 2.5273437c.0449829-.4541016.1464233-1.0158691.2141113-1.7058105 1.1566505-13.1087418 5.0617256-20.1607037 11.6238365-29.0102558.1297607-.1606445.2525635-.3146973.3686523-.4624023.8633423.0422363 1.7314453.1203613 2.6033936.2275391.0371704.3874512.4233398 1.1855469 1.0250244 2.2673345 7.0653305 13.7114305 7.0797424 16.9904099 8.5206909 29.8266602.0014648.010498.00354.0178223.0050659.0283203-8.4197998-1.3161621-16.0350342-1.4165039-22.7004356-.9179688-.5856323.041748-1.1560059.1003418-1.7301025.1547852.0241699-.1303698.0491333-.2551257.0697632-.4082019zm-18.7012939 9.9853516c3.2709961-1.3950882 7.3877144-4.9083557 20.6514282-5.7526855 6.9508018-.4663086 14.9598351-.2980957 23.8782921 1.2998047 2.4407959.4389648 5.0413208.996582 7.7518311 1.7111816 1.3583984.3574219 2.7290649.7587891 4.1481323 1.1911621 1.4483643.4382324 3.0304565.9543457 4.8984375 1.1174316.2554932.0209961.5180054.0322266.7843628.0356445-4.7885132 8.4893684-11.6691437 12.0061989-20.9234619 22.7978477-2.6136475 3.0375977-4.6864014 5.8525391-5.6965942 7.543457-1.4589844.0385742-2.8740234.0761719-4.2374268.1123047-1.6312866.0476074-3.2167358.09375-4.7815552.1394043-.2359009-.4130859-.5209312-.8806152-.8639488-1.4074707-4.698658-6.9054489-12.5766945-13.6297112-19.2792358-19.2770958-4.8358765-4.0219727-7.8094482-6.720459-9.7799683-8.4470215 1.2191772-.1953124 2.3445434-.590576 3.449707-1.0639647z" fill="#202020"/></g></svg>