<svg id="Layer_1" enable-background="new 0 0 135 135" height="512" viewBox="0 0 135 135" width="512" xmlns="http://www.w3.org/2000/svg"><g><g><path d="m12.5846167 102.7321014h.0099487c-.0799561.1196289-.1699829.25-.2599487.3696289z" fill="#ee2a7b"/></g><g><path d="m17.614584 27.0519295c.0900269.1699219.1799927.3300781.2600098.5-.1500244 0-.289978.0097656-.4400024.0097656z" fill="#ee2a7b"/></g><g><path d="m44.5846176 130.9918671c.0999756-.1201172.1999512-.2402344.3099976-.3598633 0 .0898438.0099487.1796875.0099487.2700195z" fill="#ee2a7b"/></g><g><path d="m116.5846176 105.8419647c-.0900269-.3999023-.1700439-.800293-.2600098-1.2099609.3699951.0498047.75.1000977 1.1199951.159668z" fill="#ee2a7b"/></g><g><path d="m116.1745834 85.3116913c-2.1499634 6.1601563-1.210022 12.9101563.1500244 19.3203125-4.2900391-.6000977-8.6199951-.8500977-12.9299927-.7700195-2.5900269.0498047-5.25.2397461-7.6600342 1.5698242-6.6900024 3.6699219-9.3300171 14.4301758-11.1900024 23.9199219l.460022.75c-3.2000122-4.199707-8.0800171-6.7197266-12.7999878-9.1000977-1.8300171-.9296875-3.6900024-1.8598633-5.6900024-2.2998047-4.3099976-.9501953-8.8699951.5302734-12.5200195 3.0200195-3.5200195 2.3901367-6.3400269 5.6499023-9.0999756 8.9101563-.3000488-7.340332-2.7700195-14.5600586-7.0300293-20.5400391-1.5999756-2.25-3.4799805-4.3500977-5.8200073-5.7900391-5.6699848-3.5-12.8800068-2.6499023-19.4500122-1.5698242 4.1100454-5.800293 6.1300039-13.2001953 4.7700186-20.1601563-.7999878-4.0898438-2.8399649-7.9599609-5.7600088-10.9199219-2.1400146-2.1899414-4.7600102-3.8701172-7.7000127-4.800293l-.539978-.6098633c5.3900151-.2099609 10.4500122-3.2998009 13.6400146-7.6401329 3.2000122-4.3398438 4.6400146-9.8198242 4.7000122-15.2099609.0499878-4.909668-1-9.8300781-3.0700073-14.2900391-.2300415-.5200195-.4800415-1.0400391-.7600098-1.5498047 3.75-.1098633 7.5200195-.2402344 11.2000122-.8300781 1.3699951-.2099609 2.7199707-.4897461 4.0499897-.8500977 5.0599976-1.3701172 9.8800049-4.1201172 12.4199829-8.2998047 1.6400146-2.7001963 2.1099854-5.7099619 2.7999878-8.7299814 1.2300415-5.3300781 4.3500366.9301758 6.5 2.3100586 4.0700073 2.5996094 8.8600464 4.1699219 13.6500244 4.7099609 7.8800049.8798838 15.9899902-1.1401367 21.2700195-5.300293l-.1700439.75c.1800537 7.7402353 4.3800049 15.250001 10.710022 19.1503906 6.3400269 3.8896484 14.5900269 4.0498047 21.0599976.3896484l-1.7700195 1.090332c-.5099487 2.5097656-.9299927 5.0698242-1.1599731 7.6499023-.3900146 4.25-.2800293 8.5200195.6799927 12.6499023 1.539978 6.6298828 5.5499878 12.8398399 11.3799973 15.4199181l.8699951.2802734c-6.1599672 4.7900404-12.6299989 9.9897475-15.1899965 17.3696303z" fill="#ee2a7b"/></g><g><path d="m121.3645859 30.8517342-1.7700195 1.090332c-.5099487 2.5097656-.9299927 5.0698242-1.1599731 7.6499023-4.8699951 1.3500977-9.9299927 1.4697266-15.039978-.6899414-5.9100342-2.4902344-13.6300049-9.1601563-16.5700073-16.1201172-10.6199951 3.6699219-22.6199951 2.6601563-32.5900269-3.5097656-4.6199951 9.909668-15.4699707 15.7998047-26.6900043 17.909668 1.2700195 8.050293 1.5700073 16.4902344-2.8399658 23.6298828-3.1300049 5.0600548-7.9000244 8.3300743-13.1000357 10.8403282-2.1400146-2.1899414-4.7600102-3.8701172-7.7000127-4.800293l-.539978-.6098633c5.3900151-.2099609 10.4500122-3.2998009 13.6400146-7.6401329 3.2000122-4.3398438 4.6400146-9.8198242 4.7000122-15.2099609.0499878-4.909668-1-9.8300781-3.0700073-14.2900391.8099976-.659668 1.8599854-1.0698242 3.0899658-1.159668 2.4100342-.1699219 4.9100342-.5703125 7.3500366-1.2202148 1.3699951-.2099609 2.7199707-.4897461 4.0499897-.8500977 5.0599976-1.3701172 9.8800049-4.1201172 12.4199829-8.2998047 1.6400146-2.7001963 2.1099854-5.7099619 2.7999878-8.7299814 1.2300415-5.3300781 4.3500366.9301758 6.5 2.3100586 4.0700073 2.5996094 8.8600464 4.1699219 13.6500244 4.7099609 7.8800049.8798838 15.9899902-1.1401367 21.2700195-5.300293l-.1700439.75c.1800537 7.7402353 4.3800049 15.250001 10.710022 19.1503906 6.3400263 3.8896496 14.5900263 4.0498058 21.059997.3896496z" fill="#f93890"/></g><g><path d="m94.1645737 89.0016327c-.6099854 1.7202148-1.4799805 3.4501953-2.9400024 4.9301758-.0799561.0698242-.1499634.1401367-.2299805.2099609-.4299927.4199219-.9099731.8203125-1.4500122 1.1801758-.2600098.1796875-.539978.3500977-.8399658.5097656-2.5200195 1.3701172-6.0599976 2.0400391-9.0800171 1.2602539-4.039978-1.0400391-5.6199951-4-6.25-6.8901367-.1099854-.5297852-.1900024-1.0498047-.25-1.5600586-.3800049-3.2597656-.4700317-6.6000977 1-9.7197266.9000244-1.9101563 2.4500122-3.7402344 4.6500244-5.1601563.1799927-.1098633.3499756-.2202148.5099487-.3198242 2.710022-1.6201172 4.4100342-1.5400391 7.6400146-.0200195.6799927.3198242 1.3099976.659668 1.8900146 1.0200195 5.8099976 3.669922 7.1199952 9.6298829 5.3499757 14.5595704z" fill="#bcbec0"/></g><g><path d="m59.8346176 55.6720467c-.8300171 2.2998047-2.1000366 4.6098633-4.6200562 6.3100586-2.5299683 1.699707-6.539978 2.6396446-9.9299927 1.7695313-4.3299561-1.1098633-5.8299561-4.4199219-6.3599854-7.5-.0599976-.3198242-.0999756-.6298828-.1400146-.9399414-.3800049-3.2597656-.4699707-6.5996094 1.0100098-9.7197266.9000244-1.9101563 2.4500122-3.75 4.6500244-5.1601563.1699829-.1201172.3399658-.2197266.5100098-.3198242 2.6999512-1.6201172 4.4099731-1.550293 7.6399536-.0302734 2.7600098 1.300293 4.7400513 3.050293 6.0300293 5.0102539 2.1900025 3.290039 2.4299927 7.1801757 1.210022 10.5800781z" fill="#bcbec0"/></g><g><path d="m59.8346176 55.6720467c-.8300171 2.2998047-2.1000366 4.6098633-4.6200562 6.3100586-2.5299683 1.699707-6.539978 2.6396446-9.9299927 1.7695313-4.3299561-1.1098633-5.8299561-4.4199219-6.3599854-7.5 3.710022.4804688 7.6900024.8203125 11.1099854-.5898438 4.1400146-1.699707 6.2700195-5.8100586 8.0599976-9.6601563.1600342-.3398438.3400269-.6499023.5300293-.909668 2.1900025 3.2900391 2.4299927 7.1801758 1.210022 10.5800782z" fill="#b1b1b2"/></g><g><path d="m94.1645737 89.0016327c-.6099854 1.7202148-1.4799805 3.4501953-2.9400024 4.9301758-.0799561.0698242-.1499634.1401367-.2299805.2099609-.1599731.1303711-.3200073.2700195-.4899902.3999023-.5800171.4702148-1.1799927.9003906-1.7999878 1.2900391-2.5200195 1.3701172-6.0599976 2.0400391-9.0800171 1.2602539-4.039978-1.0400391-5.6199951-4-6.25-6.8901367 3.8900146-.3198242 7.9799805-1 11.039978-3.5498047 3.3200073-2.7802734 3.710022-7.5102539 4.2600098-11.5200195.0300293-.2402344.0800171-.4799805.1400146-.6899414 5.8099975 3.6699219 7.1199951 9.6298828 5.3499756 14.5595703z" fill="#b1b1b2"/></g><g fill="#202020"><path d="m130.5436859 70.4212341c1.4105835-1.5776367 1.1733398-2.0302734.8259888-2.4750977-.1935425-.2475586-.4075928-.4599609-.8826904-.4272461-.7755585-1.9313354-11.3571548-4.9433441-10.0585861-28.9936562.130188-2.0263672.2244263-3.4140625.2089233-4.3701172-.0066528-.6347656-.065979-1.0664063-.1578979-1.3808594.585083-.4404297.864563-.8164063.9862061-1.0825195.1480103-.3520508.0324097-.59375-.1054688-.8383789-.2807617-.5141602-.6069946-.8320313-2.5557251-.3535156-14.9466171 3.2168083-24.3460388-3.6680679-28.1327515-16.1831055-.5158691-1.769043-.7640381-2.9389648-1.0562744-2.9907227.8977661-1.1787109.5985107-1.5791016.2871094-1.918457-.3934326-.4321289-.7832031-.6723633-2.574707.2763672-12.5585556 6.2160702-23.9932175 6.3188562-34.6161537-2.7377934-1.0285645-.875-1.75354-1.5595703-2.1786499-1.8232422-.0791626-.6933594-.3562622-.8647461-.7191162-1.0078125-.4969482-.1987302-1.0834351-.3432615-2.0930176 1.7182617-2.8492966 5.8401399-1.0011139 15.761858-19.685667 19.5917969-4.1445293.8411865-8.4387856 1.2524242-10.0629272 1.7978516-.1644897-.1416016-.2905273-.206543-.355896-.1699219-.0709839.0366211-.0857544.1645508-.0634155.3623047-.0708008.050293-.1194458.1005859-.1177979.1503906.0019531.0585938.0686646.1152344.1731567.1699219 2.8838863 13.3530045 4.6858578 26.8345718-7.6456909 34.6704102-1.9655156 1.2158203-3.4568486 1.7285194-4.4572148 2.1279335-1.0094604.3867188-1.5609741.6269531-1.8446655.8896484-.2850952.2651367-.3026733.534668-.2911377.8154297s.0407715.5473633.3864746.7670898c.0873413.0556641.1959229.109375.3297119.1582031.3515015.3266602 1.1856079.8168945 2.258728 1.5620117 8.1800709 5.739975 11.7898388 15.6082611 7.6480718 27.6079102-.7106323 1.987793-1.3297729 3.2958984-1.6893311 4.2226563-.750061 1.8422852-.442749 2.2036133.0265503 2.5405273.3257446.234375.6809692.4453125 1.4375-.1049805 2.4192924.1044769 6.5267982-.2982483 10.6893311.3671875 9.6856365 1.4687958 14.8440495 11.2974014 17.4930401 20.0102539.7000732 2.3984375 1.0461426 4.0649414 1.3538818 5.190918.5661621 2.2612305 1.0245361 2.3662109 1.6037598 2.3417969.3413696-.0136719.6915894-.059082.942749-.7133789 1.8585129-1.4866028 4.4662399-4.2071152 7.7261963-6.4375 2.4771118-1.7197266 5.4985352-3.0473633 8.3917236-3.3652344 4.2168083-.4794312 6.6606026.992897 12.5274696 3.9794922 1.4706421.7539063 2.6898804 1.4311523 3.7106323 2.0424805 2.0403442 1.222168 3.2871094 2.1728516 4.1712036 2.7973633.8798828.6279297 1.3910522.934082 1.7671509 1.0131836.3776245.0786133.6069946-.0634766.8296509-.2348633.2227783-.171875.4232178-.3496094.4109497-.7519531-.0060425-.203125-.0651245-.4682617-.2148438-.8095703 1.5410919-3.5836182 3.7474365-13.2283096 8.124939-18.3764648 3.3899231-4.063591 6.6090012-4.0671921 11.8342896-4.206543 4.5338135-.0592117 7.7722549.1270828 9.7340088.050293.6797485-.0209961 1.1593628-.0791016 1.522583-.159668.074646.0795898.1425781.1269531.1975098.1152344.0602417-.0131836.1049194-.0898438.1403809-.2060547.5759277-.2026367.6682739-.5053711.7193604-.847168.055481-.3706055.0543823-.7402344-.6554565-1.1469727-.0137939-.3046875-.0310059-.6274414-.0541992-.9833984-1.3414158-21.2559123 4.0025936-21.2007289 13.8100506-32.2407222zm-15.3665695 32.5410157c.0075684.0229492.0147705.0424805.0223389.0654297-2.936203-.8228302-6.9914703-1.1216812-10.0649414-1.1777344-6.0913162.0016937-10.6845932.2854843-14.7883911 5.8759766-2.2254028 3.0053711-3.4989624 6.5581055-4.3667603 9.7700195-.8676147 3.2265625-1.2973633 6.1767578-1.5199585 8.3188477-.0459595.46875-.0787354.8911133-.1022949 1.2783203-2.92836-3.9128571-14.8704224-11.8695908-22.9486122-10.4169922-3.6651611.6459961-7.0703735 2.5791016-9.5939331 4.7973633-2.5395508 2.2143555-4.3499756 4.5678711-5.5685425 6.300293-.0239868.034668-.0439453.0654297-.0674438.0996094.0197754-1.2407227-.0844727-2.9926758-.5903931-5.4208984-2.1846237-9.9572983-9.0120659-21.3722534-20.8376446-21.9575195-3.5454712-.1621094-6.6082153.4160156-8.7655029.9272461-.3129883.0771484-.6016235.1538086-.8764038.2290039.6724243-.8286133 1.4963989-2.0449219 2.3521729-3.8837891 6.1010437-13.5097809-.6377945-26.8684006-10.3876953-30.4487305-.0495605-.0180664-.0935669-.0307617-.1422119-.0473633 1.2291265-.1640625 2.8640752-.5678711 4.8740239-1.5961914 12.2585449-6.3701897 14.6160774-24.0779572 8.0380859-35.8120155-.4257813-.7661133-.8259888-1.3808594-1.1713257-1.84375.5178223.0878906 1.1776733.1669922 1.9650269.2338867 1.9758301.1616211 4.7220459.2602539 7.7973022.0239258 15.6995182-1.2373009 20.6145573-9.0219059 22.0532818-21.644043.0126343-.1103516.0169678-.1962891.0262451-.2963867.2354126.4682617.5739136 1.0371094 1.0274658 1.6782231 8.4065857 11.899333 28.6438713 13.1908216 37.5307045 3.9604492.1165161-.1279297.2022095-.2353516.2980347-.3496094-.1748657.4794922-.3109131 1.5039063-.2628784 2.9448242.0869141 2.0126944.581665 4.8374014 1.8846436 7.7080069 3.9345627 9.1396847 13.5006714 14.7951508 23.9189453 12.78125 1.0474854-.2133789 1.9207764-.4785156 2.6634521-.7583008-.2908325.8974609-.5979614 2.1191406-.8742065 3.8022461-2.6464844 17.2720757 6.3696289 28.3619576 13.0303879 29.6069374-.2730713.1035156-.5837402.2421875-.9712524.4506836-12.1818397 6.6067814-18.6692588 19.220612-13.5817191 34.8007817z"/><path d="m87.0709152 32.7430077c1.6639404-3.4404297 1.3093262-3.8369141.8294067-4.1298828-.4800415-.2929688-.9937134-.4282227-3.289917 2.6337891-2.2860718 3.0673828-6.3809814 9.3188477-13.8345337 21.9077148-4.085144 6.8974609-10.2441444 17.904789-15.1793251 27.2959023-4.942688 9.3881836-8.6838989 17.1450195-8.1957397 17.4174805.4938354.2758789 5.1211548-6.9794922 10.6959839-15.9882813 5.5679932-9.013672 12.1073647-19.7680703 16.1845131-26.6518594 7.4387817-12.5639648 11.1356812-19.0385742 12.7896118-22.4848632z"/><path d="m95.4622726 80.5931091c-.3262329-.496582-.6331787-.7753906-.869812-.9365234-.4886475-.3134766-.7218018-.1796875-.9536743-.0209961-.2319336.1582031-.4269409.3515625-.4014893.8432617-.2949448 12.5153961-5.9916229 16.1108551-12.815979 14.7011719-1.4785156-.3203125-2.9345703-1.034668-3.911499-2.4628906-3.6829071-5.09198-1.5562057-21.500412 8.6260376-18.8725586 1.8416138.4438477 3.3945923 1.4423828 4.5977173 2.3955078 2.409668 1.9536133 3.6448364 3.5947266 3.9052124 3.3955078.1124878-.0791016-.0523682-.5708008-.4953003-1.3823242-.4501343-.8051758-1.1781006-1.9389648-2.3320313-3.1757813-1.1452637-1.2216797-2.7548828-2.6040039-5.0114746-3.4111328-9.1365128-3.3763733-16.8307571 7.5023727-14.2251587 19.3759766.3258667 1.3603516.8248901 2.7167969 1.6289063 3.9082031.7868652 1.1938477 1.8427734 2.1967773 2.9740601 2.8818359 1.1361694.6962891 2.2927856 1.0776367 3.3788452 1.3276367 2.0019531.4223633 3.8710327.3413086 5.5491943.0283203 1.6821289-.3178711 3.1954956-.862793 4.5419922-1.6083984 2.7262573-1.5087891 4.4120483-3.7734375 5.3389282-5.7392578.9265137-1.9829102 1.3518677-3.6601563 1.5654907-5.1982422.2028809-1.5209961.0927124-2.8242188-.1473999-3.8300781-.2452392-1.0112305-.6090087-1.7285156-.9425659-2.2192383z"/><path d="m50.7725105 65.8548279c1.6821289-.3173828 3.1954956-.862793 4.5419922-1.6083984 2.7261963-1.5083046 4.4120483-3.772953 5.3389282-5.7387733.9265137-1.9829102 1.3518677-3.6606445 1.5654907-5.1987305.2028198-1.5209961.0926514-2.8242188-.1473999-3.8295898-.2452393-1.0112305-.6090088-1.7290039-.9425659-2.2197266-.3262329-.4960938-.6331787-.7749023-.869812-.9365234-.4886475-.3129883-.7218018-.1791992-.9536743-.0209961-.2319336.1582031-.4269409.3520508-.4014893.8432617-.0118408.5024414.2697754 1.28125.3190918 2.7573242.0114746.7397461-.0450439 1.659668-.3289185 2.8149414-.2765503 1.1293945-.7817993 2.5976563-1.581665 4.0810547-.7975464 1.4663086-2.0057373 2.9355469-3.9038696 3.9428711-1.8835449.9887695-4.6495361 1.6567383-7.3206177 1.1054688-1.4785156-.3203125-2.9345703-1.0351563-3.911499-2.4633789-.5071411-.7011719-.8803711-1.6020508-1.1582642-2.6040039-.1272583-.5083008-.2417603-1.0361328-.3178711-1.5922852-.081543-.5795898-.1558838-1.190918-.2110596-1.7817383-.2317505-2.3779297-.132019-4.7314453.7012939-6.8037109.8299561-2.0141602 2.3813477-4.0649414 4.0523682-5.2441406.8648071-.609375 1.6973877-.9584961 2.6656494-1.0361328.9990845-.1254883 1.9801025-.0463867 2.8939209.1894531 1.8416138.4438477 3.3945923 1.4423828 4.5977173 2.3955078 2.409668 1.9536133 3.6448364 3.5952148 3.9052124 3.3955078.1124268-.0786133-.0523682-.5708008-.4953003-1.3823242-.4501343-.8051758-1.1781006-1.9389648-2.3320313-3.175293-1.1453247-1.222168-2.7548828-2.6044922-5.0114746-3.4116211-1.1151733-.4116211-2.3925781-.6420898-3.7081909-.597168-.6340942-.0288086-1.4191895.1181641-2.0999756.3095703-.6853638.2226563-1.3580933.5102539-1.9628296.8837891-1.234375.7270508-2.2805786 1.684082-3.2125854 2.7353516-.9182129 1.0668945-1.7461548 2.2060547-2.3896484 3.5913086-1.2763062 2.7119141-1.5010986 5.75-1.3471069 8.4160156.0358887.6772461.0890503 1.3217773.1572266 1.9824219.0688477.6850586.1884766 1.3735352.3379517 2.0551758.3258667 1.3598633.8248901 2.7167969 1.6289063 3.9077148.7868652 1.1938477 1.8427124 2.1967773 2.9740601 2.8818398 1.1361694.6962891 2.2927856 1.0776367 3.3788452 1.3276367 2.001892.4223631 3.8710326.3413085 5.5491942.0283202z"/></g></g></svg>