<svg id="Layer_1" enable-background="new 0 0 135 135" height="512" viewBox="0 0 135 135" width="512" xmlns="http://www.w3.org/2000/svg"><g><g><path d="m122.2289352 113.4369965c-9.7000732 0-19.4000244.2001953-29.1099854.3203125-.9199219.0097656-1.8300781.0195313-2.75.0297852-12.9100342.1201172-25.8000488-1.1201172-38.6300049-1.1098633-13.1500244.0097656-26.2999287-.800293-39.3499756-2.4101563-.6999512-.0898438-1.4300537-.1899414-2.0500488-.5400391-1.1099854-.6401367-1.5999756-1.9501953-1.9699707-3.1699219-2.5-8.2299805-3.3200684-16.75-3.4799805-25.2900391-.1000994-5.4799804.0699445-10.9697265.2299787-16.4101562.2099609-7.0698242.0100098-14.1196289.1300049-21.1796875.0799561-5.2402344.039917-11.6503906 3.5499268-15.9599609 4.2700195-5.2402344 11.6800537-5.9799805 18.7700195-5.9003906 2.1700439.0200195 4.3100586.1201172 6.3200703.1904297 1.3699951.0498047 2.6799316.0898438 3.8999023.0795898 11.9899902-.0898438 23.9799805-.1196289 35.9700928.0302734 8.7698975.1000977 17.5499268.2998047 26.3099365.8198242 8.0200195.4702148 15.9899902-.0400391 23.6999512 2.7202148 1.420166.5097656 2.8901367 1.159668 3.7301025 2.4199219.2299805.3398438.4000244.7099609.5198898 1.0898438.3500977 1.050293.3701172 2.2202148.380127 3.3300781.0500488 7.5800781.4599609 15.050293.7700195 22.6000977.2099609 9.4296875.3798828 18.8500977.5 28.2797852.0599365 4.7099609.1098633 9.4301758.1499023 14.1401367 0 8.7202148 2.9899903 15.9199219-7.5899582 15.9199219z" fill="#e3f8ff"/></g><g><path d="m128.0188446 29.1669769c-26.4699631-1.0400391-52.9999924-.6899414-79.429924 1.2299805-10.0100098.7202148-27.4799824.9199219-32.3699951 11.5302734-4.9799805 10.8100586-6.1500244 23.2197266-4.8299561 34.9399414.4599609 4.0698242-3.4300537 5.5297852-6.5 4.3999023-.1000995-5.4799804.0699444-10.9697265.2299786-16.4101562.2099609-7.0698242.0100098-14.1196289.1300049-21.1796875.0799561-5.2402344.039917-11.6503906 3.5499268-15.9599609 4.2700195-5.2402344 11.6800537-5.9799805 18.7700195-5.9003906-.5500488.75-1.3399658 1.3701172-2.3999023 1.75-.9799805.3500977-1.9300537.7700195-2.8601074 1.2402344 3.7099609-1.3398438 7.6900635-2.1899414 11.58008-2.7998047 1.3699951.0498047 2.6799316.0898438 3.8999023.0795898 11.9899902-.0898438 23.9799805-.1196289 35.9700928.0302734 8.7698975.1000977 17.5499268.2998047 26.3099365.8198242 8.0200195.4702148 15.9899902-.0400391 23.6999512 2.7202148 1.420166.5097656 2.8901367 1.159668 3.7301025 2.4199219.2299804.3398438.4000244.709961.5198898 1.0898438z" fill="#fafeff"/></g><g><path d="m110.7986374 39.5654144c-1.447998 18.5834961-1.7080078 37.2089844-.779541 55.8251953.3193359 6.4047852 10.3212891 6.4433594 10 0-.9284668-18.6162109-.668457-37.2416992.779541-55.8251953.4998779-6.4169922-9.5026856-6.3842773-10 0z" fill="#d5f0f7"/></g><g><path d="m106.7776413 40.0410004c-.3935547-6.3935547-10.3963623-6.4379883-10 0 1.1982422 19.4584961 2.2871094 38.9584961.0449219 58.3862305-.7365723 6.3813477 9.2695313 6.3286133 10 0 2.2421875-19.4272462 1.1533203-38.9277344-.0449219-58.3862305z" fill="#d5f0f7"/></g><g><path d="m96.3960495 39.5493011c.1096191-6.4375-9.8902588-6.4389648-10 0-.1628418 9.5595703-1.2716064 19.0419922-1.979248 28.5673828-.697998 9.3969727.5227051 18.972168-.5167236 28.28125-.7130127 6.3862305 9.2926025 6.3354492 10 0 1.0391846-9.3056641-.1811523-18.8867188.5167236-28.28125.7075195-9.5249023 1.8164062-19.0078124 1.979248-28.5673828z" fill="#d5f0f7"/></g><g><path d="m83.5116501 39.397934c.3048096-6.4331055-9.6959229-6.4174805-10 0-.918335 19.378418-1.0472412 38.7729492-.3865967 58.1616211.2185059 6.4174805 10.2196045 6.4472656 10 0-.6606445-19.3886719-.5317383-38.7832032.3865967-58.1616211z" fill="#d5f0f7"/></g><g><path d="m72.060112 40.554184c-.0883789-6.4291992-10.088623-6.4477539-10 0 .2546387 18.5019531.5091553 37.0039063.7636719 55.5058594.088501 6.4291992 10.0887451 6.4477539 10 0-.2545166-18.5019532-.5090332-37.0039063-.7636719-55.5058594z" fill="#d5f0f7"/></g><g><path d="m60.3801346 97.2681961c-1.0311165-19.3864136 1.7321053-38.7448692.6800461-58.1309509-.3308563-6.0970764-9.1675949-6.4117928-8.8336792-.256649 1.0520592 19.3860817-1.7111626 38.7445412-.6800461 58.1309471.3243446 6.0982895 9.1610985 6.4125366 8.8336792.2566528z" fill="#d5f0f7"/></g><g><path d="m39.6482925 38.4270287c-.9807091 18.8568268-1.4929314 37.7284355-1.5363007 56.6091042-.0144577 6.2824326 10.0217247 6.2919617 10.0361786 0 .0433693-18.880188.5555916-37.7522774 1.5363007-56.6091042.3266182-6.2795754-9.7105446-6.2624131-10.0361786 0z" fill="#d5f0f7"/></g><g><path d="m37.6146774 94.0522308c-2.6646729-18.8457031.0883789-37.9560547-.8591309-56.8891602-.3092041-6.1796875-9.6295185-6.4301758-9.9937763-.6523438-2.5224609-2.7021484-8.572998-1.5664063-8.9219971 3.375-1.3452148 19.0478516-2.6325684 38.105957-2.270874 57.2128906.121582 6.4272461 10.1220703 6.4482422 10 0-.2802734-14.8066406.432373-29.5839844 1.392334-44.3500977-.1934814 14.6748047-1.0585938 29.3261719 1.0107422 43.9624023.8972168 6.3457034 10.5340596 3.6459963 9.6427021-2.6586912z" fill="#d5f0f7"/></g><g fill="#202020"><path d="m7.7302451 108.6856918c.4125972.8710938 1.1613765 1.8666992 2.2767329 2.3662109 1.0871582.4707031 1.9909668.4765625 2.75354.581543.7993164.0883789 1.5953369.1762695 2.3876953.2636719 6.3419199.6777344 12.4786386 1.1333008 18.3304443 1.4082031 2.861599.1358643 49.6084175.9157486 51.9642372.8764648 2.4742432-.0366211 4.395874-.1142578 5.6949463-.1967773 1.2996826-.0825195 1.9816895-.1591797 1.980835-.2294922-.0009766-.1538086-2.7375488-.2089844-7.6643066-.3945313-.102478-.0037918-51.72855-2.3212662-51.8471718-2.3291016-5.8040752-.3803711-11.885252-.9370117-18.1643066-1.7084961-.7844238-.0991211-1.5723877-.1987305-2.3637695-.2988281-.8166504-.1015625-1.5554199-.1879883-1.951416-.390625-5.9411335-2.3200912-5.3431039-67.1047363-3.172729-75.1469727 1.9455857-7.0435982 7.3691659-8.954546 14.574585-9.6606464 3.712162-.2504082 64.8851013.3810673 87.6402588 1.5380859 6.1837082.2934227 15.9600372 1.2036915 16.1861572 6.0610352.0292969.9467793.0582275 1.8852558.0870361 2.8164082.1369629 3.8378906.2692871 7.5463867.3972168 11.1298828.126709 3.5825195.2490234 7.0405273.3670654 10.3774414.0684814 3.3276367.1345215 6.5351563.1981201 9.6269493.1343994 6.1831055.258667 11.902832.3736572 17.1938477.3163528 18.7360611.2020569 15.6634827.5991135 21.1352539.1439209 1.9916992.1965332 3.8574219-.185791 5.2216797-.5729904 2.625-3.8581467 2.9160156-6.7741623 2.9477539-15.8882904.4291916-28.3119888.7133179-28.2995605 1.8808594.0145111 1.3378448 18.2007828 1.2097015 28.2998047 1.2617188 9.321022-.0422821 10.7921677-3.4169769 10.4361496-11.5234375-.2967529-5.3074341-.2246857-1.8928299-.3234863-20.9746094-.0731201-5.3051758-.1520996-11.0405273-.2375488-17.2407227-.0462646-3.1000938-.0942383-6.3164024-.144043-9.6533165-.1030273-3.3242188-.2098389-6.769043-.3205566-10.3383789-.1160889-3.5678711-.2362061-7.2602539-.3605957-11.081543-.027832-.984375-.0559082-1.9765625-.0842285-2.9770527-.4586639-8.3027267-10.7872009-9.4789925-20.0054855-9.925293-22.4000778-1.1535873-84.0752258-1.5224533-88.1365967-1.2182617-8.8260393.9198627-15.4493847 3.8439159-17.7476807 12.4814472-1.8672019 7.265114-2.7524176 63.7595979 3.2358397 76.119629z"/><path d="m32.9673042 36.0431175c-1.4501381 0-3.7824745 63.5410118 0 63.5410118 3.6751557 0 1.5559502-63.5410118 0-63.5410118z"/><path d="m44.650898 36.0431175c-1.4501381 0-3.7824745 63.5410118 0 63.5410118 1.1247559 0 2.036377-.484375 2.036377-23.6337891-.0000001-12.6850547-.9116212-39.9072227-2.036377-39.9072227z"/><path d="m21.2838345 36.0431175c-1.45014 0-3.7824764 63.5410118 0 63.5410118 3.6751537 0 1.5559501-63.5410118 0-63.5410118z"/><path d="m103.0686264 99.5841293c3.6751556 0 1.5559464-63.5410118 0-63.5410118-1.1245117 0-2.0361328 27.222168-2.0361328 39.9072227 0 23.1494141.9116211 23.6337891 2.0361328 23.6337891z"/><path d="m114.7520981 99.5841293c3.6751556 0 1.5559464-63.5410118 0-63.5410118-1.4501419 0-3.7824783 63.5410118 0 63.5410118z"/><path d="m56.3346138 36.3688011c-3.6751518 0-1.5559502 63.2153282 0 63.2153282 1.4501419 0 3.7824783-63.2153282 0-63.2153282z"/><path d="m68.0182114 36.3688011c-3.6751556 0-1.555954 63.2153282 0 63.2153282 1.4501342 0 3.7824707-63.2153282 0-63.2153282z"/><path d="m79.7018051 36.3688011c-3.6751556 0-1.555954 63.2153282 0 63.2153282 1.4501343 0 3.7824707-63.2153282 0-63.2153282z"/><path d="m91.3852768 36.3688011c-3.6751556 0-1.555954 63.2153282 0 63.2153282 1.4501343 0 3.7824707-63.2153282 0-63.2153282z"/></g></g></svg>