<svg id="Layer_1" enable-background="new 0 0 135 135" height="512" viewBox="0 0 135 135" width="512" xmlns="http://www.w3.org/2000/svg"><g><g><path d="m80.392746 117.8172836c-.0700073.1899414-.1500244.3798828-.2300415.5600586-3.0299683 7.0698242-10.2199707 12.5698318-18.1399536 12.8403397-7.9800415.2695313-15.9899902-5.4003983-17.3300171-12.9604568-.0300293-.1499023-.0599976-.2998047-.0800171-.449707 4.2900391-2.7001953 8.6600342-4.3300781 13.1000366-4.9599609 2.7599487-.3798828 5.539978-.3798828 8.3499756 0h.0100098c4.7000122.6298827 9.4799804 2.3100585 14.3200073 4.9697264z" fill="#bcbec0"/></g><g><path d="m80.392746 117.8172836c-.0700073.1899414-.1500244.3798828-.2300415.5600586-6.2299805 2.4702148-12.5899658 5.2099609-19.3799438 4.9301758-5.7300415-.2299805-11.1000366-2.3398438-16.0900269-5.050293-.0300293-.1499023-.0599976-.2998047-.0800171-.449707 4.2900391-2.7001953 8.6600342-4.3300781 13.1000366-4.9599609 1.2399902.2797852 2.5.4599609 3.7799683.4897461 1.5300293.0400391 3.0499878-.1499023 4.5700073-.4897461h.0100098c4.7000122.6298828 9.4799804 2.3100586 14.3200073 4.9697265z" fill="#a7a9ac"/></g><g><path d="m121.0727386 108.4676743c-1.8900146 6.949707-9.7700195 11.2197266-17.4000244 11.949707-7.6300049.7202148-15.2099609-1.2797852-22.7199707-2.7597656-12.0300293-2.3701172-24.6600342-3.4204102-36.7900391-1.050293-7.789978 1.5200195-18.419981 6.7602539-26.3899517 4.300293-1.8699961-.5703125-3.7100229-1.6401367-4.4700327-3.340332-.4799805-1.0498047-.5-2.2299805-.3499756-3.3598633.2600098-1.9301758.9899902-3.7299805 1.9400024-5.4599609 1.2799692-2.3198242 2.9899912-4.4902344 4.5599985-6.6601563 6.8300171-9.409668 2.4599609-19.5297852 1.6099854-29.7900391-.8699951-10.6396446.8400269-21.6396446 6.0300293-31.1899376.6199951-1.1499023 1.289978-2.2700195 2.0099487-3.3598633 8.3300152-12.6899414 24.0500469-21.5 39.9100342-20.1201172 7.7700195.6699219 15.6900024 4.2900391 21.4400024 9.7001953 3.8800049 3.6499023 6.7799683 8.1098633 7.9799805 13.0498047 1.5499878 6.3500977-1.710022 12.6201172-.9799805 19.3100586.8300171 7.5898399 3.8200073 14.9799767 8.6499634 21.129879 3.4000244 4.340332 7.6600342 8.050293 10.9100342 12.4799805 3.2499982 4.4399414 5.4699689 9.9599609 4.0599957 15.1704102z" fill="#f9ed32"/></g><g><path d="m90.4527435 27.3275414c-.8800049 2.0800781-2.9700317 3.7397461-5.7900391 3.25-10.0799561-1.75-20.789978-2.4399414-30.6499634.8198242-9.4700317 3.1401367-16.4100342 10.6699219-20.0800171 19.8203125-4.4699688 11.1098633-3.2899761 22.2397423-3.6900005 33.8598595-.3300171 9.6401367-4.75 17.8598633-13.0700073 22.9199219-.7799683.4702148-1.5499887.7099609-2.2799692.75 1.2799692-2.3198242 2.9899912-4.4902344 4.5599985-6.6601563 6.8300171-9.409668 2.4599609-19.5297852 1.6099854-29.7900391-.8699951-10.6396446.8400269-21.6396446 6.0300293-31.1899376.6199951-1.1499023 1.289978-2.2700195 2.0099487-3.3598633 8.3300152-12.6899414 24.0500469-21.5 39.9100342-20.1201172 7.7700176.6699219 15.6900005 4.2900391 21.4400005 9.7001954z" fill="#fff383"/></g><path d="m17.7028961 122.3760452c8.1065388 2.4572983 18.9800224-2.6646652 26.7302856-4.144043-.0911255.5585938-.0535889 1.6469727.359436 3.1064453 2.0114288 6.4413528 8.2493629 10.6715317 14.463623 11.6176682 9.1603775 1.4279175 18.7145615-4.9084473 21.4055786-12.3232346.1612549-.4355469.246521-.7851563.3030396-1.0957031.3610229.0732422.723877.1362305 1.0845947.2114258 9.4906616 1.9803543 18.7381821 4.3142166 28.0650024 1.2592773 10.1464233-3.4587555 16.0035019-11.7167892 12.2329102-22.0996094-1.001709-2.7617188-2.4770508-5.1899414-4.1011353-7.3354492-3.256897-4.2568359-6.8529053-7.5307617-9.6168213-10.8745117-8.6525879-10.2307663-10.1914902-19.6338005-8.5257568-29.6699257.5539551-3.3168945 1.1381836-6.909668.3961182-10.4907227-2.5222472-11.3523387-12.8693618-19.9675254-24.0053099-23.331541-.2508545-.0742188-.5-.1337891-.7502441-.2026367-.0150146-.1772461-.0304565-.3549805-.0582275-.5668945-.0731201-.5532236-.1853638-1.2382822-.3892212-2.1108408-3.7677308-15.6627953-29.2499772-18.6310992-28.0544435 3.0068369.0895996 1.1450195.244873 2.0229492.4105225 2.5917969-9.4740753 4.4016171-17.2891121 12.618475-19.9603882 18.6323223-.9992065 2.144043-.8463745 2.4111328-.600647 2.546875.2457886.1362305.5752563.1079102 1.9515381-1.7177734 6.825882-9.418272 14.9556274-14.9766636 24.0303955-18.04492 7.3588371-2.423378 15.0410919-2.7916889 22.3288574-.5449219 9.8568726 3.0921974 19.0601578 10.7999706 21.1867676 20.5336895.5563354 2.6694336.1243896 5.7026367-.4561157 9.0341797-2.2080917 13.1229477 2.1863174 24.4487495 9.3739014 32.9492226 2.9896851 3.5922852 6.5708618 6.8637695 9.5108032 10.7080078 1.451416 1.902832 2.715332 3.996582 3.5459595 6.262207 3.0299149 8.2446442-1.7367096 14.2726974-9.6989136 17.0415039-8.0499268 2.8587418-17.7961273.4771729-26.0812988-1.1728516-12.6509857-2.5122223-25.5136948-3.6772156-38.0933228-1.2973633-7.7840652 1.3791809-18.8815536 6.8789291-26.2075806 4.7495117-2.5946693-.6349258-4.3726454-1.9791336-4.2275391-4.6352539.5290184-8.0398407 8.9022865-11.5070343 9.9368286-22.1704102.8529644-8.5127182-2.7121315-15.8939896-2.5231323-27.3950195.0736084-7.7304726 1.6019897-13.8930702 3.0060425-17.979496 1.4015503-4.1083984 2.5839233-6.234375 2.4168091-6.3203125-.0617065-.0336914-.3998413.4707031-.9907837 1.4672852-.5703735 1.0058594-1.3631592 2.5234375-2.1947021 4.5649414-1.6764526 4.059082-3.4992065 10.300293-3.8220215 18.2255898-.5641708 11.6150436 2.8130913 18.8956833 1.8449097 27.1835938-1.1750717 9.848877-9.6262178 13.131012-10.4065552 22.2470703-.2862806 4.0928039 2.3384752 6.5275268 6.1802368 7.5839843zm34.2839966-104.2324238c-1.241333.449707-2.4024048.9287109-3.5202026 1.4228516.1051636-.5507813.2156982-1.28125.3592529-2.1621094 3.1956596-17.677454 18.4727631-13.3695469 23.6390381-1.144043-6.8889618-1.2345781-14.010273-.4052009-20.4780884 1.8833008zm26.3345337 100.8779316c-.0667114.0854492-.1268311.1567383-.1986084.2529297-4.8339539 6.0707932-10.6985397 10.678978-18.421936 9.9555588-5.7972374-.5119781-10.8876915-3.9430161-13.4450684-8.5014572-.6653442-1.1816406-1.0391235-2.1293945-1.3120728-2.5976563.1113281-.019043.2220459-.0478516.3334961-.065918 10.8896027-1.9187774 22.0858841-1.0829086 33.0441895.956543z" fill="#202020"/></g></svg>