<svg id="Layer_1" enable-background="new 0 0 135 135" height="512" viewBox="0 0 135 135" width="512" xmlns="http://www.w3.org/2000/svg"><g><g><path d="m108.5541687 79.9176254-79.1300049-3.8701172c-.0200195-.1899414-.039978-.3901367-.0599976-.5800781-1-9.5698242-.3699951-20.7099571 2.1199951-30.7797813.0800171-.3200684.1599731-.6401367.2399902-.9602051 1.0700092-4.0900879 2.4400043-7.9699707 4.1300068-11.4899902 1.1000366-2.290041 2.3800049-4.58008 4.4000244-6.1098652 1.7299805-1.3200684 3.8800049-1.9501953 6-2.4902344 14.9299927-3.7797852 30.7899742-3.829834 45.7499962-.1398926 3.9699707.9899902 8.0799561 2.3701172 11.0199585 5.1101074.5500488.5 1.0599976 1.0698242 1.5200195 1.6799316 2.4299927 3.2600117 3.039978 7.5000019 3.4700317 11.5500507.959963 9.1899415.5899679 28.850094.5399801 38.0800744z" fill="#ffd97f"/></g><g><path d="m120.1641541 89.4273911c-.0299683.4599609-.0999756.920166-.2099609 1.380127-.3700562 1.5900879-.7700195 3.1799316-1.2000122 4.7600098-1.8300171 6.6398926-4.2600098 13.1298828-7.4700317 19.2199707-1.9799805 3.75-4.3200073 7.1899414-6.9199829 10.5400391-.9199829 1.1899414-1.7600098 2.6699219-3.210022 3.3098221-2.0199585.880127-3.7799683-.5097656-5.8200073-.4399414-1.1099854.0300293-2.1399536.5400391-3.1599731.9599609-.1099854.0500488-.2199707.0900879-.3300171.130127-2.5899658 1.0300293-5.3599854 1.5900879-8.1599731 1.6599121-2.7700195.0900879-5.5599976-.2998047-8.210022-1.119873-.0299683-.0200195-.0499878-.0300293-.0800171-.0300293-1.8799438-.6000977-3.6799927-1.4299316-5.3599854-2.4799881-1.1499634-.7199707-2.3099976-1.5600586-3.6699829-1.6298828-1.710022-.0900879-3.2000084 1.079834-4.7000084 1.9099121-5.289978 2.9299393-11.8599854 1.9099197-17.6599731.1599121-.0499878-.0200195-.1100464-.0300293-.1600342-.0500488-1.5599976-.4599609-3.2000122-.9599609-4.7799683-.579834-1.4100342.3398438-2.5599976 1.3100662-3.7700195 2.0998611-2.1599731 1.4001465-3.7100239 1.2600098-4.9799824.3300781-1.4700317-1.0600586-2.5700073-3.1701736-3.7900391-5.1101151-2.3999634-3.8198242-4.4799805-7.8498535-6.1999512-12.0200195-3.4500122-8.3498535-5.4900513-17.2797852-5.9500122-26.2998047-.0599976-1.25-.0700073-2.5700684.1900024-3.7900391.2000122-.9101563.5499878-1.7700195 1.1400146-2.4899902.0799561-.1000977.1599731-.1901855.2599487-.2800293 1.0400391-1.1000977 2.5500488-1.6801758 4-2.1801758 5.6600342-1.9199219 11.5200195-3.2299805 17.4500141-3.8999023 5.710022-.6398926 11.5200195-.6999512 17.0900269-2.1098633 3.2600098-.8200684 6.5-2.2001953 9.1699829-4.2202148 2.7299767-2.0498047 6.4099693-2.3898926 9.2199669-.579834.2300415.1499023.460022.3098145.6800537.4899902 10.4499512 8.5100098 24.7299805 11.5500488 38.8199463 13.1799316.1100464.0100098.2200317.0300293.3200073.0500488 4.5100098.6899413 7.7400513 4.7099609 7.4500123 9.1298828z" fill="#9b8579"/></g><g><path d="m84.8906403 13.9430275c.1835022 2.1228352 1.5923462 8.5365696-2.0257721 6.2195625-1.8691177-1.1968899-4.2170563-1.3043289-6.4360886-1.2590847-3.4526367.0703926-6.899498.4218922-10.2952652 1.0498772-.8283539.1531868-1.691246.3216839-2.501606.0915985-2.9170837-.8282433-2.248394-6.6328592-2.1830635-8.8860588.0642967-2.2173605.7231522-4.6155143 2.5401955-5.8879814 1.4034996-.9828673 3.2152748-1.1058879 4.9263496-1.1957188 2.7946854-.1467202 5.6369019-.289309 8.3553467.3754053s5.3447571 2.2659178 6.5725555 4.780736c.7100525 1.4543495.9079743 3.0992498 1.0473481 4.7116642z" fill="#ed1c24"/></g><g><path d="m72.8941345 66.5775375c-.1599731.2199707-.3399658.4299316-.5499878.6298828-5.3599854 5.2600098-13.3999596 7.8701172-20.549984 9.7600098-7.5 1.9702148-16.539978 1.2299805-23.4699726 4.75-7.25 3.6699219-5.4900513 14.1401367-4.2700195 20.75 1.5599976 8.4301758 4.0599976 16.7600098 6.1400146 25.0700684.1799927.7299881.2099609 1.4001541.1199951 2.0200272-1.4700317-1.0600586-2.5700073-3.1701736-3.7900391-5.1101151-2.3999634-3.8198242-4.4799805-7.8498535-6.1999512-12.0200195-3.4500122-8.3498535-5.4900513-17.2797852-5.9500122-26.2998047-.0599976-1.25-.0700073-2.5700684.1900024-3.7900391.3800049-.9599609.8399658-1.8901367 1.3999634-2.7700195 1.0400391-1.1000977 2.5500488-1.6801758 4-2.1801758 5.6600342-1.9199219 11.5200195-3.2299805 17.4500141-3.8999023 5.710022-.6398926 11.5200195-.6999512 17.0900269-2.1098633 3.2600098-.8200684 6.5-2.2001953 9.1699829-4.2202148 2.7299768-2.0498048 6.4099695-2.3898927 9.219967-.5798341z" fill="#a58f84"/></g><g><path d="m120.1641541 89.4273911c-.7199707 1.7299805-1.5599976 3.420166-2.4899902 5.0700684.4099731.3100586.7800293.6599121 1.0800171 1.0700684-1.8300171 6.6398926-4.2600098 13.1298828-7.4700317 19.2199707-1.9799805 3.75-4.3200073 7.1899414-6.9199829 10.5400391-.9199829 1.1899414-1.7600098 2.6699219-3.210022 3.3098221-2.0199585.880127-3.7799683-.5097656-5.8200073-.4399414-1.1099854.0300293-2.1399536.5400391-3.1599731.9599609-.1099854.0500488-.2199707.0900879-.3300171.130127-.0700073-.3498535-.0999756-.6999512-.0799561-1.0500488-2.6000366 1.0800781-5.3000488 1.9501953-8.0800171 2.7099609-.9899902.2800293-1.9899902.5400391-3 .7900391-2.3200073.5700684-4.1500244-.3898926-5.210022-1.9099121-.0100098-.0200195-.0199585-.0300293-.0299683-.0500488-.0200195.0100098-.0300293.0100098-.0500488.0200195-1.8799438-.6000977-3.6799927-1.4299316-5.3599854-2.4799881-1.1499634-.7199707-2.3099976-1.5600586-3.6699829-1.6298828-1.710022-.0900879-3.2000084 1.079834-4.7000084 1.9099121-5.289978 2.9299393-11.8599854 1.9099197-17.6599731.1599121-.0499878-.0200195-.1100464-.0300293-.1600342-.0500488.7000122-1.5397949 2.1500244-2.7199707 4.3300171-2.7600098 13.6599731-.2399902 26.9299889-4.329834 38.2100182-12.0898438 10.75-7.4101563 22.75-18.8500977 26.0999756-31.8601074.0599976-.25.1400146-.4799805.2299805-.6999512 4.5100096.6899412 7.7400511 4.7099608 7.4500121 9.1298827z" fill="#967e72"/></g><g><path d="m77.5829086 43.2241821c-.1478958-.1316681-.3044357-.2615013-.4698486-.3893166-.7434998-.5744743-1.6057129-.9862938-2.492485-1.3116455-2.2871246-.8391418-4.8262558-1.1183662-7.194664-.5344505-2.3684158.5839157-4.5396614 2.0820999-5.6749763 4.2004852-3.4762764 6.486393 2.3028831 12.3051376 8.9950066 11.3353348 5.7830504-.8380699 12.3824233-8.3632965 6.8369673-13.3004074z" fill="#e9fffd"/></g><g><path d="m103.0241394 28.6075687c-.5.2399902-1.0599976.3999023-1.6799927.4799805-15.0199585 1.8398438-32.1300049-4.0300293-46.3299522 2.7399902-13.3700562 6.369875-18.7400513 25.3898945-19.1100464 38.9799805-.0999756 3.829834-3.6900024 5.380127-6.5399799 4.6599121-1-9.5698242-.3699951-20.7099571 2.1199951-30.7797813.1099854-.2900391.2399902-.5700684.3599854-.8500977-.039978-.0400391-.0799561-.0700684-.1199951-.1101074 1.0700092-4.0900879 2.4400043-7.9699707 4.1300068-11.4899902 1.1000366-2.290041 2.3800049-4.58008 4.4000244-6.1098652 1.7299805-1.3200684 3.8800049-1.9501953 6-2.4902344 14.9299927-3.7797852 30.7899742-3.829834 45.7499962-.1398926 3.9699706.9899884 8.079956 2.3701153 11.0199584 5.1101055z" fill="#ffdf9f"/></g><g fill="#202020"><path d="m77.0038452 42.2498207c-.5015259-.5078125-1.3649292-1.1025391-2.5081177-1.6096191-1.1442261-.5136719-2.6084595-.9663086-4.3265991-1.0981445-7.9481697-.5901871-10.0509644 6.0958214-10.8684692 7.177002-.2064819.5400391-.251709 1.142334-.3496094 1.7233887-.09375 1.1799316-.0059814 2.4133301.3956909 3.5366211 1.0415573 3.5035019 4.8491745 6.504425 9.4880371 6.661377.7531128.0622559 1.4725952-.0446777 2.1723633-.1003418 5.1438446-1.0392685 8.5821838-4.3152924 10.0848999-8.6311035.7071457-3.5414658-.7785416-5.9398613-1.8109131-6.5397949-.3789063-.2502441-.6627808-.3803711-.8823242-.4348145-.4382935-.1071777-.6274414.0812988-.8157959.2897949-.1884155.208252-.3417969.4348145-.2982178.8378906.0213013.2006836.0898438.4438477.2261353.7392578.0694046.1232491.662117 1.6875038.4468994 2.8933105-.0712814 1.8839111-2.7668076 5.7072983-7.5239868 6.8188477-.4686279.0195313-.9517822.1101074-1.4464722.057373-2.593605-.0826187-5.225544-1.5010529-6.1016235-3.8393555-1.4104462-3.2851753 1.0728989-8.4965897 7.2606201-8.9125977 1.4210205-.0898438 2.746582.0810547 3.8446045.3239746 2.2279663.4443359 3.3776855 1.3017578 3.592041 1.0812988.0839234-.0961914-.076416-.4621582-.5791626-.9743652z"/><path d="m15.3823872 78.0344925c-.8814087.7436523-1.5626221 1.7922363-1.9199829 2.8295898-2.0699968 5.7268448 1.4699249 24.4108353 9.1101685 38.2580566 2.2824097 4.090332 4.4521484 7.2009277 6.0909424 9.2316818.3853149.4846191.7337646.9077148 1.046814 1.2766113-1.1385498.5280762-1.9321289.9609375-1.8695068 1.3337402.1449394.9139099 7.3199482 1.4981995 12.1251812-3.0036545.2857666-.2712402.5336914-.5270996.7736816-.7790527.2167969.1484375.4572754.3056641.7283325.4726563 3.5098686 2.1474533 8.0036545 3.8751602 12.1322632 4.0947189 5.0517464.2849426 10.1849823-1.5770874 12.9152832-5.6437912.0083008-.0124512.0150146-.0229492.0232544-.0354004.2325439.376709.6244507.8676758 1.1713867 1.4233398 2.8179169 2.8309555 7.4342117 5.0293503 12.3733521 5.3896408 4.5259018.3691101 9.1653366-.8837128 12.916626-3.3828125.741272.4020996 1.8591309.8039551 3.1917725 1.046875 1.2336426.2265625 2.6184082.3188477 3.9261475.2607422 1.3092041-.0512695 2.5297852-.2790527 3.4591675-.5178223 1.6928101-.4614258 2.9039917-1.0292969 3.7630615-1.5397949.8648071-.5026855 1.3741455-.9728928 1.671875-1.3498459.5844116-.7749023.3302002-1.2165527.0333252-1.6938477s-.6090088-.8845215-1.4663696-.8039551c-.4462891.0180664-1.0229492.1894531-1.8496704.4572754 1.0825806-1.1411133 2.463501-2.7998047 4.1682129-5.2856445 6.6670074-9.8947601 12.0383072-26.0159683 12.2225952-31.2348633-.0205154-5.3353882-4.0545959-10.1668625-10.1816406-10.6645508-7.7947693-1.0137634-14.4058228-2.0652771-22.0077515-4.6240234-4.9005737-1.715332-10.277832-4.1333008-15.2582397-8.1494141-1.6438599-1.3010254-3.8045654-2.0068398-5.9297485-1.9668007-2.1305542.0263672-4.2282104.741703-5.9649048 1.9841347-2.0405045 1.6398239-5.1790161 3.2576828-9.0405273 4.2165527-6.7260132 1.6994629-14.43396 1.4389648-21.9518414 2.9699707-.8330078.1574707-1.6613159.3317871-2.4870605.5136719.0547485-1.4941406-.1296997-5.4052734.1906738-10.9455605.4324341-7.0957031 1.760437-17.0249023 5.9883404-26.9443359 1.0821533-2.4304199 2.2251587-5.0493164 3.7849731-7.0229492.7983398-.9880371 1.6734009-1.7617188 2.7684937-2.3203125 1.0914307-.5739746 2.3623657-.9675293 3.7141724-1.3083496 5.5161743-1.3571777 11.2207642-2.2263184 16.7755737-2.5654297 11.1282959-.7126465 21.6286011.7321777 29.4647217 2.7736816 6.7954941 1.7466431 11.254921 4.1683865 12.9136353 10.8225098 1.8945389 7.6525269 1.5347214 22.8981323 1.9324951 33.040287.2623901 7.9035645.7874756 8.2338867 1.3452759 8.2341309.5668945.0002441 1.0596924-.3039551 1.5342407-8.1975098.4721298-8.7482109 1.0579758-25.4900284-.9391479-34.0356483-1.5940247-6.5407963-5.2894135-11.0807648-15.7615356-13.8051758-2.0070801-.5231934-4.1798706-.9997559-6.4827271-1.4094238.2245483-1.1765137.3811646-3.0209961.2472534-5.4716797-.2762299-4.3778038-1.156395-7.8964329-5.8302002-10.2897949-4.8695297-2.5928202-13.4074326-1.412571-15.2647705-.9206543-4.2231216 1.1120706-5.7737923 4.8292274-5.3682861 9.2180176.1522827 1.4848633.3934937 2.7282715.5762329 3.7839355.2181396 1.135498.3510742 2.0185547.4703979 2.6069336-5.4909668.4912109-11.0621338 1.472168-16.4841919 2.953125-1.4463501.4064941-2.9574585.8969727-4.4032593 1.7045898-1.4619751.7890625-2.7507935 1.9980469-3.6929321 3.2626953-1.8928833 2.5932617-2.8932495 5.2541504-3.9663696 7.8583984-4.0684795 10.5290527-4.9506817 20.7492676-4.9071026 27.9916992.0325317 3.6381874.2971191 6.5695839.5776978 8.5791054.1662598 1.1379395.3226318 1.9697266.4519653 2.4851074-3.1487641.7086719-11.0570588 2.6968616-13.5518193 4.8386234zm47.0877666-62.3791542c.2363701-3.142149-.5206375-8.8752441 3.96521-9.6115723 1.021347-.1790876 9.0269241-.7759337 12.6188965 1.2363281 3.1698303 1.6582475 3.5602798 3.7483506 3.9816284 6.9987788.2833862 2.128418.4054565 3.565918.5123291 4.6787109-6.4454956-.9318848-13.7387085-1.3103027-21.2947388-.6889648-.036377.0029297-.0731201.0085449-.1094971.0114746.1565552-.6130366.2871704-1.5134272.3261719-2.6247553zm-30.0899048 60.2736854c8.2001419-1.4232483 15.0783501-.9496841 22.2456665-2.6484375 9.2842865-2.1684265 9.9414978-5.8997116 14.1502075-5.9020996 1.2895508-.0058594 2.5023193.4104004 3.4440308 1.1694336 4.9494781 4.0376892 10.43013 6.7746811 16.3878784 8.8540039 7.9294205 2.6708755 14.8091583 3.7537003 22.8563232 4.7531738 4.7786484.7160797 6.7854996 3.4802856 6.7665405 6.6977539-.0133667.3115234-.0133057.623291-.0596924.9282227-1.4519577 7.8408661-5.447464 19.5634537-10.7130127 28.7626953-2.5062256 4.2915039-4.0879517 6.3554688-4.7957764 7.5246582-.0674438.1091309-.1205444.2028809-.1738281.2971191-1.5441284.4387207-3.9988403 1.0393066-6.1932373 1.3032227-.3865356.0532227-.7579346.0966797-1.1185913.137207.7937012-.7353516 1.3118896-1.3798828 1.6524658-1.8879395.9614868-1.4956055.5668945-1.8920898.1568604-2.2539063-.4307251-.3815918-.8466187-.6176758-2.170166.1950684-12.5424347 7.3741379-15.6975021 6.3256607-27.8464355 1.550293.6998291-1.09375 1.0559692-1.7646484 1.3453979-2.2363281.3248901-.5649414.4725952-.9038086.5023804-1.2053223.0292358-.3000488-.0770874-.5483398-.211853-.7949219s-.2679443-.479248-.6002197-.5666504c-.3267822-.0874023-.8895264-.0146484-1.6889648.4936523-4.0260925 2.4270477-3.2539635 9.5355911-24.2578125 5.0830078-.12677-.0273438-.244873-.0507813-.3634644-.0744629.4203491-.5131836.755249-.9760742 1.0300903-1.3786621.5579834-.8447266.8616333-1.4638672.9934082-1.9331055.2681885-.9384766-.1126709-1.277832-.5562134-1.623291-.4436035-.3457031-.8688965-.628418-1.7058105-.1589355-.4177246.2368164-.94104.6525879-1.6235352 1.3244629-4.1968918 4.0220337-3.9572983 4.4993744-9.544981 7.0268478-.2757568-.4296875-.5947266-.9240723-.9553833-1.4872971-1.4072876-2.1623535-3.3296509-5.3662109-5.3530273-9.4868164-6.1812725-12.679306-8.6423893-27.1546478-8.180603-34.3308105.1004639-1.5979004.5280151-2.9440918 1.5339966-3.7277832 2.177433-1.8086317 12.0933246-3.9058073 15.0473613-4.4040526z"/></g></g></svg>