<svg id="Layer_1" enable-background="new 0 0 135 135" height="512" viewBox="0 0 135 135" width="512" xmlns="http://www.w3.org/2000/svg"><g><g><path d="m125.0127106 82.3805847c-1.1300049 3.1201172-3.039978 5.9001465-4.3699951 8.9401855-2 4.5498047-3.0200195 10.869873-2.2999878 15.8398438.2299805 1.5900879 3.2000122 11.2600098-2.3900146 7.7299805-1.8099976-1.1398926-3.5999756-2.4199219-5.5299683-3.1899414-7.4800415-3.0300293-15.5500488 1.7600098-23.3099976 3.9899902-9.460022 2.7299805-19.8400269 1.0300293-28.3600502-3.7399902-4.5299683-2.5400391-9.8099976-6.7700195-13.2699585-11.7600098-1.8699951-2.670166-3.2200317-5.5600586-3.6500244-8.5300293-.1199951-.7399902-.1699829-1.4799805-.1599731-2.2299805l60.5899696-39.75 2.6699829-1.75c3.4200439 2.1298828 6.8500366 4.2700195 10 6.7600098 1.1200562.8898926 2.1900024 1.8200684 3.2200317 2.8000488 6.8499756 6.5600586 10.2000122 15.6198731 6.8599854 24.8898926z" fill="#2affd0"/></g><g><path d="m88.6027374 87.0507507c-12.9000244 5.4099121-27.6799965 1.1499023-41.5900307 2.579834-7.8099976.8100586-15.4299927 3.4699707-22.039978 7.7099609-3.8099976 2.4401855-8.2000122 5.5400391-12.4199829 3.9401855 8.9799805-8.630127 8.789978-18.7402344 2.1799927-28.130127-.2600098-.3898926-.5500488-.7700195-.8400269-1.1599121-13.2999873-17.4001463.8599854-35.2800292 16.4799805-44.5600604 18.8800049-11.2299804 40.0800209-13.040039 57.8600502.459961.7999878.6000977 1.5899658 1.2399902 2.3800049 1.9101563 17.7099609 15.0998553 23.539978 46.5200214-2.0100098 57.2500018z" fill="#f2ff3f"/></g><g><path d="m39.6827774 55.4180832c-.935894-1.1090736-2.2852402-1.9634285-3.9273796-2.2752991-3.6877632-.700367-5.5961399.9636536-6.1205311 3.2070694-1.1143341 4.7712975 3.2618999 9.3151321 7.9953136 7.4689369 4.163868-1.6240463 4.2949029-5.7434768 2.0525971-8.4007072z" fill="#d1d3d4"/></g><g><path d="m59.7581062 55.4180832c-.9358978-1.1090736-2.285244-1.9634285-3.9273834-2.2752991-3.6877632-.700367-5.596138.9636536-6.1205292 3.2070694-1.1143341 4.7712975 3.2619019 9.3151321 7.9953156 7.4689369 4.1638641-1.6240463 4.2949028-5.7434768 2.052597-8.4007072z" fill="#d1d3d4"/></g><g><path d="m79.8334274 55.4180832c-.9358902-1.1090736-2.2852402-1.9634285-3.9273758-2.2752991-3.687767-.700367-5.5961456.9636536-6.1205368 3.2070694-1.1143265 4.7712975 3.2619019 9.3151321 7.9953156 7.4689369 4.1638717-1.6240463 4.2949066-5.7434768 2.052597-8.4007072z" fill="#d1d3d4"/></g><g><path d="m88.2327271 27.8905907c-15.1544418-2.1957054-30.7618637-.2062378-44.10009 7.1201553-14.7099285 8.0798378-25.6099262 21.8298225-29.3998985 38.1398582-.2600098-.3898926-.5500488-.7700195-.8400269-1.1599121-13.2999874-17.4001464.8599853-35.2800293 16.4799804-44.5600605 18.8800049-11.2299804 40.0800209-13.040039 57.860035.4599591z" fill="#fcff92"/></g><g><path d="m102.9827423 90.0605164c-16.1199951 10.6801758-38.6700439 12.5200195-57.5000038 10.130127-1.8698463-2.66996-3.2198181-5.5596085-3.6499214-8.5293274-.2996979-2.0693207 12.7283173-1.4925842 13.9132156-1.5246887 3.6351929-.0984955 7.2686729-.2599258 10.8982773-.484169 2.6647034-.1646347 5.2394562.2707214 7.8390808.1480103 6.3042221-.2975998 13.4038544-3.2735596 19.0393295-5.9298935 13.5700073-6.3999023 15.4099731-22.2099609 8.7399902-34.1899414l2.6699829-1.75c3.4200439 2.1298828 6.8500366 4.2700195 10 6.7600098 3.1600343 12.9799803-.2699584 27.6301268-11.9499511 35.3698729z" fill="#21f7c4"/></g><g fill="#202020"><path d="m122.9401016 91.1698074c1.3969727-2.8964844 3.2645264-5.7558594 4.208374-8.9460449 3.0865555-9.691925-.4505692-19.1996651-8.0300903-26.138916-4.2606812-3.8223801-9.9361343-7.1523552-12.765625-8.199707-.7122192-.2512207-1.0368652-.2468262-1.2205811-.1462402-.9869385-2.7407227-2.2282104-5.3713379-3.6782837-7.8464355-8.7507781-15.0087472-26.7599715-25.9463245-48.5618858-22.9626466-16.2319832 2.5848484-35.0799522 13.2452793-42.8188477 27.8605957-2.2678838 4.2543945-3.4312749 8.8088379-3.3292851 13.0541992.0628052 4.2575684 1.3815312 8.0500488 3.0664067 11.1098633.3945923.7890625.8921509 1.4841309 1.3283691 2.1975098 1.9491835 2.8763046 7.5100498 8.8314133 6.8254395 17.1877441-.4134998 4.7286835-2.4957399 7.7702789-4.5735474 10.9174805-1.1173096 1.512207-1.0392456 1.8188477-.8427124 2.0192871.000061 0 .0001831 0 .0002441.0002441h-.0002441c-.0123901.0327148.0950928.1027832.3222046.2094727.1159058.0505371.2594604.1130371.4302979.1875.1806641.0478516.3901367.1035156.6276245.1665039 5.1129246 1.1804504 10.1434269-4.0207443 17.9356689-7.3256836 2.8535156-1.2087402 6.0875854-2.2658691 9.6309204-2.9975586.0360107.3557129.0753174.7441406.119812 1.1833496 1.3015442 8.726326 12.3501892 21.0653687 27.3836632 24.7299805 5.6633911 1.4008789 12.0029907 1.6086426 18.0771484.0175781 5.6643753-1.4625015 11.3843994-4.3492432 16.7288208-4.7736816 4.9080811-.428009 7.4731445 1.5379639 10.5944214 3.5661621.2171249.0957565 3.9104309 2.9165421 6.008728.2509766.3673706-.4545898.6169434-1.0095215.7611694-1.6188965.1954041-1.0829391.262558-1.976059-.0172729-3.9306641-.4827194-3.3121567-.92379-3.1781311-1.0036621-6.8513184-.0153809-1.0524902.0479126-2.0849609.140625-3.0786133.3618776-3.6376953 1.2799684-7.0046386 2.6520997-9.842041zm-91.7243004 1.8977051c-7.7963352 3.6520004-10.3976498 7.417366-15.524231 8.3041992-.666687.0805664-1.2405396.0957031-1.7029419.0566406-.2322998-.0224609-.4371338-.0419922-.6139526-.059082-.1063843-.0200195-.182312-.0341797-.2680054-.050293.2890625-.1206055.7300415-.4052734 1.4602051-.9992676 3.4701996-3.1348953 5.6327019-7.2230759 6.2595825-11.6640625 1.4712563-10.5355453-6.1294231-17.7026672-7.8614502-21.395752-1.4187012-2.7041016-2.46521-5.9084473-2.4690552-9.4697266-.0349731-3.5515137.9663696-7.4082031 3.0083008-11.1682129 7.2059803-13.3419571 24.9631577-23.2647972 39.9936523-25.6650391 20.2904472-2.7533455 36.690464 7.3785019 44.728756 20.8500977 6.1729202 10.289341 7.0564651 20.8237305 4.5651245 28.4580078-3.127533 9.7068024-12.09935 15.6779785-21.4759521 17.4099121-4.6959229.888916-9.4710693.9482422-14.1016846.826416-8.6259193-.2167511-16.997509-.9636002-25.4852257.9799805-.0186157-.032959-.036499-.0515137-.0535278-.0517578-.0198975-.0002441-.038269.0285645-.0557251.0737305-.069458.0161133-.1435547.0263672-.2127686.0427246-3.7912597.876465-7.2070922 2.1232912-10.191101 3.5214845zm88.0768395-3.6616211c-1.6195068 3.3293457-2.6487427 7.1164551-3.0579834 11.2116699-.1054688 1.1264648-.1749878 2.3000488-.1541748 3.5239258.0968018 4.1338577.6013412 4.2382126 1.0894775 7.3969727.0869141.5651855.1488647 1.1296387.1578979 1.6298828l.0036011.154541.0009766.0041504.0015259.0090332-.0010376.020752c-.0031738.0161133-.0198364.0236816-.0357666.0214844l-.0126953-.001709c-.0234375-.0124512.0388184.026123-.0754395-.0400391l-.2615967-.1525879-.420105-.2641602c-1.4002457-.8821869-5.9338455-3.7762299-8.2171631-3.8129883-1.6033936-.2727051-3.2548828-.3571777-4.8369141-.1704102-6.0658417.6047745-11.8183136 3.7050323-17.2845459 5.2529297-5.4309082 1.5693359-11.2427979 1.5637207-16.5462646.4343262-13.7459183-2.88134-24.8048973-13.563324-27.2252159-22.09375-.1069336-.4243164-.2014771-.7993164-.2873535-1.1396484 8.2685471-1.6313629 16.3792458-.7042007 24.9937096-.2998047 4.68573.2211914 9.6481934.2763672 14.7121582-.5830078 10.4958344-1.7406998 20.5219727-8.33918 24.1592407-19.1728516 2.3992844-7.0248108 1.9460526-14.8160248-.2971191-21.9294434 2.1047134 1.9869041 6.7779388 4.8691635 11.1000366 9.1333008 6.1488571 6.1758041 9.3236771 14.2154999 6.552063 22.4648438-.7648926 2.5854492-2.4497681 5.154541-4.057312 8.4025879z"/><path d="m42.7451591 58.2445145c-.1879883-.8518066-.5065918-1.4616699-.8040771-1.9074707-.6098022-.8894043-1.1409912-1.1481934-1.482605-1.2089844-.3490601-.0551758-.5598145.1098633-.7755737.2900391-.2158203.1799316-.4057617.3723145-.4740601.6855469-.0736084.310791.001709.7336426.1031494 1.4084473.0946045.6513672.2288818 1.6486816-.2407227 2.6481934-.7157402 1.4408226-2.7418251 2.2502098-4.18396 1.9816895-2.369278-.387413-4.0192261-2.9294167-3.6010132-5.4321289.4419384-2.7175484 3.712883-2.9547958 6.0650635-2.1750488 1.3344727.4475098 2.1062622 1.0788574 2.331543.8833008.2033081-.1474609-.1552124-1.208252-1.5834961-2.2810059-2.3406143-1.7532082-6.6462612-2.2081795-8.9231567.5383301-2.2816544 2.7215347-2.0462189 7.8352242 1.3790283 10.7578125 1.1156616.9643555 2.4533081 1.5322266 3.6677856 1.7268066 3.0827103.5816116 7.274601-1.2433701 8.3624878-4.684082.4191896-1.272217.3486329-2.3913576.159607-3.2314455z"/><path d="m54.2983818 66.1600418c3.2183342.6072006 7.3113937-1.3592377 8.3624878-4.684082.4191895-1.2722168.3486328-2.3913574.159668-3.2314453-.1880493-.8518066-.5066528-1.4616699-.8040771-1.9074707-.6098633-.8894043-1.1410522-1.1481934-1.482666-1.2089844-.3490601-.0551758-.5598145.1098633-.7755737.2900391-.2158203.1799316-.4057617.3723145-.4740601.6855469-.0736084.310791.001709.7336426.1031494 1.4084473.5455208 3.7559967-2.5631294 4.9765091-4.4246216 4.6298828-1.4869843-.2431183-2.7001877-1.3448181-3.2803345-2.739502-1.0022926-2.3875732-.3778267-5.2342949 3.3675537-5.229248.9315186-.0002441 1.6999512.137207 2.37677.3615723 1.3344727.4475098 2.1062622 1.0788574 2.331543.8833008.2033081-.1474609-.1551514-1.208252-1.5834961-2.2810059-.6975098-.5224609-1.7236938-.9892578-2.8498535-1.2243652-5.8126221-1.1948776-8.707016 3.9250946-7.1868286 8.722168.9252662 2.9657286 3.3935394 5.0818556 6.1603393 5.5251463z"/><path d="m74.3736954 66.1600418c4.3421021.8192215 9.6553879-2.877491 8.5221558-7.9155273-.1880493-.8518066-.5066528-1.4616699-.8040771-1.9074707-.6098633-.8894043-1.1410522-1.1481934-1.482666-1.2089844-.3490601-.0551758-.5598145.1098633-.7755737.2900391-.2158203.1799316-.4057617.3723145-.4740601.6855469-.0736084.310791.001709.7336426.1032104 1.4084473.5485535 3.7793121-2.5595169 4.9771919-4.4246826 4.6298828-2.3561783-.385231-4.0210953-2.9176025-3.6010742-5.4321289.4419403-2.7175484 3.7129288-2.9547348 6.0651245-2.1750488 1.3344727.4475098 2.1062622 1.0788574 2.3314819.8833008.2033081-.1474609-.1551514-1.208252-1.5834961-2.2810059-2.3404083-1.7532082-6.6463852-2.2080231-8.9231567.5383301-.5552979.6623535-.9425049 1.4465332-1.1727295 2.2424316-1.3517609 4.5399322 1.6524581 9.5104598 6.2195434 10.2421874z"/></g></g></svg>