<svg id="Layer_1" enable-background="new 0 0 135 135" height="512" viewBox="0 0 135 135" width="512" xmlns="http://www.w3.org/2000/svg"><g><g><path d="m130.870575 69.011734c-.7399902 1.8198242-1.9899902 3.8398438-3.5300293 5.7099609-5.0999756 6.2199707-13.3699951 10.75-16.75.75-2.4099731-7.1000977-.0700073-16.8200684 1.5499878-23.8000488.0500488-.2099609.1000366-.4099121.1600342-.6201172.2000122-.7800293.4799805-1.5397949 1.0299683-2.1298828 1.0700073-1.1599121 2.8500366-1.3400879 4.4300537-1.1999512 4.8499756.4399414 9.4199829 3.2597656 11.9499512 7.3798828 2.5400389 4.1201172 2.9800414 9.4399415 1.1600341 13.9101563z" fill="#726658"/></g><g><path d="m95.4205627 100.011734c-2.3699951 2.7299805-5.1400146 5.1799316-8.1799927 7.2299805-9.0800171 6.1599121-20.5400391 8.8498535-30.9000282 5.5-1.3699951-.4401855-2.7000122-.9799805-3.9799805-1.6101074-6.4700317-3.130127-11.8699951-8.380127-15.9799805-14.3000488-1.6600342-2.3898926-3.1900024-4.9399414-4.5500488-7.619873-4.2399902-8.2900391-6.8999634-17.7600098-7.0799561-27.0700684-.1900024-9.7199707 2.3399658-19.2700195 8.6300049-27.1401367 10.4099731-13.039793 29.1799927-18.8298321 45.2199745-13.959959 15.5599976 4.7299805 24.8200073 16.2202129 28.3599854 29.6501446.7399902 2.7800293 1.2300415 5.6499023 1.4800415 8.5598145 1.2399903 14.3000486-3.3200072 29.5800779-13.0200195 40.7602537z" fill="#fde4cb"/></g><g><path d="m108.4405823 59.2514801c-.8600464.4401855-1.8400269.7900391-2.9500122 1.0200195-11.7399902 2.420166-22.5499878-6.4897461-28.6799927-15.7199707l-.2700195-.4499512c-3.3699951 2.2600098-5.6599731 5.7900391-8.6300049 8.5500488-6.4600258 6.0300293-15.5999794 8.0300293-24.2600136 9.7800293-5.0799561 1.0300293-10.2799683 2.0600586-15.3899536 1.25-1.1200562-.1801758-2.2600098-.4599609-3.1300049-1.1801758-.1400146-.1098633-.2600098-.2299805-.3800049-.3598633-.1900024-9.7199707 2.3399658-19.2700195 8.6300049-27.1401367 10.4099731-13.039793 29.1799927-18.8298321 45.2199745-13.959959 18.789978 5.709961 28.3800049 21.2700177 29.8400269 38.2099591z" fill="#92278f"/></g><g><path d="m99.3499756 116.3383942c-3.5197525-6.7967529-10.1154022 1.0795517-11.638176 5.0276337-.5712814 1.4811707-1.0473709 3.149353-.4621048 4.6250458.3149261.7940521.9158478 1.4507294 1.6092911 1.9495544 2.19133 1.5763092 5.4155884 1.5266266 7.5573196-.1164474 3.1917267-2.4486084 4.8271255-7.596405 3.0438614-11.2661057-.0363846-.0748673-.0731125-.1480866-.1101913-.2196808z" fill="#726658"/></g><g><path d="m95.4205627 100.011734c-2.3699951 2.7299805-5.1400146 5.1799316-8.1799927 7.2299805-10.5499878 6.6298828-23.210022 7.2998047-34.8800087 3.8898926-6.4700317-3.130127-11.8699951-8.380127-15.9799805-14.3000488-1.6600342-2.3898926-3.1900024-4.9399414-4.5500488-7.619873 1.460022-.3701172 3.0800171-.0700684 4.4800415 1.3098145 12.8200073 12.6801758 34.0399818 17.6501465 48.9500313 5.9599533 6.2081909-4.8679352 10.7297211-11.4482651 13.9378433-18.598732 1.6133881-3.5960159 2.9045181-7.3299255 4.0063248-11.1116638.5181198-1.7783356.7046661-4.0975075 1.5223846-5.7423286.4989243-1.0035744 1.3575974-2.226223 2.6981506-1.921524 1.7878342.4063683 1.2191086 3.3084679 1.2148056 4.9388771-.0115433 4.3714371-.5464096 8.7410126-1.5662918 12.991188-2.0213774 8.4237821-5.965988 16.419235-11.6532592 22.9744642z" fill="#f4d8be"/></g><g><path d="m24.1905785 77.1416168c-5.0200195 7.3701172-10.7300406 6.25-14.8699942 2.1000977-2.9700322-2.9902344-5.1200566-7.5400391-5.6100469-11.6501465-.5100098-4.3999023-.2600098-9.0200195 1.6799927-13.0200195s5.7900395-7.2600098 10.2400513-7.6699219c2.9799795-.2700195 5.3099966.8100586 7.0599966 2.7199707 5.8399663 6.3400879 5.3599858 21.8500976 1.5000005 27.5200195z" fill="#726658"/></g><g><path d="m22.6905785 49.6215973c-.5100098.5500488-1.1799927 1.0100098-2.0200195 1.3300781-11.7200309 4.3999024-13.7899776 17.2900391-11.3499747 28.2900391-2.9700322-2.9902344-5.1200566-7.5400391-5.6100469-11.6501465-.5100098-4.3999023-.2600098-9.0200195 1.6799927-13.0200195s5.7900395-7.2600098 10.2400513-7.6699219c2.97998-.2700195 5.3099971.8100586 7.0599971 2.7199707z" fill="#897c71"/></g><g><path d="m130.870575 69.011734c-.7399902 1.8198242-1.9899902 3.8398438-3.5300293 5.7099609.4899902-9.2800293-3.9199829-17.7299805-12.4299927-21.0800781-1.3200073-.5200195-2.1699829-1.4799805-2.6099854-2.5900879.2000122-.7800293.4799805-1.5397949 1.0299683-2.1298828 1.0700073-1.1599121 2.8500366-1.3400879 4.4300537-1.1999512 4.8499756.4399414 9.4199829 3.2597656 11.9499512 7.3798828 2.540039 4.1201172 2.9800415 9.4399415 1.1600342 13.9101563z" fill="#897c71"/></g><g fill="#202020"><path d="m57.0353966 76.3756638c.8670044.2429199 1.265686-.0905762 1.6425781-.5063477.3768921-.4155273.7172241-.7978516.1295166-1.7636719-2.3848801-4.2673492-13.1358604-5.2313309-17.7705078.2783203-.5831909.7614746-.7996216 1.3256836-.611145 1.5239258.1968384.2094727.7713013.0517578 1.5482178-.2453613 6.4528732-2.098526 8.6174964-1.4771271 15.0613403.7131348z"/><path d="m93.6635056 69.2147751c-4.7550278-3.9315796-9.5430832-3.8272171-12.7228394-1.4616699-1.2720337.9321289-2.0648193 2.234375-2.2575684 3.2404785-.203125 1.0146484.0507202 1.6191406.3057861 1.6464844.2941284.0412598.6010132-.4345703 1.1213989-.956543.5161133-.5285645 1.2880249-1.0854492 2.2716675-1.4372559 4.6562119-1.6687622 8.6538315 2.2654343 11.0648804 2.9353027.9481201.2695313 1.2949219-.1020508 1.6412964-.5461426.3453979-.442627.6369629-.864502.119751-1.7324219-.2619018-.4331054-.7224121-.984619-1.5443725-1.6882323z"/><path d="m88.1939621 86.3634567c-.4611206-.3483887-.8980713-.5334473-2.4646606.7695313-.7938232.6379395-1.8798828 1.6489258-3.6015625 2.9580078-7.0646973 5.2465515-14.9373245 7.3662796-22.958004 3.9189453-2.5158081-1.0698242-4.5092163-2.6274414-5.8303833-3.9050293-1.3186646-1.2844238-2.0371094-2.2512207-2.3128662-2.1101074-.2251587.1062012.0161743 1.3513184 1.0720825 3.0966797 1.0523071 1.7265625 3.0158691 3.8815918 5.7468872 5.4758301 7.9041481 4.6613846 18.3109856 3.8747253 26.6926231-3.6003418 1.8148804-1.6582031 2.7962646-3.0056152 3.3762817-3.958252 1.1306763-1.9318848.71521-2.3178711.2796021-2.6452637z"/><path d="m10.37817 81.7765427c4.6381645 3.0592804 9.927599 1.7824707 12.7299805-2.0200195.3099976-.3601074.5300293-.7099609.710022-1.0100098.3800049-.5900879.5499878-1.0400391.6300049-1.3601074.1799927-.6499023-.0200195-.8398438-.25-1-.2300415-.1599121-.4899902-.2597656-1.0300293.0600586-.2699585.1601563-.5999756.4499512-1.0799561.8300781-2.7649651 2.1877899-5.5385113 4.2272186-9.6400146 1.3798828-2.6056108-1.8300323-5.3124509-5.651535-6.4299932-10.3798828-.7702742-3.4990692-.7736168-8.7298012.75-12.6201134 2.6546464-7.0989609 11.999712-11.9010811 16.6799927-2.9199219.3599854.6899414.6599731 1.4099121.9199829 2.1298828 1.3784904 3.8682899 2.0775261 9.7443275 1.3300171 15.2001915-.2600098 1.9799805-.6600342 3.5400391-1.0100098 4.5998535-.0700073.2102051-.1400146.4001465-.2000122.5700684-.25.6999512-.3900146 1.0800781-.289978 1.1499023.0499878.0400391.2299805-.0698242.4799805-.3398438.5599976 2.1799316 1.2200317 4.2797852 1.960022 6.2900391 2 5.4599609 4.5499878 10.2998047 7.3800049 14.5200195 5.5899658 8.5297852 12.8699951 14.3798828 20.1300049 17.0998535 3.6599731 1.3100586 7.2199707 1.920166 10.4699669 2 3.2600098.1101074 6.2000122-.3601074 8.8099976-.9299316 5.2299805-1.2399902 9.1300049-3.1699219 12.0599976-4.9799805 5.8099976-3.7399902 8.0700073-6.630127 9.1900024-8.0700684 1.0499878-1.5.9500122-1.7700195.75-1.9599609.0900269 0 .4299927-.3200684 1.0100098-.9401855.3099976-.329834.6900024-.7397461 1.1400146-1.2197266.4099731-.5200195.8800049-1.1201172 1.4099731-1.7900391 2.0599976-2.7299805 4.8200073-6.9501953 7-12.7402344 1.0739136-2.7470703 2.0072021-5.8703613 2.6778564-9.2746582.3931274 1.3652344.9108276 2.6916504 1.6763916 3.9477539.9013672 1.4875488 2.2683105 2.9387207 4.0951538 3.5700684.0083008.0029297.0166626.0043945.0249634.0073242-.4902954.8798828-1.1000977 2.0839844-1.7949219 3.5822754-1.5621948 3.2988281-3.4296265 7.9785156-5.9202271 12.8132324-2.4729614 4.8232422-5.7971802 9.753418-10.116333 12.9448242-4.2466888 3.2721252-10.2426376 5.713974-10.9662476 12.0905762-.2528076 2.3330078.2368774 4.8041992 1.932373 6.6518631 1.7079468 1.8581543 4.369812 2.3312988 6.3040161 1.7651367 5.7399521-1.5474548 6.9852524-7.0309372 6.4928589-12.9077225-.15448-1.5600586-.3723755-2.8723145-.6733398-3.925293-.1156616-.4030762-.241394-.7521973-.3702393-1.0761719 4.576004-3.8464432 7.6149216-8.8601837 9.9959106-14.3029785 2.2510986-5.1977539 3.6950684-10.0212402 4.7996216-13.4814453.5033569-1.625.9085083-2.9472656 1.1759644-3.9211426 1.5209961.3122559 3.0342407.0690918 4.2580566-.3842773 7.2252274-2.6181183 12.275795-12.8607864 11.2867508-13.1594238-.3499298-.1462479-5.3522263 8.8145218-12.0777664 10.692627-1.1611328.3361816-2.3497314.3527832-3.3203125-.078125-1.9779053-.8093262-3.2061157-3.6325684-3.7336426-6.378418-1.2878418-6.3439178.9558945-15.0765343 2.3554688-21.0051231.1413574-.6081543.2714844-1.0854492.4199219-1.4267578.1553345-.3427734.2749023-.5024414.4315186-.6257324.2689209-.2426758.8625488-.4353027 1.5762329-.46875 5.9841232-.3762398 13.8655319 4.8906441 13.9561234 14.8706055-.024353 1.9404259-.1959839 2.9804649-.1382446 3.5732384.0392456.5930176.2698364.7419434.5307007.8464355s.5213013.1733398.9611206-.3100586c.416626-.4873047 1.0785522-1.5422363 1.5132446-3.8378906.1922607-1.1450157.3222046-2.6069298.1017456-4.4052696-1.1474304-9.3142166-9.7929306-15.1532288-17.1446609-14.7980957-.4727173.0285645-.9902954.0891113-1.5249634.2163086.0303345-1.0280762-.0203857-2.7216797-.5762939-5.4946289-5.6964795-27.3467379-29.6035687-41.3434668-55.3402669-34.6147466-4.8021851 1.2485352-9.5333252 3.3181148-13.7836304 6.0576167-4.2636719 2.7299805-7.9794312 6.2773447-10.8624878 10.0195322-5.8259888 7.5209961-9.1323242 15.451416-11.0618286 21.2265625-.4606323 1.3896484-.8389282 2.657959-1.1479492 3.7900391-.3810425-.2695313-.7776489-.5222168-1.2026367-.7390137-5.5353136-2.9074211-14.3505573.3815002-17.7399902 8.7998047-1.9260937 4.6754875-1.9618933 10.6468544-.9899902 15.010006 1.1976389 4.886467 4.1346616 9.9220047 8.3099975 12.5900879zm82.5565148 45.7770996c-.8893433.2255859-1.7589111-.0100098-2.3731079-.6555176-.6243286-.6459961-1.0252075-1.9946289-.8496704-3.4367676.390419-3.591713 4.116272-5.8065643 7.203186-8.0419922.0678711.8605957.1021118 1.9204102.1066895 3.2768555-.0135575 3.7075958-.4501725 8.0037003-4.0870972 8.8574219zm-12.1964722-87.7011681c-.081665-.4882813-.3269043-.597168-.5939331-.6850586s-.5336914-.1379395-.9033813.1645508c-.3649292.3032227-.8201294.9606934-1.6083984 2.2070313-5.1711655 7.7613792-11.8276138 13.3357925-25.4987144 17.2536621-4.2058105 1.222168-8.8117065 2.1879883-13.0481567 3.090332-4.2459106.935791-7.9931641 1.6862793-10.7630615 1.8381348-.0471802.0031738-.0881958.0041504-.1347656.0070801.0089722-.2250977.0255127-.4423828.0303345-.6716309.0400391-2.6201172-.1599731-5.5100098-.9599609-8.5 1.7381153-12.0228844 9.334713-23.976923 22.9699707-29.8901367 4.210022-1.8098145 8.7800293-3.0500488 13.460022-3.4099121 14.9563942-1.214035 28.7691383 5.9475784 36.1300011 16.9299316 2.5200195 3.6999512 4.3699951 7.7399902 5.6099854 11.8100586.8389893 2.8056641 1.3770142 5.6218262 1.7037964 8.3876953-.3005371-.0690918-.7173462-.0881348-1.3208008-.0371094-7.6255646.4428444-13.9636154-.1605186-22.4366455-7.7954102-1.9076538-1.7106934-3.5129395-3.4050293-4.6708984-4.560791.7376709-1.2592773 1.2078247-2.3400879 1.5189209-3.1931152.5367427-1.5751953.6004024-2.4553223.5156856-2.9453125zm23.7599487 42.944088c-1.8900146 5.6999512-4.3699951 9.9599609-6.1799927 12.7998047-.460022.7102051-.8800049 1.3400879-1.2299805 1.880127-.3800049.5300293-.710022.9799805-.9700317 1.3400879-.5100098.7399902-.75 1.1499023-.7000122 1.1899414-.2099609-.1801758-.5100098-.2600098-1.8900146.8701172-1.4199829 1.0598145-3.8699951 3.4897461-9.4899902 6.6799316-2.8299561 1.5397949-6.5199585 3.1699219-11.3200073 4.1699219-4.7599487.9699707-10.7899742 1.1699219-17.2199669-1.2800293-6.3900146-2.4899902-12.9700317-7.8000488-18.1599731-15.8000488-2.6400146-3.9799805-5.0200195-8.5598145-6.8900146-13.6999512-1.2900391-3.5600586-2.3400269-7.4099121-2.9700317-11.4799805.2781372-1.255127.4890137-2.6669922.616272-4.1855469.0668335.0078125.1260376.0180664.194519.0251465 2.9285278.3432617 6.9902344-.0131836 11.2767334-.5837402 4.3106689-.5419922 9.0632324-1.2260704 13.5236816-2.3007774 9.7178307-2.3056335 19.0909615-6.8370628 24.7105675-15.0024414.7744141 1.4331055 1.9537354 3.2524414 3.4955444 5.1252441 8.0878296 9.8377495 19.4304352 11.5794258 25.3307495 8.5649414.3013306-.1640625.5266113-.3127441.7211304-.454834.0366211.4873047.0875244.9794922.1108398 1.4619141.3599852 7.8801231-1.0100099 15.0200156-2.9600221 20.6801719zm-68.0562706-59.8769493c2.8981934-3.4555664 6.3932495-6.5581055 10.418396-8.9746103 4.0211792-2.4238281 8.4532471-4.2282715 12.9161987-5.2851563 21.4102745-5.0997477 42.409008 3.4598513 51.6264 31.6740723.9393311 2.9377441 1.3190918 4.5808105 1.7155151 5.4501953-.2609253.1501465-.5205688.3178711-.7745972.5244141-.7224121.5766602-1.2616577 1.4125977-1.5740967 2.1652832-.3197632.760498-.484436 1.4851074-.6258545 2.107666-1.1148071 5.0742188-.7905426 3.5808067-.9931641 4.5881348-.2902222-1.9487305-.69104-3.918457-1.2325439-5.8930664-1.2099609-4.3300781-3.0799561-8.6699219-5.7099609-12.6899414-7.7317428-12.0819407-22.6338653-20.0127993-38.7900352-18.9001456-5.0899658.3300781-10.0700073 1.6000977-14.6699829 3.5300293-9.964817 4.2149601-17.8706856 11.4039955-22.5 22-.4400024 1.0300293-.9000244 2.0300293-1.1799927 3.0900879-.2200317.7099609-.4500122 1.4199219-.6600342 2.1298828-.4113159-.5351563-.8864746-1.0419922-1.4056396-1.5134277 3.3479576-8.6853371 7.4648667-16.9063645 13.4393921-24.003418z"/></g></g></svg>