<svg id="Layer_1" enable-background="new 0 0 135 135" height="512" viewBox="0 0 135 135" width="512" xmlns="http://www.w3.org/2000/svg"><g><g><path d="m128.490799 73.0547256c-.1199951 26.2099609-22.5200272 50.5-47.5800247 56.2399979-15.5 3.5500488-30.3800049 1.3798828-42.710022-5.070076-14.8899536-7.7700195-26.0499878-21.7800293-30.0799561-39.5300293-1.0800171-4.7800293-1.6500244-9.8200684-1.6300049-15.0900879.1300049-37.3898887 33.3099976-67.029782 66.5299683-66.5998504 10.5200195.130127 21.0499878 3.2800291 30.5300293 10.1699219 3.7199707 2.6799316 7.2699585 5.9499521 10.5999756 9.8300791 12.6699829 14.7700193 14.4199905 31.5100095 14.3400345 50.0500447z" fill="#8dc63f"/></g><g><path d="m44.7707596 52.2146416c-1.1199951-.9599609-2.1799927-2.119873-3.1699829-3.4899902-13.4799805-18.7299805 5.9299926-33.1899424 18.7199707-26.9099122 4.4500122 2.1899414 8.0900269 6.8798828 9.2800293 14.7697754 2.3300171 15.5800781-13.8300171 25.1101074-24.8300171 15.630127z" fill="#e6e7e8"/></g><g><path d="m100.8607864 102.7947159c-3.2000122 8.619873-10.9100342 13.4299316-18.2600098 11.6699219-4.039978-.9699707-7.9700317-3.9299316-10.9700317-9.329834-.0899658-.1501465-.1699829-.3100586-.25-.4602051-10.6199951-19.6999512 2.5400391-34.4899902 14.8600464-33.9799805 7.6199951.3000488 14.9099731 6.4699707 16.0599976 20.9299316.329956 4.1601563-.2300415 7.9301758-1.4400025 11.1701661z" fill="#e6e7e8"/></g><g><path d="m103.5507889 13.1746016c-.8699951.3400879-1.8800049.420166-3.0200195.130127-14.4899902-3.7399902-31.5299683-.0900879-45.4400024 4.7199717-13.1400146 4.5500488-22.75 14.4399414-29.3200073 26.4599609-13.4199829 24.5400352-10.7600098 56.1198692 11.1300049 74.8100586 1.75 1.4899902 1.9700317 3.3498535 1.2999878 4.9299316-14.8899536-7.7700195-26.0499878-21.7800293-30.0799561-39.5300293-1.75-15.2900391 1.4199829-31.3498497 9.0099487-45.260006 7.540039-13.830082 18.8500366-24.8999071 33.7000121-30.4799852 6.8400269-2.5600586 14.4299927-4.6999512 22.1900024-5.9499512 10.5200196.1301272 21.0499879 3.2800293 30.5300294 10.1699219z" fill="#a7db56"/></g><g><path d="m44.7707596 52.2146416c4.7999878-1.0600586 9.5700073-2.6699219 12.9800415-6.119873 6.25-6.3400879 5.2199707-15.75 2.7599487-23.5-.0899658-.2700195-.1499634-.5300293-.1900024-.7800293 4.4500122 2.1899414 8.0900269 6.8798828 9.2800293 14.7697754 2.3300171 15.580078-13.8300171 25.1101073-24.8300171 15.6301269z" fill="#d4d5d6"/></g><g><path d="m100.8607864 102.7947159c-3.6199951 6.9899902-10.6699829 10.4899902-18.2600098 11.6699219-4.039978-.9699707-7.9700317-3.9299316-10.9700317-9.329834-.0899658-.1501465-.1699829-.3100586-.25-.4602051 8.0600586.9099121 18.8500366.1901855 21.5500488-8.8000488 2.3999634-8-.9400024-16.6799316-5.75-23.0200195-.5599976-.7397461-.8500366-1.4697266-.9400024-2.1599121 7.6199951.3000488 14.9099731 6.4699707 16.0599976 20.9299316.329956 4.1601562-.2300415 7.9301757-1.4400025 11.170166z" fill="#d4d5d6"/></g><g fill="#202020"><path d="m66.8454361 133.0175323c37.7080078-.2902832 64.0022049-30.7276001 63.4104538-64.3764572-.3359528-14.6827583-3.2336807-33.7826958-13.7810593-44.0092812-1.7962646-1.8410645-2.1118774-1.8054199-2.326355-1.6240234-.2145386.1813965-.2948608.5092773 1.0760498 2.5983887 9.2505569 13.2426376 11.3181152 27.240799 11.4508057 43.088871.1194305 31.1340561-24.3999405 59.984993-59.8748779 60.2502365-23.3816566.357666-44.9244156-12.881218-54.2397461-36.1857834-4.7729487-12.1164551-5.6356807-26.2529297-2.1593628-39.1457558 3.432312-12.9472656 11.0985117-24.5090332 20.6514282-32.9179688 9.545166-8.4655752 20.9550781-13.8361807 31.8426514-15.7431631 18.1690598-3.2452092 34.7287292 1.975852 49.7943115 16.7941895.9034424.8696289 1.4053955 1.3066406 1.4587402 1.2609863s-.3432617-.5734863-1.1506958-1.5412598c-13.3937072-15.7028283-31.7951736-21.7287829-50.4834594-18.7587892-11.3510132 1.7661135-23.2923584 7.1474612-33.3511963 15.8151849-10.0630493 8.6081543-18.25177 20.5881348-22.0197754 34.2021484-3.807801 13.5903358-3.0527349 28.4543495 1.9189444 41.3916054 9.6515359 24.7224579 32.8416566 39.2768173 57.783143 38.9008712z"/><path d="m93.3270035 20.0348701c2.3303223-4.992919 1.9924316-5.4345694 1.5005493-5.7067862-.4920044-.2724609-1.0432129-.3269043-4.0250854 4.3212881-10.296547 16.175953-30.1970254 55.8274804-38.5492554 73.0200234-6.6990967 13.7849121-11.923645 25.0688477-11.4256592 25.3254395.50177.2583008 6.6326294-10.5615234 13.984436-24.0043945 6.4424134-11.7837448 32.9193116-60.8550911 38.5150147-72.9555703z"/><path d="m70.9379654 38.8564034c-.1159058-.776123-.3111572-1.2854004-.4689941-1.6269531-.321167-.6809082-.5911255-.6853027-.8692017-.6450195-.2781982.0402832-.5368652.1376953-.7058716.8242188-.0869751.3425293-.1276245.8303223-.2315674 1.5273438-.0766602.6948242-.1782227 1.6018066-.4180298 2.7521973-.689827 3.5726814-2.406456 6.7602119-5.1573486 9.1005859-6.5292816 5.5932007-16.9690208 4.3543472-22.487854-7.7441406-5.1882629-11.256464 2.7381058-21.5167942 14.8673706-21.2429199.7697144.1313477 1.5570068.175293 2.2785645.4213867 1.4928589.3430176 2.805603 1.0507813 4.0042114 1.7944336 2.3469238 1.6052246 3.9358521 3.7702637 5.0210571 5.7138672.4750366 1.0109863.9807739 1.9057617 1.2550659 2.7680664.3181152.8439941.626709 1.5690918.7844849 2.1923828.3762817 1.229248.6509399 1.9133301.789917 1.8925781.138916-.0205078.1364746-.7473145.0117188-2.0688477-.0316772-.6669922-.2211914-1.4553223-.4310303-2.380127-.1646118-.9389648-.5772095-1.9455566-.9788818-3.0854492-.9446411-2.2070313-2.4951782-4.7961426-5.111145-6.8728027-1.3308716-.9748535-2.8510132-1.9106445-4.6005859-2.4353027-.8525391-.3376465-1.7751465-.4604492-2.6959839-.6589355-14.6323814-1.3127327-24.9865189 11.6883965-18.8389893 25.5859375.3588867.8217773.7914429 1.5808105 1.1761475 2.3476563 10.8052749 20.8381535 35.867607 8.4684026 32.8069457-8.1601565z"/><path d="m103.1330338 92.4406357c-.2813721-.8056641-.5509644-.8378906-.8312378-.8168945s-.5444336.1071777-.7520142.8967285c-.1134644.394043-.1643677.9633789-.3106079 1.7807617-2.8403931 21.1334229-22.5016479 26.7305756-30.4945068 3.8288574-1.1394653-3.4030762-1.6526489-7.2722168-1.0523682-11.1137695 2.4478073-15.0462341 24.2597275-24.3361473 31.2745361-.300293.1408081.5095215.2719116.9841309.3926392 1.4208984.1147461.4394531.1750488.8503418.2585449 1.2155762.3079224 1.4655762.5437012 2.2822266.6837769 2.2712402s.1784668-.8510742.1295166-2.3815918c-.0188599-.3815918-.0152588-.8100586-.0679321-1.2727051-.0650635-.4624023-.1357422-.9643555-.2116089-1.5036621-1.2428131-7.4840469-3.7115097-10.7781067-7.6729736-14.2502441-6.9681702-4.8536758-15.4838562-3.4559326-21.7113647 2.0234375-3.5366211 3.1474609-5.9197998 7.5695801-6.7687988 12.1154785-.8354492 4.5629883-.2914429 9.112793.9467163 12.9936523 5.5617752 16.82061 17.1974487 20.2806244 26.0903931 15.5432129 7.5728149-4.0534668 11.3332748-13.364212 10.4802246-20.5600586-.0696413-.8903808-.2521974-1.4865722-.3829347-1.8906249z"/></g></g></svg>