<svg id="Layer_1" enable-background="new 0 0 135 135" height="512" viewBox="0 0 135 135" width="512" xmlns="http://www.w3.org/2000/svg"><g><g><path d="m130.0643921 93.1215134c-.3901367 10.5400391-2.8701172 16.1801758-13.7700195 16.7597656-23.1300049 1.2402344-46.2900391 1.6801758-69.4399414 1.300293-3.2200928-.050293-6.4400635-.1201172-9.6601563-.1899414-8.3598614-.2104492-16.709959-.5102539-25.0499249-.9902344-7.1500244-.4199219-11.289917-5.2900391-7.7700195-13.0200195 1.5899658-3.5097656 5.7301025-4.1499023 8.5799561-6.5097656 3.2199707-2.6699219 6.0400391-5.9599609 7.5900879-9.8803711.8699951-2.2099609 1.3100586-4.5898438 1.4499512-6.9697266.4899902-8.7900391-3.7199707-17.6098595-10.4799805-23.0400352-2.7299805-2.2001953-6.5999756-2.9902344-7.5800781-6.7099609-.8498535-3.2700195.5300295-9.4702148.5000002-13.0600605-.0100098-.9501953.0100098-1.9799805.6101074-2.7099609.6699219-.8100586 1.8100586-.9702148 2.8499756-1.0600586 9.0599365-.8500977 18.1400146-1.5297852 27.2199688-2.0200195 1.0500488-.0600586 2.0899658-.1201172 3.1400146-.1699219 14.9299316-.75 29.8800087-1.0302734 44.8300819-.8500977 12.1999512.1499023 24.3999023.6201172 36.5699463 1.3901367 2.0699463.1396484 4.2399902.3100586 6.0100098 1.4101563 2.8599854 1.7895508 3.8800049 5.4497089 4.4699707 8.7998066.0100098.0800781.0300293.1699219.039917.25 3.2800253 18.7998045.5900839 38.3300742-.1098673 57.2700156z" fill="#03d8d2"/></g><g><path d="m37.1942711 110.9916306c-8.3598614-.2104492-16.709959-.5102539-25.0499249-.9902344-7.1500244-.4199219-11.289917-5.2900391-7.7700195-13.0200195 1.5899658-3.5097656 5.7301025-4.1499023 8.5799561-6.5097656 3.2199707-2.6699219 6.0400391-5.9599609 7.5900879-9.8803711.8699951-2.2099609 1.3100586-4.5898438 1.4499512-6.9697266.4899902-8.7900391-3.7199707-17.6098595-10.4799805-23.0400352-1.4599609-1.1699219-3.2299805-1.9399414-4.7299805-2.9799805-1.3100586-.8901367-2.3900146-1.9902344-2.8500979-3.7299805-.8498535-3.2700195.5300295-9.4702148.5000002-13.0600605-.0100098-.9501953.0100098-1.9799805.6101074-2.7099609.6699219-.8100586 1.8100586-.9702148 2.8499756-1.0600586 10.0699463-.9501953 20.1700439-1.6801758 30.2700176-2.1899414h.0899658v.1796875c.0300293 1.6303711.0600586 3.2602539.0700684 4.8901367.3598633 27.0302753-.0200195 54.0703106-1.1301269 81.0703106z" fill="#d7df23"/></g><g><path d="m75.0453949 65.8540268c13.0105591-1.5129776 9.6995316-19.300415-2.817955-17.8904037-11.9066124 1.3412017-6.8310318 19.0122451 2.817955 17.8904037z" fill="#fff"/></g><g><path d="m102.5968246 91.1471405c13.0105591-1.5129776 9.6995316-19.300415-2.8179626-17.8904037-11.9066086 1.3412017-6.8310318 19.0122451 2.8179626 17.8904037z" fill="#fff"/></g><g><path d="m38.324398 29.92132c-.7000732 1.5-2.1401367 2.6201191-4.3000488 2.6000996-3.9000225-.0297852-7.8000469.0097656-11.6899395.1801758-3.0100098.1298828-7.6800537-.3803711-10.380127 1.0400391-2.4699707 1.2998047-3.0699463 4.9199219-3.7600098 7.4599609-.5799561 2.1098633-1.0499268 4.25-1.4099121 6.3999023-1.3100586-.8901367-2.3900146-1.9902344-2.8500979-3.7299805-.8498535-3.2700195.5300295-9.4702148.5000002-13.0600605-.0100098-.9501953.0100098-1.9799805.6101074-2.7099609.6699219-.8100586 1.8100586-.9702148 2.8499756-1.0600586 10.0699463-.9501953 20.1700439-1.6801758 30.2700176-2.1899414.0299072.0600586.0699463.1201172.0899658.1796875.7700197 1.4902343.7900392 3.380371.0700685 4.8901367z" fill="#f2f233"/></g><g><path d="m130.1742554 35.8514938c-16.469429-2.7034798-33.1534042-3.8408051-49.824852-4.270113-8.3478241-.2149658-16.6991463-.2515144-25.0493279-.2210903-4.2736969.0155716-8.5472488.072607-12.8208809.0870724-2.7346153.0092583-5.4720268-1.7934742-4.5259743-4.9385548.9884338-3.2859592 10.0639-2.0883846 13.3590393-2.1935959 10.586525-.3380146 21.1804848-.4414558 31.7721519-.3138142 12.1999512.1499023 24.3999023.6201172 36.5699463 1.3901367 2.0699463.1396484 4.2399902.3100586 6.0100098 1.4101563 2.8599854 1.7895508 3.8800049 5.4497089 4.4699707 8.7998066.0100098.0800782.0300294.1699219.0399171.2499962z" fill="#00eade"/></g><g fill="#202020"><path d="m68.0696106 94.6377869c.8511963.7353516 1.9123535.9013672 19.6711426-19.6567383 9.730957-11.2646446 29.9243164-36.0351524 29.0731201-36.7700157-.8509521-.7353516-22.4240723 22.8432617-32.1550293 34.1079063-17.758667 20.5576172-17.4401856 21.5834961-16.5892334 22.3188477z"/><path d="m76.9391174 46.4488258c-4.9140472-1.3864555-9.5915451.1981392-11.6450195 2.9072266-1.0892334 1.3276367-1.6313515 2.8569336-1.8612099 4.2421875-1.0094719 6.1091614 3.2568779 12.6762123 8.4505653 13.4335899.8052979.1171875 1.4229736.0834961 1.8776855-.0102539.4559326-.0654297.7498779-.2280273.9437256-.3540039.3847656-.2666016.3708496-.5341797.3405762-.8134766-.0303955-.2792969-.0983887-.543457-.4420166-.7685547-.3375244-.2265625-.961792-.3862305-1.9654541-.8330078-5.0706329-2.4209938-6.6549911-9.3220711-4.1727295-12.3413048 1.7594528-2.4450722 8.19664-3.3138542 11.4910889.6196289 1.0799561 1.2290039 1.7414551 2.8334961 1.9290771 4.4116211.1905518 1.581543-.1177979 3.1357422-.7913818 4.3520508-.6417236 1.2480469-1.6556396 2.1279297-2.5966797 2.7465782-1.9262695 1.2387695-3.5141602 1.4731445-3.4519043 1.8129883.0159912.1396484.4093018.2158203 1.1369629.2324219.7177734-.0239258 1.7850342-.1230469 3.0327148-.6323242 1.2316895-.4931641 2.704834-1.3886719 3.7941895-2.9287071 1.1208496-1.5004883 1.7961426-3.5810547 1.7508545-5.7519531-.0388184-2.1669922-.7438965-4.4453125-2.145752-6.3256836-.6940918-.9389648-1.5391846-1.7919922-2.5133057-2.4697266-.975952-.6743164-2.0552977-1.1816406-3.1619872-1.5292969z"/><path d="m92.8456116 74.6490173c-3.0296249 3.6927261-2.4405594 9.5826416.4847412 13.6289063 2.059082 2.8129883 4.5307617 3.8173828 6.1044922 4.046875.8052979.1176758 1.4229736.0839844 1.8778076-.0097656.4559326-.065918.7497559-.2285156.9436035-.3544922.3847656-.2666016.3708496-.5341797.3405762-.8134766s-.0983887-.543457-.4420166-.7685547c-.3374023-.2265625-.9616699-.3862305-1.9654541-.8330078-5.1464844-2.4575195-7.3671112-10.2940063-3.0026855-13.3842773 6.8558044-3.9214325 15.2467651 3.5873718 11.4587402 10.4262695-.6416016 1.2480469-1.6556396 2.1279297-2.5966797 2.746582-1.9261475 1.2387695-3.5141602 1.4731445-3.4519043 1.8129883.0159912.1396484.4094238.2163086 1.1369629.2329102.7177734-.0244141 1.7851563-.1230469 3.0328369-.6323242 1.2316895-.4931641 2.704834-1.3886719 3.7941895-2.9287109 8.7144851-11.6712037-10.9247056-22.1284181-17.71521-13.169922z"/><path d="m37.1611595 72.6358337c1.0953369.0927734 2.1087646.0351563 2.5046387-6.9521484.0983887-1.9130821-.0213623-4.9355431-.3572998-7.4677696-.3311768-2.5336914-.862915-4.5717773-1.4233398-4.5664063-.5640869.0053711-1.0509033 2.0390625-1.4560547 4.5249023-.4006348 2.487793-.734375 5.4306641-.8308105 7.3071251-.3873292 6.8403321.4173583 7.0585938 1.5628661 7.1542969z"/><path d="m37.8680687 78.9429626c-1.1245117 0-2.0361328 6.5791016-2.0361328 9.6445313 0 5.5947266.9116211 5.7119141 2.0361328 5.7119141 1.1247559 0 2.036377-.1171875 2.036377-5.7119141-.0000001-3.0654297-.9116211-9.6445313-2.036377-9.6445313z"/><path d="m131.7082825 34.1163063c-.5048828-2.347168-1.2424316-4.7402344-2.8223877-6.7583008-.7894287-.9956055-1.8171387-1.840332-2.9360352-2.3984375-1.1184082-.5546875-2.2502441-.8251953-3.2947998-.9863281-2.1125488-.2880859-3.8568115-.2822266-5.5958252-.3920898-4.0949249-.1770973-7.5201187-.342598-13.2993164-.472168-9.9317627-.2089844-15.0991211-.0493164-17.7822266.1416016-2.6833496.203125-2.8848877.4707031-2.8884277.7509766-.0036621.2822266.192749.5498047 2.862793.8344727 2.6693115.2958984 7.8133545.574707 17.6906738 1.1503906 2.4685059.1538086 5.2330322.3261719 8.3291016.5195313 1.5472412.1054688 3.1773682.2163086 4.8947754.3330078 1.6998291.1411133 3.5919189.2011719 5.2513428.4682617 1.6994629.28125 3.0299072.890625 4.0296631 2.203125 1.0065918 1.3120117 1.6413574 3.2109375 2.0533447 5.3291016 1.9376984 10.7185402 1.866684 21.1839485 1.3282471 32.0624962-.0050354.1008148-1.5412521 28.639122-2.1765137 31.4311523-.3931885 1.7333984-.9851074 3.3881836-1.9957275 4.6328125-.9912109 1.2568359-2.3780518 2.1650391-4.0976563 2.7294922-1.7299805.5766602-3.65271.7792969-5.7562256.8945313-2.1583252.1044922-4.3513184.2104492-6.5794678.3183594-4.4569092.199707-9.055542.3842773-13.8006592.5332031-15.6992188.515625-34.8310585.7421875-55.4960976.3383789.3847656-.487793.5653076-1.4707031.369751-3.5336914-.1965332-2.0722656-1.5256348-6.4335938-2.6453857-6.3271484-1.1195068.105957-1.6054688 4.6391602-1.4089355 6.7114258.1558838 1.644043.4171143 2.5712891.7543945 3.0864258-5.7703857-.1289063-11.6452637-.3041992-17.5976563-.5395508-8.9813805-.4175949-7.1183681-.3141327-9.0441885-.6230469-.3653564-.1069336-.7418213-.1958008-1.0968018-.3183594-4.579258-1.6798401-5.0261049-6.2311325-2.8760986-9.7998047.1427002-.2915039.3209229-.5595703.5379639-.8129883.838501-1.0302734 2.3015137-1.8066406 3.9343262-2.6508789.81604-.4287109 1.680542-.8876953 2.5369873-1.4682617 8.3576326-5.6997757 13.0916071-16.4205093 9.189208-28.3247032-2.3981628-7.3956337-6.9632711-12.6997337-13.8704824-16.6069336-1.420166-.8183594-2.4990234-1.7006836-2.9550781-2.8833008-.4676514-1.1523438-.4466553-2.8295898-.3720703-4.418457.0055337-.1003838.6888094-9.6518822.7044678-9.7519531.1188965-.5800781.2138672-.7202148.619751-.9370117.4256592-.2094727 1.1278076-.2978516 1.9273682-.3686523 12.8248491-1.2395554 20.847641-1.8322372 29.4116211-2.3554688-.8448486 2.3071289-1.4624023 9.1123047-1.4624023 12.6201172 0 7.7827148.9116211 7.9453125 2.0361328 7.9453125 1.1247559 0 2.036377-.1625977 2.036377-7.9453125 0-3.5473633-.6315918-10.4594727-1.4912109-12.6894531 5.3828125-.3212891 10.4012451-.5673828 14.9758301-.7583008 9.026001-.3779297 16.3385048-.5390625 21.3933144-.6679688 2.5275879-.0737305 4.4904785-.1313477 5.8225098-.1704102 2.7078705-.114172 2.7113419-.2531395.0040283-.4160156-1.3311768-.0834961-3.295166-.1665039-5.8253174-.234375-5.0601807-.1362305-12.3864784-.2304688-21.4390907-.0961914-16.9057503.251688-30.8460922 1.077301-45.690918 2.2641602-.7807617.074707-1.7154541.0961914-2.7696533.5556641-.5211182.2285156-1.0688477.6342773-1.4488528 1.171875-.7020428.9981995-1.5299382 11.5646706-1.5369873 11.6655273-.0625.8671875-.0898438 1.7583008-.0529785 2.6831055.0408936.9125977.1508789 1.9248047.5438232 2.934082.381958.9970703 1.0263672 1.909668 1.7683108 2.6113281.7416992.7084961 1.5490723 1.2436523 2.3262939 1.7148438 6.1689205 3.6025848 10.2263441 8.26297 12.3498526 15.0844688 3.2684174 10.5413895-.6709309 20.806427-10.3334951 25.7495117-1.5759277.8266602-3.4962158 1.6860352-5.0343018 3.4682617-2.4423003 2.8260956-3.6674483 8.7752533-1.3468018 12.3408203 1.1955566 2.0214844 3.2052004 3.284668 5.1557617 4.0053711.494751.1757813.9963379.3041992 1.4956055.4462891 2.2082329.4092331.9717875.3149872 9.704711.7856445 28.5523682 1.3359375 55.4372597 1.2709961 76.3262939.5864258 4.7644043-.1499023 9.3815918-.3369141 13.8564453-.5410156 2.2370605-.1103516 4.4387207-.2192383 6.6057129-.3261719 2.2111816-.1254883 4.5687256-.3481445 6.8261719-1.1064453 2.2591553-.7275391 4.4914551-2.1303711 5.9996338-4.0859375 1.5385742-1.9428711 2.2728271-4.1762695 2.7418213-6.2470703.7006683-3.1508942 2.12677-32.0095673 2.1315918-32.1196289.4855534-11.2280734.4463841-21.9520075-1.7059291-32.969723z"/></g></g></svg>