<svg id="Layer_1" enable-background="new 0 0 135 135" height="512" viewBox="0 0 135 135" width="512" xmlns="http://www.w3.org/2000/svg"><g><g><path d="m127.2170792 82.501976c-2.7997742 15.1208115-10.9415436 29.4948578-23.2185822 39.3634949-.9372406.6803436-1.897789 1.3269272-2.8935852 1.9514618-13.7180023 8.5866318-34.0899124 9.1550827-49.4362869 4.9848251-2.5420799-.6915131-5.0373306-1.5501709-7.4622917-2.5536728-34.5233536-14.262413-48.1710737-55.1651916-28.8651781-85.1952743z" fill="#ddc807"/></g><g><path d="m129.5805817 58.9805717c-.0400391 7.9201698-1.460022 16.0500526-4.2700119 23.8801308-3.3400269 9.3000488-10.4000244 17.0400391-19.3900146 22.8000488-8.3200073 5.3398438-18.289978 8.9799805-28.5200195 10.5698242-11.7299805 1.8300781-23.7799683.9702148-33.9799805-3.119873-8.5999756-3.4299316-15.8999634-9.1398926-20.6099854-17.4599609-2.6099854-4.5900879-4.1500244-9.670166-5.3499756-14.7700195-1.54004-6.6398926-2.580018-13.1599121-2.6900034-19.5800819-.1700439-9.5900879 1.750001-18.9499512 7.1499643-28.1699219 7.3599854-12.5700684 19.8500366-22.3300781 34.2399902-26.7700195 5.7200317-1.7600098 11.7000122-2.7099607 17.7000122-2.9699705 9.4700317-.4101563 17.7700195 1.109863 24.8800049 4.1098633.3200073.130127.6400146.2700195.9500122.4101563 7.7000122 3.4399414 13.9599609 8.6298828 18.7299805 14.9899902 1.1400146 1.5200195 2.2000122 3.119873 3.1699829 4.7800293 5.3600464 9.0998532 8.05999 19.9999997 7.9900437 31.2998043z" fill="#fff200"/></g><g><path d="m129.5783997 58.9780655c-.0416565 7.9264679-1.4563141 16.0502625-4.2648773 23.8830261-3.3390121 9.2996063-10.4020309 17.0386581-19.3893356 22.8014221-.4473419-.4682922-.8113861-1.0402069-1.0818481-1.6540146-4.639267 3.328598-9.871521 5.8874588-15.103775 8.0719833-4.0255737 1.685257-8.1447372 3.0685501-12.336792 4.1504059-11.7334595 1.8307648-23.779026.9673157-33.9834137-3.1206131.1872292-2.4237518 1.8515282-4.6184387 4.9929619-4.4416885 12.0351563.6864471 23.96632-.9777298 35.2629051-5.2840576 5.5442429-2.1220551 11.2237701-4.8475113 16.0087433-8.4153366 4.8473206-3.6198807 8.103157-8.8833694 11.1717758-13.9906769 13.002533-21.6987495 4.1919785-48.6711426-10.464447-67.3739777-1.4458923-1.8411798-1.4563065-3.9632349-.6969757-5.690135 7.697525 3.4327211 13.9595642 8.6233253 18.7236557 14.9894886.8425598 1.6436024 1.6435318 3.3181877 2.3925171 5.0135975.2600479-.1038685.5200958-.1871662.7801514-.2392273 5.3570097 9.101779 8.061569 20.003089 7.9887541 31.2998038z" fill="#eddb03"/></g><g><path d="m98.7405624 7.5005913c-.6900024.3901367-1.539978.6000977-2.539978.5600586-16.7800293-.6899414-33.4800415 2.8701172-48.3300171 10.7800293-14.1099853 7.5200195-30.7800293 19.9299316-29.5900268 37.7700195.1800537 2.7099609-1.4799805 4.2700195-3.5099497 4.6899414-.1700439-9.5900879 1.750001-18.9499512 7.1499643-28.1699219 7.3599854-12.5700684 19.8500366-22.3300781 34.2399902-26.7700195 5.7200317-1.7600098 11.7000122-2.7099607 17.7000122-2.9699705 9.4700318-.4101562 17.7700196 1.1098631 24.8800049 4.1098631z" fill="#fff469"/></g><g fill="#202020"><path d="m30.2663479 104.2534409c27.2051716 25.3093185 81.1706009 17.2303696 96.1901855-20.0649414 2.440712-6.3650436 4.2467422-15.8413773 3.8546066-22.6750526-.1604004-2.3623047-.4571533-2.5307617-.7284546-2.5336914-.2907104-.003418-.5306396.1757813-.8553467 2.4672852-.3640442 2.3876343-1.4607697 12.7219429-5.2067795 21.6206093-14.5613632 33.2500229-64.1231995 42.7249908-90.4835205 18.2011719-15.5144919-14.349785-21.9347257-37.2321093-14.2543944-58.6337931 5.4544372-15.3574638 18.9341755-29.1605224 39.5704975-35.2763652 10.3101196-2.9115858 23.118782-3.7008815 34.6583252-.5043946 20.9483871 5.885416 33.0940018 23.7648144 35.8473434 45.3427734.5258789 4.3430176.5476685 6.7839355.723877 6.7827148.0702515.0004883.1309814-.6074219.1826172-1.7702637.0328369-.5817871.0496826-1.3015137.0252686-2.1523438-.0119629-.8510742-.0237427-1.8344727-.1146851-2.9377441-1.4571686-21.753458-14.1476212-41.2107162-35.9347458-47.7507324-2.7767944-.8237307-5.6606445-1.4948733-8.626709-1.869385-5.7891083-.9683998-17.1791306-.95988-27.598938 1.8305668-12.6818352 3.5693812-23.8225212 10.0355682-32.4771748 20.3181152-3.2029419 3.807373-5.927124 8.0158672-8.0169067 12.4746075-1.0830078 1.0825195-2.8474121 3.1442871-5.2884521 7.2883301-1.3627319 2.2751465-2.7814941 5.2678223-4.1335444 9.1311035-3.6748315 10.7379875-4.0473302 22.8091926-.4732057 34.8066444 3.3559232 11.2826843 8.8571434 19.0122604 16.1966553 26.6276855 1.1164551 1.0019531 2.210144 2.0996094 3.4606323 3.0793457 12.4103947 10.5659561 31.079443 16.7981339 51.704834 14.5812912 7.7156982-.807373 15.3346558-2.9335938 21.7888794-6.6862717 23.8233795-13.7875977 27.5896988-43.331543 26.9398193-43.4489746-.7943954-.1503143-4.763176 28.103775-28.3579102 40.942627-6.0877075 3.3369141-13.3312378 5.2072678-20.7028198 5.8320236-19.4590874 1.7180176-37.061779-4.250267-48.7748413-14.3295822-1.1678467-.9196777-2.1834717-1.9541016-3.2277222-2.890625-17.1204084-17.9394684-20.9141873-38.994461-15.3399662-57.4787635.807373-2.609375 1.6394653-4.8183594 2.4616089-6.6872559-4.8935223 20.2141457 1.2315788 41.7881279 16.9909668 56.3632851z"/><path d="m78.9505539 59.5146675-1.0668335.0310059-.9577637.0446777c-.2444458.0097656-.4862671.0065918-.7299194.012207-.0371704-5.0244141-.0666504-10.4267578-.0640869-15.3410645-.0085449-4.5185547-.0075684-8.6162109-.0722046-11.6208496.6165161.0009766 1.2226563.019043 1.8024292.0651855 3.2109985.2680664 5.784729 1.0151367 7.5543823 1.510498 1.770813.515625 2.7602539.817627 2.8186646.6799316.0518799-.1208496-.8272095-.6748047-2.5361328-1.4506836-1.7120361-.7531738-4.2640381-1.775877-7.6519165-2.3142071-.6400757-.0993652-1.3287354-.1677246-2.0379028-.2133789-.0783691-2.0649414-.2108765-3.3088379-.4413452-3.3249512-.2244873-.0158691-.5303955 1.2155762-.8622437 3.282959-2.6844482-.0078125-5.6851196.4956055-8.5960083 2.1061993-4.1418457 2.3115234-7.4915161 6.9433594-8.2785645 12.4145508-.4002075 2.7192383-.1708374 5.6621094.947876 8.394043 2.2643471 5.6525459 7.4953156 8.5716896 13.5222778 9.2641602-.0725708 3.041996-.0999756 5.856205-.0792847 8.2092323.0824585 9.9040527.4507446 16.0119629.8413086 19.7875977-3.2353516.4584961-6.2473145.2939453-8.8446045-.1623535-3.6759644-.6623535-6.6396484-1.8862305-9.0108032-3.0834961-2.3728027-1.217041-4.1750488-2.435791-5.5982056-3.4602051-2.8295898-2.0827637-4.197998-3.3503418-5.0386963-3.8833008-.8221436-.5576172-1.0769043-.4406738-1.2892456-.2565918-.2124023.184082-.3701782.4099121.1135864 1.3200684.5065308.8859863 1.6078491 2.5258789 4.4049683 5.0600586 1.4094238 1.2492676 3.2588501 2.7133789 5.791687 4.1853027 2.5350952 1.4501953 5.7665405 2.9414063 9.9209595 3.8037109 2.9403076.5927734 6.366272.8540039 10.1026611.3725586.4476318 2.1064453.8953247 2.1865234 1.3778076 2.1625977.5053711-.0249023.961853-.1650391 1.2049561-2.5983887.6856689-.1501465 1.3798218-.326416 2.0820923-.5327148 2.7678223-.842041 5.6282349-2.1213379 8.3226318-4.1867676 2.6410522-2.046875 5.0435181-4.6206055 7.0216675-7.8601074 7.4718705-12.4758071-1.1700439-22.5093383-14.6741943-22.4174842zm-17.2803955-6.9553223c-.9463501-2.1088867-1.2358398-4.5024414-.9834595-6.7905273.4875488-4.6166992 3.1678467-8.6982422 6.5877075-10.8300781 1.7134399-1.0541992 3.5932617-1.7229004 5.4099121-2.0273438.5926514-.1035156 1.1749268-.1650391 1.7512207-.2099609-.4074707 2.9711914-.8317261 6.9956055-1.1811523 11.4484863-.3962402 4.8984375-.6796875 10.2978516-.8497925 15.3310547-4.7872009-.4950485-8.8284149-2.6072731-10.734436-6.9216309zm28.4661255 27.2714882c-1.6546631 2.7248535-3.7936401 5.0317383-6.0073242 6.7531738-2.185791 1.6992188-4.651001 2.8391113-7.0099487 3.5778809-.243042.0742188-.4814453.1276855-.7228394.1940918.0610962-3.8068848-.0239258-9.763916-.1018066-19.1188965-.0200806-2.2924805-.045166-5.0249023-.0696411-7.9814491.2663574-.0002441.5363159.0092773.8005981.0043945l1.0241699-.0258789.9105225-.0065918c10.5429.1552201 17.0030593 6.9334069 11.1762695 16.6032753z"/></g></g></svg>