<svg id="Layer_1" enable-background="new 0 0 135 135" height="512" viewBox="0 0 135 135" width="512" xmlns="http://www.w3.org/2000/svg"><g><g><g><path d="m115.4578705 122.7323074c-4.8699951 7.5998611-13.7999878 6.6198807-21.7800293 6.5498123-4.0299683-.0297852-8.0599976-.0800781-12.0899658-.119873-8.0200195-.0900879-16.0400391-.1901855-24.0700111-.2900391-.8699951-.0100098-1.75-.0200195-2.6199951-.0300293-6.1300049-.0700684-12.2800293-.1401367-18.4100342-.4599609-1.3999634-.0800781-2.7999878-.1601563-4.1999512-.2700195-3.3200054-.2500076-6.630003-.5800858-9.9300518-1.0500565-2.3099976-.329834-4.8599854-.8798828-6.1799927-2.8000488-.9099741-1.3198242-1.0299692-3.0097656-1.1199961-4.6098633-.1599731-2.8901367-.3200073-5.7700195-.4799805-8.6601563-.75-13.4599609-1.5-26.9099121-2.25-40.369873-.1400146-2.5300293-.2800293-5.0700684-.4299927-7.6000938-.0400391-.8000488-.0900269-1.5898438-.1300049-2.3898926l44.2600098 1.5600586 24.6399574.869873 9.1100464.3200684 23.8899536.8398399 4.0300293.1401367c0 .2299805-.0100098.4599609 0 .6899414-.0900269 11.7600098.7600098 17.2600098.6300049 29.2700195-.080018 8.3601075 1.9699698 20.8798829-2.869996 28.4101563z" fill="#ea5639"/></g><g><path d="m126.6678314 63.9520378c-.8999634.5400352-2.0199585.5400352-3.0699463.5200157-4.7700195-.1098633-9.5400391-.2099609-14.3099976-.3198242-19.75-.430172-39.5-.8500938-59.2500038-1.2800255-12.210022-.2700195-24.6100445.0900879-36.7900391-.8000488-.1699829-.0100098-.3399658-.0300293-.5100098-.0500488-8.2099609-1.0300293-9.5-11.6799316-6.3099976-18.9899902.9100342-2.119873 2.210022-3.9499512 3.8099976-5.1999512 2.2600098-1.7600098 5.1000366-2.4099121 7.9900522-2.7099609 1-.1101074 2.0099487-.1799316 3-.2399902 33.1999512-2.0200195 66.5299683-1.9499512 99.7199707.2099609 1.4699707.1000977 3 .2099609 4.3900146.6401367.6400146.1899414 1.2600098.4499512 1.8399658.7998047 5.6900055 3.4799804 5.170047 24.0200195-.5100067 27.4199218z" fill="#ff7555"/></g><g><path d="m67.3978729 33.0321159-27.0300331.1601563c-2.5499878-2.790041-5.8099976-7.1101093-8.5399761-10.9501972-1.0700073-1.5097656-2.0599976-2.9499512-2.8900146-4.1899414-.6199951-.9299316-1.2600098-2.0100098-1.0200195-3.1098623.1600342-.7700195.7300415-1.380127 1.3000488-1.9301758 2.3999634-2.2998047 5.1900005-4.1999512 8.209959-5.5798345 1.8099976-.8200684 3.7399902-1.4602051 5.7300415-1.5600586 3.9499512-.1899414 7.4699707 1.7800293 10.3200073 4.6301274 1.7599487 1.7397461 3.2599487 3.829834 4.4499512 5.9497061.960022 1.7102051 1.8099976 3.4902344 2.6500244 5.2700195 1.9099731 4.0302735 3.7999916 8.0700684 6.8200111 11.3100605z" fill="#e9fdff"/></g><g><path d="m99.6178436 18.5721531c0 3.4799805-.4699707 6.9599609-1.3800049 10.3100586-.3200073 1.1799316-.7399902 4.0100117-1.6900024 4.83008-.1699829.1499023-.3599854.25-.5599976.329834-.9299927.3601074-2.1399536.0900879-3.1300049.0600586-7.2599487-.1899414-14.5299683-.3898926-21.789978-.5900879-1.2299805-.0297852-2.5200195-.079834-3.6699829-.4799805-.3699951-.1298828-.7300415-.2900391-1.0700073-.5100098-1.3900146-.8798847-2.1900024-2.4399433-2.8800087-3.9399433-1.0100098-2.1999512-2.0999756-4.5100098-2.8599854-6.8498535l-.0100098-.0102539c-.1600342-.4799805-.2999878-.9499512-.4299927-1.4299316-.2200317-.829834-.1799927-1.4399414.039978-1.9099121.4899902-1.0200195 1.8300171-1.3798828 3.2700195-1.8798828.2999878-.1000977.6099892-.2102051.909977-.3300781 5.7600098-2.2700186 11.5100098-4.5400381 17.2700195-6.8200674 2.4199829-.9499512 4.8800049-1.9199224 7.4699707-2.1799321 2.5900269-.2700195 5.3700562.25 7.3300171 1.9699712 2.5700075 2.2600097 3.1799928 6.0100097 3.1799928 9.4299306z" fill="#e9fdff"/></g><g><path d="m125.3378754 35.7323112c-.460022 2.0498047-2.0100098 3.9099121-4.6500244 4.1398926-21.6199951 1.880127-43.1400146 1.9299316-64.8200073 1.7099609-10.0899658-.0998535-20.9599609-.619873-30.8200054 1.869873-7.8099976 1.9602051-18.0899658 9.3300781-12.4499521 18.3300781.0499878.0800781.0999756.1601563.1399536.2399902-8.2099609-1.0300293-9.5-11.6799316-6.3099976-18.9899902.8699951-1.0200195 1.8300171-1.9699707 2.8800049-2.8398438 2.710022-2.25 5.7300415-3.880127 8.9200449-5.0700684 1-.1101074 2.0099487-.1799316 3-.2399902 33.1999512-2.0200195 66.5299683-1.9499512 99.7199707.2099609 1.4699687.1000979 2.999998.2099612 4.3900127.6401369z" fill="#ff927d"/></g><g><path d="m115.4578705 122.7323074c-4.8699951 7.5998611-13.7999878 6.6198807-21.7800293 6.5498123-4.0299683-.0297852-8.0599976-.0800781-12.0899658-.119873-8.0200195-.0900879-16.0400391-.1901855-24.0700111-.2900391-.8699951-.0100098-1.75-.0200195-2.6199951-.0300293-10.9474449-.1259308-21.661808-.2267914-32.5400314-1.7800369-3.798914-.5424194-6.497077-2.0544968-7.7771235-5.8136673-.9213896-2.7058792-1.0579138-6.3384399 2.3215971-7.2381134 2.0615654-.5484924 4.2131729.2225952 6.2444859.8742599 16.1230526 5.1724014 33.3351898 3.1006317 49.9099808 2.6782761 3.2807999-.0835953 6.0172806-.5140228 9.2126846-1.050293 6.6416397-1.1146393 13.2363586-3.4089737 18.7883682-7.2802887 7.8501663-5.4737625 13.7547226-20.2607727 8.7105331-29.1790924-2.7760315-4.9072189-7.3703613-4.1343842-12.2721405-4.1338196-27.4304276.0032043-54.8333893-1.3685989-82.1383896-3.9673691-1.2599487-.119873-2.2699585-.6098633-3.0299683-1.329834-2.1799927-1.9899902-2.3300171-5.7399902-.4299927-7.6000938.7999878-.7697754 1.9500122-1.2199707 3.4599609-1.0700684 21.0100098 2.0400391 42.0800171 3.2802696 63.1700478 3.7499962.7600098-1.3498535 2.1399536-2.3298302 4.1699829-2.3098106 2.3499756.0200195 4.710022.0100098 7.0800171-.0100098 7.0299683-.0600586 14.1099854-.1801758 21.0799561.2700195 1.0599976.0698242 1.9900513.2600098 2.8099976.5698204.5700073.2102051 1.0900269.4702148 1.5600586.7802734.8199463-.1601563 1.6699829-.1401367 2.4699707.0498047-.0900269 11.7600098.7600098 17.2600098.6300049 29.2700195-.080021 8.3601076 1.9699668 20.879883-2.869999 28.4101564z" fill="#dd442f"/></g><g><path d="m53.4778862 10.5023298c-7.8300171 1.1398926-15.4200439 6.539794-21.6500225 11.7397451-1.0700073-1.5097656-2.0599976-2.9499512-2.8900146-4.1899414-.6199951-.9299316-1.2600098-2.0100098-1.0200195-3.1098623.1600342-.7700195.7300415-1.380127 1.3000488-1.9301758 2.3999634-2.2998047 5.1900005-4.1999512 8.209959-5.5798345 1.8099976-.8200684 3.7399902-1.4602051 5.7300415-1.5600586 3.9499511-.1899413 7.4699707 1.7800294 10.3200073 4.6301275z" fill="#f8ffff"/></g><g><path d="m99.6178436 18.5721531c0 3.4799805-.4699707 6.9599609-1.3800049 10.3100586-.3200073 1.1799316-.7399902 4.0100117-1.6900024 4.83008-.1699829.1499023-.3599854.25-.5599976.329834-2.6900024-.4099121-5.1699829-2.7399921-4.2999878-6.1499043 1.2700195-4.9401855 4.0300293-13.0900869-3.3399658-13.4099112-6.210022-.2700195-12.9400024.5598145-18.4400024 3.5598135-2.6199951 1.4299316-5.1100464.3500977-6.450016-1.5397949.2999878-.1000977.6099892-.2102051.909977-.3300781 5.7600098-2.2700186 11.5100098-4.5400381 17.2700195-6.8200674 2.4199829-.9499512 4.8800049-1.9199224 7.4699707-2.1799321 2.5900269-.2700195 5.3700562.25 7.3300171 1.9699712 2.5700073 2.2600098 3.1799926 6.0100098 3.1799926 9.4299307z" fill="#f8ffff"/></g><g><path d="m80.7778778 59.44907c-.0300293 1.1112404-.0700073 2.2227173-.1100464 3.3339539-.6899414 18.7270851-2.2399902 37.4639244-.9399414 56.2300377.1299438 1.8523865.6799927 5.1960983-.3500366 6.9996948-.0599976.0973434-.1199951.1949234-.1900024.2922668-1.039978 1.3747101-3 .8677597-4.5599976.8384857-.2700195-.009758-.9500122 0-1.8999634.029274-4.5300293.068306-15.0800209.292511-15.2100258-.2339554-.0200195-.078064-.0200195-.1558914-.0300293-.2339554-.1399536-1.9009399-.25-3.8018723-.3399658-5.6932907-.8699951-5.0204468-1.0200195-9.9825897-.5200195-15.0323105-.5100098-.7018738-.8200073-1.598671-.8200073-2.6906357.0800171-13.7846985.1500244-27.5691605.2200317-41.3536186.0299683-5.7811089.0599976-11.5522232.0899658-17.3330956.0200195-2.7003899-.1599731-5.4105377-.2600098-8.1011696-.0199585-.3510551-.0199585-.721386.1500244-1.0334091.2700195-.4581604.8800049-.6140518 1.4199829-.7116318 4.7399902-.8089752 9.5600014-.2144432 14.3200111-.009758 3.9500122.1656494 8.2800293-.994381 8.6699829 4.1724434.5200197 6.8337976.5500489 13.6871148.3600465 20.5306741z" fill="#e9fdff"/></g><g><path d="m80.6678314 62.7830238c-.6899414 18.7270851-2.2399902 37.4639244-.9399414 56.2300377.0868607 1.3897934.2990494 2.7691498.259201 4.1657257-.021019.7366333-.0899506 1.4706497-.3323135 2.1696014-.1446304.417099-.2509384 1.4617691-.4682312 1.7478943-.0862732.1136017-.2428818.1414948-.3845062.1585236-2.0252457.2433929-4.0413208-.1446533-6.0741501-.0820236-.7000122-21.0181046-.2400513-42.0362091 1.3899536-63.0052872.2800293-3.6462212 3.8600464-5.2741661 6.6600342-4.7184258-.0300293 1.1112405-.0700073 2.2227174-.1100464 3.3339539z" fill="#d7f5f7"/></g></g><path d="m5.3831296 59.8716316c1.1549072 1.5830078 2.8032222 2.9130859 4.6458735 3.557373.3062744.1186523.6150513.2124023.9251099.2941895-.0758057 1.6518593-.0880737 4.1850624-.0053711 8.0847206.263855 12.439209 1.475708 36.0344238 2.1390381 48.4760742.0725098 1.0703125.1676025 2.3027344.6643066 3.6459961.4796143 1.3574219 1.5829468 2.6887207 2.8328247 3.4294434 1.2467041.773674 2.5429077 1.1496506 3.7706299 1.4130783 8.3634644 1.7570801 25.22229 2.0029297 33.736084 2.0556641 26.3598061.175293 16.9669838.1318359 45.5518837.217041 9.6121216-.1623535 16.5336304-2.838623 19.2312622-12.5493088 2.4515991-9.2922363-.1798096-39.15625-.7689819-49.9042969-.1030884-1.8361816-.1863403-3.1044922-.2745972-3.7453613 4.145874.2158203 2.7526245.1464844 5.2799072.263916 2.6728516.1027832 4.2921143.1342773 6.1988525-2.8940468 3.0497437-5.0197754 3.899231-15.8032227 1.5463257-22.3937988-1.1682129-3.1374512-2.628418-4.40625-4.9284668-5.1862793-3.3681641-1.1403809-18.9177856-1.7890625-27.4974976-2.1818848 2.2365723-3.9550781 3.1938477-9.8369141 3.1758423-14.5361328-.184265-10.7805171-7.2714843-14.381103-15.2719115-12.1552729-3.6147461.9851074-21.9745483 9.1875-25.7648964 11.4785156-5.0213013-10.0625-13.1914063-16.5151368-23.6998291-11.6088867-3.2087402 1.4936523-6.2200317 3.5922847-8.894043 6.3142085-.5176392.5478516-1.1942139 1.2556152-1.5237427 2.3850098-.3256836 1.1552734-.0140991 2.2770996.3560181 3.0300293 1.1707764 2.4057617 8.5308838 11.2097168 12.3759155 14.7368164-3.8857422.1262207-19.3596191.6647949-23.2058105 1.3188477-2.3791504.3984375-4.8776245 1.215332-6.9490967 2.8037109-2.0637202 1.6203613-3.4099116 3.6938477-4.3591914 5.7695313-1.8449099 4.1911621-2.2937624 8.5664063-1.5046999 12.6140137.3651122 1.8427733 1.0798952 3.6628417 2.2182619 5.2670897zm48.7582393 66.9670449c-6.0139771-.0842285-24.8704834-.3222656-32.9569092-2.0317383-.9767456-.2004395-1.8408203-.4870605-2.4567261-.8720703-.6243896-.3935547-.963501-.8076172-1.2145996-1.4399414-.2489014-.6442871-.3632202-1.5090332-.4249268-2.4716797-.7615356-12.765625-2.1148071-35.6633301-3.2642212-48.3762207-.3195801-3.534668-.5914917-5.9350586-.8330078-7.5700684.7769165.0734863 1.4299316.0998535 2.1499023.1542969 11.8465576.7165527 19.4176636.3352051 40.0264282.666748.2664185 45.9851074.0775146 41.7055664.1802368 48.3679199.0276489 2.5625.1960449 4.6616211.3236084 6.395752.1367798 1.7197266.2471313 3.1074219.3363647 4.2287598.1054077 1.3532715.1875 2.3049316.2782593 2.9855957-.7126463-.0124512-1.4420165-.0251465-2.144409-.0373535zm24.2392616-3.5195313c.163147 2.1923828.274353 3.2890625.447876 3.8950195.006958.0244141.0159912.0358887.0231934.0588379-.87854-.0168457-1.7634888-.0336914-2.6365967-.050293-6.1231689-.1064453-12.088562-.2104492-17.7769203-.3093262.1737061-.6967773.335144-1.6625977.4490356-3.0153809.0969849-1.1611328.1473999-2.5969238.1589355-4.3520508.0174561-1.7570801-.0210571-3.8244629.0536499-6.2385254.4416504-16.9755859.5027466-26.7995605-.5794678-48.3552246 1.4075928.0229492 2.7904663.045166 4.1210938.0666504 6.3524818.0949707 11.8303261.1623535 16.5711098.2067871-.3475952 10.0930177-1.6413574 46.0175783-.8319092 58.093506zm.9456787-61.536869c-4.7470093-.1621094-10.2354736-.3330078-16.6033363-.5148926-1.4194336-.0388184-2.8968506-.0791016-4.4039917-.1203613-.3807373-6.8359375-1.2249146-19.5849609-2.1340332-25.7919922 7.7097778-.1723633 15.4984779-.2390137 23.2229042-.201416-.1950684 3.2941894.4726562 8.5732421-.081543 26.6286621zm45.8422241-24.8310547c1.6242676.5075684 2.5930176 1.2475586 3.5582275 3.6772461 2.2833252 5.8757324 1.7936401 16.1608887-.7808228 20.7800293-1.387146 2.4077148-2.4289551 2.3835449-4.8064575 2.395752-2.5543213.0073242-.498291-.0068359-8.3660889.060791-3.5263672.0561523-5.4778442.1508827-5.480896.2915077s1.9425049.3200684 5.4630127.5292969c.8448486.0441895 1.7854004.0930176 2.8060303.1462402-.0991211.6357422-.2001343 1.9099121-.2764893 3.7666016-.3137207 7.3789063.8008423 42.3208008-1.1781616 49.1022949-2.4503174 8.1000977-8.0562134 9.9951172-16.4864502 9.9675293-6.4039917-.1220703-12.8424683-.2446289-19.1717529-.3652344.3024292-.6142578.616333-1.8051758.8114624-3.9484863 1.1450195-11.579834 1.4356689-44.8024902 1.2774658-58.1010742 7.7028809.0581055 26.723877.3220215 26.7548828-1.097168.0318604-1.4680214-18.9619141-1.9821815-26.8059082-2.2636757-.1306152-6.4367676-.7177124-20.6201172-2.5289917-26.7368164 4.6740724.0256347 41.2872926.5676269 45.2109376 1.795166zm-37.9315185-27.5461426c5.9822388-1.3586426 10.0621948.833252 10.3803101 8.6003418.1879272 6.8193359-1.4594727 12.0437012-1.696228 14.342041-9.2805176-.3911133-18.8580933-.6181641-28.4371948-.6606445-.2233887-.5339355-.6449585-1.3088379-1.31073-2.5393066-1.9818726-3.6472168-3.5910683-7.7431641-5.2374306-11.1647949 6.1442908-1.3300782 23.1957435-7.895752 26.3012733-8.5776368zm-57.6769448 6.7268066c-.1780396-.454834-.1698608-.7407227-.0956421-.9060059.1270142-.689209 4.4274292-4.2749023 8.9302368-6.1650391 2.3352661-1.0036621 4.5424194-1.4445796 6.5182495-1.1059566 10.3352051 1.5832515 13.4453735 16.2905273 18.8720703 22.802002.2974892.359375.5707436.6650391.8245888.9313965-6.672245-.0046387-13.326664.0686035-19.8505898.2399902-1.4918823.0400391-2.9614868.0893555-4.4387817.135498-1.2089843-1.8610843-9.9531249-13.8852542-10.7601318-15.9318851zm-21.196289 27.5219727c.7390747-1.6489258 1.7886963-3.1921387 3.1258545-4.2470703 1.3594971-1.0522461 3.1513672-1.7087402 5.178894-2.0600586 3.9840088-.7119141 24.1976318-1.5180664 28.2062988-1.6677246 3.4152222-.1252441 6.87323-.220459 10.3442993-.3022461-.2346191 4.8527832-.1208496 17.6101074-.0740967 25.6835938-19.2958984-.5266113-27.6730347-.1298828-39.75-.8818359-.7213135-.0554199-1.5462646-.0917969-2.1992798-.1635742-.300293-.0427246-.6113892-.0598145-.8943481-.145752-.2962646-.0551758-.5777588-.1420898-.8488159-.25-1.1079712-.3867188-2.0255737-1.1396484-2.7715454-2.1345215-.7194819-1.0224609-1.2531734-2.293457-1.5272822-3.7009277-.6207276-3.0678712-.2633057-6.80542 1.2100215-10.1298829z" fill="#202020"/></g></svg>