<svg id="Layer_1" enable-background="new 0 0 135 135" height="512" viewBox="0 0 135 135" width="512" xmlns="http://www.w3.org/2000/svg"><g><g><path d="m131.2679749 96.4831619c-1.8400879 5.5800781-9.3200607 6.7199707-15.3699875 6.8901367-24.5599365.6799316-49.1199951 1.3598633-73.6800537 2.0297852-5.119873.1401367-10.2299786.2800293-15.3499737.420166-6.4000244.1799316-12.829957.3498535-19.1999512-.3000488-1.1600342-.1201172-2.3900146-.3100586-3.2200928-1.0900879-.3099365-.2897949-.5200193-.6098633-.6599119-.9499512-.75-1.9299316 1.0400388-4.5200195 2.9399412-5.9599609 11.6900644-8.8200684 29.3400879-10.4499512 37.1999512-22.6101074 1.9901123-3.079834 3.6101074-7.8999023 5.8100586-11.989994 1.8601074-3.4599609 4.1201172-6.3999023 7.3701172-7.3498535 3.1398926-.920166 5.6699219-1.0700684 7.7500038-.6501465 4.75.9599609 7.1799316 4.880127 9.2598877 9.3501015 1.9901123 4.2900391 3.6600342 9.0800781 6.75 12.2800293 6.8699951 7.0700684 19.9901123 6.7299805 29.2800293 6.8400879 4.0999756.0397949 8.3399658-.1000977 12.25.9897461.7700195.2001953 1.5200195.4599609 2.2600098.7800293 4.4899768 1.9201659 8.109972 6.8000487 6.609972 11.3200682z" fill="#fff27f"/></g><g><path d="m74.1179581 64.273201c-6.0098877-.5600624-12.6300087.6799316-16.7899208 4.6298828-2.5200195 2.3901367-3.8100586 5.9301758-5.6501465 8.8300781-1.8498535 2.9101563-4.039917 5.6899414-6.4299316 8.1699219-4.8898926 5.0700684-10.8200684 9.0700684-17.3000469 11.8000488-7.0599365 2.9799805-14.6098642 3.2800293-21.8398438 5.5900879-.8500977.2700195-1.630127.3198242-2.3200681.1899414-.75-1.9299316 1.0400388-4.5200195 2.9399412-5.9599609 11.6900644-8.8200684 29.3400879-10.4499512 37.1999512-22.6101074 1.9901123-3.079834 3.6101074-7.8999023 5.8100586-11.989994 2.5100098-2.8100586 5.5400391-5.0200195 9.9100342-6.5600586 1.7000732-.5998535 3.4400635-1.0898438 5.2100868-1.4399414 4.749998.9599609 7.1799296 4.8801269 9.2598857 9.3501014z" fill="#fff6b6"/></g><g><path d="m131.2679749 96.4831619c-1.8400879 5.5800781-9.3200607 6.7199707-15.3699875 6.8901367-24.5599365.6799316-49.1199951 1.3598633-73.6800537 2.0297852.1000977-2.4399414 1.7000732-4.9499512 4.7700195-5.2797852 14.8500977-1.5600586 29.739994-.6101074 44.6400185-.9799805 7.4100342-.1801758 14.8900146-.6501465 22.1600342-2.2102051 3.4499512-.75 15.849968-4.8200684 10.0600586-10.1899414-.7900391-.7299805-1.25-1.5400391-1.4500732-2.3601074.7700195.2001953 1.5200195.4599609 2.2600098.7800293 4.4899786 1.9201661 8.1099738 6.8000489 6.6099738 11.3200684z" fill="#f9e975"/></g><path d="m6.9871864 107.3873749c10.6293659 1.1965485 111.3642883-1.0438614 118.859375-3.7773438 6.5777817-2.4340668 8.4614029-7.6506348 6.9193039-12.1291504-1.7248993-5.0209885-6.5125351-8.8566971-16.0327072-9.1035156-2.1171875-.0021973-3.5345459.1237793-4.5029297.2353516-1.9328613.2336426-2.0749512.4958496-2.0797119.7783203-.0046387.2797852.1402588.5532227 2.0701904.8068848.9624023.1315918 2.3724365.2390137 4.3803711.4526367 11.4953232 1.4454117 14.0603409 7.4399185 13.1867599 10.8308105-.6562347 2.4927368-2.7035904 3.9069748-5.1485519 4.7573242-1.3931885.4880371-2.9805908.7973633-4.6717529.9985352-.1002197.0119553-102.5228806 3.3512497-112.5073242 2.3205566-.543457-.0625-1.0081787-.1594238-1.3131104-.2873535-.916676-.3485641-.67519-1.229454-.1856689-2.0959473 3.1285696-5.5497437 21.1047287-10.9945679 29.7810059-16.4016113 5.8127785-3.4789886 9.0190315-7.6514969 11.1148682-11.9484863 2.1060333-4.4334946 3.8520126-9.6609001 6.7674561-13.170166 1.954319-2.1001282 2.3102303-2.0112953 3.8165283-2.7282715.5369873-.1557617 1.1063232-.3127441 1.6561279-.4462891 4.687542-1.0462723 8.3435555-.3335686 11.2192421 3.5373535 1.2635498 1.6750488 2.2287598 3.609375 3.1320801 5.5339355 4.7871475 10.2686844 7.093544 18.4746246 31.0263672 18.184082 3.6590576-.0703125 5.6724854-.2097168 5.675415-.3439941.0032959-.1467285-2.0196533-.2819824-5.6577148-.4765625-22.44207-1.3568344-23.960228-6.7183304-28.9686279-18.3000488-.8795166-1.9946289-1.8366699-4.0739746-3.2485352-6.0463867-2.6601028-3.7948837-6.2680893-5.3591728-10.6192665-5.1621094-.0449219-.1413574-.0878906-.277832-.1413574-.4404297-.2774658-.9348145-.8024902-2.4282227-.2563477-3.855957.2657471-.7158203.940918-1.5251465 2.1494141-2.5773926.5925331-.5280762 1.3095741-1.1188965 2.0828896-1.8933105 3.8138351-3.7879677 3.6619492-9.347271.815918-13.3308125-4.7155838-6.8023319-14.8183098-4.2739277-17.1063271 2.305666-.2305908.5222168-.2930908 1.0541992-.3937988 1.484375-.0296631.4555664-.0632324.8369141-.0354004 1.1499023.0864258.6315918.2030029.9536133.3431396.9528809.3399658.0119629.4123535-1.3134766 1.5054932-2.8811035.5180664-.7834473 1.2719727-1.6230469 2.2729492-2.3247089 3.4971924-2.4705753 8.1496811-2.2107201 10.3139648 1.4274921 1.5455437 2.497551 1.8082008 5.84235-.612793 8.3837891-.5780029.5991211-1.2359619 1.1743164-1.8820801 1.7849121-1.28125 1.1862793-2.5544434 2.6601563-3.0227051 4.3605957-.4801025 1.6865234-.2094727 3.1240234.1235352 4.1262207.2392578.7150879.5268555 1.2600098.8061523 1.7070313-.0344238.0068359-.0695801.0119629-.1037598.0187988-.6295166.1394043-1.2381592.2932129-1.8746338.4660645-2.2258987.893322-2.9831772 1.1821289-5.1900635 3.4960938-3.5211182 4.1669922-5.1789551 9.2006836-7.4171143 13.6791992-2.1047363 4.4169922-5.7077637 7.8786621-10.0599365 10.4509277-9.6078338 5.7839965-27.1148762 10.1787872-31.3044431 17.401123-2.0043206 3.5278473-.5591607 6.5036774 1.9829099 7.5124512.857544.359375 1.6407471.4851074 2.3352051.5776367z" fill="#202020"/></g></svg>