<svg id="Layer_1" enable-background="new 0 0 135 135" height="512" viewBox="0 0 135 135" width="512" xmlns="http://www.w3.org/2000/svg"><g><g><path d="m117.4614639 63.7172775c-8.9300537 6.2900391-18.460083 9.8398438-24.4500732 19.3901367-6.25 9.9697266-10.8398438 20.7397461-21.1098633 27.6499023-4.0400391 2.7299805-8.6601524 4.5600586-13.3901329 5.8598633-3.289917.9001465-7.2199707 1.630127-11.4299316 2.0700684-7.3800049.7600098-15.6599121.630127-22.9899902-1.0300293-6.0100098-1.3598633-11.3900156-3.7399902-15.1500254-7.5100098-1.22998-1.2399902-2.2799067-2.6699219-3.0899653-4.2099609-1.4200439-2.75-2.0400391-5.8601074-1.4200439-8.869873.5300293-2.5200195 1.8699951-4.7299805 3.7100825-6.5600586 2.5998535-2.5900879 6.2099609-4.3999023 9.8999033-5.1801758 4.3400879-.9199219 8.8601074-.6999512 13.2700195-1.2597656.1899414-.0300293.4000244-.0600586.5900879-.0900879.0200195 0 .0299072-.0100098.0499268-.0100098 1.0899658-.1401367 2.1400146-.3300781 3.1900635-.5500488 11.2399902-2.4299316 19.9599609-8.869873 27.4099121-16.8098145.1500244-.1501465.2900391-.300293.4399414-.4602051 4.3901329-4.7299805 8.3601036-9.9699707 12.1601524-15.1999512 3.6799316-5.0600586 7.3199463-10.1899414 11.3598633-15 .1800537-.2299805.3601074-.4599609.5600586-.6799316 1.9299316-2.2700195 3.9599609-4.460207 6.1400146-6.5300312 3.2399902-3.0800781 7.3499756-7.3701172 11.8800049-10.3000488 3.0100098-1.9499512 6.1999512-3.3100576 9.4499512-3.3100576 1.0400391 0 2.0800781.1401367 3.1201172.4401855.619873.1799316 1.2199707.3999023 1.7999268.6499014h.0100098c1.289917.5700684 2.4899902 1.3100586 3.5799561 2.1899414 2.3200684 1.8701172 4.1500244 4.3400879 5.3300858 7.0200195 5.780029 13.1499043 1.0100095 29.8798848-10.9200519 38.290041z" fill="#ee3c37"/></g><g><path d="m109.4791641 71.0614243c3.0530396 11.1795502 4.3360138 22.9068451 3.7782822 34.5360718-.1171951 2.4435959.2217407 5.6865692 2.474411 6.1450119 1.2518311.2547607 2.5097046-.6431656 3.1591034-1.8130875.6493988-1.1699295.8231888-2.5617371.9825745-3.910759 1.8477783-15.6394272 3.5556488-31.2976608 5.123291-46.9718666" fill="#726658"/></g><g><path d="m35.1415215 83.4172287c-.3901367 2.0800781-1.960083 3.8400879-4.7199707 3.6999512-9.5600586-.5-16.0500488 7.9599609-14.7401133 17.1501465.8199472 5.7399902 4.0500498 10.2199707 8.4100351 13.3898926-6.0100098-1.3598633-11.3900156-3.7399902-15.1500254-7.5100098-1.22998-1.2399902-2.2799067-2.6699219-3.0899653-4.2099609-.1700439-1.0600586-.2800293-2.1499023-.3300781-3.2600098-.1899414-4.3198242.7800293-8.4899902 2.6201167-12.1699219 2.5998535-2.5900879 6.2099609-4.3999023 9.8999033-5.1801758 4.3400879-.9199219 8.8601074-.6999512 13.2700195-1.2597656 1.3100586-.170166 2.5800782-.3901367 3.8300782-.6501465z" fill="#f44747"/></g><g><path d="m123.0514297 18.407217c-.0400391.880127-.1799316 1.7199707-.4099121 2.4899902-.4300537 1.4602051-1.1000977 2.8200684-1.9400635 4.0700684-1.8699951 2.75-4.5699463 5.0100098-7.4000244 6.8398438-4.1099854 2.6401386-8.6298828 4.6201191-12.5799561 7.5102558-9.2200928 6.7597656-13.0400391 17.6098633-18.8699951 26.9897461-5.7299805 9.2402344-13.2399902 17.2802734-22.300045 23.300293-1.4599609.9697266-3.0400391 2-4.7099609 2.9399414-.2399902.1699219-.5200195.3198242-.8200684.4599609-4.619873 2.5-9.7800293 4.25-14.7800293 2.6499023-5.369873-1.7299805-8-6.6499023-7.3398438-11.6799316.0100098-.1501465.0299072-.3000488.0599365-.4499512 1.1199951-.1501465 2.2000732-.3400879 3.289917-.5700684 11.1000977-2.4001465 19.8200684-8.6101074 27.3000488-16.3498535.1500244-.1501465.2900391-.300293.4399414-.4602051 4.9400597-5.1799316 9.3500938-11.0100098 13.5700645-16.829834 3.25-4.4799805 6.4699707-9.0300293 9.9499512-13.3701172.1800537-.2299805.3601074-.4599609.5600586-.6799316 1.9299316-2.2700195 3.9599609-4.460207 6.1400146-6.5300312 3.2399902-3.0800781 7.3499756-7.3701172 11.8800049-10.3000488 3.0100098-1.9499512 6.1999512-3.3100576 9.4499512-3.3100576 1.0400391 0 2.0800781.1401367 3.1201172.4401855.619873.1799316 1.2199707.3999023 1.7999268.6499014h.0100098c1.2899171.5700684 2.4899903 1.3100586 3.5799561 2.1899414z" fill="#918383"/></g><g><path d="m117.4614639 63.7172775c-8.9300537 6.2900391-18.460083 9.8398438-24.4500732 19.3901367-6.25 9.9697266-10.8398438 20.7397461-21.1098633 27.6499023-4.0400391 2.7299805-8.6601524 4.5600586-13.3901329 5.8598633-3.289917.9001465-7.2199707 1.630127-11.4299316 2.0700684.3200684-2.1999512 1.9199219-4.1999512 4.7600098-4.2600098 11.2099609-.2600098 21.0999718-6.6000977 26.0999718-16.6201172 2.6400146-5.3098145 4.4200439-10.9697266 7.5799561-16.0297852 2.8601074-4.5600586 6.5100098-8.5200195 10.6900635-11.9001465 8.4500351-6.8398094 19.1198883-11.7299309 25.5798569-20.7498589 3.4259872-4.783638 4.6113205-10.5646248 2.95578-16.2431526-.8003922-2.7453499-2.6471024-4.6661873-3.7242813-7.153286-.7337341-1.6941128-.4227295-5.7436562 1.9983292-6.2439098 2.2278366-.460331 4.7168274 4.4787693 5.3603668 5.9402542 5.7800291 13.1499044 1.0100096 29.8798849-10.9200518 38.2900411z" fill="#e22b2b"/></g><path d="m127.7307205 21.1231995c-1.6816406-2.2851563-3.6379395-3.9909668-5.6118164-5.1311035-1.9807129-1.1462402-3.8959961-1.7827148-5.7099609-2.0112305-1.798584-.2126465-3.3515625-.005127-4.6152344.300293-2.5301514.6623535-4.0123291 1.5976563-4.9901123 2.2285156-1.916748 1.3405762-1.8537598 1.7109375-1.7171631 1.9299316.1591797.2573242.4283447.3171387 2.4598389-.5292969 1.0195313-.3852539 2.5031738-1.0336914 4.7015381-1.3979492 1.0953369-.161377 2.3707275-.2265625 3.7789307.0305176 1.3822021.2585449 2.9981689.8808594 4.5869141 1.9040527.4702148.2993164.9372559.6530762 1.4003906 1.0351563-.3100586.7832031-.8166504 1.7751465-1.7802734 2.986084-3.9584656 4.8620644-10.6059341 5.4956074-21.9943848 16.302002-14.3357621 13.7708091-15.3597947 23.9026336-23.5078126 34.3049316-6.2983322 8.1423187-22.4862099 22.0297699-31.9279747 22.3693848-7.1399498.3157883-11.0059528-4.5677185-10.0115967-9.3996582.0516357-.2373047.1119385-.4482422.1745605-.6469727 27.5323792-4.6048203 39.7973671-31.509594 54.7355919-49.6369629 8.4594345-10.2893791 17.4584808-17.207756 17.3842773-17.3212891-.5039902-.7914543-11.9860229 8.7570572-18.59021 16.2924805-15.4078291 17.5235367-28.5197867 45.2175751-56.2995585 47.8813476-2.9006348.282959-5.9433594.2797852-9.0899658.59375-11.2373648 1.0311737-20.6719561 8.8693238-18.3166499 19.5856934 2.9133482 12.5041351 17.9910183 17.3505402 30.8584003 18.123291 28.6835899 1.7157745 43.3966789-8.3906784 52.5279503-22.5107422 2.1092529-3.2294922 3.9205322-6.4343262 5.6959229-9.4697266.885376-1.5229492 1.765625-2.9958496 2.6503906-4.4274902.4428711-.7114258.8846436-1.3349609 1.3282471-1.9934082.4954834-.6103516.9316406-1.2578125 1.4593506-1.8269043 2.0273438-2.3430176 4.3381348-4.3222656 6.7824707-6.0400391 1.755127-1.2370605 3.5443115-2.3769531 5.3242188-3.480957-.3406219 1.4511414 3.4001617 15.2176208 2.1638184 34.088623-.0643311.9038086-.0866699 1.9213867.0119629 2.9272461.1204834 1.0192871.2954102 2.0952148.9506836 3.2438965.333374.5651855.8192139 1.145752 1.4904785 1.5708008.6812744.4040527 1.4320068.6308594 2.2525635.6208496 1.637207-.0615234 2.8024902-.927002 3.6103516-1.8527832.8400879-1.0019531 1.2265625-2.0878906 1.480957-3.0703125.6613846-2.667923 5.1445007-43.138855 4.862793-51.1633301.9575195-1.3466797 1.8139725-2.7165527 2.5014725-4.1237793 2.2138672-4.3022461 3.3538818-8.6694336 3.6976318-12.7268066.7401727-8.3312912-1.6964118-15.4367962-4.7089927-19.5581054zm-10.7181396 88.2419433c-.2905273.3798828-.6953125.5876465-.8352051.5837402-.0551758.0114746-.175293-.0209961-.2567139-.0490723-.0765381-.045166-.1877441-.1386719-.3117676-.3242188-.2542725-.3740234-.4544678-1.0710449-.5566406-1.796875-.3992233-2.9857178.8614807-14.8435593-3.1536865-29.9702148-1.0461426-3.9821777-2.0217285-6.4516602-2.3547363-6.7209473 3.1292725-1.9382324 6.2260742-3.7653809 9.0512695-5.7946777 1.6470947-1.2209473 3.1520996-2.5297852 4.4968262-3.9191895-3.4694062 20.8065721-4.4875489 46.0708314-6.0793457 47.9914552zm11.8632889-69.0334472c-.3636475 3.6279297-1.4439774 7.5332031-3.4649734 11.348877-.9654541 1.9313965-2.267334 3.7722168-3.7402344 5.5656738-1.5047607 1.7758789-3.3056641 3.3911133-5.3171387 4.8681641-4.2380371 3.0090332-9.3272705 5.6323242-14.5690918 9.2792969-2.6131592 1.8203125-5.2138672 4.0100098-7.5238037 6.6665039-.5970459.6452637-1.1055908 1.3798828-1.6672363 2.0769043-.5014648.7314453-1.0375977 1.4956055-1.4993896 2.2348633-.9171143 1.4753418-1.8236084 2.9851074-2.7176514 4.5158691-7.5738373 12.8325653-16.1769638 32.1757355-54.4880333 30.1462402-10.9292545-.5642471-25.0245819-4.4022141-27.609621-15.0490723-1.9710464-8.6298141 6.1428065-14.5617142 15.1774902-15.5332031 2.9204102-.3337402 5.9638672-.3718262 9.0654297-.7126465.5415039-.0593262 1.0780029-.1416016 1.6152363-.2209473-.0435791.0961914-.088501.1835938-.1303711.2885742-2.1081219 5.2320099 2.3037033 11.8157578 10.8291016 11.9145508 10.6027756.1914444 27.8490791-13.6932678 34.8321495-22.3095703 8.9076614-10.8720322 9.4309921-20.1003609 23.34375-33.7722168 11.2625504-10.9277363 17.8609543-11.663868 21.5583496-17.4875488.6710205-1.0390625 1.071167-1.994873 1.3206787-2.8366699.4405518.5039063.8710938 1.0366211 1.2772217 1.6264648.6781006.9943848 1.3013916 2.0981445 1.7945557 3.3486328 1.4877851 4.0354195 2.541847 8.0626755 1.9135817 14.0412598z" fill="#202020"/></g></svg>