<svg id="Layer_1" enable-background="new 0 0 135 135" height="512" viewBox="0 0 135 135" width="512" xmlns="http://www.w3.org/2000/svg"><g><g><path d="m123.7883453 83.8088989c-11.4500122 8.9599609-26.7399902 17.4199219-40.6499634 21.6699219-7.710022 2.3500977-18.75 3.9699707-26.2300377-.1799316-6.1999512-3.4399414-7.1799927-12.880127-8.7399902-19.0500488-4.6199951-18.3300781-9.7099609-36.7700195-20.6599751-52.4899902-3.2300415-4.6398945-7.4400024-8.7399921-12.5900269-11.0900898-1.8999634-.869873-3.8999634-1.4897461-5.7099609-2.5297852-1.8600459-1.0700684-3.1300044-2.6801758-3.7200313-4.2900381-1.1300049-3.1000977.2999878-6.1801758 5.1099849-5.3300781 7.2399902 1.2700195 14 5.1201172 19.9100342 9.3100576 3.9599628 2.7998047 6.3599873 5.5800781 8.5999775 9.7900391 6.0499878 11.3598652 11.0300293 23.2797871 14.8800049 35.5600586 2.7600098 8.8098145 2.9799805 23.7998047 14.590023 25.5898438 2.7699585.4299316 5.6099854-.0500488 8.3399658-.6899414 13.6900024-3.2399902 25.9199829-10.7299805 38.8500366-16.2800293 2.1300049-.9099121 4.4499512-1.7800293 6.7199707-1.8300781 1.0200195-.0300293 2.0100098.1000977 2.9799805.4699707 6.8600465 2.6101092 1.6800538 8.7402361-1.6799926 11.3701189z" fill="#939598"/></g><g><path d="m127.0883331 57.5488892c-2.1499634 12.6999512-11.5499878 15.4799805-21.6599731 20.6499023-8.1199951 4.1601563-16.8699951 7.6799316-25.9899902 7.7800293-3.2000122.0400391-5.8300171-1.6899414-8.039978-4.1699219-3.3500366-3.7299805-5.7700195-9.1499023-7.8500328-12.7700195-8.1400146-14.1999512-10.5999756-30.1899414 4.2299767-41.1401367 6.8500366-5.0598145 15.2200317-7.5297852 23.4100342-9.8999023 3.7399902-1.0898438 7.6300049-2.1899405 11.4899902-1.6599121 1.4899902.1999512 2.8499756.5500488 4.1099854 1.0397949 9.4100342 3.5400391 12.6500244 14.1601563 16.0100098 23.2700214 2.0300291 5.4999981 5.3200071 10.880125 4.2899778 16.9001446z" fill="#f3bd8e"/></g><g><path d="m106.7883453 17.3787212c-12.1799926 3.6501465-24.1300048 11.5200196-32.1099853 20.9902363-8.7999878 10.4399414-9.210022 25.8398438-2.1400146 37.2399902 1.5300293 2.4599609.6300049 4.829834-1.1399536 6.1999512-3.3500366-3.7299805-5.7700195-9.1499023-7.8500328-12.7700195-8.1400146-14.1999512-10.5999756-30.1899414 4.2299767-41.1401367 6.8500366-5.0598145 15.2200317-7.5297852 23.4100342-9.8999023 3.7399902-1.0898438 7.6300049-2.1899405 11.4899902-1.6599121 1.4899901.1999492 2.8499755.5500468 4.1099852 1.0397929z" fill="#ffcba4"/></g><g><path d="m123.7883453 83.8088989c-11.4500122 8.9599609-26.7399902 17.4199219-40.6499634 21.6699219-7.710022 2.3500977-18.75 3.9699707-26.2300377-.1799316-6.1999512-3.4399414-7.1799927-12.880127-8.7399902-19.0500488-4.6199951-18.3300781-9.7099609-36.7700195-20.6599751-52.4899902-3.2300415-4.6398945-7.4400024-8.7399921-12.5900269-11.0900898-1.8999634-.869873-3.8999634-1.4897461-5.7099609-2.5297852-1.8600459-1.0700684-3.1300044-2.6801758-3.7200313-4.2900381.7999878-.2299805 1.710022-.2299805 2.7100215.0698242 17.039978 5.1701651 27.9299946 19.5500488 35.2399902 35.0600586 4.0899658 8.6699219 7.5 17.6801758 10.1400146 26.8999023 2.4400024 8.5102539 3.3399658 17.5800781 6.1399536 25.9702148 11.8200035-1.0900879 23.8900108-5.1899414 34.4999962-10.1801758 10.8099976-5.079834 20.9100342-11.9599609 28.1700439-21.579834.0299683-.0400391.0599976-.0800781.0999756-.1201172 1.0200195-.0300293 2.0100098.1000977 2.9799805.4699707 6.8600485 2.6101085 1.6800558 8.7402354-1.6799906 11.3701182z" fill="#888a8c"/></g><g><path d="m67.4568024 123.2489319c-4.0407066 1.9164276-9.07798 2.2235336-14.7616882-.1174545-21.0169334-8.656395-9.8241882-39.4605865 11.5770645-33.6501694 18.829544 5.1122284 16.089363 27.6471634 3.1846237 33.7676239z" fill="#d1d3d4"/></g><g><path d="m63.1911392 114.241188c-1.829113.8675079-4.1093369 1.0065231-6.6821899-.0531693-9.513752-3.9185028-4.4471207-17.8626633 5.2406006-15.23246 8.5235901 2.3141633 7.2831878 12.5150681 1.4415893 15.2856293z" fill="#a7a9ac"/></g><g fill="#202020"><path d="m40.0501556 104.0512466c-.6425171 4.2666016.2325439 8.7412109 2.3910522 12.2297363 3.6466064 5.9786987 10.7796478 9.2926483 17.2386475 9.2785645 2.5822144-.0080566 4.6157227-.583252 5.9119263-1.1416016 1.3042603-.5632324 1.9204712-1.0561523 1.8649902-1.1691895-.0653076-.1396484-.7976074.0998535-2.1137695.3869629-1.3115234.2856445-3.2419434.565918-5.5899658.3400879-5.5464859-.5357361-11.8660355-3.7176132-14.8175049-9.1337891-1.6498413-2.9912109-2.2197876-6.7099609-1.5493774-10.2661133.6341553-3.5571289 2.4030151-6.9245605 4.8704834-9.3752441 2.4534302-2.4960938 5.6339111-3.8869629 8.6848755-4.3024902 3.0829468-.3581543 6.0180664.203125 8.4675293 1.0773926 4.4534302 1.5944824 7.50354 4.5114746 8.9540405 7.6882324 1.5054932 3.170166 1.6569214 6.378418 1.329895 9.0102539-1.0528564 8.295723-6.9311981 12.402977-7.9176636 13.5114746-.4995117.5383301-.4407349.8103027-.3185425 1.0632324.1221924.2531738.2767944.4746094 1.0668335.3344727.4038086-.057373.9411011-.2519531 1.7006226-.6159668 4.2461243-2.1607285 8.1285629-7.3172684 9.1811523-13.7460938.0367432-.2307129.0631714-.4743652.0934448-.7133789.7846069-.1738281 1.5706177-.3601074 2.359375-.5715332 3.4750366-.9631348 6.9223022-2.1655273 10.4428101-3.5822754 9.5408936-3.8606491 34.1821518-16.5382843 37.9390869-25.2873535.1787109-.3815918.2932739-.8483887.4291992-1.2744141.8025818-5.1965561-3.4917984-7.9125137-8.0924072-7.8215332-.4868164.0134277-.9594727.0571289-1.4241943.1171875 3.2842941-3.053421 5.3944855-6.9636421 5.9206543-11.4628906.0799561-.6975098.0879517-1.0654297.0186768-1.0771484s-.2144165.3325195-.4260254.9907227c-.0994873.3295898-.2223511.7365723-.3674927 1.2172852-1.4371109 3.7744484-3.0210571 7.0109634-7.1735229 10.0195313-.6237793.4724121-1.3074341.9187012-2.0159912 1.3562012-1.2587891.4655762-2.4532471 1.005127-3.6051025 1.5087891-14.389534 6.401062-17.4326248 9.494751-27.5654907 11.2490234-1.7149048.282959-3.4591675.4697266-5.21875.5378418-.5711746-.2123642-3.9911041 1.2109451-8.3903809-4.0383301-1.1212158-1.3391113-2.1170654-2.8532715-3.0477295-4.4348145-5.5038948-9.3378906-11.1958466-20.225071-10.1554565-30.1948242.3288574-3.2749023 1.3904419-6.326416 3.0014648-8.9328613 6.4282913-10.3308697 19.899292-14.1803513 31.7376099-17.4975586 4.3690948-1.2038059 10.1674042-2.063076 14.5275269.9714355 2.5256958 1.4758301 4.4360962 3.5612793 5.9196167 5.7382813 3.9572678 5.8221092 11.6617661 26.4189072 12.147644 29.9746094.1333618 1.326416.342041 1.4907227.6320801 1.534668.2634277.041748.5844727.0080566.9504395-1.4416504.1697388-.7263184.2959595-1.8251953.1747437-3.4140625-.2160034-2.6547508-6.3912735-22.0002327-10.7833862-28.736084-5.8847733-8.9828787-14.2145996-11.3158484-24.6259155-8.5114737-13.0100403 3.5768576-27.0675888 7.776742-34.0926514 19.3144531-1.8878784 3.1037598-3.1235352 6.7949219-3.4602661 10.6228027-.3552246 3.8317871.125 7.7453613 1.1390991 11.4909668 2.0846176 7.7036743 9.6194458 21.2429199 13.4624023 25.645752 4.9093628 5.5900803 8.9907379 4.8279648 9.5712891 4.9831543l.0523071-.0021973c-2.9318848.8225098-5.9235229 1.6367188-8.7246704 1.6411133-1.7834244.0072021-5.6760483-1.0891266-7.5322266-2.9311523-5.02211-5.012207-5.092144-14.1183624-9.309082-26.3161621-3.3779373-9.7330093-12.5543976-33.4264145-21.3469238-40.0534668-6.0254841-4.4682446-13.7689857-8.8375731-21.2164288-10.1652822-.574585-.1311035-1.2485352-.171875-1.8793945-.2341309-4.5250235.1444778-6.1246214 2.9712105-4.7737432 6.6464834.4111328 1.1057129 1.0379639 2.0727539 1.7998657 2.8583984 3.0418286 3.6379967 8.6476898 2.6698551 16.2633667 9.7646484 3.2174683 3.0666504 4.6009521 5.1677246 4.7525024 5.0515137.0508423-.0354004-.2312622-.5959473-.8982544-1.5810547-.6707764-.9804688-1.7067261-2.407959-3.2762451-4.0532227-7.1895008-7.534235-12.6737823-6.670723-15.6685791-10.2485352-.6165161-.6689453-1.1009521-1.4853516-1.3939209-2.3542471-1.0538144-3.0607491.8525329-4.9381886 4.7033086-3.9445801 7.0272236 1.4290581 14.4187641 5.8054838 20.0910034 10.1828604 8.078001 6.3560772 16.8691273 30.1216927 19.8681622 39.1420898 3.8018112 11.4822464 2.6123352 11.2945404 4.8710327 18.5759277 1.0800972 3.1648102 1.3465462 4.0567322 3.213623 7.0664063.0437622.0783691.1060791.1477051.15802.2224121-.9065552-.0039063-1.8353882.0488281-2.7817993.1760254-1.9191895.2819824-3.8762817.8962402-5.7196655 1.826416-.0256348-.1137695-.0531006-.2294922-.0787964-.3427734-2.3048706-9.4714355-4.5186157-17.2114258-6.6670532-23.7097168-3.2409286-9.6900673-7.9934502-21.1893616-14.3416119-29.2685547-1.5332031-1.8601074-1.8479614-1.8493652-2.0792236-1.6894531-.2313232.159668-.3502197.4643555.7528687 2.5576172 3.3047466 6.6509018 7.2855511 12.7980499 12.4525738 29.4326172 1.9625244 6.3859863 4.0661011 14.213623 6.2172852 23.4821777.1222534.5654297.2493896 1.1538086.3760376 1.7387695-.6077881.496582-1.196167 1.0214844-1.7369995 1.6030273-2.9566043 3.1030265-4.9234622 7.2011711-5.5249637 11.4755851zm40.6671753-13.0861816c3.1572876-.8942871 6.2295532-1.9768066 9.2094116-3.1760254 8.8437119-3.5609512 16.5880966-7.780632 25.1694946-11.5400391 2.6812134-1.1928711 5.2453613-2.2680664 7.5276489-2.2888184 3.5236588-.1096115 5.4068146 1.6480331 3.1049805 4.935791-4.8101044 6.8929901-26.7619934 18.3732986-34.947937 21.7023926-3.3795166 1.3696289-6.7401123 2.5456543-9.9744263 3.4519043-.401001.1088867-.7998657.203125-1.1992188.3005371-.1548462-2.0205078-.6273804-4.1789551-1.6318359-6.3808594-.8850098-1.9289551-2.2076416-3.8461914-3.9802856-5.4887695.6473389-.0910645 1.2875366-.1970215 1.9127197-.3234863 1.6453858-.3388671 3.225464-.7490234 4.8094483-1.1926269z"/><path d="m63.2524261 97.3259048c-1.4122314-.5615234-3.2386475-.8710938-5.2247314-.5983887-7.0065498 1.0643082-10.3187294 9.4208069-6.8408813 14.7570801 1.8745689 2.9613037 5.5786705 4.3909607 8.4650269 4.2358398 1.232605-.067627 2.1810303-.4086914 2.7633667-.736084.5869751-.3305664.8340454-.6230469.7758789-.7431641-.1027451-.2411652-6.9678802 1.0486908-9.5106201-4.1970215-1.7951851-3.5903702.4675789-8.8057709 4.8931885-9.3642578 1.164978-.1086426 2.3286133.0751953 3.2913208.4748535 3.6329346 1.2558594 4.2253418 4.2883301 4.0341187 6.3361816-.2629395 2.1174316-1.0730591 3.4553223-1.6571655 4.2607422-.3032837.4001465-.5466309.7214355-.7255859.9882813-.1990967.236084-.322937.4431152-.3925171.6245117-.1404419.3647461-.0549316.6235352.0672607.876709.1221924.2529297.2501221.4873047.6802368.5212402.2156982.0163574.5092163-.0185547.920166-.1359863.3864136-.1462402.8815308-.4001465 1.4721069-.8239746 1.1436157-.8583984 2.6968384-2.5761719 3.3480835-5.7661133.8186187-4.8362349-1.7270585-9.1206435-6.3592531-10.7104491z"/></g></g></svg>