<svg id="Layer_1" enable-background="new 0 0 135 135" height="512" viewBox="0 0 135 135" width="512" xmlns="http://www.w3.org/2000/svg"><g><g><path d="m102.8952942 102.2615738c-.01091.2354279-.01091.4703369-.0218201.694809-.1307755 5.0249557-4.0214615 7.6334839-7.8576736 10.509285-5.3510208 4.0091095-10.7238617 8.0077744-16.2711105 11.7496109-3.770752 2.5338821-7.09478 5.4415207-11.8682251 5.3345108-7.2037392-.1707001-14.4402084-1.5180359-21.6766052-1.7853088-7.0621223-.2672729-14.1241798-.3205109-21.1753273-.6306-3.4003201-.1498108-11.5957727.35289-14.3530664-1.9993286-1.1878748-1.0158463-1.5039663-3.3785095-1.4821491-5.9974747.0327272-3.335701.6212091-7.0879822.6430273-8.9484558.0871382-7.2696381.1743431-14.5502396.2724562-21.8308411.0653877-4.5650558-1.166122-10.797966.8173704-15.0743484.4795265-1.058136 1.1660566-1.9883728 2.1142664-2.7583542 5.5907507-4.5008469 11.5194101-8.6060066 17.7096863-12.2731895 4.4137859-2.6194916 8.7840023-5.9656372 13.9388599-7.0237694 5.3401794-1.1014595 10.7130165-.8232231 16.1403351-.5027046 7.0511475.4275322 14.0805435 1.1333046 21.0663681 2.1277504 6.1139145.8660316 15.2139435.064209 18.7886047 4.8427734.9154129 1.1975098 1.4712372 2.7473869 1.5475311 4.7681236.3487549 9.1624794 1.1879425 18.4956627 1.5366974 27.7536736.1416158 3.6990279.2070683 7.3876113.1307744 11.0438384z" fill="#e0a53d"/></g><g><path d="m102.8952942 102.2615738c-.01091.2354279-.01091.4703369-.0218201.694809-.1307755 5.0249557-4.0214615 7.6334839-7.8576736 10.509285-5.3510208 4.0091095-10.7238617 8.0077744-16.2711105 11.7496109-3.770752 2.5338821-7.09478 5.4415207-11.8682251 5.3345108-7.2037392-.1707001-14.4402084-1.5180359-21.6766052-1.7853088-7.0621223-.2672729-14.1241798-.3205109-21.1753273-.6306-3.4003201-.1498108-11.5957727.35289-14.3530664-1.9993286-1.1878748-1.0158463-1.5039663-3.3785095-1.4821491-5.9974747.7410746-.3210449 1.6238317-.4813004 2.6482716-.4061356 9.6667585.694809 19.3335152 1.3896179 29.0111809 2.0844269 8.6968651.6201553 18.1129189 2.0097733 26.6571884-.3847275 8.8929596-2.5015182 16.2711029-9.6004562 22.6902008-15.8119659 4.7407227-4.5864563 9.187233-9.4615936 13.5683594-14.4009399.1416176 3.6990279.2070701 7.3876113.1307762 11.0438384z" fill="#d69834"/></g><g><path d="m99.6802902 58.6959381c-1.7546082 1.6678505-3.5310287 3.39991-5.3401794 5.0891647-3.1822739 2.9614105-6.4844818 5.7944107-10.059082 7.9430466-5.013176 3.0042191-10.6476288 3.132637-16.2711029 2.8225555-1.2968979.4489365-2.5174942.299118-3.5637589-.224472-.087204-.0109558-.1743393-.0214005-.2615433-.0214005-13.7317924-.9406815-27.6053314-2.3094101-41.3480301-1.2721634-3.4983673.2563171-6.9966698.6843719-10.484128 1.3040085-.8827572.1607819-1.6892185.128418-2.4302931-.0532455.4795265-1.058136 1.1660566-1.9883728 2.1142664-2.7583542 5.5907507-4.5008469 11.5194101-8.6060066 17.7096863-12.2731895 4.4137859-2.6194916 8.7840023-5.9656372 13.9388599-7.0237694 5.3401794-1.1014595 10.7130165-.8232231 16.1403351-.5027046 7.0511475.4275322 14.0805435 1.1333046 21.0663681 2.1277504 6.1139117.8660316 15.2139407.064209 18.7886019 4.8427734z" fill="#ffb64d"/></g><g><path d="m99.6802902 58.6959381c-1.7546082 1.6678505-3.5310287 3.39991-5.3401794 5.0891647-15.2902374-4.2017326-32.6075974-5.8481827-48.1485405-2.0207367-7.5634003 1.8709183-14.3966351 6.4573746-21.1753254 10.1136017-.7192554.3847275-1.4494877.7699738-2.1796532 1.1547012-3.4983673.2563171-6.9966698.6843719-10.484128 1.3040085-.8827572.1607819-1.6892185.128418-2.4302931-.0532455.4795265-1.058136 1.1660566-1.9883728 2.1142664-2.7583542 5.5907507-4.5008469 11.5194101-8.6060066 17.7096863-12.2731895 4.4137859-2.6194916 8.7840023-5.9656372 13.9388599-7.0237694 5.3401794-1.1014595 10.7130165-.8232231 16.1403351-.5027046 7.0511475.4275322 14.0805435 1.1333046 21.0663681 2.1277504 6.1139136.8660316 15.2139426.064209 18.7886038 4.8427734z" fill="#ffc578"/></g><g fill="#202020"><path d="m107.8131485 27.6722107c-15.6529236-8.7585964-45.8553238-8.7165337-60.8975258-7.0966797-2.3552856.2802734-3.9435425.5356445-5.0280151.7709961.2477417-.2539063.5117188-.5092773.7868652-.7607422 2.5163574-2.2724609 5.104126-4.2587891 7.1162109-5.7382813 6.2248917-4.5180969 10.7364235-6.6919069 13.7993774-8.6235352 2.0614052-1.293457 1.9821815-1.784668 1.7670937-2.3125-.2088623-.5131836-.4902344-.9760742-2.9286537-.3222656-1.2183838.3295898-2.9683228.9667969-5.4489136 2.1572266-2.4729614 1.1982422-5.6785889 2.9721684-9.5931396 5.8139653-2.1400146 1.5756836-4.7592163 3.7270508-7.3328247 6.3398438-.6516724.6811523-1.3208008 1.4121094-1.9271851 2.3417969-.5965576.902832-1.1496582 2.1611328-1.0963135 3.5058594.0343628 1.3320313.5359497 2.4384766 1.0657959 3.3100586.5441284.8789063 1.1435547 1.6240234 1.7532349 2.2939453 2.453125 2.7158203 5.3022461 4.4213867 7.449585 5.2944336 2.163269.878418 3.6080322 1.0039063 3.6869507.7558594.0974731-.2832031-1.147583-.9179688-2.9353027-2.1518555-1.7814331-1.2265625-4.1005859-3.1298828-5.9735107-5.7231445-.9263306-1.2651367-1.7902832-2.7856445-1.6697998-3.7568359.0004883-.168457.048645-.3500977.117981-.5371094.9086304.1845703 2.7540283.2739258 6.5622559.2172852 18.1298409-.0676041 44.0685234-.3112125 58.8021278 7.7172852 22.9368973 12.2846947 26.4171982 42.7861252 6.7221069 56.1523438-2.6054688 1.7744141-5.0139771 2.7128906-6.7015381 3.2871094-.7591553.2192383-1.3651733.3896484-1.8134155.527832-.0048828-1.1274414-.0220337-2.3657227-.0549927-3.7304688-.1586914-6.7277679-.7029495-15.0623169-.956604-22.4130859-.039978-.8251953-.0216064-1.5952148-.1278687-2.6508789-.1806488-1.6319199-.6990585-3.2203064-1.663147-4.5654297-.3394165-.4516602-.7310791-.8935547-1.1326904-1.3115234-.8604736-.7749023-1.8267212-1.4707031-2.8580933-1.9199219-4.7713547-2.2791252-35.6962852-4.7208328-35.8015785-4.7280273-2.8296509-.1826172-5.7439575-.378418-8.8474121-.4003906-3.0982056-.0058594-6.3500366.1601563-9.7121582.8984375-7.6275978 1.6895714-24.9936752 13.9881973-30.7606182 18.5488281-.4581909.3662109-.918457.7338867-1.3807983 1.1030273-.567749.4609375-1.0944214.9980469-1.5471191 1.5917969-.9179688 1.2050781-1.4811406 2.5571289-1.835999 3.8969727-.1632948.6423798-.9400101 46.1287231-.9360352 46.2099609.3812194 4.8472595 1.7148919 6.3171921 5.4207768 7.3134766 3.7216349.8864594 4.0216026.5893555 31.0122662 1.1591797 7.7070923.0259399 19.1220703 1.7774506 24.6596107 1.5800781 1.2131348-.0556641 2.4031372-.2993164 3.5062866-.6816406 4.7988815-1.6676636 28.3319321-19.2417068 30.680542-23.2036133.9884644-1.6274414 1.2287598-3.1279297 1.2631836-4.09375.0157471-.9799805-.0661011-1.4692383-.1289673-1.4765625-.0767822-.0083008-.1363525.5078125-.2849731 1.4316406-.1669922.9155273-.5217896 2.265625-1.5369873 3.690918-2.3487549 3.3694534-26.0414352 19.6100998-29.7824097 21.1342773.2577515-.3417969.5332642-.9575195.8464355-2.0483398 2.6159973-9.5791321 4.0079803-34.4372101 2.1266479-48.2456055.5458374.0268555 1.0958252.0410156 1.6549072.0332031 1.0747681-.0170898 2.1685791-.1274414 3.2318115-.394043 1.0584717-.2680664 2.0443726-.6679688 2.909668-1.1489258 3.3149414-1.8350525 12.8262787-11.6999512 14.5701904-13.612793 1.007019-1.1044922 1.6589355-1.8984375 2.072876-2.4858398.0299683.059082.0737305.1113281.1011963.1713867.2838745.6040039.4605103 1.2768555.5509644 1.980957.0845337.6513672.1005859 1.5649414.1519165 2.3798828.177063 3.3022461.3936157 6.3012695.6004639 9.0302734.4303589 5.4414063.7775269 9.8300781 1.0575562 13.3701172.5371704 7.0620117.7232056 10.7304688.9642334 12.644043.2185059 1.9125977.484436 2.0634766.7655029 2.0688477.2811279.0053711.5507813-.1289063.8197021-2.0566406.192749-1.5058594.3882446-4.1269531.3823242-8.6103516.4812622-.0166016 1.151062-.0732422 2.0073853-.1899414 1.8128662-.3325195 4.4451904-1.0678711 7.3503418-2.7421875 21.9700546-12.608544 19.7544784-46.9813162-5.6417847-60.990235zm-38.5300903 98.4150391c.0202637 2.4775391.4810791 2.7182617 1.0157471 2.8027344-.90979.2832031-1.8497314.4501953-2.8088989.4711914-5.2514877.0825806-16.0592613-1.9186707-24.4657631-2.1020508-26.8200417-1.0309525-17.613203-.6862106-22.914793-.809082-2.5380859-.0625-5.123291-.1640625-7.354126-.7397461-1.0612183-.2856445-2.1156006-.7705078-2.2002563-1.2094727-.359314-.6337891-.5546875-1.8427734-.5950317-3.0126953-.0037498-.1001816 1.2419052-44.9174881 1.2688599-45.0180664.2126465-.7827148.5165405-1.4975586.899231-2.0961914 10.1640911.6776047 24.4001217.4291992 57.4047241 3.4521484 1.1478271.0917969 2.2620239.2133789 3.3792725.3051758-.011679.105072-3.6599791 46.4948196-3.6289656 47.9560547zm25.381958-65.0898438c-7.2638092 5.7630844-11.6096573 10.6803436-14.5007935 12.206543-1.2471313.6621094-2.5704956.9980469-4.3041382 1.0024414-1.8400269.023819-35.4189606-3.6781616-62.7504272-.9726563.0648804-.0571289.1245117-.1186523.1924438-.1733398.4501343-.3549805.8983154-.7084961 1.3443604-1.0605469 3.5908203-2.8056641 7.1782227-5.3393555 10.675293-7.6113281 15.0661106-9.7756805 17.3520412-10.9280777 27.3170147-10.9213867 8.250061.0345764 37.6561241 3.1482162 37.7594032 3.1611328 1.9864502.2441406 3.8390503.6210938 5.3099365 1.3120117.661377.2983398 1.2259521.6660156 1.7130737 1.0795898-.6248188.3647461-1.4964008.9780274-2.7561664 1.9775391z"/><path d="m41.3730812 109.337738c-.059082-.9389648-.2869263-2.3666992-1.2449341-4.2407227-.4829712-.9301758-1.1621094-1.9648438-2.1538696-3.0019531-.9854736-1.0375977-2.3098145-2.0664063-4.0440674-2.8339844-1.8850098-.8422852-4.579649-1.3242188-7.3273907-.8041992-1.3661499.2558594-2.7451172.7260742-3.9678955 1.4682617-1.2330322.7333984-2.2870483 1.6953125-3.0957031 2.7133789-1.6167603 2.0556641-2.4872437 4.1650391-2.87854 5.7963867-.1757202.7788086-.2119141 1.4174805-.1832886 1.8798828-.0803833.1884766-.144165.371582-.1729736.5371094-.0970459.5463867.0391846.8876953.2331543.940918.4074097.0864258 1.0431519-.6845703 2.0428467-.9501953.4859009-.1533203 1.0283203-.2211914 1.4961548-.1865234.4464111.0268555.9078979.1484375 1.2489014.2470703 1.2741089.4086914 1.9483032.9018555 2.4390259.9584961.4875488.090332.7858887-.1376953 1.0949707-.4282227.1797485-.1689453.3400269-.340332.4119873-.5644531.3338623-.159668.7143555-.3164063 1.1340332-.4228516-.3443947 2.0587311.1308537 6.8080444.43573 9.003418.0951748.7420959.7217197 2.7954407-.9100342 2.699707-.2990723-.012207-.6174927-.1689453-.8469238-.3623047-.4788208-.3891602-.602417-.8793945-.817749-.9023438-.178833-.0532227-.5733643.5537109-.1813354 1.546875.1971436.4707031.6010742 1.0097656 1.3059082 1.3378906 1.7694454.8328247 4.2960529-.1484375 4.2562866-4.534668-.0188599-1.2573242-.0664673-2.4379883-.1365967-3.3530273-.2248535-2.934082-.4845581-4.5952148-.7762451-5.53125.4880981.0996094.9205322.2617188 1.2579956.4223633.7230225.3579102 1.1830444.7939453 1.5275879 1.1181641.3457031.3300781.5700665.5800781.7823467.7397461.4129028.328125.7800903.2939453 1.1935425.1845703.2637939-.0688477.5275269-.1386719.6820679-.3984375.0054321.0019531.0088501.0087891.0144653.0107422.3890381.1577148 1.057373-.3852539 1.8720703-.5898438.4005127-.1166992.8200684-.168457 1.1743164-.1533203.3515015.0112305.6483765.0839844.8936157.1352539.8898926.2275391 1.3046875.5170898 1.6935425.5356445.3822632.0419922.7208252-.1210938 1.0764771-.3530273.3480835-.2265625.6939697-.434082.6030884-1.0048828-.0264282-.144043-.0865479-.3149414-.1932373-.5024414.0563962-.2807616.0861814-.6508788.0606687-1.1572265zm-23.5020733-.6757812c.6693726-1.3139648 1.7688599-3.0756836 3.276062-4.5810547 1.055481-1.0805664 2.3840942-1.8886719 3.8161011-2.375-.3812256.4106445-.7390137.8574219-1.0419312 1.3242188-.5189209.7919922-.8639526 1.6259766-1.0751953 2.2890625-.336853 1.1342773-.4023438 2.0517578-.3737793 2.7578125-.102478-.0356445-.1908569-.0761719-.3013306-.1088867-1.469387-.4154816-3.0411739-.1835328-4.2999267.6938476zm13.4627686-.6333008c-.7019043-.3447266-1.7352905-.6274414-2.8168945-.5537109-1.0750122.0600586-2.1397095.4428711-2.9453125.9980469-.1300659.0869141-.2415771.1831055-.3579712.2768555.1109009-.5825195.2341309-1.4008789.5594482-2.5576172.163269-.4995117.3469238-1.1538086.6289063-1.8330078.2792358-.6787109.6341553-1.3842773 1.0100098-2.0234375.2490234-.4306641.5119629-.8212891.7463989-1.1694336.347229-.0058594.6885986.0039063 1.022644.0297852.0876465.1499023.1754761.3037109.2613525.4633789.772522 1.3515625 1.3464355 3.0200195 1.6318359 4.0874023.2839966 1.0615234.4160156 1.8457031.5209961 2.4370117-.0911254-.0507813-.1640014-.1069337-.2614135-.1552735zm5.3911724.8886719c-.7439575.2133789-1.4290771.6450195-1.9054565 1.1557617-.309021.3242188-.5146484.659668-.6525879.9750977-.0827026-.2514648-.201416-.5288086-.388855-.8374023-.0511475-.0825195-.1223755-.1733398-.1828003-.2602539.1500244-.0795898.2941895-.222168.4318848-.4780273.1582031-.3173828.315979-.8129883.3504028-1.5571289.0435791-.7421875-.0101929-1.7441406-.364624-3.0009766-.2064819-.6826172-.5438232-1.543457-1.0531006-2.3706055-.1074829-.1762695-.2246704-.3496094-.3443604-.5209961.031311.0136719.0664673.0258789.097168.0395508 2.6240234 1.1787109 4.0722656 3.0288086 4.96698 4.4223633.5874634.9458008.9456177 1.7338867 1.2138672 2.3833008-.0372925-.0092773-.0667725-.0229492-.1050415-.0317383-.5477295-.1225587-1.3171998-.1430665-2.0634766.0810546z"/></g></g></svg>