<svg id="Layer_1" enable-background="new 0 0 135 135" height="512" viewBox="0 0 135 135" width="512" xmlns="http://www.w3.org/2000/svg"><g><g><path d="m96.2463531 130.4129486c-11.2684097.4868622-21.95224 3.59935-32.5905151-2.3106995-14.406208-8.0033493-12.3760262-24.7888489-12.0458527-38.6474762.4267998-17.9143829.8535995-35.8287659 1.2803955-53.7431488.1879692-7.8896904.6178322-16.4415302 5.7868767-22.5051613 6.3820305-7.4865407 17.5993309-8.5172214 27.5706215-8.5405397 9.7375259-.0227709 20.6998444.9233384 26.9667053 8.206172 3.9921341 4.6393242 5.1930618 10.9561615 5.7088394 16.9966259.662056 7.7534752.4344482 15.5501709.2063446 23.3273964-.5129089 17.4882317-1.0258179 34.9764671-1.5387344 52.4647026-.2362747 8.056015-1.1695251 17.3995285-8.0672913 21.8177338-3.8438262 2.4620743-8.6858672 2.7360153-13.2773895 2.9343948z" fill="#ff7fdd"/></g><g><path d="m53.5737915 38.5756874-1.9299927 65.9199219c-3.5900269-.0200195-7.1900024-.0400391-10.7800293-.0600586-2.4299927-.0102539-4.8599854-.0297852-7.289978-.0400391-.9000244 0-1.8800049.0600586-2.9100342.1298828-3.8399658.2802734-8.3199463.75-11.3799438-1.3100586-2.6100464-1.7597656-3.1200562-5.8095703-3.2700195-9.3095703-.4700327-10.1201172-.3699961-20.2705078-.039979-30.4003868.1799936-5.1796875.4199839-10.3496094.6799936-15.5200195.1499634-3.1098633-.9700327-10.1899414 2.8099976-10.1098633 4.1599731.0800781 8.3099976.1699219 12.4699707.2597656 3.3300171.0600586 6.6600342.1303711 9.9899902.2001953 3.8800049.0800744 7.7700195.1601525 11.6500244.2402306z" fill="#9ee5e3"/></g><g><path d="m78.8540726 113.9064331c2.8541336-1.8151169 7.1925812-.6723633 8.7423935 2.3027649 1.5498123 2.9751358-.0414734 7.1060181-3.206604 8.3241425-1.3720093.5280304-3.0512238.5066605-4.1976471-.403511-1.1140518-.8844757-1.5006027-2.3946609-1.5317001-3.8024902-.0366669-1.6595917.3308029-3.3264847 1.0630417-4.8221054" fill="#fff"/></g><g><path d="m100.1937866 100.1655273h-31.5c-3.5898514 0-6.5-2.9101486-6.5-6.5v-53.9999961c0-3.5898514 2.9101486-6.5 6.5-6.5h31.5c3.5898514 0 6.5 2.9101486 6.5 6.5v53.9999962c0 3.5898513-2.9101486 6.4999999-6.5 6.4999999z" fill="#fff"/></g><g><path d="m40.8637695 104.4355469c-2.4299927-.0102539-4.8599854-.0297852-7.289978-.0400391-.9000244 0-1.8800049.0600586-2.9100342.1298828-.0699463-.75-.1099854-1.4897461-.0999756-2.2397461.0100098-.7001953.1600342-1.3603516.4100342-1.9501953.3199463-9.0200195 1.2299805-17.9897461 1.0699463-27.0400391-.1999512-11.7197227-.6699829-23.4399376-.1099854-35.1601524 3.3300171.0600586 6.6600342.1303711 9.9899902.2001953-.5499878 11.6601563-.0799561 23.2998047.1199951 34.9599571.1800538 10.4199219-1.0599975 20.7202149-1.1799926 31.1401368z" fill="#e6e7e8"/></g><g fill="#202020"><path d="m77.8955383 17.3273125c2.8986816.2832031 6.2927856.6416016 8.4518433.8222656 3.9401855.3261719 5.960022.4755859 7.0474243.265625 1.0838013-.1875 1.22052-.6801758 1.3195801-1.2338867.0990601-.5532227.1522217-1.0610352-.8453979-1.6064453-.9986572-.5219727-3.0576172-1.1420898-7.2006836-1.4853516-2.2687378-.1904297-5.8660278-.0981445-8.8450928.3588867-2.9848022.440918-5.331543 1.1894531-5.2774048 1.7421875.0541382.5664063 2.4558716.8374024 5.3497314 1.1367188z"/><path d="m87.596344 116.2091522c-.2866821.1333008.0206299 1.0649414-.111145 2.3481445-.1782837 2.481842-2.7487488 4.3936005-5.1452026 4.5322266-.8723145.0405273-1.6107178-.1918945-1.9294434-.5742188-.958046-.9626007-.9067993-4.3323669 1.2605591-6.2236328.6390381-.5605469 1.2720337-.8295898 1.7564087-.9228516.9553223-.190918 1.5955811.1450195 2.1433716.4492188.5548706.2817383.8807983.5629883 1.2111206.5810547.3162231.0454102.5657958-.0585937.814331-.1899414.2486572-.1308594.4810181-.2626953.5656128-.590332.0418091-.1640625.0459595-.3789063-.0093384-.6708984-.0371094-.2983398-.1917114-.652832-.4796143-1.0981445-.1325073-.2275391-.3018188-.4726563-.5658569-.7089844-.2549438-.2387695-.5167847-.5307617-.9223633-.7407227-.7370605-.5126953-1.8737183-.8227539-3.151001-.7631836-1.2838135.0737305-2.6630249.5952148-3.8839111 1.5625-3.4040375 2.709549-4.0775986 7.5084381-2.7336426 10.1181641.303833.7514648.8746338 1.5048828 1.5813599 2.0717773.7111816.5786133 1.5801392.9350586 2.4082031 1.0698242.831604.1411133 1.6439209.1206055 2.3911743-.0234375 4.200737-.8185577 7.0728607-4.6831741 6.2684937-8.003418-.4217529-1.6943359-1.2749634-2.3388671-1.4691162-2.2231445z"/><path d="m96.2116394 99.7550507c-6.7175446-.3466721-17.3492279-.5212326-26.9627075-.7280273-8.2635498.718132-5.6976204-6.0577927-5.178894-58.0673866l.0123901-1.3354492c.090416-2.4444389 1.8858566-4.2210426 4.0125122-4.4682617.5741653-.0763855 25.5837021.0792351 32.1418457.0478516 2.9092941.2783508 4.3045807 2.1865349 4.4240723 4.3344727.0682144.5838966-.0120621 37.3787956.5930786 53.8808632.1276855 2.0942383-.7550049 3.4702148-1.5893555 4.3276367-.8583374.847168-1.6535645 1.2329102-2.2011719 1.4790039-.555603.246582-.8860474.3818359-1.0635376.5185547-.1786499.1420898-.2067261.2807617-.2060547.4208984.0006104.140625.0228882.2768555.2335205.3994141.2112427.1254883.6156616.2504883 1.3873901.2070313.7587891-.050293 1.9349976-.2856445 3.3259888-1.2910156.68396-.5068359 1.4020386-1.2314453 1.9804077-2.2490234.5706787-.987793 1.0150757-2.3833008 1.0125122-3.8125.5486679-14.9622192.5989456-53.5270615.5744629-53.9946327-.1831818-4.557682-3.6505661-7.7586479-7.3014526-8.199707-.3729858-.0698242-.7521362-.0703125-1.1312866-.0913086-24.5594711.0341873-31.3818817.0209808-32.6860352.1660156-3.9128914.5083637-7.2181969 3.8425255-7.2782593 8.2910156l.0064697 1.3691406c.5567894 55.8262825.4939346 53.0518837.7270508 54.1987343.4000244 1.9458008 1.5628662 3.6523438 3.1002197 4.734375 1.2538757.8906479 2.5416336 1.2724075 3.8579102 1.3969727l.6737061.0234375.5725098-.0092773c9.1849899-.196846 20.4176331-.3902588 26.9627075-.7280273 2.5641479-.1328125 3.9821777-.2700195 3.9821777-.4106445 0-.1401372-1.4180297-.2778325-3.9821777-.4101567z"/><path d="m13.8234539 77.3585663c.0240173 4.2127762.2101412 17.3907852 1.2132568 21.4633789 1.2316151 4.8302689 3.9696674 7.4908142 11.8236084 7.2436523.1001492-.0042343 23.2414913-1.1686172 23.3416767-1.1762695.2286377 3.6660156.7451782 7.2475586 1.8739014 10.6005859 3.1205101 10.0657272 12.9131088 18.0509644 30.1745605 16.6689453 2.9763794-.2407227 5.5083008-.5849609 7.5764771-.8461914 4.1316528-.5415039 6.4239502-.7490234 6.4194336-.8999023-.0027466-.1303711-2.3261719-.1958008-6.4979248.0830078-2.0840454.1298828-4.6274414.34375-7.5664063.4541016-2.9342041.109375-6.2850342.0766602-9.8550415-.6171875-8.6996155-1.781662-15.6569519-7.1092453-18.0841064-15.5419922-.9968262-3.1791992-1.4174805-6.6513672-1.5598755-10.2661133.0083618-.0092773.0230103-.019043.0230713-.0283203.000061-.0107422-.0151367-.0214844-.0256958-.0322266-.0583496-1.515625-.0732422-3.0532227-.0531006-4.6088867.0601082-3.7912827-.2431297 9.7647629 1.6594238-51.8588905.0891113-3.0014648.1784668-6.0083008.2677002-9.0141602.1810074-5.7614899.1772842-11.952528 1.7790527-17.362793 2.6615257-8.6472836 8.6029663-12.4844656 17.7536621-14.1118164 5.3248291-.9077148 10.8068237-.9311523 16.0087891-.7915039 5.1738282.1860357 10.1170044.8295904 14.2991333 2.4980469 8.1395645 3.1873369 11.0718765 9.4259815 12.1989746 17.996582 1.2613602 9.9420929.714035 18.613018-.3745117 61.2133827-.4324188 19.3161697-.3936615 19.9541626-.6367798 22.6054688-.7429352 9.0365143-3.4622421 15.3523865-12.1477661 17.5527344-2.1966553.5288086-3.7911377.7207031-4.8688354.9199219-2.1716309.3657227-2.335022.6254883-2.3197632.9106445.0147095.2763672.1808472.5532227 2.4177856.6713867 1.1204834.0400391 2.7675781.0854492 5.2122192-.2680664 10.024826-1.5836334 13.971077-9.129631 15.0671997-19.4560547.3344116-2.9340134 3.4780884-70.3630371 1.6835938-84.6748047-1.3308945-10.0350685-5.0575714-17.4189835-14.7358398-21.2363281-4.8852539-1.9213867-10.2518921-2.5454102-15.6635132-2.7202148-5.399353-.1123047-11.0013428-.074707-16.8241577.949707-10.5335312 1.9541025-17.5978584 6.7985797-20.5932007 16.9091797-1.5300713 5.3670521-1.6106873 11.046175-1.7085571 16.6889648-.9605713-.1386719-2.2636108-.2744141-4.0665894-.40625-2.5971832-.1903687-27.4736824-1.3506241-28.8948994-.7724609-1.4675312.527359-2.4989967 1.5421753-3.022583 3.378418-.8469133 2.8764381-1.3115959 34.9022293-1.2943725 37.8823242zm16.5220337 26.015625c1.7912846-3.4578629 3.8581066-51.6513519 3.1416645-60.8505898-.1000366-1.3374023-.2525635-2.1181641-.4393921-2.5756836 2.8074341 0 5.2404175-.0136719 7.3354492-.0400391-1.7537956 6.0509529-1.4512863 56.7989693.156189 63.6318398-7.0364876-.2995071-7.2310104-.3012542-10.1939106-.1655273zm20.7167377-63.9028359c-.0505371 2.815918-.1011353 5.6328125-.1515503 8.4443359-.9917564 59.1075478-.8788376 50.1759682-.8738403 51.9243202.0090332 1.4165039.0429688 2.8291016.1140137 4.2314453-2.6840935-.231041-6.5218887-.4012146-9.0384521-.5078125 1.2925758-5.3144302 3.417511-56.9265785 1.380127-63.6879921 1.7525635-.0322266 3.2384644-.074707 4.4852295-.1264648 1.8096923-.074707 3.1185912-.1694335 4.0844725-.277832zm-33.48633 37.9062539c.0065327-.3958435 1.0556374-35.6353226 1.3952026-36.7363319.1083984-.4389648.288208-.6333008.3326416-.7036133.0259399-.0581055.0188599-.0063477.2890015-.0664063 4.4398804.027832 8.2947998.0517578 11.6536255.0727539-2.7403488 5.7249413-2.4736328 60.6839867-1.1830444 63.4423866-1.0789795.0498047-2.1625977.0966797-3.2521973.0893555-5.1693172-.0451126-7.7921638-1.0509567-8.7133179-5.3647461-.7410221-3.4765549-.5801086-17.2236405-.5219116-20.7333984z"/></g></g></svg>