<svg id="Layer_1" enable-background="new 0 0 135 135" height="512" viewBox="0 0 135 135" width="512" xmlns="http://www.w3.org/2000/svg"><g><g><path d="m130.7933197 54.1114044c-.0100098.3198242-.0300293.6298828-.0500488.949707-.4599609 8.590332-2.2599487 17.1103516-5.3099976 25.1503906-1.6399536 4.3300781-3.8099976 8.7299805-7.6499634 11.3198242-3.0900269 2.0898438-6.9199829 2.75-10.6099854 3.25-18.9000244 2.5898438-38.1700439 2.4599609-57.0200157-.3901367-3.6900024-.5600586-7.7200317-1.4399414-9.960022-4.4199219-1.3599854-1.8198242-1.8099976-4.1298828-2.2299805-6.3598633-.0200195-.1201172-.0499878-.25-.0700073-.3701172-.5200195-2.75-1.039978-5.4897461-1.5499878-8.2299805-.9500122-5.0097656-1.8900146-10.0097656-2.8300171-15.0200195-.539978-2.8901367-3.7399902-10.75-1.710022-13.3100586.1000366-.1298828.2200317-.25.3500366-.3500977 1.8200073-1.3999023 5.5599976-.6196289 7.7000122-.7197266 3.9599609-.2001953 7.9299927-.3598633 11.8999634-.5 7.8900146-.2802734 15.7800255-.4501953 23.6700401-.550293.8999634-.0097656 1.7999878-.0195313 2.6999512-.0297852 14.7900391-.1801758 29.5800171-.1601563 44.3800049-.2900391 1.7800293-.0097656 3.6700439 0 5.210022.9199219 2.8399659 1.7001956 3.2199708 5.6303714 3.0800172 8.9501956z" fill="#ffa57f"/></g><g><path d="m74.853302 50.4912949c-7.3244553 2.9108658-15.2638474 3.2430878-23.049633 3.2334747-4.4922256-.0055504-13.8043976.4240723-14.2650642 6.3266869-.0844803 1.0824623-.0326958 2.2468987-.6254311 3.1565819-2.1742287 3.3368225-3.1749115-2.017662-3.3998795-3.2167511-.539978-2.8901367-3.7399902-10.75-1.710022-13.3100586.1000366-.1298828.2200317-.25.3500366-.3500977 1.8200073-1.3999023 5.5599976-.6196289 7.7000122-.7197266 3.9599609-.2001953 7.9299927-.3598633 11.8999634-.5 7.8900146-.2802734 15.7800255-.4501953 23.6700401-.550293.8999634-.0097656 1.7999878-.0195313 2.6999512-.0297852.3600464 2.2797853-.5700073 4.8798829-3.2699737 5.9599687z" fill="#ffb69c"/></g><g><path d="m130.7401428 55.0598145c-.4600677 8.5912514-2.2602386 17.112175-5.3105621 25.1530762-1.6401901 4.3305435-3.8104019 8.7309113-7.6508408 11.3210297-3.0903549 2.0900726-6.9107056 2.7502975-10.6011047 3.250351-18.9020386 2.5901184-38.174118 2.4602203-57.026104-.3901825-3.6903954-.5601196-7.7208557-1.440094-9.9610863-4.4203873-1.3601303-1.8200226-1.8101883-4.1303253-2.230217-6.3605423-.0200233-.1201324-.0499954-.2500305-.070015-.370163 17.0718269 4.6005936 34.5536728 8.8710632 52.325592 6.9406815 8.5508957-.9297867 17.9419174-3.390007 25.0026703-8.540947 7.4807739-5.4605408 10.9511795-16.3318176 14.2015228-24.6227455.320038-.8096582.78006-1.4601174 1.3201448-1.9601708z" fill="#f99370"/></g><g><path d="m112.6394806 103.1569443c-.5555038-1.3656235-1.4324951-2.6662521-2.6781082-3.7993469-7.6579666-6.9661789-18.2085953-.0640335-12.3893738 10.9915771 4.938446 9.3822708 19.9015655 4.6922913 15.067482-7.1922302z" fill="#808285"/></g><g><path d="m64.4264297 103.1569443c-.5555-1.3656235-1.4324913-2.6662521-2.6781044-3.7993469-7.6579704-6.9661789-18.2085953-.0640335-12.3893738 10.9915771 4.9384461 9.3822708 19.9015618 4.6922913 15.0674782-7.1922302z" fill="#808285"/></g><g><path d="m50.1115494 111.3460922c-.2000351-.379921-.3700981-.7500763-.5300865-1.1099777 6.1806526 2.9300003 14.6515846-1.9704285 10.8411827-11.3312912-.0100098-.0302734-.0300331-.0703201-.0400429-.1001053.720108.410202 1.4301453.9200211 2.1202202 1.5499725 1.2401237 1.1402588 2.120224 2.4406891 2.6703339 3.8006973 4.8404769 11.8914033-10.1211396 16.5715943-15.0616074 7.1907044z" fill="#58595b"/></g><g><path d="m98.3666992 110.3459854c-.2000351-.379921-.3700943-.7500763-.5300903-1.1099777 6.1806564 2.9300003 14.6515884-1.9704285 10.8411865-11.3312912-.0100098-.0302734-.0300293-.0703201-.0400391-.1001053.720108.410202 1.4301453.9200211 2.1202164 1.5499725 1.2401276 1.1402588 2.120224 2.4406891 2.6703339 3.8006973 4.840477 11.8914033-10.1211395 16.5715943-15.0616074 7.1907044z" fill="#58595b"/></g><g><path d="m84.4932709 72.2613068c-8.9400024-5.7797852-12.5499878-17.75-11.1799927-28.9399414 1.3699951-11.2602539 7.7900391-21.7402325 18.9000244-24.3701153 14.6599731-3.4599609 30.2600098 3.9501953 36.039978 17.6499004.6000366 1.3701172 1.0800171 2.800293 1.4500122 4.2900391 6.4500123 25.8300781-23.7199707 45.290039-45.2100219 31.3701172z" fill="#f1f2f2"/></g><g><path d="m121.8405609 48.1765862c-.2024231 1.5775909-1.6411362 3.0200195-4.7138443 3.7457771-1.707695.403347-3.5725479.4370537-5.3971481.4660378-5.8117523.0923271-12.0791016.5655098-17.6638565-.716423-2.9778519-.6835403-8.4860764-4.0767288-5.5271606-7.9622498 2.288559-3.005249 9.6788025-2.6014633 12.9282379-2.4853668 7.7331848.2763099 21.2881164-.1739045 20.3737716 6.9522247z" fill="#be1e2d"/></g><g><path d="m128.2532806 36.6011505c-1.5299683.4799805-3.2999878.3203125-4.8599854-.8896484-2.3499756-1.8300781-4.8900146-3.300293-7.5200195-4.4301739-.8999634.1000977-1.8800049-.0498047-2.8699951-.5498047-.789978-.4003906-1.5899658-.8100586-2.3999634-1.2001953-13.1600342-3.25-27.75 1.3500977-36.3200073 12.7797832-.2999878.3901367-.6199951.7304688-.9700317 1.0102539 1.3699951-11.2602539 7.7900391-21.7402325 18.9000244-24.3701153 14.6599732-3.4599609 30.2600098 3.9501954 36.039978 17.6499005z" fill="#fff"/></g><g fill="#202020"><path d="m88.0765533 50.525631c6.5243835 5.8786125 27.5374985 2.9814072 30.1621704 1.9106445 1.7012329-.6337891 2.9501953-1.6928711 3.4155273-2.6674805.4783325-.9785156.2978516-1.5952148.1861572-1.5922852-.1586304-.0258789-.288208.5068359-.8662109 1.1328125-.565918.628418-1.6594849 1.2729492-3.2116699 1.6147461-2.2007751.5465355-22.7639084 1.2213783-27.1240845-3.140625-1.3047562-1.2078667-1.359787-2.3795662.1089478-3.3969727 3.7150574-2.1980438 25.5970078-1.4718933 28.9206543 1.2504883 1.0081787.7905273 1.1511841 1.5585938 1.416687 1.9814453.2130737.4355469.477356.5268555.7556763.5581055.2784424.0317383.5478516.0483398.8291016-.5185547.1192627-.2871094.2521973-.7363281.1949463-1.4370117-.0571899-.6855469-.348877-1.6660156-1.1396484-2.5996094-.7772827-.9467773-1.9813232-1.7304688-3.4661865-2.3422852-4.4771423-1.8154221-23.9961624-3.7441406-29.6351929-.2700195-3.3235016 2.2648202-4.0374222 6.4600717-.5468751 9.5166017z"/><path d="m118.4808502 22.9099083c-12.8510284-8.3979149-26.4052658-4.5059032-26.2653198-3.9550781.1511841.6608639 12.4635544-3.092268 24.9644775 5.8237305 10.3021469 7.6195412 13.8364258 20.0736008 10.7146606 30.1782227-3.4899521 11.5782661-14.7826843 19.2968864-26.0773926 19.8867149-18.1063156 1.0237808-30.1893768-14.440937-26.0913696-34.5034142 2.1345139-10.3812962 7.6339874-16.5901241 15.5004272-20.2763672 1.0233154-.5478516 1.0562134-.8359375.9891968-1.1088867-.0670166-.2724609-.2023315-.5126953-1.4421997-.4101563-5.6952133.2072792-15.5448151 7.1118126-18.7145386 20.9995117-.2833862 1.2563477-.5187988 2.5874023-.689209 3.980957-11.474369.3237076-23.8201141.8464165-35.2992516 1.8256836-2.1251831.1953125-3.6885986.3608398-4.6629028.4936523-.0487061-.1582031-.0924072-.3251953-.1420288-.4819336-1.0527954-3.3388672-2.2788696-6.3393555-3.7020264-8.9326172-5.7947195-10.8451346-15.7103832-15.6606291-22.5939339-15.0073241-2.0795898.2592773-2.1776123.6020508-2.154541.8608398.0233154.2988281.2202148.4951172 2.1213989.7241211 8.9585533 1.3438683 15.6859083 7.1204967 19.6386719 14.9951172 1.244751 2.4125977 2.3253174 5.222168 3.2648315 8.4038086 1.708498 5.7568932 2.4031124 10.39925 7.6061401 38.6064415 1.3279266 6.599617 3.7812843 9.8699265 14.223877 11.4619141.1265259.019043.2595215.0341797.3864136.0527344-4.2913895 2.6570358-5.2050476 8.3352051-3.3131104 12.7285156 3.2758827 7.3559189 8.5494308 9.2854691 13.7632446 7.5981445 2.3795166-.7397461 4.1126671-2.2783203 5.1301231-3.8452148 1.5294571-2.4463806 1.6740952-5.2656326.9927368-7.3852539-.4545898-1.4780273-.972168-2.0947266-1.326416-2.375-.3598633-.2768555-.6154785-.1967773-.8762817-.0917969s-.497921.2363281-.6076012.6494141c-.1126099.4091797-.0533447 1.1049805-.0275269 2.3066406.0031738 1.1665039.0331421 2.9790039-1.255188 4.7817383-.6692505.8588867-1.6990967 1.7241211-3.1989746 2.1450195-4.2608604 1.2597504-6.9266663-1.2284088-8.9630737-5.1777344-1.6303101-3.2638168-1.2876854-8.439537 3.3977051-9.6992188 1.4830933-.4091797 3.0775146-.2553711 4.4517212.2211914 1.3539429.5307617 2.5314331 1.2749023 3.4404907 1.9941406 1.7805786 1.4946289 2.4808311 2.9038086 2.7624474 2.7788086.2341309-.0649414.0535278-1.7680664-1.6274986-3.8852539-.3980713-.46875-.8754883-.9492188-1.4230347-1.418457 2.7213097.2436523 5.4956627.4511719 8.3644371.5854492 7.8292236.3662109 16.8119507.3212891 26.4589233-.519043.1298218-.0117188.2626953-.0263672.3927612-.0380859-.375.3886719-.7214355.8095703-1.0165405 1.2724609-2.0226974 3.0678787-1.8076096 7.3436508-.6193848 10.1020508.551239 1.2379684 1.6971054 4.8799896 5.5212402 6.8427734 2.8740234 1.5141602 5.9033203 1.512207 8.2419434.7553711 5.0282135-1.5631714 7.5836716-6.6850815 6.1229248-11.2304688-.4546509-1.4780273-.972168-2.0947266-1.326416-2.375-.3598633-.2768555-.6155396-.1967773-.8762817-.0917969-.2608032.1049805-.4979248.2363281-.607605.6494141-.1126099.4091797-.0534058 1.1049805-.0275269 2.3066406.0092163 3.387085-1.1930008 6.0115891-4.4542236 6.9267578-4.2694321 1.2623444-6.9326782-1.2407227-8.9630737-5.1777344-.1865234-.3735352-.2542114-.7700195-.3959961-1.159668.0284119-.1000519-2.3155823-6.8969879 3.7937012-8.5395508 1.4831543-.4091797 3.0775146-.2553711 4.4517212.2211914 1.3540039.5307617 2.5314331 1.2749023 3.4404907 1.9941406 1.7806396 1.4946289 2.480896 2.9038086 2.7625122 2.7788086.2341309-.0649414.0535278-1.7680664-1.6275024-3.8852539-.7786865-.9169922-1.8453979-1.8754883-3.2270508-2.7055664 1.1157837-.168457 2.2463379-.3608398 3.4084473-.6235352 2.6218872-.5878906 5.4212036-1.59375 7.7834473-3.4633789 8.7447357-6.9435425 12.4427338-27.6678391 12.7681885-38.9057579.0015869-.1225586-.0006104-.2460938-.0018921-.3696289 2.0292673-11.5838734-2.9784842-23.341272-13.2623892-30.293945zm-1.8614502 66.5571251c-1.7589111 1.3671875-3.9411011 2.1757813-6.2786865 2.6806641-5.5630569 1.2259827-22.7014084 3.0503464-40.4082031 2.2231445-7.0029869-.3271484-13.5558434-1.0107422-19.6685143-1.9038086-8.6961212-1.2107468-9.9409981-3.4663391-10.9066772-8.2412109-5.1369247-26.6014786-5.9725914-31.8179665-7.8429565-38.0180626.9887695.0195313 2.5299072.0068359 4.5994263-.0371094 15.836319-.302021 20.5694542-.4377213 35.0546227-.4755859-1.3423691 20.4429283 12.6178513 34.3598976 30.890625 33.1308556 9.8382492-.6142654 19.256485-5.9989548 24.7130737-13.7563477.1243286-.1762695.2302856-.3657227.3509521-.5454102-1.2111588 6.8197937-4.6183167 20.3558807-10.5036622 24.9428711z"/></g></g></svg>