<svg id="Layer_1" enable-background="new 0 0 135 135" height="512" viewBox="0 0 135 135" width="512" xmlns="http://www.w3.org/2000/svg"><g><g><path d="m113.2370377 119.256012c-.039917 6.3300781-4.1899414 6.2099609-8.869873 6.9902344-3.7600098.6196289-7.4899902 1.2998047-11.25 1.8896484-2.2600098.3603516-4.5200195.6801758-6.8000488.9399414-12.0999756 1.3901367-24.3200645 1.7700195-36.4899864 1.1401367-4.6199951-.2397461-9.0400391-1.4697266-13.6000977-1.2397461-2.1999512.1098633-4.1098633-.2104492-5.7598896-.8803711-2.6500244-1.0698242-4.6300049-3.0400391-6.0999756-5.5297852-3.9200439-6.6000977-4.2299805-16.8500977-3.9100342-23.7797852.4200439-9.050293 2.4400635-17.9404297 4.5-26.7602539 2.0799561-8.9599609 5.1900635-17.7397461 7.1900654-26.6298828 1.7099609-7.590332 8.869873-12.4501953 16.2698975-13.9399414 1.8099365-.3701172 3.6400146-.5600586 5.4700928-.6201172 1.2999268-.0498047 2.6098633-.0302734 3.9199219.0498047 4.4000244.2402344 8.8100548 1.0800781 13.1400108 1.9902344 7.4200439 1.5498047 14.960083 3.2797852 22.4899902 2.5097656 2.6500244-.2700195 6.8199463-1.5898438 9.3599854-.4296875 1.2600098.5698242 2.1600342 1.9697266 2.8900146 3.3398438.3199463.5898438.5999756 1.1801758.8599854 1.6899414.9899902 1.9101563 1.6999512 3.9301758 2.2099609 6 1.4500732 5.8198242 1.380127 12.1098633 1.7700195 17.9799805.6700439 10.1499023-.3099365 20.5898438.6900635 30.6601563.7899169 7.949707 2.0599364 16.790039 2.0198974 24.6298828z" fill="#e1ff55"/></g><g><path d="m105.6871109 38.296051c-.9200439 2-2.9799805 3.4799805-5.710083 2.8598633-12.119873-2.7797852-25.2999268-2.1699219-37.5998497-.8696289-5.8701172.6298828-12.0500488 1.9199219-16.8901367 5.5-4.4499512 3.2797852-6.6899414 8.3896484-8.3798828 13.4794922-6.7399921 20.3300781-12.040041 41.7705078-12.7399921 63.300293-3.9200439-6.6000977-4.2299805-16.8500977-3.9100342-23.7797852.4200439-9.050293 2.4400635-17.9404297 4.5-26.7602539 2.0799561-8.9599609 5.1900635-17.7397461 7.1900654-26.6298828 1.7099609-7.590332 8.869873-12.4501953 16.2698975-13.9399414 1.8099365-.3701172 3.6400146-.5600586 5.4700928-.6201172-.1900635.3500977-.4400635.6899414-.7299805 1 1.5198975-.3901367 3.079834-.7001953 4.6499023-.9501953 4.4000244.2402344 8.8100548 1.0800781 13.1400108 1.9902344 7.4200439 1.5498047 14.960083 3.2797852 22.4899902 2.5097656 2.6500244-.2700195 6.8199463-1.5898438 9.3599854-.4296875 1.2600097.5698242 2.1600341 1.9697265 2.8900146 3.3398437z" fill="#f2ffa4"/></g><g><path d="m62.8329697 46.9802551c3.0460892-12.3476524-19.7161446-5.9201012-9.9365921 2.3271255 1.5537872 1.3103294 3.6850471 1.9796295 5.6784134 1.582653 1.9944076-.3971823 3.7703285-1.9343756 4.2581787-3.9097785z" fill="#fff"/></g><g><path d="m91.0823212 47.152874c.0858612-.3008118.141861-.6199265.1639404-.957222.375679-5.7399139-8.396492-6.1081123-10.2159424-1.2141037-2.6301269 7.0745964 8.5123749 7.565258 10.052002 2.1713257z" fill="#fff"/></g><g><path d="m113.2370377 119.256012c-.039917 6.3300781-4.1899414 6.2099609-8.869873 6.9902344-3.7600098.6196289-7.4899902 1.2998047-11.25 1.8896484-2.2600098.3603516-4.5200195.6801758-6.8000488.9399414-12.0999756 1.3901367-24.3200645 1.7700195-36.4899864 1.1401367-4.6199951-.2397461-9.0400391-1.4697266-13.6000977-1.2397461-2.1999512.1098633-4.1098633-.2104492-5.7598896-.8803711.5198975-1.9296875 2.0599384-3.5800781 4.6099873-3.6899414 10.9799805-.4799805 22.0600586-.8398438 32.9599571-2.3798828 9.4300537-1.3398438 20.7800293-3.4199219 28.4599609-9.4799805 7.8000488-6.1499023 7.1900635-20.3500977 7.9899902-29.2998047.9899902-10.9702148 1.5100098-21.9599609 1.6201172-32.9599609.0200195-2.1503906 1.1499023-3.5800781 2.6499023-4.300293 1.4500732 5.8198242 1.380127 12.1098633 1.7700195 17.9799805.6700439 10.1499023-.3099365 20.5898438.6900635 30.6601563.789917 7.949707 2.0599365 16.790039 2.0198975 24.6298828z" fill="#def74b"/></g><g fill="#202020"><path d="m89.3815384 103.3821487c-.4859619-.2944336-.9393311-.4921875-1.9006348.3222656-.9957275.777832-2.3843994 2.6894531-5.6768799 5.8061523-.0982666.090332-.1916504.1728516-.2774658.2451172.3291016-.550293.7052002-1.6171875 1.1533203-3.6669922 2.09935-10.5542374 1.4249496-28.0448456-6.4869385-36.4550781-2.1308594-2.2319336-4.979126-4.1103516-8.3365479-5.0053711-10.631855-2.8092918-18.611187 6.4665527-18.1398926 17.7568359.1004639 2.6782227.5802002 5.0083008 1.0544434 6.9199219 1.0042725 3.8120117 1.946167 6.0322266 2.1972656 5.9711914.2946777-.0708008-.1346436-2.4619141-.6395264-6.2651367-.225708-1.8994141-.4528809-4.1611328-.3352051-6.6196289.3970718-8.9575958 6.3955841-16.7253342 14.8503418-14.1499023 2.5476074.7661133 4.8031006 2.3291016 6.4376221 4.1201172 7.0679016 7.7981873 6.7800064 23.0474548 6.5388184 33.387207-.0712891 1.6870117-.0511475 2.7294922.03479 3.3876953-1.2358398-1.043457-2.5157471-2.125-3.7036133-3.128418-2.666748-2.234375-4.8880615-4.050293-5.3172607-3.6816406-.4238281.3632813 1.0463867 2.8701172 3.2426758 5.6787109 1.1005859 1.4091797 2.3565674 2.8710938 3.6416016 4.2324219.3577881.3666992.7756348.7666016 1.3486328 1.1279297.5354004.3579102 1.4533691.6928711 2.2390137.6601563.7589951-.0055084 1.4818039-.2519531 2.1170654-.6391602.5080566-.3125.8535156-.6210938 1.1345215-.8754883 1.8863525-1.7514648 3.0843506-3.2700195 3.901001-4.4755859.8082275-1.2119141 1.230835-2.1083984 1.434082-2.7578125.3988038-1.3027343-.0357665-1.6079101-.5112304-1.8955078z"/><path d="m112.1996536 58.3172073c-.1757813-2.9824219-.4100342-6.1010742-.9221191-9.34375-.5240479-3.2333984-1.2663574-6.6342773-2.942749-10.0029297-.8448486-1.6694336-1.96875-3.3442383-3.5635986-4.7138672-1.572876-1.3774414-3.6199951-2.366209-5.7402344-2.7270489-2.1226807-.3657227-4.2503662-.1972656-6.2441406.2456055-.3411865.0620117-.6882324.125-1.0314941.1875.1781006-1.1777344.3083496-2.4741211.3475342-3.9326172.240074-12.2902736-7.6051561-21.1581892-16.1072999-23.3422856-3.1365967-.897949-6.8232422-.8115232-10.1986084.2832031-3.3924561 1.0830078-6.4991455 3.1025395-8.9519043 5.6665044-2.4775391 2.5664063-4.2127686 5.7026367-5.2633057 8.8081055-1.2089844 3.5800781-1.581543 7.0776367-1.5217285 10.1728516-.2966309.0195313-.5933838.0395508-.8907471.0805664-.708374.0976563-1.4193115.1958008-2.1328125.2944336-1.4259033.2026367-2.8652344.5522461-4.2950439 1.0068359-1.427002.4692383-2.8504639 1.0649395-4.199707 1.8710918-1.3500977.7993164-2.6204834 1.8139648-3.7052002 2.9707031-2.1810303 2.3295898-3.6354961 5.1474609-4.6959209 7.9785156-5.0140114 13.4136887-11.0283794 58.4955368-9.8890381 69.5639648 1.3805065 12.793457 6.1262798 15.1960526 16.1240215 16.3525467 9.6315804.9306335 12.7765808 1.4816895 33.1816406 1.0219727 7.3220215-.1577148 13.2530518-.590332 17.3221436-1.109375 2.0360107-.2485352 3.6071777-.5151367 4.6679688-.7163086 1.0592041-.2143555 1.6091309-.3603516 1.598999-.4296875-.0222168-.1538086-2.2713623.0893555-6.3419189.3286133-4.0700684.2529297-9.9631348.4272461-17.2584229.3417969-19.7418442-.3249054-19.2232819-.2383575-32.8804932-1.8564529-9.2093697-1.2316437-12.545639-3.2101059-13.5482159-14.2172852-.8593044-9.8760223 5.3412609-54.4547119 10.5312481-67.9472656.9747314-2.5405273 2.2474365-4.8793945 3.9674072-6.6826172 1.7056885-1.8037109 3.8886719-3.0039063 6.3140869-3.7666016 1.210083-.3735352 2.4552002-.6738281 3.7352295-.8432617.6401367-.0839844 1.2780762-.1679688 1.9136963-.2514648.2618408-.0356445.5269775-.0507813.7918701-.065918.1115723.8007813.2441406 1.5556641.3902588 2.2485352.3748779 1.7368164.7491455 3.1416016 1.0775146 4.203125-.3903809.230957-.7736816.4829102-1.1420898.7724609-.628418.5483398-1.2211914 1.1933594-1.6412354 2.0161133-.4008789.8164063-.6618652 1.7783203-.586792 2.6826172.2090836 4.0408478 5.439106 8.622406 10.6517334 7.2226563 1.2607422-.3393555 2.1623535-.940918 2.814209-1.5239258.6536865-.5888672 1.0506592-1.1904297 1.3032227-1.6972656.4892578-1.0366211.4251709-1.6801758.2817383-2.0092773-.1555176-.3374023-.4141846-.4086914-.6862793-.4780273s-.5407715-.1069336-.8293457.0131836c-.7520256.2954292-1.691864 1.7186089-3.7088623 2.034668-3.1839752.4389153-5.75597-2.5670128-5.8432617-3.7910156-.0568848-.2426758.0134277-.46875.1020508-.7543945.1096191-.28125.3436279-.597168.6385498-.9130859.6322021-.6220703 1.5836182-1.1694336 2.5979004-1.5209961 1.0220947-.3388672 2.1120605-.4941406 3.0898438-.425293.979126.0771484 1.7907715.4038086 2.3603516.9072266.5810547.4990234.8914795 1.2407227 1.0535889 1.9282227.3137207 1.3994141.2271729 2.4614258.5391846 2.5214844.1363525.0336914.3171387-.1782227.5358887-.6152344.1141357-.2172852.2314453-.4907227.3074951-.8325195.0930176-.3374023.1876221-.7290039.1983643-1.190918.0632324-.8920898-.067627-2.1328125-.8850098-3.2685547-.7971191-1.1352539-2.1750488-1.9560547-3.6119385-2.2861328-2.1743164-.465332-4.520874-.2617188-6.651123.730957-.1054688-1.0551758-.2506104-2.3896484-.3966064-3.9516602-.0584717-.6660156-.0976563-1.3852539-.1251221-2.1269531 1.0441895-.0415039 2.0947266.0039063 3.130249-.003418 1.2803955.0883789 2.5430908.1137695 3.8085938.2661133 5.0500488.4873047 9.9530029 1.4282227 14.730835 2.1020508 4.6500244.6557617 9.1999512 1.0991211 13.5275879.8173828-.097168.4365234-.190918.8515625-.2709961 1.2216797-.2270508.9277344-.40625 1.6542969-.5402832 2.2421875-6.7502365-.6096725-9.860939 6.8700829-6.7937012 10.3852539 1.1629257 1.4272842 2.896225 2.1397972 4.7420654 2.2792969 1.4243164.1044922 2.6081543-.1552734 3.5826416-.5029297 1.9577637-.7333984 2.9998779-1.9658203 3.4311523-2.8520508.4304199-.9174805.3526611-1.4863281.2076416-1.7817383-.15271-.3027344-.4088135-.3808594-.6783447-.4599609-.2696533-.0795898-.5356445-.1293945-.8221436-.0517578-.286499.0751953-.5769043.2788086-1.0201416.578125-.4547119.2827148-1.0714111.7109375-2.2497559.9897461-.5825195.1206055-1.30896.2124023-2.0871582.1074219-.7694092-.081543-1.5997314-.4160156-1.9384766-.8657227-.7793198-.9234962-.223587-3.4203529 1.8594971-4.3720703 1.377121-.6136703 3.1907654-.6343727 4.4475098.1757813.5107422.3837891.8951416.8769531 1.1099854 1.4057617.4281006 1.0756836.3959961 1.9501953.7006836 2.0327148.2111816.0844727.8648682-.7026367.8557129-2.3339844-.0186768-.8139648-.3417969-1.8388672-1.0933838-2.7509766-.5059814-.5698242-1.1751709-1.027832-1.9200439-1.3686523.2839355-.5126953.5980225-1.1523438.9407959-1.9526367.2718506-.6879883.5834961-1.512207.8874512-2.465332.9720459-.1767578 1.9366455-.3525391 2.8937988-.5268555 1.6373291-.3691406 3.2451172-.4672852 4.6900635-.2172852 2.8922119.4824219 5.0455322 2.5375977 6.3878174 5.2714844 1.3647461 2.7089844 2.090332 5.7919922 2.5778809 8.8007813.4881592 3.0219727.7294922 6.0224609.9147949 8.9501953.1616211 2.9169922.3688965 5.847168.4893799 8.5166016 1.9203339 47.4906998 4.1371689 52.7734756 2.1962891 55.0024414-.4300537.5649414-1.2047119.9594727-2.0345459 1.2871094-7.4334717 2.4951172-11.489624 3.3950195-13.557373 3.9960938-2.0789795.5869141-2.2070313.8584061-2.1647949 1.1416092.0406494.2729492.2363281.5332031 2.4278564.421875 2.1873779-.1323242 6.3946533-.5947266 14.2696533-2.8501053 1.024292-.362793 2.2874756-.8447266 3.3304443-2.0146484.5303955-.5581055.9050293-1.2734375 1.1748047-1.9941406.2404785-.7241211.3914795-1.4746094.4282227-2.1992188.0650635-.7749023.0358887-1.3496094.0533447-2.050293-.1500782-15.6418995.9945446 11.7565685-2.6309819-59.5000004zm-24.7391357-25.7763672c-3.9907227.2998047-8.3707275-.1049805-13.0223389-.7485332-4.6550293-.6396484-9.6108398-1.5751953-14.9277344-2.0629883-1.3198242-.1513672-2.6873779-.1767578-4.0489502-.2597656-1.0579834.0102539-2.1184082-.0273438-3.1918945.0112305.0203857-.2983398.0313721-.5883789.0601807-.8935547.2519531-2.5932617.8388672-5.4082031 1.9506836-8.1367188 1.1097412-2.7275391 2.756958-5.347168 4.9552002-7.4277344 2.1864014-2.0922852 4.8753662-3.6762695 7.6520996-4.4609375 9.6388931-2.7429638 21.1484756 5.0615368 21.4626465 19.4672852.0280762 1.6713867-.0675049 3.1430664-.2198486 4.4462872-.2235108.0209961-.4465333.0405273-.670044.0654296z"/></g></g></svg>