<svg id="Layer_1" enable-background="new 0 0 135 135" height="512" viewBox="0 0 135 135" width="512" xmlns="http://www.w3.org/2000/svg"><g><g><path d="m123.1533661 60.4111023c-1.25 4.7700195-8.3900146 11.3000488-11.4299927 15.5300293-8.1099854 11.2299805-16.210022 22.4699707-24.3200073 33.7102051-2.6499634 3.6799316-5.3800049 7.4299316-8.7700195 10.5498047-.2999878.2800293-.5999756.5500488-.9099731.8000488 0 .0100098-.0100098.0100098-.0200195.0200195-1.3299561 1.1398926-2.7600098 2.1799316-4.3200073 3.0700684-10.3899536 5.9599609-24.5099487 4.2797852-35.1900024-1.25-2.8599854-1.4902344-5.5299683-3.2099609-8.0599995-5.1101074-.7399902-.5400391-1.4699707-1.1101074-2.1799927-1.6999512-5.9400024-4.8000488-11.0999756-10.4899902-16.1499634-16.0900879-.0400391-.0500488-.0800171-.0900879-.1300049-.1398926-2.3300171-2.5900879-4.7200313-5.3701172-5.2399898-8.630127-.0300293-.0898438-.0400391-.1799316-.0500488-.2697754-.5199585-3.920166 1.7700191-7.670166 4.0500484-11.050293 10.75-15.8898926 23.3099995-30.8098145 37.3999634-44.4697266 1.9200439-1.8701172 4.3800049-4.6201191 7.0900269-7.4799824 4.5100098-4.7700195 9.7399902-9.800293 14.3999634-11.3500977.1700439-.0700684.3500366-.1201172.5200195-.1699219 7.8400269-2.1801758 17.0999756 2.0998535 24.5999756 3.6999512 7.2200317 1.5397949 10.9700317 4.2600098 13.5200195 7.7600098 3.3200073 4.5798359 4.5700073 10.5000019 8.7299805 16.8798847.3200073.5.6800537 1.0200195 1.0500488 1.5700684 2.7899798 4.1101076 6.5999773 9.6198732 5.4099749 14.1198732z" fill="#ec008c"/></g><g><path d="m91.8334122 49.5054779c4.0862045-1.5654984 6.4399948-5.8698845 5.7309952-9.779129s-4.1717453-7.2114067-8.3735352-8.5121021c-7.0538254-2.1835632-19.8234711-1.0103893-17.8656006 8.2845821 1.5176773 7.2036514 12.7806015 12.9672012 20.5081406 10.006649z" fill="#fff"/></g><g><path d="m107.9633636 27.8412762c-7.8300171-1.75-17.2700195.0898438-24.4199829 1.0297852-10.5599976 1.4001465-20.1799927 5.08008-29.0300293 11.0102558-18.4699707 12.3999023-31.829958 31.829834-45.0999756 49.3098145-.8300171 1.0900879-1.8800044 1.7102051-2.97998 1.9799805-.0300293-.0898438-.0400391-.1799316-.0500488-.2697754-.5198817-3.9195862 1.7693419-7.6690598 4.0490365-11.04879 6.6713533-9.8905487 14.0287428-19.3255577 21.925602-28.2661209 4.0549698-4.5908966 8.2576256-9.051239 12.5961876-13.3750839 3.8529854-3.83992 6.9866638-8.1797924 10.7172928-12.1593761 2.5116348-2.6792412 5.4822044-4.7925282 8.7477798-6.4518051 2.940834-1.4942741 4.935112-3.4159184 8.3621063-3.7462349 7.4360123-.7167339 14.5413284 2.7092285 21.6619949 4.2273407 7.220029 1.5397947 10.970029 4.2600096 13.5200167 7.7600096z" fill="#ff17ac"/></g><g><path d="m123.1533661 60.4111023c-1.25 4.7700195-8.3900146 11.3000488-11.4299927 15.5300293-8.1099854 11.2299805-16.210022 22.4699707-24.3200073 33.7102051-2.6499634 3.6799316-5.3800049 7.4299316-8.7700195 10.5498047-.1699829.0900879-.3499756.1699219-.5199585.25-.1099854.1899414-.2399902.3701172-.3900146.5500488 0 .0100098-.0100098.0100098-.0200195.0200195-1.3299561 1.1398926-2.7600098 2.1799316-4.3200073 3.0700684-10.3899536 5.9599609-24.5099487 4.2797852-35.1900024-1.25-2.8599854-1.4902344-5.5299683-3.2099609-8.0599995-5.1101074.4000244-.1599121.8300171-.2600098 1.3000488-.2900391-1.1799927-.4299316-2.3400269-.8999023-3.4800415-1.4099121-5.9400024-4.8000488-11.0999756-10.4899902-16.1499634-16.0900879-.0400391-.0500488-.0800171-.0900879-.1300049-.1398926 1.2799683-2.0700684 3.7600098-3.1899414 6.289978-1.3100586 8.5800171 6.3798828 18.1900043 11.6899414 29.1000385 12.2099609 10.7099609.5100098 21.0799561-3.0800781 29.8699951-9.0498047 9.0799561-6.1501465 15.6300049-14.7602539 21.7399902-23.7102051 6.0499878-8.8598633 11.8999634-17.9099121 15.1300049-28.2199707.6599731-2.1098633 2.2299805-3.1799316 3.9400024-3.4299316 2.7899781 4.1101075 6.5999756 9.6198731 5.4099732 14.1198731z" fill="#d8078d"/></g><g fill="#202020"><path d="m80.1909332 85.7262039c-.93927-.5461426-2.3723755-1.2385254-4.5339355-2.1530762-1.0866699-.4677734-2.3453369-.9343262-3.5314941-1.5795898-.588623-.3259277-1.1575928-.6982422-1.6286011-1.1538086-.4620361-.4387207-.8859863-1.0344238-1.3501587-1.842041-.5162354-.8764648-1.0492554-2.0507813-1.9570313-3.4101563-.4665527-.6738281-1.0577393-1.4069824-1.885498-2.0349121-.8093262-.621582-1.9046669-1.0983887-2.9180946-1.232666-1.0095215-.1533203-1.87323-.0969238-2.6167603-.0898438-.7373657.0136719-1.3475952-.0075684-1.7885742-.1394043-.8689575-.1975098-1.7453003-1.1618652-2.4738159-2.3374023-.7320557-1.1694336-1.4547119-2.5788574-2.5198975-3.6623535-.5410156-.5471191-1.1221924-.9865723-1.8115234-1.2946777-.6899414-.2956543-1.3599854-.3684082-1.9533081-.3364258-1.1949463.0593262-2.0898438.65625-2.4520264 1.2119141-.3677979.5683594-.3042603.951416-.1900024.9902344.1395264.059082.3566284-.1850586.7612915-.4008789.3995361-.2114258 1.0408936-.3779297 1.8165894-.2172852.7937622.1477051 1.4707642.6071777 2.092041 1.5195313.6248779.8920898 1.0641479 2.1115723 1.727417 3.5666504.3445435.7243652.7567749 1.4912109 1.3556519 2.2397461.5881348.7419434 1.4369507 1.4770508 2.4841309 1.8911133 1.0407104.4206543 2.0351563.4909668 2.8613892.5490723.8244629.0498047 1.5335083.078125 2.0424194.203125.5092163.1142578.8250732.3112793 1.1784668.5966797.3375244.2885742.6588745.697998.9623413 1.1787109.6069374.9782715 1.1340981 2.1630859 1.7509193 3.2331543 1.210144 2.1185837 2.4539719 3.3787155 4.6600952 4.5056152 1.6322021.8061523 2.9746094 1.1931152 4.0750732 1.5627441 2.2334595.7214355 3.7706299 1.1342773 4.8384399 1.3352051 2.1355591.4016113 2.3936768-.0454102 2.5897827-.5722656.196167-.5270997.2932129-1.0341798-1.5853272-2.1267091z"/><path d="m69.013382 93.1334305c-.7596436-.3649902-1.7139282-.6877441-2.8892212-.7810059-1.0731964-.0851822-1.9933777.100769-2.0944824.1113281-.0169678.0007324-.0231934-.001709-.0231934-.001709l-.0186806-.010498c-.0109863-.0073242-.0194702-.0166016-.0238647-.0283203-.0032959-.0085449-.0040894-.0178223-.0036621-.0256348l.0013428-.0109863c-.003418-.0114746.0220337.032959-.0531616-.1159668-.8184891-1.650177-1.4768944-3.0143509-2.3272705-4.4606934-.5883789-.9904785-1.3418579-2.1328125-2.3807983-3.2548828-1.0127563-1.1391602-2.4415894-2.1779785-3.7741089-2.9226074-1.3434448-.7751465-2.6424561-1.4125977-3.6902466-2.1784668-1.0450439-.7478027-2.0062256-1.7819824-2.9920654-2.8269043-.9894409-1.0454102-1.9956055-2.0900879-3.1467285-2.8847656-1.125-.7841797-2.2999878-1.2700195-3.336853-1.4660645-1.0405273-.2009277-1.9189453-.0900879-2.4664917.1074219-.553833.192627-.7909546.4411621-.7536621.5615234.0830078.3000488 1.2442017.0979004 2.7484131.8444824.7480469.3620605 1.5814819.9294434 2.369812 1.7175293.7774048.7653809 1.5384521 1.8110352 2.3696899 2.9592285.8370972 1.1445313 1.7728882 2.4511719 3.0754395 3.6062012 1.2923584 1.1442871 2.6824341 1.9560547 3.8374023 2.7441406 1.1843872.7895508 2.0519409 1.5136719 2.7851563 2.3977051 1.3580399 1.5900192 2.4489059 3.6987839 3.4204102 5.5554199.8293571 1.5647888.6297684 1.1932068.994812 1.8618164.1171875.2004395.242981.3911133.3824463.5639648.2771606.3474121.6054688.6286621.97229.8305664.4985962.2712402 1.0455322.3886719 1.5814819.3833008.5568199-.0030365 1.0221214-.1274261 1.1697426-.1520996l.1986694-.0461426c.3665161-.079834.7020874-.1286621 1.0373535-.1381836.6652832-.0187988 1.2617188.0874023 1.7662964.2219238 1.0147095.28125 1.6669922.659668 2.1425171.8959961.9368286.5092773 1.3046265.4211426 1.7176514.140625.1992798-.1286621.3856201-.2597656.4526978-.5339355.0650635-.2727051.0234375-.7094727-.3721924-1.3647461-.3963015-.6428221-1.1557009-1.5463866-2.6769411-2.2995604z"/><path d="m9.8407106 100.4491043c9.6854029 10.8637238 20.9643288 23.4658661 36.0802002 27.7575607 14.91362 4.5410919 28.5476036 1.6849365 39.0616493-11.2182541.0933075-.1148376 36.7710571-49.8738556 36.8539429-49.9890137.7754517-1.0622559 1.4705811-2.1240234 2.0449829-3.2255859.5725708-1.0844727 1.0648804-2.2392578 1.2241821-3.480957.1796265-1.213623.0835571-2.3413086-.1331177-3.3178711-.1907959-.9943848-.5147095-1.8479004-.8292236-2.628418-.6526489-1.5498047-1.3795166-2.7561035-2.0235596-3.7729492-1.3123779-2.0146484-2.3352661-3.2585449-3.0430908-4.1003418-1.4263306-1.6674805-1.7219849-1.6574707-1.9633179-1.5041504-.2335815.1479492-.3762207.4462891.6508789 2.3933105.5043945.9741211 1.3284912 2.34375 2.3865967 4.3549805.5154419 1.0075684 1.0974121 2.1801758 1.5726929 3.5541992.4456787 1.3574219.8643799 2.9797363.541748 4.546875-.1225586.7683105-.5078125 1.612793-1.0291748 2.5100098-.5101318.8947754-1.1637573 1.8273926-1.9158936 2.7883301-45.6082916 59.2675934-30.206955 40.550293-37.4284668 49.3486328-7.8571091 9.5609055-18.8829269 14.6985703-34.8067665 9.838623-14.1722107-4.0075073-25.1231651-16.248703-34.3240967-26.4240723-4.165122-4.6856003-5.5073733-7.7438965-2.4901733-13.2912598 10.2308722-18.8556213 49.0609703-59.8323212 56.259037-64.7351074 3.4897232-2.1277275 6.4073257-3.4046345 13.793457-2.1230469 3.8317261.6826172 7.4610596 1.8334961 11.0161133 2.7543945-1.451416 1.7729492-2.7739258 3.5432129-3.8657837 5.2980957-.6328735.9909668-1.1671143 1.9746094-1.6401367 2.9396973-4.1611099-.6255569-8.9859161-.356966-12.6203613 1.795166-1.1870117.7258301-2.2648926 1.7290039-2.9957275 2.9348145-2.5278168 4.1885071-.5287247 9.83638 3.1098022 13.1159668 4.272583 4.0240517 10.3637772 5.8743134 15.0556641 5.1135254.4782715-.0517578.8935547-.1740723 1.2540283-.2893066.3605347-.1113281.6662598-.2167969.925415-.3166504.5095825-.2543945.8323975-.4829102 1.0359497-.670166.4046021-.3796387.3341064-.6374512.2352905-.9006348-.0988159-.2629395-.2365112-.5004883-.736145-.6035156-.2495728-.0537109-.5846558-.0651855-1.0466309-.0444336-.484436-.0583496-1.0730591.0251465-1.8686523-.0478516-4.9028778-.2653847-9.2565842-2.3198357-12.0810547-5.1088867-3.0695648-3.0074806-4.3656693-7.4609184-.7807007-9.7949219 2.4736252-1.5766563 6.178833-1.9069538 9.1103516-1.7421875-.0361938.1132813-.085144.2346191-.1187134.3464355-.6154175 2.0437012-.7508545 3.7897949-.6871948 4.9697266.0522461 1.1835938.2490234 1.8166504.3713379 1.809082.357666.0021973.2230225-2.5949707 1.8081055-6.2438965.1013794-.2319336.2266235-.4785156.340271-.7180176.7369385.0981445 1.4680786.2202148 2.177124.3942871 2.2156982.5317383 4.2507324 1.6904297 5.7530518 3.2211914 1.4994507 1.5244141 2.3883667 3.4445801 2.4759521 5.2446289.0941772 1.8300781-.5213013 3.5217285-1.2991333 4.7504883-.767334 1.2590332-1.7072754 2.0715332-2.3727417 2.6115723-.6716919.5444336-1.1048584.8049316-1.0452271.9562988.0394897.1103516.5772095.1096191 1.4528198-.2438965.8643799-.3505859 2.109314-1.0466309 3.2372437-2.3779297 1.1290283-1.3015137 2.1681519-3.2546387 2.3040161-5.6782227.1414185-2.4399414-.8414307-5.0961914-2.6066284-7.1831055-1.7570801-2.0939941-4.2327881-3.7163086-6.9785767-4.550293-.4364014-.1330566-.8773804-.2316895-1.3172607-.3381348.4359741-.6806641.9002686-1.3686523 1.4286499-2.0664063 1.4107666-1.9094238 3.1506348-3.8608398 5.0534058-5.8481445.8198853.1845703 1.5967407.3745117 2.3790283.5563965 7.0515442 1.6786194 10.6601715 5.2462292 13.586792 10.9987793 1.2966309 2.5917969 2.3151245 4.9240723 3.2794189 6.7617188.4764404.9228516.9147949 1.7341309 1.3359375 2.4165039.4020386.6914063.7587891 1.2658691 1.0836792 1.708252.6271362.8972168.9825439 1.3464355 1.0413818 1.3081055.1192017-.0769043-.6367798-1.3388672-1.7805176-3.7390137.1472168.050293.3497925.0549316.6638794-.0300293.6411743-.1845703 1.7752075-.7290039 3.5768433-2.2404785 8.3376999-7.1574116 14.6546021-20.8873291 7.5080566-29.4931641-.8482056-1.1064453-2.1083984-2.1713867-3.4868164-2.9052734-1.3897095-.7629395-2.949646-1.2727051-4.5908203-1.5490723-9.8310089-1.6721623-19.2590332 5.7176275-26.0912476 13.6020508-.0545044.0632324-.1053467.1262207-.1595459.189209-12.6807785-3.4838533-18.5818863-6.4574652-27.6357422-1.1213379-8.0442696 5.275938-47.1127548 45.3687439-58.1456337 65.1184082-3.9113488 7.1229022-2.2458956 11.7756121 2.8688967 17.6486819zm108.4784575-91.5065918c2.4924316.465332 4.4906006 1.612793 5.5980835 3.0876465 5.7623596 7.017601-.5064087 17.9016743-6.3641968 24.8774414-1.4069214 1.6416016-2.184021 2.4699707-2.5039673 3.0214844-.0792236.1313477-.1304321.2441406-.1636353.3449707-.1599121-.3483887-.3220215-.7038574-.4921265-1.0910645-.8363037-1.8764648-1.7196045-4.2263184-2.9291382-6.9335938-.5983276-1.354248-1.3406372-2.7805176-2.2817383-4.2182617-2.2141266-3.153017-3.5209656-3.985754-6.1329956-5.6965332-1.7256012-.9113331-3.4521561-1.7220535-5.769104-2.3459473-.4313965-.1140137-.8764648-.2348633-1.3201904-.3540039 5.7846376-5.7758817 14.3523789-12.2304577 22.3590089-10.6921386z"/></g></g></svg>