<svg id="Layer_1" enable-background="new 0 0 135 135" height="512" viewBox="0 0 135 135" width="512" xmlns="http://www.w3.org/2000/svg"><g><g><path d="m129.2340393 36.3949928c-.3800049 8.1999512-1.6599731 16.1499023-3.7199707 23.8398438-5.1500244 19.4001503-15.1600342 37.1501503-27.8600464 53.1401405-.9599609 1.2199707-1.9400024 2.4199219-2.9400024 3.619873-3.039978 3.6601563-6.3599854 7.2001953-10.3399658 9.7600098-.6199951.4099121-1.2600098.7900391-1.9200439 1.1401367-3.6899414 1.9799728-7.7799683 2.9699631-11.9499512 3.1398849-1.0200195.0600586-2.0599976.0500488-3.0900269 0-4.4400024-.2299805-8.8900146-1.3300781-12.960022-3.1201096-8.8399658-3.8798828-16.0899658-10.6799316-22.2399902-18.0898438-10.8599854-13.1098631-18.7299805-28.6098631-23.1199951-45.0200193-.1499634-.5300293-.2799683-1.0600624-.4199829-1.5898476-2.6599732-10.4602051-3.9299927-21.2602539-3.6799927-32.0400391.0800171-3.2700195.289978-6.5400391.6499634-9.7900391l.1000366-.1000977.9699707-.9599609c1.0400391.4499512 2.1100464.8100586 3.2000122 1.1000977 5.0100098 1.3198242 10.4299927 1.0297852 15.5800171.1699219 13.3900146-2.25 26.1099854-8.2700195 36.3099976-17.1801758.5599976-.4897461 1.1300049-1 1.8399658-1.2197266 1.1600342-.3601074 2.3600464.1298828 3.4500122.75.0800171.0498047.1700439.0998535.25.1499023.1500244.0800781.2900391.1599121.4299927.25.8500366.5200195 1.7000122 1.0400391 2.5500488 1.5600586 8.2999878 5.0297847 16.8499756 9.7597656 26.0699463 12.7998047 9.3099976 3.0700684 17.0800171 2.3701172 26.5400391 2.5300293 4.8699951.0800781 6.3399658 2.920166 6.6300049 6.5500488.2299804 2.6999513-.2000123 5.8500978-.3300172 8.6101075z" fill="#8455ff"/></g><g><path d="m51.4636536 18.1708717c-2.1552124 12.4350586-5.5408326 24.5368653-10.1512452 36.2849121-2.3517456 5.9926758 7.3145142 8.5913086 9.6428223 2.6584473 4.6103516-11.748291 7.9959717-23.8498535 10.1512451-36.2849121 1.0908814-6.2939453-8.5441284-8.9973145-9.6428222-2.6584473z" fill="#8455ff"/></g><g><path d="m67.5740662 36.0448952c-.1900024 6.2099609-.4000244 12.420166-.6400146 18.630127-.1300049 3.5898438.4299927 8.2099609-1.6000366 11.3598671.6800537 1.0700684.960022 2.1298828 1.1500244 3.6499023.5599976 4.420166-4.0800171 5.7402344-7.25 4.0302734-6.3099976.579834-13.2700195-1.2700195-19.3200073-2.2302246-10.4899902-1.6599121-21.3499756-3.1499023-30.8999634-8.0998573-.1100464-.0600586-.2300415-.1201172-.3400269-.1699219-2.6599732-10.4602051-3.9299927-21.2602539-3.6799927-32.0400391.0800171-3.2700195.289978-6.5400391.6499634-9.7900391l.1000366-.1000977.9699707-.9599609c1.0400391.4499512 2.1100464.8100586 3.2000122 1.1000977 5.0100098 1.3198242 10.4299927 1.0297852 15.5800171.1699219 13.3900146-2.25 26.1099854-8.2700195 36.3099976-17.1801758.5599976-.4897461 1.1300049-1 1.8399658-1.2197266 1.1600342-.3601074 2.3600464.1298828 3.4500122.75 0 .2597656.0100098.5297852.0100098.7897949.0200195 1.1601563.0499878 2.3200684.0800171 3.4899898 0 .3200684.0100098.6401367.0199585.9599609.2300414 8.9902349.6300048 18.0700689.3700561 26.860108z" fill="#fff200"/></g><g><path d="m125.5140686 60.2348366c-.2900391 1.0800781-.5900269 2.1601563-.9100342 3.2302246-5.3599854 18.1398964-14.960022 34.8098183-26.9500122 49.9099159-1.9500122 2.2700195-3.9500122 4.4899902-6 6.6599121-2.2600098 2.3901367-4.6399536 4.75-7.2799683 6.7199707-.6199951.4099121-1.2600098.7900391-1.9200439 1.1401367-4.5999756 2.4599533-9.8199463 3.3998947-15.039978 3.1398849-.039978-1.1201172-.0899658-2.2299805-.1599731-3.3398361-.3200073-5.2299805-.8800049-10.3901367-.8600464-15.6101074.0400391-7.3898926.3000488-14.7700195.7900391-22.1398926.1599731-2.4799805.3499756-4.9602051.5599976-7.4301758.1699829-1.8999023-.1600342-3.6799316-.0900269-5.4799805.1300049-3.8598633 4.7600098-3.5300293 7.4700317-3.7199707 3.3299561-.2199707 6.6599731-.5900879 9.9599609-1.130127 5.8300171-.9599609 11.5599976-2.4399414 17.2800293-3.9299316 3.2600098-.8400879 6.5299683-1.6899414 9.789978-2.5397949 1.3500366-.3500977 2.7399902-.7001953 4.1100464-1.1000977 2.1499634-.620121 4.2699585-1.3501015 6.2099609-2.3601112 1.0800171-.5798339 2.1099854-1.2399901 3.0400391-2.0200194z" fill="#fff200"/></g><g><path d="m67.4510117 129.7847443c-.6488724 1.6316376-1.5027008 1.1840057-3.1888809.9427032-3.3779831-.4834137-6.6842918-1.4416199-9.8081512-2.8126907-8.8399506-3.8798828-16.0899429-10.6799316-22.2399597-18.0898285-10.8599855-13.1098633-18.7299806-28.6098633-23.1199952-45.0200195 2.1199951-1.1098671 4.8400269-.8501015 6.2399902 1.9199219 6.2800293 12.4501953 14.1300049 24.9001465 22.7300415 35.880127 4.3545036 5.5595551 9.2165604 10.7715836 14.7602997 15.164566 2.852005 2.2599945 5.8835182 4.299057 9.0904579 6.0218124 1.3797989.7412262 3.8271828 1.3044434 4.9415474 2.3385468.8909988.8271789 1.0285187 2.5638732.5946503 3.6548614z" fill="#6944f2"/></g><g><path d="m70.3240662 5.9050031c-.1800537.2900391-.4100342.5698242-.6700439.8498535-.7000122.7399902-1.4199829 1.4499507-2.1499634 2.150146-.1000367.0998535-.2000123.1899414-.3000489.2797852-9.6799927 9.1501465-21.8499756 15.130127-34.7399902 18.4401855-8.2399902 2.119873-18.2299805 4.2700195-27.4699707 3.5500488.0556445-2.2739964.3677883-4.5703125.3652797-6.8389301-.0013084-1.1836586-.6665468-3.6311913 1.161427-3.9016018.4443607-.065733.8812313.1296196 1.2880259.3201332 5.223815 2.4464741 12.1063242 1.8212337 17.6852684.8403206 13.3900146-2.25 26.1099854-8.2700195 36.3099976-17.1801758.5599976-.4897461 1.1300049-1 1.8399658-1.2197266 1.1600342-.3601074 2.3600464.1298828 3.4500122.75.0800171.0498047.1700439.0998535.25.1499023.1500244.0800781.2900391.1599121.4299927.25.8500356.5200201 1.7000111 1.0400396 2.5500478 1.5600592z" fill="#fff680"/></g><g><path d="m129.3140564 28.4098854c-21.4800415 2.0100098-42.4400024-5.2600098-60.4500122-17.2399902-.710022-.4699707-1.2299805-1.0300293-1.6099854-1.6398926-.1199951-.2202148-.2399902-.4501953-.3200073-.6801758-.460022-1.1298823-.4400024-2.3698726-.0800171-3.4899898.0700073-.2199707.1500244-.4399414.2399902-.6398926.1500244.0800781.2900391.1599121.4299927.25.8500366.5200195 1.7000122 1.0400391 2.5500488 1.5600586 8.2999878 5.0297847 16.8499756 9.7597656 26.0699463 12.7998047 9.3099976 3.0700684 17.0800171 2.3701172 26.5400391 2.5300293 4.8699951.0800777 6.3399658 2.9201656 6.6300049 6.5500484z" fill="#977bff"/></g><g><path d="m124.6040344 63.4650612c-5.3599854 18.1398964-14.960022 34.8098183-26.9500122 49.9099159-1.9500122 2.2700195-3.9500122 4.4899902-6 6.6599121-2.2600098 2.3901367-4.6399536 4.75-7.2799683 6.7199707-.6199951.4099121-1.2600098.7900391-1.9200439 1.1401367-4.5999756 2.4599533-9.8199463 3.3998947-15.039978 3.1398849-.039978-1.1201172-.0899658-2.2299805-.1599731-3.3398361.3800049-.6601563 1.0199585-1.25 1.9299927-1.7001953 25.0499878-12.3598633 37.9400024-36.7700195 46.8300171-60.8300781.0699463-.1899414.1499634-.3798828.25-.5498047 1.2099609-2.3999062 3.9799805-3.0200233 6.2099609-2.3601112.8200073.2399902 1.5700073.6501465 2.1300048 1.2102051z" fill="#f2e003"/></g><path d="m5.6450191 21.3870983c-.279541-.0297852-.5614624.1274414-1.0204468 2.6960449-1.7936535 10.1998883-.738569 22.4325276.9029541 32.7011738.1554565.8725586.3627319 1.7575684.5495605 2.6699219 5.9306169 28.6288757 25.2120404 60.5634537 47.7979131 70.4191894 3.9083862 1.6870117 8.2162476 2.8100586 12.7703857 3.1494141 4.5443115.3034668 9.3796997-.222168 13.9851685-2.0566406 16.9908829-6.5974426 37.1328201-42.4319458 43.3359375-59.6352539 4.8211823-13.3808098 7.3551483-28.1588058 7.3444824-41.7141113-.0793304-7.205122-2.9304962-10.0005817-9.1348267-10.0075684l-2.6237793-.0036621c-17.2068634.0630684-24.4725647-.2892475-50.0290527-15.6201172-.6506348-.3842773-1.260376-.7741699-1.9874268-1.1721191-.7192993-.3818359-1.526001-.7563477-2.5077515-.8793947-.9649048-.1523438-2.149231.1752931-2.8763428.7199708-.7560425.5356445-1.2241211 1.0258789-1.7758179 1.4741209-15.0894125 13.1034148-35.1158922 18.5741122-46.2979744 17.6223128-4.8155518-.3811035-7.2934566-1.6257324-7.3594966-1.4255371-.0216675.0471191.5567627.4177246 1.7669063.8862305 1.206665.4643555 3.0526733 1.0490723 5.508728 1.3557129 11.2167006 1.5637341 31.9026222-3.3707047 47.8580933-16.7050781.5703125-.4543457 1.1403809-.9875488 1.586792-1.2807617.4653931-.300293.7945557-.364502 1.2960815-.3076172.5332031.0678711 1.12677.3459473 1.760376.7094727-.8586426 5.8686523-1.4887085 42.2434082-1.6182251 67.1088867-16.5764275.5229034-39.6219559-1.4965515-54.3555908-8.7714844-.4230347-1.5766602-.8095093-3.1135254-1.1445313-4.5830078-3.7382922-16.5698547-3.089036-28.5930061-3.1730342-34.5195313-.0296021-2.5759278-.2796021-2.8010255-.559082-2.8305665zm73.4761357 105.7966328c-3.6623535 1.4604492-7.5750122 1.9677734-11.3584595 1.8168945 1.4739456-4.7387238 1.1856155-45.4021225 1.1291504-53.1806641 22.3090744-.8046341 43.891777-7.2868576 53.1827393-12.5522461.2792969-.1589355.5346069-.3112793.7816772-.4609375-.7318726 2.4477539-1.5390625 4.862793-2.414856 7.237793-5.8146591 15.7546616-25.8943557 51.2695847-41.3202514 57.1391602zm-12.1022339-121.8891621c.3991699.2453613.8104248.5095215 1.2327271.7692871 25.2561722 15.7527523 33.7360458 16.6026573 51.2940674 16.7456055 1.6990967.0332031 3.5786743-.0244141 4.8759766.2302246 1.3822021.296875 2.303894.9589844 2.8494263 2.1269531.5279541 1.2033691.6789551 2.8029785.6629028 4.4411621-.0729599 8.3604145-1.4131699 19.6438656-4.1231079 29.8010273-.7422485.3183594-1.7099609.7424316-2.9968262 1.2697754-13.4856796 5.494873-32.6644821 10.1463776-51.9545898 11.2341309-.2266237-24.4523926-.9783937-59.8928242-1.8405763-66.618166zm-2.157898 70.6174336c-.0216827 6.725975-.1391144 47.952179 1.3078613 52.9807129-3.7737427-.3620605-7.3939209-1.3225098-10.687561-2.7387695-16.2996025-7.0649033-30.075428-26.6962051-37.6367188-42.6933594-3.2794809-7.0895996-5.5247202-13.5783691-7.1213999-19.3776855 9.8792297 8.8954238 40.5624438 11.9421691 54.1378184 11.8291015z" fill="#202020"/></g></svg>