<svg id="Layer_1" enable-background="new 0 0 135 135" height="512" viewBox="0 0 135 135" width="512" xmlns="http://www.w3.org/2000/svg"><g><g><g><path d="m118.1296997 70.9435272c-3.75 10.119873-6.6900635 20.5100098-10.7399902 30.5200195-.1000977.25-.2000732.5-.3000488.7399902-.25.5900879-.4899902 1.1799316-.7399902 1.7600098-4.9200439 11.5-8.0200195 18.2900391-21.8601074 17.8398438-9.0499268-.2998047-18.0898438-.5898438-27.1398964-.8898926-5.3601074-.170166-10.7099609-.3400879-16.0700684-.5200195-7.5899658-.2399902-10.8399658-3.1501465-13.1199951-7.9599609-.9899902-2.0700684-1.789917-4.4899902-2.6900635-7.1999512-3.3898926-10.25-6.3898926-20.630127-8.9799805-31.0900879l98.9899902-3.119873z" fill="#ff872a"/></g><g><path d="m130.2896118 67.82341c-2.3200684 3.5800781-7.3000488 4.3300781-11.6599121 4.6899414-27.3300781 2.2202148-54.5200195.9501953-81.6501465 1.880127-7.869873.2700195-16.5198975.6101074-24.0898438-1.8200684-.1800537-.0600586-.3601074-.119873-.5400391-.1899414-5.1101074-1.9199219-9.9200439-7.6499023-7.9000244-11.989994.289917-.6398926.7399902-1.2399902 1.3499756-1.8000488.7099609-.6599121 1.6500244-1.25 2.8500977-1.75 6.5098877-2.7099609 20.3398438-.1799316 27.539917-.25.2700195 0 .539917-.0100098.8099365-.0100098.630127 0 1.25-.0100098 1.880127-.0100098 8.7399902-.0800781 17.4899902-.1599121 26.2299843-.2399902 9.7299805-.0900879 19.4499512-.1799316 29.1699219-.2700195.1800537 0 .3500977-.0100098.5300293 0 4.9599609-.0500488 9.9099121-.0998535 14.8699951-.1398926 1.6199951-.0200195 3.7399902-.3200684 5.9700928-.6101074 1.4299316-.1899414 2.9099121-.369873 4.3198242-.4599609 2.1101074-.1398926 4.0800781-.0998535 5.5400391.3898926 4.6800498 1.5900878 7.4000205 8.5200194 4.7800254 12.5800818z" fill="#ff9a55"/></g><g><path d="m62.8496666 30.8834667c-6.0500488 6.9101544-12.3100586 13.6999493-18.7800293 20.3798809-1.7099609 1.7802734-3.4499512 3.5500488-5.1899414 5.3100586l-.1900635.1899414-1.6900635-.1799316-12.2199707-1.2800293c12.5100098-12.5998535 20.3601074-27.66992 33.5800781-39.8398438 1.0899658-.9899902 2.3399658-2.0300293 4.0100098-2.2600098 1.7199745-.2399902 3.3299599.4599609 4.4799843 1.5300293.6099854.5498047 1.0899658 1.2099609 1.3898926 1.8798828 2.1900635 4.8601094-1.6398926 10.000002-5.3898964 14.2700215z" fill="#ff9a55"/></g><g><path d="m116.0496216 55.8534355-21.2800293.380127-.3798828.0097656c-.0400391-.0598145-.0700684-.119873-.1101074-.1799316-5.5899658-9.0300293-11.5-16.119873-14.8599854-26.5598125-.4100342-1.2700195-.8199463-2.6401367-.7999268-3.9501953v-.0097657c.0100098-.5800781.0899658-1.1401367.289917-1.6901855.1800537-.4799805.4300537-.8898926.7401123-1.25 1.2799072-1.4699707 3.539917-1.9399414 5.4199219-1.3798828 1.7900391.5397949 3.2900391 1.7697754 4.6699219 3.1398926.4200439.4101563.8300781.8400879 1.2399902 1.2700195 8.7900391 9.3200665 17.0300293 19.2399883 24.670166 29.6799297.1398926.1799316.2698975.3601074.3999024.540039z" fill="#ff9a55"/></g><g><path d="m107.3897095 101.4635468c-.2200928.2099609-.4400635.4199219-.6601563.6298828.1201172.0300293.2399902.0600586.3601074.1101074-.25.5900879-.4899902 1.1799316-.7399902 1.7600098-4.9200439 11.5-8.0200195 18.2900391-21.8601074 17.8398438-9.0499268-.2998047-18.0898438-.5898438-27.1398964-.8898926-5.3601074-.170166-10.7099609-.3400879-16.0700684-.5200195-7.5899658-.2399902-10.8399658-3.1501465-13.1199951-7.9599609.4901123-.130127 1.0400391-.1799316 1.6400146-.130127 17.8200684 1.3500977 36.199955.3701172 52.8699989-6.6398926 8.2999268-3.5 15.9100342-8.4499512 21.5799561-15.5300293 4.6201172-5.7700195 8-12.4699707 11.2299805-19.1098633l2.6501465-.0800781c-3.75 10.119873-6.6900635 20.5100097-10.7399902 30.5200195z" fill="#f9761e"/></g><g><path d="m94.8096313 56.0633965c-.0100098.0600586-.0200195.1101074-.0400391.170166-.1899414.7099609-.5500488 1.3598633-1.0100098 1.9099121-.5300293 1.8898926-2.0699463 3.4599609-4.619873 3.4599609-15.2700195.0200195-30.5300331.0200195-45.8000526.0500488-7.6999512.0100098-15.5200195-.0700684-23.1101074 1.3398438-2.9899902.550293-6.579834.7602539-7.829834 3.9101601-.6801758 1.7199707-.6000977 3.6799316-.0500488 5.4799805-5.1101074-1.9199219-9.9200439-7.6499023-7.9000244-11.989994.4000244-.6599121.8499756-1.2600098 1.3499756-1.8000488.7099609-.6599121 1.6500244-1.25 2.8500977-1.75 6.5098877-2.7099609 20.3398438-.1799316 27.539917-.25.2700195 0 .539917-.0100098.8099365-.0100098l-12.2199707-1.2800293c12.5100098-12.5998535 20.3601074-27.66992 33.5800781-39.8398438 1.0899658-.9899902 2.3399658-2.0300293 4.0100098-2.2600098 1.7199745-.2399902 3.3299599.4599609 4.4799843 1.5300293-5.8900185 5.6799316-11.739994 11.4299316-17.1700478 17.5600567-3.0510788 3.4444351-5.8640366 7.0890274-8.6713104 10.7320175-1.4435234 1.8732491-2.8814774 3.7511902-4.3544769 5.6014633-3.627533 4.5566368 5.0741081 2.671978 7.415802 2.6362457-1.7099609 1.7802734-3.4499512 3.5500488-5.1899414 5.3100586 8.7399902-.0800781 17.4899902-.1599121 26.2299843-.2399902 9.7299805-.0900879 19.4499512-.1799316 29.1699219-.2700195-5.5899658-9.0300293-11.5-16.119873-14.8599854-26.5598125-.4100342-1.2700195-.8199463-2.6401367-.7999268-3.9599609.2999268-.9902344.6398926-1.9702148 1.0300293-2.9401855 1.2799072-1.4699707 3.539917-1.9399414 5.4199219-1.3798828 1.7900391.5397949 3.2900391 1.7697754 4.6699219 3.1398926-1.3598633 2.7700195-2.2600098 5.7099609-2.3199463 8.7299786-.1500244 7.0600586 3.5799561 13.5300293 6.8499756 19.5300293.6600341 1.2099626.7900389 2.3801286.5400389 3.4399431z" fill="#ffa76c"/></g></g><path d="m12.5744886 74.5003281c.5720215.1655273 1.1380615.3583984 1.711792.4924316.7570801.1967773 1.512207.3618164 2.2661142.5136719 1.0041485 6.8857269 8.0996838 35.4600143 12.3110352 41.0014648.9338379 1.2319336 2.0983887 2.4128418 3.5046387 3.2319336 2.7963867 1.6882324 6.019043 2.2231445 9.0124512 2.3486328 43.4360847 1.884964 44.9344902 1.8894272 47.6734581 1.5969238 2.019165-.2438965 4.0240479-.6035156 5.880249-1.4162598 1.8417969-.7788086 3.5743408-1.8352051 4.9138184-3.1616211 1.3527832-1.2993164 2.4766846-2.7104492 3.3409424-4.1289063 5.4206772-8.3894958 11.2647095-27.9745483 13.5922852-35.8676758.6074219-2.0883789 1.0184326-3.6164551 1.2915039-4.7600098.1590576-.013916.3259277-.0273438.4835205-.0412598 13.3446884-1.2031937 15.9362106-7.5569382 13.517952-13.9477539-1.3470459-3.432373-3.7615967-5.3781738-5.8486404-6.0488281-1.048584-.376709-1.9384766-.4101563-2.645752-.4291992-.7144775-.0090332-1.2775879.0456543-1.7312012.105957-1.802124.276123-1.8905029.597168-1.8770752.8649902.0142822.2929688.182373.5068359 1.8817139.7202148.4213867.0610352.9381104.1262207 1.5452881.2414551.604126.1213379 1.3129883.2609863 1.9935303.6154785.7039795.3166504 1.4595947.8583984 2.1676025 1.6711426.7038651.8066406 1.3858719 1.8840332 1.8022537 3.2263184 2.3490295 7.0136261-3.8041611 8.9308624-11.0942459 9.4108887-11.5845642.7806091-90.426506 1.8389969-90.5270996 1.8381348-4.1201172-.0371094-8.3666992-.3181152-12.4819345-1.3518066-4.6448565-1.0263672-7.9554291-4.0477295-9.0714111-6.9829102-2.9781561-7.9588928 12.4480629-7.0314331 20.376709-6.5185547 9.743866.6656876 7.3687286.4693604 14.3117676.3999023 4.6799316-.0876465 9.2973633-.1740723 13.8081055-.2585449 18.043087-.3500977 34.3807335-.7197266 46.2072716-1.0722656 2.9562988-.0964355 5.6309814-.1838379 7.9801025-.260498 2.3970947-.041748 4.4237061-.4458008 6.0478516-.7062988 3.256958-.5810547 5.0584717-.8330078 5.0524902-.9726563-.005249-.1364746-1.7432861-.1560059-4.824585.1289063.4472656-.3286133.765625-.78125-1.4685059-4.4077148-1.1280518-1.8139648-2.8990479-4.4279785-5.7156982-8.1574707-3.4031448-4.473587-16.3494186-20.8768082-21.7886963-22.8730469-2.9610977-1.0886307-6.5211487-.2421684-8.3074951 2.3789063-.6357422.9387207-.956543 2.0522461-1.0147705 3.0737305-.3830948 7.4088364 9.6985626 21.3156624 13.4888916 26.4187012 1.2180176 1.6049805 2.1917725 2.8781738 2.8864746 3.7189941-10.8140869-.0871582-24.1435547-.1342773-38.5698204-.1489258-4.0604248-.0012207-8.2156982-.0026855-12.4168701-.0039063.4350586-.3652344.9223633-.7875977 1.4812012-1.2875977 2.0493164-1.8425293 4.9915771-4.6628418 9.1768799-9.0007324 3.4574203-3.5880013 13.7308769-14.3997803 16.2480431-18.9428711.7554932-1.4069824 1.4675293-3.0883789 1.6960449-5.1066895.3370056-4.022541-1.4182739-7.0084219-4.3405762-8.5739756-3.726963-1.9639502-6.8793411-.5078783-9.8715782 2.4570313-5.869751 5.5600595-11.0185547 12.3254404-15.4893799 18.5251465-4.456543 6.2260742-8.416626 11.8405762-11.4969482 15.7578125-1.9455566 2.5087891-3.4698486 4.359375-4.2686768 5.4335938-1.9083252-.1535645-3.828125-.2937012-5.7719727-.3625488-6.5683756-.2126045-15.9338865.4059982-17.3182373 7.1760254-.357666 1.581543-.1015625 3.1557617.3814697 4.4846191 1.6156285 4.2671977 5.9230983 7.7845317 9.9077184 8.9575206zm102.9873019.0610351c-.4230957.9519043-.9172363 2.1323242-1.5078125 3.6252441-3.8098602 9.5286407-10.6529465 32.0493317-16.972168 37.9606934-5.5033264 5.263855-9.8585587 3.5527115-55.591671 2.565918-2.7414551-.0385742-5.387085-.4726563-7.5100098-1.6708984-6.6582756-3.7597504-10.0722694-22.2245331-16.8188477-41.4174805 3.5987549.6723633 7.1453857.8886719 10.5341797.9431152.1013509.0014877 69.55122-.5302505 87.8663293-2.0065918zm-23.8984375-24.0185547c-.8022385-1.4214134-11.9451141-19.4952564-11.2420654-25.2561035.1212158-1.0507813.6236572-1.6672363 1.5078125-2.0791016.895752-.3896484 1.973999-.3942871 2.8918457-.015625 4.6087952 1.8323364 21.641449 23.6179237 26.5493164 29.105957 1.5819092 1.7839355 2.4327393 2.5178223 2.9559326 2.7590332-1.5571289.1376953-3.3720703.3447266-5.4658203.2658691-7.5972443-.10812-8.3044968-.1258774-14.7749023-.1799316-.4279786-.9858398-1.2539063-2.5756835-2.4221192-4.6000976zm-60.8151818-.7004394c3.4882813-3.6433105 7.8597412-9.0751953 12.5866699-15.0478516 4.7449951-5.954834 10.0081787-12.3615723 15.7558594-17.5229492 5.5628395-5.3636599 9.687191.4359531 6.3760948 6.5383301-1.7482681 3.1709156-3.9225311 5.4717369-15.4139366 18.3271484-4.0075684 4.4494629-6.7181396 7.4589844-8.4940186 9.5490723-1.3140869 1.5390625-2.1153564 2.576416-2.5860596 3.2956543-5.2881393.0190926-5.298687-.0400925-12.2486572-.6235352-.197876-.0168457-.3985596-.0302734-.5968018-.046875 1.0776368-.9089355 2.6761476-2.4104004 4.6208497-4.4689941z" fill="#202020"/></g></svg>