<svg id="Layer_1" enable-background="new 0 0 135 135" height="512" viewBox="0 0 135 135" width="512" xmlns="http://www.w3.org/2000/svg"><g><g><path d="m112.7208862 17.3665333c-1.7700195 34.7600098-3.5400391 69.5200195-5.3099976 104.2797852-.0800171 1.7001953-.2200317 3.5400391-1.3200073 4.8400879-1.2800293 1.5100098-3.4500122 1.8300781-5.4199829 2.0300293-18.1600342 1.8601074-54.6800575 9.7299805-68.5800171-6.5100098-12.2399883-14.2800293-10.6000347-44.9499512-9.5499859-61.9799767.5599976-9.0998535 2.2799683-24.9099121 7.2099609-37.2600098 2.9800396-7.4799805 7.1400127-13.6999512 12.920042-16.4099121 3.0499878-1.420166 7.1799927-1.9602051 11.4699707-2.130127 5.2700195-.2199707 10.7600136.1000977 14.7299843-.0400391 11.5800171-.3999023 23.1700439-.1298828 34.7200317.8200684 2.1499634.170166 4.4299927.420166 6.1599731 1.7199707 3.0700037 2.3000451 3.1700403 6.8000451 2.9700281 10.640133z" fill="#fff064"/></g><g><path d="m52.8133545 7.8663139c-.6696815 4.1980286-.4919472 10.2174397-3.2441978 13.5261688-3.112587 3.7419224-8.0005455 3.4512234-12.2382889 1.9840603-1.7600098-.0700684-3.5-.2399902-5.0100098-.3701172-.3499737.0100098-.7000103-.0200195-1.0299664-.0900879-.25-.0097656-.4800415-.0297852-.710022-.0397949-.289978-.0100098-.5700073-.0500488-.8300171-.1101074 2.9799824-7.4798288 7.1398449-13.6996984 12.9196911-16.4097481 3.2099113-1.5050583 11.122303-4.5001254 10.1599731 1.4035921-.005783.0352135-.011505.0705591-.0171622.1060343z" fill="#ead513"/></g><g><path d="m86.3332748 107.0155792c.8993759-.2485046 1.8652267-.4879227 2.7092972-.1312943 1.1930771.504097 1.7268829 2.0044022 2.0186615 3.38871.4539871 2.1538315.6210632 4.3951492.4943161 6.6310883-.0444031.783371-.1541443 1.6371002-.6658401 2.2032242-.2990875.3308868-.6982117.5181274-1.0857391.6969299-3.6743011 1.6953125-7.3486023 3.390625-11.0228958 5.0859299-1.6059952.7410049-3.2368927 1.4895782-4.9442673 1.7313843-1.7073441.241806-3.531044-.0835953-4.7986221-1.2949524-1.829567-1.7484283-3.0217133-5.3764496-2.1681137-8.0128708 1.1193848-3.4573059 4.5837708-4.1678925 7.1876984-5.6936646 3.8726729-2.2691878 7.9646071-3.4133529 12.2755049-4.6044845z" fill="#ff926a"/></g><g><path d="m98.3308716 25.0564747c-3.4394455.1566105-9.3913498.053688-12.8222351-.2349205-2.1888351-.1841278-4.7584839-.7348766-5.6097336-2.7597866-.7485504-1.7806187.2904129-3.852457 1.7226486-5.1484623 2.3598251-2.1353598 5.7303925-2.9267912 8.896843-2.6071978 2.7748871.2800732 5.5556641 1.4308271 7.3173065 3.5930204 1.7616501 2.1621933 2.2832565 5.4216404.8322449 7.8034515" fill="#e6e7e8"/></g><g fill="#202020"><path d="m91.2207947 108.144043c-.4123535-.7695313-1.0415039-1.4538574-1.7869263-1.7421875-.7466431-.2983398-1.3999023-.1896973-1.8453979-.0776367-.9006348.2644043-1.2825928.5678711-1.255188.6914063.0319824.1486816.5480347.1037598 1.3504639.1237793.3947144.0205078.8531494.0876465 1.2098389.3461914.3636475.2478027.6674805.6967773.887146 1.3212891.9202728 2.7577133.6631699 8.4305954.2003784 9.2067871-.0501099.0837402-.1134033.1506348-.1893921.2009277-.1823654.1163559.2953186-.0992126-13.835022 5.8676758-2.029068.7541122-4.314682 1.1677017-5.7532349-.4472656-1.628891-1.9419403-2.7482452-6.0445633.7094116-8.168457.885498-.5466309 1.9154663-1.0080566 2.935791-1.532959 5.9943314-3.1837387-1.6102753.2987595 9.5246582-4.581543 3.0930786-1.2807617 3.1184082-1.7888184 2.9599609-2.3364258-.1541748-.5324707-.4039917-1.0195313-3.7816772-.423584-5.8673782 1.1742401-8.4163895 2.8667831-10.4290161 3.8562012-.9093018.432373-2.0199585.8757324-3.276062 1.6054688-2.755661 1.6177826-4.1158447 4.0114288-4.2657471 6.5366211-.1949844 2.7678452.878746 5.7525253 2.6008301 7.7041016 2.6383438 2.9556274 6.4794693 2.8056641 10.1565552 1.2768555 1.2227783-.5175781 2.3052368-1.079834 3.414856-1.6191406 1.107666-.5483398 2.2212524-1.0998535 3.3305664-1.6489258 6.9798203-3.5149994 6.9755554-3.4439087 7.5709229-3.982666.3616333-.328125.638855-.7412109.821228-1.1777344.9234008-2.2887728.0207442-8.6671298-1.2549439-10.9987795z"/><path d="m43.8420677 130.6499023c5.4960327 1.6945801 10.9053955 2.1501465 15.9028931 2.3122559 11.4440346.2453918 22.4147606-1.4236908 33.7057533-3.1606445 2.3261719-.378418 4.1326904-.6721191 5.3588257-.871582 1.2243652-.2043457 1.8654785-.342041 1.8583374-.4125977-.0070801-.0693359-.6625977-.0698242-1.9058228-.0012207-1.2417603.0766602-3.0704956.2294922-5.4172974.4714355-11.0780182 1.0725403-21.668129 2.5658722-33.5291786 2.034668-4.881958-.2695313-10.1279297-.8381348-15.2758789-2.5397949-8.3845825-2.8097916-13.5034046-7.5315247-17.0896606-17.6218262-3.0301533-8.5730667-3.9108009-19.1931686-4.0218506-28.3278809-.0865479-6.6125488.2142334-13.3261719.6539307-20.0793495.7293339-12.5375366 2.7651062-27.3296318 7.3880615-38.9455566 1.7128296.5803223 4.0507202 1.262207 6.6499023 1.9619141 1.347168.3500977 2.7570801.7165527 4.1777344 1.0859375 1.3731079.3417969 2.953125.7954102 4.9214478.5429688.9656982-.1245117 2.1654053-.6013184 2.9838867-1.5637207.8188477-.9770508 1.0354614-1.9848633 1.203064-2.6525879.277832-1.2624512.5350342-2.4306641.7599487-3.4526367 1.5241089-7.3391113 2.0952759-11.1794434 2.1520996-13.2182617 2.1611443-.0831695 30.4824944-.5106196 47.4409218.6896973 1.0438232.0849609 2.1120605.152832 3.0534668.263916 3.4611206.3965874 5.4330597 1.5885038 5.8546143 5.996582.1776733 1.7397461.0682373 3.5390625-.0292969 5.4584961-.8794937 17.7204018-.6815567 13.7166862-2.4865112 51.6696815-.8362656 18.2582245-1.4902267 33.2998352-1.9255371 49.2519531-.0560913 1.7978516-.0101318 3.354248-.2120361 4.4631348-.192627 1.1408691-.6211548 1.8447266-1.1799927 2.3347168-.557312.4938965-1.1975708.7719727-1.727356.980957-1.0849609.3977051-1.7522583.5656738-2.0817871.7460938-.3381958.1696777-.3713989.310791-.3568726.4506836.0144653.1396484.0736084.2719727.447937.3649902.3771973.0776367 1.0618896.1772461 2.4002686-.0302734.6624756-.1257324 1.5264282-.3205566 2.4910889-.9658203.4749146-.3225098.9607544-.7783203 1.3557129-1.3647461.3896484-.5864258.6813965-1.2807617.8728027-2.0183105.3843384-1.5048828.4144287-3.060791.5773926-4.829834 1.1963196-16.0409241 2.0711594-31.0746689 3.0859985-49.1928711 2.0814667-38.3643494 1.8695755-34.3367462 2.7734375-51.6550331.4321594-8.5054111-.3768234-14.6098366-9.3794556-15.6992188-11.5023499-1.3460457-47.8496399-1.3852068-55.3143349-.5739747-7.3251572.8831241-12.3916588 3.1327376-17.2050781 10.2661133-1.9498291 2.8583984-3.4459229 5.9614258-4.7263184 9.1350098-4.7473049 12.124771-6.7230739 27.3503646-7.3363647 40.3012695-.8149452 15.3776588-1.1895123 35.095417 4.1633301 49.5354042 4.0407104 10.83432 9.8526382 15.9994735 18.9677734 18.8598632zm-7.9164429-115.6638221c4.2247505-6.1769171 8.3118591-7.8023567 14.486084-8.5134277.2533569-.026123.5084229-.0402832.7623901-.0627441-.7227173 2.0852051-1.659668 5.7600098-2.9953613 12.1918945-.1992188 1.0185547-.427002 2.1833496-.6731567 3.4416504-.100769.5786133-.2282715.9138184-.2927856 1.0043945-.0645752.1008301-.2141724.255127-.6497192.355957-.866333.2126465-2.2319336.0686035-3.6912842-.1760254-1.4329834-.199707-2.8550415-.3977051-4.2138062-.5871582-2.4779053-.322998-4.7523804-.5754395-6.5140381-.7045898 1.0838013-2.4624024 2.3093262-4.8266602 3.7816772-6.9499512z"/><path d="m49.8959007 47.9072227c8.539978 0 8.7185669-.9116211 8.7185669-2.0361328 0-1.1247559-.1785889-2.036377-8.7185669-2.036377-4.6795654 0-14.7220459.9116211-14.7220459 2.036377 0 1.1245118 10.0424805 2.0361328 14.7220459 2.0361328z"/><path d="m57.0517235 65.9523926c0-1.1247559-.1726074-2.0363808-8.4279175-2.0363808-4.5235596 0-14.2312622.9116249-14.2312622 2.0363808 0 1.1245117 9.7077026 2.0361328 14.2312622 2.0361328 8.2553101 0 8.4279175-.9116211 8.4279175-2.0361328z"/><path d="m88.4024963 47.9072227c8.539978 0 8.7185669-.9116211 8.7185669-2.0361328 0-1.1247559-.1785889-2.036377-8.7185669-2.036377-4.6795044 0-14.7219849.9116211-14.7219849 2.036377.0000001 1.1245118 10.0424805 2.0361328 14.7219849 2.0361328z"/><path d="m87.1304016 67.9885254c8.2553101 0 8.4279785-.9116211 8.4279785-2.0361328 0-1.1247559-.1726685-2.0363808-8.4279785-2.0363808-4.5234985 0-14.2312622.9116249-14.2312622 2.0363808 0 1.1245117 9.7077637 2.0361328 14.2312622 2.0361328z"/><path d="m75.6528625 81.6166992c-12.5227089 0-39.3970985.9116211-39.3970985 2.036377 0 1.1245117 26.8743896 2.0361328 39.3970985 2.0361328 22.8535156 0 23.3314209-.9116211 23.3314209-2.0361328 0-1.1247559-.4779052-2.036377-23.3314209-2.036377z"/><path d="m74.9107361 92.3779297c-12.5227699 0-39.3971596.9116211-39.3971596 2.036377 0 1.1245117 26.8743896 2.0361328 39.3971596 2.0361328 22.8535156 0 23.3314209-.9116211 23.3314209-2.0361328 0-1.1247559-.4779053-2.036377-23.3314209-2.036377z"/><path d="m87.9354553 12.2512169c-6.77742.5715694-10.6077423 5.3735218-10.0287476 9.222168.1966553 1.3811035 1.0593262 2.6494141 2.1082153 3.3554688 3.9735489 2.7831211 17.1358109 1.0621452 18.1843872.3793945.1022949.2382813.2739258.378418.4685059.4943848.2412109.1437988.4765015.2729492.8717041.0571289.3734741-.2177734.9783325-.814209 1.3578491-2.2839355 1.3167115-5.652918-4.2257003-11.8432704-12.961914-11.2246095zm-5.8870849 9.8813476c-.4060669-.3415527-.5620728-.7290039-.5912476-1.1262207-.1742477-2.7693367 5.8204498-6.3934307 11.9316406-3.9448242 2.8027878 1.1287975 4.3840714 3.1845913 4.6469727 6.092041.0533447.847168.0244141 1.364502.0785522 1.7260742-2.2843857-.9577808-13.8058395-.7356491-16.0659179-2.7470703z"/></g></g></svg>