<svg id="Layer_1" enable-background="new 0 0 135 135" height="512" viewBox="0 0 135 135" width="512" xmlns="http://www.w3.org/2000/svg"><g><g><path d="m114.7002106 26.8087177-1.8000488 4.1801758-1.75 4.0498028-16.4899902 38.25-.4000244.9301758c-.7099609.9099121-1.7199707 1.4799805-2.869873 1.8300781-1.4901123.4697266-3.2200928.5698242-4.8100586.619873-9.8701172.2700195-19.75.5300293-29.6300011.8000488-8.1300049.2199707-16.4100342.4199219-24.3499756-1.0300293-1.8100605-.3200684-3.6101093-.7399902-5.3801289-1.2600098-.7399902-.2199707-1.4699707-.4499512-2.1699219-.7199707-15.7900381-5.6501464-21.1500237-19.3400878-21.3100579-34.3601073-.039917-3 .1000977-7.4399414 2.73999-9.6398907 2.9700933-2.4799805 7.9600835-1.0700684 11.7700195-.9099121 1.4100342.0598145 2.8200684.1098633 4.2399902.1499023 3.1700439.119873 6.3400879.2099609 9.5100117.2800293 6.0900879.1298828 12.1800537.1799316 18.2700195.1499023 21.3601036-.1101074 42.7099571-1.1999512 63.9399376-3.2700195.1701656-.0200195.3300777-.0300292.4901119-.0500488z" fill="#ff3f79"/></g><g><path d="m28.5501881 117.3988037c-4.9799805 1.1899414-10.1400146-1.7600098-11.5100098-6.5900879-.2700195-.9299316-.3699951-1.869873-.3200684-2.7797852.1501465-3.7900391 2.8400879-7.1501465 6.8601074-8.1101074 4.2399902-1.0100098 8.5999775.9699707 10.6499043 4.5600586.3701172.6298828.6601563 1.3000488.8601074 2.0197754 1.3698731 4.8300782-1.5500488 9.7001953-6.5400409 10.9001465z" fill="#808285"/></g><g><path d="m86.9502106 115.5887451c-4.9901123 1.1901855-10.1400146-1.7600098-11.5200195-6.579834 0-.0102539-.0100098-.0300293-.0100098-.0400391-1.3399658-4.8200684 1.5799561-9.6699219 6.5499268-10.8601074 4.9899902-1.1899414 10.1401367 1.75 11.5100098 6.5800781.0200195.079834.0400391.1599121.0600586.2399902 1.2199706 4.7500001-1.6899415 9.4899903-6.5899659 10.6599122z" fill="#808285"/></g><g><path d="m114.7002106 26.8087177-1.8000488 4.1801758c-22.4000244 4.8398418-45.2099609 7.8100567-68.1199951 8.7499981-6.5899658.2700195-13.1699238.2597656-19.7700214.3198242-5 .0400391-12.4299307.4001465-13.3798819 6.5900879-1.5100098 9.9799805 6.8498526 20.5500488 13.4199209 27.8100586-15.7900343-5.6501465-21.1500199-19.3400879-21.3100541-34.3601074-.039917-3 .1000977-7.4399414 2.73999-9.6398907 2.9700933-2.4799805 7.9600835-1.0700684 11.7700195-.9099121 1.4100342.0598145 2.8200684.1098633 4.2399902.1499023-.119873.0600586-.2399902.1098633-.369873.1499023-.5.1699219-1 .3500977-1.5100098.5400391 1.7299805-.2199707 3.4799805-.3300781 5.2199707-.3398438 2.0600586-.0102539 4.1199951-.0400391 6.1699238-.0700684 6.0900879.1298828 12.1800537.1799316 18.2700195.1499023 21.3601036-.1101074 42.7099571-1.1999512 63.9399376-3.2700195.1701656-.0200194.3300777-.0300291.4901119-.0500487z" fill="#ff6498"/></g><g><path d="m111.1501617 35.0386963-16.4899902 38.25c-.9799805 1.0200195-2.0599365 1.9401855-3.2698975 2.7602539-1.4901123.4697266-3.2200928.5698242-4.8100586.619873-9.8701172.2700195-19.75.5300293-29.6300011.8000488-8.1300049.2199707-16.4100342.4199219-24.3499756-1.0300293.0699463-2.4299316 1.6499023-4.6398926 4.7600098-4.2900391 14.2099609 1.5900879 30.3598595 2 44.1498985-2.380127 7.3000488-2.3198242 9.3300781-8.1899414 12.1101074-14.7299805 2.9599609-6.9699707 5.9099121-13.9499512 8.869873-20.9199219 1.8801271-4.4199198 7.1600343-2.6799295 8.6600343.9199221z" fill="#f22f70"/></g><g><path d="m86.9502106 115.5887451c-4.9901123 1.1901855-10.1400146-1.7600098-11.5200195-6.579834 0-.0102539-.0100098-.0300293-.0100098-.0400391 6.5999756 1.2797852 13.4700928.5100098 18.1199951-4.0400391 1.2199707 4.7500001-1.6899414 9.4899903-6.5899658 10.6599122z" fill="#747577"/></g><g><path d="m28.5501881 117.3988037c-4.9799805 1.1899414-10.1400146-1.7600098-11.5100098-6.5900879-.2700195-.9299316-.3699951-1.869873-.3200684-2.7797852 6.1800537 2.4399414 13.3300781 2.0998535 17.5100117-3.5500488.3701172.6298828.6601563 1.3000488.8601074 2.0197754 1.3698731 4.8300782-1.5500488 9.7001953-6.5400409 10.9001465z" fill="#747577"/></g><g fill="#202020"><path d="m27.2977161 76.8266983c12.6186504 3.4337997 26.740263 1.9939575 51.329834.8493652 2.513916-.137207 4.7883301-.2612305 6.7860107-.3703613 1.9862061-.1044922 3.7658691-.2351074 5.1748047-.6191406.7337646-.1845703 1.355835-.4384766 1.8676758-.7141113-.2567139 1.0073242-.5241699 2.015625-.8218994 3.0212402-2.1153107 7.1317291-3.4779968 9.3165054-10.9138184 10.2912598-4.5178986.5934601-23.3671341 1.2186432-27.925293 1.3461914-11.9874268.3405762-22.8552227.4343262-30.7265606.5258789-7.87146.0888672-12.7475586.1901855-12.7562256.4772949-.0083008.2749023 4.8521729.7089844 12.7255859 1.107666 7.8728027.395752 18.7603741.7414551 30.7947979.7687988 5.7093468.0152893 23.1617126-.1084824 28.3312988-.6723633 1.6516113-.1914063 3.3325195-.4880371 5.0002441-1.0522461 5.8653183-1.9824371 7.3947601-5.887085 9.1921387-11.6643066.90979-2.9316406 1.5905762-5.7993164 2.2431641-8.5314941 1.2434082-5.4777832 2.5939941-10.3102989 4.1151123-14.5305138 2.7116699-7.6821289 5.8338623-14.1716309 8.7617188-19.755127 1.4692383-2.791748 2.909668-5.3537617 4.2908936-7.7146015 1.3476563-2.3547363 2.6860352-4.3615723 4.1368408-5.9870605 1.4360352-1.6257324 2.9658203-2.8356934 4.5036621-3.5292969.762207-.3723145 1.5340576-.5827637 2.2824707-.7297363.7614746-.1293945 1.4841309-.1901855 2.0401611-.1010742 2.0313721.1589355 2.5584717 2.8244629 2.5473633 4.675293.0015869 1.8991699-.456543 3.3435059-.8555908 4.3991699-.4146729 1.0605469-.8023682 1.760498-1.0430908 2.2648926-.5125732.9931641-.4249268 1.230957-.2120361 1.4335957.1922607.1845703.4648438.3544922 1.4475098-.4404316.475708-.4101563 1.1333008-1.074707 1.8447266-2.2407227.6895752-1.1630859 1.4815674-2.8549805 1.6951904-5.2836914.0778809-1.2043457.1009521-2.5791016-.4354248-4.1999512-.2753906-.7944336-.7097168-1.6625977-1.4729004-2.423584-.7434082-.7697754-1.8674316-1.3273926-2.9373779-1.5114737-1.0843506-.2099609-2.1168213-.1462402-3.15625-.0131836-1.0445557.1577139-2.1363525.4272451-3.1873779.8933096-2.1322021.885498-4.1085205 2.4106445-5.8354492 4.2802734-1.3824463 1.4812012-2.6334229 3.2106934-3.8070068 5.0664063-1.6437988-.0507813-4.4299316.0136719-9.1702881.2556152-5.5031738.2565918-13.6374512.7375488-25.6802979 1.1767578-60.2318649 2.0553169-63.2894325-1.7152004-69.2429199-.171875-1.091187.2897949-2.2407231.8415527-3.1787114 1.6804199-.9353027.8327637-1.6096189 1.8754883-2.0660398 2.9201679-.9055176 2.1103516-1.1094971 4.2248535-1.1783447 6.2487793-.1441395 19.0485612 7.1501962 33.4529229 25.4916993 38.5739709zm-20.7078862-43.2231407c.6043701-1.3222656 1.4082031-2.0178242 2.6783452-2.3481465 4.022707-1.0639057 17.2327557 2.6879787 68.369873.0686035 12.098999-.6479492 20.2521973-1.4296875 25.7481689-2.0554199 3.5609131-.4211426 6.0026855-.770752 7.6817627-1.0695801-1.3327637 2.2229004-2.7102051 4.6186543-4.112915 7.2297382-3.0421143 5.6845703-6.274292 12.3278809-9.0812988 20.2770996-1.5638428 4.3222656-2.9781494 9.5126915-4.1607666 14.9821739-.3410645 1.4929199-.6887207 3.0092773-1.0656738 4.5314941-.5627441.2705078-1.2856445.5275879-2.2314453.6645508-1.3464355.2336426-3.0266113.2336426-5.0349121.2109375-2.0007324-.0009766-4.2784424-.0021973-6.7961426-.0036621-25.2890701.1876068-38.6870995 1.1728668-50.4318848-2.2885742-16.5885324-5.0190352-22.7663512-17.954811-22.4595952-35.4240683.0661622-1.7712403.3095704-3.4736328.8964844-4.7751465z"/><path d="m35.7131195 105.8721085c.0933838-.4489746.0860596-1.3127441-.6234131-2.7460938-2.2066078-4.0963516-7.1119156-6.1754761-11.8386211-5.1772461-4.8429241 1.0357819-8.5433064 5.212532-8.5384521 10.3503418.0040026 4.4920654 2.9451599 8.8714752 7.8905029 10.4282227 2.2532959.6818848 4.6849365.6525879 6.7573242-.0683594 3.5373325-1.1293259 6.3281765-4.2800674 6.6849346-8.0129395.1303711-1.3671875-.081665-2.4541016-.3240967-3.1520996-.2609863-.6975098-.5046387-1.0332031-.6322021-.9958496-.324707.0717773.0494385 1.6464844-.6009521 3.8515625-.8969994 2.984642-3.3036976 4.9937515-5.9224834 5.5412598-4.906126 1.1914139-10.0168743-2.5765839-9.8634033-7.550293.1094456-3.1577911 2.3032627-5.7245026 5.4291992-6.5004883 3.265913-.7823334 6.1958485.4713745 8.5653057 2.8881836.7836914.8669434 1.1689453 1.4069824 1.512085 1.6442871.3410645.2436523.6104736.2041016.880249.1254883s.5214842-.170166.6240233-.6259765z"/><path d="m94.1086273 104.0642471c.0933838-.4489746.0860596-1.3125-.6234131-2.7458496-3.6745758-6.8227234-14.1715317-7.4397507-18.6936035-.505127-.9857178 1.470459-1.6855469 3.4814453-1.6834717 5.6782227.0118179 13.2565002 20.1518478 14.7029266 21.3327637 2.3466797.1303711-1.3671875-.081665-2.4541016-.3240967-3.1518555-.2609863-.6977539-.5046387-1.0334473-.6322021-.9960938-.324707.0717773.0494385 1.6464844-.6009521 3.8515625-2.7372437 9.1077728-16.0484848 6.5013504-15.7858887-2.0090332.2073441-5.9822922 8.0151215-9.7121201 13.9945068-3.6123047.7836914.8669434 1.1689453 1.4069824 1.512085 1.6442871.3410645.2436523.6104736.2041016.880249.1254883s.5214844-.1699218.6240234-.6259765z"/></g></g></svg>