<svg id="Layer_1" enable-background="new 0 0 135 135" height="512" viewBox="0 0 135 135" width="512" xmlns="http://www.w3.org/2000/svg"><g><g><path d="m127.0956573 20.813961c-.5300293 7.3200684-.7600098 14.6599121-.8900146 22.0200195-.1599731 8.8601074-.1599731 17.7199707-.2999878 26.5600624-.2399902 15.079834-1.789978 29.9899902-2.5499878 44.9799805-.0400391.7199707-.0700073 1.4499512-.1100464 2.1799316-.1499634 3.1899414-1.1799927 8.4599609-3.1199951 11.4399414-.1799927.2800293-.3699951.5400391-.5700073.7800293-.3399658.4001465-.7199707.7600098-1.1299438 1.0600586-1.4000244 1.079834-3.1600342 1.6398926-4.9900513 1.9799805-.9299927.1699219-1.8800049.2800293-2.7999878.369873-1.8699951.1801758-3.7399902.3300781-5.6199951.4401855-1.2399902.079834-2.4799805.1298828-3.7199707.1799316-.0100098 0-.0100098 0-.0100098 0-2.0200195.0600586-4.0400391.0900879-6.0599976.0700684-5.0599976-.0400391-10.1300049-.3400879-15.1700439-.9099121-3.7199707-.420166-7.5199585-1.0200195-10.7399902-2.9401855-2.3099976-1.369873-4.0199585-3.3999023-5.2699585-5.7700195-2.450016-4.5998535-3.1500282-10.4499512-3.0300331-15.1999512.1500244-6.3500977 1.4000244-12.6000977 2.1000366-18.9099121.2199707-1.920166.3799438-3.8400879.4499512-5.7800293.6799965-19.870121-1.4099731-48.8999062 5.6000404-67.4599609.1300049-.3400879.2600098-.670166.4199829-.9902344 3.6099853-8.0097689 12.5100097-10.6499056 20.7800293-10.8999056 3.8199463-.1098633 7.7699585-.1298828 11.6999512.1801758 6.8300171.5097656 13.5800171 1.9599609 19.4500122 5.4399419 1.8500366 1.0898438 3.6699829 2.4199219 4.7000122 4.2900391.0899658.1599121.1699829.329834.25.5.8800048 1.9699697.7600097 4.2299794.6300048 6.3898915z" fill="#ffb494"/></g><g><path d="m63.035656 23.4641075c0 .2697754-.0100098.5297852-.0200195.7897949 0 .1901855-.0100098.380127-.0299683.5600586-.0100098.2299805-.0300293.4499512-.0599976.6799316-.0200195.2202148-.0500488.4399414-.0800171.6601563-.0200195.1799316-.0499878.3598633-.0900269.5400391-.0299683.1899414-.0599976.3798828-.0999756.5598145-.1900024.920166-.460022 1.8200684-.7999878 2.6799316v.0102539c-.0100098.0200195-.0200195.0498047-.0300293.0698242-.1099854.2600098-.2199707.5200195-.3399658.7700195-.1700439.3701172-.3699951.7399902-.5700073 1.1000977-.0800171.1499023-.1700439.2998047-.2700195.4399414-.2399902.3901367-.5.7700195-.7799683 1.1298828-2.3000488 2.9599609-5.4900513 4.2202148-8.7200317 5.4401855-3.0299683 1.1398926-6.0800171 2.2299805-8.5 4.6499023-7.6799927 7.6501465-5.1300049 30.1701698-5.6900024 40.5300331-.1300049 2.3999023-.2399902 4.9199219.6500244 7.1201172 2.2399902 5.5297852 9.0299683 6.0498047 13.9199829 8.829834 4.6599731 2.6501465 7.9699707 8.1599121 8.0200195 13.9299316.2099609 22.3901367-23.0400391 17.3500977-33.1100464 8.3000488-9.7199707-8.7299805-15.2999868-21.8200684-17.6900024-35.1499023-.7799678-4.3400878-1.2499995-8.8701171-1.3999629-13.4699706-.7399902-22.4399452 6.1300054-46.7001991 21.7399898-60.7099638.6900024-.6201172 1.4199829-1.2202148 2.1699829-1.7700195 7.9299927-5.9799809 18.9299927-8.5900879 26.0599976-1.8400879.8400269.7900391 1.5900269 1.6899414 2.2600098 2.6799316 2.2200316 3.25 3.4600219 7.4001456 3.4600219 11.4702139z" fill="#ffb494"/></g><g><path d="m59.575634 11.9938936c2.2200317 3.25 3.460022 7.4001455 3.460022 11.4702139 0 .2697754-.0100098.5297852-.0200195.7897949 0 .1901855-.0100098.380127-.0299683.5600586-.0100098.2299805-.0300293.4499512-.0599976.6799316-.0200195.2202148-.0500488.4399414-.0800171.6601563-.0200195.1799316-.0499878.3598633-.0900269.5400391-.0299683.1899414-.0599976.3798828-.0999756.5598145-.1900024.920166-.460022 1.8200684-.7999878 2.6799316v.0102539c-.0100098.0200195-.0200195.0498047-.0300293.0698242-.1099854.2600098-.2199707.5200195-.3399658.7700195-.1700439.3701172-.3699951.7399902-.5700073 1.1000977-.0800171.1499023-.1700439.2998047-.2700195.4399414-.2399902.3901367-.5.7700195-.7799683 1.1298828-2.3000488 2.9599609-5.4900513 4.2202148-8.7200317 5.4401855 2.2700195-6.4699707 4.9500122-16.1101074.960022-20.2900391-5.6300049-5.9001455-16.6400146 1.0598145-21.210022 5.0598145-12.0200195 10.5400391-19.7600088 29.6101075-20.1400137 45.4101601-.0599976 2.4699707-1.5700073 3.9899902-3.4099736 4.5600586-.7399902-22.4399452 6.1300054-46.7001991 21.7399898-60.7099638.6900024-.6201172 1.4199829-1.2202148 2.1699829-1.7700195.5-.2900391 1.0100098-.5700684 1.5300293-.8300781 8.4299927-4.2800298 19.8300171-5.8100591 26.789978 1.6699218z" fill="#ffc9b6"/></g><g><path d="m126.2156525 13.9240694c-9.0200195-.6000977-18.039978-.2001953-27.0599976.5097656-9.1000366.7102051-18.8200073 1.3500977-24.1900024 9.8000479-5.4199829 8.5200195-5.5499878 19.7800293-6.2399902 29.5400391-.7200317 10.170166-.9299927 20.3501015-.7399902 30.5400429.0599976 3.2099609-2.3900146 4.8200684-4.8699989 4.8300781.2199707-1.920166.3799438-3.8400879.4499512-5.7800293.6799965-19.870121-1.4099731-48.8999062 5.6000404-67.4599609.1300049-.3400879.2600098-.670166.4199829-.9902344 6.4799805-7.1398931 15.5700073-9.2197266 25.1099854-10.1098633 2.4500122-.2299805 4.9100342-.4399414 7.3699951-.6098633 6.8300171.5097656 13.5800171 1.9599609 19.4500122 5.4399419 1.8500365 1.0898404 3.6699828 2.4199185 4.7000121 4.2900357z" fill="#ffc9b6"/></g><g><path d="m126.2056427 42.8339806c-.1599731 8.8601074-.1599731 17.7199707-.2999878 26.5600624-.2399902 15.079834-1.789978 29.9899902-2.5499878 44.9799805-.0400391.7199707-.0700073 1.4499512-.1100464 2.1799316-.1499634 3.1899414-1.1799927 8.4599609-3.1199951 11.4399414-.3699951.1801758-.7399902.3500977-1.1099854.5200195-.1400146.5-.3399658.9399414-.5899658 1.3200684-1.1000366 1.7800293-3.1200562 2.3498535-4.9900513 1.9799805-.6399536-.130127-1.2699585-.3601074-1.8299561-.6999512-2.210022.6000977-4.4299927 1.0898438-6.5900269 1.5100098-.460022.0900879-.9099731.1799316-1.3599854.2600098-.8599854.1599121-1.6500244.119873-2.3599854-.0800781-.0100098 0-.0100098 0-.0100098 0-.6900024-.1899414-1.2999878-.5300293-1.8200073-.9599609-1.4000244.3898926-2.8200073.7399902-4.2399902 1.0300293-5.0599976-.0400391-10.1300049-.3400879-15.1700439-.9099121-3.7199707-.420166-7.5199585-1.0200195-10.7399902-2.9401855-2.3099976-1.369873-4.0199585-3.3999023-5.2699585-5.7700195 16.6499634.4099121 32.8800049-7.369873 42.3299561-21.2600098 5.0900269-7.4599609 9.8699951-15.75 12.5700073-24.4099121 3.0300293-9.7199707 3.25-19.9299355 3.3099976-30.0300331.0200196-2.7500002 1.8600465-4.3300784 3.9500123-4.7199709z" fill="#f7a081"/></g><g><path d="m119.5756378 27.3439903c0 .4099121-.039978.8100586-.0899658 1.2099609-.1900024 1.6000977-.6500244 3.1601563-.7900391 4.75-.1799927 2.0300293.1300049 4.1298828-.8599854 6.0100098-1.3599854 2.5700684-4.6199951 2.0500488-7.2000122 2.2399902-1.0700073.0800781-2.1400146.1601563-3.2099609.2299805-6.7300415.4599609-13.4900513.7299805-20.2300415.2800293-1.5199585-.0998535-3.75.1699219-5.6699829-.0700684-1.0700073-.1398926-2.039978-.4299316-2.7299805-1.0400391-2.4900513-2.1899414-1.460022-9.3598633-1.2700195-12.4299316.0499878-.7900391.1300049-1.6101074.3200073-2.3898926.25-1.1201172.7199707-2.1501465 1.5999756-2.8701172.9200439-.75 2.1300049-1.0200195 3.2999878-1.2299805 1.1700439-.2099609 2.3400269-.3999023 3.5200195-.5600586 8.9400024-1.2900391 17.9700317-1.3999023 26.9799805-.2199707 1.6200562.2102051 3.3300171.5100098 4.5700073 1.5900879 1.2399903 1.1000978 1.7700196 2.8398439 1.7600098 4.5000001z" fill="#bcbec0"/></g><g><path d="m92.0432281 56.8093834c2.0377579-1.3946381 6.3280411-1.7589073 7.8401871.1205177.5902252.733593.7215729 1.7252655.8009796 2.6643181.4247971 5.0244865.0469284 8.6473351-5.7731705 8.1687737-1.6377106-.1346664-3.357399-.8364563-4.1413879-2.2806168-1.0198059-2.1362-1.0267563-6.5206146.8009567-8.2912064.1386948-.134365.2972413-.2618827.472435-.3817863z" fill="#d1d3d4"/></g><g><path d="m107.7932281 56.8093834c2.0377579-1.3946381 6.3280411-1.7589073 7.8401871.1205177.5902252.733593.7215729 1.7252655.8009796 2.6643181.4247971 5.0244865.0469284 8.6473351-5.7731705 8.1687737-1.6377106-.1346664-3.357399-.8364563-4.1413879-2.2806168-1.0198059-2.1362-1.0267563-6.5206146.8009567-8.2912064.1386948-.134365.2972413-.2618827.472435-.3817863z" fill="#d1d3d4"/></g><g><path d="m75.7932281 56.8093834c2.0377579-1.3946381 6.3280411-1.7589073 7.8401871.1205177.5902252.733593.7215729 1.7252655.8009796 2.6643181.4247971 5.0244865.0469284 8.6473351-5.7731705 8.1687737-1.6377106-.1346664-3.357399-.8364563-4.1413879-2.2806168-1.0198059-2.1362-1.0267563-6.5206146.8009567-8.2912064.1386948-.134365.2972413-.2618827.472435-.3817863z" fill="#d1d3d4"/></g><g><path d="m92.0432281 74.3093796c2.0377579-1.3946381 6.3280411-1.7589035 7.8401871.1205215.5902252.7335892.7215729 1.7252655.8009796 2.6643143.4247971 5.0244904.0469284 8.6473389-5.7731705 8.1687775-1.6377106-.1346664-3.357399-.8364563-4.1413879-2.2806168-1.0198059-2.1362-1.0267563-6.5206146.8009567-8.2912064.1386948-.1343612.2972413-.2618866.472435-.3817901z" fill="#d1d3d4"/></g><g><path d="m107.7932281 74.3093796c2.0377579-1.3946381 6.3280411-1.7589035 7.8401871.1205215.5902252.7335892.7215729 1.7252655.8009796 2.6643143.4247971 5.0244904.0469284 8.6473389-5.7731705 8.1687775-1.6377106-.1346664-3.357399-.8364563-4.1413879-2.2806168-1.0198059-2.1362-1.0267563-6.5206146.8009567-8.2912064.1386948-.1343612.2972413-.2618866.472435-.3817901z" fill="#d1d3d4"/></g><g><path d="m75.7932281 74.3093796c2.0377579-1.3946381 6.3280411-1.7589035 7.8401871.1205215.5902252.7335892.7215729 1.7252655.8009796 2.6643143.4247971 5.0244904.0469284 8.6473389-5.7731705 8.1687775-1.6377106-.1346664-3.357399-.8364563-4.1413879-2.2806168-1.0198059-2.1362-1.0267563-6.5206146.8009567-8.2912064.1386948-.1343612.2972413-.2618866.472435-.3817901z" fill="#d1d3d4"/></g><g><path d="m92.0432281 91.8093796c2.0377579-1.3946381 6.3280411-1.7589035 7.8401871.1205215.5902252.7335892.7215729 1.7252655.8009796 2.6643143.4247971 5.0244904.0469284 8.6473389-5.7731705 8.1687775-1.6377106-.1346664-3.357399-.8364563-4.1413879-2.2806168-1.0198059-2.1362-1.0267563-6.5206146.8009567-8.2912064.1386948-.1343612.2972413-.2618866.472435-.3817901z" fill="#d1d3d4"/></g><g><path d="m107.7932281 91.8093796c2.0377579-1.3946381 6.3280411-1.7589035 7.8401871.1205215.5902252.7335892.7215729 1.7252655.8009796 2.6643143.4247971 5.0244904.0469284 8.6473389-5.7731705 8.1687775-1.6377106-.1346664-3.357399-.8364563-4.1413879-2.2806168-1.0198059-2.1362-1.0267563-6.5206146.8009567-8.2912064.1386948-.1343612.2972413-.2618866.472435-.3817901z" fill="#d1d3d4"/></g><g><path d="m101.3481979 111.8093796c3.1292267-1.3946381 9.7174759-1.7589035 12.0395508.1205215.9063721.7335892 1.1080704 1.7252655 1.230011 2.6643143.6523285 5.0244904.0720596 8.6473389-8.8654099 8.1687775-2.5149002-.1346664-5.1556931-.8364563-6.3596039-2.2806168-1.56604-2.1362-1.5767136-6.5206146 1.2299576-8.2912064.2129899-.1343612.4564591-.2618866.7254944-.3817901z" fill="#d1d3d4"/></g><g><path d="m78.3481979 111.3093796c3.1292267-1.3946381 9.7174759-1.7589035 12.0395508.1205215.9063721.7335892 1.1080704 1.7252655 1.230011 2.6643143.6523285 5.0244904.0720596 8.6473389-8.8654099 8.1687775-2.5149002-.1346664-5.1556931-.8364563-6.3596039-2.2806168-1.56604-2.1362-1.5767136-6.5206146 1.2299576-8.2912064.2129899-.1343612.4564591-.2618866.7254944-.3817901z" fill="#d1d3d4"/></g><g><path d="m75.7932281 91.8093796c2.0377579-1.3946381 6.3280411-1.7589035 7.8401871.1205215.5902252.7335892.7215729 1.7252655.8009796 2.6643143.4247971 5.0244904.0469284 8.6473389-5.7731705 8.1687775-1.6377106-.1346664-3.357399-.8364563-4.1413879-2.2806168-1.0198059-2.1362-1.0267563-6.5206146.8009567-8.2912064.1386948-.1343612.2972413-.2618866.472435-.3817901z" fill="#d1d3d4"/></g><g><path d="m119.5756378 27.3439903c0 .4099121-.039978.8100586-.0899658 1.2099609-.3099976.0100098-.6400146-.0200195-.9800415-.0700684-7.8999634-1.2600098-16.1499634-1.1599121-23.9500122.6901855-5.9399414 1.4099121-14.4899902 5.25-13.0299683 12.8198242-1.0700073-.1398926-2.039978-.4299316-2.7299805-1.0400391-2.4900513-2.1899414-1.460022-9.3598633-1.2700195-12.4299316.0499878-.7900391.1300049-1.6101074.3200073-2.3898926 2.3599854-1.9501953 5.2399902-3.4799805 8.4199829-4.6601563 8.9400024-1.2900391 17.9700317-1.3999023 26.9799805-.2199707 1.6200562.2102051 3.3300171.5100098 4.5700073 1.5900879 1.2399903 1.1000979 1.7700196 2.839844 1.7600098 4.5000002z" fill="#e6e7e8"/></g><g fill="#202020"><path d="m56.0171928 7.2628536c-4.057785-3.2096252-9.0355263-3.8573954-14.0338745-2.7890625-15.9796848 3.1716857-27.6931524 21.5727711-32.4434204 37.2387715-3.1625085 10.2470856-4.7967911 22.0828857-4.0808721 34.612793.7071743 11.6442261 3.2736316 23.0203629 8.8048096 33.3942871 6.8801498 12.5438385 14.6912174 18.0648499 22.7345581 20.6599045 7.5805016 2.4454498 16.5074196 2.1892242 21.0223389-4.1064377.9466553-1.3076172 1.7091675-2.7426758 2.1896362-4.2338867.2647095-.7397461.4327393-1.4970703.6173706-2.248291.1136475-.7546387.3032837-1.5131836.3458862-2.2668457.0514526-.5700684.100769-1.140625.1246948-1.7084961.4484253 2.3813477 1.0532227 4.7265625 1.9138184 6.9755859 1.6828499 4.3349609 4.3257866 8.2292709 8.7435265 9.6862717 1.4476318.4968262 2.9102173.6176758 4.2666016.6591797 14.8792343.1389465 25.038887.9382019 34.3966675-.3769531 1.9113159-.2990723 3.7122192-.7099609 5.3795166-1.3105469.8317261-.3054199 1.6308594-.6589355 2.3699341-1.1193848.3693848-.2294922.7203369-.4943848 1.0447388-.7954102.2887573-.3173828.6011963-.6223145.8119507-.9648438.9232788-1.3383713 1.4127197-2.7070236 1.8076782-3.957756.3843994-1.2565918.644043-2.4179688.8569336-3.4633789.4082642-2.0935059.6272583-3.7250977.7746582-4.8305664.1433716-1.1054688.2051392-1.6887207.1343384-1.7050781-.0661621-.0153809-.2646484.5427246-.5432129 1.6262207-.2667236 1.0810547-.6595459 2.673584-1.1654053 4.7241211-.2734375 1.0141602-.59198 2.1367188-1.0220337 3.3244629-.43396 1.1779785-.9762573 2.4541016-1.8158569 3.560791-.7834473 1.1284103-2.1429443 1.7538986-3.7093506 2.2766037-1.5620117.5-3.303772.8378906-5.1384888 1.0639648-9.5764771 1.0072937-19.2802048-.0578918-34.0890503-.4870605-1.2530518-.0617676-2.4606934-.2019043-3.5395508-.6013184-3.6159515-1.2655945-5.6720886-4.673645-6.9986572-8.2683029-.9182129-2.5273438-1.5175781-5.2351074-1.912838-8.0185547-2.1369476-15.2702103 1.1768913-72.5204239 4.551815-88.9443359.5618286-2.7546387 1.2373047-5.362793 2.2459106-7.7900391 1.8650894-4.5508776 4.8225327-8.7533445 9.6270752-9.708252 11.7056046-2.8886433 26.895134-2.0560746 37.2956543.7492676 4.3800812 1.174942 6.7034378 3.1919012 7.5691528 9.5493164.2072144 1.5256348.3231201 3.0957031.3984375 4.6564941.095459 1.5537109.1348267 3.0876465.1582031 4.597168.0908813 6.0393085-.2352905 11.7041035-.4907227 17.0075703-.2685547 5.3034668-.4727173 10.2556152-.4348145 14.8581543.0274658 2.3322754.0861206 4.4343262.0602417 6.5063477-.0230103 2.0629883-.0807495 4.0419922-.1707764 5.940918-.1743774 3.7976074-.4278564 7.2705078-.6610718 10.4460449-.4789429 6.3513184-.8377686 11.5148926-.9464111 15.6948242-.0344238 1.0236816-.0563965 2.0705566-.0094604 3.0256348.0400391.9558105.1239014 1.8300781.2033691 2.6379395.1676025 1.6162109.3197632 2.9560547.3884277 4.1101074.1459961 2.3095703-.0361328 3.8122559-.1547241 4.9516602-.1982422 2.223877.029541 2.4504395.3041382 2.5102539.2747192.0595703.5681152-.0402832 1.2525024-2.2102051.3505859-1.0437012.8134155-2.7912598.8748779-5.2822266.0386963-1.2426758-.0164795-2.6708984-.0808716-4.2585449-.0283203-.7949219-.0597534-1.6333008-.0499268-2.510498.0037842-.8779297.0665894-1.7802734.147644-2.8273926.2896118-4.1086426.8088379-9.197998 1.4351807-15.5541992.3068848-3.1791992.6314163-6.6784668.8722-10.541748.1231689-1.9309082.2128296-3.954834.2653809-6.0727539.0557861-2.1091309.0222778-4.3652344.0217285-6.5749512.013916-4.4831543.2582397-9.3461914.5662842-14.642334.2938843-5.2961426.661377-11.0336914.5963135-17.2651386-.0172729-1.5566406-.0516968-3.1435547-.1444092-4.7590332-.0728149-1.6101074-.1849976-3.2644043-.4140015-4.9946289-.9708099-6.9797611-3.6786957-11.05966-10.4925613-12.9174805-11.0584335-2.9930236-26.8371124-3.8693357-39.3140259-.7414548-3.7401733.7384899-7.6313553 3.4066069-10.3779907 8.144043-.756897 1.2814941-1.4077148 2.6179199-1.9498291 3.9916992-1.1171875 2.7346191-1.8409424 5.6408691-2.4038086 8.5046387-3.5516701 17.9387035-5.3267593 69.4757538-4.2316856 84.3291016-.5140991-1.5102539-1.2199097-2.9521484-2.0953979-4.2814941-1.7039795-2.6040039-4.156311-4.8442383-6.9980469-6.1621094-3.954792-1.8981781-8.4317665-2.7636108-10.8317261-5.2919922-2.7464905-2.8805618-1.9209137-6.6501007-1.9089355-10.7763672.067234-8.6813889-.9731712-21.9053726 1.4827881-30.8530273 1.3463287-4.9321747 3.4253044-7.6918411 7.8397217-9.7143555 1.9153442-.9111328 3.9525757-1.5944824 5.8998413-2.449707 7.6442528-3.2669754 10.7978477-9.6706924 9.7384644-17.8605976-.395752-2.859375-1.3112793-5.1953125-2.2498169-6.96875-.9259644-1.7944336-1.9898071-2.9660645-2.6851807-3.7458496-.7761841-.7177734-1.2014771-1.0610352-1.2493286-1.0102539-.1605225.1403809 1.5808716 1.5834961 3.1987305 5.119873.7838745 1.7580566 1.5328979 4.0302734 1.7825317 6.7441406.6323662 7.5121307-2.2217484 13.1414051-9.2906494 15.9331074-1.8681641.7624512-3.9244385 1.3881836-6.0245361 2.3183594-5.1291618 2.2102623-7.6597595 5.4569511-9.3018188 10.9614258-2.7860985 9.3727837-1.9475441 22.7710114-2.1548462 31.472168-.0168037 4.3161392-1.1479225 9.0185623 2.5924072 13.0283203 3.0386772 3.277977 8.0409966 4.2935867 11.6714478 6.1235352 4.5698242 2.1889648 7.6420288 7.1728516 7.9365234 12.1826172.0664673 2.5617676-.1430054 5.3205566-.9832764 7.6420898-2.7101517 7.7624283-10.8845482 8.3816147-18.5377197 5.8405762-9.442873-3.1197815-15.6237373-10.1735458-20.3701172-18.8791504-5.196063-9.8227158-7.6327991-20.6272049-8.3293457-31.7167969-.7096024-11.9684372.7893028-23.3385391 3.7544556-33.2304688 4.2154184-14.3358961 14.783301-31.9812904 29.361817-35.5727564 5.1704712-1.3645692 8.607502-.5041389 12.4957275 1.2844238 1.7023315 1.0070801 2.0020752.96875 2.1986694.7485352.1774903-.1938476.300232-.5158691-1.296875-2.0522461z"/><path d="m91.3476334 56.3524551c-.3621216-.0249023-1.0703125.2370605-1.7804565 1.1936035-1.2826538 1.7327728-1.5640335 4.5774651-1.2105713 6.6706543.6427383 3.3829269 2.7303314 5.1505127 6.0829468 5.5444336 3.6016922.2439957 6.596489-.5408936 7.7329712-4.0146484.4834595-1.670166.4248657-3.1796875.3037109-4.5673828-.2472458-2.6218872-.5492401-5.1374702-2.9321289-6.1340332-.7307739-.3166504-1.4250488-.4316406-2.057312-.465332-1.2652588-.0495605-2.3231201.1860352-3.1680298.4814453-1.7062988.6064453-2.4462891 1.5522461-2.2754517 1.748291.1755371.2429199 1.0848999-.1350098 2.6032104-.1972656.7493896-.03125 1.6531372.0021973 2.5320435.2236328 3.2574539.8409843 1.5710373 7.3730011 1.4512939 7.6733398-.6586838 1.3998032-2.1504059 1.3244553-3.7226563 1.2062988-1.2542114-.1320801-2.1069946-.7163086-2.3382568-1.1115723-.1139526-.171875-.3006592-.7075195-.3925781-1.1201172-.6843414-2.7358589.1393127-5.1889763.1588135-5.8911133-.0041504-.3115234-.1309204-.5532227-.2918701-.7832031-.1610108-.2299804-.3157349-.4492187-.6956787-.4570312z"/><path d="m117.9697037 59.133461c-.4535141-2.748291-1.7656174-4.3955956-4.7329102-4.5537109-1.2652588-.0495605-2.3231201.1860352-3.1680298.4814453-1.7062988.6064453-2.4462891 1.5522461-2.2754517 1.748291.1755371.2429199 1.0848999-.1350098 2.6032104-.1972656.7493896-.03125 1.6531372.0021973 2.5320435.2236328 1.6575012.4279213 1.8779755 1.1129875 1.9144897 2.6130371.0123291.5947266.0202026 1.2514648.008667 1.8596191-.0122681 1.2285156-.1581421 2.4138184-.4718628 3.2006836-.3551025.7546387-.6617432.9399414-1.3561401 1.1315918-.6662598.1813965-1.6485596.1286621-2.3665161.074707-2.1178436-.2230301-2.5002136-1.1965027-2.730835-2.2316895-.109436-.4375-.1669922-.8764648-.2103882-1.2797852-.1436157-1.6367188.03479-2.7133789.159668-3.3361816.1262817-.6342773.2007446-.9587402.2095337-1.2751465-.0041504-.3115234-.1309204-.5532227-.2918701-.7832031-.1610107-.2299805-.3157349-.4492188-.6956787-.4570313-.3621216-.0249023-1.0703125.2370605-1.7804565 1.1936035-.703186.9499512-1.3076782 2.5058594-1.3513184 4.7910156-.0013428.5742188.0250244 1.1943359.1407471 1.8796387.6030273 3.1739273 2.4504471 5.11763 6.0829468 5.5444336 3.6084442.2444534 6.5852356-.5065002 7.7329712-4.0146484.4834595-1.670166.4248657-3.1796875.3037109-4.5673828-.0664672-.7048339-.1518554-1.3540038-.2565307-2.0456542z"/><path d="m82.1307144 69.473793c.7730103-.2197266 1.619873-.666748 2.3416138-1.328125.7035522-.6958008 1.1761475-1.5615234 1.4501953-2.3991699.4834595-1.670166.4248657-3.1796875.3037109-4.5673828-.0664673-.704834-.1518555-1.3540039-.2565308-2.0456543-.1160278-.703125-.2739258-1.5114746-.7171021-2.3181152-.4280396-.8242188-1.2468872-1.4726563-1.9584961-1.7702637-.7307739-.3166504-1.4250488-.4316406-2.057312-.465332-1.2652588-.0495605-2.3231201.1860352-3.1680298.4814453-1.7062988.6064453-2.4462891 1.5522461-2.2754517 1.748291.1755371.2429199 1.0848999-.1350098 2.6032104-.1972656.7493896-.03125 1.6531372.0021973 2.5320435.2236328.4349976.1123047.8522339.2878418 1.1665039.5056152.3204346.2385254.4709473.4291992.5722046.7424316.1087036.3161621.1617432.7883301.1757813 1.3649902.0123291.5947266.0202026 1.2514648.008667 1.8596191-.0122681 1.2285156-.1581421 2.4138184-.4718628 3.2006836-.3551025.7546387-.6617432.9399414-1.3561401 1.1315918-.6662598.1813965-1.6485596.1286621-2.3665161.074707-2.2646408-.2384872-2.6973114-1.2445679-2.9412231-3.5114746-.1436157-1.6367188.03479-2.7133789.159668-3.3361816.1262817-.6342773.2007446-.9587402.2095337-1.2751465-.0041504-.3115234-.1309204-.5532227-.2918701-.7832031-.1610107-.2299805-.3157349-.4492188-.6956787-.4570313-.3621216-.0249023-1.0703125.2370605-1.7804565 1.1936035-.703186.9499512-1.3076782 2.5058594-1.3513184 4.7910156-.0146027 6.2454149 5.0619812 8.6192018 10.1648559 7.1367189z"/><path d="m88.3566055 81.716713c.3708572 1.9519196.9535522 3.4164886 3.038147 4.590332.9294434.5178223 1.9539185.8259277 3.0447998.9541016 1.1459961.0776367 2.3587646.1723633 3.9411621-.2873535 1.915802-.5445633 3.1989746-1.9152527 3.7918091-3.7272949.6117401-2.1133041.3975601-4.2979202.0471802-6.6130371-.1160278-.703125-.2739258-1.5114746-.7171021-2.3181152-1.2402878-2.3882675-4.5487823-2.6754608-7.1838379-1.7541504-1.7062988.6064453-2.4462891 1.5522461-2.2754517 1.748291.1755371.2429199 1.0848999-.1350098 2.6032104-.1972656 1.394783-.0581665 3.8419724.1452713 4.270752 1.4716797.2919083.848999.3176346 4.9077301-.2874146 6.425293-.6586838 1.3998032-2.1504059 1.3244553-3.7226563 1.2062988-2.1178436-.2230301-2.5002136-1.1965027-2.730835-2.2316895-.2842865-1.1365204-.3893585-2.9270782-.0507202-4.6159668.1262817-.6342773.2007446-.9587402.2095337-1.2751465-.0041504-.3115234-.1309204-.5532227-.2918701-.7832031-.1610107-.2299805-.3157349-.4492188-.6956787-.4570313-.3621216-.0249023-1.0703125.2370605-1.7804565 1.1936035-1.2826537 1.7327728-1.5640334 4.5774612-1.2105712 6.6706543z"/><path d="m117.2526016 74.3153458c-1.2402878-2.3882675-4.5487823-2.6754608-7.1838379-1.7541504-1.7062988.6064453-2.4462891 1.5522461-2.2754517 1.748291.1755371.2429199 1.0848999-.1350098 2.6032104-.1972656 1.155571-.0481873 2.7430344.0671234 3.6985474.729248.3204346.2385254.4709473.4291992.5722046.7424316.2316284.6736755.1980057 2.5100937.1844482 3.2246094-.0212021 2.1236191-.2129974 3.8865433-1.8280029 4.3322754-.6662598.1813965-1.6485596.1286621-2.3665161.074707-1.2542114-.1320801-2.1069946-.7163086-2.3382568-1.1115723-.1139526-.171875-.3006592-.7075195-.3925781-1.1201172-.2842865-1.1365204-.3893585-2.9270782-.0507202-4.6159668.1262817-.6342773.2007446-.9587402.2095337-1.2751465-.0041504-.3115234-.1309204-.5532227-.2918701-.7832031-.1610107-.2299805-.3157349-.4492188-.6956787-.4570313-.3621216-.0249023-1.0703125.2370605-1.7804565 1.1936035-1.2826538 1.7327728-1.5640335 4.5774612-1.2105713 6.6706543.6427383 3.3829269 2.7303314 5.1505127 6.0829468 5.5444336 1.1459961.0776367 2.3587646.1723633 3.9411621-.2873535 6.0088195-1.7079924 4.0292434-11.0069502 3.1218871-12.6584471z"/><path d="m78.1895523 87.2611465c3.6084442.2444534 6.5852356-.5065002 7.7329712-4.0146484.4834595-1.670166.4248657-3.1796875.3037109-4.5673828-.0664673-.704834-.1518555-1.3540039-.2565308-2.0456543-.1160278-.703125-.2739258-1.5114746-.7171021-2.3181152-.4280396-.8242188-1.2468872-1.4726563-1.9584961-1.7702637-.7307739-.3166504-1.4250488-.4316406-2.057312-.465332-1.2652588-.0495605-2.3231201.1860352-3.1680298.4814453-1.7062988.6064453-2.4462891 1.5522461-2.2754517 1.748291.1755371.2429199 1.0848999-.1350098 2.6032104-.1972656.7493896-.03125 1.6531372.0021973 2.5320435.2236328.4349976.1123047.8522339.2878418 1.1665039.5056152.3204346.2385254.4709473.4291992.5722046.7424316.1087036.3161621.1617432.7883301.1757813 1.3649902.0123291.5947266.0202026 1.2514648.008667 1.8596191-.0122681 1.2285156-.1581421 2.4138184-.4718628 3.2006836-.3551025.7546387-.6617432.9399414-1.3561401 1.1315918-.6662598.1813965-1.6485596.1286621-2.3665161.074707-2.2646408-.2384872-2.6973114-1.2445679-2.9412231-3.5114746-.1436157-1.6367188.03479-2.7133789.159668-3.3361816.1262817-.6342773.2007446-.9587402.2095337-1.2751465-.0041504-.3115234-.1309204-.5532227-.2918701-.7832031-.1610107-.2299805-.3157349-.4492188-.6956787-.4570313-.3621216-.0249023-1.0703125.2370605-1.7804565 1.1936035-.703186.9499512-1.3076782 2.5058594-1.3513184 4.7910156-.0013428.5742188.0250244 1.1943359.1407471 1.8796387.6667785 3.5094759 2.8926009 5.1695787 6.0829467 5.5444337z"/><path d="m102.1725235 100.7464981c.6117401-2.1133041.3975601-4.2979202.0471802-6.6130371-.4417572-2.6770401-1.6619415-4.3900681-4.7329102-4.5537109-1.2652588-.0495605-2.3231201.1860352-3.1680298.4814453-1.7062988.6064453-2.4462891 1.5522461-2.2754517 1.748291.1755371.2429199 1.0848999-.1350098 2.6032104-.1972656 4.1496658-.1730423 4.4097061 1.3236465 4.4465332 2.8366699.0312653 1.5081635.0788956 3.7006454-.4631958 5.0603027-.3551025.7546387-.6617432.9399414-1.3561401 1.1315918-.6662598.1813965-1.6485596.1286621-2.3665161.074707-2.2646408-.2384872-2.6973114-1.2445679-2.9412231-3.5114746-.1436157-1.6367188.03479-2.7133789.159668-3.3361816.1262817-.6342773.2007446-.9587402.2095337-1.2751465-.0041504-.3115234-.1309204-.5532227-.2918701-.7832031-.1610107-.2299805-.3157349-.4492188-.6956787-.4570313-.3621216-.0249023-1.0703125.2370605-1.7804565 1.1936035-.703186.9499512-1.3076782 2.5058594-1.3513184 4.7910156-.0088196 3.7736435 1.3574142 5.4442902 3.178894 6.4699707.9294434.5178223 1.9539185.8259277 3.0447998.9541016 1.1459961.0776367 2.3587646.1723633 3.9411621-.2873535 1.915802-.5445633 3.1989746-1.9152527 3.7918091-3.7272949z"/><path d="m117.9697037 94.133461c-.4535141-2.748291-1.7656174-4.3955917-4.7329102-4.5537109-1.2652588-.0495605-2.3231201.1860352-3.1680298.4814453-1.7062988.6064453-2.4462891 1.5522461-2.2754517 1.748291.1755371.2429199 1.0848999-.1350098 2.6032104-.1972656.7493896-.03125 1.6531372.0021973 2.5320435.2236328 1.6575012.4279175 1.8779755 1.1129913 1.9144897 2.6130371.0123291.5947266.0202026 1.2514648.008667 1.8596191-.0212021 2.1236191-.2129974 3.8865433-1.8280029 4.3322754-.6662598.1813965-1.6485596.1286621-2.3665161.074707-2.1178436-.2230301-2.5002136-1.1965027-2.730835-2.2316895-.2842865-1.1365204-.3893585-2.9270782-.0507202-4.6159668.1262817-.6342773.2007446-.9587402.2095337-1.2751465-.0041504-.3115234-.1309204-.5532227-.2918701-.7832031-.1610107-.2299805-.3157349-.4492188-.6956787-.4570313-.3621216-.0249023-1.0703125.2370605-1.7804565 1.1936035-1.2826538 1.7327728-1.5640335 4.5774612-1.2105713 6.6706543.133728.7038574.2420654 1.3828125.7544556 2.3774414 1.0763474 1.9029541 3.1895599 2.9156723 5.3284912 3.1669922 1.1459961.0776367 2.3587646.1723633 3.9411621-.2873535 3.6506195-1.0376816 4.4282455-4.4837189 4.09552-8.2946777-.0664672-.7048339-.1518554-1.3540038-.2565307-2.0456542z"/><path d="m113.0228653 110.0633926c-5.0919418-1.7992477-12.0943222.9603729-11.6746216 1.7460938.1273193.2658691 1.3354492-.0322266 3.3209839-.1030273 2.1046371-.0878601 5.3162689.0245132 7.1964722.9941406 1.0846252.5811539 1.0621185 1.2356873 1.1572876 2.8061523.1053467 1.5339355-.0270996 3.0046387-.5024414 3.755127-.9978943 1.532074-4.2601318 1.5765381-6.0809937 1.482666-3.1626816-.038765-5.5549622-.5029831-6.1325684-2.895752-.2217407-.880127-.1923218-1.685791-.1072998-2.3049316.0928955-.6271973.270874-1.0820313.4381104-1.4414063.3353271-.7160645.6609497-1.0935059.7852783-1.4367676.1210938-.3400879.041626-.6005859-.0748291-.8562012-.1165161-.2556152-.2359009-.4953613-.6520386-.5524902-.387085-.0517578-1.2264404.0209961-2.3185425 1.0610352-1.0569458 1.0183105-2.1865845 3.1325684-1.7587891 6.2229004.7424011 4.7206192 4.9175186 6.1668854 9.6936035 6.2739258 1.2554321.0566406 2.7454834.0097656 4.4334717-.3276367.4246826-.0930176.8550415-.1872559 1.3118896-.3671875 1.4404144-.4422989 2.9903717-1.5737686 3.7544556-3.0566406.534668-1.057373.7073975-2.1442871.7516479-3.1281738.1533128-3.1765824-.5502318-6.7466889-3.5410765-7.8718263z"/><path d="m93.1510391 113.3229141c-.8292313-3.7842712-4.0974655-4.5195084-8.013855-4.3151855-1.4373779.0947266-2.6956787.3400879-3.7288208.6352539-2.0783691.5812988-3.1860962 1.4306641-3.0601196 1.6665039.1273193.2658691 1.3354492-.0322266 3.3209839-.1030273.9884033-.0412598 2.1690063-.0427246 3.4434204.078125 5.0588226.4677658 4.7966385 1.8459167 4.9103394 3.722168.2558899 3.7258911-.3441772 5.5594559-6.5834351 5.237793-5.6196213-.0688782-6.6842422-1.9646606-6.2398682-5.2006836.0928955-.6271973.270874-1.0820313.4381104-1.4414063.3353271-.7160645.6609497-1.0935059.7852783-1.4367676.1210938-.3400879.041626-.6005859-.0748291-.8562012-.1165161-.2556152-.2359009-.4953613-.6520386-.5524902-.387085-.0517578-1.2264404.0209961-2.3185425 1.0610352-1.0569458 1.0183105-2.1865845 3.1325684-1.7587891 6.2229004.3653336 2.3229752 1.4018097 3.8110046 3.2912598 4.8178711 1.8925171.9926758 4.0493774 1.4033203 6.4023438 1.4560547 1.8585815.083847 4.3505249-.145462 5.7453613-.6948242 4.0656586-1.2484131 4.8824463-4.7633667 4.3240967-8.9619141-.0717773-.4389649-.12323-.8395997-.230896-1.3352052z"/><path d="m75.1447525 103.807045c.9294434.5178223 1.9539185.8259277 3.0447998.9541016 7.2919006.4939957 8.84552-3.5882187 7.7801514-10.6276855-.1160278-.703125-.2739258-1.5114746-.7171021-2.3181152-1.2402878-2.3882675-4.5487823-2.6754608-7.1838379-1.7541504-1.7062988.6064453-2.4462891 1.5522461-2.2754517 1.748291.1755371.2429199 1.0848999-.1350098 2.6032104-.1972656 1.4046249-.0585785 3.8429108.1481781 4.270752 1.4716797.1087036.3161621.1617432.7883301.1757813 1.3649902.1171494 5.6509171-.4202347 6.5495911-4.1858521 6.2666016-1.2542114-.1320801-2.1069946-.7163086-2.3382568-1.1115723-.4358978-.6574783-.9522705-3.1976624-.4432983-5.736084.1262817-.6342773.2007446-.9587402.2095337-1.2751465-.0041504-.3115234-.1309204-.5532227-.2918701-.7832031-.1610107-.2299805-.3157349-.4492188-.6956787-.4570313-.3621216-.0249023-1.0703125.2370605-1.7804565 1.1936035-1.572113 2.1238022-1.8361969 6.369133-.4561157 9.0480957.5455932.9645996 1.3536986 1.6892089 2.2836913 2.2128906z"/><path d="m113.3813248 19.6883907c-6.0709152-.9134388-12.1753387-1.2417145-18.1888428-.9841309-6.1238251.2442722-12.3977127 1.2035427-14.1494751 1.6364746-3.5494461.8927536-5.0404663 3.2667408-5.456604 6.9475098-.2574921 3.2301731-.4747086 5.3841763-.4559326 7.5942402.0140381 1.2370605.088562 2.4658203.3544312 3.730957.7491379 3.2380409 2.3850098 4.9729195 5.7518921 5.3278809 1.0571518.1293564 13.5711365.356884 20.5961914-.3886719 5.460144-.645752 5.6278076-1.217041 5.5939331-1.7641602-.0354614-.5751953-.2987061-1.0185547-5.7251587-1.1125488-.0417252-.0012131-16.4090195-.5415649-17.5389404-.5336914-.8349609.0070801-1.6691284-.0029297-2.4140015-.1118164-1.6888199-.1961517-2.0589447-.8185921-2.324707-2.2463379-.5428772-2.6804771-.0388031-6.9617004.2102661-10.0495625.2576752-2.6003685 1.0503998-3.1351185 2.4141846-3.4958496 1.2538071-.3394222 7.4388657-1.3961163 13.3466797-1.7873535 5.6304932-.3901443 11.5124664-.2993431 17.5769043.3530273 2.7243347.267334 4.5757141.7526054 5.1416016 3.4394531.4828644 2.238203-.5629883 4.8383541-.5917969 7.5083027-.0202637 1.739502.1037598 3.1972656-.2423096 4.3840332-.3284302 1.2373047-1.0091553 1.9099121-2.0587769 2.2619629-1.0224609.3486328-2.1460571.4055176-3.1237183.4970703-.9969482.0756836-1.8712769.215332-2.5459595.3295898-1.3760376.2316895-2.133728.423584-2.1242676.5637207.0095215.1403809.7858887.222168 2.1837158.2548828.7120972.0161133 1.5341187.010498 2.5130005.0627441.987915.0270996 2.1473999.1274414 3.5323486-.1835938.6834717-.1616211 1.4424438-.4714355 2.0864868-1.0446777.6497803-.5771484 1.1016846-1.354248 1.3812866-2.1352539.5953979-1.6132813.5372925-3.3408203.6719971-4.8693848.2394791-3.4695775 4.7961198-12.454828-6.4144286-14.1848161z"/></g></g></svg>