<svg id="Layer_1" enable-background="new 0 0 135 135" height="512" viewBox="0 0 135 135" width="512" xmlns="http://www.w3.org/2000/svg"><g><g><path d="m11.97614 38.1289444c10.5303183-15.7537193 30.193286-22.9809408 49.045394-24.8954611 10.6234856-1.0788679 21.7661552-.6973019 31.3672829 3.9761152s17.2880783 14.4310913 16.9569702 25.104084" fill="#d86c09"/></g><g><path d="m115.8583755 97.3012238c-.0599976 1.3398438-.1199951 2.6899414-.25 4.0300293-.2000122 2.1599121-.5499878 4.2900391-1.3200073 6.3098145-1.1399536 3.0200195-3.1900024 5.6901855-5.8099976 7.5600586-2.9699707 2.119873-6.539978 3.170166-10.0799561 4.0400391-8.1400146 2.0100098-16.4500122 3.1799316-24.8099976 3.7900391-11.6300049.8498535-23.3600464.6298828-34.960022.0700684-1.1600342-.0500488-2.3200073-.1101074-3.4799805-.170166-9.5500469-.5100098-20.5500488.2299805-27.8800049-7.1799316-.8200073-.8300781-1.4400024-1.9599609-1.8900146-3.2800293-2.0700071-5.9299316-.9899902-15.8300781-1.3200073-20.9001465-.3599851-5.579834-.5300291-11.1799316-.48999-16.7797852 0-.3100586 0-.6201172.0100098-.9301758.0299683-4 .1699829-8 .4099731-12 .5100095-8.4897461 1.8599851-17.7597656 8.0499878-23.5097656.4700317-.4401855.960022-.8500977 1.4700317-1.2202148 1.2999878-.9899902 2.7000132-1.7797852 4.1799936-2.4299316 4.8399658-2.1398926 10.4899902-2.7499981 15.8399639-3.1999493 6.1000366-.5 12.2400513-.9599609 18.3900146-1.1899414 6.6400146-.2600098 13.2900391-.2600098 19.8900146.1799316 6.1599731.4099121 12.289978 1.2199707 18.3400269 2.5700665 5.1900024 1.1599121 13.4099731 2.4299316 17.6099854 5.9899902 1.3699951 1.1599121 2.4400024 2.9499512 3.289978 4.9899902 1.5 3.5998535 2.3400269 7.9699707 2.9899902 11.1298828.0500488.2199707.1000366.4301758.1400146.6401367 1.4500122 6.7797852 2.0300293 13.6799316 2.1699829 20.5998535.1400157 6.9699705-.1699818 13.9699705-.4899892 20.8901366z" fill="#ef8614"/></g><g><path d="m111.048378 44.041214c-11.75-1.1401367-23.5299683-1.75-35.3300171-1.7600098-8.7299805 0-18.039978-.2800293-26.8799438 1.0998535-5.9200439 1.5900879-11.6200562 3.9399414-16.9600201 7.3601074-19 12.1799316-22.289978 36.0700684-22.4299927 56.9899902-.0200195 2.8000488-1.9200439 4.3901367-4.0700073 4.7399902-2.0700071-5.9299316-.9899902-15.8300781-1.3200073-20.9001465-.3599851-5.579834-.5300291-11.1799316-.48999-16.7797852.2199707-.7600098.450012-1.5100098.6900022-2.25-.2200317.4399414-.4600217.8798828-.6799924 1.3198242.0299683-4 .1699829-8 .4099731-12 .5100095-8.4897461 1.8599851-17.7597656 8.0499878-23.5097656.4700317-.4401855.960022-.8500977 1.4700317-1.2202148.5599976-.1098633 1.1099854-.1398926 1.6499634-.079834.8200073-.8100586 1.6600351-1.5900879 2.5300303-2.3500977 4.8399658-2.1398926 10.4899902-2.7499981 15.8399639-3.1999493 6.1000366-.5 12.2400513-.9599609 18.3900146-1.1899414.1500244.6899414.1500244 1.4299316.0300293 2.1398907 6.4899902-1.2499981 13.1699829-1.8100567 19.8599854-1.959959 6.1599731.4099121 12.289978 1.2199707 18.3400269 2.5700665 5.1900024 1.1599121 13.4099731 2.4299316 17.6099854 5.9899902 1.3699938 1.1599123 2.4400011 2.9499513 3.2899767 4.9899904z" fill="#ff9e3e"/></g><g><path d="m116.6083755 59.4811554c-.0899658 5.6401367-.1699829 11.2900391-.2600098 16.9299316-.0700073 4.2299805-.1399536 8.4602051-.2199707 12.6901855-.0800171 3.8898926-.2700195 7.7099609-.8200073 11.4599609.1199951.2399902.2299805.4899902.2999878.7700195-.2000122 2.1599121-.5499878 4.2900391-1.3200073 6.3098145-1.1399536 3.0200195-3.1900024 5.6901855-5.8099976 7.5600586-2.9699707 2.119873-6.539978 3.170166-10.0799561 4.0400391-8.1400146 2.0100098-16.4500122 3.1799316-24.8099976 3.7900391-11.6300049.8498535-23.3600464.6298828-34.960022.0700684 1.2399902-1.0500488 2.8099976-1.75 4.3699951-2.3200684 9.5100098-3.4499512 19.8900146-3.1401367 29.9799805-3.8100586 10.1000366-.6699219 20.7700195-2.6599121 28.1600342-9.5500488 6.2199707-5.7998047 4.9199829-14.2299805 5.0499878-22.0300293.1400146-8.6398926.2799683-17.2697754.4199829-25.9099121.0700073-4.2700195 4.4899902-5.7099609 7.4299927-4.3100586 1.5000001.7099609 2.6000367 2.1401367 2.5700074 4.3100586z" fill="#ea7a0a"/></g><g><path d="m130.4183807 89.6510773c-.5700073 2.4001465-1.4500122 4.8200684-3.1300125 6.6000977-2.789978 2.9599609-7.1599731 3.6098633-11.1799927 3.9199219-11.2799683.8701172-26.4299927 2.6101074-36.0700073-4.4899902-.9899902-.7299805-1.9099731-1.6101074-2.6699829-2.5900879-1.4699707-1.8598633-2.4199829-4.1098633-2.4299927-6.4799805-.0200195-2.5 1-4.9199219 2.460022-6.9299316 2.8099976-3.869873 7.2199707-6.329834 11.7999878-7.5700684 4.5899658-1.2299805 9.3900146-1.3598633 14.1300049-1.2998047 3.6799927.0400391 23.0599976-1.5900879 16.5899658-10.0600586-1.0100098-1.3200684-3.1099854-1.4399414-3.9699707-2.8999023-1.0300293-1.7299805-.9100342-5.0700684-1.3500366-7.0700684-.0499878-.2299805-.0899658-.5100098.0900269-.6599121.8900146-.75 4.3599854.5297852 5.2600098.8198242 2.6300049.8400879 5.1599731 2.1201172 7.039978 4.1899414 3.7000198 4.0600586 4.1300125 10.0800781 4.359993 15.6101074.0700073 1.6699219.1400146 3.3601074.1799927 5.0500488.1100463 4.6599121-.0399781 9.3300781-1.1099855 13.8598633z" fill="#9b8579"/></g><g><path d="m98.9714432 84.4831161c-.2135696-1.7688217-1.2002411-3.5117035-3.1035843-4.6594696-4.2818985-2.5820847-9.8840027-.2287216-9.2864227 5.2304993.2987213 2.7286758 2.479454 5.1109772 5.1232529 5.7148285 4.8661498 1.1114273 7.7066955-2.6422348 7.2667541-6.2858582z" fill="#d1d3d4"/></g><g><path d="m130.4183807 89.6510773c-.5700073 2.4001465-1.4500122 4.8200684-3.1300125 6.6000977-2.789978 2.9599609-7.1599731 3.6098633-11.1799927 3.9199219-11.2799683.8701172-26.4299927 2.6101074-36.0700073-4.4899902-.9899902-.7299805-1.9099731-1.6101074-2.6699829-2.5900879.8300171-.3598633 1.7999878-.5 2.8699951-.329834 10.1699829 1.5998535 21.0300293 2.8098145 31.3099976 1.6899414 8.5-.9299316 18.7000198-5.4799805 18.7500076-15.380127.0100098-1.3999023.4899902-2.4897461 1.2299805-3.2797852.1100464 4.6599121-.039978 9.3300781-1.1099854 13.8598633z" fill="#937a6d"/></g><g fill="#202020"><path d="m98.9715652 84.4830246c-.2791748.0319824-.5435791.0908203-.7730103.3278809-.2334595.2321777-.3995361.6479492-.7127075 1.3093262-1.2761688 2.6278458-3.3627853 3.3671646-5.6785278 2.576416-1.9307785-.6678162-3.4735336-2.461113-3.3161621-5.2463379 1.2655182-8.6781769 10.3802033 1.0475769 10.4804077 1.0327148.9636078-.0136185.0468445-6.3292465-6.3236694-7.1320801-3.7523499-.4444351-7.4597397 1.7324295-8.019165 6.675293.0063477.4138184.0126343.8234863.0188599 1.2280273.2804184 3.2638779 2.6205292 6.2428207 5.9112549 7.2966309.5061646.1599121.9799194.2463379 1.4240723.3078613 2.9284363.5904617 6.4925766-.8552399 7.8425903-4.0493164.3641968-.8442383.4682007-1.5725098.4883423-2.145752.024231-1.15625-.2838745-1.7158203-.534729-1.9746094-.2616578-.2597655-.5284425-.2377929-.8075563-.2060546z"/><path d="m132.2180939 66.3585129c-1.117569-9.8537674-5.1136703-14.919445-14.995491-16.5695763-.9933472-.1557617-1.7782593-.2443848-2.3591919-.2866211-1.1186523-4.6616478-2.1621323-6.9038658-3.4191284-9.1474609-.3099365-.4396973-.5639648-.8935547-.9328613-1.3205566l-.1231079-.1489258c-.0007935-.2539063-.0058594-.5256348-.0211182-.8173828-.0634766-.5827637-.1408691-1.2485352-.2503052-2.0046387-2.1387939-11.0321522-12.3133392-21.8782959-29.7730713-24.6218262-12.6502914-2.0951862-32.6724243.5093517-46.8214111 7.4162607-9.3205013 4.5132923-15.6158009 10.1157398-19.6034546 15.7763672-8.7215539 5.5488806-10.8327761 15.493453-11.5256956 25.7712393-.9987434 16.295742.5015566 46.1379204.5112305 46.2399864.5664756 5.5094299 1.5449922 14.1064987 17.5766602 16.4504395 4.9078007.7052689 31.3608398 1.7800217 46.3165283.7270508 2.1954346-.1555176 3.8965454-.3200684 5.046936-.4641113 1.1503296-.145752 1.7510376-.2556152 1.7458496-.3259277-.0109863-.1499023-2.4406738-.078125-6.8252563-.0300293-17.1234207.1697083-41.992485-1.5021591-45.9260864-2.1557617-12.2178965-2.0546036-14.7716646-7.8063049-15.2060547-14.4326172-.0081849-.1039429-.9601345-30.8379135.1286011-45.7680626.7325673-9.2974892 2.5909147-18.5878143 10.6473999-23.2436523 6.0770206-3.4163742 13.8040943-3.8618393 26.1013794-4.6303711 18.5553055-1.2037964 40.9667511-1.0061951 58.5668945 5.0583496 6.177681 2.1570282 8.0349808 4.0759239 10.4751587 15.2714844.713623 3.3513184 1.3711548 6.4716797 1.7806396 9.5651855.2319946 1.676754.4036865 3.3195763.5512695 4.945797-10.1738892 2.6371307-16.6652679-.1610489-26.590332 2.9909668-8.7720947 2.8298035-15.8260803 10.3380661-14.1566162 18.2216797 1.2611008 6.162262 6.1857224 9.4265137 12.0122681 11.7980957 8.6778488 3.1249924 18.9780502 2.3886337 28.1987305 1.5632324.1052246-.010498.2130737-.0192871.3189087-.029541-.223999 1.9833984-.5925293 3.7978516-1.2700195 5.3884277-4.6114655 11.0404968-18.9932556 10.8637619-36.3867798 14.4960938-2.2852173.4377441-2.4415894.7070313-2.420105.9907227.0209351.2768555.2109375.5424805 2.5577393.588623 13.1147232.0369263 34.3109512-2.6178055 39.5446777-14.6743164.8805923-2.0349121 1.3815308-4.2666016 1.6503906-6.5249023.0248413-.2033691.041748-.4074707.0631714-.611084 3.8279724-.4091263 7.772789-1.265831 10.5791016-3.9609375 6.276878-5.8997194 5.1783672-22.9221804 4.2325512-31.4916994zm-29.8088455-32.3708458c-18.2278595-6.2816658-40.8206711-6.4801083-60.1608887-5.0959473-11.1948681.7745075-18.9720287 1.3358593-25.1984863 4.0852051 5.1707802-5.0160351 10.9896469-8.636898 17.6618652-11.4963379 14.3639526-6.1953135 33.6048584-7.9038095 45.0005493-6.0158701 14.7150192 2.309413 23.8184586 10.4880114 27.3983765 20.6750488-1.5158081-.9074697-3.0993042-1.5869131-4.701416-2.1520986zm15.3365478 32.2077598c-.2311325-2.4365005-.4703369-4.2798538-.7530518-6.0720177.0955811.0378418.1854248.0651855.284668.1105957 1.6893158.8125877 3.3359299 3.4104233 1.8587646 4.942379-.3222045.3527833-.8048095.6972657-1.3903808 1.019043zm8.0112305 29.270752c-3.1126099 2.8453293-8.4777222 2.8326645-12.6920776 3.151123-8.3934555.5873489-18.6110382 1.2216492-26.5332031-1.736084-4.3254395-1.8030624-8.4840775-4.2765198-9.40448-8.8720703-1.2845154-5.9505463 4.9468613-11.4807663 11.3965454-13.6096191 9.8631821-3.2335129 17.6229858.0950623 28.5756226-4.2324219 1.6818848-.7036133 3.2491455-1.5371094 4.4282227-2.9521484 2.836319-3.3460693.082901-8.1402435-3.5058594-9.1328087-.5359497-.135498-.9914551-.1789551-1.4105225-.1914063-.3407593-1.8659668-.7268677-3.7478027-1.1213989-5.626709-.1621704-.7407227-.3286743-1.4919434-.5053101-2.2495117.5335693.1518555 1.22229.3398438 2.059021.5754395 8.2788925 2.415432 12.1765976 5.7794609 12.9076004 15.9833946.4937286 7.0935135 1.1056518 24.1865921-4.1941605 28.8928223z"/></g></g></svg>