<svg id="Layer_1" enable-background="new 0 0 135 135" height="512" viewBox="0 0 135 135" width="512" xmlns="http://www.w3.org/2000/svg"><g><g><path d="m124.4237366 68.7525635c.1299438 10.9599609-.0599976 21.9101563-.5599976 32.8598633-.3000488 6.5102539-.6900024 13.0302734-1.0200195 19.5400391-.2600098 5.1303711-2.2600098 7.8999023-7.7299805 8.3598633-16.1600342 1.3603516-32.4200439 2.6303711-48.6400146 1.4804688-14.2399902-1-28.4000244 1.5297852-42.7200317-1.2001953-9.5700073-1.8300781-8.8399658-5.2998047-9.4099731-14.5600586-1.2299805-19.8798828-2.0300293-39.7797852-2.3599854-59.699707-.1000366-6.0703125-1.3699951-14.9702148-1.4000244-23.6801758-.03998-11.2402345 1.9899882-22.1601574 11.2600078-26.2602546 4.8200073-2.1298831 12.5999775-1 17.7700214-1.2099609 7.1299438-.2998047 14.2699585-.5097659 21.3999634-.6499026 14.2700195-.2797852 28.5499878-.25 42.8200073.1000977 10.5900269.2597659 16.2399902 6.4101563 19.4000244 16.6699219 1.0799561 3.5097656 1.7099609 7.2900391 2.0299683 11.2099609 1.0800171 12.6298835-.9500122 26.6201179-.8399658 37.0400398z" fill="#f1f2f2"/></g><g><path d="m125.2637024 31.7125244c-38.210022-1.3701172-76.4699707-1.3398438-114.6799927.1401367-.0399799-11.2402343 1.9899883-22.1601572 11.2600079-26.2602544 4.8200073-2.1298831 12.5999775-1 17.7700214-1.2099609 7.1299438-.2998047 14.2699585-.5097659 21.3999634-.6499026 14.2700195-.2797852 28.5499878-.25 42.8200073.1000977 10.5900269.2597659 16.2399902 6.4101563 19.4000244 16.6699219 1.0799561 3.5097663 1.709961 7.2900397 2.0299683 11.2099616z" fill="#fdffff"/></g><g><path d="m26.2373219 56.2578506c5.6403675-3.8649063 17.0577869-.6408958 23.480917-.2620697.7926331.0467453 1.6463203.1185036 2.253994.6721611.6830254.6223106.8580513 1.6689568.9690704 2.6286469.5745697 4.9668159.6113968 10.0064735.1094818 14.9825249-.1512718 1.4997559-.4101715 3.1209717-1.4351463 4.1415634-.8405876.8369904-2.0290298 1.0952682-3.1573524 1.2866364-6.2353401 1.0575256-13.6360092 2.4409332-19.7718678.1597137-7.3766232-2.7425308-5.783453-8.426651-5.7925606-16.06007-.0045147-3.7830124 1.2846031-6.1383286 3.3434639-7.5491067z" fill="#3fffd0"/></g><g><path d="m31.74263 16.3455925c-10.3060169-5.5930099-9.1736031 12.3288937-.6497955 7.2356739 1.2327538-.7366066 2.1973114-2.0222874 2.3908272-3.4867153.1935691-1.464819-.4800377-3.0644627-1.7410317-3.7489586z" fill="#00aeef"/></g><g><path d="m48.9729996 16.3455925c-10.306015-5.5930099-9.1736031 12.3288937-.6497955 7.2356739 1.2327538-.7366066 2.1973152-2.0222874 2.390831-3.4867153.1935653-1.464819-.4800416-3.0644627-1.7410355-3.7489586z" fill="#ec008c"/></g><g><path d="m66.2033691 16.3455925c-10.306015-5.5930099-9.1736031 12.3288937-.6497955 7.2356739 1.2327576-.7366066 2.1973114-2.0222874 2.390831-3.4867153.1935654-1.464819-.4800415-3.0644627-1.7410355-3.7489586z" fill="#00aeef"/></g><g><path d="m26.2373219 89.9245148c5.6403675-3.8648987 17.0577869-.640892 23.480917-.2620697.7926331.0467453 1.6463203.1185074 2.253994.6721649.6830254.6223068.8580513 1.6689606.9690704 2.6286469.5745697 4.9668121.6113968 10.0064697.1094818 14.9825287-.1512718 1.4997482-.4101715 3.1209641-1.4351463 4.1415558-.8405876.836998-2.0290298 1.0952682-3.1573524 1.2866364-6.2353401 1.0575256-13.6360092 2.4409409-19.7718678.1597137-7.3766232-2.7425232-5.783453-8.426651-5.7925606-16.0600662-.0045147-3.7830125 1.2846031-6.1383287 3.3434639-7.5491105z" fill="#38ff2a"/></g><g fill="#202020"><path d="m125.3504639 28.6677647c-.2321777-1.3432617-.4110718-2.5380859-.6793213-3.5546875-.244873-1.0195313-.4287109-1.8857422-.6717529-2.5629883-.4390869-1.3652344-.7004395-2.0673828-.7675781-2.0463867-.1889038.0532227.7260132 2.9199219 1.3046265 8.2695313.0380249.3867188.0742798.7900391.109314 1.2021484-2.4048462-.7045898-10.9483032-1.1943359-41.2155762-1.1943359-20.258976 0-61.3012085.730957-69.6654663 1.6914063.500061-4.0854492 1.2543945-7.9858398 2.4483652-11.5722656.6323853-1.9018555 1.3847656-3.7133799 2.2681274-5.4067392 2.7465134-5.3193369 5.1626797-7.3009462 12.0559082-7.3203125 34.9714127-.078433 21.7427921-1.065002 69.946167-.8452148 1.6452026.0224609 3.2767334.0043945 4.6365967.0913086 8.1971207.0963869 12.7880783 5.4700279 16.3554077 12.4702158 1.208252 2.543457 1.4678345 2.7089844 1.7565308 2.6142578.2450562-.0791016.5119629-.3686523-.2799683-3.190918-3.8693237-12.370554-11.5345612-14.6964645-22.402771-15.1264658-33.7989197-1.1303281-38.6632614.1386688-70.015625.0424805-8.300127.0042548-12.0699272 2.6177106-15.6038828 9.4052734-.9988403 1.9008789-1.8372803 3.9106445-2.5344849 5.989747-1.3959351 4.1625977-2.2285156 8.5869141-2.7546387 13.1328125-1.8575535 16.3488445-.5203714 31.8902302 2.164917 82.5024414.0919189 1.8598633.2573242 3.7597656.6362915 5.6889648 1.4658823 7.4411926 4.9108801 11.3681564 12.4399424 12.4921951 1.9852905.2822266 3.8434448.4174805 5.7678833.6186523 21.0407619 1.9082184 60.1779022 1.177887 81.2938232.5429688 1.9482422-.0522461 3.9537354-.2236328 5.9715576-.8549805 1.0058594-.3286133 2.0154419-.8168945 2.9240723-1.5229492.9407959-.7109375 1.5824585-1.6948242 2.0969849-2.6372147.9367676-1.9399414 1.2785034-3.9082031 1.4851074-5.8027344.0102158-.1034927 1.3661423-30.1613693.9823608-54.3789063-.020752-5.6293945.3673096-10.9248047.5627441-15.7612305.2218018-4.8393555.3168945-9.2358398.2148438-13.0981445-.0943003-3.8632831-.4315806-7.1860351-.8305063-9.8779296zm-.3804932 9.8906231c-.026001 3.8237305-.2439575 8.1777344-.5864868 12.9946289-.3157349 4.8222656-.824585 10.0961914-.9213257 15.8447266-.1125793 25.0862579-1.8236313 53.9859085-1.8348999 54.0864258-.2006836 1.7138672-.5611572 3.4077148-1.2546997 4.7905273-1.2167969 2.7358475-4.9141235 3.2597733-8.4940796 3.3134842-20.7158661.3948059-60.4001656.7330627-80.8778076-1.2651367-7.7697353-.9230194-12.8945522-.3876038-14.7372437-10.0976639-.3210459-1.6689453-.4681406-3.4082031-.5448008-5.1582031-.0842896-1.75-.090332-3.5131836-.0910034-5.2949219-.050024-17.9790955-4.5245438-53.6947556-1.9619141-76.5556641.0025024-.0219727.0061035-.0429688.008606-.0644531 8.1517344.9653301 49.421936 1.7016582 69.7558594 1.7016582 30.8153076 0 39.1121826-.5078125 41.3394165-1.2329082.1372691 2.0581054.2227793 4.3730468.2003794 6.9375z"/><path d="m33.9687462 16.4626865c-.7277222-.6787119-1.3141479-.755372-1.6297607-.6826181-.3311768.0839844-.459898.3203135-.5963116.5654306-.3054199.5112305-.3243408.9448242-.119751 1.7875977.0768433.4213867.2261353 1.0991211-.0237427 1.8623047-.1334839.3959961-.3792725.8666992-.8344116 1.3105469-.2355347.2246094-.4720459.4194336-.8334351.5991211-.3894043.2041016-.8068848.40625-1.1845093.4804688-.4273071.1044922-.7922363.1108398-1.109375-.003418-.3236084-.0932617-.7125244-.4179688-1.0336304-.9814453-.3285522-.5507813-.5108032-1.3110352-.5477295-2.0419922-.0201416-.7324219.1304932-1.4443359.428833-1.9438477.2997437-.4912109.7330322-.8417969 1.3289795-1.0078125.5921631-.1645508 1.2573853-.1386719 1.8296509-.1054688 1.1556396.1235352 1.9597778.3149414 2.0991211.0439453.1189575-.222168-.3981934-.8920908-1.6320801-1.559083-.6325073-.2983398-1.4486694-.6293945-2.5220337-.6450195-1.0592041-.0317383-2.4000244.4467773-3.3258057 1.4418945-.9285278.9833994-1.4111938 2.277833-1.5762329 3.552247-.1385498 1.2817383-.0131226 2.6015625.5128174 3.8432617.5039063 1.2270508 1.4644165 2.4365234 2.8052368 3.043457 1.3267822.6308594 2.7109375.5678711 3.6734009.3276367.9173584-.206543 1.62323-.5703125 2.2528076-.9208984.6690044-.3652344 1.2821026-.878418 1.7431011-1.3925781.9447632-1.0429688 1.4450073-2.2363281 1.6062622-3.3125.1677246-1.1044922-.0333862-2.0375977-.3026123-2.7280273-.2824095-.6982421-.6543578-1.192871-1.0087889-1.5332031z"/><path d="m51.1990929 16.4626865c-.7277222-.6787119-1.3140869-.755372-1.6296997-.6826181-.3312378.0839844-.4599609.3203135-.5963135.5654306-.3054199.5112305-.3244019.9448242-.119751 1.7875977.0767822.4213867.2260742 1.0991211-.0238037 1.8623047-.1334229.3959961-.3792114.8666992-.8343506 1.3105469-.2355347.2246094-.4720459.4194336-.8334351.5991211-.3894653.2041016-.8068848.40625-1.1845093.4804688-.4273682.1044922-.7922974.1108398-1.109375-.003418-.3236694-.0932617-.7125244-.4179688-1.0336304-.9814453-.3285522-.5507813-.5108032-1.3110352-.5477295-2.0419922-.0202026-.7324219.1304321-1.4443359.428833-1.9438477.2996826-.4912109.7329712-.8417969 1.3289185-1.0078125.5922241-.1645508 1.2573853-.1386719 1.8297119-.1054688 1.1556396.1235352 1.9597168.3149414 2.0991211.0439453.1188965-.222168-.3982544-.8920908-1.6321411-1.559083-.6325073-.2983398-1.4486694-.6293945-2.5220337-.6450195-1.0591431-.0317383-2.3999634.4467773-3.3257446 1.4418945-.9285889.9833994-1.4112549 2.277833-1.5762939 3.552247-.1384888 1.2817383-.0131226 2.6015625.5128174 3.8432617.5039063 1.2270508 1.4644165 2.4365234 2.8052368 3.043457 1.3267822.6308594 2.7109375.5678711 3.6734009.3276367.9173584-.206543 1.623291-.5703125 2.2528687-.9208984.6690063-.3652344 1.2821045-.878418 1.743103-1.3925781.9447632-1.0429688 1.4449463-2.2363281 1.6062622-3.3125.1676636-1.1044922-.0334473-2.0375977-.3026123-2.7280273-.2824097-.6982421-.654419-1.192871-1.0088501-1.5332031z"/><path d="m68.4295044 16.4626865c-.7277222-.6787119-1.3141479-.755372-1.6297607-.6826181-.3311768.0839844-.4598999.3203135-.5963135.5654306-.3054199.5112305-.3244019.9448242-.119751 1.7875977.0767822.4213867.2261353 1.0991211-.0237427 1.8623047-.1334839.3959961-.3792725.8666992-.8344116 1.3105469-.2355347.2246094-.4720459.4194336-.8334351.5991211-.3894043.2041016-.8068886.40625-1.1845131.4804688-.4273071.1044922-.7922363.1108398-1.109375-.003418-.3236084-.0932617-.7125244-.4179688-1.0336304-.9814453-.3285522-.5507813-.5108032-1.3110352-.5477295-2.0419922-.0201416-.7324219.1304321-1.4443359.428833-1.9438477.2997437-.4912109.7330322-.8417969 1.3289795-1.0078125.5921631-.1645508 1.2573853-.1386719 1.8296547-.1054688 1.1556396.1235352 1.9597778.3149414 2.0991211.0439453.1188965-.222168-.3981934-.8920908-1.6320801-1.559083-.6325111-.2983398-1.4486732-.6293945-2.5220985-.6450195-1.0591431-.0317383-2.3999634.4467773-3.3257446 1.4418945-.9285278.9833994-1.4111938 2.277833-1.5762939 3.552247-.1384888 1.2817383-.0131226 2.6015625.5128174 3.8432617.5039673 1.2270508 1.4644165 2.4365234 2.8052979 3.043457 1.3267212.6308594 2.7109375.5678711 3.6734047.3276367.9173584-.206543 1.62323-.5703125 2.2528076-.9208984.6690063-.3652344 1.2821045-.878418 1.743103-1.3925781.9447632-1.0429688 1.4449463-2.2363281 1.6062622-3.3125.1676636-1.1044922-.0334473-2.0375977-.3026123-2.7280273-.2824097-.6982421-.654419-1.192871-1.0087891-1.5332031z"/><path d="m54.2349205 57.6443253c-.3616943-.9248047-.8660278-1.9165039-1.8324585-2.7304688-1.0418091-.847168-2.1185303-1.0395508-3.0454102-1.1767578-.9432983-.1113281-1.6914673-.1333008-2.5020752-.1987305-.8021851-.0532227-1.5927124-.1054688-2.3695068-.1567383-1.5591431-.0961914-3.0748291-.1518555-4.5209351-.1689453-2.8934326-.0258789-5.5246582.1347656-7.711853.5644531-2.1871929.4091797-3.9123516 1.1044922-4.9642925 1.8085938-.255127.1845703-.4820557.3486328-.6793213.4912109-.1752319.175293-.31604.3286133-.4244385.4555664-.2164307.2548828-.3008423.4086914-.2531738.4599609.0476074.0517578.2263794.0009766.5111084-.1328125.1425781-.0668945.3106689-.1557617.50354-.262207.2095947-.0825195.4506836-.1772461.7217407-.2836914 1.0778198-.4160156 2.7114868-.8139648 4.7974834-.965332 4.1514282-.3647461 10.0861816.3330078 16.4524536 1.234375.677063.1186523 1.289917.3574219 1.5281982.6245117 2.5452957 2.3318672 1.1427841 15.8536758.5040283 18.487793-.1450806.6484375-.3758545 1.1103516-.6012115 1.3486328-.2064667.2211914-.5437469.40625-1.1263275.5556641-.5527954.1435547-1.3414917.2397461-2.0897217.3544922-5.0014381.7256927-15.8781891 1.4684448-19.2364483.1982422-1.8855591-.5908203-2.34375-3.5522461-2.427063-5.9331055-.1418457-2.7089844-.4189453-4.78125-.4804688-6.5170898-.0845337-1.7270508-.0354614-3.0742188.1066284-4.1152344.2939453-2.0761719.7991943-2.9804688.9663696-3.5722656.199646-.5703125.0628052-.8193359-.1303101-1.0219727-.1931763-.2026367-.3947144-.3823242-1.0646362-.0195313-.6206055.3598633-1.8121948 1.4399414-2.5835571 3.9936523-.3804321 1.2631836-.6110229 2.8486328-.6714478 4.7504883-.0830688 1.8964844.0794678 4.1411133.1062012 6.5991211.0196533 1.3603516.06427 2.8969727.5606689 4.6650391.2578735.878418.6520996 1.8320313 1.336792 2.7402344.6647339.9052734 1.7062378 1.71875 2.8339844 2.1489258 4.1630192 1.6314468 14.5930004 1.1208038 21.2886333.0268555.7637329-.1357422 1.5311279-.2250977 2.5135498-.4902344.9400024-.2548828 2.1350098-.7705078 3.0135498-1.7895508.8550415-.9985352 1.2241211-2.1362305 1.4232788-3.1118164.2034912-1.0068359.248291-1.8823242.3302002-2.7109375.4232944-4.7284393.8771785-11.7338944-.7837521-16.1503906z"/><path d="m54.2349205 91.3108292c-.3616943-.9243164-.8660278-1.9160156-1.8324585-2.7304688-1.0418091-.847168-2.1185303-1.0395508-3.0454102-1.1767578-.9432983-.1113281-1.6914673-.1333008-2.5020752-.1982422-.8021851-.0532227-1.5927124-.1054688-2.3695068-.1572266-1.5591431-.0961914-3.0748291-.1518555-4.5209351-.168457-2.8934326-.0258789-5.5246582.1342773-7.711853.5644531-2.1871929.4086914-3.9123516 1.1044922-4.9642925 1.8085938-.255127.184082-.4820557.3481445-.6793213.4907227-.1752319.175293-.31604.3286133-.4244385.4560547-.2164307.2543945-.3008423.4082031-.2531738.4594727.0476074.0517578.2263794.0009766.5111084-.1328125.1425781-.0668945.3106689-.1557617.50354-.262207.2095947-.0820313.4506836-.1772461.7217407-.2836914 1.0778198-.4155273 2.7114868-.8139648 4.7974834-.965332 4.1514282-.3642578 10.0861816.3330078 16.4524536 1.2348633.677063.1181641 1.289917.3574219 1.5281982.6240234.3144531.2885742.6257935.8466797.8378906 1.5170898 1.3133011 4.0268707.2886543 17.0258484-.9350739 18.3198242-.2064667.2207031-.5437469.4057617-1.1263275.5556641-.5527954.1430664-1.3414917.2392578-2.0897217.3540039-5.5728722.808609-15.9158077 1.4547043-19.2364483.1987305-3.2624397-1.0230942-3.525423-14.1524734-1.8345337-20.1381836.199646-.5703125.0628052-.8188477-.1303101-1.0219727-.1931763-.2026367-.3947144-.3818359-1.0646362-.0195313-4.5071011 2.6134796-3.4811306 16.8276443-2.5881348 20.0083008.2578735.8789063.6520996 1.8325195 1.336792 2.7402344.6647339.9057617 1.7062378 1.7192383 2.8339844 2.1494141 4.2222195 1.6546478 14.8456402 1.0790329 21.2886333.0263672.7637329-.1357422 1.5311279-.2246094 2.5135498-.4897461.9400024-.2553711 2.1350098-.7709961 3.0135498-1.7900391.8550415-.9985352 1.2241211-2.1357422 1.4232788-3.1113281.2034912-1.0068359.248291-1.8828125.3302002-2.7109375.3061523-3.4204102.5349731-6.9960938.2872314-10.6235352-.1459347-1.8168946-.3656612-3.6518556-1.0709835-5.5273438z"/><path d="m89.9921875 97.0788956c-9.2872925 0-29.2184486.9116211-29.2184486 2.0366211 0 1.1245117 19.9311562 2.0361328 29.2184486 2.0361328 16.9491577 0 17.3035889-.9116211 17.3035889-2.0361328 0-1.125-.3544312-2.0366211-17.3035889-2.0366211z"/><path d="m83.4992065 108.4241104c-7.2234497 0-22.7254677.9116211-22.7254677 2.0361328s15.502018 2.0361328 22.7254677 2.0361328c13.1826782 0 13.458313-.9116211 13.458313-2.0361328s-.2756347-2.0361328-13.458313-2.0361328z"/><path d="m89.9921875 63.7458878c-9.2872925 0-29.2184486.9116211-29.2184486 2.0361328s19.9311562 2.0361328 29.2184486 2.0361328c16.9491577 0 17.3035889-.9116211 17.3035889-2.0361328s-.3544312-2.0361328-17.3035889-2.0361328z"/><path d="m96.9575195 77.1272354c0-1.125-.2756348-2.0366211-13.458313-2.0366211-7.2234497 0-22.7254677.9116211-22.7254677 2.0366211 0 1.1245117 15.502018 2.0361328 22.7254677 2.0361328 13.1826783 0 13.458313-.9116211 13.458313-2.0361328z"/></g></g></svg>