<svg id="Layer_1" enable-background="new 0 0 135 135" height="512" viewBox="0 0 135 135" width="512" xmlns="http://www.w3.org/2000/svg"><g><g><path d="m100.075737 49.6437225c.3682632.0175018.7366867.0355873 1.1052933.0545731 3.9126434.201519 7.5999527-.0343781 11.5665207-.4142876 14.3664627-1.3759918 15.6893845-16.8039818 11.7544479-26.7393017-1.8368073-4.6377716-5.8695679-9.2018728-10.9309845-10.9249802-5.0894012-1.7326326-12.0984192-.9139872-16.4054108 2.1975164-2.8967972 2.0927372-4.7364273 5.237668-6.4433212 8.1800547-2.588295 4.4618473-4.0011368 9.4636345-4.6010208 14.490736-.2969666 2.4886093-.3938293 4.9977074-.3155136 7.5003624.0333405 1.0656052-.1610489 2.6670647.2399292 3.6676483.4308167 1.0750198 1.4681244 1.1666412 2.7102051 1.2962341 3.7740478.3937646 7.5384369.5117303 11.3198547.6914445z" fill="#cf5ff9"/></g><g><path d="m112.537941 12.9324064c-.8400726 1.1759844-2.9804993.1335316-3.9497604-.1023874-.7821198-.1903696-1.5823059-.3939161-2.3864822-.4845676-1.6208267-.1827059-3.2784729.0128317-4.8341827.4907274-5.0006561 1.5361443-8.5260391 5.5455065-11.0268478 9.9820032-7.1699753 12.7197247-5.3099899 28.4296818-2.0699997 42.6396332 3.2299805 14.2001953 7.6799927 28.7402344 5.0100098 43.0703125-.8099976 4.3496094-2.3099976 8.6699219-5.0900269 12.1499023-6.7599487 8.4702225-18.9599609 9.939949-29.8499756 10.4897537-13.210022.6801758-28.039978 3.9003906-37.7799683-3.849617-2.4800415-1.9599609-4.6400146-4.6503906-6.3500366-8.2602539-3.0599976-6.4697266-3.9899902-13.699707-4.5499878-20.8198242-1.7299805-22.0600586-.2999878-44.3500938 4.2299805-66.0102539 2.6500244-12.6298847 8.9000244-21.3696289 22.0700073-24.989748 16.7999877-4.6201107 38.4799803-3.6201107 55.6699828-1.8300719 4.3200073.4501953 8.6100464 1.1801758 12.75 2.5400395 1.864624.6183367 3.7376862 1.2278595 5.5173264 2.0684862.8239594.3892031 3.3043518 1.2621908 2.8324203 2.5448341-.0525665.1428748-.1173096.2658301-.1924591.3710318z" fill="#e27fff"/></g><g><path d="m112.6327515 12.9639931c-.160553.3065901-.6897507.483881-1.7898026.4125042-.912674-.0592184-1.7528305-.4923935-2.6293335-.7536497-3.3175964-.9888716-5.7095566.7706089-8.7632446 1.2484694-2.9532623.4621449-6.9586945-.9065943-9.9697037-1.2600536-6.4633865-.758729-12.9714737-1.1794453-19.4801025-1.1934824-13.8099938-.0297853-32.8499146.0302952-43.3898697 10.540038-5.5700073 5.5400391-7.4100342 13.5903339-8.75 21.0600605-1.5900269 8.9199219-2.0800171 18.0200195-2.1000366 27.0800743-.0199585 8.8398438.4200439 17.6899414 1.0100098 26.5200195.5499878 8.3701172 1.4199829 16.8100586 5.1600342 24.4399414 1.2199707 2.5.2999878 4.8598633-1.3699951 6.2602539-2.4800415-1.9599609-4.6400146-4.6503906-6.3500366-8.2602539-3.0599976-6.4697266-3.9899902-13.699707-4.5499878-20.8198242-1.7299805-22.0600586-.2999878-44.3500938 4.2299805-66.0102539 2.6500244-12.6298847 8.9000244-21.3696289 22.0700073-24.989748 16.7999877-4.6201126 38.4799803-3.6201126 55.6699828-1.8300738 4.3200073.4501953 8.6100464 1.1801758 12.7500076 2.5400429 1.9261322.6387315 3.8805161 1.255549 5.7041397 2.1572719 1.0467758.5175914 2.9493485 2.0921878 2.5479508 2.8586635z" fill="#e59fff"/></g><g><path d="m61.6534157 58.1097641-8.3718529-4.4422951c-.8127556-.431263-1.7878571-.4390526-2.6075363-.0208244l-8.4431877 4.3079872c-2.0641594 1.0532036-4.4523811-.693615-4.0413589-2.9559669l1.6812363-9.2538719c.1632156-.8983841-.1306229-1.818737-.7857628-2.461132l-6.7483253-6.6170387c-1.649807-1.6177101-.7094173-4.4057426 1.5913277-4.7179165l9.4109154-1.2769146c.9136276-.1239662 1.7071266-.684988 2.1219063-1.5002346l4.2724915-8.3975468c1.0445251-2.0529995 4.0139427-2.0292816 5.0248566.0401344l4.1350288 8.4646988c.4014359.8217659 1.185688 1.3953896 2.0971756 1.5339317l9.3888664 1.4270706c2.2953568.3488884 3.1901703 3.151577 1.5142059 4.7427216l-6.8553238 6.5083885c-.6655273.6318436-.9743347 1.5473862-.8257828 2.4482574l1.5301437 9.2795219c.374092 2.2686234-2.0423051 3.9770661-4.0890237 2.8910294z" fill="#fcff15"/></g><g fill="#202020"><path d="m119.7196732 14.2504616c-9.8983841-9.7552567-22.669159-10.9046471-35.4866333-12.0053706-15.7475434-1.2875133-35.2585412-1.5719134-50.3925171 3.1303711-10.6868744 3.60819-17.6931858 10.7702307-20.8682871 22.8969721-.401001 1.4829102-.7427368 3.0307617-1.0342407 4.5288086-.3067627 1.5136719-.612915 3.0537109-.8865967 4.6245117-.5834351 3.1352539-1.0826416 6.3837891-1.5549316 9.7241211-2.4697929 17.72501-3.8554822 51.6886712 1.6621093 67.9921914 7.1712122 21.2162094 24.6103668 19.0627213 43.2947388 17.5068283 19.6914978-1.430954 35.7745056-2.9761963 40.2198486-22.6264572 4.6503448-21.4846802-6.4937668-41.8213043-7.8412476-62.8964882-1.4253006-20.0303535 8.2822495-37.8543892 21.7018433-34.1298828 1.4226074.4228516 2.1028442.8574219 2.1494751.7753906.0186157-.0297852-.1352539-.1577148-.4591064-.3818359-.3259277-.2197266-.8418579-.5019531-1.5591431-.7890625-10.7063208-4.0527735-25.1010427 9.0476627-23.7711172 34.6367187.9473038 21.1412544 11.6771774 41.5922279 6.9730835 62.1386757-3.1083908 13.0542374-12.1316299 17.4622116-25.4185181 19.0307541-1.99646.234375-4.0192871.3813477-6.0522461.5048828-2.0153198.1030273-4.1483154.2089844-6.2085571.3706055-4.1445313.309082-8.246582.7075195-12.305542.8325195-13.7706318.4101563-22.7336178-2.7517929-27.1674805-16.1708908-5.1140451-15.5337982-3.6931887-48.651268-1.2051392-66.2368164.4711914-3.2817383.9664917-6.4736328 1.5435181-9.5532227.5648193-3.0708008 1.1387949-6.109375 1.8505869-8.8183594 1.3105469-5.0029297 3.5125732-9.5234375 6.6882324-12.9619141 1.5800171-1.7226563 3.387146-3.171875 5.3311768-4.3613281 1.9449463-1.1938477 4.0557861-2.0639648 6.1818848-2.7875977 14.4801025-4.5266795 33.7437897-4.2529063 48.8216553-3.1020503 12.2284698.9769635 24.1802368 1.9124656 33.2960205 10.6948242 3.539978 3.3759766 5.7034302 7.3686523 6.5864868 11.2885742.9046631 3.9243164.6737671 7.6748047-.1872559 10.8330078-.8445435 3.1601563-2.3950195 5.703125-4.3008423 7.2060547-1.8853149 1.5161133-4.1580811 1.9804688-6.1981812 2.1923828-2.055603.1977539-3.930603.1611328-5.5609131.1943359-3.2504272.0463867-5.4746094.1196289-6.9959106.2124023-3.0426025.1855469-3.2734985.4492188-3.2788086.7304688-.0053711.2807617.215271.5532227 3.2485352.8544922 1.5166626.1508789 3.7364502.309082 6.9827271.4794922 1.6162109.0722656 3.508728.2231445 5.8015137.1123047 1.1432495-.059082 2.3934326-.2084961 3.7224731-.5605469 1.3220825-.3569336 2.7402954-.9648438 4.0275879-1.9277344 2.5918579-1.9189453 4.510376-5.0117188 5.572998-8.6289063 1.0744629-3.6074219 1.4268112-7.8935547.4622192-12.4326172-.930726-4.5332072-3.4234628-9.2675822-7.3854989-13.1206095z"/><path d="m66.0583572 45.0834694c.0327759-.0585938.0712891-.1142578.1152954-.1665039l.0701904-.0751953c7.9753189-6.9069672 8.3030472-7.7148438 8.4550171-9.4326172.6962051-7.7402782-12.7987061-4.9501152-13.9606323-6.9868164-4.4106598-9.0261192-4.1163597-8.449501-4.3580322-8.8574219-.4133911-.6982422-1.0394287-1.3237305-1.7866821-1.7324219-1.4912109-.824707-3.3930054-.8193359-4.9195557.1352539-.7543945.4570313-1.3953857 1.2182617-1.7507935 1.9438477-3.8757668 7.7274113-4.1737633 8.6033192-4.2794189 8.5327148-.1043701.1416016-.263916.2509766-.4423828.3066406-1.1986923.3184032-9.3894005 1.1294365-10.8348389 1.8061523-1.8484497.855957-2.9181519 2.9536133-2.5318604 4.9267578.0855713.4926758.2705078.9658203.5113525 1.3999023.7918091 1.2060204 7.4117165 7.1473236 7.8126831 7.7099609.0773315.1044922.1347656.2231445.1742554.347168.0401001.1240234.0562134.2548828.0560303.3852539.0009613.0084801-1.5636787 9.5153275-1.5549316 10.1787109.0073853.402832.071228.8071289.1986084 1.1879883.5083008 1.5444336 1.9042358 2.5917969 3.3930054 2.7558594.7449341.0883789 1.5070801-.0522461 2.1466675-.3588867.2648735-.1157494.3239861-.1571007 6.3399658-3.4545898.7659912-.4243164 1.5057373-.8334961 2.2169189-1.2270508.4966431-.2719727 1.1020508-.3032227 1.6101074-.1196289.5453415.2556381 8.7154274 4.1952477 8.9141846 3.8212891.200428-.3789368-7.9093513-5.1142273-8.3043823-5.284668-.8734131-.4038086-1.982605-.4536133-2.9736938-.0136719-.7523804.3510742-1.5350342.7163086-2.3453979 1.0947266-5.8640747 2.7745171-6.348114 3.014183-6.4198608 3.03125-.2849121.1157227-.578186.1469727-.8654175.0952148-.5775146-.0932617-1.1074219-.5703125-1.2386475-1.1098633-.0372925-.1342773-.0485229-.2739258-.0440063-.4160156.0325661-.4317436 1.9307976-9.3942642 1.968689-9.9990234.1303024-1.9454384-.2956314-2.9190063-7.8137207-9.9882813-.2705078-.2827148-.3123169-.4047852-.3522339-.6396484-.0727539-.4355469.2172852-.9228516.5958862-1.0683594.1152344-.0385742.1777344-.0561523.3652344-.0844727 9.8574791-1.2187805 9.5893211-1.1745682 9.9904175-1.2875977.9445801-.253418 1.8059082-.8046875 2.4235229-1.5634766.8019333-.9133911 4.6463585-9.1433849 5.1634521-9.4916992.2234497-.1479492.6107788-.1459961.8272095-.0073242.1113892.0654297.1911621.1474609.2625732.2685547.1000099-.08634-.3781013-.7331657 4.2963257 8.7578125.6020813 1.0724678 1.6036491 1.9017487 2.8450317 2.2680664.459301.1368294 9.858017 1.5077896 9.9580688 1.5224609.2160645.0375977.2233276.046875.3276367.0791016.4018326.1636314.657608.7822609.3165283 1.206543-8.1861458 7.9925537-6.6525536 6.5174713-7.0265503 6.8847656-.1085815.1210938-.2131348.2441406-.3078613.3740234-.190979.2587891-.3527832.5341797-.4837036.8198242-.6763535 1.4889641-.6193504 2.20158 1.3968506 11.2504883.3210449 1.4222755.1958008 2.3977089-1.536377 2.8144531-.3337402.0712891-.5650024.1015625-.7191772.1738281-.15802.0751953-.241394.1884766-.3063965.3129883-.0650635.1245117-.1182251.2504883-.0423584.4296875.0757446.1796875.2783203.4360352.8258667.6503906.5257568.1918945 1.5045166.375 2.697937-.2573242 1.3579559-.7458954 2.1155777-2.0467453 1.9850464-3.9946289-.0204468-.1933594-.0414429-.3925781-.0631714-.5976563-.9134445-8.4567143-1.3259811-8.6442296-.9984741-9.2568356z"/><path d="m79.9662552 82.9960709c-.102356-.5629883-.298584-1.0136719-2.7628784-1.0009766-2.4750977-.0112305-7.1878052.4057617-16.666687.5361328-10.4301147.1225586-32.8811035 1.2397461-32.8641357 2.3686523.0168457 1.1201172 22.4475708 1.8266602 32.930481 1.7036133 9.6109009-.1289063 14.5917969-1.0283203 17.0258789-1.7607422 2.446411-.755371 2.4365233-1.3032226 2.3373412-1.8466796z"/><path d="m79.9662552 94.5673599c-.102356-.5629883-.298584-1.0136719-2.7628784-1.0014648-2.4750977-.0107422-7.1878052.40625-16.666687.5366211-10.4301147.1225586-32.8811035 1.2397461-32.8641357 2.3686523.0168457 1.1201172 22.4475708 1.8266602 32.930481 1.703125 9.6109009-.1289063 14.5917969-1.0283203 17.0258789-1.7602539 2.446411-.7553711 2.4365233-1.3037109 2.3373412-1.8466797z"/><path d="m77.2033768 105.1371841c-2.4750977-.0107422-7.1878052.40625-16.666687.5366211-10.4301147.1225586-32.8811035 1.2397461-32.8641357 2.3686523.0168457 1.1196289 22.4475708 1.8266602 32.930481 1.703125 9.6109009-.1289063 14.5917969-1.0283203 17.0258789-1.7602539 2.4464111-.7558594 2.4365234-1.3037109 2.3373413-1.8466797-.1023561-.5629882-.2985841-1.0136718-2.7628785-1.0014648z"/></g></g></svg>