<svg id="Layer_1" enable-background="new 0 0 135 135" height="512" viewBox="0 0 135 135" width="512" xmlns="http://www.w3.org/2000/svg"><g><g><path d="m88.8131332 111.9810562c-1.2299805 4.1699219 1.5400391 9.1098633-.8900146 12.7700195-1.3999634 2.1098633-4.1099854 3.0297852-6.6499634 3.5898514-3.6400146.8100586-7.3699951 1.2001953-11.1000366 1.1601563-2.6399536-.0302734-5.3499756-.2900391-7.7399864-1.3500977-2.3999634-1.0698318-4.4599609-3.0600662-4.9899902-5.5400467-.1199951-.5498047-.1599731-1.1196289-.1400146-1.6796875.1000366-4.1303711 3.0599976-8.5600586.6300049-11.9399414-.6599731-.9204102-1.6400146-1.5800781-2.4699707-2.3701172-2.7000122-2.5600586-3.7000122-6.6401367-2.4700317-10.0800781l35.6500206-1.9799805 5.3200073-.300293c-1.3099976 3.6601563 2.0799561 7.1103516-.4400024 10.7402344-1.6099855 2.3198243-3.9199831 4.2998047-4.7100222 6.9799805z" fill="#aa8b00"/></g><g><path d="m88.8131332 111.9810562c-1.2299805 4.1699219 1.5400391 9.1098633-.8900146 12.7700195-1.3999634 2.1098633-4.1099854 3.0297852-6.6499634 3.5898514-3.6400146.8100586-7.3699951 1.2001953-11.1000366 1.1601563-2.6399536-.0302734-5.3499756-.2900391-7.7399864-1.3500977-2.3999634-1.0698318-4.4599609-3.0600662-4.9899902-5.5400467-.1199951-.5498047-.1599731-1.1196289-.1400146-1.6796875 6.8600426 2.3100586 22.7399864 5.0898438 22.7900352-5.1000977.0199585-4.1601563.2399902-8.0703125 3.3999634-11.1899414 3.1300049-3.0800781 6.6700439-4.5102539 5.2399902-9.6899414-.039978-.1303711-.0699463-.2602539-.0899658-.3901367l5.3200073-.300293c-1.3099976 3.6601563 2.0799561 7.1103516-.4400024 10.7402344-1.6099854 2.3198243-3.919983 4.2998047-4.7100221 6.9799805z" fill="#9b7e02"/></g><g><path d="m93.2231674 41.3609428-36.010006-3.5400391-3.8200073-.3798828c-1.5100098-2.4399414-.960022-5.9399414 1.2299805-7.7900391.7300415-.6098633 1.6199951-1.0698242 2.2000122-1.8300781 1.8599854-2.449707-.5300293-5.7597656-1.0800171-8.7797852-.5999756-3.2998056 1.25-6.7001963 3.9200439-8.7299814 2.6799927-2.0302734 6.0399742-2.9101558 9.3599815-3.4399409 5.5199585-.8701172 11.1799927-.8701172 16.7099609.0097656 2.9500122.4702148 6.3099976 1.5800776 7.2700195 4.3999019.3500366 1.050293.3099976 2.0800781.039978 3.1103516-.7299805 2.8398447-3.0899658 5.6596689-3.1299438 8.7099619-.0300293 2.3798828 1.3399658 4.5200195 2.7699585 6.409668 1.4299927 1.9003906 3 3.8100586 3.4800415 6.1401367.4699709 2.3198242-.6300047 5.1801758-2.9400023 5.7099609z" fill="#aa8b00"/></g><g><path d="m93.0431137 14.3912153c-.6899414.1499023-1.4599609.1396484-2.2999878-.0800781-6.1099854-1.5800781-12.7399902-2.8198242-19.0799561-2.1801758-6.0200195.6000977-8.4999962 3.9101572-9.6700401 9.6103525-1.1799927 5.7397461-1.9899902 11.5395508-4.7799683 16.0795898l-3.8200073-.3798828c-1.5100098-2.4399414-.960022-5.9399414 1.2299805-7.7900391.7300415-.6098633 1.6199951-1.0698242 2.2000122-1.8300781 1.8599854-2.449707-.5300293-5.7597656-1.0800171-8.7797852-.5999756-3.2998056 1.25-6.7001963 3.9200439-8.7299814 2.6799927-2.0302734 6.0399742-2.9101558 9.3599815-3.4399409 5.5199585-.8701172 11.1799927-.8701172 16.7099609.0097656 2.9500122.4702148 6.3099976 1.5800776 7.2700195 4.3999019.3500368 1.050293.3099977 2.0800782.0399782 3.1103516z" fill="#bc9904"/></g><g><path d="m36.7080078 63.7053909c-2.3672256-.3223495-5.2001724-.471077-6.6878033 1.3983154-.4873562.6124191-.7542534 1.3745804-.9000874 2.1435471-.5048409 2.661972.5126953 5.6362991 2.7374077 7.1827774 2.2247162 1.5464706 5.5839272 1.3638992 7.4262428-.622757" fill="#a7a9ac"/></g><g><path d="m90.8534012 96.0262909c15.7708969-10.8592224 21.6569977-34.6626816 8.6415482-49.0018425-12.1228027-13.355732-33.2222519-17.6445618-48.5598984-6.7759476-17.9498863 12.7197113-16.6142235 37.715786-1.8631973 52.2021446 3.9823723 3.9109192 8.8481712 7.1754913 14.3867493 8.3963242 10.6134109 2.3393707 20.1313247.1806335 27.3947982-4.8206787z" fill="#bcbec0"/></g><g><path d="m90.8534012 96.0262909c15.7708969-10.8592224 21.6569977-34.6626816 8.6415482-49.0018425-12.1228027-13.355732-33.2222519-17.6445618-48.5598984-6.7759476-17.9498863 12.7197113-16.6142235 37.715786-1.8631973 52.2021446 3.9823723 3.9109192 8.8481712 7.1754913 14.3867493 8.3963242 10.6134109 2.3393707 20.1313247.1806335 27.3947982-4.8206787z" fill="#bcbec0"/></g><g><path d="m87.4474411 89.8629684c11.8832626-8.476326 16.3183975-27.0564766 6.5113449-38.2491264-9.1344452-10.4250145-25.0327225-13.7727242-36.5895271-5.2890625-13.5251122 9.9285583-12.5186996 29.4396248-1.4039078 40.7471733 3.0006866 3.0527191 6.6670341 5.6009293 10.840313 6.5538712 7.9971237 1.8260269 15.1688079.1409988 20.641777-3.7628556z" fill="#fff"/></g><g><path d="m75.9476852 67.0360413c-.5327301-1.8546982-2.6829376-3.1729546-4.2445984-1.9910431-1.5906219 1.2038345-1.0280914 3.7036819.1145782 5.0723801.7814484.9360199 2.1987228 1.058403 3.1399994.328331.9412995-.7300874 1.3399812-2.1911393.9900208-3.409668z" fill="#808285"/></g><g fill="#202020"><path d="m94.995842 40.852314c.2769165-.1313477.5803833-.3203125.8971558-.6015625 1.8181458-1.6395226 2.6567383-4.7361526.9609375-8.3447266-2.3813171-5.2694378-6.7199097-6.7979889-4.1317139-12.4804688.3779907-.7783203.769104-1.5834961 1.1738892-2.4169922.4216919-.8955078.8843994-1.8950186 1.1743164-3.1420889.2972412-1.2304688.3149414-2.800293-.2423096-4.2358398-.5379639-1.4580078-1.6681519-2.6918945-2.8833618-3.4633789-1.3418579-.8818359-2.8363037-1.3925781-4.3649292-1.7412109-7.1601868-1.5706432-18.9833755-1.1098177-25.4852905 1.815918-1.7424927.7871094-3.4179688 1.8554688-4.7700806 3.3076172-2.7193794 2.9215889-3.839386 6.5714769-2.4489136 10.5517569 1.9051895 5.4136333 2.5148392 5.2323132-.6656494 7.9995117-.5022583.4560547-.9423218.9614258-1.2542114 1.4916992-1.2681274 2.152832-1.0678711 4.2412109-.6636963 5.4453125.2952271.8813477.6768799 1.3676758.9066772 1.5576172-.2183838.1166992-.4473877.2182617-.6627197.3388672-9.7839165 6.1265869-14.437851 12.9904861-16.4454346 24.0009766-.100708.7060547-.1739502 1.4067383-.2303467 2.1035156-.2511597-.1040039-.5488281-.2070313-.9019775-.3027344-.5794067-.1469727-1.2919312-.2807617-2.1479492-.2700195-.8455791.0180664-1.8820171.1630859-2.9014263.78125-1.02771.5864258-1.8580933 1.7270546-2.2321167 2.8051796-.4003296 1.0673828-.5546875 2.1845703-.5300903 3.2802734.055481 2.1894531.9524536 4.2089844 2.0898438 5.4648438 1.0115356 1.1533203 2.2983398 1.9047852 3.4462872 2.2431641 1.1531372.3447266 2.1848755.3803711 3.0479126.2788086.6382446-.0810547 1.1817017-.2290039 1.6437378-.4106445.0096436.0375977.0195313.0756836.0291748.1132813.1885376.5249023.3754883 1.0458984.5609131 1.5625 2.794136 7.2122192 6.9748077 13.866539 14.3612671 19.1186523-.0541382.1582031-.1077271.3266602-.1588745.5180664-.3131104 1.1630859-.4561157 3.0053711.2160034 5.1464844.3317871 1.0664063.8983154 2.184082 1.7288818 3.2382813 1.4522018 1.9128342 3.8923912 2.7733688 3.4539795 5.9501953-.107666 1.262207-.578186 2.6806641-1.0122681 4.2143555-.4275513 1.5356445-.90979 3.2685547-.774292 5.2680664.1146851 2.050293 1.1928101 4.0039063 2.5759277 5.378418 4.6047173 4.6697464 13.4540558 4.4281845 19.9527588 3.5034103 12.8810349-1.8621368 13.0067368-6.3504944 12.2719116-14.6293869-.1795654-1.5805664-.15979-2.8618164.1345215-3.8598633.5645218-1.9967346 2.5399399-3.3745193 4.0119019-5.3901367.7235107-.9545898 1.2885742-2.1855469 1.4957275-3.2070313.4309692-2.0703125.2147827-3.6083984.03479-4.8120117-.4451904-2.390625-1.0187988-3.4912109-1.3933105-4.0439453-.3969116-.543457-.6671753-.5107422-.9376221-.4360352-.2714233.0751953-.5151978.1948242-.5971069.8330078-.1030884.6337891.0189819 1.8056641.0611572 3.918457-.0044556 1.0375977-.0245972 2.3608398-.4337769 3.6806641-.2155762.6665039-.4959106 1.1870117-1.0662842 1.8808594-.5548096.6757813-1.3338623 1.3857422-2.2681885 2.34375-.9082642.9418945-2.0328369 2.2504883-2.614502 4.0561523-1.1930161 3.6451569.1754532 7.4333496-.1138306 10.3774414-.4565964 3.9303665-4.9748383 4.6344223-9.1821289 5.3432617-4.9635239.8049698-13.3223114 1.4661331-17.0029907-1.980957-.9928589-.925293-1.6675415-2.03125-1.8018799-3.2680664-.164978-1.2709961.0988159-2.7431641.4378052-4.2451172.3256836-1.515625.7647095-3.0668945.8082886-4.7822266.2843208-4.6106339-3.2308159-5.8412628-4.5742798-7.3652344-.7521973-.7871094-1.3275146-1.6621094-1.7139282-2.5307617-.7849121-1.7426758-.923645-3.3657227-.8848267-4.465332.0018311-.0600586.0058594-.1035156.0082397-.1611328 1.4067993.9526367 2.8303833 1.7768555 4.2553101 2.4584961 7.1219025 3.3713913 16.7611084 3.6793594 24.4561768 1.2480469 2.5328369-.8134766 4.3372803-1.737793 5.6572266-2.4951172 1.3167114-.7719727 2.1390991-1.4189453 2.6785889-1.8833008 1.050354-.9741211.9763794-1.2460938.8186035-1.4785156-.1577759-.2329102-.4030151-.3930664-1.6567993.1328125-1.2826538.4462891-3.5532837 1.7470703-8.2828369 2.9536133-2.3651123.5610352-5.3612671 1.0703125-9.098877.9785156-15.4932442-.3812103-25.2827873-9.5430145-30.5424805-24.253418-.1217041-.4853516-.2443848-.9750977-.368103-1.46875-1.0160522-3.9301758-1.4307251-8.3198242-.7821655-12.8588905.2310791-1.2314453.362793-2.5336914.8048096-3.7998047 2.7816162-9.6490479 11.2455101-18.4797592 22.9959717-21.0708008 6.7787476-1.4072266 14.2255249-.6640625 20.854187 2.0620117 12.2945175 5.0774765 21.9821472 15.6743088 20.5114746 31.0527382-.7694855 8.2674866-4.6429672 16.7762527-11.5306396 23.4785156-1.8532104 1.7817383-3.0001221 2.6567383-2.904541 2.793457.0626221.0947266 1.3706055-.5541992 3.4456177-2.1762695 6.702774-5.3087234 11.9923706-14.1001282 13.2523804-23.8417969 1.5042265-11.465252-2.5472261-21.503605-12.5556032-29.1562539zm-59.4876099 32.7216835c-.4656982-.0234375-1.0075684-.1113281-1.5714722-.3208008-.5621338-.2138672-1.102356-.5488281-1.6470337-1.1503906-.5828228-.6381836-1.1973248-1.7324219-1.4014263-3.0546875-.0969849-.6503906-.1034546-1.3613281.0180664-2.0092773.1212158-.6411133.3096313-1.0698242.6850586-1.4541016.7426739-.7905273 2.251585-1.0864258 3.2858257-1.265625.3475952-.059082.6540527-.1147461.9173584-.1723633-.161377 3.2817383.135376 6.4414063.7553101 9.3896484-.300415.0322266-.637268.053711-1.041687.0375977zm27.6636963-40.6103554c-3.4553223.7070313-6.7398682 1.9360352-9.7596436 3.5229492-.046936-.2714844-.2374878-.8061523-.319397-1.6279297-.1224976-1.1005859.0147705-2.855957 1.175293-4.3769531.284729-.378418.6401367-.6982422 1.0437012-1.0014648 4.6602554-3.3513756 3.5544014-4.5568142 2.0353394-10.1547852-.8417854-3.0245838.1379967-5.555048 2.2290649-7.5839834 1.041687-1.0170898 2.3862915-1.809082 3.8458252-2.3945313 5.128952-2.0388203 13.5544128-2.2322297 19.1102295-1.6206055 1.4613647.1708984 2.9413452.3676758 4.1363525.6474609 1.2194824.2851563 2.288208.6938477 3.0367432 1.1948242 1.3740845.9228516 1.6994629 1.9907227 1.4117432 3.4111328-.3284302 1.4589844-1.2890625 3.100585-2.039856 4.8232412-.3829956.8730469-.7213745 1.8105469-.9295654 2.8041992-.9519348 4.3483181 1.7325516 7.5085373 4.135376 10.6005859 1.9095535 2.4337273 3.3751526 4.7856331 1.9005737 7.5385742-.2449951.4433594-.4802856.7060547-.6499634.9169922-.0205688.0244141-.0301514.0429688-.048645.0664063-2.3084717-1.6030273-4.7949219-2.9926758-7.4031982-4.1425781-7.1475831-3.1035154-15.3145752-4.0917967-22.9099732-2.623535z"/><path d="m100.2733078 69.7619858c1.6223907-13.1138458-5.9527206-22.5923805-15.8972168-27.2709999-5.5018921-2.5214844-11.8702393-3.4609375-17.8110962-2.2670898-10.4825516 2.1534157-19.1629601 10.3116798-20.8618164 22.0883789-.564209 4.0024452-.2323608 7.8208046.5933838 11.241703 1.5161896 6.2231979 4.9470215 11.9664688 9.1746216 15.753418 5.1075821 4.7606201 10.3336105 6.7952423 17.4005737 6.7368164 3.1966553-.043457 5.7421875-.6235352 7.6984863-1.2841797 3.9174805-1.3813477 5.5701904-2.8530273 6.3678589-3.597168.7693481-.8125.6709595-1.0698242.5093994-1.2998047s-.3898926-.3994141-1.3685303-.0327148c-1.0010376.3046875-2.7357178 1.2753906-6.3099365 2.1640625-1.0682983.2504883-2.3300171.4638672-3.7548218.5849609.112854-.3168945.1785278-.7368164.1785278-1.3100586 0-1.1977539-.9116211-3.7680664-2.036377-3.7680664-1.1245117 0-2.0361328 2.5703125-2.0361328 3.7680664 0 .6098633.0769043 1.0405273.2036743 1.362793-5.6654282-.3463593-9.7383652-1.8751984-14.1808472-6.1508789-.015564-.0141602-.0298462-.0307617-.0453491-.0449219.1665039-.1289063.3440552-.2861328.5352783-.4775391.8469849-.8466797 2.0200195-3.309082 1.2247314-4.1044922-.795166-.7949219-3.2574463.3779297-4.1044312 1.2250977-.1305542.1303711-.2249756.246582-.3259277.3652344-.2910156-.3876953-.5681152-.7929688-.8649902-1.1928711-2.0887222-2.9041824-3.4927826-6.1591644-4.3262939-9.6435547-.2703857-1.140625-.4764404-2.3295898-.6026611-3.5537109.2398682.0395508.5076294.0664063.8380737.0664063 1.1977539 0 3.7683105-.9116211 3.7683105-2.0366211 0-1.1245117-2.5705566-2.0361328-3.7683105-2.0361328-.3829956 0-.680481.0371094-.9433594.0888672.0361938-.7441406.1002197-1.4956093.2072754-2.2534218.5392456-3.6777344 1.9954834-7.8339844 4.9718018-11.340332.145813.2104492.3226318.4326172.574707.6845703.8469849.8466797 3.3092041 2.0200195 4.1045532 1.2246094.795166-.7954102-.3778687-3.2573242-1.2248535-4.1044922-.2453003-.2451172-.4622803-.4194336-.6677856-.5639648.4107666-.3442383.8061523-.7143555 1.2530518-1.0219727.5106201-.3408203 1.0247803-.6835938 1.5421753-1.0288086 2.1326294-1.2749023 4.5073853-2.2626953 7.041626-2.8359375 1.3476563-.2973633 2.7332153-.4594727 4.1331787-.5107422-.00177.0634766-.0103149.1118164-.0103149.1796875 0 1.1977539.9116211 3.7680664 2.036377 3.7680664 1.1243286 0 2.0358887-2.5693359 2.0361328-3.7675781 2.550415.3134766 5.083374.987793 7.4691162 2.0063477 2.0963745.9233398 4.065918 2.1069336 5.8752441 3.472168-.828064.9575195-1.8339233 3.184082-1.0818481 3.9360352.795166.7949219 3.2574463-.3779297 4.1044312-1.2250977.0176392-.0175781.0270386-.0322266.0441284-.0493164.2687378.2714844.538208.5439453.805603.8144531 2.3608551 3.0315628 4.6275101 5.8813324 5.2488403 12.1245155-.2706299-.0576172-.5804443-.0976563-.9833984-.0976563-1.1978149 0-3.7683716.9116211-3.7683716 2.0366211 0 1.1245117 2.5705566 2.0361328 3.7683716 2.0361328.43927 0 .7727051-.0454102 1.0561523-.1132813-.0166626.3325195-.0282593.6679688-.0531616.9951172-.4594345 4.7276154-2.0790405 9.5246048-5.0250244 13.8623047-.1503296-.2299805-.3397217-.4750977-.6217651-.7573242-.8469849-.8466797-3.3092041-2.0200195-4.1045532-1.2246094-.795166.7954102.3778687 3.2573242 1.2248535 4.1044922.4821167.4819336.8731079.7363281 1.2161255.8583984-.4043579.46875-.7869263.8891602-1.133728 1.2587891-1.3968506 1.3735352-2.2114258 2.1313477-2.1195679 2.2583008.0701294.1020508 1.0494385-.4326172 2.6716309-1.6508789 5.2282866-4.2633973 9.0608062-10.8518373 10.1541747-18.4501954z"/><path d="m76.5554123 67.0178452c-.2108154-.0913086-.4047852-.0385742-.607666.0180664-.4243774.1088867-.7097778.2949219-.9558716.8999023-.1358032.2885742-.3023682.7446289-.6481934 1.1235352-.1792603.1943359-.3446045.2871094-.557373.3305664-.2198486.0439453-.5161133-.0039063-.7073975-.1650391-.0527954-.0239258-.3573608-.3896484-.5263062-.7197266-.1887207-.3486328-.3565674-.7661133-.4168091-1.1630859-.0668945-.402832-.0387573-.75.0790405-1.0175781.1206055-.2753906.3768921-.5292969.6447144-.6333008.5866089-.265625 1.524292.1420898 2.0349731.5639648.5559082.4174805.8369751.8427734 1.0532227.7807617.1841431-.0400391.3104248-.6396484-.1045532-1.4975586-.2055664-.421875-.5446777-.8974609-1.0809326-1.3032227-.3488159-.2685585-.8148804-.4965858-1.3551025-.6084023.1226807-.8154297.1931763-1.9980469.1931763-3.7260742 0-2.9614258-.6837158-9.3164063-1.5272827-9.3164063-.8433838 0-1.5270996 6.3549805-1.5270996 9.3164063 0 2.199707.114624 3.5131836.3057861 4.3090858-.2710571.1977539-.5257568.421875-.7342529.6948242-.6106567.7983398-.8148804 1.7866211-.7896729 2.6274414.0136719.6547852.1473389 1.2519531.3413696 1.7963867-.4509888.3544922-.9957886.8447266-1.6734009 1.5224609-1.5876465 1.5874023-4.5112915 5.4780273-3.9147949 6.074707.5963745.5961914 4.4869385-2.3271484 6.074585-3.9150391.4910278-.4912109.8799438-.909668 1.1955566-1.2773438 1.0758667.7568359 2.3102417.8227539 3.2491455.5361328 1.0359497-.3134766 1.7301025-1.0351563 2.0704346-1.6269531.7000732-1.2358398.5998535-2.1591797.480896-2.7182617-.1514282-.5693356-.385498-.8144528-.5961914-.9062496z"/></g></g></svg>