<svg id="Icons" height="512" viewBox="0 0 60 60" width="512" xmlns="http://www.w3.org/2000/svg"><path d="m5.315 30.47a.5.5 0 0 1 -.307-.9l4.864-3.769-7.553 4.36a.5.5 0 0 1 -.546-.836l6.5-4.763-6.98 4.038a.5.5 0 0 1 -.541-.839l6.657-4.769-6.129 3.535a.5.5 0 0 1 -.541-.839l6.578-4.7-6.037 3.483a.5.5 0 0 1 -.542-.839l6.762-4.851-6.22 3.588a.5.5 0 0 1 -.546-.836l7.491-5.481-6.945 4.01a.5.5 0 0 1 -.535-.844l5.007-3.472-4.472 2.582a.5.5 0 0 1 -.531-.847l3.479-2.357-2.948 1.7a.5.5 0 0 1 -.542-.838l6.874-4.95-6.332 3.656a.5.5 0 0 1 -.539-.84l6.184-4.384-5.645 3.259a.5.5 0 0 1 -.533-.845l4.224-2.894-3.691 2.131a.5.5 0 0 1 -.548-.835l5.209-3.848-4.661 2.69a.5.5 0 0 1 -.568-.818l4.588-3.782-3.8 2.199a.5.5 0 0 1 -.61-.785l2.36-2.382a.5.5 0 0 1 -.646-.2.5.5 0 0 1 .184-.682l3.183-1.841a.5.5 0 0 1 .6.784l-2.348 2.381 5.808-3.356a.5.5 0 0 1 .568.818l-4.591 3.78 7.1-4.1a.5.5 0 0 1 .547.835l-5.207 3.849 7.272-4.2a.5.5 0 0 1 .533.845l-4.23 2.9 3.7-2.135a.5.5 0 0 1 .539.841l-6.183 4.381 5.645-3.258a.5.5 0 0 1 .542.838l-6.874 4.95 6.334-3.656a.5.5 0 0 1 .531.847l-3.48 2.358 2.951-1.7a.5.5 0 0 1 .535.844l-5 3.467 4.467-2.58a.5.5 0 0 1 .546.836l-7.493 5.479 6.949-4.012a.5.5 0 0 1 .541.839l-6.758 4.852 6.219-3.59a.5.5 0 0 1 .541.84l-6.58 4.7 6.042-3.488a.5.5 0 0 1 .541.839l-6.653 4.769 6.114-3.532a.5.5 0 0 1 .545.835l-6.502 4.765 5.959-3.44a.5.5 0 0 1 .556.828l-4.864 3.77 4.31-2.488a.5.5 0 0 1 .579.81l-3.184 2.773 2.608-1.5a.5.5 0 0 1 .642.742l-1.611 2.043.971-.56a.5.5 0 0 1 .733.561l-.266.994a.5.5 0 0 1 .035.885l-.5.288a.505.505 0 0 1 -.554-.037.5.5 0 0 1 -.179-.525l.187-.7-2.183 1.256a.5.5 0 0 1 -.642-.742l1.611-2.042-4.823 2.784a.5.5 0 0 1 -.579-.809l3.184-2.774-6.208 3.583a.489.489 0 0 1 -.249.07z" fill="#d6d8db"/><path d="m20.5 59.466a.5.5 0 0 1 -.264-.925l11.308-7.01-12.375 7.146a.5.5 0 0 1 -.51-.86l5.952-3.637-6.649 3.838a.5.5 0 0 1 -.509-.861l3.03-1.841-3.629 2.095a.5.5 0 0 1 -.514-.857l16.854-10.493-17.83 10.293a.5.5 0 0 1 -.51-.859l7.5-4.565-7.074 4.081a.5.5 0 0 1 -.512-.859l14.257-8.786-13.745 7.934a.5.5 0 0 1 -.514-.858l16.887-10.467-16.373 9.452a.5.5 0 0 1 -.509-.861l3.131-1.9-2.622 1.518a.5.5 0 0 1 -.511-.86l9.538-5.824-9.027 5.209a.5.5 0 0 1 -.514-.857l17.48-10.852-16.966 9.8a.5.5 0 0 1 -.512-.858l13.756-8.469-13.244 7.638a.5.5 0 0 1 -.509-.86l3.543-2.151-3.034 1.755a.5.5 0 0 1 -.513-.855l15.083-9.31-14.57 8.41a.5.5 0 0 1 -.516-.857l20.545-12.877-20.029 11.564a.5.5 0 0 1 -.516-.857l20.523-12.86-20.007 11.551a.5.5 0 0 1 -.51-.86l7.914-4.823-7.4 4.274a.5.5 0 0 1 -.509-.86l4.614-2.8-4.105 2.37a.5.5 0 0 1 -.51-.859l8.162-4.976-7.656 4.417a.5.5 0 0 1 -.513-.858l15-9.264-14.487 8.365a.5.5 0 0 1 -.517-.856l21.437-13.534-20.92 12.083a.5.5 0 0 1 -.517-.855l20.474-12.937-19.957 11.522a.5.5 0 0 1 -.516-.857l16.718-10.477-16.2 9.353a.5.5 0 0 1 -.519-.853l18.581-11.874-18.064 10.429a.5.5 0 0 1 -.516-.856l11.663-7.327-11.147 6.435a.5.5 0 0 1 -.524-.851l15.051-9.823-14.527 8.388a.5.5 0 0 1 -.517-.855l6.47-4.086-5.953 3.435a.5.5 0 0 1 -.529-.848l11.675-7.846-11.146 6.435a.5.5 0 0 1 -.531-.845l8.988-6.11-8.457 4.883a.5.5 0 0 1 -.529-.848l5.188-3.484-4.659 2.69a.5.5 0 0 1 -.547-.835l6.417-4.725-5.87 3.389a.5.5 0 0 1 -.558-.827l4.487-3.513-4.058 2.342a.5.5 0 0 1 -.57-.817l2.593-2.161-2.49 1.437a.5.5 0 0 1 -.561-.825l.171-.135-.073.042a.5.5 0 0 1 -.627-.762l1.017-1.166-1.267.735a.5.5 0 0 1 -.657-.723l.254-.355-.463.267a.5.5 0 0 1 -.714-.246l-.357-.888-.407.232a.5.5 0 0 1 -.434.034l-1.129-.444a.5.5 0 0 1 -.389-.914l.116-.063a.508.508 0 0 1 .436-.036l1.106.436.7-.4a.5.5 0 0 1 .714.246l.357.887 1.965-1.133a.5.5 0 0 1 .62.1.5.5 0 0 1 .037.627l-.254.355 1.868-1.082a.494.494 0 0 1 .636.115.5.5 0 0 1 -.009.646l-1.018 1.164 3.34-1.925a.5.5 0 0 1 .561.824l-.173.137 1.666-.961a.5.5 0 0 1 .57.816l-2.592 2.16 5.158-2.976a.5.5 0 0 1 .558.826l-4.487 3.512 7.517-4.338a.5.5 0 0 1 .547.835l-6.416 4.722 9.629-5.557a.5.5 0 0 1 .529.847l-5.191 3.485 7.508-4.332a.5.5 0 0 1 .531.845l-8.99 6.111 12.049-6.956a.5.5 0 0 1 .529.847l-11.674 7.843 15.057-8.69a.5.5 0 0 1 .516.855l-6.464 4.083 8.554-4.938a.5.5 0 0 1 .524.851l-15.049 9.82 18.486-10.671a.5.5 0 0 1 .516.856l-11.657 7.321 14.141-8.164a.5.5 0 0 1 .52.854l-18.589 11.876 20.81-12.014a.5.5 0 0 1 .516.857l-16.709 10.472 17.762-10.258a.5.5 0 0 1 .516.856l-20.474 12.944 21.233-12.26a.5.5 0 0 1 .517.856l-21.44 13.53 21.706-12.534a.5.5 0 0 1 .517.858l-15.016 9.271 14.729-8.5a.5.5 0 0 1 .511.859l-8.164 4.974 7.66-4.422a.5.5 0 0 1 .509.86l-4.584 2.782 4.075-2.353a.5.5 0 0 1 .509.859l-7.914 4.82 7.405-4.275a.5.5 0 0 1 .515.857l-20.535 12.871 20.02-11.553a.5.5 0 0 1 .515.857l-20.545 12.871 20.03-11.564a.5.5 0 0 1 .512.859l-15.065 9.3 14.553-8.4a.5.5 0 0 1 .509.86l-3.543 2.148 3.034-1.752a.5.5 0 0 1 .511.858l-13.774 8.48 13.263-7.658a.5.5 0 0 1 .513.857l-17.465 10.846 16.952-9.787a.5.5 0 0 1 .51.859l-9.538 5.826 9.028-5.211a.5.5 0 0 1 .509.861l-3.164 1.916 2.655-1.533a.5.5 0 0 1 .513.858l-16.872 10.461 16.359-9.445a.5.5 0 0 1 .512.859l-14.257 8.786 13.745-7.936a.5.5 0 0 1 .509.86l-7.5 4.566 6.987-4.033a.5.5 0 0 1 .514.857l-16.867 10.5 16.353-9.44a.5.5 0 0 1 .509.86l-3 1.823 2.491-1.438a.5.5 0 0 1 .51.859l-5.961 3.644 5.451-3.147a.5.5 0 0 1 .513.858l-11.3 7.007 10.79-6.23a.5.5 0 0 1 .516.856l-9.9 6.236 9.385-5.414a.5.5 0 0 1 .515.856l-6.906 4.327 6.391-3.69a.5.5 0 0 1 .515.857l-5.821 3.65 5.306-3.062a.5.5 0 0 1 .532.845l-10.841 7.4 10.309-5.957a.5.5 0 0 1 .525.849l-6.455 4.267 5.93-3.423a.5.5 0 0 1 .518.854l-.425.272a.5.5 0 0 1 .437.889l-5.95 4.023 5.423-3.131a.5.5 0 0 1 .548.834l-3.807 2.824 3.256-1.884a.5.5 0 0 1 .667.157.5.5 0 0 1 -.117.676l-2.641 1.98 2.091-1.203a.5.5 0 0 1 .556.827l-2.176 1.692 1.62-.929a.5.5 0 0 1 .558.826l-1.137.894.579-.334a.5.5 0 0 1 .561.823l-.43.344a.5.5 0 0 1 .315.928l-5.4 3.121a.5.5 0 0 1 -.562-.823l.235-.187-.873.5a.5.5 0 0 1 -.566-.827l1.14-.894-1.817 1.048a.5.5 0 0 1 -.556-.827l2.171-1.692-3.025 1.746a.5.5 0 0 1 -.55-.833l2.646-1.984-3.588 2.071a.5.5 0 0 1 -.548-.834l3.806-2.824-10.127 5.85a.5.5 0 0 1 -.531-.847l5.944-4.017-6.96 4.019a.5.5 0 0 1 -.519-.855l.242-.154-.763.441a.5.5 0 0 1 -.526-.85l6.46-4.271-7.513 4.342a.5.5 0 0 1 -.532-.845l10.835-7.392-17.617 10.167a.5.5 0 0 1 -.515-.857l5.843-3.661-6.608 3.816a.5.5 0 0 1 -.516-.857l6.9-4.32-7.717 4.449a.5.5 0 0 1 -.516-.855l9.9-6.236-16.092 9.291a.489.489 0 0 1 -.251.066z" fill="#f0f1f2"/><g fill="#262626"><path d="m59.732 44.316c.042-58.187 6.635-41.563-52.145-43.616-12.039 2.013-5.897 18.008-7.313 26.522-.3 5.821 10.243 2.173 13.994 3.13.94 5.5-2.116 24.742 1.6 26.972 5.394 3.923 5.358 1.142 10.229-.416 5.244 3.227 5.475 2.994 10.67-.085 6.616 3.634 4.909 2.953 11.331.085 3.535 1.992 5.445 3.894 9.185.728 4.841-2.031 1.544-9.124 2.449-13.32zm-52.402-14.669c-1.993-.125-5.644.885-5.6-2.162 1.314-7.373-4.23-24.285 5.655-26.108 11.875 1.563 5.261 19.892 6.883 28.27zm50.938 25.9c-.633 1.412-3.042 1.911-4.3 2.771-4.759-1.268-4.711-4.322-10.074-.506-1.63 1.585-3.268-.719-4.9-1.282-2.738-2.219-5.13 1.785-7.722 1.79-1.832-.636-3.508-2.669-5.564-2.487-1.8.4-3.309 2.013-4.993 2.628-2.788-1.272-6.025-2.053-4.986-5.892v-37.512c.084-4.574.948-11.028-3.845-13.557 63.029.2 43.149-7.985 46.384 54.042z"/><path d="m45.273 7.322c-.712 13.484 2.131 13.394 1.454 0 4.038.157 3.655-.969-.119-.644-1.234-.02-3.115-.286-4.269.358.261.702 2.139.091 2.934.286z"/><path d="m32.276 17.194c2.2.73 1.266-2.481 1.424-3.78h4.576c.192 1.266-.8 5.308 1.449 3.392-.173-2.742.383-5.625-.289-8.286-1.177-2.476-4.905-2.268-6.468-.3-1.468 2.641-.375 6.05-.692 8.974zm3.275-9.894c2.762.029 2.89 3.2 2.725 5.285h-4.576c.08-1.765-.5-4.837 1.851-5.285z"/><path d="m25.276 17.194c2.339 1.613 3.362-8.553 4.454-10.265-2.2-1.834-2.755 6.121-3.693 7.587q-1.157-3.855-2.313-7.71c-3.536-1.75 1.576 8.694 1.552 10.388z"/><path d="m52.663 39.971c.2-.59-1.12-.235-1.326.057-15.012 14.439-10.404 12.366 1.326-.057z"/><path d="m43.5 43.288c2.366-.313 3.13-3.786.649-4.541-4.217-1.389-5.403 5.512-.649 4.541zm-1.425-1.365c-.6-.768-.508-2.3.553-2.448 1.605-.219 2.153 2.2 1 3.029-.548.327-1.213-.137-1.555-.581z"/><path d="m51.457 51.219c2.366-.313 3.13-3.787.648-4.541-4.214-1.389-5.4 5.512-.648 4.541zm-1.425-1.365c-.6-.768-.508-2.3.553-2.448 1.6-.219 2.153 2.2 1 3.029-.546.327-1.212-.135-1.553-.581z"/><path d="m54.056 33.438h-34c-.85 0-1.093 1.124-.112 1.124h34c.85 0 1.093-1.124.112-1.124z"/><path d="m37.27 39.545c-5.877.367-12.354-.728-17.952.413-.838.896 21.799 1.016 17.952-.413z"/><path d="m32.055 45.434c-1.44.39-15.133-1.066-12.111 1.131 1.441-.389 15.134 1.067 12.111-1.131z"/><path d="m19.729 28.452h34c.6 0 1.518-.9.542-.9h-34c-.599-.004-1.518.9-.542.9z"/><path d="m19.729 22h34c.6 0 1.518-.905.542-.905h-34c-.599.005-1.518.905-.542.905z"/></g></svg>