<svg id="Layer_1" enable-background="new 0 0 135 135" height="512" viewBox="0 0 135 135" width="512" xmlns="http://www.w3.org/2000/svg"><g><path d="m116.9 32.4c-.2.2-.4.4-.5.6-25.8 30.2-50.5 59.5-78.1 88.1-.4.4-.7.8-1.1 1.2-6 6.2-11.7 9.3-20.8 7-2.1-.6-4.2-1.5-5.9-2.9-1.6-1.2-2.9-2.7-3.8-4.5-2.7-5.1-2-10 .3-14.3 2.2-4.1 5.7-7.9 8.9-11.1.8-.8 1.5-1.5 2.3-2.3 8.5-8.5 17.2-17 25.9-25.4 19.2-18.6 37.8-35.3 57.7-53.3l4.2 4.7z" fill="#2bb673"/><path d="m129.9 7.4c-1.4 4.1-3.1 8.1-5 11.9-.4.7-.8 1.4-1.2 2.2-1.3 2.2-2.6 4.4-4 6.5-.7 1.1-1.5 2.1-2.3 3.1-.4.5-.8 1-1.1 1.4 0 .1-.7 1-.7.8-.1-.7-.8-1.1-1.3-1.5-4.3-2.6-8.4-5.8-10.7-10.3-.5-1-1.8-3.3-1.8-5 0-.5.1-.9.4-1.3.7-.8 2.3-1.1 3.2-1.5 1.2-.5 2.4-1 3.5-1.5 4.6-2 9.3-3.9 14-6 1.8-.8 3.8-1.6 5.8-1.4.5.1 1 .2 1.3.5.3.6.1 1.4-.1 2.1z" fill="#f94e5b"/><path d="m36 88.8c10.3-10.9 21-21.5 31.9-31.8 2.1-2 5.5-4.1 7.7-2.1 1 .9 1.3 2.4 1.3 3.8-.1 5.2-3.1 9.8-6.3 13.8-8 10-17.9 18.4-29.1 24.7-1.5.9-3.4 1.7-5 1-2.2-1-2.3-4.1-1.9-6.5z" fill="#ed1c24"/><path d="m129.9 7.4c-1.4 4.1-3.1 8.1-5 11.9-2.4-.3-4.8-1.1-6.8-2.4-1.5-1-2.7-2.2-3.5-3.6-.3-.2-.6-.5-.8-.8-3.1 1.6-6.4 2.9-9.9 3.9-.8.2-1.5.3-2.2.2 0-.5.1-.9.4-1.3.7-.8 2.3-1.1 3.2-1.5 1.2-.5 2.4-1 3.5-1.5 4.6-2 9.3-3.9 14-6 1.8-.8 3.8-1.6 5.8-1.4.5.1 1 .2 1.3.5.4.5.2 1.3 0 2z" fill="#ff7b8b"/><path d="m103.5 21.4c.6 1.3-.1 1.6-1.5 2.6-1.9 1.5-3.8 3.2-5.6 4.8-3.7 3.2-7.5 6.4-11.2 9.6-7.5 6.4-14.9 12.9-22.2 19.4-12.7 11.1-27.2 21.9-37 35.7-2.1 3-5.9 2.6-8 .8 8.5-8.5 17.2-17 25.9-25.4 14.3-13.8 28.9-27.2 43.6-40.6 2.4-2.2 4.8-4.3 7.1-6.5 1.2-1.1 2.4-2.2 3.6-3.3.7-.7 2.4-2.8 3.4-2.7.1 1.7.3 3.3 1.3 4.7.3.4.4.7.6.9z" fill="#39d185"/><path d="m116.3 33.1c-25.8 30.2-50.5 59.5-78.1 88.1-4.3 3-9 5.4-14 6.5-4.8 1.1-9.7.6-13.8-1.3-1.6-1.2-2.9-2.7-3.8-4.5-2.7-5.1-2-10 .3-14.3 1.8.6 3.2 2.1 3.4 4.5.4 5.9 7.6 6.8 12.1 5.7 5.3-1.3 10.1-4.8 14.3-8.2 8.7-7.1 16.2-15.7 23.8-23.9 16.3-17.6 32.5-35.3 48.8-53 2.2-2.5 5.3-1.7 7 .4z" fill="#18a860"/><g fill="#202020"><path d="m13.3 130.4c7.2 3 14.7 2.2 21.4-3.1 9.9-7.8 78.2-85.2 82.1-93.8.4-.3.9-.7 1.7-1.4 1.1-1.1 2.5-2.8 4.4-5.5 4.8-7.1 8.3-15.7 9.1-19 .1-.2.1-.5.1-.7.1-.5.1-1-.1-1.4-.2-.9-.8-1.7-1.7-2.1-.4-.2-.9-.3-1.4-.4-.3 0-.5-.1-.8-.1s-.4 0-.6 0c-1.4.1-2.6.5-3.7 1-1.2.5-4.1 1.9-8.8 4.2-6.3 3.1-11.6 5.8-12.8 6.8 0-.1-.1-.2-.1-.2-.2-.1-.7.3-1 1.1-.7.6-2 1.6-3.7 3-13 10.9-39.5 34.5-61 55.2-3.7 3.6-7.5 7.3-11.3 11-9.4 9.1-13.5 12.8-16.8 17.1-1.7 2.2-3.2 4.5-4.2 7.2-3 7.8-.1 17.1 9.2 21.1zm114.4-123.8c.1 0 .3 0 .2 0v.1.1c-1.5 4.2-3 7.7-5 11.7-.1-.1-.2-.3-.4-.4-.1-.1-.3-.2-.5-.3s-.4-.2-.7-.3c-4.2-1.8-5.5-3.8-6.9-5.8-.1-.1-.1-.2-.2-.3 10.2-3.8 11.7-4.8 13.5-4.8zm-14.7 5.3c-.1 0-.1 0 0 0-.1.8-.1 1.8.2 2.9 1 3.5 4.1 6.1 7.3 6.4.4.1.7.1 1 0-.7 1.2-1.3 2.3-1.9 3.3-1.6 2.7-2.8 4.6-3.5 5.8 0 .1-.1.1-.1.2-5.2-1.3-12.6-10.8-13.5-14.1-.1-.4-.2-.8-.2-1 1.2-.2 5.4-1.6 10.7-3.5zm-105.4 98.7c2.5-6.8 9.7-13 19.9-23.2 3.7-3.7 7.5-7.5 11.1-11.1 24.8-24.8 46.3-44.3 59.3-56.9 1.3-1.3 2.3-2.3 3-3-.7 4.6 5.6 15 12.1 16.9.8.2 1.5.3 2.1.3-1.4 1.3-4 4-9 9.5-4.8 5.3-11.8 13.4-22.3 25.2-5.8 6.6-44.8 50.4-51.7 55.8-5.3 4.2-11.2 5.1-17.3 2.6-7.1-2.9-9.5-9.8-7.2-16.1z"/><path d="m34.6 97c.6.8 1.4 1.6 2.4 2 8.4 3.3 24.8-13.8 30.6-20.8 1.9-2.3 2.7-3.7 3.1-4.5.3-.8.1-1-.1-1.2s-.5-.3-1.2.2-1.8 1.5-3.9 3.5c-4.2 4-21.6 21.3-26.9 19-.4-.2-1-.8-1.1-1.7-1.4-5.8 26.9-32.6 29.5-35 1.5-1.4 3-2.6 4.4-3 .7-.2 1.5-.2 2.1 0s1.1.6 1.5 1.2c.8 1.2.9 2.8.8 4.2-.2 1.5-.6 2.8-1.1 4-1 2.4-2.2 4.2-2.9 5.5-.8 1.3-1.2 2-1.1 2.1s.7-.5 1.8-1.6c1-1.2 2.4-2.9 3.7-5.4.6-1.2 1.2-2.7 1.6-4.4.3-1.7.3-3.7-.7-5.7-.5-1-1.5-1.9-2.6-2.3-1.2-.4-2.4-.4-3.5-.2-2.3.6-4.1 2-5.7 3.3-5.3 4.3-28 26.3-30.8 32-.8 1.8-1.5 3.8-1.1 6.1.2.9.6 1.9 1.2 2.7z"/></g></g></svg>