<svg id="Layer_1" enable-background="new 0 0 135 135" height="512" viewBox="0 0 135 135" width="512" xmlns="http://www.w3.org/2000/svg"><g><path d="m126.9 103c-4.5 5.8-23.4 12.5-27.8 14.4-11.1 4.8-22.5 9-34.1 12.6-5.1 1.6-9.5 1.5-13.4.1-5.5-1.8-9.9-6.1-13.6-11.7-3.3-4.9-5.9-10.7-8.2-16.7-4.5-11.9-8.6-23.9-12.5-35.9-1.3-4.2-2.7-8.3-3.9-12.5-1.4-4.4-5.5-10.8-4.9-15.3.1-.5.2-.9.3-1.4.8-2.3 2.6-4.4 4.7-6.1 2.6-2.1 5.6-3.7 7.8-4.9 1.8-.9 3.6-1.9 5.4-2.8 5.3-2.6 10.6-5.1 16-7.4 6-2.6 12.1-4.9 18.2-7 9.5-3.3 21-10.3 27.8 2 1.4 2.6 2.8 5.3 4 8.1 4.9 11.2 8.4 23.6 13 34.6 5.6 13.2 11.6 26.2 18 39 1.2 2.4 2.4 4.8 3.6 7.2.8 1.3.5 2.5-.4 3.7z" fill="#fc63ce"/><path d="m91.4 17.3c-.1.1-.3.3-.5.4-11.9 4.7-24 9.1-35.7 14.3-11.5 5-23.3 9.8-35.5 12.8-2.9.7-5.1-1-5.9-3.2-1.8-1.3-2.4-4.1-1.5-6.4-.3-1.6.3-3.3 1.3-4.6 2.6-2.1 5.6-3.7 7.8-4.9 1.8-.9 3.6-1.9 5.4-2.8.2.1.4.2.6.3 5.2-2.5 10.3-5.1 15.5-7.7 6-2.6 12.1-4.9 18.2-7 9.5-3.3 21-10.3 27.8 2 .7 1.3 3.7 5.3 2.5 6.8z" fill="#f1f2f2"/><path d="m126.9 103c-2.4 3.1-7.9 5.5-11.4 7.2-4 2.1-8.1 3.8-12.4 5.4-4 1.5-7.9 2.7-11.9 4.4-4.6 2-9.2 3.8-13.8 5.6-5.5 2.1-11.2 4-17.1 4.4-5.3.4-12.6-.5-16.4-4.7-4-4.4-7.3-9.5-9.9-14.9-4.1-8.4-7.1-17.3-10-26.1-1.3-4-3.1-7.7-4.4-11.7-1.4-4.5-2.8-8.9-4-13.5-1.7-6.6-5.6-12.1-5.9-19.2-.2-5.7 3.3 1.7 4.6 3 1.8 1.8 4.3 3.1 6.9 3.1 1.2 0 2.4-.3 3.5.1 1.7.6 2.4 2.6 2.9 4.3 1.9 6.2 4 12.2 6.3 18.2 1.1 2.8 2.8 5.7 3.4 8.6.5 2.5.9 4.8 1.8 7.3 4.2 12.1 9.3 23.8 15.2 35.1 2.2-.1 4.5-.4 6.7-.9 7.4-1.6 14.5-4.4 21.7-6.7 14.4-4.7 29.5-8.7 40.9-19.3.1-.1.2-.2.3-.2 1.2 2.4 2.4 4.8 3.6 7.2.6.9.3 2.1-.6 3.3z" fill="#dd3cbb"/><path d="m85.7 56.7c-.5-.8-.1-2.3 1.7-4.9 1.8-2.5 3.2-4.4-.5-6.2-5-2.5-12.4 1.6-17.1 2.9-5.3 1.5-14.6 3.5-18.2 8-1 1.3-2 3.2-.9 4.5 2.3 2.8 5.5.6 5 5.3-.4 3.9-2.2 7.8 2.1 10.8 1.8 1.3 4.2 1.5 6.4 1.2s4.3-1.2 6.3-2.1c4.7-2 29.1-8.8 26.1-16.6-1.3-3.4-9.6-.6-10.9-2.9z" fill="#fff6e9"/><g fill="#202020"><path d="m95.1 56.6c-1.2-.3-2.2-.3-3-.2-1.7.1-2.8.2-3.7.2-.8 0-1.3 0-1.6 0-.6 0-.8-.1-1 .1-.1.1-.2.1-.3.4 0 .2.1.6.6 1s1.2.7 2.2.9 2.2.3 3.8.4c.7.1 1.6.2 2.3.4.3.1.6.3.7.4s.1.1.1.2v.2c0 .1 0 .2.1.2.5 5.6-29.8 16.5-34.3 15.6-4-.9-4.2-3.6-3.6-7.2.2-1.1.4-2.2.4-3.7 0-4.5-4.1-3.8-5.4-5.2-.2-.2-.1-.1-.2-.2 0 0 0-.1 0-.2 0-.2.1-.5.2-.9 2.1-4.7 28-12.4 28.5-12.5 1.8-.4 3.5-.5 4.9-.1.7.2 1.4.5 1.9.9s.8.7.8 1.2c0 .4-.2 1-.5 1.6-.3.5-.6 1.1-.9 1.5-.6 1-1.1 1.9-1.4 2.7s-.4 1.5-.3 2 .3.6.4.6 0-.3 0-.6c0-.4.2-.9.6-1.6s.9-1.5 1.6-2.3c.4-.5.7-.9 1.1-1.5s.8-1.2.9-2.3c.1-1-.6-2-1.3-2.6s-1.5-1-2.4-1.4c-1.8-.6-3.9-.6-5.9-.3-.1 0-27.9 6.1-31.3 13.3-.3.7-.6 1.5-.6 2.4 0 .5.1 1 .3 1.5s.6 1 .8 1.2c.5.6 1.2 1.1 1.9 1.5s1.4.6 1.9.7l.3.1.2.1v.1.2.3c0 .8-.2 1.9-.4 2.9-1 5.9.4 10.5 6.6 11.9 6.8 1.5 36.4-10.1 38.3-17.4.7-2.6-.1-5.7-3.3-6.5z"/><path d="m127.5 99.5c-.1.1-.2.2-.3.5 0 .3 0 .8-.5 1.7-.6.8-1.8 2-3.9 3.3-9.8 6.2-55.2 23.2-63.2 24-.6.1-1.3.1-1.9.1-.2-.6-.4-1.4-.7-2.4-2.2-6.8-12.3-31.1-23.6-62.2-3.1-8.4-5.7-15.7-7.1-19 .1 0 58-21.9 65.2-26.6 6.3 14.2 14.6 43.9 35 79 .6 1.1 1 1.7 1 1.6.1 0-36.5-88.2-36.5-88.3-.4-.7-.7-1.4-1.2-2.2-3.8-5.7-8-9.6-21.1-5.2-20.9 7.2-45.2 17.4-54.5 23.7-5.2 3.7-8.3 7.6-7.5 13.5.8 4.5 3.5 9.1 4.7 12.9 4.1 13.4 12.9 40.7 18.4 53.5 3.1 7.1 6.7 13.6 11.8 18.6 2.5 2.5 5.5 4.5 8.7 5.7 1.6.6 3.3 1 4.9 1.2s3.3.2 4.8 0c8.7-1 53.7-18.1 64.1-26 2.1-1.6 3.4-3.2 4-4.5.5-1.4.2-2.3-.1-2.6-.2-.4-.3-.3-.5-.3zm-111.1-68.7c9.4-6.6 34.5-17 53.4-23.8 8.3-3 12.9-2.9 17.4 3.6.4.6.8 1.3 1.1 2 .8 1.4 1.4 2.8 2.1 4.1.1.1.1.2.1.3-10 2-66.6 26.2-68.1 26.6-6 1.6-9.6-2.7-10.4-7.5-.1-.4-.1-.8-.1-1.2 1.1-1.4 2.7-2.9 4.5-4.1zm28 92.4c-4.4-4.4-7.9-10.5-10.8-17.4-5.2-12.3-14.3-40.2-18.4-53.1-1.8-5.4-5.5-11.1-4.7-15 1 6 5.3 10.2 12.5 8.7.8-.2 1.6-.4 2.4-.6.7 3.5 2.7 11 5.3 19.7 5.1 17 15.5 46.6 23.7 62.4.2.4.4.7.5 1-1.1-.2-2.1-.5-3.2-.9-2.6-1-5-2.7-7.3-4.8z"/></g></g></svg>