<svg id="Layer_1" enable-background="new 0 0 135 135" height="512" viewBox="0 0 135 135" width="512" xmlns="http://www.w3.org/2000/svg"><g><path d="m41.9 109.3c-.3 1-.1 2.1 0 3.2.5 4.3 1.3 8.6 2.4 12.8.1.4.2.8.1 1.2-.3.9-1.4 1-2.3 1-10 .2-20 .7-29.9 1.7-1.7.1-3.3.3-5 .5-2.7.4-4.2-2.7-2.4-4.7 8.5-9 17-18.1 25.6-27.1.3-.3.6-.6.9-1 1.5-1.6 3-3.1 4.7-4.4 1.8-1.5 3.8-2.7 6-3.4l6.5 5.8 4.2 3.8c-1.5 1.2-5.8 4.8-7.3 6-1.4 1.4-3 2.7-3.5 4.6z" fill="#e6e7e8"/><path d="m131.8 15.7c-.4 1.8-.9 3.6-1.5 5.4-1.4 4-3.4 8-5.7 11.9-1.1 1.8-2.3 3.6-3.5 5.4-4.2 6.1-9.1 11.7-13.5 16.6-12.2 13.3-26.5 24.8-40.7 36.1-5.5 4.4-13.2 9-19.2 5.2-3-1.9-4.1-4.7-3.9-7.8.1-1.7.6-3.6 1.4-5.6 4.2-10.2 16.5-22.3 20.4-27 6.1-7.5 12.5-14.7 19.2-21.7 3.3-3.5 6.8-6.9 10.3-10.2 3.6-3.4 7.2-6.8 10.9-10 1.5-1.3 3-2.6 4.5-3.8 2.9-2.2 6-4.2 9.5-5.3 1.7-.5 3.4-.8 5.2-.6.6.1 1.2.2 1.8.5 4 1.7 5.6 6.7 4.8 10.9z" fill="#fff86a"/><path d="m48.6 95-36.5 34.3c-1.7.1-3.3.3-5 .5-2.6.3-4.1-2.8-2.3-4.8 8.5-9 17-18.1 25.6-27.1.3-.3.6-.6.9-1l4.7-4.4c1.8-1.5 3.8-2.7 6-3.4z" fill="#f5f6f7"/><path d="m131.8 15.7c-.4 1.8-.9 3.6-1.5 5.4-32.1 10.4-58 35.8-80.5 60.4-1.4 1.5-3 1.9-4.5 1.5 4.2-10.2 16.5-22.3 20.4-27 6.1-7.5 12.5-14.7 19.2-21.7 3.7-2.8 3.5-4.7 7.4-7.2-.5-.7 3-2.2 2.8-3 3.6-3.4 7.2-6.8 10.9-10 1.5-1.3 3-2.6 4.5-3.8 4.6-2.3 9.3-4.2 14.2-5.6.2-.1.3-.1.5-.2.6.1 1.2.2 1.8.5 4 1.5 5.6 6.5 4.8 10.7z" fill="#fff9a9"/><path d="m121.1 38.3c-4.2 6.1-9.1 11.7-13.5 16.6-12.2 13.4-26.5 24.9-40.7 36.2-5.5 4.4-13.2 9-19.2 5.2-3-1.9-4.1-4.7-3.9-7.8.4-.1.9-.1 1.4-.1 15.1 1 27.5-7.8 38-17.7 10.8-10.3 21.1-21.1 31.5-31.7 2.2-2 4.6-1.9 6.4-.7z" fill="#f4e958"/><g fill="#202020"><path d=""/><path d="m5.5 131.5c.9.3 2 .2 2.4.1 10.5-1 20.6-1.6 30.1-1.9 1.3 0 2.5-.1 3.8-.1.4 0 2 0 2.9-.6 1-.5 1.7-1.5 1.8-2.5.1-.5 0-1.1-.2-1.6-.1-.3-.2-.6-.2-.9-.1-.5-.2-1-.4-1.5-1-4.6-1.5-7.7-1.9-10.6-.1-.7-.1-1.3-.1-1.8.3-2.9 7.2-7 9.3-10.4 11.1-.2 37.6-25.2 45.6-33 8.2-7.8 15.2-15.9 19.7-22.2 3.8-5.2 5.3-8.1 6-9.7s.5-1.8.3-2c-.2-.1-.5-.2-1.6 1.1s-3 3.9-7 8.8c-5.6 7-12.7 14.5-20 21.3-6.7 6.3-34.5 32.2-43.8 31.6-1.3-.1-2.6-.5-3.7-1.3-1.2-.8-2-1.9-2.4-3.2-1.6-5.8 5.4-15.4 9.1-20.1.1-.1 19.8-23.6 26.6-31.1 9.6-10.5 38-42.9 47.2-32.4 1 1.1 1.6 2.5 1.9 3.9 1.6 7.2-6.7 21.2-6.3 21.4.5.3 9.5-14.1 8-21.8-.3-1.7-.9-3.4-2.2-4.9-.6-.7-1.3-1.4-2.2-1.9-5.9-3.3-14.3 1.5-19.6 5.7-6.5 5.2-18.5 16-29.4 27.5-8.3 9.1-37.3 39.6-37.3 51.7-.3 0-1.1.1-2.3.6-1.5.6-3.6 1.8-5.8 3.6-4 3.4-26.6 26.6-30.3 30.4-.2.3-.6.7-.8 1.1-.5.8-.6 1.8-.5 2.7.2 1.8 1.5 3.5 3.3 4zm.4-5c0-.1.1-.1.2-.3 29.2-31.7 24.9-27.8 28.8-31.7 1.9-1.9 3.7-3.3 5.1-4.1.9-.6 1.6-.9 1.9-1.1 0 .9.1 1.8.4 2.8.6 2.3 2.2 4.3 3.9 5.5 1.2.9 2.7 1.6 4.2 1.9-1.3.8-7.6 4.9-9.3 7.6-.4.7-.8 1.6-1 2.6-.3 2.2.7 8.4 1.1 10.6.2 1 .4 2 .6 3.1.1.5.2 1.1.4 1.6.1.2.1.4.2.7s-.1 0-.6 0c-11.5.2-19 .6-32.6 2.1-1 .1-2.5.3-2.5.2-.3-.1-.6-.4-.7-.8-.2-.3-.1-.5-.1-.7z"/></g></g></svg>