<svg id="Layer_1" enable-background="new 0 0 135 135" height="512" viewBox="0 0 135 135" width="512" xmlns="http://www.w3.org/2000/svg"><g><path d="m89.5 94.1c-1.6 10.4 1.6 27.2-9.1 33.6-2.1 1.3-4.6 1.8-7 2.2-.5.1-1 .1-1.5.2-15.1 1.8-32.6 1.1-47.5-1.9-1.4-.3-2.9-.6-4.2-1.5-1.4-1-2.4-2.6-3.1-4.2-2.8-6.3-4-13.7-4.4-21.4-.5-11 .5-22.5.3-32.2-.3-12.3-.4-24.9 3.1-36.7 2.6-8.6 7.7-16.8 14.7-22 2.5-1.9 5.4-3.4 8.4-4.3 1.2-.4 2.4-.7 3.7-.9 13.9-2.4 34 3.2 42.6 14.6.4.6.9 1.2 1.2 1.8 4.2 6.8 5 15.3 5.3 23.4.8 16.3 0 32.9-2.5 49.3z" fill="#7fffca"/><path d="m45.2 78c-4.4 8.1-13.5 6.6-17.7.3-1.1-1.7-1.9-3.7-2.2-5.9-.5-3.9 1.2-7.9 4.1-10.5.4-.4.9-.7 1.3-1.1 1.4-1 3-1.6 4.5-2 5.1-1.2 10.1 1.2 11.8 7.3.1.3.1.5.2.8.7 3.8-.1 7.8-2 11.1z" fill="#ff2ae9"/><path d="m45.2 108.5c-4.8 8.8-15 6.2-18.7-1.4-.6-1.3-1-2.7-1.2-4.2-.6-4.5 1.7-9.1 5.4-11.5 6.3-4.2 13.8-2.6 16.1 4.9.1.1.1.3.1.4 1.1 3.9.3 8.3-1.7 11.8z" fill="#ff9200"/><path d="m47.1 46.4c-4.3 7.9-13 6.6-17.4.8-1.3-1.8-2.3-3.9-2.6-6.4-.6-4.4 1.7-9.1 5.4-11.5 5.1-3.4 11-3 14.3 1.3.9 1.1 1.5 2.5 2 4.1 1.1 3.8.3 8.1-1.7 11.7z" fill="#ff6815"/><path d="m75.8 78c-4.8 8.9-15.2 6.2-18.8-1.6-.6-1.2-1-2.5-1.1-4-.6-4.5 1.7-9.1 5.4-11.5 6.4-4.3 14.1-2.5 16.3 5.3.1.3.1.5.2.8.7 3.7-.2 7.7-2 11z" fill="#ff5591"/><path d="m75.8 108.5c-4.5 8.2-13.7 6.5-17.9 0-1-1.6-1.8-3.5-2.1-5.7-.6-4.5 1.7-9.1 5.4-11.5 5.5-3.7 12-2.9 15.1 2.5.5.8.9 1.8 1.2 2.9 1.1 3.9.3 8.3-1.7 11.8z" fill="#bc6aff"/><path d="m77.7 46.4c-4.9 9-15.5 6.1-19-2-.5-1.1-.8-2.3-1-3.7-.6-4.4 1.7-9.1 5.4-11.5 5.9-4 13-2.8 15.7 3.8.2.5.4 1 .5 1.6 1.2 3.9.4 8.2-1.6 11.8z" fill="#2415ff"/><path d="m109.5 40.8c-5.6 29.9-8 52.3-.7 82.1 2.9 11.9 10.6 6.2 11.3-2.9 2.1-30.8 1.2-55-2.8-85.6" fill="#c49a6c"/><path d="m121.8 32.4c-.9 2.5-2.4 5-4.5 6.5-2.7 1.9-5.2 2.2-7.5 1.5-4.7-1.5-8.1-7.4-8-12.9.1-1.9 1.6-7.3 3.7-12.3 2.3-5.7 5.3-10.9 7.4-10.7.5.1.9.4 1.2.7.1.1.3.3.4.4 1.7 2.2 3.5 4.9 5 8 2.7 6 4.4 12.8 2.3 18.8z" fill="#726658"/><path d="m85.6 19.4c-10-1.9-20.2-3-30.3-2.5-10.4.5-20.8 3.9-26.2 13.4-10.9 19.3-13.9 44.2-12.6 66 .2 2.8-1.7 4.4-3.8 4.7-.5-11 .5-22.5.3-32.2-.3-12.3-.4-24.9 3.1-36.7 2.6-8.6 7.7-16.8 14.7-22 3.7-2.1 7.8-3.8 12.1-5.2 14.1-2.5 34.2 3.2 42.7 14.5z" fill="#aeffda"/><path d="m46.8 30.5c-.5.6-1.3 1.1-2.2 1.3-6.5 2.1-12.2 6-13.7 13-.2 1-.6 1.8-1.2 2.3-1.3-1.8-2.3-3.9-2.6-6.4-.6-4.4 1.7-9.1 5.4-11.5 5.1-3.4 11-3 14.3 1.3z" fill="#ff9661"/><path d="m78.9 33c-7.6.5-14.9 2.9-19 10-.3.6-.7 1.1-1.2 1.4-.5-1.1-.8-2.3-1-3.7-.6-4.4 1.7-9.1 5.4-11.5 6-3.9 13.1-2.7 15.8 3.8z" fill="#66f"/><path d="m77.7 67c-6.9-.9-15.6.6-18.8 7.3-.5 1-1.1 1.7-1.9 2.1-.6-1.2-1-2.5-1.1-4-.6-4.5 1.7-9.1 5.4-11.5 6.4-4.3 14.1-2.5 16.3 5.3 0 .2 0 .5.1.8z" fill="#ff7bae"/><path d="m47.1 67c-.1 0-.3 0-.4 0-6.1-.1-13.3 1.5-15.5 7.9-.7 1.9-2.1 3-3.7 3.3-1.1-1.7-1.9-3.7-2.2-5.9-.5-3.9 1.2-7.9 4.1-10.5 1.8-1.3 3.7-2.3 5.8-3 5.1-1.2 10.1 1.2 11.8 7.3 0 .4.1.6.1.9z" fill="#ff5af7"/><path d="m46.8 96.3c-7.1-.7-13.7 2.3-17.4 8.5-.8 1.3-1.8 2-2.9 2.3-.6-1.3-1-2.7-1.2-4.2-.6-4.5 1.7-9.1 5.4-11.5 6.2-4.2 13.8-2.6 16.1 4.9z" fill="#ffac48"/><path d="m76.3 93.8c-7.3 1.1-13.5 5.9-16.9 12.9-.4.8-.9 1.4-1.5 1.8-1-1.6-1.8-3.5-2.1-5.7-.6-4.5 1.7-9.1 5.4-11.5 5.6-3.6 12.1-2.8 15.1 2.5z" fill="#cc97ff"/><path d="m109.7 40.1v.3c-4.7-1.5-8.1-7.4-8-12.9.1-1.9 1.6-7.3 3.7-12.3 2.3-3.8 5.2-7.1 8.6-10 .1.1.3.3.4.4 1.7 2.2 3.5 4.9 5 8-7.3 6.7-10.8 16.5-9.7 26.5z" fill="#7f7266"/><g fill="#202020"><path d="m19.1 128.1c1.2.8 2.5 1.2 3.6 1.5 9.4 2 21.1 3.1 33.1 2.8 8.5-.3 12.9-1 15.2-1.5s2.4-.8 2.4-1.1-.2-.5-2.5-.5-6.7.3-15 .2c-12.9-.2-23.9-1.6-32.2-3.5-8.5-2.1-9.1-25-9-33.8.1-6.2.4-12.9.5-20.1 0-7.3-.4-14.8.2-22.8.7-9.9 2.6-19.3 7.8-27.7 14-22.6 35.2-13.7 40.4-13.5 1.5.3 2.9.9 4.3 1.3 14.6 5.6 20 13.6 21.9 25.3.9 5.9 1 11.9 1.1 17.8.2 11.7-.3 22.9-1.4 33-.3 2.5-.6 5-.9 7.4-.4 2.4-.5 4.9-.6 7.1-.1 4.6-.1 8.8-.5 12.6s-1.2 7.1-2.7 9.7c-1.4 2.6-3.4 4.3-5.2 5.3s-3.5 1.4-4.6 1.7-1.7.4-1.7.5.6.1 1.8-.1c1.1-.2 2.8-.4 4.9-1.4 2-1 4.3-2.7 5.9-5.5 1.7-2.7 2.7-6.3 3.2-10.1.5-3.9.6-8.2.8-12.7.1-2.3.3-4.5.7-6.9s.7-4.9 1-7.4c1.3-10.2 2-21.5 2-33.3 0-3-.1-6-.2-9s-.3-6.1-.8-9.2c-2.2-17.1-14.4-26.3-28-29.6-7.4-.7-29.6-9.3-44.8 14.9-5.6 9-7.7 19-8.5 29.6-.6 8.2-.2 16-.2 23-.1 7.1-.4 13.8-.4 20.1-.1 9.2.9 30.6 8.4 35.9z"/><path d="m47.8 66.5c-.4-.4-.6-.4-.9-.3s-.5.2-.7.7c-.1.5-.1 1.4-.3 2.9-.6 5-3.1 10.3-7.5 11.5l-.4.1c-.1 0-.3 0-.4 0-7.4.7-13.6-8.7-9-16.2.6-1 1.3-1.8 2.1-2.5s1.8-1.3 2.8-1.8c2-.9 4.1-1.3 5.9-1 .9.1 1.8.5 2.5.8.7.4 1.4.9 1.9 1.4 1.1 1 1.7 2.1 2.2 2.9.4.8.7 1.2.8 1.2s.1-.5-.1-1.5c-.2-.9-.7-2.2-1.7-3.6-.5-.7-1.2-1.4-2.1-2s-1.9-1.1-3-1.4c-2.3-.7-5-.4-7.6.5-1.3.5-2.5 1.1-3.6 2-3.7 2.8-5.7 7.2-5.5 11.5.5 7.5 6 13.7 13.5 13.8.5 0 .9-.1 1.3-.1.2 0 .4 0 .6-.1s.4-.1.6-.2c.4-.1.8-.2 1.2-.4 6.1-3.1 8.6-9.5 8.2-15 0-1.8-.4-2.8-.8-3.2z"/><path d="m47.8 97c-.4-.4-.6-.4-.9-.3s-.5.2-.7.7c-.1.5-.1 1.4-.3 2.9-.6 5-3.2 11.1-8.3 11.6-5 .5-9.8-3.7-10.6-9.9-.6-6.9 6.5-12.7 12.4-11.6.9.1 1.8.5 2.5.8.7.4 1.4.9 1.9 1.4 1.1 1 1.7 2.1 2.2 2.9.4.8.7 1.2.8 1.2s.1-.5-.1-1.5c-.2-.9-.7-2.2-1.7-3.6-.5-.7-1.2-1.4-2.1-2s-1.9-1.1-3-1.4c-2.3-.7-5-.4-7.6.5-6.3 2.6-9.4 8.1-9.1 13.5.4 5.8 3.7 10.4 8 12.5 1.8.9 3.7 1.3 5.5 1.3 8-.8 12.6-8.4 12-15.8-.1-1.8-.5-2.8-.9-3.2z"/><path d="m49.7 34.9c-.4-.4-.6-.4-.9-.3s-.5.2-.7.7c-.1.5-.1 1.4-.3 2.9-1 8-6.1 14.1-12.8 10.8-5-2.5-8.1-9.4-4.5-15.4 2.5-4 7.3-6 10.9-5.3.9.1 1.8.5 2.5.8.7.4 1.4.9 1.9 1.4 1.1 1 1.7 2.1 2.2 2.9.4.8.7 1.2.8 1.2s.1-.5-.1-1.5c-.2-.9-.7-2.2-1.7-3.6-.5-.7-1.2-1.4-2.1-2s-1.9-1.1-3-1.4c-4.4-1.3-10.7.7-14.2 5.7-5.3 7.6-1.5 17.4 5.5 20.9 1.8.9 3.7 1.3 5.5 1.3.5 0 .9-.1 1.3-.1.2 0 .4 0 .6-.1 4.1-1.2 7-3.9 8.2-6.8 1.9-3.8 1.9-6.8 1.8-8.7-.1-2.1-.6-3-.9-3.4z"/><path d="m61.9 84.3c1.8.9 3.7 1.3 5.5 1.3.5 0 .9-.1 1.3-.1.2 0 .4 0 .6-.1s.4-.1.6-.2c.4-.1.8-.2 1.2-.4 6.1-3.1 8.7-9.3 8.2-15-.2-1.9-.7-2.9-1-3.3-.4-.4-.6-.4-.9-.3s-.5.2-.7.7c-.1.5-.1 1.4-.3 2.9-.6 4.8-2.5 9.1-6.7 11.3-.2.1-.5.1-.8.2l-.4.1c-.1 0-.3 0-.4 0-.3 0-.6.1-.8.1-5.3-.3-9.1-4.7-9.7-10-.6-7 6.6-12.6 12.4-11.6.9.1 1.8.5 2.5.8.7.4 1.4.9 1.9 1.4 1.1 1 1.7 2.1 2.2 2.9.4.8.7 1.2.8 1.2s.1-.5-.1-1.5c-.2-.9-.7-2.2-1.7-3.6-.5-.7-1.2-1.4-2.1-2s-1.9-1.1-3-1.4c-4.5-1.3-10.7.7-14.2 5.7-1.7 2.4-2.6 5.4-2.5 8.3.5 5.9 3.8 10.4 8.1 12.6z"/><path d="m79.4 100.3c-.2-1.9-.7-2.9-1-3.3-.4-.4-.6-.4-.9-.3s-.5.2-.7.7c-.1.5-.1 1.4-.3 2.9-.7 5.6-3.2 11.1-9.1 11.7-3.2-.2-5.7-1.7-7.6-4.3-1.1-1.6-1.9-3.6-2.2-5.7-.2-2.1.4-4.3 1.6-6.3.6-1 1.3-1.8 2.1-2.5s1.8-1.3 2.8-1.8c2-.9 4.1-1.3 5.9-1 .9.1 1.8.5 2.5.8.7.4 1.4.9 1.9 1.4 1.1 1 1.7 2.1 2.2 2.9.4.8.7 1.2.8 1.2s.1-.5-.1-1.5c-.2-.9-.7-2.2-1.7-3.6-.5-.7-1.2-1.4-2.1-2s-1.9-1.1-3-1.4c-2.3-.7-5-.4-7.6.5-1.3.5-2.5 1.1-3.6 2s-2.2 1.9-3 3.1c-1.7 2.4-2.6 5.4-2.5 8.3.2 2.9 1.1 5.6 2.6 7.8 2.4 3.5 6.2 6 10.9 6.1 8.4-.7 12.8-8.5 12.1-15.7z"/><path d="m63.8 52.7c1.8.9 3.7 1.3 5.5 1.3.5 0 .9-.1 1.3-.1 5.9-.8 11.3-7.6 10.6-15.6-.2-1.9-.7-2.9-1-3.3-.4-.4-.6-.4-.9-.3s-.5.2-.7.7c-.1.5-.1 1.4-.3 2.9-.7 5.3-3.2 11.1-9.1 11.7-5.3-.3-9.1-4.7-9.7-10-.6-7.2 6.8-12.6 12.4-11.6 3.2.4 5.1 2.7 6.6 5.1.4.8.7 1.2.8 1.2s.1-.5-.1-1.5c-1.1-3.9-3.9-6.3-6.9-7-7.2-2.1-17.1 4.4-16.7 14 .6 5.7 3.9 10.3 8.2 12.5z"/><path d="m104.3 38.5c1.1 1.2 2.5 2.2 3.9 2.8.3.1.5.2.8.3-.2.6-.4 1.3-.7 2.3-.6 2.2-1.4 5.4-2.2 9.3-1.7 7.9-3.8 19-4.3 31.4-.3 6.2-.2 12.8.5 19.3.7 6.6 1.8 13.1 3.5 19.4.4 1.6 1 3.3 2 4.9.5.8 1.2 1.6 2.1 2.2s2 1.1 3.2 1.1 2.3-.3 3.2-.8 1.6-1.1 2.3-1.8c1.2-1.4 2-2.9 2.6-4.5.3-.8.5-1.6.6-2.4.2-.8.2-1.6.3-2.3.1-1.4.2-2.7.3-4.1.2-2.6.3-5.1.4-7.5.8-17.1.2-30.1-.6-39.8s-1.8-16.2-2.5-20.6c-.9-5-1.5-7.2-1.9-8.2.1-.1.2-.1.3-.2.4-.4.8-.8 1.2-1.2 1.4-1.6 2-3.1 2.4-4.2.3-1.1.4-1.7.3-1.7s-.4.5-1 1.4c-3.6 5.8-8.1 6.7-11.5 5.1-1-.6-2-1.4-2.9-2.4-2.3-2.9-3.7-6.8-2.4-11.5 3.8-13.7 8.5-18.1 8.5-18.2.1-.1.1-.1.1-.1l.1.1.2.2c.1.2 8.3 9.8 8.4 21.3 0 .9-.1 1.6 0 2.2v1.2c.1.6.3.7.6.8s.5.1.9-.3c.2-.2.4-.6.7-1.2.2-.6.5-1.3.7-2.4 1.4-7.7-3-17.6-7.6-23.5-.9-1.3-1.9-2.4-3.4-2.5-.7 0-1.5.1-2.2.5-.4.2-.7.5-.9.6-.2.2-.4.4-.6.6-3.9 4-7.5 14.5-8.8 19.9-1.6 5.7-.1 10.6 3.4 14.5zm11.4 2.5c.2-.1.4-.2.6-.3 0 1.3.1 3.6.4 7.6.4 4.4 1 10.9 1.7 20.5.6 9.6 1.1 22.4.3 39.3-.1 2.3-.3 4.8-.4 7.4-.1 1.3-.2 2.7-.3 4-.1.7-.1 1.3-.2 1.9s-.2 1.2-.4 1.8c-.4 1.2-1 2.3-1.7 3.1-.8.9-1.7 1.4-2.4 1.4-.4 0-.7-.1-1.1-.4s-.8-.7-1.1-1.2c-.7-1-1.2-2.3-1.6-3.8-1.7-6-3-12.4-3.8-18.8s-1.1-12.8-1-18.9c.2-12.2 1.8-23.3 3-31.2.9-5.7 1.6-9.9 1.8-11.8 2.4.7 4.2.3 6.2-.6z"/></g></g></svg>