<svg id="Layer_1" enable-background="new 0 0 135 135" height="512" viewBox="0 0 135 135" width="512" xmlns="http://www.w3.org/2000/svg"><g><path d="m128.6 120.3c-.3.3-.5.7-.8 1-3.5 3.8-8.5 5.5-13.8 6.4-3.4.5-6.9.7-10.3.8-22.2.7-46.8 1.2-69 1.9l79.3-36.5 3.9-1.8c2.9 1.2 5.9 3.4 8.3 6.1 2.1 2.3 3.8 4.9 4.7 7.4 1.6 4.9.9 10.5-2.3 14.7z" fill="#ff55b6"/><path d="m118.7 88.7c-.2.4-.5.8-.7 1.2-3.2 5.1-8.2 8.8-13.5 11.9-9.5 5.6-19.9 9.4-30.3 13.2-12.2 4.5-24.5 8.9-36.7 13.4l62-58.4 2.1-2c5.5-2.7 14.7-.1 17.6 5.1 2.7 4.8 2.1 10.7-.5 15.6z" fill="#e57fff"/><path d="m104.7 56.3c-.2 1-.4 1.9-.7 2.8-1.5 5.3-4.1 10.3-7.4 14.7-2.9 3.7-6.3 7-9.7 10.3-14.7 14.1-28 23.8-42.6 37.9l31.6-75.2 2.3-5.4c4.5-1.4 9.3-2.5 14-1.9 4.7.5 9.4 3 11.6 7 1.5 3 1.6 6.4.9 9.8z" fill="#afaaff"/><path d="m77 42.5c-.2 5.5-1.9 10.9-3.8 16.1-7.9 21.9-18.1 43-30.4 63l.6-82.7.1-6.9c3.1-2.6 7.5-5.9 11.6-7.7.8-.3 1.5-.6 2.3-.8 2.4-.7 4.9-.9 7.3-.5h.1c2.4.3 4.6 1.2 6.4 2.7 2.3 1.9 3.6 4.6 4.5 7.3.2.7.5 1.5.6 2.3.5 2.3.8 4.8.7 7.2z" fill="#7fd8ff"/><path d="m45.7 114.2c-.1 1.6-.2 3.1-.5 4.7-.4 1.8-1 3.5-1.9 5-4.6 7.6-13.3 8.2-21.1 4.8-4.5-2-7.3-6.1-9.5-10.3-.3-.5-.5-1-.8-1.6-5.7-12.1-5.2-24.5-6.1-37.5-.2-2-.3-4-.4-6-.9-12.7-1.4-25.6-1.6-38.5-.1-5.7-.2-11.5 1.7-16.9.6-1.8 1.5-3.6 2.7-5.2.9-1.3 2-2.5 3.3-3.6 1.7-1.5 3.7-2.5 6-3.1 7.9-2 16.3 3.2 20.2 10 .6 1 1.1 2.1 1.5 3.2 2.5 6.1 2.8 12.9 3.2 19.5.3 7.3.7 14.6 1 21.9.1 2.8.3 5.6.4 8.4.6 13.2 1.2 26.4 1.8 39.7.1 1.8.1 3.7.1 5.5z" fill="#7befd0"/><path d="m39.2 19.3c-16.2 11.8-29.3 28.8-30.2 49.5-.1 2.5-1.7 4.1-3.6 4.7-.9-12.9-1.4-25.8-1.6-38.7-.1-5.7-.2-11.5 1.7-16.9.6-1.8 1.5-3.6 2.7-5.2 1-1.3 2.1-2.5 3.3-3.6 1.7-1.5 3.7-2.5 6-3.1 7.9-2 16.3 3.2 20.2 10 .5 1.1 1 2.2 1.5 3.3z" fill="#9fffe1"/><path d="m45.7 114.2c-.2 1.5-.5 2.9-1 4.3.2.1.3.2.5.4-.4 1.8-1 3.5-1.9 5-4.6 7.6-13.3 8.2-21.1 4.8-4.5-2-7.3-6.1-9.5-10.3-.3-.5-.5-1-.8-1.6 14.5-.5 21.1-19.5 22.5-31.4.7-6 .5-12.3 2.5-18 .7-1.9 2.1-6.2 4.8-5.3 2.4.8 1.8 4.8 1.9 6.8.6 13.2 1.2 26.4 1.8 39.7.3 1.9.3 3.8.3 5.6z" fill="#60e2bd"/><path d="m25.7 103.1c-2.3.4-4.1 2.4-4.6 4.6s.4 4.5 1.9 6.2c.8.9 1.8 1.7 3 2.1 2.8 1 6.3-.4 7.6-3 2.9-5.8-7.7-15.2-10.8-7.9" fill="#bcbec0"/><path d="m76.3 35.3c-1.3.6-2.9.7-4.6-.2-8-4.4-16.3-1.1-23.1 3.8-1.9 1.4-3.8 1.1-5.2 0l.1-6.9c3.1-2.6 7.5-5.9 11.6-7.7 3.1-.9 6.4-1.4 9.6-1.3h.1c2.4.3 4.6 1.2 6.4 2.7 2.3 1.9 3.6 4.6 4.5 7.3.2.7.4 1.5.6 2.3z" fill="#92e3ff"/><path d="m104.7 56.3c-5.7-5.8-15.9-9.5-23.8-7.7-2.2.5-4-.4-5.1-1.8l2.3-5.4c4.5-1.4 9.3-2.5 14-1.9 4.7.5 9.4 3 11.6 7 1.6 3 1.7 6.4 1 9.8z" fill="#c0c0ff"/><path d="m118.7 88.7c-.5-.5-.9-1.3-1-2.2-.8-3.9-1.7-7.8-4.9-10.5s-7.4-3.8-11.3-5c-.8-.2-1.4-.6-1.9-1l2.1-2c5.5-2.7 14.7-.1 17.6 5.1 2.6 4.8 2 10.7-.6 15.6z" fill="#e79fff"/><path d="m128.6 120.3c-.3.3-.5.7-.8 1-3.5 3.8-8.5 5.5-13.8 6.4.1-.6.4-1.2.9-1.8 5.9-8.2 6.5-18.8.1-27-1.2-1.6-1.4-3.4-.9-4.9l3.9-1.8c2.9 1.2 5.9 3.4 8.3 6.1 3.3 6.9 4.2 14.6 2.3 22z" fill="#ff71c9"/><g fill="#202020"><path d="m124.1 93.8c-2.6-1.9-4.3-2.4-5.2-2.6.2-.3.4-.6.6-1 1.1-2 1.8-4.2 2.2-6.3 1.6-8.6-3.1-15.5-10.8-17.2-2.8-.6-5.1-.4-6.6.1-.8.3-1.3.5-1.7.8.9-1.7 1.6-3.5 2.2-5.4 6-17.6-5-25.3-18-23.5-2.8.4-5 1.1-6.5 1.6-.7.3-1.2.5-1.6.7 0-1-.1-2-.3-3-1.8-12.7-9.2-17.4-18.2-16.2-5.6.7-10.8 4.3-14.8 8-2.5 2.3-1.1 2.7-2.3-4.1-.6-3.2-1.6-6.5-3.2-9.7-4.1-8.1-13.4-13.9-22.2-12-1.3.2-2.5.7-3.6 1.2-1.2.5-2.3 1.2-3.3 2-6.5 4.9-8.6 12.7-8.9 20.8-.5 14.9 2.9 58.6 3 60 .1 1.5.2 3 .3 4.5v.1s0 .1.1.1c.3 3.2.6 6.3 1.1 9.3 1.6 9.3 5.9 22.2 14.1 26.7 1.6.9 3.2 1.4 4.8 1.8 3.1.8 6.2.9 8.7.4 1.5.1 4.3.2 7.9.2 14.4 0 29-.8 62.5-1.8 6.7-.2 14.2-.8 20-4.2 10.8-6 12.7-21.6-.3-31.3zm-46.8-41.7c.9-3.3 1.5-7 1.4-10.6 1.6-.2 4.5-1 8.2-1.2 12.3-.6 20.3 6 14.7 20.8-1.5 4-3.7 7.9-6.2 11.2-9.2 12.1-39 34.7-49 46.2 0-.1 0-.1 0-.2.1-.6.2-1.2.3-1.9.6-.6 1.6-1.9 3.3-4.3 11.7-17.3 23.7-46.6 27.3-60zm-31.3-21.7c4.5-2.9 9.2-6 14.5-6.4 9.3-.7 13.5 5.1 14.6 14.3.5 4.2-.2 8.5-1.4 12.7-5.4 18.5-18 43.3-26.6 60.5 0-.5 0-1.1 0-1.6-.1-6.9-.5-17.1-1.1-32.2-.3-7.5-.7-16.3-1.1-26.5-1-22.6-1.7-19 1.1-20.8zm-38.2 57.5c-.2-4.8-.6-9.8-.8-14.7-2.2-37.5-4.7-62.3 11.5-65.3 7-1.4 14.5 3.6 17.8 10.1 1.4 2.7 2.3 5.6 2.8 8.5 1.1 5.6 1.1 11.4 1.8 25 .5 10.2 1 18.9 1.3 26.5.2 4.7.5 8.9.7 12.7-.3-.2-.7-.3-1.3-.5-5.8-1.3-23.3-.9-33.7 1.5 0-1.3-.1-2.6-.1-3.8zm17.8 41.2c-1.4-.5-3-1-4.3-1.8-7.4-4.4-11.2-17-12.4-25.6-.4-2.7-.7-5.6-.9-8.5 4 .2 29.5.5 33.5-.2.8-.1 1.3-.3 1.5-.5.4 7.5.8 13.2 1.1 17.6.6 6.8-.3 10.1-.8 11.8-.2.9-.4 1.3-.4 1.6s.1.4.2.5.3.1.5-.1c.3-.2.6-.6 1.1-1.4.1-.1.2-.3.3-.5.6 0 1.8-.8 5.1-3.5 12.5-10.2 40-32.9 48.1-44 1.5-2 2.8-4.2 4-6.5.3 0 1-.2 2.1-.4 1.4-.2 3.5-.2 6 .6 9.2 3 11.1 12.3 6.3 20.4-9.5 15.9-47.2 24.9-71.2 35.4-1.3.6-2.3 1.1-3.1 1.4.1-.1.2-.2.2-.3.5-.8.7-1.3.6-1.3s-.4.3-1 1c-.3.4-.7.7-1.1 1.2-.1.1-.1.1-.2.2-.3.2-.5.4-.6.5-.3.3-.6.5-1 .7-1.4 1-3.3 1.9-5.7 2.2-2.2.6-5 .4-7.9-.5zm89.3-4.7c-3.1.6-6.7.9-10.7 1.1-19.4.8-46.5 2.8-62.5 4.2-1.8.2-3.5.3-4.8.4 1.2-.5 2.2-1.2 3-1.8.2-.2.4-.3.6-.5.4.3 1.5.3 6-1 14.8-4.3 56.5-17.8 68.9-31 .9-1 1.8-2.1 2.6-3.2 0 0 .1.1.1.1.6.6 1.9 1.4 4.1 3.4 12.3 11.5 8 25.4-7.3 28.3z"/><path d="m35.9 113.2c1.6-4.4-1.8-9.8-6.1-11.7-1.3-.6-2.7-.9-3.9-.6-1.2.2-2.1.8-2.6 1.4s-.7 1.1-.8 1.4c0 .1 0 .2-.1.3-.9.7-1.8 1.7-2.3 3.3-.5 1.5-.4 3.3.2 5 2.4 6.4 9.7 8 14 3.4.7-.8 1.2-1.6 1.6-2.5zm-4.5-.3c-3.6 4.2-9.7-.5-9.1-5.2.1-1 .5-1.8 1-2.5.1 0 .3 0 .5-.1.3-.1.7-.5 1.4-.8.3-.1.6-.2 1.1-.2.4 0 1.1.2 1.9.6 2.6 1.6 5.3 5.7 3.2 8.2z"/></g></g></svg>