<svg id="Layer_1" enable-background="new 0 0 135 135" height="512" viewBox="0 0 135 135" width="512" xmlns="http://www.w3.org/2000/svg"><g><path d="m113.7 82.9c-.4 7.6-.5 15.7-3.5 22.6-.7 1.7-1.7 3.4-2.8 4.9-2.6 3.5-6.2 5.7-10.2 7.2-1.2.4-2.5.8-3.8 1.1-3.2.8-6.5 1.2-9.8 1.4-.4 0-.8.1-1.2.1-11 .7-22.1.5-33.2-.5-6.2-.6-12.7-1.6-17.6-5.4-.4-.3-.8-.6-1.2-1-2.9-2.4-4.6-5.7-5.6-9.4-2.2-7.8-1.3-17.6-1.7-24.6-.7-13.3-1.1-26.5-1.3-39.8-.1-5.5-.1-11.1 0-16.6 0-3.3-.7-8.1 1-11.1 2.2-3.7 6.8-5.3 11.5-6.1 1.9-.3 3.8-.5 5.5-.6.7 0 1.4-.1 2-.1 13.5-1 27-1.4 40.5-.7.8 0 1.6.1 2.4.1 2.8.2 5.6.4 8.4.8 3.8.6 7.4 1.5 10.9 2.9 5.2 2.2 6.1 5.9 6.5 10.2.1 1.7.2 3.4.4 5.2.3 2.9.5 5.8.8 8.7.6 6.3 1.1 12.5 1.5 18.8.3 4.9.5 9.9.6 14.8.3 5.8.2 11.4-.1 17.1z" fill="#b615ff"/><path d="m110.9 18.5c-.3-.1-.5-.2-.8-.3-11-5.9-23.1-6.6-35.1-6.2-11.1.4-25.7-.7-35.5 6.1-10 7-10.2 24.5-10.1 36.3.2 14.6.6 29.2 1 43.8.1 3.9-2.7 5.8-5.3 5.8-2.2-7.8-1.3-17.6-1.7-24.6-.7-13.3-1.1-26.5-1.3-39.8-.1-5.5-.1-11.1 0-16.6 0-3.3-.7-8.1 1-11.1 4-6.8 15.3-7.3 22.3-7.3 12.4 0 24.8-.9 37.2-.3.8 0 1.6.1 2.4.1 2.8.2 5.6.4 8.4.8 3.8.6 7.4 1.5 10.9 2.9 5.3 2.4 6.2 6.1 6.6 10.4z" fill="#c85fff"/><path d="m113.7 82.9c-.4 7.6-.5 15.7-3.5 22.6-1.3 2-2.8 3.9-4.6 5.6-2.6 2.6-5.5 4.7-8.4 6.5-1.2.4-2.5.8-3.8 1.1-3.2.8-6.5 1.2-9.8 1.4-.4 0-.8.1-1.2.1-11 .7-22.1.5-33.2-.5-6.2-.6-12.7-1.6-17.6-5.4.7-1.3 2.1-2.1 4-1.9 20.2 2.2 46.6 7.7 62.8-8.3 8.3-8.2 8.3-19.8 8.9-30.8.7-12.3 1.3-24.7 2-37 .1-1.9 1.1-3.3 2.4-4 .6 6.3 1.1 12.5 1.5 18.8.3 4.9.5 9.9.6 14.8.3 5.7.2 11.3-.1 17z" fill="#a20cf2"/><path d="m93.5 4.5v114.2c-3.2.8-6.5 1.2-9.8 1.4v-115.6z" fill="#e1ff55"/><path d="m33 114.5c.4 3.5-.7 5.7-1.2 9.2-.1.7-.1 1.4.1 2 .5 1.2 1.7.9 2.5.2s1.8-1.5 2.6-.9c1.4 1 .9 5 2.4 5.9.7.4 1.5-.2 1.9-1.2.4-.9.5-2.1.6-3.2.2-3 .2-6.1.1-9.1" fill="#e1ff55"/><path d="m114.8 63.4c.1-1.2.1-3 .1-5.5 0-1.3 0-2.8 0-4.5 0-1.3-1.7-36.6-3.4-40.8-.5-1.2-1.3-2.4-2.3-3.4s-2.2-1.8-3.4-2.4c-4.8-2.2-10.2-3.3-16-3.9-12.1-1.2-53.8-2.3-64.1 3.8-1.1.7-2.3 1.6-3.2 2.7-.3.3-.4.6-.7.9-.2.3-.4.6-.6 1-.4.7-.6 1.5-.8 2.2-.9 3.7.4 81.3 3 90.9.9 3.3 2.5 6.7 5.1 9.2 1.1 1.2 2.4 2.2 3.8 3.1v.2c-.3 1.4-1.1 3.3-1.7 5.7l-.1.5c0 .1-.1.5-.1.7-.5 3.5 1.8 5.1 4.3 4 .5-.2.9-.5 1.4-.9v.1.1.2c.1.3.1.6.2.9.2 1.2.4 2.3.8 3 1.3 2.4 3.9 2.4 5.5.3.6-.8 1-2.1 1.1-3.4.2-1.9.2-5.2-.1-7.5 1.2.2 2.3.4 3.5.5 12.5 1.3 25.4 1.3 37.2.3 19.9-1.9 28.1-9.3 29.6-29.1.4-8.1.6-14.7.5-19.2 0-2.3-.1-4-.2-5.2s-.2-1.8-.2-1.8c-.1 0-.2 2.5-.4 7s-.6 11.1-1.3 19.1c-1.3 12.9-5.2 21.5-17.5 25 .2-.8.3-2 .5-3.7 2.2-21.7-.2-95.6-1.1-106 3.6.6 6.9 1.5 9.7 2.8 1.9.9 3.3 2.2 4 3.8.9 2.1 4.2 39.3 4.2 39.4.1 1.7.2 3.2.3 4.5.2 2.5.4 4.3.6 5.5.3 2.4.6 2.6.9 2.6s.7-.3.9-2.7zm-74.6 60.1c0 .5-.1 1-.1 1.6 0 .3 0 .6-.1.9v.1s0 0 0 0 0 0-.1 0v-.1l-.1-.3c-.1-.4-.3-.8-.6-1.3s-.8-1-1.6-1.4c-.9-.3-1.8-.1-2.3.1s-.9.5-1.2.7l-.1.1c-.1.1-.2.2-.3.2s-.2-.1-.3-.3c0-.1 0-.1 0-.2s0 0 0-.2v-.4c.2-2 .6-4 .5-5.6 1.2.6 2.4 1.1 3.6 1.5 1 .3 2.1.6 3.1.9-.2 1-.3 2.1-.4 3.7zm7.4-5.6c-3.1-.4-6.2-.9-9.1-1.9s-5.5-2.5-7.5-4.7c-8.5-8.5-6.9-95.5-6.6-96.8.4-1.8 1.8-3.2 3.4-4.3 8.2-4.9 45.3-4.4 55.6-3.8-.3 1.4-.6 3.6-.9 6.4-2.7 23.8-3.7 57.3-1.8 89.7.2 3.9.8 12.6 1.6 16.4-11.7.6-23.4.3-34.7-1zm44.9-4.6c.1 2.1.2 3.4.3 4.3-2.7.6-5.6 1-8.5 1.2.1-.8.1-2 .2-3.6 0-2.8 0-6.8-.1-12.9-1.7-71 0-87.4-.3-95.9 1.8.1 3.6.2 5.4.4 1.4.1 2.7.3 4 .5-1.7 18.6-1.2 97.6-1 106z" fill="#202020"/></g></svg>