<svg id="Layer_1" enable-background="new 0 0 135 135" height="512" viewBox="0 0 135 135" width="512" xmlns="http://www.w3.org/2000/svg"><g><path d="m76.2 63.2s.1.1.1.1c-.3.7-.5 1.3-.7 2z" fill="#e6e7e8"/><path d="m115.7 110.9c-.4 1.6-.9 3.1-1.6 4.6-.3.6-.6 1.3-1.3 1.5-.6.2-1.2-.1-1.7-.4-3.1-1.9-5.1-5.1-7-8.2-9.2-15-18.5-30-27.8-45 .1-.3.3-.7.4-1 2.5-5.8 7-10.6 12.5-13.6 6.5 10.6 15 19.9 20.9 30.8 5.1 9.5 8.2 21 5.6 31.3z" fill="#e6e7e8"/><path d="m76.2 63.2s.1.1.1.1c-.3.7-.5 1.3-.7 2z" fill="#fafbfc"/><path d="m115.7 110.9c-.4 1.6-.9 3.1-1.6 4.6-.3.6-.6 1.3-1.3 1.5-.6.2-1.2-.1-1.7-.4-3.1-1.9-5.1-5.1-7-8.2-9.2-15-18.5-30-27.8-45 .1-.3.3-.7.4-1 1.8-1.2 4.2-1.4 6.3.4 7 6.3 12.3 15 17.4 22.8 5.4 8.2 10.5 16.6 15.3 25.3z" fill="#fafbfc"/><path d="m60.1 55.7c.1.8-.3 1.5-.6 2.2-.4.8-.8 1.6-1.2 2.4-8.3 16.8-17.7 33-28 48.7-.4.7-.9 1.4-1.5 2-1.6 2-3.6 3.7-5.8 3.8-.6 0-1.2 0-1.8-.3-1.3-.5-2.3-1.6-3.1-2.8-1.1-1.6-1.8-3.3-2.2-5.2-.9-3.7-.7-7.8.4-11.5 1.6-5.6 4.6-10.6 7.7-15.5l23.4-37.5-.2.4c4.1 3.4 8 7.1 11.7 11 .5.7 1.1 1.4 1.2 2.3z" fill="#e6e7e8"/><path d="m58.3 60.3c-8.3 16.8-17.7 33-28 48.7-.4.7-.9 1.4-1.5 2-1.8 1.5-3.8 2.8-5.8 3.8-.6 0-1.2 0-1.8-.3-1.3-.5-2.3-1.6-3.1-2.8-1.1-1.6-1.8-3.3-2.2-5.2.3-.1.6-.1.9-.1 3.9-.2 8.5-6.2 10.9-8.9 3-3.3 5.5-7 7.8-10.7 5.4-8.9 9.2-18.5 12.9-28.2 2.2-5.6 10.9-3.6 9.9 1.7z" fill="#fafbfc"/><path d="m77.1 21.1c-.3 3.7-.9 7.3-.6 11l-13.1-2.1-5.3-.9c.1-2.8.2-5.6.3-8.4.1-3.3.3-6.6 1.5-9.6s3.8-5.7 7-6.1c3.6-.5 7.1 2.1 8.7 5.4.2.4.4.8.6 1.3 1 2.9 1.1 6.2.9 9.4z" fill="#e6e7e8"/><path d="m17.1 113.5-1.1 15.5c-.1 1 1.1 1.4 1.7.7 3-4.1 8.7-13.1 11.4-17.4" fill="#bcbec0"/><path d="m110.2 117.5c2.2 3.8 4.9 7.3 8.1 10.2.5.4 1.3 0 1.2-.6-.6-5.1-1.8-10-3.6-14.8" fill="#bcbec0"/><path d="m92.3 47.4c-.5 2.6-1.1 5.3-2.2 7.6-2.8 5.7-8.9 9.1-15 10-6.2 1-12.4-.2-18.5-1.8-1.4-.4-2.8-.7-4-1.5-1.4-.8-2.5-2.1-3.5-3.4-1.7-2.2-4-5.8-5.8-9.5-2-4.4-3.3-9.1-1.8-12.4 4.3-9.4 27.1-5.5 34.8-4.9 3.4.3 6.9.6 10 2.1 2.4 1.1 4.5 3 5.6 5.3.4.7.6 1.5.8 2.3.5 2.1 0 4.2-.4 6.2z" fill="#f8a3bc"/><path d="m92 38.9c-8.2-.9-16.4-2.7-24.7-2.7-5.2 0-10.6.6-15.3 3.1-2.9 1.6-7.8 5.5-8.8 9.5-2-4.4-3.3-9.1-1.8-12.4 4.3-9.4 27.1-5.5 34.8-4.9 3.4.3 6.9.6 10 2.1 2.6 1.1 4.7 3 5.8 5.3z" fill="#ffc0d5"/><path d="m76.1 11.6c-.1 0-.3 0-.4 0-8.8 0-12.2 8.8-12 16.3 0 .8-.1 1.5-.3 2l-5.3-.9c.1-2.8.2-5.6.3-8.4.1-3.3.3-6.6 1.5-9.6s3.8-5.7 7-6.1c3.6-.5 7.1 2.1 8.7 5.4.2.5.3.9.5 1.3z" fill="#f7f7f7"/><path d="m29.6 113c4.5-4.9 19.3-29.8 28.1-47.5 1.9.5 3.8.9 5.7 1.2 4.5.8 8.8.9 12.6.2.6-.1 1.2-.2 1.7-.4.9 1.7 2.2 4 3.8 6.8 3.5 6.2 8.5 14.7 14 24 1.4 2.3 2.8 4.7 4.2 7.1 1.5 2.4 2.8 4.8 4.5 7.4 1.3 2 2.7 3.8 4.6 5.3.3.2.7.5 1 .7l.3.2c.1.6.5 1.7 1.1 3 1.2 2.5 5.2 8.7 7.9 8.7 1.3 0 2.5-1.2 2.3-3.8-.1-1.1-.3-2.3-.5-3.2-1.1-5.6-2.3-8.2-3.1-9.5-.3-.4-.5-.7-.8-.9.2-.6.3-1.1.5-1.7.7-2.9 1-5.8.9-8.7-.1-2.8-.4-5.6-1-8.2-1.1-5.2-2.9-9.7-4.8-13.5-3.5-6.9-7.5-12.3-10.9-16.9-3.3-4.4-6.1-8.2-8.4-11.6.2-.7.3-1.4.5-2 .2-1.1.4-2.1.6-3.1s.3-2.1.4-3.1c.1-2.1-.5-4.3-1.4-5.9s-2.1-2.8-3.3-3.7-2.4-1.5-3.4-1.9c-1.1-.4-2.1-.7-3-.9-1.8-.4-3.1-.4-4.1-.5-.6 0-1.1 0-1.5 0 .1-.4.3-1.1.3-2.2.1-1.4.2-3.5.4-6.5.1-1.5.3-3.5.2-5.7-1.1-16.7-19.5-17.8-21.5-1.7-.3 2.1-.2 4-.2 5.8 0 1.7.1 3.3.2 4.6.1 2.6.4 4.2.6 4.2.3 0 .6-1.6.9-4.2.6-4.4.6-7.1 1.3-9.9 2.6-11.9 13.8-10.1 14.8 1.6.2 2 .1 3.6 0 5.2-.1 3.2.2 5.4.4 6.8.3 1.6.6 2.3.9 2.6v.2c0 .3 0 .6.9.9.9.4 2.6.6 5.7 1.5 1.5.5 3.3 1.2 5 2.7.9.7 1.7 1.7 2.3 2.8s.9 2.4.8 4c-.1 1.9-1.4 8.6-3.2 11.6-2.2 3.8-6.7 7-12.6 8-3.2.6-7.1.5-11.3-.1-2.1-.3-4.3-.8-6.5-1.3-6.4-1.5-10.5-8.4-13.1-14.4-1-2.2-1.7-4.4-1.9-6.5-.1-.5 0-1 0-1.6.6-3.1 1.9-5.2 7.2-6.6 2-.6 4.1-.8 6.1-1 4-.3 7.6-.2 10.7-.1s5.6.3 7.3.3c1.7.1 2.7 0 2.7-.2 0-.1-.9-.3-2.6-.7-1.7-.3-4.2-.7-7.2-1.1-3.1-.4-6.8-.7-10.9-.6-2.1.1-4.3.2-6.6.7-1.1.3-2.3.6-3.5 1.1-4.8 2.1-6.6 5.8-6.2 9.8.2 2.7 1 5.3 1.9 7.7.2.4.3.8.5 1.1-.5.7-1 1.5-1.6 2.4-4.3 6.4-10 15.2-16.3 24.8-3.1 4.8-6.6 9.9-8.8 15.9-1.1 3-1.7 6.3-1.7 9.5 0 3.3.7 6.6 2.3 9.6.4.6.7 1.3 1.2 1.9-.4.1-.8 1.7-1.2 4.1-.7 3.9-1.2 7.7-1.5 11-.1.9.2 1.5.4 1.9.1.2.2.4.3.5.2.2.4.4.7.6 2.2 1.3 3.9-1.1 5.3-3.2 2.4-3.4 6.8-10.1 8.2-13.8.4-.8.5-1.3.4-1.6zm85.3 4.4c.2-.3.4-.5.5-.8 0 0 0-.1.1-.1 1.8 8.5 3 9.5-2.6 3.4-.4-.4-.8-.8-1.1-1.2 1.2.2 2.4-.3 3.1-1.3zm-23.5-60.5c.1-.3.3-.5.4-.8 2 2.9 4.3 6.1 6.8 9.6 3.3 4.7 7.2 9.9 10.5 16.4 1.8 3.5 3.5 7.8 4.5 12.5.5 2.4.9 4.9 1 7.4.2 6.9-1.8 11.4-1.8 11.5-.7 1.7-.5 1.4-.7 1.4 0 0 0 0-.1 0-.3-.2-.3-.2-1-.6-1.6-1.2-2.8-2.7-3.9-4.3-1.5-2.3-3.1-4.8-4.6-7.1-1.5-2.4-3-4.7-4.5-7-5.9-9.1-11.2-17.4-15.1-23.3-1.7-2.5-3.1-4.6-4.2-6.2 5.6-1.7 10.2-5.2 12.7-9.5zm-73 36.7c1.8-5.5 5.1-10.5 8.1-15.5 5.9-9.9 11.3-18.8 15.1-25.4.3-.6.7-1.1 1-1.7.7 1.4 1.5 2.8 2.3 4.2 2.1 3.4 4.7 7.3 8.1 8.8.4.2.7.3 1.1.4-2.8 5.3-24.6 45.9-30.2 48.1-.9.3-1.7.3-2.5-.2s-1.6-1.5-2.2-2.6c-1.3-2.3-2-5-2-7.8-.2-2.7.3-5.5 1.2-8.3zm-.3 32.2c-.1 0-.1 0-.2-.1-.2-.6.1-2.7-.2-7.8-.1-1.9-.2-3.2-.4-3.9.5.6 1.2 1.3 2 1.8.4.3.9.5 1.4.7.2.1.5.2.7.2l.8.1c.7.1 1.4 0 2-.2-6.4 9-5.9 9.1-6.1 9.2z" fill="#202020"/></g></svg>