<svg id="Layer_1" enable-background="new 0 0 135 135" height="512" viewBox="0 0 135 135" width="512" xmlns="http://www.w3.org/2000/svg"><g><path d="m91.9 47.5c-.8 1.2-1.7 2.3-2.5 3.3-8.4 11.2-14.9 17.6-24.8 28.3-4.7 5-10.2 10.5-17.1 10.4-1.8 0-3.6-.4-5.3.1-2.2.7-3.7 2.7-5.1 4.6-.3.5-.7.9-1.1 1.4-1.1 1.4-2.5 2.6-4.2 2.9-.3.1-.6.1-.9.2-6.9.9-1.9-7.8-.3-10.1.5-.7.9-1.4 1.1-2 1.4-3.7-.7-6.9-1.3-10.5-.3-1.6-.2-3.4.7-5.3 1.3-3.1 3.6-5.7 5.9-8.2 13.1-14.3 20.3-22.3 34.9-35l3.8 3.8z" fill="#55e7ff"/><path d="m116.9 10c-.5 2.4-2.3 4.9-4.2 6.9-1.8 2-4.4 4.1-6.5 6.4-2.9 3-5.1 6.4-4.4 10.7.4 2.2 1.7 4 2.3 6.1.5 1.6.6 3.3.2 4.9-.3 1.4-.9 2.8-2.1 3.6-6.5 4.9-17.1-1.7-21.5-6.5-.8-.8-1.7-1.9-2.6-3.1-3.4-4.4-7.1-10.8-6.3-15.3.1-.5.2-.9.3-1.3 1-3.2 3.2-3.5 5.6-3 1.8.3 3.9 1.1 5.7 1.3 3.3.3 5.4-3.3 7.2-6.1 3.8-5.8 14.8-13.3 22.3-10.4 3.7 1.3 4.5 3.4 4 5.8z" fill="#808285"/><path d="m24.3 108.2c-.1.9-.3 1.7-.7 2.5-1.2 2.5-3.8 4.1-4.8 6.6-.9 2.1-.6 4.6.4 6.7 2.2 4.8 5.4 9.4 10.5 5.4 3.5-2.8 4.6-7.2 5-11.6.3-3.5-.3-7.1-2.2-10-.5-.8-1.1-1.5-1.8-2.2-2.4-2.3-6.1-.6-6.4 2.6z" fill="#37dae2"/><path d="m116.9 10c-4.1-1.1-8.5-.7-12.2 1.9-3.6 2.5-6 6.5-9 9.6s-6.4 5.5-10.6 6.6c-2.5.7-5.5.5-7 3-1.3 2.2-.5 5.4.1 7.9-3.4-4.4-7.1-10.8-6.3-15.3.1-.5.2-.9.3-1.3 1.7-1.5 3.6-2.4 5.6-3 1.8.3 3.9 1.1 5.7 1.3 3.3.3 5.4-3.3 7.2-6.1 3.8-5.8 14.8-13.3 22.3-10.4 3.6 1.3 4.4 3.4 3.9 5.8z" fill="#939496"/><path d="m75.7 31.3c-15.8 14.2-29.2 30.8-45.2 44.8-.3-1.6-.2-3.4.7-5.3 1.3-3.1 3.6-5.7 5.9-8.2 13.1-14.3 20.3-22.3 34.9-35z" fill="#7df3ff"/><path d="m89.5 50.9c-8.5 11.1-15 17.5-24.9 28.2-4.7 5-10.2 10.5-17.1 10.4-1.8 0-3.6-.4-5.3.1-2.2.7-3.7 2.7-5.1 4.6-.3.5-.7.9-1.1 1.4-1.8.8-3.5 1.7-5.1 3.1-6.9.9-1.9-7.8-.3-10.1.5-.7.9-1.4 1.1-2 7.2-3.1 15.4-4.1 21.8-8.9 10.9-8.1 19.8-18.9 26.6-30.6 3.2-5.1 10.7-1.2 9.4 3.8z" fill="#37dae2"/><g fill="#202020"><path d="m26.6 99.5c.5.5 1.1.8 1.7 1 6.6 1.7 10-5.1 12-7.3.7-.8 1.4-1.3 2.1-1.6s1.5-.3 2.5-.2c.9 0 2 .2 3.1.1.6 0 1.1 0 1.6-.1s1.1-.2 1.6-.3c2.1-.5 3.9-1.4 5.5-2.4 7-4.4 25.7-26.1 31-33.4 1.3-1.8 2.2-3.2 2.8-4.2.7.2 1.3.5 2 .7 9.8 2.8 15.9-4.3 13.1-12.3-.6-1.8-1.4-3.1-1.9-4.2-.9-2.1-.8-4-.4-5.4.4-1.5 1-2.6 1.5-3.4s.8-1.4 1.1-1.8c.4-.9.3-1.1.1-1.3s-.4-.3-1.3.2c-.4.3-1 .8-1.7 1.6s-1.6 1.9-2.4 3.8c-.7 1.8-1.2 4.6 0 7.6.5 1.4 1.2 2.7 1.6 4 1.6 5.4-2.1 9.3-8.7 7.3-8.7-2.4-16.5-11.7-19.3-19.6-.3-1-.6-2-.6-2.9-.7-6.3 4.7-3.8 8.1-3.1 5.7 1.1 7.2-2.3 10.5-7 3.4-5 11.2-10.4 17.4-10.4.5 0 1 .1 1.5.1.5.1.9.2 1.4.4.9.4 1.8.8 2.3 1.4 3.8 3.7-5 12-7.1 14.4-1.2 1.3-1.8 2.2-1.7 2.3s.9-.5 2.3-1.7c.7-.6 1.5-1.3 2.5-2.1 4.5-3.9 9.6-10.1 5.7-14.4-.9-1-2-1.6-3.1-2.1-.6-.2-1.2-.4-1.8-.6-.6-.1-1.3-.2-1.9-.2-7.2-.3-16 5.3-20.2 11-2.8 3.9-3.6 6.2-6.9 5.4-1.1-.2-2.3-.6-3.7-1-.7-.2-1.4-.3-2.1-.4-.4 0-.8 0-1.2 0-3.5.6-4.9 2.7-5.6 6.1-.1.8-.2 1.5-.1 2.2 0 1 .2 2 .4 2.9-1.6 1.2-4.4 3.5-8.1 6.7-10 8.8-17.9 17.4-27.1 27.1-2 2.2-4.2 4.7-5.6 7.7-.7 1.6-1.1 3.5-1 5.2.1 1.8.6 3.4 1 4.8s.8 2.8.7 3.9c0 1.2-.4 2.2-1.1 3.2-.1.1-.1.2-.3.4-.8 1.4-3.3 4.7-3.6 8.4 0 .5 0 1.1.2 1.7.4.7.8 1.3 1.2 1.8zm5.9-10.3c1-1.4 1.6-3.4 1.6-5.2 0-1.9-.5-3.5-1-4.9-.5-1.5-.9-2.8-1-4-.1-1.3.1-2.5.6-3.6 1.1-2.5 2.9-4.8 4.8-7 8.1-9.1 16.9-19.2 25.9-28.1 3.2-3.2 5.8-5.7 7.2-7.2 0 .1.1.3.1.4.8 2.4 1.9 4.5 3 6.4 3.7 6.2 8.4 11.2 14.8 14.3-.8.9-1.7 1.9-2.9 3.3-4.5 5.3-25 28.1-30.9 31.7-1.4.8-2.8 1.5-4.4 1.9-.4.1-.8.2-1.2.2-.4.1-.8.1-1.2.1-.8.1-1.7-.1-2.8-.1-1.2-.1-2.6-.1-4.2.5-1.5.6-2.7 1.6-3.6 2.6-1.8 1.9-2.9 4.3-4.7 5.5-.8.6-2.2.9-3.3.7h-.1c0-.1-.1-.2 0-.4.2-2.1 2.2-5.3 3.3-7.1z"/><path d="m20.4 129.5c3.3 4.3 7.5 4.1 11.5.4 5.2-4.9 6.9-17.2 1.6-24-.3-.4-.6-.8-.9-1.1s-.6-.6-1.1-1c-.9-.7-1.9-1-2.8-1.1s-1.7.1-2.3.4c-.7.3-1.2.6-1.6 1-.8.8-1.1 1.5-1.3 2.1-.1.6-.1 1 0 1.3.2.5.4.6.7.6s.6 0 .8-.3c.3-.3.6-.9 1.5-1.4.4-.2 1.1-.4 1.7-.3.3.1.6.2.9.5.1.1.4.4.6.6.2.3.4.5.6.8 3.8 5.4 2.3 15.3-1.3 19-2.5 2.6-4.3 2.4-6.1.2-2.1-2.4-4.7-7.1-2.8-10.4.8-1.5 2.1-2.7 2.9-4 .9-1.3 1.3-2.6 1.3-3.4.1-.9-.1-1.3-.2-1.3-.3-.1-.5 1.8-2.4 3.8-.9 1-2.3 2-3.6 3.8-2.7 4.2-.7 9.9 2.3 13.8z"/></g></g></svg>