<svg id="Layer_1" enable-background="new 0 0 135 135" height="512" viewBox="0 0 135 135" width="512" xmlns="http://www.w3.org/2000/svg"><g><path d="m130.6 64.1c-.1 1.8-.2 3.6-.3 5.4-.5 8.3-1 16.6-1.5 25-.6 9.2 2.7 23-8.2 24.4-25 3.2-51.2 5-76.8 3.1-8.7-.6-17.4-1.7-26-3.2-2-.3-3.9-.7-5.8-1.1-1.5-.3-3-.7-4.1-1.6-1.8-1.6-2.1-4.2-2.2-6.6 0-.6-.1-1.2-.1-1.8-.5-9.3-.8-18.6-.8-28-.1-8.7-1.4-19.7.7-28.3 3.1-12.4 17.8-9.6 27.7-10 2.5-.1 5.1-.2 7.6-.2 14.7-.2 29.2.7 43.8 1.5 8.9.5 17.8.8 26.6.8 4.1 0 8.3-.1 12 1.5 3.4 1.4 5.3 3.7 6.3 6.4 1.6 3.7 1.4 8.4 1.1 12.7z" fill="#fde4cb"/><path d="m52.6 41.6c-.6-3.4-.9-7.6 2-9.4 1.4-.9 3.1-.9 4.7-.9 6.6 0 13.3.1 19.9.2 2.8 0 6 .2 8 2.2 2.5 2.6 1.9 6.8 1.1 10.3" fill="#c49a6c"/><path d="m61 30c0-2.4.2-4.9 0-7.2-.2-2-.4-3.8.6-5.7.8-1.4 2.2-2.4 3.7-3.1.8-.4 1.6-.7 2.5-.9 6.6-1.7 11.3 3.8 12.4 9.7.6 3.3-.1 6.6-1 9.8" fill="#d1d3d4"/><path d="m111.7 74.1c-.2 3.7-2.2 6.9-6.1 9-3.8 2.1-8.8 1.5-12.2-1.1-2-1.5-3.4-3.7-4.1-6-2.1-6.8 1.2-15.3 9.4-15.9 3-.2 6 1 8.3 3 1.3 1.1 2.3 2.5 3.1 4 1.2 2.4 1.7 4.8 1.6 7z" fill="#fff"/><path d="m128.9 51.3c0 1.3-1.2 2.3-3.4 2.2-26.8-.9-54-1.7-80.7.8-10.8.9-28.1 1.8-31.8 14-1.4 4.8-2.3 9.8-2.6 14.8-.3 4.7.1 9.4-.3 14.1-.2 3.1-1.1 6.2-2.8 8.7-.4.6-1.1 1.4-1.8 1.8-.5-9.3-.8-18.6-.8-28 0-8.7-1.3-19.7.8-28.3 2.1-8.7 10.9-10 18.6-10.1 6.7-.1 13.4.2 20 .3 6.5.1 13-.3 19.5.3 13.6 1.2 27.4 1.5 41.1.7 4.6-.3 9.1 0 13.7.3 3.8.2 7 2.7 9.4 5.6.7 1.1 1.1 2 1.1 2.8z" fill="#fcecde"/><path d="m120.5 118.9c-25 3.2-51.2 5-76.8 3.1-8.7-.6-17.4-1.7-26-3.2.2-2.3 1.8-4.5 4.8-4.4 22 1 44.6 3.6 66.6 1.8 9.7-.8 22.9-2.9 29.3-11.2 6.5-8.5 5-20.9 6.1-30.8.3-3.3 3.2-4.9 5.8-4.8-.5 8.3-1 16.6-1.5 25-.7 9.3 2.6 23.1-8.3 24.5z" fill="#f4d5ba"/><path d="m119.1 104.3c-3.7 2-8 2.5-12.2 2.8-7.5.5-15.7.6-23.1-1-3.5-.8-3.5-3-2.2-5.4 1.1-2.2 3.3-4.4 4.7-5.8 3.5-3.3 8.2-5.4 13.1-5.4 5.7-.1 11.3 2.8 15 7.2 1.4 1.7 2.5 3.6 3.3 5.7z" fill="#fff"/><path d="m119.1 104.3c-3.7 2-8 2.5-12.2 2.8-7.5.5-15.7.6-23.1-1-3.5-.8-3.5-3-2.2-5.4 5.6.7 11.1 1.3 16.8 1.3 3.7 0 15.8.2 16-5.3 1.4 1.7 2.5 3.6 3.3 5.7z" fill="#efefef"/><path d="m111.7 74.1c-.2 3.7-2.2 6.9-6.1 9-3.8 2.1-8.8 1.5-12.2-1.1-2-1.5-3.4-3.7-4.1-6 .5.1 1.1.2 1.6.5 3.7 1.7 8.8 2.8 12.2-.1 3.2-2.7 4.1-8.3 3.8-12.2 0-.4 0-.7 0-1.1 1.3 1.1 2.3 2.5 3.1 4 1.3 2.4 1.8 4.8 1.7 7z" fill="#efefef"/><g fill="#202020"><path d="m132.2 54.1c-1.1-6.5-5-10.3-10.8-11.8-3.6-.9-7-.8-10.3-.8-7.1 0-14-.2-20.8-.6.1-.6.3-1.3.3-2.1.1-1.1.1-2.5-.6-4.3-.3-.8-.9-1.7-1.7-2.5s-1.8-1.4-2.9-1.8c-1.3-.5-2.6-.7-3.9-.8.4-1.1.7-2.6.7-4.8 0-1.4-.2-3.1-.8-5-2.1-6.1-8.3-8.7-13.8-8.3-1.9.1-4 .8-5.6 2.2-3.7 3.1-3.1 6.9-1.6 13.9.2.9.4 1.6.6 2.2-.4 0-.7 0-1.1 0-.9 0-1.9.1-2.9.2s-2.1.4-3 1-1.6 1.4-2 2.3c-.8 1.7-.8 3.3-.6 4.6.1.5.1.9.2 1.4-3.5-.1-6.9-.1-10.2-.1-.1 0-22.4.4-24.9.8-2 .4-4.1.9-6 1.9s-3.6 2.4-4.8 4.2c-1.2 1.7-1.9 3.7-2.3 5.6-.4 1.8-.6 3.6-.8 5.3-.3 3.9 0 33.3 1.1 52 .1 1 .1 2 .3 3.1.2 1 .4 2.1.9 3.2.5 1 1.3 2 2.3 2.7 4.3 2.9 27.7 4.9 33.7 4.9 2.5 0 2.7-.3 2.7-.6s-.1-.6-2.6-1c-1.5-.3-29.3-4.1-31.9-6.1-.9-.6-1.5-1.9-1.7-3.6s-.2-3.8-.4-5.8c-.5-13.3-.8-44.5-.4-48.4.2-1.6.4-3.2.8-4.8.3-1.6.9-3 1.7-4.2 1.6-2.4 4.7-3.8 8.2-4.4 2-.3 24.1-.7 24.2-.7 22.3-.3 46.4 2.3 69.7 2.1 3.3 0 6.5-.1 9.3.6 6.8 1.6 8.6 6.5 8.5 13.5 0 3.2-.3 6.6-.5 9.9-2.2 38.7-.9 33.1-1.4 39.1-.2 3-1 5.9-2.9 7.5-.9.8-2.2 1.3-3.5 1.6-.6.1-1.5.2-2.2.3-16 2.1-32 3.7-48.2 4.1-8.3.3-15 .2-19.6.1s-7.2-.2-7.2 0c0 .1.6.2 1.8.3s3 .3 5.3.5c4.6.4 11.3.7 19.6.7 16.1 0 32.5-1.2 48.5-3.1.8-.1 1.4-.1 2.3-.3 1.7-.3 3.4-.9 4.8-2.1s2.4-2.8 3-4.4c.2-.7 2.9-43.4 2.9-44.1.2-3.3.5-6.6.6-10.1.2-1.6.2-3.4-.1-5.2zm-70.2-26.7c.1-6.6-1.3-12.1 5.9-12.1 5.7-.1 10.1 3.1 10.6 9.6.1 2 0 3.5-.1 4.5h-.1c-5.8-.1-11.5.1-15.6.2-.3 0-.6 0-.8 0 .1-.5.1-1.3.1-2.2zm-9.1 11.8c0-.4 0-.9.1-1.4.1-1.1.4-2.4 1-3.4.7-1 1.8-1.5 3.3-1.6.8 0 1.6 0 2.6.1 5.7.3 12.6.6 18.4.6 2.5 0 4.4.1 5.8.6s2.1 1.2 2.5 2.1.6 1.9.7 2.7c.1.7.1 1.4.1 1.9-11.2-.5-22.8-1.3-34.5-1.6z"/><path d="m52.2 73.1c20.2 0 20.6-.9 20.6-2s-.4-2-20.6-2c-44.1-.1-48.6 4 0 4z"/><path d="m52.2 84.8c20.2 0 20.6-.9 20.6-2s-.4-2-20.6-2c-11 0-34.7.9-34.7 2s23.7 2 34.7 2z"/><path d="m72.8 94.5c0-1.1-.4-2-20.6-2-11 0-34.7.9-34.7 2s23.7 2 34.7 2c20.2.1 20.6-.8 20.6-2z"/><path d="m82.4 107.3c4.4 2.1 17.6 1.8 25.1 1 7.6-.8 13-3.3 12.5-4-.1-.1-26.1 5.1-35.9-.3-.2-.1-.3-.2-.4-.3s-.1-.1-.1-.2c-.6-2.4 7.7-12.7 18.1-11.9 2.8.2 5.1 1.1 6.9 2 6.3 3.4 8 7.9 9.1 8.8.6.5.8.3 1 .1s.3-.4.3-.9c0-.3-.1-.6-.2-1.2-.1-.3-.2-.7-.4-1.1-1.5-3.7-4.6-6.8-8.1-8.9-2.2-1.3-5-2.4-8.4-2.7-10.1-1-19.4 6.9-21.8 13.5-.3.9-.6 2-.3 3.3.4 1.3 1.6 2.4 2.6 2.8z"/><path d="m93.6 84.6c1.5.9 3.1 1.3 4.6 1.6 3 .4 5.7-.1 7.8-1.2 3.9-2.1 5.6-4.9 6.2-6.8s.4-3 .2-3.5-.5-.6-.7-.6-.6 0-.8.4c-.3.4-.6 1.2-1.3 2.6-.4.7-.9 1.4-1.7 2.2s-2 1.7-3.5 2.3c-1.4.6-3.3 1-5.5.6-2.1-.4-4.5-1.5-6.1-3.8-.9-1.2-1.7-2.9-1.9-4.9-.3-1.9-.2-4.1.6-6.2.8-2 2.2-3.8 4.1-4.8.9-.5 2-.8 3.1-.9s2.2-.1 3.2.2c2.1.5 4 1.6 5.4 3s2.3 2.9 2.9 4.3c1.3 2.8 1.3 4.8 1.6 4.8.1 0 .3-.5.4-1.4s0-2.3-.5-3.9-1.3-3.6-2.8-5.3c-1.5-1.8-3.6-3.4-6.3-4.2-1.3-.4-2.8-.6-4.2-.5s-2.9.4-4.3 1c-2.8 1.3-5 3.7-6.1 6.4-2.3 5.4-1.1 11.3 1.5 14.8 1.1 1.7 2.6 3 4.1 3.8z"/></g></g></svg>