<svg id="Layer_1" enable-background="new 0 0 135 135" height="512" viewBox="0 0 135 135" width="512" xmlns="http://www.w3.org/2000/svg"><g><path d="m100.1 108.4c-.2 1.7-.5 3.2-1.1 4.7-4.5 12.1-20.8 16.9-33.7 17.1-1.9 0-3.7 0-5.5-.2-1.4-.1-2.8-.3-4.2-.6-4.3-.8-8.5-2.3-12.1-4.8-8-5.7-8.1-15-9-23.8-1.2-12.5-.8-25.6-.7-38.1 0-4.1-.8-14.4 2.9-17.3 2.5-2 9.9-.2 13.1-.1 13.1.3 26.2 1.7 39.3 0 2.5-.3 4.5-.3 6.1.2 7.8 2.1 6.7 12.1 6.8 21 .2 13.9-.5 27.9-1.9 41.9z" fill="#00d4a0"/><path d="m97.2 46-57.8-1.1c-.1-.5-.2-.9-.3-1.4-1.6-8.3-2.2-17.5 1.2-24.7 1.7-3.7 4.5-6.8 8.7-9.1 1.4-.8 3-1.5 4.6-2 .1 0 .1 0 .2-.1 8.1-3 17.7-3.5 25.8-1.4 6.5 1.7 11.7 3.5 15 8.4 1 1.4 1.7 3.1 2.3 5.1 2.4 8.5 2.6 17.7.3 26.3z" fill="#e6e7e8"/><path d="m55.6 80.5c0-11.2-.2-22.3-.2-33.5 0-.5 0-1.1-.4-1.5-.4-.5-1.1-.6-1.7-.6-4.9-.5-14.6-3.5-18.3 1.1-1 1.3-1.2 3.1-1.2 4.7-.3 7.4.4 14.5.3 21.8-.2 7.9 1.4 15.9 1.2 23.8-.2 7.3-.4 14.3 3.1 21.1 2.3 4.4 7.4 9.7 12.7 10.1 6 .5 3.5-9.8 3.7-13.6.2-4.5.4-9.1.5-13.6.3-6.6.3-13.2.3-19.8z" fill="#17ffbd"/><path d="m100.1 108.4c-.2 1.7-.5 3.2-1.1 4.7-4.2 7.5-11.7 12.1-19.9 14.6-4.4 1.3-8.9 2-13.5 2.4-.1 0-.2 0-.3 0-3.3.4-7.6 2.1-9.7-.8-.3-.4-.5-.8-.7-1.3-1.1-3.1-.8-6.9 2.8-7.7 2.6-.6 5.2 0 7.8-.2 5.1-.5 10.2-1.5 15-3.4 7.6-3 11.5-10.1 12.9-17.9 1-5.4.4-11.6.4-17.1 0-5.9-.1-11.9-.3-17.8-.1-3.7-.3-7.5 0-11.2.2-2.2.4-5.2 1.6-7.2 7.8 2.1 6.7 12.1 6.8 21 .3 13.9-.4 27.9-1.8 41.9z" fill="#00c994"/><path d="m94.4 14.6c-1 1.2-2.7 1.9-4.8 1.1-9.2-3.4-21.4-2.6-30.7.6-9.8 3.4-14.1 12.6-14.8 22.4-.2 3.1-2.7 4.8-5.2 4.8-1.6-8.3-2.2-17.5 1.2-24.7 2.8-4.4 6.8-8.1 12-10.5.4-.2.8-.4 1.3-.6.1 0 .1 0 .2-.1 8.1-3 17.7-3.5 25.8-1.4 6.6 1.7 11.8 3.5 15 8.4z" fill="#fff"/><g fill="#202020"><path d="m103.1 55.8c-.2-2.2-.5-4.5-1.6-6.8-.5-1.1-1.3-2.2-2.3-3.1-.3-.3-.6-.5-1-.7 2.8-5 3.6-20.5-1-29.9-2.6-5.2-6.8-7.9-12.3-9.7-12.9-4.3-25-3.1-35 1.7-7.7 3.8-12.3 10.1-13 19.9-.3 3.6 0 6.7.4 9.3.4 2.5.8 4.5 1.2 6h-.1c-5.6 1.2-6.3 7.4-6.5 13.6 0 .1-.4 33.6.7 45.6.3 2.9.5 5.8 1 8.6 1.8 10.9 7.4 17.7 20.6 20.5 15.9 3.3 39.9-1.6 45.5-16.5.7-1.9.9-3.2 1-4.2.1-1.8-.2-2-.5-2s-.5.1-1.1 1.7c-.3.8-.7 2-1.5 3.6-2.9 5.7-8.4 9.3-14.4 11.5-7.8 2.9-18.2 4.1-27.8 2.2 1-8.1 1.8-35.6 1.9-49.6.2-24.4-.4-29.4-1.2-30.5 3.7.1 7.3.3 11 .5 4.8.2 9.6.2 14.4-.1 2.4-.2 4.8-.4 7.1-.7 1.2-.2 2.2-.3 3.3-.3s2.1.1 3 .3c1.9.5 3.3 1.6 4.2 3.4.9 1.7 1.2 3.8 1.4 5.8.4 4.6.8 23.4-.3 47.1-.2 3.3-.2 5.2-.1 5.2s.5-1.8.9-5.1c2.3-17.9 2.4-42.2 2.1-47.3zm-49.8 21.8c-.1 13.9.3 41.1 1.1 49.4-1.8-.4-3.5-.9-5.3-1.7-7-3-10.3-7.5-11.6-15.6-.4-2.6-.7-5.4-.9-8.3-1.2-13-.9-45.1-.9-45.2 0-2.2.2-4.4.6-6.4.2-1 .6-1.9 1-2.6.5-.7.7-.8 1.6-1.1 1.5-.3 13.6.7 13.8.7.7 0 1.5.1 2.2.1-.8 1.2-1.4 6-1.6 30.7zm35-33.8c-2.3.3-4.6.4-6.9.5-4.6.2-9.4.1-14.1-.1-4.8-.3-9.6-.5-14.4-.8-7.6-.4-10-1.3-13.6-1-.1-1.4-.3-3.5-.5-6-.1-2.6-.2-5.6.3-9 1-7.2 4.3-13.3 10.9-16.5l1.4-.6c9.2-4.1 20.2-4.9 32.3-.9 5.8 1.9 8.3 4.4 10 7.7 4.9 9.5 3 25 3 27.2-.3-.1-.6-.2-.9-.3-2.6-.6-5.2-.4-7.5-.2z"/><path d="m85.9 15.2c-1.6-1.2-3.4-1.7-4.7-1.7s-2 .4-2 .6c0 .3.7.5 1.7.9s2.2 1.2 3.2 2.4c3.5 3.9 3.4 8.6 3.4 13.5 0 1.3 0 2.3.1 2.9.2 1.3.7 1.4 1.3 1.5s1.1.1 1.6-1.1c2.1-5.1 1.5-14.7-4.6-19z"/></g></g></svg>