<svg id="Layer_1" enable-background="new 0 0 135 135" height="512" viewBox="0 0 135 135" width="512" xmlns="http://www.w3.org/2000/svg"><g><path d="m93 43.8-41-4.3-4.8-.5c-3.2-4.1-.8-10.3 3.6-13.2s10-3.3 15.4-3.5h1c3.2-.1 6.4-.1 9.5.6 9.6 2.1 16.9 11.5 16.3 20.9z" fill="#fcff00"/><path d="m110.9 74.1c-.9 13.6 1.3 26.4-2.4 40-1.6 5.8-4.1 11.8-9.4 15.1-4.9 3-11 3-16.8 2.8-6.6-.2-13.1-.7-19.6-1.2-3.1-.3-6.2-.6-9.3-1-5.5-.6-11.4-1.5-16.1-4.1-1.5-.8-2.8-1.8-4-2.9-.9-.9-1.8-1.9-2.5-2.9-3.3-4.9-4.2-11.2-4.6-17.1-1.3-16.2-6.6-49.3 10-58.9 9.2-5.3 20.1-6.1 30.9-5.8 5.6.1 11.2.5 16.6.6h1.7c2 0 4.1 0 6 .3 1 .1 2.1.3 3.1.6 6 1.6 10.6 6.2 13.3 11.5.5.9.8 1.8 1.2 2.7 1 2.6 1.5 5.2 1.8 7.9.5 4.1.4 8.3.1 12.4z" fill="#fff200"/><path d="m57.8 21.1c1.2-6 4.6-11.6 9.6-15.6 1-.8 2.3-1.6 3.6-1.4s2.2 1.2 2.9 2.2c2.9 4 6.1 11.8 6.4 16.7" fill="#e6e7e8"/><path d="m88.1 94.6c-4.6 5.7-19.9 7.2-29.7 4.7-1.7-.4-3.3-1-4.6-1.7-9.8-5.3-4.2-20-1.8-26.6.3-.8.6-1.5 1.4-2.1s1.9-.9 3.1-1.2c7.6-1.8 16-1.4 24.1-.7 2.6.2 5.4.5 7.2 1.7 1.6 1 2.6 2.9 3.3 5.3 1.6 6.7-.1 17-3 20.6z" fill="#ffcaaa"/><path d="m107.8 51.1c-.3 0-.7 0-1-.1-11.6-2.2-23.4-2.9-35.1-1.9-9.7.7-20.9 1.9-28.5 8.5-16.4 14.3-13.2 39-10.7 58.2.3 2-.6 3.4-1.8 4.1-3.3-4.9-4.2-11.2-4.6-17.1-1.3-16.2-6.6-49.3 10-58.9 9.2-5.3 20.1-6.1 30.9-5.8.1.5.2.9.2 1.4.9-.1 1.7-.2 2.6-.3 4.6-.4 9.2-.6 13.8-.5h1.7c2 0 4 .1 6 .3 1 .1 2.1.3 3.1.6 6 1.6 10.7 6.1 13.4 11.5z" fill="#fff680"/><path d="m67.2 22.3c-.6.9-1.5 1.6-2.8 1.9-5.3 1.4-9.6 5.6-10.3 11.2-.2 1.6-.9 3.1-2.1 4l-4.8-.4c-3.2-4.1-.8-10.3 3.6-13.2s10-3.3 15.4-3.5z" fill="#fff871"/><path d="m110.9 74.1c-.9 13.6 1.3 26.4-2.4 40-1.6 5.8-4.1 11.8-9.4 15.1-4.9 3-11 3-16.8 2.8-6.6-.2-13.1-.7-19.6-1.2-3.1-.3-6.2-.6-9.3-1-5.5-.6-11.4-1.5-16.1-4.1.8-.9 2-1.5 3.7-1.4 16.3 1.3 40.2 8.3 53.4-5.1 6.2-6.3 8.6-15.1 10.1-23.5 1.6-9.6 2.2-19.5 2.3-29.3 0-2.8 2-4.4 4.2-4.8.3 4.2.2 8.4-.1 12.5z" fill="#efdd00"/><path d="m91 74c-9.1-2.3-18.7-5-27.3-1.3-10.2 4.3-12.2 16.5-6.1 25.1.4.5.6 1 .8 1.5-1.7-.4-3.3-1-4.6-1.7-9.8-5.3-4.2-20-1.8-26.6.3-.8.6-1.5 1.4-2.1s1.9-.9 3.1-1.2c7.6-1.8 16-1.4 24.1-.7 2.6.2 5.4.5 7.2 1.7 1.5 1 2.5 2.9 3.2 5.3z" fill="#ffd5bd"/><g fill="#202020"><path d="m112.6 62.9c-.2-2.8-.7-5.6-1.6-8.4-1.9-6.2-5.7-11-10-13.9-2.2-1.5-4.9-2.6-7.5-3.1 0-.4 0-.8.1-1.3-.6-7.4-5.7-11.8-12.6-14.2.1-.4.1-.8.1-1.5-.1-4.5-3.2-12.5-6.1-16-.5-.6-1.1-1.3-2.1-1.8s-2.4-.7-3.5-.4-1.9.9-2.7 1.4c-4.7 3.8-8 10-8.9 15.2-.2 1.1-.3 1.9-.3 2.5-.3.1-.7.1-1 .2-2.4.6-4.8 1.6-6.9 2.9-.5.3-1.1.7-1.6 1.2-.2.2-.5.5-.7.7-.2.3-.4.5-.5.8-.6 1.1-1 2.2-1.2 3.2-.4 2.1-.4 4-.2 5.5.1.7.2 1.3.4 1.9-3.7.9-7.1 2.2-10.1 3.9-11.8 6.6-13.5 22.3-13.4 35.6.1 5.6.5 10.7.9 15.4.5 4.7.9 9.1 1.3 13.1 1.3 11.6 5.2 19.5 16.3 23.1 2.3.7 4.4 1.1 6.3 1.4 3.7.6 6.6.7 8.7.8s3.6.1 4.6.1c2 0 2.2-.3 2.2-.6s-.1-.6-2.1-1c-1-.2-2.4-.5-4.5-.8s-4.9-.7-8.4-1.4c-1.8-.4-3.7-.8-5.8-1.6-14.1-5.2-13.3-17.2-14.7-33.7-.4-4.7-.8-9.7-.8-15.1s.2-11.1 1.6-17c1.1-4.4 2.8-8.8 6-12.1 1.1-1.1 2.3-2 3.7-2.8 3.2-1.8 6.9-3.2 11.1-4 12.8-2.4 43.5-.1 43.6-.1 7.9 1.2 15.7 8.6 17 22.1.3 3.4.4 38.5-1.1 46.5-4.1 21.8-13 22.1-32.8 21.3-2.7-.1-5-.2-6.9-.2-3.8-.1-5.9-.1-5.9 0s2.1.4 5.8.8c1.9.2 4.2.4 6.9.6 19.9 1.7 30.5 1.5 35.4-22.1 1.8-8.3 2.2-43.3 1.9-47.1zm-43.7-56.1c.5-.4 1-.6 1.4-.7.3 0 .5 0 .7.1.5.3 1.2 1.3 1.8 2.1 2.8 4.6 4.1 9 5.5 12.7 0 .1 0 .1.1.2-.5-.1-.9-.3-1.4-.4-1.8-.4-3.9-.6-6.1-.6s-4.5.1-6.9.3c-1.8.1-3.6.4-5.4.7 2.4-5.4 5-10.7 10.3-14.4zm-21 30.6c-.3.1-.6.2-.9.2 0-.5 0-1.1 0-1.7.1-1.4.3-3.1.8-4.8.3-.8.7-1.7 1.2-2.4l.4-.5c.1-.2.3-.3.5-.4.4-.3.6-.5 1.2-.7 1.6-.9 3.5-1.5 5.4-1.9-.2.5-.4 1.1-.6 1.8-.3 1-.5 2.1-.6 3.2s-.1 2.1 0 3c.2 1.4.5 2.5.8 3.3-2.8.1-5.6.4-8.2.9zm14.1-1.3c-.7 0-1.5 0-2.2.1-.1-.8-.3-1.9-.5-3.6-.2-1.3-.4-3.4-.6-5.4-.1-.9-.2-1.7-.4-2.4 1.9-.3 3.8-.5 5.7-.5 1.1 0 2.1-.1 3.2-.1-.2.5-.3 1.1-.4 1.8-.5 2.4-.6 5.3-.4 7.1.1 1.2.3 2.2.5 3-1.6 0-3.3 0-4.9 0zm8.8.1c0-.9-.2-2-.3-3.5-.2-1.7-.5-4.4-.8-6.7-.1-.7-.2-1.3-.3-1.9h1.2c2 .1 3.8.3 5.4.6.6.1 1.2.3 1.7.4 0 .6 0 1.3.1 2.1.1 2.2 0 4.7-.1 6.3-.1 1.2-.2 2.1-.2 2.9-.1 0-.3 0-.4 0-2.2 0-4.2-.1-6.3-.2zm10.6.5c.2-.8.3-1.7.4-2.8.1-1.9-.2-4.8-1.1-7.1-.1-.2-.2-.5-.3-.7 6.2 2.3 9 5.6 10.3 10.5 0 .2.1.3.1.5-2.1-.2-4.1-.2-6.1-.3-1.1 0-2.2-.1-3.3-.1z"/><path d="m72.4 102c15.1-1 18.5-6.8 19.8-15 .6-3.8.6-7.4.1-10.3-.4-2.9-1.4-5.2-2.5-6.5s-2-1.6-2.1-1.5.7.6 1.4 2c.8 1.3 1.4 3.5 1.6 6.2s0 6.1-.8 9.7c-1.6 7.3-4.3 11.5-17.8 12.1-9.5.2-17.6-.1-21.1-8.1-1.5-3.5-2.2-6.9-2-9.8.5-6.8 4.5-11.5 12.7-12.8 1.8-.3 3.6-.4 5.2-.4 3.3 0 6.1.3 8.5.5s4.4.3 5.9.4c3 .1 4.5.4 5.2.5.8.1 1 0 1.1-.3.1-.2.3-.5-.5-1.1-.7-.6-2.4-1.4-5.6-1.9-1.5-.2-3.4-.5-5.8-.9-2.4-.3-5.2-.8-8.8-.9-1.8-.1-3.7 0-5.9.3-9.9 1.3-15.4 7.6-16 16.2-.2 3.7.6 7.8 2.4 11.7 4.5 9.9 14.2 10.7 25 9.9z"/></g></g></svg>