<svg id="Layer_1" enable-background="new 0 0 135 135" height="512" viewBox="0 0 135 135" width="512" xmlns="http://www.w3.org/2000/svg"><g><path d="m56.7 29.1-33.8-4c0-.3-.1-.5-.1-.8-.7-5.1-.6-12.5 2.3-16.4.8-1 1.7-1.8 2.8-2.5 1.1-.6 2.3-1.1 3.5-1.4 2.7-.8 5.7-.9 8.5-.7 3.4.2 6.9.7 10.2 1.5 1.4.3 2.7.7 3.8 1.6 1.4 1.1 2.1 2.8 2.6 4.5.3 1.1.6 2.3.8 3.5.7 4.8.8 10.9-.6 14.7z" fill="#e6e7e8"/><path d="m61.4 94.7c0 7.6 0 15.1-.1 22.7 0 2.7-.1 5.5-1.7 7.8-1.9 2.6-5.3 3.8-8.6 4.5-2.8.7-5.8 1.2-8.7 1.6-1.4.2-2.9.3-4.3.4-2.4.2-4.8.2-7.1.1-2.9-.1-6-.4-8.5-1.8-4.7-2.6-6-8.3-6.7-13.3-.9-6.8-1.5-13.6-1.8-20.4-.6-14.8 0-29.7.9-44.6.3-4.3.5-8.6.8-12.9.6-8.4 4-14.6 13.8-15.3 7.9-.6 25.2.6 29.6 7.2 1.4 2.1 1.6 4.5 1.7 6.9v.7c.5 18.9.7 37.7.7 56.4z" fill="#f7941e"/><path d="m122.3 103.8c.1 3.7-.3 7.4-1 10.8-.1.6-.3 1.2-.4 1.8-1.9 7.6-5.7 9.3-12 9.7-8.8.6-17.7.6-26.5-.1-6.8-.6-6.7-6.9-7.2-13.6-.2-2.6-.3-5.1-.3-7.7 0-4.2.4-8.3 1.1-12.4.5-3.2 1.3-6.3 2.5-9.2.3-.6.5-1.2.8-1.7.1-.2.2-.3.3-.5 3-5.5 8-9.5 13.6-10.8 10.5-2.4 21.3 6.3 26 17.1 2 5.1 3 10.9 3.1 16.6z" fill="#f7941e"/><path d="m61.4 94.7c0 7.6 0 15.1-.1 22.7 0 2.7-.1 5.5-1.7 7.8-1.9 2.6-5.3 3.8-8.6 4.5-2.8.7-5.8 1.2-8.7 1.6-.2-.3-.3-.5-.4-.8-1.1.8-2.4 1.1-3.7 1-.1.1-.1.2-.2.2-2.4.2-4.8.2-7.1.1-2.9-.1-6-.4-8.5-1.8-4.7-2.6-6-8.3-6.7-13.3-.9-6.8-1.5-13.6-1.8-20.4 5.5 2.2 11.4 2.9 17.2 3.2 5.8.4 11.9 1 17.5-.7 1.1-.3 2-.3 2.9 0 2.9-.8 5.8-2 8.6-3.6.4-.2.9-.4 1.3-.5z" fill="#2bb673"/><path d="m122.3 103.8c-14.1 1.9-28.1 3.4-42.4 1.8-1.2-.1-2.4-.3-3.6-.5-.5-.1-1-.2-1.4-.4 0-4.2.4-8.3 1.1-12.4.5-3.2 1.3-6.3 2.5-9.2.3-.6.5-1.2.8-1.7.1-.1.1-.1.2-.2 0-.1 0-.2 0-.3 3-5.5 8-9.5 13.6-10.8 5.7-1.3 11.5.7 16.3 4.4 4.1 3.2 7.5 7.7 9.7 12.6 2.1 5.2 3.1 11 3.2 16.7z" fill="#ffaf57"/><path d="m60.7 37.7c-15.3-5.3-35.3-9.7-40.8 10.5-.7 2.7-2.9 3.7-5.1 3.5.3-4.3.5-8.6.8-12.9.6-8.4 4-14.6 13.8-15.3 7.9-.6 25.2.6 29.6 7.2 1.4 2.1 1.6 4.6 1.7 7z" fill="#ffaf57"/><path d="m13.8 82.2c1.3 1.3 3.1 1.9 4.9 2.2 5.5.9 13.3.1 15.3-5.9.7-2.1.7-4.3.6-6.5 0-2-.1-4-.1-6-.1-3.6-.1-7.2-1.3-10.6s-3.6-6.7-7.2-8.1c-1.7-.7-3.5-.9-5.3-1.2s-3.6-.5-5.4-.8" fill="#fff"/><path d="m109.4 74.6c-14.2 5.1-25 16.3-29.5 31.1-1.2-.1-2.4-.3-3.6-.5-.5-.1-1-.2-1.4-.4 0-4.2.4-8.3 1.1-12.4.5-3.2 1.3-6.3 2.5-9.2.3-.6.5-1.2.8-1.7.1-.1.1-.1.2-.2 0-.1 0-.2 0-.3 3-5.5 8-9.5 13.6-10.8 5.7-1.3 11.4.7 16.3 4.4z" fill="#ffc388"/><path d="m57.3 14.4c-11.3-2.9-27-5.1-32.1 7.3-.5 1.3-1.4 2.1-2.4 2.7-.7-5.1-.6-12.5 2.3-16.4.8-1 1.7-1.8 2.8-2.5 1.1-.6 2.3-1.1 3.5-1.5 2.7-.8 5.7-.9 8.5-.7 3.4.2 6.9.7 10.2 1.5 1.4.3 2.7.7 3.8 1.6 1.4 1.1 2.1 2.8 2.6 4.5.3 1 .6 2.2.8 3.5z" fill="#f5f6f7"/><g fill="#202020"><path d="m13.8 117.4c.3 2.4.8 4.9 1.7 7.2.9 2.4 2.4 4.7 4.6 6.3 6.6 5 24 2.5 31.4.7 1.6-.4 3.3-.9 4.9-1.6s3.2-1.7 4.4-3.2c1.3-1.5 1.9-3.3 2.2-5s.3-3.2.3-4.6c0-5.7 0-10.9.1-15.9 0-13.4-.4-52.5-1.7-64.8-.2-2-.7-3.4-1.1-4.3-.5-.9-.9-1.3-1.1-1.4-.3-.2-.4-.1-.5 0s-.2.2-.2.5.1.7.3 1.5.4 2 .4 3.9 0 4.4-.1 7.8c.1 37.4.1 26.1 0 50.9-.4 0-.9.1-1.4.2-.9.1-1.9.3-3.1.5-2.5.4-5.7.9-10.1 1.2-6.5.4-11.2.7-18.7.1-4.5-.3-8.4-.9-10.4-1-.2-4.1-.3-8.3-.4-12.5.7.4 1.5.9 2.6 1.2 1.5.4 3.3.8 5.4.8 5.5 0 10.5-1.8 12.4-7 .6-1.8 3.1-21.1-3-28.9-3.6-4.7-7.9-5.4-13.7-5.6-1.1 0-1.8 0-2.4.1.5-8.3.3-16.5 9.2-19.1 1.7-.5 3.5-.7 5.2-.8 3.5-.2 6.8-.1 9.8.2 6 .5 10.8 1.7 13.8 3.2.7.3 1.3.7 1.8 1 0 .1 0 .2.1.3 0 0 .1 0 .2-.1.4.3.8.6 1.1.9.6.6 1 .9 1 .9s-.2-.4-.7-1.2c-.3-.3-.7-.7-1.1-1.1.4-.8 1-2.2 1.3-4.3 1.6-9.5.9-18.9-8.4-21.3-16.3-4.4-29.7-2-29.1 15.2.1 1.4.2 2.5.3 3.3.3 1.5.6 2.4.8 2.9-.8.4-1.6.9-2.3 1.5-6.1 5.2-5.5 14.4-6.3 25.7-1.3 18.6-2.2 39.2-.3 58.5.2 2.4.6 4.8.8 7.2zm10.2-95.9c.7-10.7.9-18.6 21.7-15.7 1.2.2 2.4.4 3.6.6 3.6.7 4.9 1.3 6.1 6 1.2 4.4 1.5 8.7 1.5 11.7 0 1.8-.2 3.1-.3 4-.4-.3-.9-.7-1.5-1-6.3-3.6-16.9-4.7-24.1-4.6-1.8 0-3.8.2-5.7.7-.5.1-1 .3-1.5.5.1-.5.1-1.2.2-2.2zm31.6 78.2c1.3-.3 2.3-.6 3.2-.9.2-.1.4-.1.6-.2v2.7c-.2 18.3.2 20.7-1.7 22.9-.6.7-1.3 1.2-2.2 1.7.1-.3.2-.6.3-.9 2.8-8.2-.2-17.9-4.6-24.5 1.7-.2 3.2-.5 4.4-.8zm-10.5 1.6c1.6-.1 3.1-.3 4.5-.5.3 1.4.9 3.3 1.5 5.4 1.7 6.3 2.4 11.6 1.1 17.9-.1.8-.3 1.4-.4 1.9s-.2 1-.3 1.3v.1c-.3.1-.6.2-.9.2-2.6.6-5.4 1.2-8.4 1.5.1-1.8.1-4.8-.3-10.3-.3-4.6-1.4-12.7-2.4-17.4 2.1.1 4 0 5.6-.1zm-9.1.1c.5 0 1.1 0 1.6.1-.3 4.8-.1 13.1.3 17.8.4 5.5.9 8.6 1.3 10.3-1.7.1-3.5.2-5.3.3-1.4 0-2.8 0-4.2-.1-.2-.7-.5-1.6-.8-2.7-.5-1.6-1.1-3.8-1.5-6.8-.2-1.6-.5-3.7-.6-6-.1-2.2 0-4.6.2-6.8s.6-4.1.9-5.6c.1-.5.2-.9.3-1.2 2.5.3 5.2.6 7.8.7zm-10.3-1.2c.4.1.9.1 1.3.2-.2.2-.4.5-.6.9-.8 1.3-1.7 3.3-2.3 5.6s-1 4.9-1.1 7.4.1 4.8.3 6.6c.5 3.3 1.3 5.7 2 7.4.1.3.3.6.4.9-1.2-.3-2.3-.7-3.2-1.4-1.5-1-2.6-2.7-3.3-4.6-.8-1.9-1.2-4.1-1.6-6.3-.3-2.3-.6-4.7-.9-7-.4-4.1-.8-8.2-1-12.4 2 .8 5.6 1.9 10 2.7zm-9.5-48.2c.1-1.9.2-3.7.3-5.5.5.2 1.1.4 2 .7 4.9 1.3 12 1.6 13.5 11.9.4 2.7 1.1 16.2.4 18.8-1.2 4-5.1 5.4-9.2 5.8-1.9.2-3.6.1-5-.1-1.3-.1-2.2-.4-2.9-.7 0-10.6.4-21 .9-30.9z"/><path d="m73.9 119.9c1.1 5 3.1 6.7 6.7 7.8.5.1.9.2 1.4.2 6.2.5 11.5.6 16.1.5s8.4-.4 11.6-.7c2.9-.3 5.8-1 8.1-2.9 1.9-1.6 2.6-3.3 3-4.5s.6-2.1.6-2.7c.1-1.2-.2-1.3-.4-1.4-.3-.1-.6 0-1.1.9-.3.5-.6 1.2-1.2 2.1s-1.3 2.2-2.7 3.1c-.5.4-1.2.7-2 1 .3-.9.2-2.4-.1-5.9-.1-1.7-.3-4.4-.4-6.7 0-1.1-.1-2.2-.2-3l1.5-.3c14.5-2.9 2.4 8 6 8.7.1 0 .6-1.1 1.1-3.1 1.6-6.6 1.6-14.9-.4-22.3-3.6-13.5-16.4-25.7-29.6-22.3-7.1 1.8-13.5 7.8-16.3 16.4-.9 2.9-1.5 5.7-1.9 8.4-1.6 10.9-.6 23 .2 26.7zm3.9-.8c-.3-1.8-1-8.8-1-13.8 1.6.5 4.7 1.2 8.5 1.9-.4.9-.9 2.4-1.3 4.1-.7 2.8-1 6.3-.8 8.6.1 1.8.4 3.1.7 4.2-.5 0-1-.1-1.5-.1-3-.3-4-2-4.6-4.9zm14.4.5c.2 1.8.5 3.1.8 4.1.1.4.2.7.4 1-1.8 0-3.6-.1-5.6-.2-.1-1.1-.4-2.6-.6-4.8-.2-2-.3-5.2-.4-8 0-1.7-.1-3.3-.3-4.2 2.2.4 4.6.7 7 .9-.4.8-.8 2.1-1.1 3.7-.4 2.5-.5 5.6-.2 7.5zm4.4 5.1c.1-.1.1-.3.1-.6s0-.7-.1-1.2c-.1-.9-.2-2.2-.4-3.8-.2-1.8-.6-4.6-.9-7-.2-1.5-.3-2.8-.6-3.7 2.7.2 5.3.4 7.6.4-.3.7-.6 1.4-.9 2.3-.4 1.3-.7 2.8-.8 4.2s-.1 2.7 0 3.8c.2 1.9.5 3.3.9 4.3.2.5.4.9.5 1.3-2.1 0-3.7 0-5.4 0zm13.2-6.7c.2 3.5.9 5.2 1.4 5.9l.3.3c-.7.1-1.4.2-2.2.2-1.2.1-2.6.1-4 .2.1-1-.3-2.6-.6-5.9-.2-1.8-.4-4.6-.4-7.1 0-1 .1-2 .1-2.8h.4c2.6-.1 4.8-.3 6.6-.5-.3.7-.6 1.5-.8 2.4-.7 2.4-.9 5.4-.8 7.3zm9.6-26.3c3.5 10.9 10 14.9-32.5 12.9-4.4-.2-8.2-.3-10-.2 0-3.2.3-6.7.8-10.3 4.7-32.6 34.1-26.6 41.7-2.4z"/></g></g></svg>