<svg id="Layer_1" enable-background="new 0 0 135 135" height="512" viewBox="0 0 135 135" width="512" xmlns="http://www.w3.org/2000/svg"><g><path d="m110.5 80c-6.3 28.7-36.7 41-61.6 29.8-14.5-6.5-23.3-20-25.4-35.7-.1-1.2-.3-2.3-.3-3.5-1.2-17.8 2.6-39.5 16.2-51.4 11.3-9.8 27.5-13.2 41.8-9.5 4.8 1.3 9.4 3.4 13.5 6.3 14.4 10.3 16.3 37 16.6 53.2.1 3.6 0 7.3-.8 10.8z" fill="#f8ff55"/><path d="m81.2 9.7c-.4 2.1-2 4.1-4.7 4.4-14.2 1.4-26.4 4.9-35.7 16.3-8.9 10.9-12.4 25.2-13.4 39-.2 2.5-1.9 4.1-3.8 4.6-.1-1.2-.3-2.3-.3-3.5-1.3-17.7 2.5-39.4 16.1-51.3 11.3-9.8 27.5-13.2 41.8-9.5z" fill="#ffff8f"/><path d="m129.9 78.2c-.6 2.9-1.5 5.6-2.6 8.1-9.2 20.9-33.8 29-54.4 19.7-6.4-2.9-11.7-7.3-15.5-12.7-4.9-6.7-7.7-15-8.3-23.9 0-.6-.1-1.3-.1-1.9 0-.5 0-1-.1-1.5-.4-15.8 3.4-34.1 15.2-44.4 3.8-3.3 8.1-5.8 12.8-7.6h.1c9.2-3.4 19.5-3.6 28.7-.4 3.4 1.2 6.6 2.8 9.6 5 4 2.9 7 7.2 9.2 12.3.3.6.6 1.3.8 2 4.3 11.3 5.1 25.5 5.3 35.4.1 3.2 0 6.6-.7 9.9z" fill="#55f5ff"/><path d="m78.9 47.5c-19.6 16.4 9.7 45.9 24 22.9 4.2-6.8 3.1-16.6-2.6-22.1s-15.3-5.9-21.4-.8z" fill="#bcbec0"/><path d="m42.2 79.8c.8-2.8-.7-4.8-2.7-5.6.2-.4.3-.9.5-1.3.8-2.5-.1-4.3-2-5.6-2.1-1.6-2.8-4.3-6-3.5-2 .5-3.5 2.2-4.7 4-1.5 2.3-2.5 5-3.6 7.6-2.6 6.1-5.6 11.8-9.5 16.9-3.7 4.8-7.8 9.9-10.3 15.5-.6 1.4-1.2 2.8-1 4.4.2 1.5 1.3 3 2.7 2.9.6 0 1.2-.3 1.7-.6 3.9-1.8 9.2-3.9 12.4.4 1.8 2.3 1.4 5.3 2.9 7.8.9 1.6 2.6 2.7 4.3 2.2 2.3-.6 3.1-2.7 5.6-2.1 2 .5 4.1 2.7 6.1 1.8 4.5-2 4.7-9.3 5.7-13.8.1-.4.1-.8.1-1.2 1.6-7.9 3.3-15.9 4.9-23.8.9-4.9-4-7.7-7.1-6z" fill="#f8ff55"/><path d="m124.5 30.7c-11.3-10.8-31.3-11.5-44.8-5.6-14.3 6.3-27.8 21.1-29 37.1-.1 1.6-.8 2.8-1.8 3.6-.4-15.8 3.4-34.1 15.2-44.4 3.8-3.3 8.1-5.8 12.8-7.6h.1c9-2.9 19.3-1.9 28.7-.4 3.4 1.2 6.6 2.8 9.6 5 4 3 7 7.3 9.2 12.3z" fill="#85fcff"/><path d="m129.9 78.2c-.6 2.9-1.5 5.6-2.6 8.1-4.7 7.1-11.2 13.1-19.6 17.1-11.5 5.4-25 5.4-36.5.1-11.3-5.2-18-15.3-21.9-27-.4-1.1-.7-2.3-.8-3.4-.2-2.8.4-6.5 3.5-7 2.4-.4 4.5 1.2 4.9 3.6 3.8 22.5 28 35.1 48.3 23.8 20.4-11.4 25.2-36.3 19.9-57.5-.3-1.2-.2-2.3.3-3.2 4.3 11.3 5.1 25.5 5.3 35.4 0 3.3-.1 6.7-.8 10z" fill="#42f0f4"/><g fill="#202020"><path d="m104.2 11.8c-4.1-1.2-8.2-1.6-12-1.6-1.7 0-3.4.1-5 .4-1.6-.7-3.2-1.2-4.8-1.6-4.4-1.3-8.7-1.7-12.8-1.7s-7.8.7-11.1 1.4c-6.6 1.7-11.6 4.5-14.6 6.7-.8.6-1.5 1-2 1.5s-1 .9-1.4 1.2c-.7.7-1.1 1.1-1.1 1.1 0 .1.5-.2 1.3-.8.4-.3.9-.6 1.5-1.1.6-.4 1.3-.8 2.1-1.3 3.2-1.9 8.1-4.4 14.6-5.8 3.2-.6 6.9-1.2 10.7-1 3.9.1 8 .6 12.2 1.9.3.1.6.2.9.3-.3.1-.5.1-.8.2-6.2 1.6-10.8 4.2-13.7 6.3-.7.5-1.4 1-1.9 1.4-.5.5-.9.8-1.3 1.2-.7.6-1 1-1 1 0 .1.5-.2 1.2-.7.4-.3.8-.6 1.4-1 .5-.4 1.2-.8 2-1.2 3-1.8 7.5-4.1 13.6-5.4 3-.6 6.4-1 10-.9s7.5.7 11.3 1.9c18.6 5.8 25.4 24.8 26.8 44.1.7 9.8-.7 20-5.1 28.5-4.3 8.5-11.5 15-19.4 18.1-7.8 3.1-16 3.4-22.8 2.1-15.2-2.8-27.3-13.7-31.1-31.2-.9-4.1-1.1-8.1-1.1-11.8-.1-7.4.7-13.6 1.9-18.6 2.2-9.8 5.1-14.6 10.5-22 1.1-1.4 1.1-1.7.9-2-.2-.2-.5-.3-2 .8-11 8.8-15 27.3-15.1 41.8 0 4.5.3 9.8 1.7 15.3-.3 1-.7 2.7-1.1 5.2-1.2 6.5-2.5 16.2-3.3 22.1-.3 2.2-.6 4.6-1.1 7s-1.1 5-2.3 7.3c-.3.6-.6 1.1-1 1.7s-.8 1-1 1.1c-.2 0-.1.1-.4 0s-.9-.5-1.4-1.1c-.6-.6-1.3-1.3-2.4-2-.5-.4-1.1-.7-1.9-.9s-1.8-.3-2.6 0c-.9.3-1.5.7-2 1.1s-.9.8-1.3 1.1-.7.6-.9.7-.3.1-.4.1c-.2 0-.8-.4-1.2-1.2-.4-.7-.7-1.6-.9-2.8-.3-1.1-.5-2.5-1.3-3.9-.7-1.4-1.8-2.6-3-3.5-1.3-.9-2.8-1.4-4.4-1.6-.8 0-1.6 0-2.4.2s-1.6.5-2.3.9c-1.3.8-2.2 1.6-3.1 2.1-.4.2-.8.4-1.1.4-.2 0-.5 0-.6-.2-.4-.2-.8-1.2-.8-2.1s.3-1.8.9-2.8c.5-.9 1.3-1.9 2.1-2.9s1.5-2 2.2-3c5.7-7.9 10-15.7 12.6-21.5 1.8-4.1 2.8-7.2 3.2-8.7 0 0 .1-.1.1-.1 0-.1 0-.1 0-.2.1-.5.1-.7 0-.7 0 0-.1 0-.1.1-.2-2.2-.3-4.4-.3-6.4-.1-7.9.8-14.6 2.1-19.9 1.3-5.4 2.9-9.6 4.4-12.8 3.2-6.5 5.8-9.2 7-10.7s1.2-1.8 1-2-.5-.3-2.1.9c-1.6 1.3-4.8 3.9-8.5 10.6-5.6 10.1-7.7 22.6-7.7 34.1 0 2.1.1 4.2.2 6.4.2 2 .4 4 .8 6.1-.5.9-1 1.9-1.5 2.9-3 5.5-7.6 12.9-13.5 20.5-.7.9-1.5 1.9-2.3 2.8-.7.9-1.6 1.9-2.4 3.1-.4.6-.7 1.3-1 2s-.5 1.6-.5 2.4.1 1.6.4 2.5c.3.8.8 1.7 1.6 2.3.8.7 1.9 1 2.9.9s1.8-.4 2.5-.8c1.3-.7 2.4-1.5 3.3-2.1.8-.5 1.7-.6 2.6-.6.9.1 1.8.4 2.6 1 .8.5 1.4 1.3 1.8 2.1s.6 1.9.9 3.1.5 2.5 1.3 3.9c.4.7.8 1.3 1.5 1.8.6.6 1.4 1.1 2.5 1.3 1 .2 2.1 0 2.9-.4s1.3-.8 1.8-1.2c.9-.8 1.6-1.3 1.8-1.4h.4c.2.1.4.2.7.4.6.4 1.2 1 2 1.7.7.6 1.4 1.2 2.6 1.8.1.1.3.1.4.2l.5.1c.3.1.7.1 1.1.1.7 0 1.5-.3 2.1-.6 1.2-.7 1.7-1.6 2.2-2.2.5-.7.9-1.4 1.3-2.2 1.5-2.9 2.1-5.8 2.6-8.4.2-1 .3-2 .5-3 3.5 1.6 7.2 2.9 11.2 3.7 7.9 1.6 17.6 1.2 26.9-2.6.5-.2 1.1-.5 1.6-.7 6.3.4 13.3-.4 20.1-3.3 8.7-3.5 16.6-10.8 21.2-20.1 2.3-4.6 3.8-9.7 4.6-14.8.8-5.2.9-10.4.5-15.6-2.1-20.8-10-40.6-29.9-46.3zm-56 95.3c.7-6 1.8-15.8 2.3-22.3 5.3 13.6 15.9 22.3 28.8 25.6-10.1 2.6-21.3 1.7-31.1-3.3z"/><path d="m82.8 78.9c1.8.9 3.9 1.5 5.9 1.7 2.1.2 4.2-.1 6.2-.8 5.7-1.8 11.4-8.4 12.5-16.3.5-5.4-.9-10.1-3.2-13.6-4.9-7.2-14.2-9.4-21.2-6.3-.3.1-.6.3-.9.4-.3.2-.5.3-.7.4-.5.3-.8.5-1.1.8-.6.5-1 .9-1.2 1.2-.4.6-.3.9-.1 1.1s.4.4 1.1.2c.3-.1.8-.3 1.4-.5.3-.1.7-.3 1.1-.4.2-.1.4-.2.7-.2.2-.1.5-.1.8-.2 6.3-1.7 13.2.2 16.9 5.8 1.8 2.7 2.9 6.6 2.5 10.9-.8 6.5-5.5 11.7-9.7 13.3-1.5.5-3 .8-4.6.8-1.6-.1-3.2-.5-4.8-1.2-7.8-3.2-14.1-14.1-8.6-23.7.3-.4.5-.8.7-1.2.5-.7 1-1.4 1.4-1.8.8-1 1.3-1.5 1.2-1.6s-.7.3-1.8 1.1c-.5.4-1.1 1-1.8 1.7-.3.3-.6.8-1 1.2-3.3 4.3-4 9.9-2.5 14.7 1.1 4.5 5.6 10.1 10.8 12.5z"/></g></g></svg>