<svg id="Layer_1" enable-background="new 0 0 135 135" height="512" viewBox="0 0 135 135" width="512" xmlns="http://www.w3.org/2000/svg"><g><path d="m97.8 36.1c-1.6 4.4-9.4 10.9-12.3 15.5-3 4.9-6.1 9.9-8.6 15.1-3.4 7-6 14.2-7.7 21.6-.8 3.6-.5 11.5-4.7 14-6.8 3.9-18.9-6.1-24-8.8-8.4-4.3-17.4-7.3-27-8.1-5.1-.4-8.6-4-8.9-8.2-.1-1.5.2-3 .9-4.5 5.4-11.4 11-22.7 16.7-33.9 4.4-8.8 7.2-21.8 15.5-27.9 5.9-4.4 11.5 1.3 17.4 4.1 6.4 3 13 5.7 19.7 8.1 6.1 2.2 20.8 2.5 23.1 8.7.5 1.2.5 2.6-.1 4.3z" fill="#f7941e"/><path d="m98 31.8c-8.5.8-17-.5-25-3.8-5.4-2.2-10.4-5.1-15.8-7.3-4.9-2-12.7-5.1-17.2-.9-3.8 3.6-5.9 9.7-8.2 14.3-2.7 5.4-5.4 10.9-8.3 16.2-5.3 9.7-11.3 18.9-19 26.8-.1-1.5.2-3 .9-4.5 5.4-11.4 11-22.7 16.7-33.9 4.5-8.7 7.3-21.7 15.6-27.8 5.9-4.4 11.5 1.3 17.4 4.1 6.4 3 13 5.7 19.7 8.1 6.2 2.2 20.8 2.5 23.2 8.7z" fill="#ffaa4d"/><path d="m130.6 109.7c-2.8 7-20.5 5.5-26.6 6.1-10.2 1.1-20 3.7-28.7 8.3-6.2 3.3-14.2.4-16.1-6-1.3-4.2-2.6-8.4-3.8-12.5-2.8-9.2-5.4-18.5-8-27.8-1.9-7-3.7-14-5.7-20.9-2.5-8.9-4.6-12 5.4-12.4 11.3-.5 22.9-3 34-5.6 8-1.9 24.1-12.6 28.7-2.2 0 .1.1.1.1.2 1.9 4.5.1 14.2 1.1 19.5 1 5.7 2.2 11.6 3.9 17.2 2.3 7.6 5.5 15 9.5 22 1.8 3.4 8 9.7 6.2 14.1z" fill="#2ac6b6"/><path d="m109.7 36.7c-3.8 2.1-7.9 3.8-11.3 5.1-9.8 3.9-20.3 5.9-30.6 7.7-4.4.8-10.9.8-14.6 3.6-4.4 3.3-2.7 9.8-1.3 14.2 3.5 11.2 6.1 22 6.3 33.8 0 2.3-1.2 3.8-2.8 4.4-2.8-9.2-5.4-18.5-8-27.8-1.9-7-3.7-14-5.7-20.9-2.5-8.9-4.6-12 5.4-12.4 11.3-.5 22.9-3 34-5.6 7.9-1.8 24-12.5 28.6-2.1z" fill="#41e5d1"/><g fill="#202020"><path d="m16.5 87.7c6.9.9 13.4 2.9 19.5 5.7 1.1.5 2.1 1 3.2 1.5 1 .5 2 1.1 3 1.7 3.2 2 6.5 4.2 10.3 6 5.5 19 4.7 16.3 5.9 18.8 1.3 2.1 3.2 3.8 5.5 4.8 6.4 3 12.1-.3 12.3-.4l.7-.4c.5-.3 1-.5 1.5-.8 4.1-2 8.5-3.6 13.2-4.8 5.6-1.5 11.7-2.3 14.6-2.4 5.1-.2 10.5-.1 15.9-1.1 1.4-.3 2.7-.6 4.1-1.1 5.6-2.1 7.7-6 5.1-11.6-1.3-2.6-3-4.8-4.5-6.9-3.1-4.1-7.5-13.9-9.8-20.4-1.7-4.7-2.8-9.3-3.8-13.9-.5-2.3-1-4.6-1.3-6.8-.3-2.1-.3-4.3-.3-6.5s.1-4.3 0-6.4-.2-4.2-1-6.2c-.4-1-1-1.9-1.7-2.7s-1.6-1.4-2.5-1.8-1.9-.6-2.8-.7-1.8-.1-2.7.1c-.8.1-1.5.2-2.2.4-.1-.2-.2-.4-.2-.7-.9-1.9-2.5-2.9-3.9-3.7-3-1.5-5.8-2-8.2-2.5-2.5-.5-4.6-.8-6.3-1-3.5-.5-5.3-1-5.3-.9-.1.1 1.8.9 5.2 1.7 1.7.4 3.8.8 6.2 1.4s5.1 1.3 7.7 2.7c1.3.7 2.5 1.7 3 3 .1.1.1.3.1.4-1.7.5-3.3 1.1-4.8 1.7-2.4 1-4.5 1.9-6.1 2.7-3.3 1.5-5.3 2.1-5.2 2.2 0 .1 2.1-.2 5.5-1.5 1.7-.6 3.8-1.4 6.3-2.3 2.4-.8 5.3-1.8 8.4-2 .8-.1 1.6 0 2.4 0 .8.1 1.5.3 2.3.6.7.3 1.3.8 1.9 1.4.5.6.9 1.4 1.3 2.2.6 1.6.7 3.5.7 5.5s-.1 4.1-.2 6.3-.2 4.4.1 6.9c.4 2.3.8 4.6 1.2 6.9.9 4.7 2 9.5 3.6 14.3 2.1 6.2 6.2 16.2 9.9 21.4 1.5 2.2 3.1 4.2 4.1 6.4 1.5 3.3.9 5.4-3.3 6.9-1.1.4-2.3.7-3.5.9-5 .9-10.2.7-15.4.9-2.8 0-9.3.8-15.5 2.4-4.9 1.2-9.7 2.9-14 5-2.4 1.1-6.2 3.8-11.1 1.4-1.6-.7-2.9-1.9-3.8-3.3-1-2.2 1.1 4.6-12.1-40.1-2.9-10.2-5.2-19.1-7.5-26.7-3.3-11.3 5.8-1 37-12.2 1.8-.7 1.9-1 1.9-1.3-.1-.3-.3-.5-2.2-.3-.1 0-35.1 4.4-35.3 4.4-6.2 1.2-6.6 4.2-4.8 10.5 2.2 7.6 4.4 16.5 7.2 26.7 1.6 5.4 3.3 11.3 5.1 17.5-.2-.1-.4-.2-.6-.3-2.1-1.2-4.1-2.6-6.2-3.9-1-.7-2.2-1.4-3.3-2-8.1-4.2-16.1-6.7-23.9-7.8-9.7-1.4-12.9-3.8-8.3-13.1 23.6-48.1 23.1-52.9 29.8-58 1.2-.9 2.3-1.4 3.5-1.5 4.9-.3 14.7 8.4 30.6 12.1 1.8.4 2 .2 2.1-.1s.1-.6-1.6-1.4c-4.5-2.4-13.2-5.5-22.4-11-1.1-.7-2.4-1.4-3.8-2.1-1.4-.6-3.2-1.2-5.2-1.1-2 0-4 .9-5.6 2.1-6 4.4-4.8 5.5-31.3 59.2-.4.8-.8 1.6-1.2 2.5-3.3 6.5-1.3 14.5 12.8 16.5z"/><path d="m75.5 58.8c-1.1.6-2.2 1.1-3.4 1.4-2.4.6-4.6.8-6.3.7-1.7 0-2.7-.1-2.8.1s.8.9 2.6 1.4c1.7.5 4.3.9 7.1.5 3.7-.4 5.9-2 8.1-2.8 1.1-.5 2.1-.7 3.2-.7 1.1-.1 2.1 0 3.1 0 1.8.1 3.5.1 5 0s2.8-.3 3.8-.6c2.1-.5 3.5-1 4.3-1.4 1.7-.8 1.7-1.4 1.5-1.9-.1-.5-.4-1-2.3-.9-.9.1-2.3.3-4.3.5-1 .1-2.1.3-3.4.3-1.3.1-2.7 0-4.6-.1-1 0-2.2-.1-3.6.1-1.4.1-3 .6-4.3 1.3-1.4.7-2.6 1.5-3.7 2.1z"/><path d="m94 68.4c-6.5-.4-8.9-1.6-13.6 3.7-1.9 2.1-3.4 3.3-6.6 4-2.6.6-5.2.7-7 .8-1.9.1-3.1.2-3.1.5s1.1.7 3 1.1 4.6.8 7.7.5c2.6-.3 5-1.1 7-2.6.7-.5 1.3-1.1 1.9-1.7 3.6-3.7 4.4-2.5 10.6-2.3 1.7.1 3.1-.1 4.3-.2 2.4-.4 4-1 4.9-1.5 2-1.1 1.8-1.6 1.6-2.1s-.5-.9-2.5-.6c-1 .1-2.4.4-4.5.5-1.1 0-2.3 0-3.7-.1z"/><path d="m103 84.6c-.4 0-.9 0-1.5 0-1.1 0-2.4-.1-3.9-.3-1.5-.1-3.3-.3-5.5-.4-1.2 0-2.6 0-4.1.3s-3.2.8-4.8 1.8-2.7 2.2-3.7 3c-1.1.8-2.3 1.4-3.6 1.8-2.6.8-5.2 1-7.1 1.2s-3.1.3-3.2.6c0 .3 1.1.7 3.1 1 1.9.3 4.7.7 7.9 0 1.6-.3 3.3-.9 4.8-1.9s2.6-2 3.7-2.6 2.3-.9 3.5-1.1c1.2-.1 2.4-.2 3.4-.1 1.9 0 3.7.2 5.3.3s3 .1 4.3 0c8.1-.5 8.3-4.6 5-4-.8.1-.7.1-1.4.2-.3 0-.6 0-1 .1-.3.2-.7.1-1.2.1z"/></g></g></svg>