<svg id="Layer_1" enable-background="new 0 0 135 135" height="512" viewBox="0 0 135 135" width="512" xmlns="http://www.w3.org/2000/svg"><g><path d="m106 35.9c1-11.8-2-20.3-16.1-20.2-17.9.2-35.9.4-53.8.5-10.3.1-29.1 0-31.7 14.1-2.4 13-.6 26-.4 39 .2 14.6-.2 29.3-.2 43.9 0 2.3 0 4.6 1.2 6.5 2 3.3 6.4 3.8 10.2 3.8 28 .4 56 2.6 84.2 2.6 1 0 2.1 0 2.9-.7s1.1-1.9 1.2-3c1.7-11.8-.1-23 .2-34.7.4-15.5-.3-32.7 1.9-47.9.1-1.2.2-2.6.4-3.9z" fill="#726658"/><path d="m106 35.9c1-11.8-2-20.3-16.1-20.2-17.9.2-35.9.4-53.8.5-10.3.1-29.1 0-31.7 14.1-2.4 13-.6 26-.4 39 .2 14.6-.2 29.3-.2 43.9 0 2.3 0 4.6 1.2 6.5 2 3.3 6.4 3.8 10.2 3.8 28 .4 56 2.6 84.2 2.6 1 0 2.1 0 2.9-.7s1.1-1.9 1.2-3c1.7-11.8-.1-23 .2-34.7.4-15.5-.3-32.7 1.9-47.9.1-1.2.2-2.6.4-3.9z" fill="#ec008c"/><path d="m105.6 20.4c-3-10.5-8.7-16.7-22.2-11.3-17.3 6.8-34.5 13.7-51.8 20.5-9.9 3.9-28.1 10.8-26 23.9 2 12 7.9 22.5 12.4 33.6 5 12.5 9.4 25.2 14.2 37.8.7 1.9 1.5 4 3.3 5.2 3 2.1 7.4.9 11-.5 27.2-10.1 55-18.6 82.1-29 1-.4 2-.8 2.6-1.7s.4-2.1.2-3.1c-2.2-10.8-7.6-19.7-11.2-29.9-4.7-13.5-10.9-28-13.8-41.8-.2-1.3-.5-2.5-.8-3.7z" fill="#d7df23"/><path d="m2 116.8c.1.9.3 1.9.7 2.8s.9 1.9 1.6 2.6c1.4 1.5 3.3 2.4 5 2.8 2.9.7 4.6.6 18.1.9 1 0 2.1.1 3.1.1.4 1 .8 2.1 1.5 3.1.5.8 1.1 1.6 2 2.3.8.6 1.8 1.1 2.7 1.4 1.9.6 3.8.4 5.4.1s3.2-.8 4.6-1.3c4.1-1.5 6.6-2.4 12.1-4.4.1 0 .2-.1.3-.1 11.9.5 22.8.9 32.7 1h7.7c.9 0 2.1 0 3.4-.7.6-.4 1.2-1 1.5-1.5.3-.6.5-1.1.7-1.6.8-3.1 1-9.9 1-13.4 9.6-3.4 15.9-5.8 23.4-8.6.8-.3 1.8-.7 2.7-1.6.5-.5.9-1.1 1.1-1.7s.3-1.3.3-1.8c0-1.1-.3-1.8-.4-2.6-2.7-12-4.3-8.2-26.2-71.8-.8-2.4-1.1-2.5-1.4-2.4s-.5.3-.2 2.8c.1.4.1.8.2 1.4 3.4 22 21.3 59.9 23.7 70.9.2.7.3 1.4.3 1.8v.4c0 .1-.1.1-.1.2-.2.2-.7.4-1.3.7-15.5 5.9-86.6 30.4-86.8 30.4-1.3.2-2.6.3-3.6 0s-1.8-.9-2.4-1.9c-.2-.3-.3-.6-.5-.9 0-.1-25.1-63.4-25.1-63.5-1.1-3.1-2-6.4-2.5-9.6-.5-2.9.3-5.9 2.1-8.4s4.3-4.5 6.9-6.3c2.7-1.7 5.5-3.2 8.4-4.5s5.8-2.5 8.8-3.7c2.9-1.2 5.8-2.3 8.6-3.5 5.6-2.3 11.1-4.5 16.2-6.6 1.5-.6 3-1.2 4.4-1.8.1.4.2.7.3 1.1.6 2.4 1.1 5.2 1.2 8.2s-.2 6.3-1.2 9.5c-1 3.1-2.7 6.1-5.1 8.4-1.1 1-2.5 1.7-4 2s-3.1.2-4.6-.1-3-.9-4.3-1.6-2.4-1.7-3.4-2.7c-2-2-3.3-4.3-4.4-6.2-2-3.9-3-6.6-3.3-6.5-.1 0-.1.8.2 2s.8 3 1.6 5.2c.9 2.1 2.1 4.7 4.1 7.1 1 1.2 2.2 2.4 3.7 3.4s3.1 1.8 5 2.2c1.8.5 3.8.6 5.8.4 2-.3 4-1.1 5.7-2.5 3.1-2.6 5.2-6.1 6.5-9.7s1.7-7.3 1.6-10.7-.6-6.5-1.3-9.2c-.1-.5-.3-1-.5-1.5 9.2-3.8 17.6-7.2 19.2-7.8 7.3-2.3 12.7-1.8 16.8 4.7 1.2 2 1.8 3.7 2.3 4.8.4 1.1.7 1.8.8 1.8s-.1-.7-.3-1.9c-.4-1.2-.9-3-2-5.1-4-7.2-10.2-8.1-18-5.8-2.6.8-19.2 7.2-19.3 7.3h-.2c-6.8-17.6-21.2-16.1-24.2-4.8-.1.7-.2 1.3-.3 1.8v1.4c0 .6.2 1.1.3 1.4-7.2 0-12-.1-17 .4-3.4.3-6.8.9-10.1 2.2-5.6 2-9.8 5.7-11.3 11.6-1 4-1.5 11.2-1.5 15.9 0 7.1.5 14.1.7 21 .3 16.6-.7 47-.2 50.8zm71.5 5.4c10.3-3.5 19.9-6.8 28.8-9.9 0 2.9-.4 9.1-1 11-.1.3-.2.5-.2.6-.1.1-.1.1-.2.2s-.6.2-1.4.2c-9.6 0-20.5-.3-29.9-.7 1.3-.5 2.6-1 3.9-1.4zm-45.2-2.2c.2.6.5 1.3.7 1.9-.5 0-.9 0-1.4-.1-13.9-.3-15-.2-17.3-.8-1.3-.3-2.3-.9-3.1-1.6-.7-.8-1.1-1.8-1.3-3.2 0 0 .1-40.7-.2-50.4-.1-2-.2-3.9-.3-5.9.3 1.3.7 2.5 1.1 3.7 4 12.3 2.9 4.4 21.8 56.4zm15.1-106.4c.1-.3.2-.7.3-1.1s.3-.9.5-1.4c3.6-8 11.8-7.7 17.2 3.8-5.6 0-11.4 0-17.5 0-.2 0-.5 0-.7 0 0-.3.1-.8.2-1.3zm-28.1 6.7c3-1.1 6.2-1.7 9.4-2.1 5-.6 10.1-.5 19.1-.7 5.5-.1 10.9-.2 16.1-.3-.8.3-1.7.6-2.5 1-5.2 2-10.7 4.1-16.4 6.3-2.8 1.1-5.7 2.2-8.6 3.3s-5.9 2.3-8.9 3.6-6 2.8-8.9 4.6-5.7 4-7.8 7c-.8 1-1.4 2.1-1.9 3.4 0-.5 0-.9 0-1.4-.1-13.6.5-20.9 10.4-24.7z" fill="#202020"/></g></svg>