<svg id="Layer_1" enable-background="new 0 0 135 135" height="512" viewBox="0 0 135 135" width="512" xmlns="http://www.w3.org/2000/svg"><g><path d="m85.9 63.8c-.9 1-1.8 2-2.7 3.1-14.1 16.2-28.8 31.8-44.1 46.7-3.4 3.3-6.9 6.6-11.1 8.4-4.3 1.8-9.5 1.8-13.1-1.3-4.4-3.8-5.3-8.1-4.2-12.6 2.1-9 12-18.3 16.6-23.5 12.1-13.8 25-26.8 38.6-39z" fill="#7d2aff"/><path d="m125.2 26.6c-2.1 6.8-9.9 13.2-14.6 18.2-5.7 6.1-11.6 12-17.7 17.6-7 6.5-14.9 1.6-20.6-4.8-2.8-3.1-4.8-6.8-6.8-10.5-.1-.2-.2-.4-.3-.6-3-7.8 13.5-23.5 18.4-28.5s10.5-9.8 17-11.9c.9-.3 1.9-.6 2.9-.8 1.6-.3 3.3-.3 5.1-.1 7.8 1 15.8 7.2 17.1 15.1.3 2 .2 4.1-.5 6.3z" fill="#9761ff"/><path d="m9.2 112.6c-3 .9-4.9 4.8-4.4 8.3s2.8 6.4 5.6 8c1.1.6 2.2 1 3.4 1 2.8-.1 4.8-2.8 6.5-5.3" fill="#808285"/><path d="m125.7 20.3c-9.3-6-21.3-6.9-31.4-1.4-6.1 3.3-11.3 8.6-16.2 13.4-4.5 4.5-8.8 9.1-12.8 14.1-3-7.8 13.5-23.5 18.4-28.5s10.5-9.8 17-11.9c2.6-.6 5.3-.8 8-.8 7.7 1.1 15.8 7.2 17 15.1z" fill="#ab88ff"/><path d="m83.2 66.9c-14.1 16.2-28.8 31.8-44.1 46.7-3.4 3.3-6.9 6.6-11.1 8.4-4.3 1.8-9.5 1.8-13.1-1.3-4.4-3.8-5.3-8.1-4.2-12.6 12.1 5.8 25.5-1.8 34.4-10.6 7.4-7.3 13.9-15.3 20-23.7 1.5-2 2.9-4 4.3-6.1 1-1.4 2.9-5.7 4.4-6.4.2-.1.3-.1.5-.2 2.9-.7 6.5 1.5 8.4 3.6.6.7.7 1.4.5 2.2z" fill="#6d26f7"/><path d="m112 63.8c0-.3 0-.6-.1-.8-1-2.3-4.3-3.7-6.6-3.8-2.8-.1-5.7 1.4-7.1 3.9-1.1 1.8-1.3 4-.8 6.1.9 3.7 4.8 4.4 7.9 2.5.8-.5 1.5-1.2 2.2-1.9 1.3-1.3 4.4-3.9 4.5-6z" fill="#808285"/><path d="m129.5 31.1c-1.2-1.4-2.4-2.3-3.2-2.9.7-1.7 1.1-3.4 1.2-5.3.2-3.5-1-7-2.9-9.8-1.9-2.9-4.6-5.2-7.5-6.9s-6.2-2.8-9.6-3c-1.7-.1-3.5 0-5.1.4-1.6.3-3.1.8-4.6 1.5-5.3 2.2-10 6-14.1 10-1.8 1.8-3.5 3.5-5.1 5.1-2.9 3-5.5 5.9-7.9 8.7-2.3 2.9-4.4 5.7-5.9 8.8-.7 1.5-1.4 3.1-1.7 4.9-.1.9-.2 1.8-.1 2.7 0 .5.2.9.3 1.4.1.2.1.4.2.6-2.4 1.9-5.7 4.8-8 6.9-6.2 5.5-14.6 13.5-23.3 22.8-2.2 2.3-4.4 4.7-6.6 7.2-2.2 2.4-4.6 4.8-6.8 7.3-2.3 2.5-4.4 5.2-6.3 8.2-1.8 2.9-3.5 6.2-4 9.9-.1.9-.2 1.9-.1 2.9-.4.1-1 .2-1.7.7-1.4.9-2.8 2.7-3.3 5.2-.6 2.5 0 5.4 1.3 7.6 1.7 3.1 4.8 5.2 7.3 5.7.9.2 1.8.2 2.6.1 1.6-.3 2.7-1.1 3.5-1.8 1.5-1.4 2-2.5 2.4-3.3.3-.8.4-1.2.3-1.5 3.3.3 6.6-.5 9.2-1.8 4.4-2.2 7.9-5.6 11.4-9.1 5.4-5.3 2.6-2.6 12-11.9 8.5-8.6 18.8-19.3 26.4-28.6 3.2-3.9 4.5-5.8 5.1-6.9 2.4.1 4.2-.6 5.3-1.3.6-.3 1.1-.7 1.4-1 .2-.2.3-.3.5-.4.1-.1.2-.3.3-.4.8-1 .7-1.2.5-1.4s-.4-.3-1.4.2c-.1.1-.3.1-.4.2-.2.1-.3.1-.5.2-.4.2-.8.4-1.3.5-1 .4-2.4.7-4.3.5-1.8-.3-4.1-1.2-6.5-3-1.2-.9-2.5-2.1-3.8-3.4-1.3-1.4-2.6-2.9-3.8-4.8s-2.4-4.1-3.7-6.5c-.4-.8-.5-1.7-.3-2.9s.7-2.5 1.4-3.8c2.8-5.6 8.8-12 13.1-16.5 1.6-1.6 3.3-3.3 5-5.1 3.7-3.7 8-7.2 12.8-9.3 1.3-.6 2.6-1 3.9-1.3s2.6-.4 4-.4c5.5.3 11.2 3.4 14.6 8 1.6 2.3 2.6 5 2.5 7.8 0 2.8-1.1 5.4-2.6 7.7-2.9 4.5-7.2 8.5-10.9 12.4-3.5 3.9-6.6 7.3-9.3 10.1-5.4 5.7-8.8 9.1-8.6 9.3s4-2.8 9.7-8.2c2.9-2.7 6.2-6 9.8-9.6 1.8-1.8 3.8-3.6 5.8-5.6s4-4.2 5.8-6.8c.7-.9 1.3-2 1.8-3.1.6.7 1.5 1.7 2.3 3 .9 1.4 1.7 3.3 1.3 5.4-.3 2-1.8 4.2-3.3 6.4-3.1 4.4-7.3 8.8-11.2 13-1.3 1.5-2.6 2.9-3.9 4.2-.5-.4-1.4-1-3.2-1.7-1-.3-2.4-.7-4.2-.6s-4.1.7-6.1 2.6c-1 1-1.9 2.3-2.3 3.9-.4 1.7-.2 3.6.8 5.4.5.9 1.2 1.7 2.1 2.4s2.3 1.1 3.6 1 2.5-.6 3.4-1.2c1.9-1.2 3.4-3 4.8-4.6 3.1-3.5 1.3-1.5 7.9-9.1 1.9-2.2 3.8-4.4 5.7-6.7s3.6-4.7 5.1-7.2c.7-1.2 1.4-2.5 2-3.7.6-1.3 1-2.6 1.1-4s-.2-2.7-.6-3.8c-.3-.9-.9-1.8-1.5-2.6zm-113.7 95.9c-.5.4-1.2.7-1.8.8s-1.4-.1-2.4-.7c-1.2-.6-2.6-1.7-3.7-3.2s-1.7-3.4-1.6-5.2.8-3.4 1.5-4.4c.3-.4.5-.6.8-.9.1.6.2 1.2.4 1.7.5 1.8 1.5 3.5 2.6 4.9.3.3.6.7.9 1l.9.9c.6.6 1.4 1.2 2.2 1.6.9.5 1.9.9 2.9 1.2-.1.1-.2.1-.3.2-.6.5-1.3 1.3-2.4 2.1zm52-72.3c1.3 2 2.9 3.8 4.3 5.3 1.5 1.5 2.9 2.7 4.4 3.7 2.2 1.5 4.4 2.5 6.4 2.9-1 .9-2.7 2.5-5.3 5.2-5.1 5.2-13 13.8-27 27.7-9.2 9.1-6.7 6.6-12 11.8-3.2 3.1-6.5 6.5-10.4 8.4-2.1 1.1-4.7 1.7-7.2 1.5-1.2-.1-2.5-.4-3.5-1-.5-.3-1-.6-1.5-1.1l-.8-.7-.7-.8c-1.8-2.1-2.6-4.7-2.3-7.5s1.6-5.8 3.3-8.5c3.5-5.7 8.5-10.9 12.4-15.4 2.2-2.5 4.3-4.9 6.4-7.3 13.4-15.1 24.7-25.9 29.6-30.9 1.3 2.4 2.5 4.7 3.9 6.7zm37 13.4c-1.2 1.3-2.4 2-3.2 2-.5 0-.7-.1-1.1-.3-.3-.2-.7-.6-.9-1-.5-.8-.6-1.8-.4-2.5.2-.8.6-1.6 1.2-2.1 1.1-1.2 2.6-1.7 3.8-1.9 1.3-.2 2.4-.1 3.3 0 1.1.2 1.9.3 2.4.4-1.9 1.9-3.6 3.8-5.1 5.4z" fill="#202020"/></g></svg>