<svg id="Layer_1" enable-background="new 0 0 135 135" height="512" viewBox="0 0 135 135" width="512" xmlns="http://www.w3.org/2000/svg"><g><path d="m120.4 114.9c-1.5 5.3-10.5 8.4-14.8 10.4-2.2 1-5.1 2.4-8.1 3.5-4.5 1.6-9.3 2.6-12.7.9-.1-.1-.2-.1-.3-.2-1.5-.9-2.6-2.2-3.8-3.5-.1-.2-.3-.3-.4-.5-6.3-7.5-12.3-15.1-18.1-23-7-9.3-13.6-18.9-20-28.6-1.3-2-2.5-3.9-3.8-5.9-2.2-3.4-4.4-6.9-6.5-10.4-2.2-3.6-4.4-7.3-6.5-11-2.6-4.6-4.9-9.5-7.8-14-2.3-3.7-4.7-6.9-1.7-11.2s8-7.3 12.1-10.4c5.8-4.4 14.5-8.2 21.4-4.5.5.2.9.5 1.3.8 2.9 2 5 5.2 7 8.2 16.9 25.9 33.9 51.9 50.8 77.8 2.5 4.1 13.2 16.7 11.9 21.6z" fill="#f3bd8e"/><path d="m97.4 128.8c-4.5 1.6-9.3 2.6-12.7.9-7.9-8.8-15.4-17.9-22.6-27.2-.4-.5-.8-1.1-1.3-1.6-8-10.5-16.2-21.2-22.5-32.8-1.2-2.2-2.3-4.4-3.3-6.6-.8-1.8-1.6-3.6-2.3-5.4-.2.6-.4 1.1-.8 1.6-2.2-3.6-4.4-7.3-6.5-11-2.6-4.6-4.9-9.5-7.8-14-2.3-3.7-4.7-6.9-1.7-11.2s8-7.3 12.1-10.4c5.8-4.4 14.5-8.2 21.4-4.5.5.2.9.5 1.3.8-2.6 1.3-5.1 2.9-7.2 4.7-4.8 4.2-6.3 9.6-6.4 15.8-.3 13.6 4.9 26.5 11.6 38 13.1 22.8 30.8 43.6 48.7 62.9z" fill="#ffcea9"/><g fill="#202020"><path d="m81.1 127.8c6.3 8.5 18.9 1.7 28.7-2.5 4-1.7 9.4-4.3 11.5-8 .3-.5.6-1.1.8-1.7.2-.7.3-1.5.2-2.2-.4-5.4-7.3-14.1-10.7-18.8-1.3-1.9-.1 0-9.1-13.9-16.9-26-24.4-37.5-42.6-65.2-1.5-2.2-3-4.7-5-6.9-4.5-4.9-10.1-6.7-17.5-4.6-7.5 2.2-19.5 11.8-22.5 15.7-1 1.3-2 2.9-2.2 4.8-.3 1.9.3 3.8 1.1 5.3.7 1.5 1.6 2.7 2.4 4 .8 1.2 1.5 2.5 2.2 3.7 3.2 5.7 3.5 7 13.1 22.6 11.9 19.2 24 35.7 33.1 47.3 4.6 5.8 8.4 10.4 11.1 13.5s4.3 4.8 4.4 4.7-1.3-1.9-3.7-5.2c-2.5-3.3-6.1-8-10.5-13.9-8.7-12-20.4-28.7-31.9-48-9.5-15.9-9.5-16.9-12.7-22.6-.7-1.3-1.5-2.6-2.3-3.9s-1.6-2.5-2.2-3.7c-.5-1.2-.8-2.3-.6-3.3.1-1.1.7-2.1 1.5-3.2 2.8-3.6 13.2-10.7 13.3-10.7 2.3-1.5 4.8-2.7 7.4-3.4 6-1.7 10.1-.2 13.6 3.7 1.5 1.7 2.8 3.7 4.1 5.8-.8.2-1.8.6-3.2 1.5-1.3.8-3 2.3-4.2 3.8s-1.8 3-1.4 3.4 1.8-.4 3.3-1.2c1.5-.9 3.3-1.9 4.4-2.5 1.5-.9 2.4-1.5 3-2 3.1 4.8 2.5 3.9 4.9 7.5-1 .2-2.8.9-5.5 3-1.6 1.2-3.8 3.5-5.2 5.7-1.5 2.2-2.3 4.2-1.8 4.5s2-1 4-2.6c1.9-1.6 4.2-3.3 5.6-4.4 2.6-2 4-3 4.6-3.7 0 0 0 0 0-.1 3.8 5.8 7.3 11.3 10.6 16.3-1 .4-2.5 1.2-4.4 2.7-1.6 1.2-3.8 3.5-5.2 5.7-1.5 2.2-2.3 4.2-1.8 4.5s2-1 4-2.6c1.9-1.6 4.2-3.3 5.6-4.4 1.8-1.4 3-2.3 3.8-2.9 1.4 2.1 2.7 4.1 4 6.1-.8.1-2.1.4-4.1 1.6-1.3.8-3 2.3-4.2 3.8s-1.8 3-1.4 3.4 1.8-.4 3.3-1.2c1.5-.9 3.3-1.9 4.4-2.5 2-1.2 3-1.8 3.5-2.4 0-.1.1-.1.1-.2 2.2 3.4 4.3 6.6 6.4 9.8-.2 0-.4 0-.6 0-1 .1-2.8.8-5.7 3.1-1.6 1.2-3.8 3.5-5.2 5.7-1.5 2.2-2.3 4.2-1.8 4.5s2-1 4-2.6c1.9-1.6 4.2-3.3 5.6-4.4 2.6-2 4-3 4.6-3.7.2-.3.3-.5.4-.8 1.7 2.5 3.3 5 4.8 7.4-.1 0-.1-.1-.2-.1-.8-.1-2.2.2-4.5 1.6-1.3.8-3 2.3-4.2 3.8s-1.8 3-1.4 3.4 1.8-.4 3.3-1.2c1.5-.9 3.3-1.9 4.4-2.5 2-1.2 3-1.8 3.5-2.4.2-.3.3-.6.3-.9 3.4 5.2 2.9 4.4 5.8 8.8-1 .4-2.5 1.2-4.5 2.7-4.2 3.2-8 9.5-7 10.2.5.3 2-1 4-2.6 1.9-1.6 4.2-3.3 5.6-4.4 5.5-4.3 2.3-4.7 8.6 3.9.9 1.1 1.7 2.3 2.5 3.4-.9.3-2 .8-3.5 1.8-1.4.9-3.3 2.7-4.7 4.4-1.3 1.7-2 3.4-1.6 3.7.4.4 1.9-.6 3.6-1.6 1.7-1.1 3.7-2.3 4.9-3.1 1.7-1.1 2.7-1.7 3.4-2.3 1.6 2.3 5.3 7.7 5.5 10.5v.8c-.1.3-.2.7-.4 1-1.5 2.9-6.7 5.4-9.7 6.7-15.6 7.1-20.2 9.7-26.2 4.5-1.6-1.4-1.9-1.4-2.1-1.3-.7-.2-.9.1.4 2z"/><path d="m69.2 39.5c.4-.6.3-1.1.1-1.6s-.4-1-1.2-1.1-2.2.2-4.5 1.6c-1.3.8-3 2.3-4.2 3.8s-1.8 3-1.4 3.4 1.8-.4 3.3-1.2c1.5-.9 3.3-1.9 4.4-2.5 2.1-1.1 3.1-1.8 3.5-2.4z"/></g></g></svg>