<svg id="Layer_1" enable-background="new 0 0 135 135" height="512" viewBox="0 0 135 135" width="512" xmlns="http://www.w3.org/2000/svg"><g><path d="m57.8 75.2c-7.7 19.7-18 38.4-30.7 55.3-.3-1.4-.6-2.8-.9-4.2-1.9-10.5-2-21.3.6-31.6 3-11.7 9.5-22.7 19-30 3.7-2.9 8.1-5.3 12.8-5.2l.6-.1c.7 1.4 1 2.9 1.1 4.5.2 3.7-1.1 7.7-2.5 11.3z" fill="#d1d3d4"/><path d="m100.7 122.4v2.1c-.1 2-1.1 4.6-3 4.2-.7-.1-1.3-.7-1.8-1.3-16-18.1-21.2-43.3-35-63.1l-.1-.1c0-.1 0-.2 0-.3.1-1.9 1.8-3.4 3.6-3.9 1.9-.5 4 .1 5.8.8 8.4 3.4 14.2 11.1 18.6 18.9 7.3 13.2 12 27.9 11.9 42.7z" fill="#d1d3d4"/><path d="m60.3 47.4-4.8 2.9-2.2 1.3c-1.2-5.8-6.9-13.3-12.8-14.2-2.3-.4-4.7-.2-7-.4-4-.4-7.9-2-10.9-4.6-1.6-1.3-2.9-2.9-4-4.7-3.1-5.2-3.3-12.1-.4-17.4s9-8.8 15.1-8.4c6.4.4 12 4.9 15.5 10.3s5.2 11.7 6.8 17.9c1.3 5.1 3.4 12.2 4.7 17.3z" fill="#ff00d7"/><path d="m118.1 24.2c-.3.8-.6 1.6-1 2.3-3.3 6.4-11 10.3-18.2 9.2-2.4-.4-4.9-1.3-7.3-.9-3.4.5-6 3.2-8.3 5.8-3.1 3.6-6.2 7.2-9.2 10.9-.8.9-1.5 1.8-2.2 2.7-.4.4-1 2-1.5 2.2-.7.3-.7-1.3-.9-1.9-.3-1.2-.8-2.4-1.5-3.4-.3-.5-.7-.9-1.2-1.3-.7-.6-1.5-1.2-2.4-1.6-.6-.3-.9-.4-1-.7 0-.1 0-.3.1-.6.2-.6.6-1.3.9-1.9 1.3-2.6 2.7-5.2 4.1-7.8 5.3-9.6 11.3-19.1 18.7-27.3 2-2.2 4.1-4.3 6.6-5.8 6.2-3.7 14.9-2.6 20.1 2.4 4.6 4.5 6.2 11.7 4.2 17.7z" fill="#ff00d7"/><path d="m104.6 23.7c3.9-5-3.5-11.7-8.5-10.5-10.5 2.6-3.5 16.3 6 12.4.9-.4 1.9-1 2.5-1.9z" fill="#fff"/><path d="m39.8 25.2c1.1-3.6-2.5-7.9-5.9-8.7-3.7-.8-6.3 1.5-7.2 5-.8 3.4 1.4 7.2 4.7 8.1 3.5.9 7.4-1.1 8.4-4.4z" fill="#fff"/><path d="m55.5 30.1c1.3 5.1 3.4 12.2 4.8 17.3l-4.8 2.9c-1-.5-1.9-1.5-2.4-2.9-2.1-6.4-3.8-12.8-5.3-19.3-1.3-5.3-2.6-11-6-15.4s-9.4-7.8-13.9-3c-4.2 4.4-4.6 10.3-1.5 15.3 2.2 3.6-.6 6.9-3.8 7.3-1.6-1.3-2.9-2.9-4-4.7-3.1-5.2-3.3-12.1-.4-17.4s9-8.8 15.1-8.4c6.4.4 12 4.9 15.5 10.3 3.4 5.5 5.1 11.8 6.7 18z" fill="#ff50ea"/><path d="m118.1 24.2c-1.9-5.3-5.1-11.2-10.3-13.6-6-2.6-12.6.4-17.1 4.4-9.7 8.3-16.4 20.7-21.3 32.3-.6 1.4-1.5 2.1-2.5 2.5-.7-.6-1.5-1.2-2.4-1.6-.6-.3-.9-.4-1-.7 0-.1 0-.3.1-.6.2-.6.6-1.3.9-1.9 1.3-2.6 2.7-5.2 4.1-7.8 5.3-9.6 11.3-19.1 18.7-27.3 2-2.2 4.1-4.3 6.6-5.8 6.2-3.7 14.9-2.6 20.1 2.4 4.5 4.5 6.1 11.7 4.1 17.7z" fill="#ff50ea"/><path d="m60.3 63.9c.2 3.8-1.1 7.7-2.5 11.3-7.7 19.7-18 38.4-30.7 55.3-.3-1.4-.6-2.8-.9-4.2 9.5-20.1 19.1-40.1 28.8-60.1 1.3-2.4 3.4-2.9 5.3-2.3z" fill="#e3e4e5"/><path d="m100.7 122.4v2.1c-.1 2-1.1 4.6-3 4.2-.7-.1-1.3-.7-1.8-1.3-16-18.1-21.2-43.3-35-63.1l-.1-.1c0-.1 0-.2 0-.3.7.3 1.4.7 2 1.3 1.8-2.9 6.5-4 8.5-.1 9.6 19.2 19.4 38.3 29.4 57.3z" fill="#e3e4e5"/><path d="m68 61.5c-.7 1.1-1.4 2.1-2.5 2.7-2.1 1.3-5 .8-6.9-.8-.9-.8-1.9-1.9-2.8-3.2-1.9-2.8-3.1-6.3-1.5-8.8 1.4-2.3 4.3-3.4 7-3.3 3.5.3 6.6 2.3 7.9 5.5.2.4.3.8.4 1.2.7 2.3-.3 4.7-1.6 6.7z" fill="#27aae1"/><path d="m69.3 53.6c-5.5-.6-10.7 1.7-13.4 6.6-1.9-2.8-3.1-6.3-1.5-8.8 1.4-2.3 4.3-3.4 7-3.3 3.4.3 6.6 2.4 7.9 5.5z" fill="#31c1f4"/><g fill="#202020"><path d="m87.4 38.6c6.6-5.5 10.5 2.4 21.8-2.6 8.6-3.8 12.9-12.5 11-21.4-2.6-13-17.4-18.5-27.7-12.1-8.9 5.5-20.5 25.6-25.2 35-2.4 4.8-3.8 8.3-4.2 9.6-.7-.2-1.4-.3-2.2-.4 0-.9-.2-2.6-1-6.1-.7-3.3-1.9-8-3.7-15.1-1-3.5-2.1-7.8-4.6-12.4-5.4-10.1-15.9-16.2-26.1-11.8-2.2.9-4.3 2.4-6.1 4.2-5.9 6-6.5 15.3-2.7 22.2 2.6 4.7 7.1 8.1 11.8 9.6 2.3.8 4.8 1.1 7.1 1 1.6 0 3.1-.1 4.5.1.5.1.9.2 1.4.3 3.4.9 6 2.8 8 5.5 1.7 2.4 2.5 4.7 3 6.2 0 0-.1.1-.1.1-.2.3-.3.6-.4.9-.5 1.2-.6 2.3-.6 3.4 0 1.9.4 3.6 1.1 5.2-1.6.5-3.3 1.3-5.2 2.5-7 4.4-13.8 11.8-18.4 21.6-2.4 5.1-4.1 10.8-5 16.7-1.8 11.5-.7 20.6 1.4 30.6 0 .1.7 3.4.7 3.3l.1.2v.1c7.1-9.6 3.5-4.7 4.6-6.2 12.2-17 21.7-33.9 28.9-53.9 1-2.9 1.7-5.4 1.9-7.5 0-.2 0-.5 0-.7h.5c.5.9 1.2 2.1 1.9 3.5 2.1 3.8 4.7 9.3 7.6 15.8 5.9 13.5 11 27 20.1 39 2 2.5 5.4 8.1 9.2 4.1 1.8-2.2 1.7-4.8 1.8-7.2 0-2.8-.1-5.5-.4-8-1.1-11.5-5-22.5-10.4-32.8-2.8-5.2-5.7-9.6-8.7-12.9-3-3.4-6.1-5.8-8.9-7.3-1.2-.7-2.4-1.2-3.5-1.6.2-.7.3-1.3.3-1.9s0-1.1-.1-1.5c3.2-1.8 12.7-14.1 16.5-17.3zm-22.9 11.5c1.2.5 2.2 1.2 3 1.9 1.5 1.5 1.9 2.8 2.2 2.8.1 0 .2-.4.1-1.1s-.4-1.6-1.1-2.7c-.9-1.5-2.8-3-5.2-3.8.3-.5 19.4-35.2 30.8-41.8 18.2-10.7 32.1 18.5 13.3 26.9-8.9 4-12.8-1.9-19.6 1.4-1.2.6-2.2 1.3-3 2.1-3.9 3.4-13.2 15.8-14.9 19-.2 0-.3 0-.4 0-.3.1-.5.2-.7.5s-.3.9-.7 1.8c-.2.5-.4 1.1-.8 1.8s-1 1.6-1.7 2.5-1.5 1.4-2.7 1.5-2.9-.4-4.4-1.6c-.9-.6-1.8-1.5-2.3-2.6-.6-1.1-1-2.6-1.1-4.1 0-.7 0-1.4.2-2 .1-.3.2-.5.4-.7.2-.3.4-.5.7-.8 1-.9 2.5-1.6 4-1.8 1.1.1 2.7.4 3.9.8zm-22.4-13.5c-.5-.1-1-.3-1.6-.4-1.7-.4-3.3-.4-5-.4-2.1 0-4.1-.4-6.2-1.1-4-1.5-7.7-4.5-9.7-8.4-3.9-7.8-1.1-17.8 7.4-21.3 8.4-3.5 16.6 2 21.1 10.1 2.2 4.1 3.4 8 4.5 11.5 2 7 3.5 11.7 4.6 14.8 1 2.9 1.6 4.5 2.1 5.3-1.7.2-3.5.8-5 2-.4.3-.7.6-1.1 1-.4-1.6-1-3.8-2.4-6.3-1.9-3.2-4.8-5.6-8.7-6.8zm16.6 30.6c-.4 1.8-1.1 4-2.2 6.8-6.1 14.6-12.2 26.9-20.9 40.7-1.1 1.7-2.3 3.6-3.6 5.5-2.4 3.5-1.6 2.4-3.8 5.5l-.1.1s0-.1-.1-.1c0 .2-2.6-11.3-.8-24.3.7-5.6 2.2-11 4.3-16 4-9.4 10.2-16.8 16.6-21.5 1.7-1.3 3.3-2.2 4.8-2.8.9 1.6 2.1 2.7 3.2 3.6.8.6 1.7 1.1 2.6 1.5.1.3.1.6 0 1zm13.9-3.2c2.4 1.5 5.1 3.7 7.7 6.9 2.7 3.2 5.3 7.3 8 12.4 5.2 10 8.8 20.4 10 31.4.3 2.4.4 5 .4 7.6 0 1.2.1 3.7-.7 4.6 0 0-.1.1-.1.1-.1 0 0 .1-.3-.3-.3-.3-.6-.7-1-1.1-.7-.8-1.4-1.6-2-2.4-9.2-11.7-14.6-25-21-37.9-3.2-6.5-6.2-11.9-8.6-15.5-.7-1.2-1.4-2.1-2-2.9h.5c1.2-.1 2.3-.6 3.3-1.2.9-.6 1.5-1.3 2-2 .3-.4.6-.9.8-1.3.9.4 1.9 1 3 1.6z"/><path d="m103.7 26.4c1-.8 1.3-1.5 1.3-1.9s-.2-.6-.4-.8-.5-.3-.8-.3-.8.2-1.6.4c-2.3.7-4.6.9-6.6-.5-3.4-2.2-4.7-7.8 2.2-8.6 1.1 0 2.4.5 3.5 1.1s2 1.5 2.6 2.4.9 1.8 1 2.6c.1 1.6-.6 2.7-.3 2.9.1.1.4-.1.8-.5.2-.2.4-.5.6-.9s.3-.9.5-1.4c.2-1.1 0-2.5-.6-3.8s-1.6-2.6-2.9-3.6-2.9-1.9-4.8-2.1c-.5 0-1-.1-1.5-.1-6.2.6-9.1 5.5-7.3 10.4 2.3 6.5 10.1 8.2 14.3 4.7z"/><path d="m36.4 15.2c-1.5-1-3.5-1.4-5.4-1-5 1-8.1 6.9-5.5 12.5 1 2.2 2.8 3.9 4.7 4.6s3.7.5 5.1.1c2.7-.9 4-2.4 4.6-3.5s.6-1.8.5-2.2-.4-.5-.6-.6c-.3-.1-.5-.1-.8 0s-.7.5-1.3 1-1.6 1.3-3.3 1.6c-1.6.3-3.9 0-5.2-2.8-1.6-3.4 0-6.8 2.6-7.5 1-.3 2.2-.3 3.1.2 1 .5 2 1.3 2.7 2.2.7.8 1.2 1.7 1.5 2.5.6 1.6.4 2.7.7 2.8.1 0 .4-.2.6-.7s.4-1.4.3-2.4c-.2-2.1-1.5-4.9-4.3-6.8z"/></g></g></svg>