<svg id="Layer_1" enable-background="new 0 0 135 135" height="512" viewBox="0 0 135 135" width="512" xmlns="http://www.w3.org/2000/svg"><g><path d="m105.1 128c-2.9 2.3-7 2.5-10.8 2.5-1.1 0-2.2 0-3.3 0-1.9 0-3.8.1-5.7.1-14.4.2-28.8.3-43.2.5-4.8.1-10.2-.1-13.4-3.5-2-2.1-2.7-5-3.3-7.8-1.1-6-1.7-12.1-1.6-18.1 0-3.4.3-6.8 1.5-10s3.4-5.9 5-8.9c4.2-7.8 4.7-18.6.4-26.6-.5-.9-1.1-1.8-1.7-2.6-2.8-3.8-6.2-6.7-7.4-11.4-1.8-7.1-.4-16.4.7-23.5 0 0 0 0 0-.1 0 0 0 0 0-.1 1.3-3.9 7.1-7.5 14-10.1h.1c2.3-.9 4.7-1.6 7-2.3 4.8-1.3 9.6-2.1 13.4-2.3 9.4-.4 29.2-1.4 42 3.6 4.7 1.8 8.5 4.5 10.4 8.3.2.4.4.8.5 1.3 1.1 3 1.1 6.2.9 9.4-.6 8.5-1.4 15.2-5.7 22.4-9.4 16.1-5.5 27.9 3.7 42.7 5.9 9.6 6.3 28.7-3.5 36.5z" fill="#ffbf55"/><path d="m109.2 15.7c-1 1.9-3 3.3-5.6 2.7-17.9-3.6-37.9-6.5-56-2.9-7.5 1.5-15.4 4.9-19.2 12-4.1 7.6-1.5 18.2.7 26.1-2.8-3.8-6.2-6.7-7.4-11.4-1.8-7.1-.4-16.4.7-23.5 0 0 0 0 0-.1 3.6-4.5 8.6-7.9 14-10.1h.1c.6-.3 1.3-.5 1.9-.7 1.7-.6 3.4-1.1 5.1-1.5 9.1-2.3 19-2.3 28.1-2 9.1.4 18.2 1.5 27.2 3 4.8 1.9 8.5 4.6 10.4 8.4z" fill="#ffd599"/><path d="m93.7 72.8c-.7-17.3-.5-36.2-13-49.8-4.4-4.8-11.4 2.3-7.1 7.1 11.1 12.1 9.6 31.4 10.2 46.6.5 14.3-.4 28.6.4 42.8.1 2-50.9 4.2-56-.9-1-1-1.6-2.2-2.3-3.4-.3-.6-.6-1.2-1-1.8-.8 4.3.7 17.1 6.3 17.6 12.4 1 24.8 1 37.2.3 6.2-.3 12.4-1.4 18.6-1.4 5.1 0 6.2-2.6 6.3-7.7.5-16.5 1.1-32.9.4-49.4z" fill="#f9b046"/><path d="m84.7 131.4-41.5.1c-.4-20-.5-39.9-.3-59.9.1-8.3.2-16.6.4-25 .2-9.3 1.6-20.3 9.9-24.6 5-2.6 11-1.6 15.9 1.4.6.3 1.1.7 1.7 1.1.5.4 1 .8 1.5 1.3.3.2.5.5.8.7.5.6 1.1 1.1 1.5 1.7 2 2.5 3.4 5.2 4.5 8.1 1.7 4.5 2.6 9.5 3.3 14.3 4.6 29.6 2.7 51 2.3 80.8z" fill="#e6e7e8"/><path d="m57.8 74.5c8.4 1.6 9.4-13.6-.2-11.1-5.4 1.4-5.7 10 .2 11.1z" fill="#bcbec0"/><path d="m79.3 36.4c-.5.1-1 .1-1.6 0-15.5-2.3-29.6 13.8-33.4 28-.2 1.6-.4 3.1-.5 4.6-.1 1-.4 1.9-.9 2.6.1-8.3.2-16.6.4-25 .2-9.3 1.6-20.3 9.9-24.6 5-2.6 11-1.6 15.9 1.4-.1.2-.2.4-.3.6.7.1 1.4.3 1.9.6.6.3 1.1.8 1.5 1.3.2.2.4.5.5.8h.3c.5.6 1.1 1.1 1.5 1.7 2.2 2.3 3.7 5.1 4.8 8z" fill="#f2f2f2"/><g fill="#202020"><path d="m29.1 82.4c-1.4 2.6-3.4 5.1-4.8 8.2-3.3 7.4-1.8 22.4-.2 30.3 1.3 6.6 4.1 10.4 11.4 11.5 1.9.3 3.7.4 5.5.4 14.3-.1 2.7 0 53-.4 1.7 0 3.5 0 5.4-.3 9.8-1.3 14.4-10.8 15.2-20.5.3-3.4.1-6.8-.4-10-1.4-8.6-4.1-10.9-7.3-17.1-6.2-11.6-7.4-21.1-1.3-32.6 2.7-4.9 5.1-8.8 6.3-17.6.3-2 .5-3.9.6-5.7.8-11-.6-18-12.1-22.2-10.3-3.7-36.8-4.6-44.5-4-7.6.4-13.6 1.9-18.3 3.6-5.1 1.8-12.8 6.1-14.9 9.6-.8 1.3-.8 2-.9 2.4 0 .4.1.5.3.5.1 0 .3 0 .5-.3.3-.3.6-.9 1.3-1.8.2-.2.4-.4.7-.6 6.7-5.2 17.1-9.5 31.4-10.1 3.6-.2 7.7-.1 12.1.2 7.9.5 23.5 1.5 30.9 4.2 9.7 3.6 10.2 9.1 9.5 18.3-.1 1.8-.3 3.7-.6 5.5-1.1 8-3.3 11.4-5.9 16.2-3.4 6.4-5.1 13-4.2 20.4.7 5.4 2.8 10.8 5.6 16 3.3 6.3 5.7 8.2 7 15.8.5 2.9.7 6 .4 9-1.2 14.5-8.2 17.3-16.8 17.4-2.7 0-5.5.1-8.3.1.2-1.7.4-4.6.7-9.3 1.1-22.3 1.7-41-.9-62.7-1.6-11.9-4-37.4-25.2-38.3-2.2-.1-4.5.3-6.7 1.2-6.7 2.8-9.7 9.1-11.1 16.2-1.3 7.2-1.1 29.1-1.1 37.7 0 16 .3 30.5.7 40.9.2 5.2.4 9.5.6 12.4.1 1 .1 1.9.2 2.5-.6 0-1.3 0-1.9 0-10.2 0-12.6-2.8-13.9-9.2-1.5-7.3-3.2-21.8-.3-28.7 1.1-2.7 3-5.2 4.5-8s2.5-5.8 3-8.8c3.6-20.8-10.3-23.5-12.3-34.2-.4-1.9-.5-3.7-.6-5.5-.1-3.5.2-6.4.3-8.9 0-2.5 0-4.4.2-5.7.1-1.3.3-1.9.2-2-.1 0-.4.6-.6 1.9-.3 1.3-.4 3.2-.6 5.7-.2 2.4-.7 5.5-.7 9 0 1.8.1 3.7.4 5.7 1.7 11.3 15.3 14.1 11.4 33.7-.5 2.7-1.5 5.5-2.9 8zm14.4 44.5c.1-2.9.1-7.2.2-12.4.1-10.5.3-24.9.6-40.9.5-26.2-1.5-52 15.8-51.2 16.8.8 19.5 20.9 21.4 34.9.6 4.8 1 9.3 1.3 13.5 1.3 18.2.5 36.8.7 48.7.1 4.8.2 7.7.4 9.4-39.7.6-30.6.5-40.4.6 0-.7 0-1.6 0-2.6z"/><path d="m54.6 74.8c.3.2.6.3.8.4 1 .4 1.6.2 1.9 0s.4-.4.4-.7c.1-.3.1-.5-.1-.8-.1-.3-.5-.5-.9-1-3.9-4 .7-9.1 4.3-7.3.6.3 1.1.9 1.4 1.7.8 2.2 0 5.5-2.5 6.6-1.2.6-2.3.5-2.3.8 0 .1.2.3.6.5s1.1.3 2 .2c3.7-.4 6.3-4.8 5.4-9-1.1-5.3-7.4-6.3-11.1-3.7-1.9 1.3-2.7 3.2-3.1 4.8-.3 2.8.6 5.9 3.2 7.5z"/></g></g></svg>