<svg id="Layer_1" enable-background="new 0 0 135 135" height="512" viewBox="0 0 135 135" width="512" xmlns="http://www.w3.org/2000/svg"><g><path d="m97.4 98.6-56.6.4h-2.8c-.6-6.8.3-13.7 5.2-15.5 1.4-.5 3-.2 4.4-.5 4.2-.7 7.4-6.1 7.8-11.7.5-5.6-1.4-11.3-4.2-15.6-6.7-10.2-12.9-24.1-7.8-36.3 3.4-7.8 10.7-13.8 19.1-15.4 7.1-1.4 14.5-.1 19.6 5.1 1.3 1.3 2.4 2.7 3.3 4.3 3.4 5.7 4.7 13 4.2 19.3-.8 9.3-7 16.5-10.3 24.9-1.8 4.5-2.2 9.6-1.3 14.4.6 3 1.8 5.9 3.9 8.1 2 2 4.7 3.2 7.2 4.7 4.8 3 8.9 8.2 8.3 13.8z" fill="#fde4cb"/><path d="m110.7 118.4c-22.6-.1-45.3-.2-67.9-.4-5.2 0-16.8 1.9-23.9.2-1.9-.5-3.5-1.2-4.5-2.3-3.1-3.3-2.6-11.2.6-14.4 2-2 5.6-1.2 8.3-1.3 3.9-.1 7.8-.2 11.7-.3 5.1-.1 10.1-.3 15.2-.4 9.7-.2 19.3-.4 29-.5 4.2-.1 8.4-.1 12.6-.1 5.7-.1 11.4-.1 17-.1 6.6 0 11.7 3.6 13.5 10.3 1.8 6.6-6.4 9.3-11.6 9.3z" fill="#f3bd8e"/><path d="m20.6 119.3c15.2 10.3 34.4 12.4 52.8 12.2 16.4-.2 34.3-2.9 45.2-15" fill="#f2caa7"/><path d="m85.4 13.4c-1.1 1.2-2.8 1.9-4.7 1.6-10.2-1.4-21 6.7-26.1 15-2.5 4.1-4.1 9.1-3 14 1 4.5 4.6 7.6 6.6 11.6 3.5 7.1 3.1 15.7-.5 22.6-1.8 3.5-4.4 6.4-7.6 8.6-3.9 2.7-8.9 3.8-8.7 9.4 0 1.1-.2 2-.6 2.7h-2.8c-.6-6.8.3-13.7 5.2-15.5 1.4-.5 3-.2 4.4-.5 4.2-.7 7.4-6.1 7.8-11.7.5-5.6-1.4-11.3-4.2-15.6-6.7-10.2-12.9-24.1-7.8-36.3 3.4-7.7 10.7-13.7 19.1-15.3 7.1-1.4 14.5-.1 19.6 5.1 1.3 1.3 2.4 2.8 3.3 4.3z" fill="#ffebd9"/><path d="m79.2 99.2c-.2.1-.4.2-.7.3-11.7 4.1-23.7 6.7-36 7.8-5.7.5-11.7-.2-17.4.7-5.5.8-6.3 5.7-6.3 10.4-1.9-.5-3.5-1.2-4.5-2.3-3.1-3.3-2.6-11.2.6-14.4 2-2 5.6-1.2 8.3-1.3 3.9-.1 7.8-.2 11.7-.3 5.1-.1 10.1-.3 15.2-.4 9.8-.3 19.5-.4 29.1-.5z" fill="#ffcfae"/><path d="m108.7 97.3c-3.6.1-7.1.2-10.6.4.1-.2.1-.5.1-.8.1-.8.1-2.1-.4-3.8-4.3-13.5-17.8-7.8-18.3-25-.1-2.9.3-6.1 1.5-9.2 1.2-3.2 3.1-6.6 5.1-10.3s4.2-8 5.2-13.2c1.5-8.3-.5-18.5-5.8-25.4-5.3-7-13.3-9.4-21.7-8.2-8.6 1.2-16.6 6.7-20.8 14.6-2.1 4-3.2 8.5-3.1 13 .3 13.7 9.4 25.6 11.2 28.8.9 1.6 1.6 3.3 2.1 5 1.1 3.4 1.3 6.9.8 10.1-3 15.2-12.9 3.1-16.1 16.3-.4 2.1-.5 3.9-.5 5.4 0 1.6.2 2.8.3 3.6-19.8.3-18.2 0-19.4.1-4.4.3-6.6 3.3-7.5 7.6-.5 2.3-.5 4.7.1 7.1 1.4 5.2 5.4 6.7 10.8 7.3 1 .8 2.5 1.9 4.6 3.1 3.9 2.3 9.8 4.8 16.6 6.5 16.3 4.2 46.1 5.2 62.7-2.6 5.1-2.3 8.1-4.8 10-6.6.8-.8 1.4-1.4 1.8-2 13.8-5 5.1-22.3-8.7-21.8zm-4.5 26.9c-16.1 6.8-45.6 6.3-60.5 3.2-6.6-1.3-12.4-3.3-16.5-5.1-1.2-.6-2.3-1.1-3.2-1.5 1.7.1 3.4.1 5.1 0 10.7-.3 3.4-.9 23.7-.7 25.7.2 14.5.1 49.7.3h6.2 1.5.7.8.2c-2 1.1-4.4 2.5-7.7 3.8zm-1.8-7.8c-34.9-.2-24.1-.2-49.7-.3-21.2 0-21.8 1.4-29.8.9-4.1-.3-7.5-.9-8.5-4.6s-.4-10.2 4.2-10.6c.1 0 54.6-1.5 68.7-2.3 5.9-.4 6.2-.6 0-.8-10.1-.3-35.5-.3-49.1-.1 0-.8 0-2 .1-3.6.1-1.4.3-3.2.8-5.1 3.7-12.3 13.1 1.3 17.1-16.1.8-3.6.6-7.5-.5-11.3-.5-1.9-1.3-3.8-2.2-5.6-1.4-2.7-10.2-14.8-10.2-27.6-.1-12.4 9.8-22.3 21-23.6 17.2-2.2 25.6 14 22.9 29-.8 4.4-2.8 8.3-4.7 12-2 3.7-3.9 7.2-5.3 10.9-1.3 3.7-1.8 7.4-1.6 10.7 1 18.9 14.5 14 20 25.7.9 1.9 1 3.1 1.2 3.9-4.7.4-5 .7-5 1.2 0 .6.5 1.1 12 1.4 1.4 0 3 .1 4.8.1 5.5 0 9.9 2.8 11.6 8.2.1.3.2.6.3.9 0 .3.1.5.1.8v.8c-1.1 6.1-12.2 5.1-18.2 5.1z" fill="#202020"/></g></svg>