<svg id="Layer_1" enable-background="new 0 0 135 135" height="512" viewBox="0 0 135 135" width="512" xmlns="http://www.w3.org/2000/svg"><g><path d="m66 86.5c-.7-1.9-3.5-2.6-5.3-2.5-2.2.2-3.5 1.8-5.1 3.2-.9.8-1.9 1.7-2.9 2.4-1.6 1.4-3.7 2.1-5.5 3.4-1.2.8-1.9 1-1.1 2.2.6 1 2.7 1.6 3.8 1.7.9.1 1.9.1 2.8.1 2.3-.1 4.7-.2 7-.8 4.9-1.2 8.3-4.4 6.3-9.7z" fill="#d1d3d4"/><path d="m59.5 85.7c-9.2 9-21.9 11-32.7 7.4-6-2-11.4-5.7-15.2-10.8-6.9-9.3-8.3-22.4-4.8-33.6 2.4-7.7 7.2-14.6 14.1-18.7 13.6-8.1 30.3-4.8 40.7 9.6 9.5 13 9.4 34.8-2.1 46.1z" fill="#c9ff15"/><path d="m43.9 51.5c-4.2-6.6-11.3-8.9-17.8-5.8-8.9 4.3-11.2 17.8-4.7 25.4 5.5 6.5 15.9 6.7 21.7 0 4.3-5 4.3-14.1.8-19.6z" fill="#d1d3d4"/><path d="m129.6 105.6c-2.4 5.6-11.2 10.6-16.5 11.4-8.1 1.1-16.3-1.4-23.9-4.3-4.1-1.6-8.2-3.3-11.4-6.3-4.4-4-7.9-9.5-10.2-15-1.1-2.8-2.4-5.6-3.4-8.5-1.1-2.9-.3-4.2 1-7 2.1-4.6 2.9-9.7 3.7-14.7l-29.8-35.9c.3-.1.6-.2.9-.3 5-1.7 10.2-3.4 15.7-5.3 4.2-1.4 8.9-2.9 13.3-2.4 3.6.4 6.6 2.1 9.4 4.2 4.3 3.1 8.1 7 11.2 11.3 4.4 6.1 7.4 13.2 8.7 20.9.8 4.8.9 9.6 1.5 14.5.3 1.9.6 3.9 1.2 5.8 1.9 6.8 6.7 14.1 15.4 18.2 3.1 1.5 6.6 2.5 9.5 4.3 4.5 2.7 5.1 6 3.7 9.1z" fill="#c9ff15"/><path d="m129.6 105.6c-6.9-.4-13.6-2.5-19.6-6.3-9.9-6.3-16-16.1-19.5-27.2-3.5-11.3-4.3-23.6-9.6-34.2-2.7-5.3-6.7-10.9-12.7-12.6-6.8-1.8-15.6 1.8-22.3 3.2-3.1.7-5.3-1.3-6-3.7 5-1.7 10.2-3.4 15.7-5.3 4.2-1.4 8.9-2.9 13.3-2.4 3.6.4 6.6 2.1 9.4 4.2 4.3 3.1 8.1 7 11.2 11.3 3 5.9 4.8 12.4 6.3 18.7 1.3 5.4 2.3 11.1 3.9 16.7.3 1.9.6 3.9 1.2 5.8 1.9 6.8 6.7 14.1 15.4 18.2 3.1 1.5 6.6 2.5 9.5 4.3 4.6 2.9 5.2 6.2 3.8 9.3z" fill="#e2ff66"/><path d="m66.9 72c-6.8 15.3-23.7 24.8-40 21-6-2-11.4-5.7-15.2-10.8-7-9.2-8.4-22.3-4.9-33.5 2.1 1.7 3 4.9.7 7.5.8-.8 1.4 2.9 1.5 3.5.4 1.5.9 3 1.4 4.5 1 2.8 2.1 5.4 3.6 8 3.3 5.5 8.2 9.5 14.5 11 12.9 3.1 24.4-4.8 29.6-16.3 2.7-5.8 11.4-.7 8.8 5.1z" fill="#c2ef06"/><g fill="#202020"><path d="m4.8 49.5c-3.5 12.2-1.6 26.8 7.7 36.8 7.8 7.6 16.9 11.1 27 10.4 1.3.4 3.4.9 5.7 1.3 2.1.3 4.5.5 6.8.5 6.8-.1 12.3-2.9 14.8-5.8 1 2.5 2.5 5.4 4.8 8.6 2.6 3.6 6.3 7.5 11.7 10.9 5.4 3.3 12.4 6 21 6.6 17.4.9 28.6-10.9 27.4-17.9-.4-2.2-1.8-4-3.3-5.2-5.3-4.2-12-4.1-18.5-10.4-2.6-2.5-4.7-5.5-6.1-9-1.5-3.4-2.1-7.3-2.6-11.2-.9-8-.7-20.8-11.4-34.5-2.5-3.1-5.2-5.9-8.1-8.2-6.5-5.2-11.3-7.4-19.3-5.6-3.9.9-15.4 5.3-19.2 6.7-1.6.6-2.7 1.1-3.3 1.4-1.3-.2-2.7-.3-4.1-.3-5.6 0-10.6 1.5-14.4 3.6-1.6.7-3.1 1.8-4.5 2.9-5.8 4.4-10 11.1-12.1 18.4zm43.1 45.6c5.9-2 10.6-5.3 14.8-9.9.3-.3.6-.7.8-1 .8 1.3 1.3 2.8 1.7 4.2.1.4.3.9.4 1.4-.1 0-.2.1-.3.2-3.4 1.7-6.8 4.6-17.4 5.1zm-29.2-61.8c5.7-4.4 11.4-6.2 17.1-6.5 8.8-.3 16.7 3.5 23.1 10 1.7 1.8 2.7 2.9 2.8 2.8s-.6-1.3-2.2-3.3c-3.6-4.5-9.1-8.6-15-10.4-1.2-.4-2.4-.7-3.7-.9.7-.2 1.6-.4 2.7-.7 9.1-2.6 15.2-4.8 19.3-5.6 7.3-1.4 11.4.7 17.3 5.7 2.7 2.3 5.2 5 7.5 8 9.4 12.6 9.3 23.5 10.2 33.2.4 4.1 1 8.3 2.6 12.3 1.6 3.9 4 7.5 6.9 10.3 7 7 14.3 7.3 18.7 10.8 1.1.8 1.7 1.8 1.8 2.7.7 4-8.1 13.9-23.2 13.2-7.8-.5-14.4-2.9-19.3-5.8-5-3-8.4-6.5-11-9.7-2.5-3.2-4.1-6.2-5.2-8.6s-1.8-4.5-2.7-6c-.6-1-1.2-1.7-1.7-2.2.1-.2.3-.4.4-.6.2-.4.4-.7.6-1.1 5-8.2 6.7-22.3.6-35.6-.4-.9-.9-1.6-1.3-2.3-.8-1.3-1.4-2-1.9-2.6-1-1-1.2-.9-1.5-.8-.2.2-.4.4.1 1.6.3.6.7 1.5 1.2 2.7.3.6.6 1.4.9 2.2 4.7 14 2.7 25.9-1.6 32.6-3.6 6.1-9.5 10.4-15.8 12.4-9.7 3.2-21.2 1.6-31.1-7.7-13.4-14.1-10.2-39.1 3.4-50.1z"/><path d="m21.4 73.9c5.2 4.9 14.1 5.7 20.6.8.7-.6 1.5-1.2 2-1.8 4.6-4.6 5.4-13.7 2.5-19.1-.2-.4-.4-.8-.6-1.1-.4-.6-.7-1-1-1.2-.5-.4-.8-.3-1-.2s-.4.3-.4 1c0 .3.1.7.3 1.3.1.3.2.6.3 1 1.6 5.7.8 12.8-4.5 16.8-5.2 3.9-11.9 3-15.6-.4-6.7-5.8-5.3-17.9.2-22.3l.8-.7c3.7-2.9 9-3.5 13.9-.7 1.7 1 2.9 2.1 3.7 2.9s1.2 1.3 1.4 1.2c.1-.1-.1-.7-.7-1.7s-1.7-2.4-3.4-3.7c-5-3.8-11.5-3.7-16.4-.3-.4.3-.7.5-1.1.8-7.8 5.5-9.2 20.2-1 27.4z"/></g></g></svg>