<svg id="Layer_1" enable-background="new 0 0 135 135" height="512" viewBox="0 0 135 135" width="512" xmlns="http://www.w3.org/2000/svg"><g><path d="m83.4 103.6c-5.2 3.9-16.3 2-22.5 2.2-14.6.4-29.1 1.7-43.7.8-.9-.1-1.9-.1-2.9-.2-1.4-.1-3-.3-4.3-.9-.6-.3-1.1-.6-1.6-1.1-1.1-1.1-1.4-2.8-1.6-4.3-2-15.5-5.9-36 .6-51.6 1.8-4.3 4.3-8.2 7.9-11.5l.2-.2c1.3-1.2 2.7-2.3 4.3-3.3 5.7-3.7 12.4-5.8 19.1-7.1 5.2-1 10.5-1.7 15.7-.7 4.2.9 7.9 2.3 11 4.1 6.1 3.5 10.3 8.6 13.4 14.5 4.3 8.4 6.1 18.5 6.8 28.5.7 8.3 5.8 24.7-2.4 30.8z" fill="#ee3c37"/><path d="m70.7 71.2c-1.9 12.3-12.2 21.7-24.9 22.1-7.9.2-14.7-3.5-18.9-10-1.2-1.9-2.3-3.9-3.1-5.9-5.2-13.3-1.1-29.1 15.3-33 7.7-1.8 15.5.1 21.5 4.3.3.2.6.4.9.7 6.6 5.1 10.6 13.1 9.2 21.8z" fill="#bcbec0"/><path d="m54.5 58.2c-3.3-2.5-7.7-3.7-12-2.7-10.1 2.5-11.5 13.3-6.5 20.8 2.3 3.5 5.9 5.4 10.1 5.3 6.8-.2 12.3-5.2 13.3-11.8.8-4.6-1.4-8.9-4.9-11.6z" fill="#ee3c37"/><path d="m86.6 80c2.9-.9 5.9-1.1 8.9-.6.9.1 1.9.4 2.5 1 1.3 1.1 1.2 3 1.1 4.7-.3 4.2-.5 8.4-.8 12.5-.1.9-.1 1.8-.5 2.5-.8 1.6-2.9 2.3-4.7 2.4s-3.7-.2-5.5.3" fill="#bcbec0"/><path d="m65.7 29.8c-.8.8-1.9 1.4-3.4 1.5-9.3.3-18.6 1.7-27.4 4.7-8.1 2.8-13.7 8.1-17.7 15.7-8.6 16.1-7.6 35.3-7 52.9v.9c-.6-.3-1.1-.6-1.6-1.1-1.1-1.1-1.4-2.8-1.6-4.3-2-15.5-5.9-36 .6-51.6.8-1.6 1.7-3.2 2.7-4.8 1.5-2.5 3.3-4.7 5.2-6.7l.2-.2c1.3-1.2 2.7-2.3 4.3-3.3 5.7-3.7 12.4-5.8 19.1-7.1 5.2-1 10.5-1.7 15.7-.7 4.1.9 7.7 2.3 10.9 4.1z" fill="#f96464"/><path d="m83.4 103.6c-5.2 3.9-16.3 2-22.5 2.2-14.6.4-29.1 1.7-43.7.8-1.8-3-.5-7.9 4-7.6 9.4.6 18.7 1.1 28.1 1.4 7.9.3 18.3 1.9 25.6-1.4 7.5-3.4 5.5-15.3 5.1-21.9-.5-9.7-1.5-19.3-2.6-28.9-.2-1.8.4-3.1 1.5-3.8 4.3 8.4 6.1 18.5 6.8 28.5.8 8.2 5.9 24.6-2.3 30.7z" fill="#e21b1b"/><path d="m60.6 48.7c-.9.4-1.9.5-3.2.1-16.7-4.5-36.6 8.6-33.7 27.3.1.4.1.8.1 1.1-5.2-13.3-1.1-29.1 15.3-33 7.7-1.7 15.5.3 21.5 4.5z" fill="#dbdcdd"/><g fill="#202020"><path d="m54.5 58.2c-.2.2-.3.5-.1 1 .6 1.4 4.1 4.9 3.1 10.4-1.1 5.3-5.1 9.2-10.1 9.9-1.8.3-3.8.2-5.7-.7-4.4-2-6.9-7.6-6.8-12-.1-4.5 2.5-8.6 8.4-10.2 2.1-.5 4.2-.4 5.8-.1 3.4.6 5.2 2 5.4 1.7.1-.1-.3-.6-1.1-1.2s-2.1-1.5-3.9-2.1-4.1-1-6.7-.6c-7 1.3-11 6.2-11.3 12.3-.4 5.9 2.6 13 8.5 15.8 2.7 1.3 5.7 1.5 8 1.1 6.5-1 12-5.9 13.2-13.3 1.1-7.9-5.4-13.6-6.7-12z"/><path d="m5.5 102.9c.3 1.1 1 2.4 2.1 3.3 2.6 2.3 7 2.5 16.4 2.6 8.8.2 18.2-.3 27.8-.8 10.8-.5 9.5-.5 14.4-.3 2.5.1 5 .2 7.5.1 5.2-.2 9.9-1.1 12.9-5 0 .1 0 .2.1.2.1.3.2.5.5.7s.8.3 1.7.4c.5.1 1.1.2 1.9.2.8.1 1.8.2 3.2-.1.7-.1 1.4-.3 2.2-.7s1.7-1 2.3-2.1c.7-1.1.8-2.3.9-3.2s.1-1.8.2-2.8c.4 0 .8-.1 1.3-.1 8.4-.6 14.1-.2 22.7.2 1.5.1 2.7.1 3.5.4.7.2.9.5 1.1.8.5.9.7 7.6 1.6 11.7.5 2.3 1 2.3 1.6 2.3s1.1-.2 1.3-2.5c.2-2.1.2-10.9-.8-13.2-.3-.7-.8-1.4-1.5-1.9-.6-.5-1.4-.9-2.1-1.1-1.5-.5-3.2-.5-4.6-.5-7.1-.1-16.3.1-23.1 2.2-.3.1-.6.2-.9.3.1-1.7.5-9.5.2-11.3-.5-3.7-2.8-4.6-6-4.8-.7 0-1.4 0-2.1 0-1.3.1-2.5.3-3.4.6-.1 0-.2.1-.3.1v-.1c-1.1-6.8-.6-5.3-1.7-13.5-2.7-18-9.2-32.6-26.5-38.5-.8-.3-1.6-.5-2.2-.6-.7.1-1.2 0-1.7-.1-.9-.2-1.4-.2-1.4-.1s.4.3 1.3.6c.4.1 1 .3 1.6.5s1.3.4 2.1.8c24.7 10.4 23.3 35.5 25.7 51.6.7 4.6 1.4 9.3 1.1 13.9-.6 8.7-4.5 11.1-12.8 11.3-2.4 0-4.8-.1-7.2-.2-5-.2-3.6-.2-14.8.2-9.6.4-18.9.8-27.5.6-12.1-.3-13.9-.6-14.7-3.2-.4-1.4-2.5-17.4-3-23-.7-9.5-.7-19.8 2.5-28.6 3.6-9.8 10.5-15.6 20.2-19.4 4.7-1.8 8.7-2.7 11.9-3.4 6.4-1.3 9.8-1.2 11.6-1.3 1.8 0 2-.2 2-.5s0-.6-1.8-1.1c-1.8-.4-5.5-1-12.3 0-3.4.5-7.5 1.3-12.5 3-10.8 4-18.6 10.7-22.7 21.3-7 18.4.2 54 .2 54.1zm83.2-22.6c.9 0 2 0 3.1.1.6.1 1.2.2 1.8.3 2.1.4 2.9.7 2.9 2.6.1 1.4-.6 5.2-1 12-.1 1-.1 1.9-.2 2.7 0 .8-.2 1.2-.3 1.4-.2.5-1.1 1-1.9 1.2s-1.6.3-2.4.4-1.4.1-2 .3c-.6.1-1.1.3-1.4.5.2-.3.3-.6.5-.9 1.3-2.5 1.7-5.2 1.8-7.7.2-4.5-.5-8.8-1.2-12.9z"/><path d="m20.8 73.9c2.1 8.4 7.4 16.2 15.7 19.3 2.7 1 5.5 1.5 8.2 1.5 9.6 0 18.4-5.2 22.8-13 1.7-3 2.6-5.7 2.9-7.6.4-1.9.4-2.9.2-3-.2 0-.4 1-1 2.7-.6 1.8-1.6 4.2-3.5 6.9-4.6 6.9-12.9 11.3-21.4 10.9-10.5-.1-17.9-8.2-20.3-18.6-2.8-10 1.2-23.3 15.8-26.8 2.8-.6 5.5-.6 8-.3 5 .7 9 2.7 12 4.9 9.1 6.9 9 14.9 9.7 19.2.1 1 .4 1.1.7 1.1s.6 0 .9-1c1.9-6-.7-15.7-9-22.3-3.4-2.6-8-5.1-13.8-5.9-20.6-2.9-32.8 15.4-27.9 32z"/></g></g></svg>