<svg id="Layer_1" enable-background="new 0 0 135 135" height="512" viewBox="0 0 135 135" width="512" xmlns="http://www.w3.org/2000/svg"><g><path d="m116.1 41.5c-.9 8.6-2 16.9-3.2 25-.6 4.4-1.3 8.8-1.9 13.2-1 7.1-2.1 14.2-3 21.4-.5 4.2-1 8.4-1.5 12.7 0 .2 0 .4-.1.6-.4 4-2.2 9.6-4.9 12.8-1.4 1.6-3.3 2.8-5.3 3.7-1.9.9-4 1.5-6 2-.1 0-.3.1-.4.1-5.1 1.2-10.3 2-15.5 2.2-3.1.2-6.2.2-9.3 0-3.6-.2-7.2-.6-10.7-1.3-1.8-.3-3.6-.7-5.4-1.2-1.9-.6-3.8-1.2-5.6-2.1-3.4-1.6-6.3-3.7-8.3-6.6-1.3-1.8-2.1-3.8-2.7-5.9s-1-4.3-1.3-6.5c-.2-1.4-.5-2.8-.7-4.2-1.3-7.8-2.6-15.5-3.9-23.3-.7-3.9-1.3-7.8-2-11.8-1.9-11.3-3.8-22.7-5.7-34z" fill="#d5b6ef"/><path d="m75.9 48.9c2-.1 3.9-.2 5.9-.3 8.9-.5 23.7 0 31.2-5.1 7.3-4.9-2-11.5-7.8-13.2-21.3-6.3-48.5-6-70.2-1.9-3.5.6-7 1.4-10 3.1-15.2 8.5 8.6 14.6 16.1 16 11.4 2.1 23.2 1.9 34.8 1.4z" fill="#6d6e71"/><path d="m55.7 4.6c-2.4 2.3-6.6 1-9.6 1-2.7 0-5.5.4-8.1 1.2-5.5 1.6-10.3 4.8-14.1 9.1-4.2 4.8 2.8 11.9 7.1 7.1 4.2-4.8 9.6-7.5 16-7.3 6 .1 11.1.4 15.8-4 4.6-4.4-2.4-11.5-7.1-7.1z" fill="#fdffff"/><path d="m111 79.4c.6-4.4 1.3-8.7 1.9-13.1-.5.2-1.1.5-1.6.9-4 3.2-8.3 5.7-12.7 7.5.1-6.8.1-13.6.1-20.5.1-8.1-10-6.4-10 0 0 7.8-.1 15.7-.2 23.5-5 1-10.2 1.4-15.5 1.5 0-8.2 0-16.5.1-24.7.1-6.4-9.9-6.4-10 0-.1 8.1-.1 16.3-.1 24.4-4.3-.2-8.7-.6-13-1.1-.1-8-.1-15.9.1-23.9.2-6.4-9.8-6.4-10 0 0 7.6-.1 15.1 0 22.6-5.4-.8-10.9-1.8-15.7-4.5.7 3.9 1.3 7.8 2 11.7 4.5 1.5 9.3 2.2 14 2.8.1 1.6.1 3.2.2 4.8.3 6 .9 12.1 1.4 18.1-4-.8-7.9-1.6-11.7-2.5.2 1.4.5 2.8.7 4.2.4 2.2.7 4.4 1.3 6.5 3.4.7 6.9 1.4 10.3 2 .1 2.6.2 5.3.1 7.9 0 1 .2 1.9.6 2.6 1.1 1.9 3.5 2.6 5.6 2.1 2-.5 3.7-2 3.8-4.7.1-2.1 0-4.3 0-6.4 3.8.4 7.6.8 11.4.9.2 3.6.3 7.2.5 10.8 0 .7.2 1.4.5 1.9 1.7 3.8 7.9 3.8 9.3 0 .2-.6.3-1.2.3-2-.2-3.6-.3-7.2-.5-10.8 4.5-.2 8.9-.8 13.2-1.6-.1 2.6-.2 5.1-.4 7.7-.1 2.4 1.2 3.9 2.9 4.5 2.2.8 5.1.1 6.4-2 .4-.7.7-1.5.7-2.4.2-3.5.3-7 .5-10.5 3.1-1.1 6.1-2.5 9.1-4.1.5-4.3 1-8.5 1.5-12.6-3.2 2.4-6.7 4.4-10.2 6 .3-7.2.4-14.4.6-21.5 4.3-1.6 8.5-3.6 12.5-6zm-58.9 31.7c-.5-6.6-1.3-13.2-1.6-19.8 0-1.2-.1-2.4-.1-3.5 4.3.4 8.5.8 12.8 1 .1 7.8.3 15.6.5 23.4-3.8-.2-7.7-.5-11.6-1.1zm35.6-.8c-4.6 1.1-9.3 1.8-14 2-.3-7.7-.4-15.4-.5-23.1 5.2 0 10.3-.4 15.2-1.3-.2 7.4-.4 14.9-.7 22.4z" fill="#caaae8"/><path d="m72 23.4c-.9 3.7 3.4 7.1 2.9 10.8-.5 3.4-6.5 9-10.1 9.6s-6.7-1.9-9.9-3.6c-.8-.4-1.7-.8-2.7-.8-2.4.1-3.7 2.6-5.8 3.5-8.5 3.5-11-9.1-11.7-13.6-.1-.6-.2-1.2-.4-1.7-.9-3-3-4.9-4.7-7.9-1.9-3.6-1.7-8.8 2.2-10.7 3.2-1.6 7.2 0 10.8-.3 6.7-.5 11-6.8 17.3-8.8 5.3-1.7 11.7 0 15.1 4 .3.4.6.7.8 1.1 2.6 4 2.5 9.4-.4 13.2-1.3 1.8-3 3.3-3.4 5.2z" fill="#f1f2f2"/><path d="m113.6 29.9c-.4 1-1.6 1.6-2.7 2.2-4.5 2.5-7.8 6.4-9.1 10.8-.2.7-.4 1.4-1 1.8-.7.5-1.6.5-2.5.5-6.8-.4-16.9-5.7-19.4-11.3-.8-1.9-.6-4 .2-6.3 2.6-6.8 11.1-14.5 15.5-18.1.6-.5 1.3-1 2.1-.9.4.1.8.3 1.2.5 6.1 3.6 10.9 8.7 13.8 14.5.6 1.2 1.1 2.4 1.6 3.7.4.9.7 1.8.3 2.6z" fill="#f1f2f2"/><path d="m75.8 5.2c-.9.4-1.9.9-2.8 1.4-4.2 2.2-8.5 3.5-13 4.5-5.1 1.2-10.2 2.4-15.3 3.6-3.5.8-9.5.8-7 5.7 1.8 3.4-.6 6.6-3.4 7.4-.9-3-3-4.9-4.7-7.9-1.9-3.6-1.7-8.8 2.2-10.7 3.2-1.6 7.2 0 10.8-.3 6.7-.5 11-6.8 17.3-8.8 5.3-1.7 11.7 0 15.1 4 .3.3.6.7.8 1.1z" fill="#fff"/><path d="m111.8 23.6c-.8 0-1.6-.2-2.4-.6-3.5-1.9-9-6.1-13.1-5.2-4.3.9-7.3 6.1-8.9 9.8-1.8 3.9-6.3 2.9-8.2.1 2.6-6.8 11.1-14.5 15.5-18.1.6-.5 1.3-1 2.1-.9.4.1.8.3 1.2.5 6.1 3.5 10.9 8.6 13.8 14.4z" fill="#fff"/><path d="m18.2 35.7c-.2.8-.3 1.6-.1 2.4.1.4.2.8.4 1.1.1.3.2.5.4.7.1.7.2 1.7.3 2.9.4 3 .9 7.2 1.7 12.5.8 5.7 8.7 60.9 11 66.3.9 2.1 2.3 4.2 3.9 5.8 1.7 1.7 3.6 3 5.6 4.1 4 2.1 8.3 3.3 12.6 4.1 8.4 1.6 16.8 1.9 24.6 1.1 3.9-.4 7.6-1 11-1.8 10.6-2.4 16.1-6 18.5-18.1.4-1.8.3-1.9 1.7-13.9 2.3-19 8.3-58.1 6.7-61.3.1-.2.2-.5.3-.8.3-1.1.3-2.3 0-3.3-.7-2-2-3.4-3.4-4.6-.1-.1-.2-.2-.4-.3.6-.4 1.2-.9 1.8-1.7.4-.6.6-1.5.6-2.2s-.2-1.3-.4-1.8c-.3-.9-.7-1.8-1.1-2.6-3.2-6.5-8.9-12.1-14.9-15.3-.4-.2-.8-.4-1.2-.6s-.9-.2-1.3-.2c-.8.2-1.2.6-1.5.8-.2.3-.3.4-.3.5s.2 0 .5-.1.8-.3 1.3-.3c.3 0 .5.1.8.3s.6.4 1 .7c5.6 4 10.4 9.4 12.9 15.7.3.8.6 1.6.9 2.4.1.4.2.7.2.9s0 .3-.1.4c-.4.6-2.7 1.5-4.2 2.6-3.3 2.3-6.1 5.5-7.6 9.4-.2.5-.4 1-.5 1.4-.1.2-.1.3-.1.4v.1c-.1 0 0 0-.2 0s-.5 0-.9 0c-6.3-.4-18.8-6.6-18.1-12.7.2-1.5.8-2.9 1.4-4.2.7-1.3 1.5-2.5 2.2-3.6 5.4-7.5 11.7-11.9 10.6-13.2-1.5-1.9-11 7.6-13.6 11-.8 1-1.6 2.2-2.4 3.6-1.7-.1-3.5-.2-5.2-.3.2-.8.8-1.6 1.6-2.5 2.9-3.3 5.3-6.9 3.9-12.9-.7-3.1-2.6-6-5.1-7.8-4.6-3.6-11.2-4.5-16.8-1.8-2.5 1.2-4.5 2.6-6.3 3.9-7.3 5.1-8.7 3.9-14.2 3.5-7.2-.4-10.7 3.9-10.2 9.8.1 1.6.6 3 1.3 4.3 1.3 2.4 2.8 4.2 3.7 5.7.2.3.3.5.4.8-4.9 1-12.3 3.9-13.7 8.7zm1.7 7c-.1-.7-.3-1.2-.4-1.8 4.1 4.8 16.9 7.9 23.1 8.8.2 0 .4.1.7.1-.5 1.6-1 9.9-1.2 19.9 0 2.1-.1 4.3-.1 6.5-7.4-1.2-13.4-2.7-16.3-3.2-1.2-6.7-2.4-12.8-3.3-17.8-1-5.4-1.8-9.6-2.5-12.5zm69.8 65.7c-4 1.3-12.3 2.9-20.2 3.3 0-8.3 0-16.4-.3-29.7 7.5.1 14.6-.5 21.9-1.6-1.1 22.5-1 20.4-1.4 28zm-24.2 3.4c-.1 0-.1 0-.2 0-5.5 0-11.8-.5-18-1.7-.6-9.6-1.2-20.9-1.8-30.5 6.1 1.2 12.8 2 19.2 2.3h1c-.3 13.1-.3 21.4-.2 29.9zm.3-33.7c-.3 0-.6 0-1 0-6.3-.1-13-.6-19.1-1.4-.1 0-.3 0-.4-.1-.1-2.4-.2-4.7-.3-7-.5-9.8-.8-18-1.3-19.8 5 .7 9.2.9 12.7 1 3.8.1 6.9 0 9.3-.2.5 0 .9-.1 1.3-.1-.5 3.6-.9 15.3-1.2 27.6zm-39.9-4.2c3 1.3 8.9 3.3 16.2 4.9 0 13 .5 22 1.1 30.4-7-1.7-8.8-2.4-11.5-3.2-1.6-8.8-3.4-19-5.8-32.1zm9.1 46.3c-1.6-3.6-2.1-7.8-2.9-12-.1-.3-.1-.6-.2-.9 4.7 2.5 8.7 3.7 11.5 4.6.7 9 1.4 14.3 1.9 17.4-.8-.3-1.5-.6-2.2-1-3.6-1.8-6.6-4.5-8.1-8.1zm13.2 10.2c0-.3 0-.6 0-1 0-2.9-.3-7.9-.8-16.4.2 0 .4.1.6.1 5.4 1.3 11.5 2.2 17.3 2.4h.3c.1 9.5.3 14.7.7 17.6-3.8-.1-7.6-.5-11.5-1.2-2.3-.4-4.5-.9-6.6-1.5zm30 2.4c-3 .3-6.1.5-9.3.4.3-2.9.5-8.1.6-17.6 8.6-.2 14.4-1.5 20-3-.4 8.4-.6 13.3-.5 16.2 0 .9.1 1.5.1 2.1-.1 0-.3.1-.4.1-3.3.8-6.9 1.4-10.5 1.8zm25.9-16.7c-1.9 9.5-5.9 12.3-12.5 14.2.1-.4.1-.8.2-1.2.5-3.1 1.1-8.4 1.7-17.8 5-1.7 9.5-4 11.9-5.5-1 8.3-.9 8.6-1.3 10.3zm1.8-13.8c-.3.1-.6.3-1 .4-.9.4-7.4 3.2-11 4.4.4-7.7.8-15.7.8-27.4 5.3-1 11-2.2 15.4-5.5-1.6 9.4-2.9 18.2-4.2 28.1zm9.1-58.7c-.8 3.2-1.6 8.7-4.3 26.2-.3.3-.6.5-1 .8-4.2 3.2-10.1 4.2-15 5.1 0-4.4-.2-22.9-1.1-26.7 6.4-.2 16.6-1.1 21.4-5.4zm-11.9 1.2c.2-.3.3-.6.4-.9.1-.4.3-.8.4-1.2 1.1-3.1 3.3-5.9 6-7.9.2-.1.3-.2.5-.3.4.3.8.5 1.1.8 1.2 1 2.2 2.1 2.7 3.3.4 1.1.1 2.1-.9 3.1-2.5 2.5-7.7 3.8-11.2 4.5.1-.1.2-.2.3-.2.3-.4.6-.8.7-1.2zm-70-13.9c.4 1.8.8 3.4 1.3 4.9 1 2.9 2.2 5.2 3.8 6.8s3.4 2.2 4.7 2.2 2.1-.3 2.6-.6c1-.6.9-.9.8-1.1-.1-.3-.3-.5-1.2-.4-.5 0-1.1 0-2-.1-.8-.2-1.8-.7-2.8-1.9s-1.9-3.2-2.7-5.8c-.4-1.3-.7-2.8-.9-4.5-.1-.4-.1-.9-.2-1.3-.1-.5-.2-1.1-.3-1.6-.3-1.1-.8-2.1-1.4-3.1-1.1-2-2.6-3.7-3.5-5.6-1.3-2.6-1.3-6.5 1.6-7.8.9-.4 2.2-.5 3.6-.4 14.9.9 13.1-3.4 22.4-7.9 4.3-2.2 9.4-1.4 12.9 1 1.9 1.3 3.3 3.3 3.9 5.6 1.6 6.4-2.7 9.1-4.3 11.8-.4.7-.8 1.5-.9 2.5-.2.9 0 1.8.2 2.6s.5 1.5.8 2.2c1.1 2.3 5.6 7.5-4.6 13.6-.9.5-1.8.9-2.6 1-.9.1-1.8 0-2.7-.3-1.8-.5-3.4-1.5-4.9-2.3-.8-.4-1.5-.8-2.3-1.1s-1.7-.4-2.5-.2-1.4.6-1.9.9c-.5.4-.9.8-1.2 1.1-1.3 1.4-2.2 1.9-2.2 2s.3 0 .8-.2 1.1-.6 1.9-1.2 1.7-1.3 2.8-1.5 2.4.6 3.8 1.5c1.5.9 3 2 5.1 2.8 1 .4 2.2.6 3.5.6.6 0 1.3-.2 1.9-.4s1.2-.5 1.7-.8c4.3-2.3 10-7.7 7.9-13.1-.4-1.2-1-2.2-1.4-3.2.9 0 1.9.1 2.8.1-.3.8-.5 1.6-.6 2.5-.6 5.2 3.3 9.1 7.8 12 3.6 2.3 8 4.2 12.2 4.8-2.2.2-4.2.4-6.1.5-4.4.3-8.1.5-10.5.8-2.5.3-3.9.5-3.8.6 0 .3 5.5.2 14.5.2.9 0 1.8 0 2.7-.1-.6 2.5-1.2 15.9-1.8 27.2-7.4 1.1-14.7 1.7-22.2 1.9-.3-12.4-.8-24.1-1.4-27.5 3.6-.2 5.7-.5 6.8-.8 1.3-.3 1.4-.6 1.4-.9s-.1-.5-1.5-.7c-1.3-.2-3.9-.3-8.7-.4-2.4-.1-5.4-.1-9.1-.3s-8.1-.6-13.3-1.5c-6.8-1.2-22.1-5.6-21.2-9.2.1-.4.5-1 1.1-1.5 2.5-2.6 5.5-3.6 9.4-4.4z" fill="#202020"/></g></svg>