<svg id="Layer_1" enable-background="new 0 0 135 135" height="512" viewBox="0 0 135 135" width="512" xmlns="http://www.w3.org/2000/svg"><g><path d="m84.9 22.7-33.4.4-6 .1c1.6-1.6 1.9-4.2.8-6.1-.7-1.3-2.1-2.4-2.4-3.9s.6-3 1.7-4.1c4.1-4.3 10.8-5.7 17-5.7 6 0 12.3 1.2 17 4.6.4.3.7.6 1 .8 4.2 3.7 6.3 9.2 4.3 13.9z" fill="#bcbec0"/><path d="m92.4 106.6c-.1 4.8-.2 9.9-2.6 14.2-7.7 13.6-37.6 14.1-47.6 2-1.8-2.1-2.9-4.6-3.2-7.4-.1-1-.2-2-.3-3-2.4-23-2.6-47.4.1-70.2.7-5.6 1.6-11.4 5.4-15.9 5.9-7 27.8-8.7 38.5-3.7 2.2 1 3.9 2.3 5 3.9.9 1.3 1.5 2.8 1.9 4.2.6 2 .9 4.1 1.2 6.1.7 5.1 1.1 10.1 1.5 15.2 1.1 18.1.3 36.3.1 54.6z" fill="#f18ff9"/><path d="m80.7 8.9c-4 .8-8 1.1-12.1 1.1-4.4 0-10.6-.9-14.4 1.9-2.8 2-1.4 7.6-2.7 11.3l-6 .1c1.6-1.6 1.9-4.2.8-6.1-.7-1.3-2.1-2.4-2.4-3.9s.6-3 1.7-4.1c4.1-4.3 10.8-5.7 17-5.7 6 0 12.3 1.2 17 4.6.4.3.8.6 1.1.8z" fill="#dbdbdb"/><path d="m89.6 30.6c-.9.4-1.9.6-3.1.5-8.8-1.3-19.5-1-28.1 1.7-8.2 2.5-10.7 12.1-12.4 19.6-4.1 17.8-4.2 37.2-4.2 55.4 0 2.4-1.4 3.9-3.1 4.5-2.4-23-2.6-47.4.1-70.2.7-5.6 1.6-11.4 5.4-15.9 5.9-7 27.8-8.7 38.5-3.7 2.2 1 3.9 2.3 5 3.9.8 1.3 1.4 2.7 1.9 4.2z" fill="#f7b0ff"/><path d="m92.4 106.6c-.1 4.8-.2 9.9-2.6 14.2-7.7 13.6-37.6 14.1-47.6 2 15.5 2.3 34.1 1.6 39.8-15.8 5.3-16 4.2-33.8 5.7-50.3.3-2.8 2.3-4.4 4.6-4.7 1.1 18.1.3 36.3.1 54.6z" fill="#e982f4"/><path d="m97.9 12.6c-1.7-2.3-4.2-3.8-6.6-4.4s-4.7-.4-6.2.1c-.7.2-1.2.5-1.5.7-.2-.3-.5-.6-.8-.8-6.2-6.2-16.7-7.5-25.3-6.3-2.5.4-5.2 1.1-7.6 2.3s-4.6 2.9-6.2 5.1c-.4.6-.7 1.3-.9 2s-.2 1.6 0 2.4c.6 2.1 3.9 3.5 3.2 7.3-.2 1.1-.7 2-1 2.8-1.2.9-2.1 1.9-3.4 3.8-8.7 13.7-6.5 70-4.5 88.2 1.3 10.6 12.6 16.1 23.5 17.3 4.7.5 9.3.3 13.6-.6 15-3 19.7-11.4 20.1-22.7.4-25.4 1.5-53.8-2.6-76.3-.4-2-.9-3.7-1.6-5.1h.7c.9-.1 2.3-.5 4-1.7 5.1-3.5 6.2-9.7 3.1-14.1zm-7.8 13.2c-.5.3-.7.5-.9.7-.2-.3-.4-.6-.6-.8-1.4-1.8-2.8-2.5-3.7-2.9-1.8-.8-2.1-.5-2.2-.3-.1.3-.1.5 1.4 1.6.7.6 1.8 1.4 2.7 2.9.9 1.6 1.8 3.9 2.3 7.2 2.9 23.1 1.9 45.7 1.4 75.6-.6 16.1-13.4 21-29.2 19.4-8.8-.9-18.9-5.1-20.2-13.8-2.3-19.3-5-73.8 2.7-86.5.5-.8 1.1-1.7 1.7-2.3.6-.7 1.3-1.2 2.1-1.7 7.1-4.5 20.9-5.4 29.9-3.7 3.5.7 5.3 1.5 5.3 1.3 0-.1-.4-.3-1.2-.7-.9-.4-2.2-.9-3.9-1.4-8.9-2.4-22.7-1.9-30.5 2.3.2-.3.4-.7.6-1.2 1.7-4.5-2.1-7.4-2.2-8.4-.1-.6.2-1.3.8-2.1.6-.7 1.4-1.5 2.3-2.1s1.9-1.2 2.9-1.6c2.1-.9 4.4-1.4 6.7-1.6 8.2-.9 18.9.6 23.8 7.3 3.1 4.4 2.3 7.7 2.6 9.1.1.5.3.6.6.7s.5.2.9-.2c.2-.2.4-.5.7-1 1.1-2.3 1.1-6.4-1.6-10.7-.2-.3-.4-.6-.7-.9h1.1c1.4 0 3.2.3 5 1.1 6 2.5 7.4 9.7-.6 14.7z" fill="#202020"/></g></svg>