 

<svg viewBox="0 0 16 16" fill="none" xmlns="http://www.w3.org/2000/svg">
                    <path d="M8.91087 3.75559C9.361 3.25036 9.6376 3.02353 10.1809 2.73676V11.1498L8.91087 11.4123V3.75559Z" fill="currentColor"></path>
                    <path d="M12.9686 7.98529C13.2319 7.42956 13.2629 7.18256 13.3333 6.61249L3.5987 8.72629C3.36786 9.24049 3.29355 9.52789 3.25797 10.0384L12.9686 7.98529Z" fill="currentColor"></path>
                    <path d="M12.9686 10.5621C13.2319 10.0065 13.2629 9.75946 13.3333 9.18933L8.95733 10.1155C8.9264 10.625 8.96193 10.8863 8.9264 11.3968L12.9686 10.5621Z" fill="currentColor"></path>
                    <path d="M12.9686 13.1387C13.2319 12.5829 13.2629 12.3359 13.3333 11.7659L9.34453 12.6317C9.1432 12.9096 9.01927 13.3727 8.9264 13.9733L12.9686 13.1387Z" fill="currentColor"></path>
                    <path d="M6.63424 12.2612C7.0214 11.7827 7.42407 11.1806 7.70287 10.6867L3.00739 11.7044C2.77655 12.2186 2.70224 12.5061 2.66667 13.0166L6.63424 12.2612Z" fill="currentColor"></path>
                    <path d="M6.4329 3.04551C6.883 2.54027 7.1596 2.31345 7.70287 2.02667V10.7176L6.4329 10.98V3.04551Z" fill="currentColor"></path>
                </svg>
