<?xml version="1.0" encoding="utf-8"?>
<svg xmlns="http://www.w3.org/2000/svg" width="23" height="37" viewBox="0 0 23 37" fill="none">
<path d="M17.7619 10.917C18.83 11.0018 19.8133 11.0866 20.7967 11.1714C21.0171 11.1883 21.2375 11.2222 21.424 11.307C21.797 11.4596 21.9835 11.7647 22.0174 12.1886C22.0513 12.7481 21.9495 13.2737 21.7461 13.7823C21.5087 14.3927 21.2544 14.986 20.9662 15.5625C20.2711 16.9866 19.5081 18.3769 18.6774 19.7332C17.0328 22.3781 15.4052 25.006 13.8115 27.6847C13.0486 28.9563 12.4213 30.2957 11.7092 31.5842C10.9971 32.8897 10.2511 34.1952 9.53907 35.5006C9.14912 36.2297 8.48791 36.5857 7.75888 36.8061C6.91117 37.0604 6.02955 36.5518 5.75828 35.7041C5.55483 35.0598 5.53788 34.3986 5.79219 33.7883C6.24995 32.6862 6.77553 31.6181 7.30111 30.55C7.47066 30.2109 7.74192 29.9397 8.08101 29.7362C8.58963 29.431 8.8609 29.5328 8.99653 30.0922C9.01349 30.1431 9.01349 30.194 9.0474 30.3296C9.16608 30.1601 9.25085 30.0583 9.31866 29.9397C10.4546 28.1086 11.4888 26.2097 12.4213 24.26C13.8793 21.2082 15.5069 18.2582 17.1345 15.2912C17.3719 14.8504 17.6601 14.4435 17.9144 14.0027C17.9823 13.884 18.0501 13.7823 18.1348 13.6297C17.5414 13.5958 16.9989 13.5619 16.4733 13.528C16.3207 13.511 16.236 13.5958 16.1512 13.7314C15.9478 14.0536 15.7443 14.3757 15.5409 14.6978C15.117 15.4099 14.4897 15.732 13.6589 15.6642C13.4216 15.6473 13.1673 15.6473 12.9299 15.5794C12.2856 15.4269 11.9635 14.8504 12.1331 14.2062C12.1839 14.0197 12.2687 13.8501 12.3535 13.6806C13.9641 10.7984 15.5578 7.9331 17.1854 5.06784C17.6601 4.23709 18.2027 3.44024 18.7113 2.60948C18.7791 2.4908 18.8469 2.38908 18.9317 2.23649C18.6943 2.21954 18.5248 2.21954 18.3383 2.18563C17.9144 2.11781 17.694 1.88045 17.6432 1.50746C17.6093 1.21924 17.711 1.03274 17.9823 0.914062C18.1518 0.846245 18.2705 0.727566 18.4061 0.625841C18.5587 0.507161 18.7791 0.388482 18.9826 0.388482C19.7964 0.337619 20.5763 0.303711 21.3731 0.303711C21.6613 0.303711 21.9665 0.354574 22.2547 0.42239C22.8481 0.558024 23.1194 0.998833 22.9498 1.57528C22.8651 1.88045 22.7294 2.18563 22.5429 2.45689C21.8817 3.37242 21.3053 4.35576 20.7967 5.38997C19.932 7.13625 18.9995 8.83167 17.9992 10.4932C17.9314 10.6119 17.8636 10.7305 17.7619 10.917Z" fill="black"/>
<path d="M5.1987 18.0038C4.69008 18.0377 4.21536 18.0716 3.72369 18.0885C2.96075 18.1394 2.18086 18.1903 1.41792 18.2242C1.24838 18.2411 1.09579 18.2411 0.926246 18.2242C0.265032 18.1564 -0.10796 17.6308 0.0276732 16.9865C0.0446274 16.9187 0.0615816 16.8509 0.09549 16.8C0.858429 14.7994 1.40096 12.748 1.90959 10.6796C2.48603 8.39074 3.07943 6.10192 3.67283 3.83006C3.79151 3.38925 3.92714 2.94844 4.04582 2.50763C4.21536 1.91424 4.55444 1.52429 5.1987 1.45647C5.87687 1.38866 6.53809 1.26998 7.21625 1.21911C10.268 1.03262 13.3198 0.693533 16.3546 0.337495C17.1175 0.252724 17.8974 0.184907 18.6603 0.134045C18.9316 0.117091 19.2029 0.134045 19.4572 0.201862C20.1014 0.354449 20.3727 0.964801 20.1184 1.5582C20.0336 1.74469 19.9149 1.91424 19.7963 2.08378C19.4911 2.5585 19.1859 3.01626 18.8977 3.49098C18.1178 4.8134 17.3549 6.13583 16.558 7.44131C15.7612 8.74678 14.9474 10.0523 14.1336 11.3577C13.8962 11.7307 13.6588 12.0868 13.4215 12.4428C13.3537 12.5445 13.2859 12.6632 13.1841 12.8327C13.3537 12.8327 13.4554 12.8327 13.5571 12.8327C14.9643 12.8497 16.3715 12.8497 17.7787 12.8667C17.8804 12.8667 17.9991 12.8836 18.1008 12.9006C18.7451 13.0362 19.0672 13.6296 18.8299 14.2399C18.7451 14.4603 18.5925 14.6638 18.4399 14.8503C17.7448 15.7658 17.0327 16.6644 16.3546 17.5969C16.0324 18.0377 15.7442 18.5294 15.4899 19.021C14.1166 21.632 12.7603 24.226 11.4209 26.8539C10.0307 29.5496 8.67431 32.2792 7.30102 34.9749C7.1993 35.1784 7.08062 35.3818 6.91108 35.5514C6.50418 35.9752 5.96164 35.9413 5.53779 35.5514C5.23261 35.2631 5.06307 34.9241 5.04612 34.5172C4.99525 33.7542 4.92744 32.9743 4.94439 32.1944C4.99525 29.414 5.09698 26.6335 5.14784 23.853C5.18175 21.9711 5.18175 20.0891 5.1987 18.2072C5.23261 18.1564 5.21566 18.0885 5.1987 18.0038Z" fill="#EA552B"/>
</svg>