<svg id="Capa_1" enable-background="new 0 0 512 512" height="512" viewBox="0 0 512 512" width="512" xmlns="http://www.w3.org/2000/svg"><g><path d="m438 484s-54 28-182 28-182-28-182-28 85.484-20 186-20 178 20 178 20z" fill="#f1edde"/><g><ellipse cx="256" cy="206" fill="#f7e372" rx="214" ry="206"/><path d="m428 206c0 111-81.007 170-176 170s-168-76.112-168-170 64-170 172-170c117 0 172 76.112 172 170z" fill="#e7b236"/><g fill="#f7e372"><g><path d="m257 75-95 142 89 22 83-36z"/><path d="m162 239 88 90 84-108-84 33z"/></g><path d="m118 195-18 28 20 16 12-20z"/><path d="m398 192-16 23 16 13 12-11z"/></g></g></g></svg>