<svg id="Capa_1" enable-background="new 0 0 512 512" height="512" viewBox="0 0 512 512" width="512" xmlns="http://www.w3.org/2000/svg"><g><g><g><path d="m456 358-2-36h-399l-1 34 194 24z" fill="#c2c2b5"/><path d="m456 358-271.958-1.353-7.042-24.647-92 4-3.356 20.138-27.644-.138-4 106 412 4z" fill="#ecedde"/></g><g fill="#c2c2b5"><g><path d="m98 377 64-5v10l-64 2z"/><path d="m155 390h-20v26h19z"/><path d="m127 390-21 1 3 47 19-1z"/></g><g><path d="m404.5 438.5-64-3v10h64z"/><path d="m394.5 397.5-17-2v32l20 1z"/><path d="m369.5 373.5-20 1-2 50 22 3z"/></g><path d="m288 404-7.647-.12-.353-9.88-18-2-.362 11.588-7.638-.119v-23.469l-20 1-.836 22.143-9.164-.143v11h8.755l-.755 20 22 2v-22h7.312l-.312 10 20-2-.286-8h7.286z"/></g></g><path d="m326 471-68-47 5 84 16.109-20.62 8.891 24.62 29-20-19.418-17.261z" fill="#827d7a"/><g><ellipse cx="256" cy="140" fill="#ebd280" rx="148" ry="140"/><path d="m190 82-2 116 136 2-6-120z" fill="#e3af80"/></g></g></svg>