<svg id="Capa_1" enable-background="new 0 0 512 512" height="512" viewBox="0 0 512 512" width="512" xmlns="http://www.w3.org/2000/svg"><g><g><path d="m489 493 1-467-466 3v454zm-446-442 431-9-11 422h-420z" fill="#ecedde"/><g fill="#c2c2b5"><path d="m508 444-64-4-4 68 72 4z"/><path d="m288 444-73-1 5 69 63-4z"/><path d="m71 4-71-4v67l66 4z"/><path d="m67 220.5-64 3-3 60 64 6z"/><path d="m508 4-68-4v68l72 4z"/><path d="m288 4-64-4-8 72h76z"/><path d="m508 224-68-4v70l72-4z"/><path d="m66 440-62 6-4 66 68-2z"/><path d="m276 275-40-2 3-35 33-1z"/></g></g><path d="m446 351-156-68 44 160 27.711-49.879 24.289 45.879 52-48-40-26.667z" fill="#827d7a"/></g></svg>