<svg id="Capa_1" enable-background="new 0 0 512 512" height="512" viewBox="0 0 512 512" width="512" xmlns="http://www.w3.org/2000/svg"><g><g><path d="m9 430 17-229 450 9 24 206-58 21-358 7z" fill="#946e4d"/><path d="m0 512 5-36 79-32 358-7 63 27 7 48z" fill="#946e4d"/><g fill="#7b4920"><path d="m9 430h74l354-4 63-10 5 48-66-5-356 7-78 10z"/><path d="m61 173 14 160 333-1 33-153z"/><path d="m56 512 23-145 351 5 26 140z"/></g><path d="m91 512 11-115 295 7 24 108z" fill="#e4883c"/><path d="m371 313-6 42-240-6-10-36z" fill="#7b4920"/><g fill="#7b4920"><path d="m200 433 58 65 31-20-65-60z"/><path d="m189 474 22 21 82-56-22-18z"/></g></g><g><path d="m126 304 21-300 209-4 14 312z" fill="#f7e372"/><ellipse cx="309" cy="52" fill="#e4883c" rx="24" ry="28"/><g fill="#e7b236"><path d="m264 289-20-1 1-9h19z"/><path d="m262 273-18-2v-8h18z"/><path d="m264 257h-19l-1-9 20-3z"/><path d="m264 240h-20v-7l20-3z"/><path d="m264 216h-20v-8l20-2z"/><path d="m264 201-20-2 1-8h19z"/><path d="m264 186-20-2v-8h20z"/><path d="m264 171-20-1 2-9h18z"/><path d="m264 144-20-3v-7h20z"/><path d="m264 130h-18l-2-7 20-1z"/><path d="m264 117h-20v-8l20-2z"/><path d="m264 102h-20l1-8 19-4z"/><path d="m264 75-20-2v-7l20-1z"/><path d="m264 60h-19l-1-6 20-2z"/><path d="m264 47h-20v-6l20-2z"/><path d="m264 34h-20l1-8 19-2z"/></g><g fill="#e39f33"><path d="m160 279 4-43 38-1 2 48z"/><path d="m302 236 22-2 2 57-23-2z"/><path d="m324 219-22 1 1-39h17z"/></g></g></g></svg>