<svg id="Capa_1" enable-background="new 0 0 512.062 512.062" height="512" viewBox="0 0 512.062 512.062" width="512" xmlns="http://www.w3.org/2000/svg"><g><path d="m138.031 254.062 140-2-9-138-128 2z" fill="#e3af80"/><path d="m512.031 420.062-152-72 40 164 28.054-50.497 24.946 44.497 55-42-44.431-30.546z" fill="#827d7a"/><g fill="#ecedde"><path d="m210.031 15.062h32l2-15h-36z"/><path d="m296.031.062-36 1v14h35z"/><path d="m156.031 15.915 33-.506v-15.409l-33 .188z"/><path d="m109.031 17.062 31-1 1-16h-31z"/><path d="m53.031 16.062h33l3-16h-36z"/><path d="m337.031 133.062 16-1v-27l-15-1z"/><path d="m353.031 203.062-19 1-1 23h20z"/><path d="m353.031 155.062h-17l-1 28 18 1z"/><path d="m86.031 331.062v-17h-36l1 16z"/><path d="m314.031 14.062h28l-1 19h13v-33h-44z"/><path d="m353.031 245.062-20 1-1 28h20z"/><path d="m341.031 50.062-2 34h15v-35z"/><path d="m.031 121.062 14-1v-24h-14z"/><path d="m.031 168.062h13l1-28-14-2z"/><path d="m.031 81.062 14-2 1-26h-14z"/><path d="m37.031 314.062h-24v-24l-13-1v40l35 1z"/><path d="m331.031 293.062-1 21h-19l1 21 40 1v-41z"/><path d="m.031 218.062 13 1v-33l-13 4z"/><path d="m138.031 314.062h-36l2 17 32 1z"/><path d="m.031 275.062 13-1 1-35h-13z"/><path d="m234.031 314.062h-32l2 19 31 1z"/><path d="m188.031 314.062h-33v18l33 1z"/><path d="m15.031 34.062v-17h18l1-17h-34l1 33z"/><path d="m293.031 314.062h-37l4 20 33 1z"/></g><ellipse cx="136.031" cy="146.062" fill="#ebd280" rx="74" ry="70"/></g></svg>