<svg id="Capa_1" enable-background="new 0 0 512 512" height="512" viewBox="0 0 512 512" width="512" xmlns="http://www.w3.org/2000/svg"><g><g><path d="m470 206c0 113.771-71 206-210 206-118.189 0-218-92.229-218-206s95.811-206 214-206c97 0 214 92.229 214 206z" fill="#f7e372"/><ellipse cx="256" cy="206" fill="#e7b236" rx="172" ry="170"/><g fill="#f7e372"><path d="m132 211c0 8.837-5.373 16-12 16s-12-5.386-12-14.222c0-8.837 5.373-17.778 12-17.778s12 7.163 12 16z"/><ellipse cx="394" cy="214" rx="10" ry="12"/><g><path d="m340 309-91-1-85 6-5-39 41-26 13-147 101-8 39 52-41 13-23-22-41 9-1 119 98 12z"/><path d="m162 182 124 15-4 29-118-1z"/></g></g></g><path d="m438 484s-54 28-182 28-182-28-182-28 91.484-20 192-20 172 20 172 20z" fill="#f1edde"/></g></svg>