<svg id="Capa_1" enable-background="new 0 0 512 512" height="512" viewBox="0 0 512 512" width="512" xmlns="http://www.w3.org/2000/svg"><g><g><path d="m439 494-18-75-336-7-22 82z" fill="#e4b236"/><path d="m38 512 9-82h98l14 32.008 296-5.008 19 55z" fill="#f7e372"/></g><g><g><path d="m84 370 344 6-30-282-110-94-180 10z" fill="#ecedde"/><path d="m288 0 5 96 105-2z" fill="#c2c2b5"/></g><path d="m330 174-73-30-77 39 2 78 73 31 77-37zm-137 78-3-56 54.006 12.006 2 67zm9-69 55-28 49 20-50 18zm61 91 2-68 54-18 1 56z" fill="#c2c2b5"/></g></g></svg>