<svg id="Capa_1" enable-background="new 0 0 512 512" height="512" viewBox="0 0 512 512" width="512" xmlns="http://www.w3.org/2000/svg"><g><g><g><path d="m454 385-17-366-89 6v364z" fill="#e7b236"/><path d="m357 45 61 4-9 256h-52z" fill="#f1edde"/><path d="m73 16-15 384 369 12 3-151-41-38-10-223z" fill="#f7e372"/></g><g fill="#e7b236"><path d="m316 200h-163l-12 132 184-4zm-160 115 7-84h140l7 80z"/><path d="m153 247h160v9l-160 5z"/><path d="m191 216-8 102h18v-102z"/><path d="m153 280 161-4 1 12h-162z"/></g></g><path d="m438 484s-54 28-182 28-182-28-182-28 71.484-20 172-20 192 20 192 20z" fill="#f1edde"/></g></svg>