<svg id="Capa_1" enable-background="new 0 0 512 512" height="512" viewBox="0 0 512 512" width="512" xmlns="http://www.w3.org/2000/svg"><g><path d="m30 512h442l16-424h-464l9 150z" fill="#cf7f58"/><g><path d="m387 267 9 175-284 2 16-178z" fill="#f1edde"/><g fill="#d3c2b5"><path d="m201 297-7 90 119 4-1 13-136 1 10-107z"/><path d="m201 363 32-38 38 29 32-37 14 11-44 50-36-25-19 24z"/><path d="m282 316 42 27-7-33z"/></g></g><path d="m159 157-7 58 204-1-13-59z" fill="#b56f4a"/><path d="m377 411 33-5-7-91h-35z" fill="#e9a671"/><g><path d="m0 123 512 3-8-126-265 14-229-4z" fill="#e9a671"/><g fill="#cf7f58"><path d="m69.333 11.036 5.667 13.964 75 6 6.576-18.44z"/><path d="m333.505 9.007 10.495 15.993 84-6 9.139-15.468z"/></g></g></g></svg>