<svg id="Capa_1" enable-background="new 0 0 512 512" height="512" viewBox="0 0 512 512" width="512" xmlns="http://www.w3.org/2000/svg"><g><path d="m480 511.5h-448l1-272-9-152h464l-16 135z" fill="#cf7f58"/><g><path d="m512 126.5-311.999-18-200.001 11 8-112 494-7z" fill="#e9a671"/><g fill="#cf7f58"><path d="m61.163 6.747 2.837 16.753 97-2 7.511-16.274z"/><path d="m332.54 2.901 7.46 15.599 119 5 5.286-22.466z"/></g></g><g><path d="m133 264.5-9 171 264 2-20-178z" fill="#f1edde"/><g fill="#d3c2b5"><path d="m208 292.5-4 92 125 3-2 12-140 1 7-106z"/><path d="m223 370.5 55-2 1-19-58-3z"/><path d="m221 334.5 84 2v-22l-80-8z"/></g></g><path d="m335 152.5 11 58-196-5 9-55z" fill="#b56f4a"/><path d="m356 299.5 24 8 17-8 15 106-51 6z" fill="#e9a671"/></g></svg>