<svg id="Capa_1" enable-background="new 0 0 512 512" height="512" viewBox="0 0 512 512" width="512" xmlns="http://www.w3.org/2000/svg"><g><g><path d="m435 494-16-69-340-11-16 80z" fill="#e4b236"/><path d="m38 512 13-80h106l10 30.008 288-1.008 19 51z" fill="#f7e372"/></g><g><g><path d="m88 368 336 8-30-290-100-86-182 10z" fill="#ecedde"/><path d="m294 0 1 92 99-6z" fill="#c2c2b5"/></g><path d="m272.292 268.3-5.919-72.717 19.627-1.583v19l29 1-4-38-110 9-4 30 27 1v-17l23.503-1.895-5.831 71.639-17.672.256-4 23 78-2-5-22z" fill="#c2c2b5"/></g></g></svg>