<svg id="Capa_1" enable-background="new 0 0 512 512" height="512" viewBox="0 0 512 512" width="512" xmlns="http://www.w3.org/2000/svg"><g><g><path d="m439 494-22-77-336 3-18 74z" fill="#e4b236"/><path d="m38 512 11-76h106l18 30.008 282 4.992 19 41z" fill="#f7e372"/></g><g><g><path d="m88 376 336-7-30-277-108-92-178 12z" fill="#ecedde"/><path d="m286 0 5 94 103-2z" fill="#c2c2b5"/></g><g fill="#c2c2b5"><path d="m237 188-51 28-13-21 57-23z"/><path d="m235 210 54 19-12 17-48-21z"/><path d="m209 228-41 15 7 13 45-13z"/><path d="m270 193 36-19 12 13-38 23z"/><path d="m242 267 34 25 14-13-39-23z"/><path d="m308 247 26-31 14 7-24 33z"/></g></g></g></svg>