<svg id="Capa_1" enable-background="new 0 0 512 512" height="512" viewBox="0 0 512 512" width="512" xmlns="http://www.w3.org/2000/svg"><g><g><path d="m470 208c0 128-95.811 204-214 204s-214-92.229-214-206 119-206 214-206c118.189 0 214 94.229 214 208z" fill="#f7e372"/><path d="m428 206c0 123-81.007 170-176 170s-168-76.112-168-170c0-72 77.007-170 172-170s172 76.112 172 170z" fill="#e7b236"/><g fill="#f7e372"><g><path d="m340 195-26-90-141 2-5 35 38 7-14 119-31 6v28l178 11 22-103-82-10zm-54-53 6 31-42 11 2-44zm27 99-15 29h-52l2-47z"/><path d="m211 112-4-32h28l-3 32z"/><path d="m262 80-4 32h21l11-32z"/><path d="m202 294-6 32h32l-5-32z"/><path d="m260 294-6 34h28l-4-34z"/></g><path d="m147 201-16-1-3-21-29 33 21.001-1-2.001 20z"/><path d="m412 198-12-2-1-14-21 25 14-1 1 16z"/></g></g><path d="m438 484s-54 28-182 28-182-28-182-28 97.484-20 198-20 166 20 166 20z" fill="#f1edde"/></g></svg>