<svg id="Capa_1" enable-background="new 0 0 512 512" height="512" viewBox="0 0 512 512" width="512" xmlns="http://www.w3.org/2000/svg"><g><g><g><path d="m456 356-2-36h-399l-1 36 194 24z" fill="#c2c2b5"/><path d="m456 356h-269.857l-5.143-24h-90l-5.143 24h-31.857l-4 108h412z" fill="#ecedde"/></g><g fill="#c2c2b5"><g><path d="m96 377-3 64h10v-64z"/><path d="m111 384v20h32l-1-20z"/><path d="m111 412v20l56-1-2-19z"/></g><g><path d="m400 377-1 64h10l-2-64z"/><path d="m359 385v19h32v-20z"/><path d="m337 412-1 20 55 1v-21z"/></g><path d="m284 431-2-20h-22.938l-.218-7h11.156l-1-20-10.77.359-.23-7.359h-7l-.119 7.604-11.881.396-1 19h12.578l-.109 7h-21.469l-1 19 22.166.396-.166 10.604h10l-.326-10.435z"/></g></g><g><path d="m96 7-6 277h332l-16-284z" fill="#e3af80"/><path d="m91.343 222h168.657l-9-160-156.254 2.912z" fill="#ebd280"/></g><path d="m209 471-68-47 5 84 16.109-20.62 8.891 24.62 29-20-19.418-17.261z" fill="#827d7a"/></g></svg>