<svg id="Capa_1" enable-background="new 0 0 512 512" height="512" viewBox="0 0 512 512" width="512" xmlns="http://www.w3.org/2000/svg"><g><path d="m476 511.5h-438l-10-424h456z" fill="#cf7f58"/><g><path d="m125 259.5-11 179 280 4-16-186z" fill="#f1edde"/><g fill="#d3c2b5"><path d="m321 294.5h-130l-10 106 148-1zm-126 92 6-67 108 2 6 62z"/><path d="m319 334.5h-128v8l128 2z"/><path d="m223 307.5-6 82h14l1-82z"/><path d="m191 360.5 130-3v12h-130z"/></g></g><path d="m152 158.5-11 52 220-1-11-59z" fill="#b56f4a"/><path d="m101 401.5 28 2 4-86-22 2z" fill="#e9a671"/><g><path d="m0 124.5 512-11-10-108-226 10-266-15z" fill="#e9a671"/><g fill="#cf7f58"><path d="m74.884 4.159 2.116 17.341 91 3 5.199-14.797z"/><path d="m345.422 12.428 8.578 15.072h91l6.459-19.764z"/></g></g></g></svg>