<svg id="Capa_1" enable-background="new 0 0 512 512" height="512" viewBox="0 0 512 512" width="512" xmlns="http://www.w3.org/2000/svg"><g><path d="m40 512h424l3-331 13-93h-448z" fill="#cf7f58"/><g><path d="m0 119 241-4 271 11-4-126-500 8z" fill="#e9a671"/><g fill="#cf7f58"><path d="m73.506 6.952 5.494 17.048 89-3 6.172-15.659z"/><path d="m310.892 3.154 7.108 15.846h92l6.77-17.54z"/></g></g><g><path d="m115 267-9 175 296-6-24-178z" fill="#f1edde"/><g fill="#d3c2b5"><path d="m227 400 38-1-7-62-29 3z"/><path d="m285 399 44-3-15-99h-31z"/><path d="m205 400-32 2 5-35 24-2z"/></g></g><path d="m370 309 32-9 18 99-40 6z" fill="#e9a671"/><path d="m156 161-11 58 212-5-13-59z" fill="#b56f4a"/></g></svg>