<svg id="Capa_1" enable-background="new 0 0 512 512" height="512" viewBox="0 0 512 512" width="512" xmlns="http://www.w3.org/2000/svg"><g><g><path d="m395 196 51 40 40 160-128 116z" fill="#827d7a"/><path d="m380 225 53 18 34 141-120 127z" fill="#554945"/></g><g><path d="m160 504-134-108 18-156 130-76z" fill="#827d7a"/><g fill="#554945"><g><path d="m120 387-32-19 1-46 31-7z"/><path d="m120 311-28-12 6-39 22-13z"/></g><path d="m145 203-87 42-16 138 118 112v-18l-103-104 11-119 77-28z"/><path d="m60 270 18 13-5 45-22 18z"/></g><path d="m60 284 9 5-1 8-10-1z" fill="#b8e064"/><path d="m58 301 10 1-1 5h-10" fill="#b8e064"/><path d="m66 312h-9l-1 7 9-1z" fill="#b8e064"/></g><path d="m181 11 162-11 66 176 18 194-69 142-198-8-61-114 20-222z" fill="#e2e2d5"/><path d="m334.18.599-147.366 10.006-51.814 168.395 84 17 30-113h24l26 120 91-17z" fill="#554945"/><g fill="#e2e2d5"><path d="m151 162 59 18 30-113h15l-5-63-50 5z"/><path d="m265 1 1 66 18 3 24 118 65-18-53-170z"/></g><g><path d="m250 99 21-1 7 66h-38z" fill="#554945"/><path d="m256 104h9l4 52-20 1z" fill="#827d7a"/><g fill="#554945"><g><path d="m251 108 8 1v6l-8 1z"/><path d="m270 108-8 1v6h8z"/><path d="m250 120 8 1v5l-8 2z"/><path d="m270 120-7 1v5l7 1z"/><path d="m250 132 8 1v6l-8 2z"/><path d="m270 132-8 1v6l8 1z"/><path d="m249 146h8v6l-8 1z"/><path d="m270 145-8 1v6l8 1z"/></g><path d="m248 162 4 8h14l4-8z"/></g></g><g><path d="m282 177h-46l2 25 10 1 3 9 15 1 3-9h10z" fill="#554945"/><path d="m273 184h-28l1 12h7l2 7h7l4-6h5z" fill="#827d7a"/><path d="m252 187-1 6h16l-1-6z" fill="#554945"/></g></g></svg>