<svg id="Capa_1" enable-background="new 0 0 512 512" height="512" viewBox="0 0 512 512" width="512" xmlns="http://www.w3.org/2000/svg"><g><path d="m291 361h-79l-22 144h156zm-35 88c-17.673 0-32-10.745-32-24s14.327-24 32-24 32 10.745 32 24-14.327 24-32 24z" fill="#827d7a"/><path d="m231 306-229 26-2 55 512-14-4-48z" fill="#e2e2d5"/><path d="m2 332 506-7-28-325-468 10z" fill="#39231d"/><g><path d="m44 39-4 265 428-8-24-266z" fill="#ffffe8"/><g><path d="m180 201c0-47.464 29-83 75-83 38.597 0 72 30.536 72 78h10c0-53.201-38.709-91-82-91-53 0-90 42.799-90 96z" fill="#ecedde"/><g fill="#c2c2b5"><path d="m346 187-30-2-2 32 34-1z"/><path d="m186 192-27 1-3 29h32z"/><path d="m340 97c-8.239 0-15.31 4.486-18.373 10.891l-51.851-.309-.776-13.582-33 1-.354 12.379-44.265-.263c-2.172-6.956-10.013-12.116-19.381-12.116-11.046 0-20 7.163-20 16s8.954 16 20 16c9.3 0 17.094-5.085 19.333-11.964l44.027 2.359-.36 12.605 36-1-.556-9.726 51.131 2.739c3.038 6.457 10.144 10.987 18.425 10.987 11.046 0 20-8.059 20-18s-8.954-18-20-18z"/></g></g><path d="m271 207 6 68 20-23 32-6z" fill="#827d7a"/></g><path d="m144 512h249l-9-24-236 5z" fill="#e2e2d5"/></g></svg>