<svg id="Capa_1" enable-background="new 0 0 510 510" height="512" viewBox="0 0 510 510" width="512" xmlns="http://www.w3.org/2000/svg"><g><g><g><path d="m456 350-1-32h-400l-1 36 194 24z" fill="#c2c2b5"/><path d="m456 350-264.151 2.628-4.849-22.628-98 2-3.336 21.685-31.664.315-4 112 410-6z" fill="#ecedde"/></g><g fill="#c2c2b5"><g><path d="m96 375-3 64h10v-64z"/><path d="m111 382v20h32l-1-20z"/><path d="m111 410v20l55-1-1-19z"/></g><g><path d="m400 375-1 64h10l-2-64z"/><path d="m360 384-1 18h32v-20z"/><path d="m337 410-1 20 55 3v-23z"/></g><path d="m284 429-2-20-22.91.865-.246-7.865h12.156l-2-20-10.77.359-.23-7.359h-7l-.119 7.604-11.881.396-1 19h12.578l-.128 8.19-21.45.81-1 19 22.147-.396-.147 9.396h10l-.299-9.566z"/></g></g><g><path d="m96 0-8 280 334 2-16-278z" fill="#e3af80"/><path d="m409.58 66.2-153.58 2.8-2 153h164.547z" fill="#ebd280"/></g><path d="m432 469-68-47 5 84 16.109-20.62 8.891 24.62 29-20-19.418-17.261z" fill="#827d7a"/></g></svg>