<svg id="Capa_1" enable-background="new 0 0 512 512" height="512" viewBox="0 0 512 512" width="512" xmlns="http://www.w3.org/2000/svg"><g><g><path d="m127 384 30 128 180-10 30-118zm156 78-68 8-4-18 72-6z" fill="#7b4920"/><path d="m332 0-161 8-33 112h216zm-126 62 6-14 66-6 8 17z" fill="#7b4920"/><g fill="#946e4d"><path d="m111 401 7 24h54l11-24z"/><path d="m388 398-12 21-48 3-16-24z"/><path d="m127 109 13-25 47-3 12 28z"/><path d="m372 109-12-25-51-3-13 28z"/></g><path d="m381 156 39 7 5 54-30 27z" fill="#7b4920"/><path d="m109 102-27 308 348-8-36-299z" fill="#946e4d"/><path d="m133 129 240-3 23 239-285 12z" fill="#7b4920"/></g><g><path d="m154 154 87-2 7 24h-96z" fill="#e4883c"/><g fill="#d6de84"><path d="m153 191 18-1 3 20h-24z"/><path d="m189 190-2 20 38-1 2-19z"/><path d="m372 213-22-33-35 31 21 2-16 84-42-37-27 50-55-69-64 92 19 11 45-74 59 71 32-51 50 38 14-117z"/></g></g></g></svg>