<svg id="Capa_1" enable-background="new 0 0 512 512" height="512" viewBox="0 0 512 512" width="512" xmlns="http://www.w3.org/2000/svg"><g><g><path d="m470 206c0 128-99.811 206-218 206s-210-92.229-210-206 95.811-206 214-206 214 81 214 206z" fill="#f7e372"/><path d="m428 206c0 93.888-77.007 170-172 170s-174-72.112-174-166c0-116 79.007-174 174-174 109 0 172 76.112 172 170z" fill="#e7b236"/><g fill="#f7e372"><path d="m256 115c-55.228 0-100 41.638-100 93s44.772 93 100 93 100-41.638 100-93-54-93-100-93zm0 153c-37.003 0-67-26.863-67-60 0-24 29.997-60 67-60s67 26.863 67 60-16 60-67 60z"/><path d="m325 251 40 24-32 32-32-38z"/><path d="m180 115 41 27-32 33-32-42z"/><path d="m327 180 44-37-20-21-44 26z"/><path d="m161 293 38-31-22-25-42 24z"/></g></g><path d="m438 484s-54 28-182 28-182-28-182-28 85.484-20 186-20 178 20 178 20z" fill="#f1edde"/></g></svg>