<svg id="Capa_1" enable-background="new 0 0 512 512" height="512" viewBox="0 0 512 512" width="512" xmlns="http://www.w3.org/2000/svg"><g><g><path d="m234 330-15 172h96l-49-172z" fill="#39231d"/><path d="m193 326-6 46 132-6-12-40z" fill="#39231d"/><path d="m128 512h280l-15-25-253-3z" fill="#554945"/></g><g><path d="m154 337-20 28h-86l-22-25z" fill="#554945"/><path d="m56 10-56 338 512-11-48-337z" fill="#554945"/><path d="m28 321 451-10-37-290-369 7z" fill="#39231d"/><path d="m56 345 72-3-7 10h-60z" fill="#b8e064"/></g><g fill="#5a504c"><path d="m449 200-400 96 10-67 386-69z"/><path d="m438 123-376 73 4-39 362-109z"/></g></g></svg>