<svg id="Capa_1" enable-background="new 0 0 512 512" height="512" viewBox="0 0 512 512" width="512" xmlns="http://www.w3.org/2000/svg"><g><g><path d="m92 165 8-109 291-9 17 118z" fill="#e4b236"/><g><path d="m113 152 13-141 164-11 76 72 15 80z" fill="#ecedde"/><path d="m290 0 4 76 72-4z" fill="#c2c2b5"/></g><path d="m51 410 410-15-27-275-264 7-3-33-96 2z" fill="#f7e372"/><g fill="#e4b236"><path d="m294 227-38.67 65.064-59.33-91.064-62 132h233z"/><ellipse cx="257" cy="223" rx="16" ry="11"/></g></g><path d="m438 488s-81.484 24-182 24-182-24-182-24 85.484-24 186-24 178 24 178 24z" fill="#ecedde"/></g></svg>