<svg id="Capa_1" enable-background="new 0 0 512 512" height="512" viewBox="0 0 512 512" width="512" xmlns="http://www.w3.org/2000/svg"><g><g fill="#a7807a"><path d="m214 488c-79 0-188-6-188-192h19c1 92 29 173 169 174z"/><path d="m483 220c0-131-23-186-186-186v19c78 0 168-5 168 167z"/><path d="m218 28c-94 0-188 26-188 198h18c0-58 7-179 170-179 0 0 0-16 0-19z"/><path d="m278 472c110 0 187-29 187-192h17c0 89-13 212-204 212 0 0 0-17 0-20z"/></g><path d="m256 52c-118.189 0-214 91.334-214 204s95.811 204 214 204 214-91.334 214-204-95.811-204-214-204zm0 302c-51.915 0-94-43.876-94-98s42.085-98 94-98 94 43.876 94 98-42.085 98-94 98z" fill="#f1edde"/><ellipse cx="378" cy="379" fill="#a7807a" rx="14" ry="12"/><g><path d="m213 492 11 20h60l17-20z" fill="#cf7f58"/><path d="m333 500-43-176-71 4-34 168z" fill="#e9a671"/><path d="m278 341-47 5-18 119 96 8zm-34 18h25l16 88-56-1z" fill="#cf7f58"/></g><g><path d="m484 216 28 8-4 55-21 9z" fill="#cf7f58"/><path d="m492 184-160 37 5 68 151 27z" fill="#e9a671"/><path d="m465 206-113 28v38l118 24zm-101 53 3-16 78-18 5 48z" fill="#cf7f58"/></g><g><path d="m297 28-7-28h-60l-13 28z" fill="#cf7f58"/><path d="m188 18 29 156 72 4 47-152z" fill="#e9a671"/><path d="m212 42 21 112 44-3 31-106zm57 90-27-4-11-68h58z" fill="#cf7f58"/></g><g><path d="m32 221-32 6 3 57 29 9z" fill="#cf7f58"/><path d="m20 317 158-27 2-68-156-25z" fill="#e9a671"/><path d="m48 222-10 66 116-15 4-36zm14 45 3-28 72 6 3 15z" fill="#cf7f58"/></g></g></svg>