<svg id="Capa_1" enable-background="new 0 0 512 512" height="512" viewBox="0 0 512 512" width="512" xmlns="http://www.w3.org/2000/svg"><g><path d="m420 156c0-81.738-73.425-156-164-156s-164 74.262-164 156c0 53.808 31.415 97.462 79 121l-63 229 296 6-71-236c51.734-22.535 87-63.396 87-120z" fill="#946e4d"/><g><path d="m240 215-8 84h27l1-84z" fill="#e7b236"/><g fill="#f7e372"><path d="m231 299-6 94-15 77 53 5-6-30 63-2-3-20-22 3-2-11 21-2-3-18-53 9-1-30 29-1-1-24-27 7 1-57z"/><path d="m217 215-11 24 88 6-7-36z"/><path d="m212 310 68 2 2-28-72 5.087z"/><path d="m349 137c0 45.287-43.876 90-98 90s-98-44.713-98-90 43.876-82 98-82 98 36.713 98 82z"/></g><path d="m240 74-11 15 48 1-7-14z" fill="#e7b236"/><path d="m300 149c0 15.464-21.49 28-48 28s-48-12.536-48-28 21.49-36 48-36 48 20.536 48 36z" fill="#946e4d"/><path d="m229 216-7 12 56 6-5-16z" fill="#e7b236"/><path d="m263 416 17-7 7 24h-20z" fill="#e7b236"/><ellipse cx="252" cy="176" fill="#f7e372" rx="20" ry="12"/></g></g></svg>