<svg id="Capa_1" enable-background="new 0 0 512 512" height="512" viewBox="0 0 512 512" width="512" xmlns="http://www.w3.org/2000/svg"><g><g><path d="m0 332 256-116 256 121-256 175z" fill="#c2c2b5"/><path d="m0 234 247-126 265 128-254 156z" fill="#dcdccc"/><path d="m267 0-267 129 266 135 246-141z" fill="#ecedde"/></g><g><path d="m416 227s-24.023 2.036-32 3c-27.098 3.275-38 18-40 40-1.382 15.206-3 61-3 61h19v-61c0-13.255 8.834-22.003 24-24 7.7-1.014 25-2 25-2 17-1 28 14.745 28 28l3 59h23s-5-48-7-64c-2.74-21.92-17.909-40-40-40z" fill="#827d7a"/><path d="m298 471 214 2-32-164-159 8z" fill="#f7e372"/><path d="m432 429-15.406-38.516c8.04-4.217 13.406-11.813 13.406-20.484 0-13.255-12.536-24-28-24s-28 10.745-28 24c0 10.612 8.039 19.61 19.18 22.778l-9.18 39.222z" fill="#e4b236"/></g></g></svg>