<svg id="Capa_1" enable-background="new 0 0 512 512" height="512" viewBox="0 0 512 512" width="512" xmlns="http://www.w3.org/2000/svg"><g><path d="m39 43 205 186.988 17-1.988 217-173h23l-228 207-35-4-228-197z" fill="#ecedde"/><g fill="#c2c2b5"><path d="m398 203c-15.527 0-28.757 8.737-33.809 20.982l-76.115 5.628-2.076-25.61-68 2-.78 28.85-71.455 5.284c-5.45-14.051-20.295-24.134-37.765-24.134-22.091 0-40 16.118-40 36s17.909 36 40 36c19.704 0 36.069-12.827 39.378-29.706l69.288-2.928-.666 24.634 76-2-2.086-25.729 75.75-3.201c5.858 10.618 18.134 17.93 32.336 17.93 19.882 0 36-14.327 36-32s-16.118-32-36-32z"/><path d="m508 11-61 1-9 62 74 1z"/><path d="m69 0h-64l-5 72 78-4z"/></g><path d="m292 512-1-138 108 58 23-25-134-75-38 17 6 161z" fill="#827d7a"/></g></svg>