<svg id="Capa_1" enable-background="new 0 0 512 512" height="512" viewBox="0 0 512 512" width="512" xmlns="http://www.w3.org/2000/svg"><g><ellipse cx="204" cy="194" fill="#f1edde" rx="166" ry="153"/><path d="m60 298 75-132 96 71 23-131 122 28v26l-99-18-28 149-102-82-55 115z" fill="#d3c2b5"/><path d="m304 352 118 140 64-80-139-104z" fill="#7b4920"/><g fill="#946e4d"><path d="m365 440 63-85 25 22-71 78z"/><path d="m204 0c-100 0-204 86.857-204 194s87.334 194 200 194 208-86.857 208-194-91.334-194-204-194zm0 337c-86.156 0-156-64.023-156-143s69.844-143 156-143 156 64.023 156 143-69.844 143-156 143z"/><path d="m268 360 19 58 129-114-58-18z"/></g><path d="m427 512-43-28 95-100 33 53z" fill="#b59071"/><path d="m173 190c0 15.464-12.327 28-30 28s-34-12.536-34-28 14.327-28 32-28 32 12.536 32 28z" fill="#e4883c"/></g></svg>