<svg id="Capa_1" enable-background="new 0 0 512 512" height="512" viewBox="0 0 512 512" width="512" xmlns="http://www.w3.org/2000/svg"><g><g><path d="m410 140-16-104-285 5-15 99z" fill="#e4b236"/><g><path d="m112 132 21-132 181 7 63 60 11 65z" fill="#ecedde"/><path d="m314 7-1 60h64z" fill="#c2c2b5"/></g><path d="m51 410 410-3-28-280-253-4-3-40h-101z" fill="#f7e372"/><path d="m334 218-77-30-77 39 2 78 73 31 81-37zm-142 79v-55l54.006 10.006-1.006 65.994zm10-70 55-28 53 20-54 18zm63 91 2-68 56-18 1 56z" fill="#e4b236"/></g><path d="m434 488s-95.484 24-196 24-164-24-164-24 81.484-24 182-24 178 24 178 24z" fill="#ecedde"/></g></svg>