<svg id="Capa_1" enable-background="new 0 0 512 512" height="512" viewBox="0 0 512 512" width="512" xmlns="http://www.w3.org/2000/svg"><g><g><path d="m486 116-5-15-28-2-7 17 17 5z" fill="#f2d1ba"/><path d="m444 512h48l-6-396h-40z" fill="#f7e372"/><path d="m472 118 4 394h4l-2-394z" fill="#e7b236"/><path d="m457 120 5 392h-8v-392z" fill="#e7b236"/><path d="m481 101-9-29h-7l-12 27 9 1 8 6z" fill="#946e4d"/><path d="m450 116 2 8h7l4-8h4l4 8h8l3-8s-19-4-18-4-14 4-14 4z" fill="#f2d1ba"/></g><g><path d="m20 135 185 1 201-11-3-125-383 13z" fill="#946e4d"/><path d="m22 512h364l29-32-9-342-204-2-182 9z" fill="#946e4d"/><path d="m48 157v329l325-2 17-21-10-313z" fill="#7b4920"/><path d="m45 35 331-9 5 80-336 8z" fill="#7b4920"/><g fill="#8e654d"><path d="m346 36-34 63-50 1 45-62z"/><path d="m274 38-35 63-25 1 42-64z"/></g><g><g fill="#b59071"><path d="m67 174 77-3 3 60-80 2z"/><path d="m172 169v60l84-1-5-61z"/><path d="m68 328 79-1 1 60h-80z"/><path d="m177 327v58l82-1-3-59z"/><path d="m66 408 83-1 1 60h-82z"/></g><path d="m177 407 2 58 84-1-2-59z" fill="#eae2d5"/><path d="m280 168v59l80-1-1-59z" fill="#b59071"/><path d="m68 253-1 58h84l-5-60z" fill="#b59071"/><path d="m175 248v62l84-2-4-62z" fill="#b59071"/><path d="m282 245v60h80l-2-60z" fill="#b59071"/><path d="m361 323-75 3v137h82z" fill="#e4883c"/><g fill="#ffffe8"><path d="m304 415 44-1-1-17-42 1z"/><path d="m305 385h40l-1-16h-38z"/></g></g><g fill="#7b4920"><path d="m20 135v10l386-7v-13z"/><path d="m158 136 7-14 96-4 7 18z"/></g></g></g></svg>