<svg id="Capa_1" enable-background="new 0 0 512 512" height="512" viewBox="0 0 512 512" width="512" xmlns="http://www.w3.org/2000/svg"><g><path d="m490 0-475 11-15 501 512-23zm-233 281c-38.008 0-72.374 4.582-102.312 11.269-4.176-9.55-6.688-20.829-6.688-35.269 0-37.368 7.262-60.074 16.358-80.902 28.019-6.557 57.021-11.098 83.642-11.098 21.346 0 45.017 2.278 68.923 5.815-8.796 16.668-14.923 36.852-14.923 66.185 0 17.833 1.963 33.095 5.34 46.454-16.955-1.541-33.923-2.454-50.34-2.454zm63.789 36.602c29.258 52.668 83.114 70.408 90.38 139.294l-174.461 7.449c-3.351-88.194-35.132-115.136-59.708-141.083 26.314-5.561 53.427-9.262 79-9.262 21.409 0 43.336 1.38 64.789 3.602zm-203.393-15.365c-38.228 11.955-65.942 26.117-80.564 34.498l2.474-119.011c16.676-7.069 46.437-18.97 81.204-29.679-7.344 18.845-12.51 40.526-12.51 69.955 0 18.416 3.61 32.438 9.396 44.237zm62.503-160.39c10.044-23.865 18.843-53.4 19.973-103.737l178.618-2.152c-3.551 57.255-25.107 82.451-44.435 108.564-28.797-5.084-58.996-8.522-88.055-8.522-22.439 0-44.755 2.251-66.101 5.847zm160.101 95.153c0-25.507 5.077-44.015 12.411-60.113 46.406 8.92 89.709 20.772 114.099 27.901l5.45 108.736c-25.164-6.565-71.227-17.602-121.921-24.974-6.216-14.835-10.039-31.612-10.039-51.55zm125.221-57.925c-21.623-7.472-57.438-18.863-98.69-28.056 16.841-27.788 36.019-56.216 39.054-115.388l52.415-.631zm-295.421-140.603c-1.873 53.659-16.821 83.774-31.547 112.223-43.355 11.043-79.162 25.679-98.265 34.238l3.012-144.933zm-133.639 330.564c18.36-7.922 57.503-23.826 103.15-36.513 25.223 27.648 57.026 54.418 60.394 133.401l-165.705 7.076zm412.866 86.244c-6.761-61.062-47.964-91.634-77.732-130.924 43.592 7.052 81.11 16.074 102.29 21.603l5.415 108.041z" fill="#ecedde"/><path d="m111 133-9 66 88-4-10-68z" fill="#c2c2b5"/><path d="m226 224 12 136 40-46 64-13z" fill="#827d7a"/></g></svg>