<svg id="Capa_1" enable-background="new 0 0 512 512" height="512" viewBox="0 0 512 512" width="512" xmlns="http://www.w3.org/2000/svg"><g><path d="m0 512 16-356 470 2 26 354z" fill="#946e4d"/><g fill="#7b4920"><path d="m57 193-5 38 388-3-7-41z"/><path d="m422 195h32v20l-30 4z"/><path d="m70 198-30 5v20l30 1z"/></g><g><path d="m35 512 5-45 417-7 10 52z" fill="#7b4920"/><path d="m53 512 5-19 109-1 4 20z" fill="#b59071"/><path d="m190 512 4-26h105l7 26z" fill="#b59071"/><path d="m327 512 4-26 109-2 7 28z" fill="#e4883c"/></g><g><path d="m408 19-8 191h-308l15-210h43l7 31 26 2 7-20 40 3 7 20 33 2 6-18h42l10 19 27 1 10-27z" fill="#eae2d5"/><g fill="#d3c2b5"><path d="m137 79 111 5 1 27-116-3z"/><path d="m214 141h162v32l-164-5z"/></g></g><g><path d="m52 253-9 191 412-8-15-192z" fill="#7b4920"/><path d="m76 275-9 106 360-4-14-110z" fill="#e4883c"/><g fill="#b59071"><path d="m67 400 70-2 2 24h-70z"/><path d="m158 399 73-2 4 25-80 1z"/><path d="m256 397-2 25 80-3-7-25z"/><path d="m355 393-2 26 70-2 2-24z"/></g><g fill="#7b4920"><path d="m288 299-61 69-35-14 69-66z"/><path d="m292 344-20 19-80-54 26-20z"/></g></g></g></svg>