<svg id="Capa_1" enable-background="new 0 0 512 512" height="512" viewBox="0 0 512 512" width="512" xmlns="http://www.w3.org/2000/svg"><g><g><path d="m82 324-8 83 368 5-13-88z" fill="#d3c2b5"/><path d="m68 55 1 75 168 38 205-49v-71zm80 45c-12.15 0-22-7.164-22-16s9.85-16 22-16 22 7.164 22 16-9.85 16-22 16zm196 2c-13.255 0-24-8.059-24-18s10.745-18 24-18 24 8.059 24 18-10.745 18-24 18z" fill="#e9a671"/><g><path d="m50 383 336-6 76-51-20-207-373 11z" fill="#f1edde"/><path d="m386 377 7-60 69 9z" fill="#a7807a"/></g><path d="m160 85-25 3-21-68 44-12z" fill="#a7807a"/><path d="m327 85 34 3 15-81-52-7z" fill="#a7807a"/><path d="m194 74-4 25 108 1-5-30z" fill="#cf7f58"/><path d="m311 259-5-34-40 3-2-31-27 1v33l-42 2 5 34 36-4-2 40h40l-4-43z" fill="#a7807a"/></g><path d="m438 484s-54 28-182 28-182-28-182-28 85.484-20 186-20 178 20 178 20z" fill="#f1edde"/></g></svg>