<svg id="Capa_1" enable-background="new 0 0 512 512" height="512" viewBox="0 0 512 512" width="512" xmlns="http://www.w3.org/2000/svg"><g><g><g><path d="m461 352-73 1-19-21-267 5-7 21-69 1-26 153h512z" fill="#554945"/><g fill="#39231d"><path d="m12 512 23-116 422-5 41 121z"/><path d="m113 345 33-1 2 8-38 1z"/><path d="m329 341 35-1 9 10h-44z"/></g><g><path d="m196 342 75-2 3 15-80 1z" fill="#39231d"/><g fill="#e8c52e"><path d="m202 345-1 6h5v-6z"/><path d="m210 345v6h4l-1-6z"/><path d="m219 345-1 6h4v-6z"/><path d="m226 351 1-6h4l1 6z"/><path d="m236 345v6h5l-1-6z"/><path d="m245 345v6h4l-1-6z"/><path d="m254 345-1 6h5l-1-6z"/><path d="m262 345v6h5l-1-6z"/></g></g><g><path d="m446 363c3.866 0 7 3.134 7 7s-3.134 7-7 7l-406 4c-2.761 0-5-2.239-5-5s2.239-5 5-5z" fill="#39231d"/></g></g><g><path d="m50 408-4 22h34l-1-22z" fill="#e2e2d5"/><path d="m98 408-4 22h28l-1-22z" fill="#554945"/><path d="m138 408-2 22h28l-2-22z" fill="#554945"/><path d="m180 408-3 22h32l-4-22z" fill="#554945"/><path d="m222 407-2 22h32l-4-22z" fill="#554945"/><path d="m31 504h78v-25l-75-1z" fill="#e4883c"/><path d="m37 467h52v-24h-49z" fill="#554945"/><path d="m390 501 84-1-6-27-78 4z" fill="#e4883c"/><g fill="#554945"><path d="m123 503h32l-1-24h-29z"/><path d="m172 479-3 24h37l-4-24z"/><path d="m218 502h34l-5-24h-27z"/><path d="m266 477-3 24h35l-6-24z"/><path d="m309 477-1 24h30l-4-24z"/><path d="m349 477v24h28l-3-24z"/><path d="m103 444-3 22h32l-2-22z"/><path d="m145 443-1 22h32l-2-22z"/><path d="m190 442-3 22h32l-2-22z"/><path d="m232 441-3 22h32l-4-22z"/><path d="m273 440-2 22h32l-3-22z"/><path d="m320 440-2 22h32l-2-22z"/><path d="m363 439-2 22h32l-2-22z"/></g><path d="m409 439v21l52-2-4-22z" fill="#e2e2d5"/><path d="m267 406-1 22h32l-4-22z" fill="#554945"/><path d="m309 406-1 22h28l-4-22z" fill="#554945"/><path d="m453 426-68 2 1-22 63-2z" fill="#e2e2d5"/><path d="m346 406-1 22h28l-1-22z" fill="#554945"/></g></g><g><g><path d="m36 8-8 300 436-2-17-306z" fill="#554945"/><path d="m52 26-9 263 403-4-15-270z" fill="#39231d"/></g><g><path d="m76 50-12 212 355-6-16-213z" fill="#ffffe8"/><g><path d="m238 204c-41.974 0-78-23.729-78-53s36.026-53 78-53 78 23.729 78 53h10c0-36.451-39.399-66-88-66s-88 29.549-88 66 39.399 66 88 66z" fill="#ecedde"/><g fill="#827d7a"><path d="m220 76-3 31 36 1-3-34z"/><path d="m138 165 36 1-4-29-28-1z"/><path d="m302 161 34 1-4-30h-28z"/><path d="m217 194 4 33 30 1 6-33z"/><path d="m341 225h-11l-2-3 8-19-41-27-3 2 17 28c.256-.032.733 0 1 0 2.761 0 5 1.791 5 4s-2.239 4-5 4-5-1.791-5-4c0-.845.441-1.354 1-2l-17-26-3 2 4 46h24l2 4-4 7 4 5 28-15z"/></g></g></g></g></g></svg>