<svg id="Capa_1" enable-background="new 0 0 512 512" height="512" viewBox="0 0 512 512" width="512" xmlns="http://www.w3.org/2000/svg"><g><g><path d="m470 206c0 133-91.811 206-210 206-144 0-218-73-218-206 0-113.771 95.811-206 214-206s214 92.229 214 206z" fill="#d3c2b5"/><path d="m432 206c0 97.754-66 177-176 177-94.993 0-176-44-176-173 0-97.754 81.007-181 176-181s176 64 176 177z" fill="#a7807a"/><g fill="#d3c2b5"><path d="m366 240-46-20-39 52-56 3-33-36-4-46 27-41 71-8 30 44 35-30-56-58-29 2 3-33-44 2 8 34-38 3-49 84 1 61 64 63h29l-6 29 49-2-9-27h32z"/><ellipse cx="117" cy="222" rx="16" ry="18"/><path d="m404 214c0 7.732-5.373 12-12 12s-12-6.268-12-14 5.373-14 12-14 12 8.268 12 16z"/></g></g><path d="m438 484s-54 28-182 28-182-28-182-28 71.484-20 172-20 192 20 192 20z" fill="#f1edde"/></g></svg>