<svg id="Capa_1" enable-background="new 0 0 512 512" height="512" viewBox="0 0 512 512" width="512" xmlns="http://www.w3.org/2000/svg"><g><path d="m294 172 50 49 37-66 31 25 6-83-100 7 40 29z" fill="#827d7a"/><g fill="#c2c2b5"><path d="m489.107 442.819.797-372.014 22.096 1.195-4-68-68-4-.774 26.327-372.63 2.399.404-28.726-64 3-3 64 24 1.455v372.92l-20 .625-4 68 72 2-1.556-28.001 370.499 7.968-.943 16.033 72 4-4-68zm-419.774 21.181-1.333-24-25 .781v-371.175l23 1.394.289-20.486 372.455-7.777-.744 25.263 35.272 1.907-9.679 371.318-19.593-1.225-1.412 24z"/><path d="m276 273-40 2 3-37 33-1z"/></g><path d="m208 352-47-53-37 64-36-29 1 85 102-5-40-29z" fill="#827d7a"/></g></svg>