<svg id="Capa_1" enable-background="new 0 0 512 512" height="512" viewBox="0 0 512 512" width="512" xmlns="http://www.w3.org/2000/svg"><g><path d="m234 86-7-86h40l-11 86z" fill="#554945"/><g><path d="m152 64 182-12 56 151 122 79-22 164-97 52-254 14-108-61-31-164 96-66z" fill="#e2e2d5"/><path d="m320 69-151 7-51 150-98 66 27 134 94 54 240-6 82-41 29-139-122-77z" fill="#827d7a"/><g fill="#554945"><path d="m52 317 40-14 21 81-34 6z"/><path d="m459 316-40-13-26 83 33 4z"/><path d="m194 143 104-8-21-37-69 7z"/></g><g><ellipse cx="255" cy="322" fill="#554945" rx="122" ry="130"/><ellipse cx="255" cy="325" fill="#39231d" rx="104" ry="98"/><ellipse cx="256" cy="317" fill="#554945" rx="36" ry="32"/><ellipse cx="255" cy="318" fill="#39231d" rx="18" ry="14"/><g><path d="m256 366.54c-28.971 0-50.54-22.223-50.54-49.54s21.569-49.54 50.54-49.54 50.54 22.223 50.54 49.54-21.569 49.54-50.54 49.54zm0-92c-23.964 0-45.46 20.15-45.46 42.46s21.496 42.46 45.46 42.46 43.46-20.15 43.46-42.46-19.496-42.46-43.46-42.46z" fill="#554945"/></g><g fill="#e2e2d5"><ellipse cx="264" cy="314" rx="5" ry="4"/><ellipse cx="246" cy="324" rx="3" ry="2"/></g><path d="m178 352 12-5-11-33-11 6z" fill="#554945"/><path d="m326 304-9 34h11l11-34z" fill="#554945"/><g><path d="m255 344c-16.542 0-30-11.664-30-26s13.458-28 30-28 30 13.664 30 28-13.458 26-30 26zm0-50c-14.337 0-25 11.869-25 24s10.663 22 25 22 25-9.869 25-22-10.663-24-25-24z" fill="#39231d"/></g></g><g fill="#e6973e"><path d="m256 329-17 78 52-4-30-74z"/><path d="m252 328-37 53-27-23 62-31z"/><path d="m264 327 46 46 24-26-68-22z"/></g></g></g></svg>