<svg id="Capa_1" enable-background="new 0 0 512 512" height="512" viewBox="0 0 512 512" width="512" xmlns="http://www.w3.org/2000/svg"><g><g><g><path d="m454 367-15-324-97-12 6 350z" fill="#e7b236"/><path d="m354 59 59 13 9 225h-66z" fill="#f1edde"/><path d="m69 0-11 412 376-8 3-135-50-46 3-211z" fill="#f7e372"/></g><g fill="#e7b236"><path d="m181 198-6 115 151 4-2 14-170 1 8-134z"/><path d="m194 297h69l3-24-72-4z"/><path d="m194 253h102v-27l-102-5z"/></g></g><path d="m438 484s-54 28-182 28-182-28-182-28 91.484-20 192-20 172 20 172 20z" fill="#f1edde"/></g></svg>