<svg id="Capa_1" enable-background="new 0 0 512 512" height="512" viewBox="0 0 512 512" width="512" xmlns="http://www.w3.org/2000/svg"><g><g><g><path d="m454 385-13-366-93-2v372z" fill="#e7b236"/><path d="m361 45 57 8 3 252h-60z" fill="#f1edde"/><path d="m65 12-7 392 373 8 3-131-44-46-7-235z" fill="#f7e372"/></g><g fill="#e7b236"><path d="m241 181c40.869 0 74 30.445 74 68l-78 2z"/><path d="m226 196c-40.869 0-74 30.445-74 68s33.131 68 74 68 74-30.445 74-68h-74z"/></g></g><path d="m438 484s-54 28-182 28-182-28-182-28 85.484-20 186-20 178 20 178 20z" fill="#f1edde"/></g></svg>