<svg id="Capa_1" enable-background="new 0 0 512 512" height="512" viewBox="0 0 512 512" width="512" xmlns="http://www.w3.org/2000/svg"><g><path d="m30 392c347 0 132-352 450-352 0-18 0-8 0-24-328 0-143 348-450 348z" fill="#ecedde"/><path d="m415 165c-16.51 0-30.415 9.883-34.66 23.354l-86.779 1.965-1.561-27.319-68 2-1.539 26.929-63.742 1.443c-4.726-15.714-22.054-27.372-42.719-27.372-24.301 0-44 16.118-44 36s19.699 36 44 36c18.306 0 33.996-9.148 40.626-22.16l64.636-2.927-1.262 22.087 76-2-1.338-23.411 85.698-3.881c4.269 13.439 18.155 23.292 34.64 23.292 19.882 0 36-14.327 36-32s-16.118-32-36-32z" fill="#c2c2b5"/><path d="m445 427-140-95 15 168 33.502-42.883 19.498 54.883 59-39-41.672-39.44z" fill="#827d7a"/><g fill="#c2c2b5"><path d="m0 414 76-3-11-69-61 3z"/><path d="m446 0-6 64h72l-6-64z"/></g></g></svg>