<svg id="Capa_1" enable-background="new 0 0 512 512" height="512" viewBox="0 0 512 512" width="512" xmlns="http://www.w3.org/2000/svg"><g><path d="m116 148 23-120 200-28 53 148h-39l-44-105-136 13-20 92z" fill="#b76e50"/><path d="m61 185-61 327h512l-58-338z" fill="#cf7f58"/><path d="m37 131-22 170 488 14-37-192-215 14z" fill="#e9a671"/><g><path d="m222 345-9 44 72-5-11-39z" fill="#e7b236"/><path d="m219 314 12-88h34l12 88z" fill="#f7e372"/><path d="m208 301-7 56h101l-16-67z" fill="#f7e372"/><path d="m219 314 54-9 12 36-72 4z" fill="#e39f33"/></g><path d="m211 205-7 36 88-1-6-33z" fill="#cf7f58"/></g></svg>