<svg id="Capa_1" enable-background="new 0 0 512 512" height="512" viewBox="0 0 512 512" width="512" xmlns="http://www.w3.org/2000/svg"><g><g><g><path d="m456 356-2-36h-399l-1 36 194 24z" fill="#c2c2b5"/><path d="m456 356h-269.857l-5.143-24h-90l-5.143 24h-31.857l-4 108h412z" fill="#ecedde"/></g><g fill="#c2c2b5"><g><path d="m98 375 64-1v8h-64z"/><path d="m155 390h-20v26l20-1z"/><path d="m127 390h-21l3 47 19 1z"/></g><g><path d="m404.5 436.5-64-1v10l64-2z"/><path d="m395.5 396.5-18-1v32h20z"/><path d="m369.5 373.5h-21l-1 53 22 1z"/></g><path d="m288 404-7.649-.12-.351-10.88-18-1-.362 11.588-7.638-.119v-23.469h-20l-.827 23.144-9.173-.144v11l8.795-.275-.795 22.275h22v-22.938l7.349-.229-.349 11.167h20l-.38-11.77 7.38-.23z"/></g></g><path d="m209 471-68-47 5 84 16.109-20.62 8.891 24.62 29-20-19.418-17.261z" fill="#827d7a"/><g><ellipse cx="256" cy="140" fill="#ebd280" rx="148" ry="140"/><path d="m190 0-2 122h136l-6-122z" fill="#e3af80"/></g></g></svg>