<svg id="Capa_1" enable-background="new 0 0 512 512" height="512" viewBox="0 0 512 512" width="512" xmlns="http://www.w3.org/2000/svg"><g><path d="m512 310-5-108h-38.13l-.681-94.594 43.811-.406-2-103-104-4-.741 40h-93.916l-1.725-37.528-107.528-2.472-3.225 41h-90.865v-41l-104 4-4 106 40-.37v92.028l-36 .342-4 108 39 .342v100.985l-33 .673-6 100h106l-.663-33.831 99.319.719 3.344 33.112h97l2.256-32.879 98.563.736-1.819 32.143h108l-4-105-37.158-.379-.683-96.982zm-27-33-54 1 2-43 46-2zm-47-246h48l5 44h-56zm-406 2h44l3 44-52-1zm-3 201 46 1 6 43-56 4zm-3 248 2-42 45 1 1 43zm253 2-44 1-5-46h53zm207-5-50 3 2-41 44-1zm-44.361-72.677-31.639-.323-2.343 41.388-98.374 2.203 2.717-39.591-114 3 3.966 39.261-97.11 1.407-.856-43.668-44.573.91 2.136-100.37 52.437.46-5-110-44.359.422 2.611-92.045 40.748-.377v-41.296l88.868-1.316-3.43 43.612h121.124l-2.094-45.542 92.375-1.965-.843 45.507 46.235-.428-2.717 94.428h-47.518l-4 107 48.369.417z" fill="#ecedde"/><path d="m310 205-106-3-8 108h120z" fill="#c2c2b5"/><path d="m233.672 28.427-5.39 50.674 53.908-2.156-4.312-48.518z" fill="#ffffe8"/><path d="m268 262 12 136 40-46 64-13z" fill="#827d7a"/></g></svg>