<svg id="Capa_1" enable-background="new 0 0 512 512" height="512" viewBox="0 0 512 512" width="512" xmlns="http://www.w3.org/2000/svg"><g><g><path d="m369.5 409-49-280h-148l-15 288z" fill="#e7b236"/><g fill="#f7e372"><path d="m403.5 467-10-66-258 5-16 66z"/><path d="m71.5 19 33 135 283 6 44-137-73-7-36 72h-36l-7-72-71-1-11 82-38 1-15-98z"/><path d="m107.5 198 284 2-1 36-276 10z"/></g></g><g><path d="m84.5 512h356l-10-76-333 19z" fill="#e9a671"/><path d="m336.5 459 13 36-176 4 6.5-27z" fill="#cf7f58"/></g></g></svg>