<svg id="Capa_1" enable-background="new 0 0 512 512" height="512" viewBox="0 0 512 512" width="512" xmlns="http://www.w3.org/2000/svg"><g><g><path d="m351 334h-195l-37 168h280zm-98 124c-34.242 0-62-21.49-62-48s27.758-48 62-48 62 21.49 62 48-27.758 48-62 48z" fill="#e2e2d5"/><g fill="#827d7a"><path d="m84 322 334 2-4 14-324 2z"/><path d="m93 512h336l-7-20-326 3z"/></g></g><g><g><g><path d="m35 308 22-300 389-8 37 308z" fill="#554945"/><path d="m73 22 359-8 37 294h-422z" fill="#39231d"/><g><path d="m292 23-14-12h-51l-7 12z" fill="#39231d"/><ellipse cx="254" cy="18" fill="#554945" rx="6" ry="4"/><ellipse cx="254" cy="18" fill="#39231d" rx="3" ry="2"/></g></g><g><g><path d="m18 302 3-14h29l6 14z" fill="#827d7a"/><path d="m65 302 3-14h32l5 14z" fill="#e2e2d5"/><path d="m114 302 3-13 36-1 5 14z" fill="#e4883c"/><path d="m170 302 4-17 160-3 8 20z" fill="#827d7a"/><path d="m353 302 4-18h31l9 18z" fill="#e4883c"/><path d="m406 302 2-18h33l9 18z" fill="#e2e2d5"/><path d="m461 302 1-18 29-1 5 19z" fill="#827d7a"/></g><path d="m0 324h512l-6-32-498 6z" fill="#554945"/><g fill="#39231d"><path d="m1.846 318h509.029l-1.123-5.991-506.671 1.979z"/><path d="m204.643 295.631 14.357 12.369 69-2 8.923-11.481z"/></g></g></g><g><path d="m93 45 316-9 30 222-364 6z" fill="#ffffe8"/><ellipse cx="273" cy="156" fill="#f7e372" rx="62" ry="54"/><path d="m147 72-6 87 98-3-5-89z" fill="#e4883c"/><path d="m315 171 8 68 19-26 31-9z" fill="#827d7a"/></g></g></g></svg>