<svg id="Capa_1" enable-background="new 0 0 512 512" height="512" viewBox="0 0 512 512" width="512" xmlns="http://www.w3.org/2000/svg"><g><path d="m480 364-12-344-436 12-8 332z" fill="#946e4d"/><path d="m63 54-14 278 408-20-15-272z" fill="#ffffe8"/><g><path d="m233 364-7 124h64l-11-124z" fill="#7b4920"/><g fill="#946e4d"><path d="m314 364 31 148h73l-60-148z"/><path d="m145 364-44 148h68l28-148z"/></g></g><path d="m4 387 506-5 2-39-512 15z" fill="#b59071"/><g fill="#e4883c"><path d="m213 298 68-2-8-108-53 4z"/><path d="m317 295 78-3-24-173-54 4z"/><path d="m179 299-64 2 10-60h46z"/></g><path d="m173 20-4 40 148-2-6-38z" fill="#7b4920"/><path d="m184 28 22-16 8-12h54l4 12 24 16z" fill="#7b4920"/><path d="m96 214 83-1 27-47 65-14 17-37 16 6-13-35-36 14 15 5-14 29-65 15-24 43h-71z" fill="#f7e372"/></g></svg>