<svg id="Capa_1" enable-background="new 0 0 512 512" height="512" viewBox="0 0 512 512" width="512" xmlns="http://www.w3.org/2000/svg"><g><g><g fill="#7b4920"><path d="m110 117-32 15v51l32 18z"/><path d="m380 84 34 4 6 55-27 21z"/><path d="m397 170 25 3 5 51-22 18z"/></g><path d="m86 512h348l-40-512-299 14z" fill="#946e4d"/><path d="m124 43-5 427 272-11-31-433z" fill="#7b4920"/><path d="m189 512 10-25 122-7 16 32z" fill="#7b4920"/><path d="m172 30 21 29 93-9 15-29z" fill="#946e4d"/><path d="m207 44 64-5-5-11-58 3z" fill="#7b4920"/></g><path d="m320 246-57-7 42-3-18-63h-23l6-18h-19l-2 18-19 1 2-19h-20l2 19h-26l-3 25 27 4-10 84-22 4v20l27 2-3 15h23l-2-14 23 1-3 14h20l-2-13 42 2zm-76-49 24 1 4 22-30 8zm32 91h-36l1-33 46 13z" fill="#f7e372"/><path d="m168 437 176-11-7-49-167 10z" fill="#e4883c"/><g fill="#f7e372"><path d="m136 75 6-1-1-9-5 2z"/><path d="m148 60-1 14 8-1-2-14z"/><path d="m160 54v18l10-1-3-18z"/></g><g fill="#eae2d5"><path d="m349 68-1-28-37 1-2 6-7 1-1 7 6 2-2 9zm-34-22 26-1 1 16-29-1z"/><path d="m333 49h4l1 8h-6z"/><path d="m329 49v8h-6l1-8z"/></g></g></svg>