<svg id="Capa_1" enable-background="new 0 0 512 512" height="512" viewBox="0 0 512 512" width="512" xmlns="http://www.w3.org/2000/svg"><g><path d="m4 133-4 248 160-118z" fill="#ecedde"/><path d="m504 112-164 147 172 113z" fill="#c2c2b5"/><g fill="#c2c2b5"><path d="m279 277-5-66-53-1 2 74z"/><path d="m220 174 53 3-6-78-48 2z"/><path d="m289 394-7-82-57 4 2 78z"/><path d="m227 428 1 84 69-6-5-74z"/><path d="m265 72-5-72-43 5v67z"/></g><path d="m368.415 81.93c-26.336-15.617-83.383-45.93-129.415-45.93-44.616 0-95.579 32.372-114.456 45.534l-19.544-25.534-12 86 74-5-21.015-27.455c18.433-12.439 53.22-31.545 93.015-31.545 41.448 0 79.441 19.247 98.378 30.699l-22.378 19.301 79 11 1-80z" fill="#827d7a"/></g></svg>