<svg id="Capa_1" enable-background="new 0 0 512 512" height="512" viewBox="0 0 512 512" width="512" xmlns="http://www.w3.org/2000/svg"><g><path d="m255 23c-130.339 0-236 104.766-236 234s105.661 234 236 234 236-104.766 236-234-105.661-234-236-234zm2 444c-119.293 0-216-94.02-216-210s96.707-210 216-210 216 94.02 216 210-96.707 210-216 210z" fill="#ecedde"/><g fill="#c2c2b5"><path d="m294 442-76-2 4 72 72-2z"/><path d="m512 224-68-4-2 72h70z"/><path d="m68 220-68 4v66l72 2z"/><path d="m436 5c-15.631 0-28.931 8.858-33.905 21.232l-109.942 1.428-1.153-27.66-66 3-2.753 25.568-90.645 1.177c-3.845-9.708-15.195-16.745-28.602-16.745-16.569 0-30 10.745-30 24s13.431 24 30 24c13.349 0 24.655-6.977 28.548-16.619l88.809 1.73-2.357 21.889 76 4-1.02-24.474 109.957 2.142c5.521 11.371 18.244 19.332 33.063 19.332 19.882 0 36-14.327 36-32s-16.118-32-36-32z"/></g><path d="m275 120v148l49-47 71-10z" fill="#827d7a"/></g></svg>