<svg id="Capa_1" enable-background="new 0 0 512 512" height="512" viewBox="0 0 512 512" width="512" xmlns="http://www.w3.org/2000/svg"><g><path d="m256 140c-109.352 0-198 83.275-198 186s88.648 186 198 186 198-83.275 198-186-88.648-186-198-186zm0 344c-92.784 0-168-70.739-168-158 0-102 75.216-158 168-158 115 0 168 70.739 168 158s-75.216 158-168 158z" fill="#f7e372"/><g><path d="m268 87-5 38 86-7-23-38 30-31h-88z" fill="#cf7f58"/><path d="m180 19h116l-7 84-109-10z" fill="#e9a671"/><path d="m190 228v-228l-20 2 8 226z" fill="#946e4d"/></g><g><path d="m312 336 51 58 67-26-42-98-20-4z" fill="#f1edde"/><path d="m312 336 53 44 65-12 35 82 47 62h-344z" fill="#a7807a"/></g><g><path d="m145 331h69l63 21-83-148-22 2-48 94z" fill="#f1edde"/><path d="m0 512 4-31 88-118 32-63 29 18 61 3 63 31 45 72 93 88z" fill="#d3c2b5"/></g></g></svg>