<svg id="Capa_1" enable-background="new 0 0 512 512" height="512" viewBox="0 0 512 512" width="512" xmlns="http://www.w3.org/2000/svg"><g><path d="m512 190-371.229 3.916-3.771-165.916h-15v166.114l-84 .886v27l84-1.772v291.772h26l-6.64-292.181 370.64-7.819z" fill="#e3af80"/><path d="m393 339-136-95 11 168 33.502-42.883 19.498 54.883 59-39-41.672-39.439z" fill="#827d7a"/><g><path d="m0 512h59l-6-468h459v-44h-512z" fill="#ecedde"/><g fill="#c2c2b5"><path d="m37 237v20l18.761 2.345-.318-24.804z"/><path d="m17 493 41.798 3.215-.344-26.809-41.454 1.594z"/><path d="m35 413 22.759 2.203-.306-23.908-20.453.705z"/><path d="m18 178 36.77 4.085-.389-30.335-37.381 3.25z"/><path d="m34 112h19.872l-.292-22.797-19.58 2.797z"/><path d="m21 307-2 24 37.786 8.313-.414-32.313z"/><path d="m225.706 44h26.183l-3.889-28-20 2z"/><path d="m160.364 44h18.969l-1.333-12-17-2z"/><path d="m93 44h20.75l-3.75-21h-17z"/><path d="m301.2 44h18.8v-12h-17z"/><path d="m475.2 44-7.2-16-17 2-1.556 14z"/><path d="m372 44h30l-8-24-22-2z"/></g></g></g></svg>