<svg id="Capa_1" enable-background="new 0 0 512 512" height="512" viewBox="0 0 512 512" width="512" xmlns="http://www.w3.org/2000/svg"><g><path d="m438 484s-54 28-182 28-182-28-182-28 85.484-20 186-20 178 20 178 20z" fill="#f1edde"/><g><path d="m470 206c0 113.771-99.811 206-218 206s-210-92.229-210-206 122-206 214-206c118.189 0 214 92.229 214 206z" fill="#f7e372"/><path d="m428 202c0 93.888-58 174-172 174-94.993 0-172-76.112-172-170 0-74 77.007-170 172-170s172 72.112 172 166z" fill="#e7b236"/><g fill="#f7e372"><g><path d="m285 88-48 164 98-8 18 55-184 5 44-216z"/><path d="m299 180-146 65 3-33 134-65z"/></g><path d="m126 210c0 8.837-3.373 16-10 16s-14-7.163-14-16 5.373-16 12-16 12 7.163 12 16z"/><path d="m413 211c0 7.732-5.373 14-12 14s-12-4.268-12-12 5.373-16 12-16 12 6.268 12 14z"/></g></g></g></svg>