<svg id="Capa_1" enable-background="new 0 0 512 512" height="512" viewBox="0 0 512 512" width="512" xmlns="http://www.w3.org/2000/svg"><g><g><ellipse cx="256" cy="206" fill="#f7e372" rx="214" ry="206"/><ellipse cx="256" cy="206" fill="#e7b236" rx="172" ry="170"/><g fill="#f7e372"><g><path d="m224 255-4 63 82-8-15-56z"/><path d="m170 120-12 53h69l-3 60 58-8-10-53 58-3-4-49z"/><path d="m208 215-21 19 70 18 69-27-29-14 13-16 59 33-107 47-113-31 44-45z"/></g><path d="m102 209h30l3 14-36 4z"/><path d="m411 201-29 3-3 15 34 2z"/></g></g><path d="m438 484s-54 28-182 28-182-28-182-28 71.484-20 172-20 192 20 192 20z" fill="#f1edde"/></g></svg>