<svg id="Capa_1" enable-background="new 0 0 512 512" height="512" viewBox="0 0 512 512" width="512" xmlns="http://www.w3.org/2000/svg"><g><path d="m487.496 441.281 4.015-370.223 16.489.942 4-72-72 2-.748 24.679-372.722 4.799.47-31.478-63 4-4 67 26-1.576v182.576h19l-1.827-183.616 22.827-1.384.244-16.327 372.44-5.233-.684 22.56 31.58 1.805-6.322 372.991-19.258 1.204-.835 14.192-187.165 1.808v23l185.517 3.212-1.517 25.788 72-4-4-68z" fill="#ecedde"/><g fill="#c2c2b5"><path d="m292 510-4-70-26 .765v-146.994l26 2.229 2-72-66-6-3.03 36.363-151.952 1.345-3.018-34.708-62 7-4 64 26-.722v149.389l-22-.667-4 70 72 2-.897-31.406 146.582 1.929-1.685 29.477zm-221.435-48.219-.565-19.781-22.298-.676-2.172-150.589 26.47-.735-1.709-19.65 149.583-2.836-1.874 22.486 28.624 2.454-2.199 148.828-24.425.718-1.048 18.34z"/><path d="m166 388-40-2 3-35 35-3z"/></g><path d="m292 175 54 49 37-66 31 25 6-83-106 5 42 31z" fill="#827d7a"/></g></svg>