<svg id="Capa_1" enable-background="new 0 0 512 512" height="512" viewBox="0 0 512 512" width="512" xmlns="http://www.w3.org/2000/svg"><g><g><g><path d="m454 377-7-340-99-8v356z" fill="#e7b236"/><path d="m363 59 60-3-13 240h-47z" fill="#f1edde"/><path d="m69 0-11 412 376-8-5-135-46-54 7-203z" fill="#f7e372"/></g><g fill="#e7b236"><path d="m176 198-10 115 151 2-2 16-170 1 12-132z"/><path d="m178 282 37-49 47 37 40-47 17 13-55 64-44-34-23 32z"/><path d="m280 221 48 31-8-38z"/></g></g><path d="m438 484s-54 28-182 28-182-28-182-28 97.484-20 198-20 166 20 166 20z" fill="#f1edde"/></g></svg>