<svg id="Capa_1" enable-background="new 0 0 512 512" height="512" viewBox="0 0 512 512" width="512" xmlns="http://www.w3.org/2000/svg"><g><g><path d="m439 494-18-67-340-3-18 70z" fill="#e4b236"/><path d="m38 512 7-70h100l10 26.008 306 8.992 13 35z" fill="#f7e372"/></g><g><g><path d="m88 376 336-5-34-281-104-90-186 10z" fill="#ecedde"/><path d="m286 0 5 96 99-6z" fill="#c2c2b5"/></g><path d="m331 265c-4.437 0-8.251 2.872-9.99 7h-39.776c21.107-12.607 36.064-36.416 38.433-58.086l7.333 1.086 8-25-36-3 1 24 6.636.983c-2.579 22.324-19.005 47.423-40.705 56.501l-1.931-7.484-27-1-1.511 9.674c-22.735-7.826-39.896-34.148-42.977-57.406l7.488-.268-5-23-21 2-2 22 8.137-.291c1.55 22.073 16.643 46.476 38.281 59.291h-30.174c-2.891-4.726-9.068-8-16.244-8-9.941 0-18 6.268-18 14s8.059 14 18 14c7.755 0 14.345-3.822 16.877-9.17l44.648-.592-1.525 9.762h40l-2.642-10.237 51.309-.679c1.534 4.614 5.574 7.916 10.333 7.916 6.075 0 11-5.373 11-12s-4.925-12-11-12z" fill="#c2c2b5"/></g></g></svg>