<svg id="Capa_1" enable-background="new 0 0 512 512" height="512" viewBox="0 0 512 512" width="512" xmlns="http://www.w3.org/2000/svg"><g><g><path d="m405 428 14 84-324-9 10-75z" fill="#e7b236"/><path d="m153.888 504.636 86.869 2.413-3.882-79.049h-73.875z" fill="#7b4920"/><path d="m301 427v56l64-4-5-52z" fill="#ece8e4"/><path d="m313 470 40-2-2-10-38 1z" fill="#a7807a"/></g><g><path d="m111 0h290l33 443-356 21z" fill="#f7e372"/><ellipse cx="347" cy="68" fill="#e4883c" rx="30" ry="36"/><g fill="#e7b236"><path d="m245 36 33-4 1 16-34-3z"/><path d="m281 57-36 2v9h36z"/><path d="m281 76-32 1v9l32 4z"/><path d="m281 99h-36l1 12 35 4z"/><path d="m281 138-36 3v10l36 1z"/><path d="m281 160-34 3 1 13h33z"/><path d="m281 184-36 2v10h36z"/><path d="m281 204-34 2v12l33 4z"/><path d="m281 247-35 2-1 9 36 3z"/><path d="m281 270-36 1 1 14 35 3z"/><path d="m280 296-35 1v8l36 3z"/><path d="m281 316-36 4v10l35 2z"/><path d="m281 353-36 2v8h36z"/><path d="m281 371-31 1-1 10 32 3z"/><path d="m281 393-36 2v10l35 2z"/><path d="m281 413-36 3v6l35 1z"/></g><g fill="#e39f33"><path d="m341 413 48-6-10-90-34 5z"/><path d="m378 299h-36v-63l28-3z"/><path d="m127 413 64-6-6-58-53 7z"/></g></g></g></svg>