<svg id="Capa_1" enable-background="new 0 0 512 512" height="512" viewBox="0 0 512 512" width="512" xmlns="http://www.w3.org/2000/svg"><g><g><g><path d="m456 356-2-38-399 6-1 32 194 24z" fill="#c2c2b5"/><path d="m456 356h-267.923l-5.077-22-99 2-2.5 20h-27.5l-2 108 408 2z" fill="#ecedde"/></g><g fill="#c2c2b5"><g><path d="m96 377-3 64h10v-64z"/><path d="m111 384v20l32-1-1-19z"/><path d="m111 412v20l54-1v-19z"/></g><g><path d="m400 377-1 64h10l-2-64z"/><path d="m359 385-2 19h34v-20z"/><path d="m337 412 1 20 53 1v-21z"/></g><path d="m284 431-2-20h-22.938l-.198-6.348 11.136.348-1-21-10.77.359-.23-7.359h-7l-.119 7.604-11.881.396-1 19 12.572.393-.103 6.607h-21.469l-1 20h22.156l-.156 10h10l-.312-10z"/></g></g><g><path d="m98 2-6 282h328l-14-284z" fill="#e3af80"/><path d="m172 222h168l-9-160-156 3z" fill="#ebd280"/></g><path d="m336 471-68-47 5 84 16.109-20.62 8.891 24.62 29-20-19.418-17.261z" fill="#827d7a"/></g></svg>