<svg id="Capa_1" enable-background="new 0 0 512 512" height="512" viewBox="0 0 512 512" width="512" xmlns="http://www.w3.org/2000/svg"><g><g><g><path d="m296 355-23 112h48l8-112z" fill="#554945"/><path d="m211 355 24 113-52 3-2-116z" fill="#554945"/><path d="m315 355 28 156h76l-70-156z" fill="#e2e2d5"/><path d="m210 355-57 156h-67l83-156z" fill="#e2e2d5"/><path d="m84 350-10 40 364-6-13-34z" fill="#827d7a"/></g><g><path d="m464 1 48 359-512 5 40-344z" fill="#554945"/><path d="m74 43-31 283 430-8-42-286z" fill="#39231d"/><g><g fill="#39231d"><path d="m33 137h22l1-12h-21z"/><path d="m55 146-1 12-23-1 1-11z"/><path d="m50 198-23-2-1 12 23 2z"/><path d="m49 220-24-2v12l23 2z"/></g><g><path d="m30 167 23 1-2 19-23-2z" fill="#39231d"/><path d="m38 171 6 1-1 10-7-1z" fill="#554945"/></g><g><path d="m35 115h22v-15l-20-1z" fill="#39231d"/><path d="m41 104-1 6h12v-6z" fill="#b8e064"/></g></g><g fill="#5a504c"><path d="m440 170-380 128 6-73 370-83z"/><path d="m432 121-364 75 3-34 354-98z"/></g><g fill="#39231d"><path d="m492.858 216.837-5.406-40.435-14.452 4.598 7 34z"/><path d="m478.531 109.681-15.531 9.319 7 39 15.258 1.99z"/></g></g></g><g><g><path d="m459 337 1-9 13-1 2 10z" fill="#39231d"/><path d="m477 491v-156h-20l5 156z" fill="#827d7a"/><g fill="#39231d"><path d="m465 478h8l-1-16-7 1z"/><path d="m461 341h12l-1 35-9 1z"/></g></g><g><path d="m501 511h-62l-11-15 13-14 57 1 14 11z" fill="#e2e2d5"/><path d="m428 496 84-2-11 17h-62z" fill="#827d7a"/></g></g></g></svg>