<svg id="Capa_1" enable-background="new 0 0 512 512" height="512" viewBox="0 0 512 512" width="512" xmlns="http://www.w3.org/2000/svg"><g><path d="m160.5 84 49 148-69 160-47 120 13-512z" fill="#e7b236"/><path d="m418.5 512-56-110-66-173 30-159 53-62z" fill="#e7b236"/><path d="m94.5 512h324l-56-110-111-28-111 18z" fill="#e39f33"/><path d="m362.5 402-36-332-166 14-20 308z" fill="#f7e372"/><path d="m160.5 84-54-84 273 8-53 62z" fill="#e39f33"/><g fill="#e7b236"><path d="m170.5 350 156-8-9-52-139 8z"/><path d="m186.5 260 124 1-6-52-111-12z"/></g></g></svg>