<svg id="Capa_1" enable-background="new 0 0 512 512" height="512" viewBox="0 0 512 512" width="512" xmlns="http://www.w3.org/2000/svg"><g><g><path d="m512 340-467 48-45-304 460-84z" fill="#e2e2d5"/><g><path d="m25 100 34 268 64-7 3-138-31-135z" fill="#554945"/><path d="m95 88 28 273 364-40-41-296z" fill="#827d7a"/><g fill="#554945"><path d="m465 279 1 28-34 5-1-10 24-5v-18z"/><path d="m400 46 31-6 5 27-7 2-6-18-21 3z"/><path d="m113 120-2-24 34-6 1 9-23 5-1 15z"/><path d="m132 325 2 24 33-5-1-8-24 3-1-15z"/></g><path d="m93 232-36 4v-10l34-6z" fill="#b8e064"/></g></g><g><path d="m375 493 15 19 19-8-4-25z" fill="#39231d"/><path d="m281 254-11-14-6 2 6 16z" fill="#39231d"/><path d="m371 498-105-230 2-8 15-5 8 2 120 223z" fill="#554945"/><g fill="#39231d"><g><path d="m281 281 10-4 12 17-15 6z"/><path d="m292 308 16-6 10 23-12 5z"/></g><path d="m266 268 25-11-10-8-16 6z"/><path d="m395 471-19 9-33-73 11-5z"/></g></g><g><ellipse cx="156" cy="444" fill="#e2e2d5" rx="60" ry="48"/><ellipse cx="156" cy="444" fill="#827d7a" rx="46" ry="38"/><path d="m137 406 8 10h20l6-13z" fill="#e2e2d5"/><ellipse cx="157" cy="444" fill="#554945" rx="16" ry="14"/><path d="m144 407 4 5h12l4-6z" fill="#b8e064"/></g></g></svg>