<svg id="Capa_1" enable-background="new 0 0 512 512" height="512" viewBox="0 0 512 512" width="512" xmlns="http://www.w3.org/2000/svg"><g><path d="m438 484s-54 28-182 28-182-28-182-28 85.484-20 186-20 178 20 178 20z" fill="#f1edde"/><g><path d="m470 206c0 141-99.811 206-218 206s-210-92.229-210-206c0-87 95.811-206 214-206 133 0 214 92.229 214 206z" fill="#f7e372"/><path d="m432 206c0 93.888-70 170-176 170-94.993 0-172-76.112-172-170s77.007-170 172-170 176 76.112 176 170z" fill="#e7b236"/><g fill="#f7e372"><path d="m107 206h41l4 19-48 5z"/><path d="m358 199 51-8 5 26h-54z"/><g><path d="m152 143 42-27 56 52 45-74 53 20-75 84 20 118-66 6 8-114z"/><path d="m195 225 116-18 12 30-128 14z"/><path d="m199 267 122-13v25l-115 19z"/></g></g></g></g></svg>