<svg id="Capa_1" enable-background="new 0 0 512 512" height="512" viewBox="0 0 512 512" width="512" xmlns="http://www.w3.org/2000/svg"><g><g><g><g fill="#7b4920"><path d="m234 330-15 172h96l-49-172z"/><path d="m193 493 8-67 107-7 33 74z"/><path d="m193 326-8 48 136-8-14-40z"/></g><path d="m136 512h264l-11-21-241-3z" fill="#946e4d"/></g><g><g fill="#7b4920"><path d="m31 338 5 15 19 1 4-16z"/><path d="m67 338 3 16h19l2-16z"/><path d="m99 338 2 15 22 1 4-16z"/><path d="m137 338 1 15 22-1 3-14z"/></g><path d="m33 0-33 348 512-11-44-333z" fill="#946e4d"/><path d="m31 322 448-10-33-287-393-7z" fill="#7b4920"/><g><path d="m482 331-14 24-61 4-21-28z" fill="#946e4d"/><path d="m416 337 40-3-5 12h-31z" fill="#d6de84"/></g></g></g><g><path d="m112 69-9 155h288v-15l-265-3 6-138z" fill="#a7807a"/><path d="m150 134h220l-4-36-211-8z" fill="#f7e372"/><path d="m149 153 136 1-4 28-127 7z" fill="#e4883c"/><path d="m353 236-4 20h24l-2-20z" fill="#e4883c"/><path d="m312 256h24l-3-20h-18z" fill="#f7e372"/></g></g></svg>