<svg id="Capa_1" enable-background="new 0 0 512 512" height="512" viewBox="0 0 512 512" width="512" xmlns="http://www.w3.org/2000/svg"><g><g><path d="m91.2 142.6 16.4-95.6 288.4-8 28 103.6z" fill="#e4b236"/><g><path d="m109 148 20-148 202 7 60 66 16 75z" fill="#ecedde"/><path d="m331 7-4 65 64 1-59.885-65.872" fill="#c2c2b5"/></g><path d="m51 410 410-12-23-276-262 8-4-52h-92z" fill="#f7e372"/><g fill="#e4b236"><path d="m230 214-63 40-17-26 71-34z"/><path d="m234 246 68 26-16 22-60-29z"/><path d="m197 273-52 21 9 16 60-16z"/><path d="m274 225 46-26 15 16-48 31z"/><path d="m239 324 43 31 17-16-49-29z"/><path d="m321 299 34-44 18 9-31 46z"/></g></g><path d="m438 488s-89.484 24-190 24c-115 0-174-24-174-24s81.484-24 182-24 182 24 182 24z" fill="#ecedde"/></g></svg>