<svg id="Capa_1" enable-background="new 0 0 512 512" height="512" viewBox="0 0 512 512" width="512" xmlns="http://www.w3.org/2000/svg"><g><g><path d="m406 140-16-106-277 7-15 99z" fill="#e4b236"/><g><path d="m112 128 25-128 171 7 68 72 8 49z" fill="#ecedde"/><path d="m309 76 67 3-68-72z" fill="#c2c2b5"/></g><path d="m51 410 410-7-32-280-249-4-3-36h-97z" fill="#f7e372"/><path d="m357 309c-5.874 0-10.895 4.139-12.973 10h-50.877c26.726-15.548 45.729-45.093 48.495-72.266l8.355 1.266 10-32-44-4 1 31 7.483 1.134c-3.407 27.731-23.472 58.926-50.188 70.359l-2.295-8.493h-34l-2.124 10.09c-28.633-9.77-50.556-42.465-54.306-71.51l10.43-.58-6-26-28 2-2 26 10.232-.568c2.28 27.526 21.464 57.772 48.618 73.568h-37.576c-3.338-6.464-11.159-11-20.274-11-12.15 0-22 8.059-22 18s9.85 18 22 18c9.23 0 17.127-4.652 20.393-11.246l55.16-.88-2.553 12.126 52-1-3.206-11.864 64.945-1.036c1.865 6.333 7.091 10.9 13.261 10.9 7.732 0 14-7.163 14-16s-6.268-16-14-16z" fill="#e4b236"/></g><path d="m434 488s-77.484 24-178 24-182-24-182-24 81.484-24 182-24 178 24 178 24z" fill="#ecedde"/></g></svg>