<svg id="Capa_1" enable-background="new 0 0 512 512" height="512" viewBox="0 0 512 512" width="512" xmlns="http://www.w3.org/2000/svg"><g><path d="m438 484s-54 28-182 28-182-28-182-28 71.484-20 172-20 192 20 192 20z" fill="#f1edde"/><g><g><path d="m454 373-9-336-97-12v356z" fill="#e7b236"/><path d="m363 53 64 3-13 241h-51z" fill="#f1edde"/><path d="m65 0-7 412 376-8-1-143-50-46 7-207z" fill="#f7e372"/></g><g><g fill="#e7b236"><path d="m201 330 48-1-6-79-38 1z"/><path d="m274 328 56-2-17-126h-39z"/><path d="m174 331-44 1 7-44h33z"/></g></g></g></g></svg>