<svg id="Capa_1" enable-background="new 0 0 512 512" height="512" viewBox="0 0 512 512" width="512" xmlns="http://www.w3.org/2000/svg"><g><path d="m438 484s-54 28-182 28-182-28-182-28 85.484-20 186-20 178 20 178 20z" fill="#f1edde"/><g><path d="m470 206c0 94-91.811 206-210 206s-218-92.229-218-206c0-91 95.811-206 214-206s214 92.229 214 206z" fill="#f7e372"/><path d="m428 210c0 93.888-77.007 166-172 166-112 0-172-76.112-172-170s77.007-170 172-170c113 0 172 80.112 172 174z" fill="#e7b236"/><g fill="#f7e372"><path d="m334 303-18-109-99-2v-56l54-7 11 38 36-6-7-58-53 2-6-28h-18v29l-47 2-9 112 99-1 7 44-61 15-13-39-27 6 7 70 52-5-3 23 49-7-12-20z"/><path d="m162 212-35-23-29 23 35 17z"/><path d="m346 208 28-20 32 17-21 19z"/></g></g></g></svg>