<svg id="Capa_1" enable-background="new 0 0 512 512" height="512" viewBox="0 0 512 512" width="512" xmlns="http://www.w3.org/2000/svg"><g><path d="m496 414-148-82 28 164 32.849-48.56 19.151 48.56 60-39-41.245-33.684z" fill="#827d7a"/><g><path d="m19 512 29-470 464-14v64l-409 13-17 407z" fill="#ecedde"/><g fill="#c2c2b5"><path d="m132 0-121 10-11 130 148-2z"/><path d="m392 10v41.451c-110.438 19.682-315.744 91.386-346.18 352.549h-37.82l-8 108h128l-9-108h-35.587c10.211-102.201 63.041-286.61 308.587-315.992v43.992h120v-132z"/></g></g><path d="m265 230c-35.346 0-64 24.177-64 54s28.654 54 64 54 64-24.177 64-54-28.654-54-64-54zm0 84c-17.673 0-32-12.536-32-28s14.327-28 32-28 32 12.536 32 28-14.327 28-32 28z" fill="#c2c2b5"/></g></svg>