<svg id="Capa_1" enable-background="new 0 0 512 512" height="512" viewBox="0 0 512 512" width="512" xmlns="http://www.w3.org/2000/svg"><g><path d="m489.107 442.819.797-372.013 22.096 1.194-4-68-68-4-.774 26.327-372.631 2.399.405-28.726-64 3-3 64 24.354 1.476 1.646 183.524h17v-182.394l23 1.394.289-20.486 372.454-7.778-.743 25.264 35.273 1.907-9.679 371.318-19.594-1.225-1.4 23.803-186.6-1.803v21l185.004 7.94-1.004 17.06 72 4-4-68z" fill="#ecedde"/><g fill="#c2c2b5"><path d="m260.375 294.465 27.625 1.535 2-70-68-4-2.774 32.364-150.293 1.342-2.933-34.706-64 5-2 66h26v149.312l-22 .688-4 68 72 2-1.745-31.418 147.29 1.938-1.545 25.48 72 4 2-72-28.27.808zm-190.952 171.154-1.423-25.619-19.078.596-6.309-148.596h29.387l-1.661-19.651 147.585-2.798-1.924 22.449 30.141 1.675-5.145 147.725-20.996.6-1.254 20.691z"/><path d="m166 386-40 2 3-37 33-1z"/></g><path d="m435 131-52-50-37 66-36-29-1 87 104-7-40-29z" fill="#827d7a"/></g></svg>