<svg id="Capa_1" enable-background="new 0 0 512 512" height="512" viewBox="0 0 512 512" width="512" xmlns="http://www.w3.org/2000/svg"><g><g><path d="m9 430 17-220 449-18 25 224-58 21-358 7z" fill="#946e4d"/><path d="m0 512 5-40 79-28 358-7 63 23 7 52z" fill="#946e4d"/><g fill="#7b4920"><path d="m9 430h74l354-8 63-6 5 44-66-7-356 11-78 8z"/><path d="m61 177 14 156 338-1 32-171z"/><path d="m60 512 13-140h359l24 140z"/></g><path d="m91 512 15-111 293-5 24 116z" fill="#d6de84"/><path d="m224 443 21 19 38-34 17 11-45 53-51-18z" fill="#7b4920"/><path d="m115 313 4 40 238-4 14-36z" fill="#7b4920"/></g><g><path d="m126 308 19-308h203l22 312z" fill="#f7e372"/><ellipse cx="309" cy="52" fill="#e4883c" rx="26" ry="28"/><g fill="#e7b236"><path d="m264 24-20 1 1 9h19z"/><path d="m262 40-18 2v8h18z"/><path d="m264 56h-19l-1 9 20 3z"/><path d="m264 73h-20v7l20 3z"/><path d="m264 97h-20v8l20 2z"/><path d="m264 112-20 2 1 8h19z"/><path d="m264 127-20 2v8h20z"/><path d="m264 142-20 1 2 9h18z"/><path d="m264 169-20 3v7h20z"/><path d="m264 183h-18l-2 7 20 1z"/><path d="m264 196h-20v8l20 2z"/><path d="m264 211h-20l1 8 19 4z"/><path d="m264 238-20 2v7l20 1z"/><path d="m264 253h-19l-1 6 20 2z"/><path d="m264 266h-20v6l20 2z"/><path d="m264 279h-20l1 8 19 2z"/></g><g fill="#e39f33"><path d="m162 283 4-45h40v48z"/><path d="m302 289 22 2 2-57-23 2z"/><path d="m326 219-24-1 3-43h17z"/></g></g></g></svg>