<svg id="Capa_1" enable-background="new 0 0 512 512" height="512" viewBox="0 0 512 512" width="512" xmlns="http://www.w3.org/2000/svg"><g><g><path d="m32 143 440-41v117l-440 11z" fill="#f1edde"/><g fill="#a7807a"><path d="m94 137.223v43.777l66-5-4.241-44.532z"/><path d="m32 230 66.082-1.652-4.082-47.348-62 4.895z"/><path d="m161.88 226.753 70.941-1.774-1.821-50.979-71 2z"/><path d="m472 102-86.041 8.018 3.041 53.982 83-4.415z"/><path d="m234.28 124.151-3.28 49.849 88-5-5.162-52.262z"/><path d="m389 164-70 5 5.369 53.691 71.843-1.796z"/></g></g><path d="m43 400 436-8v-32l-436 19z" fill="#e9a671"/><path d="m18 504v-432h23l21 432z" fill="#d3c2b5"/><path d="m499 512-16-472h-22l-10 472z" fill="#d3c2b5"/><g fill="#a7807a"><ellipse cx="472" cy="32" rx="36" ry="32"/><ellipse cx="32" cy="68" rx="32" ry="28"/><path d="m0 512h83l-6-19-34-6-40 8z"/><path d="m512 512-4-19-33-5-38 9-5 15z"/></g></g></svg>