<svg id="Capa_1" enable-background="new 0 0 512 512" height="512" viewBox="0 0 512 512" width="512" xmlns="http://www.w3.org/2000/svg"><g><path d="m19 257c0 129.234 105.661 236 236 236s236-106.766 236-236-98-234-236-234l2 28c119.293 0 216 90.02 216 206s-96.707 206-216 206-216-90.02-216-206z" fill="#ecedde"/><g fill="#c2c2b5"><path d="m290 444-64 2-4 66h72z"/><path d="m512 224-68-4-2 72h66z"/><path d="m68 218-66 4-2 68 72 2z"/><path d="m424 9c-14.146 0-26.14 8.035-30.367 19.171l-101.397.659-1.236-28.83-66 1-2.955 28.285-92.297.6c-3.537-9.781-14.174-16.885-26.748-16.885-15.464 0-28 10.745-28 24s12.536 24 28 24c12.475 0 23.039-6.994 26.659-16.656l90.628 1.766-2.287 21.89 76 2-.963-22.473 102.342 1.994c5.253 9.176 16.093 15.479 28.621 15.479 17.673 0 32-12.536 32-28s-14.327-28-32-28z"/></g><path d="m284 307s-17.587-4.587-22-9c-10.688-10.688 32-58 32-58l-99-99-9 4 31 86c7.858.554 14 5.811 14 12 0 6.559-6.474 12-15 12s-16-5.441-16-12c0-4.707 2.839-9.078 8-11l-34-78-10 4-14 130s68 3.625 68 25c0 6.011-8 22-8 22l9 14 68-25z" fill="#827d7a"/></g></svg>