<svg id="Capa_1" enable-background="new 0 0 512 512" height="512" viewBox="0 0 512 512" width="512" xmlns="http://www.w3.org/2000/svg"><g><g><path d="m0 332 256-116 256 121-256 175z" fill="#c2c2b5"/><g fill="#aca9a1"><path d="m406.843 287.297-34.046-16.092-256.62 142.482 25.129 17.669z"/><path d="m474.1 319.086-25.594-12.097-257.645 159.21 28.773 20.231z"/><path d="m34.53 356.279 28.191 19.822 258.159-129.435-33.763-15.958z"/></g></g><path d="m0 234 247-126 265 128-262 156z" fill="#dcdccc"/><g><path d="m267 0-267 129 258 135 254-141z" fill="#ecedde"/><path d="m429 115 30.087-18.564-17.502-8.787-30.585 18.351-51-26 31.547-17.472-24.596-12.348-30.951 17.82-46-23 30.582-18.1-15.052-7.557-31.53 17.657-40.755-20.691-25.655 12.395 41.41 21.296-46 25-42.436-23.576-17.578 8.493 42.014 25.083-42 23-43.055-27.288-30.991 14.973 45.046 28.315-60.091 33.208 25.859 13.531 56.232-33.739 38.957 24.732-53.301 30.926 17.238 9.02 53.106-29.678 51 33-45.941 27.113 22.135 11.582 43.806-26.695 37.665 23.316 26.631-14.783-38.296-24.533 43-27 41.858 25.685 26.046-14.458-44.904-25.227 51-31 49.51 25.359 24.74-13.734zm-162-56 46 23-48 28-43-24zm-104 62 41-24 40 25-42 24zm107 68-50-32 43-24 50 30zm66-39-50.904-28.844 50.255-27.716 51.649 26.56z" fill="#c2c2b5"/></g></g></svg>