<svg id="Capa_1" enable-background="new 0 0 512 512" height="512" viewBox="0 0 512 512" width="512" xmlns="http://www.w3.org/2000/svg"><g><path d="m0 512 20-352 462-4 30 356z" fill="#946e4d"/><path d="m59 197-7 40 386-15-9-38z" fill="#7b4920"/><g><path d="m35 512 5-45 417-3 10 48z" fill="#7b4920"/><path d="m53 512 4-22 102-2 8 24z" fill="#b59071"/><path d="m186 512 8-28h97l11 28z" fill="#b59071"/><path d="m325 512 2-26 111-2 9 28z" fill="#e4883c"/></g><g><path d="m372 0 28 201-308 19-20-190 28-7 15 22 26-4 5-21 38-5 18 18 27-3 6-19 37-7 21 18 37-5 7-17z" fill="#eae2d5"/><g fill="#d3c2b5"><path d="m104 87 110-16 6 20-114 20z"/><path d="m109 135 170-26 6 20-172 28z"/><path d="m317 101 3 23 45-9-6-23z"/><path d="m112 186 260-38 4 12-263 36z"/></g></g><g><path d="m52 259-9 185 412-12-15-192z" fill="#7b4920"/><path d="m73 279-6 108 360-12-16-114z" fill="#d6de84"/><path d="m207 310 21 19 30-35 21 12-41 52-51-17z" fill="#7b4920"/><g fill="#b59071"><path d="m67 405 70-4 2 24-64 2z"/><path d="m162 401 73-4 4 25-80 3z"/><path d="m260 396-2 25 80-3-7-25z"/><path d="m359 391-4 26 68-2 4-24z"/></g></g><g fill="#7b4920"><path d="m422 193h36v16l-34 4z"/><path d="m70 205-32 5v16l32 3z"/></g></g></svg>