<svg id="Capa_1" enable-background="new 0 0 512 512" height="512" viewBox="0 0 512 512" width="512" xmlns="http://www.w3.org/2000/svg"><g><g><path d="m512 512v-324l-295-16-61 311z" fill="#554945"/><path d="m495 492 3-286-271-19-48 274z" fill="#827d7a"/></g><g><path d="m148 155-22-155h-14l24 156z" fill="#554945"/><path d="m196 148-78 6-20-22-68 7-10 22-20 2v249l220-30z" fill="#e2e2d5"/><path d="m0 382 196-21-17-192-179 14z" fill="#554945"/><g><path d="m135 355 44-6-6-28-38 7z" fill="#e2e2d5"/><path d="m120 357-38 5 2-29 29-3z" fill="#e2e2d5"/><path d="m0 370 64-8-5-25-59 4z" fill="#e2e2d5"/><path d="m172 309-90 12 3-33 84-11z" fill="#827d7a"/><path d="m167 262-52 6 3-31 44-5z" fill="#827d7a"/><g fill="#e2e2d5"><path d="m69 323-6-32-31 2-3 34z"/><path d="m16 328-16 2v-36h12z"/><path d="m98 270-40 5 2-31 28-3z"/><path d="m42 277-34 3 2-31 29-3z"/><path d="m161 217-84 8 1-34 79-4z"/><path d="m64 226-36 3 3-33 29-3z"/><path d="m14 230-14 2v-34h10z"/></g></g><path d="m34 164 64-5-9-17-48 8z" fill="#554945"/><path d="m85 155-40 4 2-4 35-6z" fill="#b8e064"/></g><g><path d="m270 42 30 104 134-31-45-101z" fill="#e2e2d5"/><g fill="#827d7a"><path d="m299 55 77-20 3 7-78 19z"/><path d="m305 69 76-20 2 5-76 21z"/><path d="m311 83 75-20 3 7-76 18z"/><path d="m353 95 37-9 3 6-38 8z"/></g></g><g><path d="m285 362-9-13.871 5-18.515 15-3.614z" fill="#554945"/><path d="m295 325-9-9 6-19 16-4z" fill="#554945"/><path d="m412 259-58-16-49 46-27 80 15 51 66 23 42-23 27-83z" fill="#ffffe8"/><path d="m412 259-58-16-49 46 62 10 61 38z" fill="#554945"/><path d="m392 244-20 51 58 35-10-79z" fill="#ffffe8"/><path d="m307 282 58 11 16-53-33-5z" fill="#ffffe8"/><g><path d="m391 259-19-5-11 31 21 6z" fill="#554945"/><path d="m375 260 10 3-6 22-12-3z" fill="#e2e2d5"/><path d="m378 260-9 25 6 2 8-26z" fill="#554945"/></g></g></g></svg>