<svg id="Capa_1" enable-background="new 0 0 512 512" height="512" viewBox="0 0 512 512" width="512" xmlns="http://www.w3.org/2000/svg"><g><g><ellipse cx="256" cy="206" fill="#f7e372" rx="214" ry="206"/><path d="m428 206c0 93.888-73.007 172-168 172s-176-78.112-176-172c0-112 77.007-170 172-170s172 102 172 170z" fill="#e7b236"/><g fill="#f7e372"><g><path d="m366 264-32-20-36 28-51 7-35-38-4-54 21-42 49-8 42 19 32-23-50-39-93 7-43 85 1 69 64 63 91-4z"/><path d="m141 211 108-12v-28h-108z"/><path d="m139 229 112-9v26l-105 14z"/></g><path d="m388 181-17 29 17 19 17-25z"/><path d="m114 194-19 24 19 20 13-20z"/></g></g><path d="m438 484s-54 28-182 28-182-28-182-28 71.484-20 172-20 192 20 192 20z" fill="#f1edde"/></g></svg>