<svg id="Capa_1" enable-background="new 0 0 512 512" height="512" viewBox="0 0 512 512" width="512" xmlns="http://www.w3.org/2000/svg"><g><path d="m474 511.5h-432l-14-424h456z" fill="#cf7f58"/><g><path d="m0 126.5 360.999-10 151.001 3-6-114-498-5z" fill="#e9a671"/><g fill="#cf7f58"><path d="m86.051 1.284 9.949 17.216 82 2 9.101-18.202z"/><path d="m357 21.5 74-2 5.35-14.699-86.916-.873z"/></g></g><g><path d="m121 262.5-7 175h280l-18-178z" fill="#f1edde"/><g fill="#d3c2b5"><path d="m262 288.5c33.137 0 60 25.177 60 55l-62 3z"/><path d="m253 299.5c-33.137 0-60 24.177-60 54s26.863 54 60 54 60-24.177 60-54h-60z"/></g></g><path d="m156 158.5-7 56 208-1-11-59z" fill="#b56f4a"/><path d="m100 299.5 9 9 20-12 7 108-46 3z" fill="#e9a671"/></g></svg>