<svg id="Capa_1" enable-background="new 0 0 512 512" height="512" viewBox="0 0 512 512" width="512" xmlns="http://www.w3.org/2000/svg"><g><g><path d="m359 498-2 14h-224l-2-12 111-6z" fill="#554945"/><g fill="#39231d"><path d="m171 498 1 14h8l1-14z"/><path d="m154 498 4 14h8l-1-14z"/><path d="m187 498-2 14h6l5-14z"/><path d="m147 498 4 14h-9l-5-14"/><path d="m347 512 5-16h-12l-2 16z"/><path d="m334 496-3 16h-6l-1-16z"/><path d="m318 496-2 16h-8v-16z"/><path d="m301 496 1 16h-8l-4-16z"/></g><path d="m361 374 4 98-22 6v12l40-2v-114z" fill="#554945"/><path d="m147 477-19-3 8-104h-21l-4 119 36 1z" fill="#554945"/><path d="m131 500 228-2-10-46-206 6z" fill="#e2e2d5"/><path d="m199 505 15-22 56-2 21 24z" fill="#554945"/><path d="m222 492-6 10 54-1-7-10z" fill="#b8e064"/></g><g><path d="m12 14-12 379 512 3-16-396z" fill="#e2e2d5"/><path d="m27 30 450-10 16 350h-478z" fill="#827d7a"/><path d="m58 55-16 285h420l-16-292z" fill="#ffffe8"/><g><path d="m289 133-4 32 5 32 63-1-5.438-63z" fill="#c2c2b5"/><path d="m227 197h63l-1-64h-65l-6 30z" fill="#e2e2d5"/><path d="m161 135-2 62h68l-3-64z" fill="#e4883c"/></g><path d="m189 182 6 68 20-23 32-6z" fill="#827d7a"/></g><g><path d="m409 306-65-6s6-33 38-48 58-7 58-7l-16 54z" fill="#e58d3c"/><ellipse cx="414" cy="304" fill="#e2e2d5" rx="28" ry="24"/></g></g></svg>