<svg id="Capa_1" enable-background="new 0 0 512 512" height="512" viewBox="0 0 512 512" width="512" xmlns="http://www.w3.org/2000/svg"><g><path d="m258 251 112 261 50-70 92-16-161-242z" fill="#cf7f58"/><path d="m258 256-108 226-56-52-80-9 145-205z" fill="#cf7f58"/><g><path d="m484 149 15 64-241-23-230 23 17-63z" fill="#d3c2b5"/><path d="m0 185 250-30 262 17-15-163-251 32-238-3z" fill="#f1edde"/></g><path d="m184 7-18 177h172l-28-184z" fill="#e9a671"/><g><path d="m380 170c0 62.96-59.517 114-128 114s-120-51.04-120-114c0-52 48-114 124-114 68.483 0 124 42 124 114z" fill="#f7e372"/><path d="m256 82c-51.915 0-94 32-94 88 0 48.601 42.085 88 94 88 59 0 94-39.399 94-88s-42.085-88-94-88z" fill="#e7b236"/><g fill="#f7e372"><g><path d="m224 214 64 2-6-26-54 3z"/><path d="m243 203h24l-3-64h-15z"/><path d="m227 149 56 3-3-28-49 2z"/></g><path d="m334 159-27 3-2 14 32 3z"/><path d="m205 159-31-4-3 20 36-2z"/><path d="m196 145s22-44 59-44 55 47 55 47l17.667-5s-17.667-51-72.667-51-73 51-73 51z"/><path d="m192 188s5 49 63 49c62 0 59-45 59-45l16 3s-5 53-74 53c-67 0-78-58-78-58z"/></g></g></g></svg>