<svg id="Capa_1" enable-background="new 0 0 512 512" height="512" viewBox="0 0 512 512" width="512" xmlns="http://www.w3.org/2000/svg"><g><path d="m80 85-10 352 376-2-14-350z" fill="#ecedde"/><path d="m282 270-15.414-11.857 11.414-13.143-10-6-11.628 11.286-13.372-10.286-7 9 11.158 10.229-13.158 12.771 11 11 12.451-14.337 14.549 13.337z" fill="#c2c2b5"/><path d="m425 258-31.243-35.838 12.243-8.162-35-12-4 38 14.707-9.805 17.293 26.805-16.379 25.861-14.621-9.861 1 37 42-8-13.655-9.209z" fill="#827d7a"/><g fill="#c2c2b5"><path d="m165 120 25-24-10-13-27 27z"/><path d="m219 44-26 28 10 10 27-26z"/><path d="m126 161 25-26-12-11-24 25z"/><path d="m92 196 22-23-11-13-23 23z"/><path d="m49 238 25-25-10-14-27 27z"/><path d="m349 113 13-12-22-21-12 10z"/><path d="m414 153-14 15 17 18 15-15z"/><path d="m378 117-13 13 20 22 15-13z"/><path d="m313 449-13-13-27 27 13 11z"/><path d="m244 39 19-19 18 19 9-10-27-29-31 30z"/><path d="m445 185-14 15 20 22 15-15z"/><path d="m290 48 24 27 11-12-26-26z"/><path d="m88 356 11-10-19-19-10 10z"/><path d="m123 391 10-10-20-21-12 10z"/><path d="m58 326 9-12-18-20-11 10z"/><path d="m263 473-19 18-19-18-11 9 30 30 30-26z"/><path d="m465 237 15 16-13 15 17 15 28-31-30-29z"/><path d="m161 429 10-10-24-24-10 11z"/><path d="m339 397-27.001 27 14.001 11 25-23z"/><path d="m203 471 10-10-26-27-10 10z"/><path d="m411 325-24 24 16 13 24-22z"/><path d="m376 360-24 24 13 14 26-24z"/><path d="m34 280-12-13 13-14-12-13-23 25 23 24z"/><path d="m455 281-28 28 16 13 28-25z"/></g></g></svg>