<svg id="Capa_1" enable-background="new 0 0 512 512" height="512" viewBox="0 0 512 512" width="512" xmlns="http://www.w3.org/2000/svg"><g><path d="m212 379-19 133h120l-23-133z" fill="#a7807a"/><path d="m509 336-11-336-489 6-7 330 246 31z" fill="#7b4920"/><path d="m0 396 512-8-3-52h-507z" fill="#eae2d5"/><path d="m144 512h224l-7-24-212 6z" fill="#eae2d5"/><ellipse cx="251" cy="437" fill="#fff" rx="28" ry="20"/><path d="m30 26-5 288 458-4-7-290z" fill="#ffffe8"/><path d="m166 86c-54.124 0-98 42.085-98 94s43.876 94 98 94 98-40.085 98-92l-98-2z" fill="#f7e372"/><path d="m178 74-4 94 102 2c0-51.915-43.876-96-98-96z" fill="#e4883c"/><g fill="#a7807a"><path d="m224 144 51-50 99-5v-10l-104 3-50 58z"/><ellipse cx="389" cy="85" rx="18" ry="15"/><path d="m302 210 87-4 3 19h-90z"/><path d="m302 245v15h116l-3-21z"/></g></g></svg>