<svg id="Capa_1" enable-background="new 0 0 512 512" height="512" viewBox="0 0 512 512" width="512" xmlns="http://www.w3.org/2000/svg"><g><path d="m218.5 436-16 58h96l-9-60z" fill="#b76e50"/><path d="m297.5 60-14-60-64 6-18 54z" fill="#b76e50"/><path d="m297.5 348 51 164h113l-95-164z" fill="#cf7f58"/><path d="m49.5 512h97l75-164h-74z" fill="#cf7f58"/><ellipse cx="253.5" cy="250" fill="#f1edde" rx="222" ry="214"/><g fill="#e9a671"><path d="m253.5 82c-98.307 0-178 75.216-178 168s64 168 178 168c98.307 0 180-75.216 180-168s-81.693-168-180-168zm0 316c-86.156 0-156-66.262-156-148s69.844-150 156-150 156 68.262 156 150-69.844 148-156 148z"/><path d="m253.5 126c-71.797 0-130 66-130 124 0 68.483 60.203 124 132 124s124-55.517 124-124-54.203-124-126-124zm0 224c-59.647 0-108-38-108-100 0-55.229 40-102 108-102 59.647 0 108 46.771 108 102s-48.353 100-108 100z"/><path d="m301.5 254c0 24.301-21.49 40-48 40s-48-15.699-48-40 21.49-48 48-48 48 23.699 48 48z"/></g><g><path d="m399.5 136-4-46 24-18 20 28z" fill="#946e4d"/><path d="m437.5 123 31 14-24 30-52-12z" fill="#946e4d"/><path d="m260.5 258 220-156-26-26-194 158z" fill="#cf7f58"/><path d="m244.5 242 14 22 19 2 15-7-24-18-9-30-14 10z" fill="#ece8e4"/></g></g></svg>