<svg id="Capa_1" enable-background="new 0 0 512 512" height="512" viewBox="0 0 512 512" width="512" xmlns="http://www.w3.org/2000/svg"><g><path d="m0 340 256-124 256 121-256 175z" fill="#c2c2b5"/><g><path d="m0 242 247-134 265 128-262 156z" fill="#dcdccc"/><g fill="#c2c2b5"><path d="m310 265 28 11 23-12-31-13z"/><path d="m139 272-26 13 26 14 19-10z"/><path d="m171 283 30-16-21-14-25 12z"/><path d="m315 243-59-27-57 28 18 14 37-16 38 15z"/><path d="m375.87 271.388-21.802 12.844 22.932 10.768 24-12z"/></g></g><g><path d="m267 0-267 137 258 127 254-141z" fill="#ecedde"/><g fill="#dcdccc"><path d="m152 159-27 14 22 12 22-13z"/><path d="m188 161 26-15-13-14-30 16z"/><path d="m285 144 30 14 10-14-32-16z"/><path d="m349 155-12 15 30 15 18-13z"/><path d="m274 121-27-13-27 14 13 12 14-8 15 8z"/></g></g></g></svg>