<svg id="Capa_1" enable-background="new 0 0 512 512" height="512" viewBox="0 0 512 512" width="512" xmlns="http://www.w3.org/2000/svg"><g><g><path d="m0 332 256-116 256 121-256 175z" fill="#c2c2b5"/><path d="m254 250-191 81 188 131 196-122z" fill="#aca9a1"/></g><g><path d="m0 234 247-126 265 128-262 156z" fill="#dcdccc"/><path d="m258 144-195 82 182 114 206-105z" fill="#c2c2b5"/></g><g><path d="m267 0-267 129 258 135 254-141z" fill="#ecedde"/><path d="m64 125 204-96 184 88-194 110z" fill="#dcdccc"/></g><g fill="#c2c2b5"><path d="m277 123-30 10 1-50-95 31 121 69z"/><circle cx="268" cy="108" r="7"/></g></g></svg>