<svg id="Capa_1" enable-background="new 0 0 512 512" height="512" viewBox="0 0 512 512" width="512" xmlns="http://www.w3.org/2000/svg"><g><g><path d="m310.5 193-77 3-155-196h124z" fill="#cf7f58"/><path d="m337.5 156-131 4-4 62h140zm-118 50 4-26h97l3 20z" fill="#f7e372"/><path d="m233.5 196 77-3 123-193h-108z" fill="#e9a671"/></g><g><ellipse cx="272.5" cy="364" fill="#f7e372" rx="158" ry="148"/><path d="m272.5 246c-67.931 0-123 52.83-123 118 0 82 55.069 118 123 118s123-52.831 123-118c0-65.17-55.069-118-123-118z" fill="#e7b236"/><g fill="#f7e372"><g><path d="m229.5 424 88-4-11-28-71 9z"/><path d="m254.5 409h32l-8-84h-18z"/><path d="m230.5 340h76l-7-36-60 6z"/></g><path d="m341.5 375 38 2-2-26-38 6z"/><path d="m206.5 357-41-6-3 28 41-4z"/><path d="m198.5 340s14-66 75-66c66 0 69 66 69 66l23-7s-28-73-92-73-96 72-96 72z"/><path d="m188.5 392s9 67 82 67c74 0 81-69 81-69l19 5s-20 75-102 75c-87 0-98-71-98-71z"/></g></g></g></svg>