<svg id="Capa_1" enable-background="new 0 0 512 512" height="512" viewBox="0 0 512 512" width="512" xmlns="http://www.w3.org/2000/svg"><g><path d="m77 391 50 49 37-66 31 25 6-83-100 7 40 29z" fill="#827d7a"/><g fill="#c2c2b5"><path d="m489.107 442.819.797-372.014 22.096 1.195-4-68-68-4-.787 26.763-372.612 5.597.399-28.36-64 3-3 64 23.827 1.444-1.615 368.987-18.212.569-4 64 70 6-.603-21.696 371.675 2.388-1.072 19.308 72-4-4-64zm-420.374 23.559-.733-26.378-22.306.697-4.446-367.197 24.752 1.5.319-22.643 372.419-9.461-.738 25.104 35.546 1.921-6.034 371.548-23.512-1.469-1.811 32.587z"/><path d="m277 275h-42l3-37 35 3z"/></g><path d="m438 125-47-53-37 64-36-29 1 85 102-5-40-29z" fill="#827d7a"/></g></svg>