<svg id="Capa_1" enable-background="new 0 0 512 512" height="512" viewBox="0 0 512 512" width="512" xmlns="http://www.w3.org/2000/svg"><g><g><path d="m90 324-21 84 372 4-19-88z" fill="#d3c2b5"/><path d="m65 47v85l172 37 208-45v-72zm83 56c-12.15 0-22-7.164-22-16s9.85-16 22-16 22 7.164 22 16-9.85 16-22 16zm196 0c-13.255 0-24-8.059-24-18s10.745-18 24-18 24 8.059 24 18-10.745 18-24 18z" fill="#e9a671"/><path d="m50 380 412-7-17-249-380 8z" fill="#f1edde"/><path d="m160 85-24 3-22-83 46-5z" fill="#a7807a"/><path d="m328 84 30 5 16-71-46-7z" fill="#a7807a"/><path d="m195 74-5 25h108l-9-28z" fill="#cf7f58"/><g fill="#a7807a"><path d="m232 291-5 36h56l-9-40z"/><path d="m232 271h40l7-92-60 5z"/></g></g><path d="m438 484s-54 28-182 28-182-28-182-28 71.484-20 172-20 192 20 192 20z" fill="#f1edde"/></g></svg>