<svg id="Capa_1" enable-background="new 0 0 512 512" height="512" viewBox="0 0 512 512" width="512" xmlns="http://www.w3.org/2000/svg"><g><path d="m437 424-144-80 26 164 30.899-48.455 24.101 52.455 56-44-42.466-33.973z" fill="#827d7a"/><path d="m78 47c0 112.666 89.321 208 181 208s167-85.334 167-198h-20c0 100.516-65.262 172-147 172s-159-81.484-159-182z" fill="#ecedde"/><g fill="#c2c2b5"><path d="m464 191c-22.158 0-40.798 13.766-46.325 32.475l-128.287 4.811-1.388-24.286-68 2-1.425 24.941-104.79 3.93c-6.903-20.125-29.256-34.871-55.785-34.871-32.032 0-58 21.49-58 48s25.968 48 58 48c28.505 0 52.19-17.023 57.064-39.452l102.193-2.555-1.257 22.007 76-2-1.248-21.844 127.731-3.193c6.369 17.453 24.334 30.037 45.517 30.037 26.51 0 48-19.699 48-44s-21.49-44-48-44z"/><path d="m446 14-64-4-4 72 72-4z"/><path d="m128 0-68 2-4 64 66 6z"/></g></g></svg>