<svg id="Capa_1" enable-background="new 0 0 512 512" height="512" viewBox="0 0 512 512" width="512" xmlns="http://www.w3.org/2000/svg"><g><g><path d="m440 53-204 7-169-7-2 80 172 34 204-44zm-294 50c-11.046 0-20-6.268-20-14s8.954-14 20-14 20 6.268 20 14-8.954 14-20 14zm220-15c0 8.837-9.85 16-22 16s-22-7.163-22-16 9.85-16 22-16 22 7.163 22 16z" fill="#e9a671"/><path d="m88 324-19 88 370-3-18-85z" fill="#d3c2b5"/><path d="m50 374 412 5-21-256-376 10z" fill="#f1edde"/><path d="m160 89-25 3-23-74 44-6z" fill="#a7807a"/><path d="m329 85 30 3 20-80-54-8z" fill="#a7807a"/><path d="m194 81-3 21h108l-5-26-52 6z" fill="#cf7f58"/><g><ellipse cx="254" cy="252" fill="#a7807a" rx="98" ry="86"/><ellipse cx="254" cy="252" fill="#f1edde" rx="82" ry="68"/><g fill="#a7807a"><path d="m260.763 249.423 4.237-44.423-26 1 4 49 54 40 21-20z"/><path d="m186 171-33 36-11-18 26-28z"/><path d="m334 169 20 44 16-11-15-33z"/></g></g></g><path d="m438 484s-54 28-182 28-182-28-182-28 91.484-20 192-20 172 20 172 20z" fill="#f1edde"/></g></svg>