<svg id="Capa_1" enable-background="new 0 0 512 512" height="512" viewBox="0 0 512 512" width="512" xmlns="http://www.w3.org/2000/svg"><g><g><path d="m78 324-9 88 374-3-19-85z" fill="#d3c2b5"/><path d="m67 49v79l170 41 206-45v-72zm81 51c-13.255 0-24-7.164-24-16s10.745-16 24-16 24 7.164 24 16-10.745 16-24 16zm196 4c-15.464 0-28-8.507-28-19s12.536-19 28-19 28 8.507 28 19-12.536 19-28 19z" fill="#e9a671"/><path d="m50 388 412-21-19-243-376 4z" fill="#f1edde"/><g fill="#a7807a"><path d="m160 85-24 3-16-81 38-7z"/><path d="m326 84 32 5 12-71-44-11z"/><g><path d="m189 155-3 46h52l-4-46z"/><path d="m270 155-3 46 58-2-9-44z"/><path d="m348 153v46l54-2-6-43z"/><path d="m103 230-4 44h58l-5-46z"/><path d="m186 229-3 44 58-1-4-45z"/><path d="m271 226-3 45 58-1-8-45z"/><path d="m351 225-1 45 56-2-5-44z"/><path d="m105 301-4 46 56-1-5-44z"/><path d="m186 302-3 45 56-1-5-45z"/><path d="m270 299-3 46 58-2-7-44z"/></g></g><path d="m194 74-5 24 108 2-7-28z" fill="#cf7f58"/></g><path d="m438 484s-54 28-182 28-182-28-182-28 71.484-20 172-20 192 20 192 20z" fill="#f1edde"/></g></svg>