<svg id="Capa_1" enable-background="new 0 0 512 512" height="512" viewBox="0 0 512 512" width="512" xmlns="http://www.w3.org/2000/svg"><g><path d="m470 244-259 236-21-34 267-216z" fill="#e0ad8b"/><g><path d="m488 196h-323l-1 316 348-8zm-250 234 3-160h183l8 153z" fill="#ecedde"/><path d="m470 215-283 8-1 266 300-8zm-251 36 225-10 11 209-240 5z" fill="#c2c2b5"/></g><path d="m8 50-8 296h338l-9-298z" fill="#ecedde"/><path d="m36.872 78.456v227.233l259.494 8.416v-235.649z" fill="#c2c2b5"/><path d="m485.892 93c-1.379-37.791-16.813-70.693-81.964-71.958l-.928-21.042-45 37 48 31-1.069-24.236c13.436-.053 49.915 4.004 52.873 49.236h-25.804l38 48 42-48z" fill="#827d7a"/></g></svg>