<svg id="Capa_1" enable-background="new 0 0 512 512" height="512" viewBox="0 0 512 512" width="512" xmlns="http://www.w3.org/2000/svg"><g><g><path d="m440 47-192 11-181-3-2 72 172 40 204-36zm-292 56c-12.15 0-22-6.268-22-14s9.85-14 22-14 22 6.268 22 14-9.85 14-22 14zm195.6.8c-13.255 0-24-7.88-24-17.6s10.745-17.6 24-17.6 24 7.88 24 17.6-10.745 17.6-24 17.6z" fill="#e9a671"/><path d="m88 324-19 88 370-5-18-83z" fill="#d3c2b5"/><path d="m50 376 412 3-21-248-376-4z" fill="#f1edde"/><path d="m160 89-25 3-18-86 44-6z" fill="#a7807a"/><path d="m329 85 30 3 18-84-54-4z" fill="#a7807a"/><path d="m294 80 3 22-108 2 5-28z" fill="#cf7f58"/><path d="m201 228 44 28 58-62 22 15-70 93-78-34z" fill="#a7807a"/></g><path d="m438 484s-54 28-182 28-182-28-182-28 97.484-20 198-20 166 20 166 20z" fill="#f1edde"/></g></svg>