<svg id="Capa_1" enable-background="new 0 0 512 512" height="512" viewBox="0 0 512 512" width="512" xmlns="http://www.w3.org/2000/svg"><g><g><path d="m405 428 15 84-324-11 20-73z" fill="#d3c2b5"/><path d="m363 428 22 51-256 2 10-53z" fill="#988b60"/></g><g><path d="m127 0-49 464 356-20-18-444z" fill="#f1edde"/><path d="m153 25 237 6 15 375-296 27z" fill="#b3ad6f"/><path d="m228 63h85l45 35 10 235-37 46-162 20-27-41 27-268z" fill="#d6de84"/><g fill="#b3ad6f"><path d="m251 101v45l20 3 12-48z"/><path d="m267 287-25 2-14 62 48-5z"/><path d="m336 217c0 19.882-34.922 32-78 32s-78-12.118-78-32 34.922-40 78-40 78 20.118 78 40z"/></g></g></g></svg>