<svg id="Layer_1" enable-background="new 0 0 135 135" height="512" viewBox="0 0 135 135" width="512" xmlns="http://www.w3.org/2000/svg"><g><g><path d="m107.5104446 116.7503738c3.2631302.2235565 6.5521774.0331421 9.771492-.565712.6320724-.1175766 4.3252487-.2867279 4.7132111-.8199997.299736-.4120026.3556442-.95681.4008713-1.4717255.2088928-2.3784866.4177933-4.7569656.6266861-7.1354523.0299072-.340477.058403-.693634-.0515518-1.0157547-.1309738-.3837051-.4410629-.6702499-.7654953-.8972168-1.6441727-1.150238-6.7743988-1.1362686-8.7538528-1.0810623-1.3196869.0368118-3.3715057.1938324-4.6911926.2306442" fill="#27aae1"/></g><g><path d="m109.817749 51.4076271c.1499634 19.2299767-.6400146 38.379879-1.0700073 57.5898399-.0100098.3500977-.0200195.7099609-.0300293 1.0600586 0 .2299805-.0100098.4501953-.0100098.6699219-.0199585.6899414-.039978 1.3598633-.0699463 2.0102539-.460022 11.2299805-2.5400391 16.6396484-14.6400146 17.0800781-16.1500244.5898438-32.5100136-.6904297-48.700016-.5302734-9.1699829.0898438-19.2299805 2.3901367-25.8599854-.1796875-4.6600342-1.8100586-7.6300049-6.0302734-7.3800049-15.1401367.2299805-8.6201172-.0400391-17.2299805-.5100098-25.8300781-.8599854-15.3701172-2.3800049-30.7299767-2.9099731-46.129879-.3200073-9.4204102-.1200562-19.8999043 6.0699463-26.7602539 4.5800171-5.0698242 11.4800415-6.9799805 18.0500488-8.2299805 1.25-.2397461 2.5099487-.4599609 3.7699585-.659668 2.1500244-.3500977 4.3000488-.6503906 6.460022-.9101563 13.5200195-1.6201172 27.239994-1.4199219 40.7100258.6098633 3.8699951.5898438 8.4299927 1.4501953 12.6199951 3.050293 5.3899536 2.0698242 10.1699829 5.3696289 12.0799561 10.8999014.8200073 2.3798828 1.2900391 5.2597656 1.5300293 8.3598633.6099853 7.7197275-.1500244 16.8100595-.1099854 23.04004z" fill="#ee2a7b"/></g><g><path d="m53.8745613 69.4735641c-3.2463493-.7015076-5.5094185-3.8665771-6.5990944-7.1304016-1.2355919-3.7008781-1.3300095-7.8821182.132576-11.4919739 2.7906837-6.8877869 11.9049187-9.6674538 18.5157394-8.0336685 7.9105453 1.9550896 12.1981812 11.9140816 10.3369904 18.7311478-.9035034 3.309288-3.4299088 6.3363647-6.9100647 7.4519348" fill="#fff"/></g><g><path d="m81.9632492 98.5100403h-40.6053886c-2.4852791 0-4.4999962-2.0147171-4.4999962-4.5v-1.5651932c0-13.6690292 11.0809441-24.7499771 24.7499771-24.7499771h.1054268c13.6690331 0 24.7499733 11.0809479 24.7499733 24.7499771v1.5651932c0 2.4852829-2.0147171 4.5-4.4999924 4.5z" fill="#fff"/></g><g><path d="m108.7071686 95.3998642c1.4947281-.2973404 3.0257034-.3180542 4.5472946-.3378143l11.7555084-.1526871c.2124023-.0027542.4415436-.0113144.609314-.1471329.2198715-.1780014.254631-.5043488.2716904-.7939911.1020584-1.7322235.2041168-3.4644394.3061752-5.1966553.0790329-1.3412857.1000366-2.8559265-.7997742-3.8182755-.7484818-.800499-1.9074554-.9619751-2.9739761-1.0786896-4.4467163-.486618-8.8934402-.9732437-13.3401642-1.4598618.3102493.0541458.6204987.1082993.9307404.1624451" fill="#8dc63f"/></g><g><path d="m108.9970627 74.7153168c3.8865051.5552902 7.7840958.9295883 11.685524 1.1222076.6263885.0309219 1.3314285.0113678 1.7691498-.673912.3891373-.6092224.4336929-1.5433884.4558258-2.3939667.0607529-2.3342056.1214981-4.6684113.1822433-7.0026093.0138779-.533165.0217209-1.1031342-.1635818-1.5554199-.1587906-.3875618-.4351883-.6239815-.7116928-.7989006-1.2834473-.8119278-2.7276764-.6183739-4.1167831-.6271248-2.3032074-.0145073-5.6641541.7623367-7.8339462-.4180031" fill="#fff200"/></g><g><path d="m91.5377197 14.0873137c-12.8200073-.9897461-25.789978-2.0297852-38.5999794-.3798828-10.8599854 1.4003906-21.6500244 6.20996-30.0499878 13.2202139-8.9800415 7.489748-9.4000244 21.8598652-10.2600098 32.5200195-.7600098 9.5400352-1.0100098 19.1201134-1.0800171 28.6899376-.8599854-15.3701172-2.3800049-30.7299767-2.9099731-46.129879-.3200073-9.4204102-.1200562-19.8999043 6.0699463-26.7602539 4.5800171-5.0698242 11.4800415-6.9799805 18.0500488-8.2299805 1.25-.2397461 2.5099487-.4599609 3.7699585-.659668-.8499756.5297852-1.6699829 1.0898438-2.4699707 1.6699219 2.9199829-1.050293 5.8999634-1.9003906 8.9299927-2.5800781 13.5200195-1.6201172 27.239994-1.4199219 40.7100258.6098633 3.8699951.5898438 8.4299927 1.4501953 12.6199951 3.050293.1699829 2.6196298-1.4299927 5.239747-4.7800293 4.9794931z" fill="#ff4d9e"/></g><g><path d="m109.817749 51.4076271c.1499634 19.2299767-.6400146 38.379879-1.0700073 57.5898399-.0400391.0703125-.0700073.1401367-.1099854.2099609-.1200562.2402344-.2600098.4799805-.3800049.7202148.1699829.25.3200073.5097656.4499512.7998047-.0199585.6899414-.039978 1.3598633-.0699463 2.0102539-.460022 11.2299805-2.5400391 16.6396484-14.6400146 17.0800781-16.1500244.5898438-32.5100136-.6904297-48.700016-.5302734-9.1699829.0898438-19.2299805 2.3901367-25.8599854-.1796875 8.2600098-.0800781 16.5499878-.8500977 24.5700073-1.5205078 12.9199829-1.0795898 28.8399696-1.199707 40.1199989-8.4794922 11.7000123-7.5600585 12.8599854-23.9301757 14.9799806-36.4003905 2.7600098-16.2099609 4.8599854-32.8398399 2.3300171-49.2197227-.8099976-5.2402363 5.7099609-7.9902363 8.4899902-5.1201191.6099853 7.7197284-.1500244 16.8100604-.1099854 23.0400409z" fill="#e50e70"/></g><g fill="#202020"><path d="m75.4758377 69.5416641c-.6560669-.4135742-1.3616333-.7929688-2.0901489-1.1533203.0748901-.0488281.1445923-.0883789.2218018-.1411133.8651123-.5981445 1.8464966-1.4936523 2.7821045-2.8320313.9227295-1.3271484 1.7672729-3.1953125 2.0662231-5.4985352 1.0215149-8.0720062-4.0919876-17.8827057-13.6122437-19.3393555-8.6744995-1.146965-18.4521103 3.505497-19.7249756 13.1933594-.5724335 4.4699402.7326393 9.9190178 3.7094727 13.199707.4545898.5136719.9278564.9394531 1.3926392 1.2875977-5.4288139 2.5796432-8.0973282 5.8000031-10.7122192 9.2666016-.6132202 1.0610352-1.3168335 2.0854492-1.8012695 3.237793-3.0963021 6.2205048-2.4279023 11.9203492-2.5225221 13.8320313.0466309.4052734.1278076.8056641.2470703 1.1958008.4825439 1.5615234 1.6001587 2.8857422 3.0250854 3.6220703.710022.3710938 1.4934082.5986328 2.282959.668457.107338-.0022202 16.1522713-.1327591 31.7156372-.7783203 5.8740234-.2436523 9.5078125-.5112305 9.5078125-.7924805s-3.6337891-.5488281-9.5078125-.7924805c-30.2373772-1.2542343-30.8584328-.2671051-32.4527588-1.1796875-.6537476-.3676758-1.1467285-1.0092773-1.3363647-1.7182617-.0461426-.1782227-.0755005-.359375-.0922852-.5429688-.1346283-6.0299225 1.0913544-9.5150223 4.1030884-14.6088867 4.5366516-5.6470337 9.1290932-8.9637985 16.2996826-9.7709961 5.6789551-.5957031 10.7225952.7758789 14.4411621 3.0634766 7.2166367 4.1969147 11.3035049 12.0273895 11.5379639 20.1381836.0189209.4106445.0367432.7983398.0535278 1.1640625-.0061646 1.1103516-.5322876 1.9174805-1.0093384 2.4160156-.4888916.512207-.9523315.7607422-1.2718506.9589844-.6640625.3588867-.7758789.5732422-.7650146.8725586.0061646.2548828.0385742.6064453 1.090271.6791992.5161133.0039063 1.3312988-.081543 2.3299561-.7021484.960144-.6010742 2.2024536-1.8486328 2.4962158-3.9912109.0623779-.590332.0629272-.9204102.0908203-1.3974609.5962449-8.68573-3.8012466-18.345871-12.4946899-23.5566407zm-16.9658203-3.6909179c-2.225708.25-4.6238403.8466797-7.0177002 1.8374023-4.0129395-3.7626228-4.9748764-12.0412598-2.3814087-16.7548828 2.4649429-4.998188 9.4838409-7.2894554 15.1395874-6.4106445 2.0739136.3398438 3.6793823 1.1538086 4.9933472 2.1845703 3.4238434 2.6794205 5.8453674 7.763279 5.4831543 12.7885742-.1358032 1.7236328-.621582 3.0610352-1.203186 4.1328125-.5875244 1.059082-1.211853 1.8344727-1.765686 2.4111328-.4797363.4970703-.8870239.8632813-1.2264404 1.1572266-3.5322267-1.2319336-7.6276246-1.8183594-12.0216676-1.3461914z"/><path d="m121.0015945 106.492836c-.0068359-.0029297.000061-.0004883.0014038-.0004883h-.0009766z"/><path d="m111.8406448 95.8819962c4.0906296.4317627 8.6565552.5871964 12.1184692.7294922 2.8160248-.0239639 3.5444107-.1829758 3.8161011-3.4169922.2986679-3.1910019.4533157-4.7976227.4476852-5.715332-.0495148-3.5609818-1.8420029-5.1330643-5.1500168-5.574707-.5988159-.0620117-1.1737061-.1220703-1.7255859-.1791992-2.7703857-.2584686-8.2254257-.810379-11.0438232-.5908203.0681152-1.8022461.1349487-3.6699219.1995239-5.5942383 3.6167831 1.1912918 9.9782104 1.9264908 10.5606689 1.9360352 1.6726303.0330963 2.8453751-.852684 3.3425903-2.4223633.4643173-1.4040298.7416458-9.3216782.7178345-10.0620117-.0908051-.1607666.2263107-2.1666451-2.057373-3.4296875-.1295166-.0771484-.2645874-.1401367-.3983765-.2036133-2.6748734-1.2299538-7.2378082-.1503487-10.4113159.1401367-.7192993.0610352-1.1148071.1293945-1.3945923.2529297.4773941-27.167202 1.0526581-30.7339554-.1159668-37.9169922-1.1869659-7.0065899-4.4030457-12.412178-13.3526001-15.909667-13.19458-5.4344317-38.2244338-6.0845796-53.8203734-4.3427755-6.2689896.6959667-15.5528927 2.0540986-21.3908081 4.4223633-3.447876 1.3911133-6.7912598 3.4814453-9.2706299 6.4189453-2.5073853 2.9013662-4.0578613 6.4174795-4.9493408 9.8862295-3.4978013 13.4012432 1.8205061 89.3260193 2.1888428 93.609375.9920292 10.2336349 6.6799984 14.1537857 16.5440674 14.3579025.1015949.0016632 64.6420898-.8091125 64.7472534-.8129883 3.0447998-.1005859 5.986084-.2729492 8.5328369-.9897461 4.7860413-1.2236176 7.3587265-4.2035141 8.5949097-8.5737228.3468018-1.4648438.5153809-2.6953125.5961914-3.7250977.0202026-.2529297.0366821-.4926758.0501709-.722168 3.9345551.8039474 12.0454483.1442719 13.2545166-.3657227.3930054-.1298828.6488037-.4477539.9580078-.7045898.4743652-.6142578.6897583-1.4194336.7716675-2.2387695.3277283-2.5337753.5709534-4.5431061.8414917-7.1933594l.0323486-.4116211c.1197205-2.3471832-1.5348816-3.6806564-3.7997437-4.2338867-2.4091644-.5804901-6.6018143-.7386017-10.6237793.1542969-.6133423.152832-1.0164795.3120117-1.2983398.4760742.1039429-2.1137695.2191772-4.5439453.3419189-7.2548828.5322876.0566426 1.2562866.1079121 2.1455688.2011739zm10.7227784-9.9453125c.5079346.0629883.9307861.1645508 1.1473389.2714844.1882324.1049805.2026978.1166992.3048706.2807617.0944824.1640625.1959229.5556641.21875 1.0917969.0320282.5620728-.0522156 2.2867432-.1192627 5.3222656.0115967.0390625.0250854.0869141.0357056.1435547.0263062.1484375-.1106567.1425781-.2355957.1884766-3.2199631.216507-8.6017914.5459137-12.1242065 1.0625-.8485107.125-1.5372925.2958984-2.0551758.4716797.1450195-3.2333984.2993774-6.8310547.4580688-10.7836914 2.9702148.8561934 9.1247024 1.5678481 12.3695068 1.9511718zm-2.8897706-21.1669922c.5540771.0244141.9758301.1049805 1.2749634.2573242.0379639.0200195.0784302.0366211.1138306.0620117-.0056763-.0014648-.0084229-.0039063-.0084229-.0039063l-.0014648.0029297-.0015869.0014648h-.0004883l-.0001221.0014648.0054932.0874023c-.0768738 9.0540619.0874023 8.7714539-.0702515 8.9433594-.0406494.0424805-.0968628.0693359-.1605835.0878906-.0151978.0053711-.0316772.0083008-.0582275.0126953l-.2327881.003418-.4851074.0053711c-6.0223923.0364609-7.8414993-.0135193-9.5060425.1000977.1079102-3.3271484.2042847-6.8212891.2786865-10.4682617 1.8243561 1.1925507 4.4129486.8153687 8.8521118.9067384zm-8.9418945 40.5688476c1.5575562.2705917 6.8927689.1937866 9.5405273.8925781.2971191.0727539.5601196.1767578.7009888.246582.0278931.0126953.0308838.0146484.0297241.0146484h.0014038l.00177.0004883.0012817.0004883-.0075073.1025391c-.1566772 2.1290359-.2748108 3.9857559-.4237061 7.2094727.0139771.0493164.02948.1098633.0175781.1777344-.0144043.0722656-.0813599.0981445-.147644.1396484l-.0349731.0151367c-10.2775192 2.0575867-7.8201675 1.5244904-11.1503906 2.0629883.0015869-.1977539.0004883-.3857422-.0037231-.5610352-.0527954-2.6914063-.3460083-2.8886719-.6158447-2.902832-.2913818-.0151367-.5357056.1850586-.9641724 2.7744141-.2241211 1.2836914-.4902344 3.199707-1.2883301 5.7382813-1.2574768 3.4251633-3.1629257 5.561058-7.1364136 6.4375-2.210083.528801-4.7939453.6181564-7.8869629.6352463-.1014557.0009918-64.4849014.013504-64.5859985.0112305-7.9590492-.2118988-11.905035-2.752739-12.617981-10.7705002-.0097647-.1193161-5.4323921-80.2290115-2.432251-92.2832031.7719727-3.0751953 2.0724487-6.0048828 4.0938721-8.3745117 1.9876099-2.3891592 4.7246704-4.1640615 7.7839355-5.4291983 5.4035797-2.243844 14.5350876-3.6366668 20.3730469-4.3364258 16.5170403-1.9899259 40.6577377-1.0451145 52.2875366 3.5810547 7.471283 2.8011494 10.7410889 7.3001738 11.7813721 13.5844717 1.2160339 6.8282051.568428 59.3670044.5671997 59.4707031-.114624 8.940918-.1982422 16.1811523-.1852417 21.1855469.0012817 2.5019531.0358276 4.4472656.0629883 5.7626953.0286865 1.315918.0771484 2.0097656.1473999 2.0126953.0701904.0029297.1605225-.6855469.2688599-2.0014648.1098022-1.3168945.210022-3.2553711.3412476-5.7539063.0010986-.0214844.0022583-.0463867.0033569-.0678711.2876587.1699218.7408448.3154296 1.4770508.4248046z"/></g></g></svg>