<svg id="Layer_1" enable-background="new 0 0 135 135" height="512" viewBox="0 0 135 135" width="512" xmlns="http://www.w3.org/2000/svg"><g><g><path d="m62.0744629 78.0650177c-.0300293 2.0498047-.0599976 4.0898438-.0900269 6.1401367-.1099854 7.6196289-.2099609 15.2397461-.1300049 22.8598633.0200195 2.0698242.0200195 4.2900391-.1900024 6.4902344-.0299683.3496094-.0599976.6899414-.1099854 1.0400391-.1699829 1.4199219-.4500122 2.8198242-.8699951 4.159668-.6799927 2.1601563-1.7399902 4.1601563-3.3800049 5.8100586-.2399902.2402344-.4899902.4702148-.75.6801758 0 .0097656 0 .0097656-.0100098.0200195-3.3800049 2.8798828-8 3.699707-12.4500122 4.2197266-.289978.0400391-.5699463.0703125-.8399658.1000977-1.2200317.1298828-2.4299927.2602539-3.5800171.3999023-3.2099609.3999023-6.4699707.800293-9.6599731.300293-3.1900024-.5102539-6.3699951-2.050293-8.1100464-4.7700195-1.0699463-1.6699219-1.7699585-3.6303711-2.2299805-5.7202148-.9400024-4.1699219-.9799805-8.8398438-1.289978-12.6601563-.5700073-6.9199219-1.0400391-13.8496094-1.4100342-20.7895508v-.0102539c-.5700073-10.6201172-.8999634-21.25-.9899912-31.8798828-.0700073-7.5400391-.2099609-15.1401367.1600351-22.6601563.3099976-6.3100586.5700073-13 2.789978-19.0097656.3900146-1.0703125.8400269-2.1401367 1.5999756-3 5.5200195-6.2299805 15.2000122-6.8203125 22.8000488-6.300293 2.9699707.2001953 6 .5302732 8.6499634 1.8701169 1.4899902.75 2.6900024 1.8999023 3.6699829 3.2700195 1.9700317 2.7700195 3.0100098 6.4399414 3.6000366 9.4897461 1.3099976 6.7304688 1.9500122 13.5703125 2.3499756 20.4003906.2999878 5.2197266.4700317 10.4399414.5499878 15.659668.1200563 7.9599611.0300294 15.9204103-.0799559 23.8901369z" fill="#bc51bc"/></g><g><path d="m47.4169731 37.0151176c8.5793762-9.5451622-7.67379-21.1939049-16.9232559-11.9075127-5.8342152 5.8575077 1.8945656 14.417141 10.0283203 14.6331635 1.2338028.0327682 2.4917107-.0851097 3.6246758-.4833755 1.3246727-.4656563 2.4188957-1.295105 3.2702598-2.2422753z" fill="#58595b"/></g><g><path d="m112.5744629 124.6949005c-4.3900146 2.4301758-9.2800293 4.5-14.2800293 3.9902344-5.5700073-.5703125-9.5299683-5.0800781-12.5299683-10.9399414-1.0599976-2.0600586-2-4.2802734-2.8400269-6.5600586v-.0102539c-2.7099609-7.3198242-4.4799805-15.1699219-6.2299805-19.7797852-1.4899902-3.9301758-2.9400024-7.8798828-4.3599854-11.8398438-1.8500366-5.1601563-3.6500244-10.3500977-5.4100342-15.5400391-.3200073-.9501953-.6400146-1.9003906-.9599609-2.8500977-2.0100098-5.9599609-3.710022-12.7802734.1299438-18.3798828 4.6500244-6.7900391 14.0800171-11.1503906 22.0900269-8.1601563 3.0700073 1.1499023 5.4000244 3.3398438 7.25 6.0200195 2.1300049 3.0800781 3.6199951 6.7900391 4.8699951 10.3198242 3.8800049 10.9301758 7.3800049 22 10.710022 33.1098633 2.4099731 8.0600586 4.75 16.1303711 7.039978 24.2202148 0 .0102539.0100098.0297852.0100098.0400391 2.0899659 7.3701174 1.7700197 12.3300784-5.4899901 16.3598635z" fill="#95d0e5"/></g><g><path d="m90.2778015 56.9579277c4.0948792-9.0073738-10.6169357-13.8711815-15.2665482-4.9009819-2.9327927 5.6580696 4.7695084 10.1985283 10.8188934 8.492485.9176254-.2587891 1.8177948-.6342125 2.5602341-1.1877747.8680573-.6472282 1.4810639-1.5099143 1.8874207-2.4037284z" fill="#58595b"/></g><g><path d="m55.6544189 8.6250763c-13.3399658.9301758-31.4099731 7.3999023-34.0099487 21.5898437-1.5599976 8.4799805-2.4700317 17.1303711-3.3800049 25.7099609-.9100342 8.5302734-1.5499878 17.1401367.2399902 25.6000977.4299927 2.0498047-.2999878 3.7202148-1.5300293 4.8100586-.5700073-10.6201172-.8999634-21.25-.9899912-31.8798828-.0700073-7.5400391-.2099609-15.1401367.1600351-22.6601563.3099976-6.3100586.5700073-13 2.789978-19.0097656.3900146-1.0703125.8400269-2.1401367 1.5999756-3 5.5200195-6.2299805 15.2000122-6.8203125 22.8000488-6.300293 2.9699707.2001953 6 .5302732 8.6499634 1.8701169 1.4899904.7500004 2.6900026 1.8999027 3.669983 3.2700199z" fill="#d577d8"/></g><g><path d="m95.4344482 40.6450958c-.789978.7397461-1.9099731 1.1601563-3.3699951 1.0400391-6.3599854-.550293-12.210022-.300293-17.039978 4.3598633-4.3300171 4.1899414-6.1300049 9.9702148-7.1300049 15.75-.1600342.9301758-.5 1.6601563-.9700317 2.2202148-.3200073-.9501953-.6400146-1.9003906-.9599609-2.8500977-2.0100098-5.9599609-3.710022-12.7802734.1299438-18.3798828 4.6500244-6.7900391 14.0800171-11.1503906 22.0900269-8.1601563 3.0700073 1.1499024 5.4000244 3.3398438 7.2499999 6.0200196z" fill="#b2eaf9"/></g><g><path d="m62.0744629 78.0650177c-.0300293 2.0498047-.0599976 4.0898438-.0900269 6.1401367-.1099854 7.6196289-.2099609 15.2397461-.1300049 22.8598633.0200195 2.0698242.0200195 4.2900391-.1900024 6.4902344-.0799561.0195313-.1599731.0400391-.2399902.0595703 0 .1503906.0100098.3100586 0 .4702148.0499878.1699219.1000366.3398438.1300049.5102539.1500244.7294922.1300049 1.4897461-.1199951 2.2197266-.2199707.6601563-.4699707 1.3100586-.75 1.9399414-1.0200195 2.4101563-2.4000244 4.6298828-4.1300049 6.4902344 0 .0097656 0 .0097656-.0100098.0200195-2.1799927 2.3598633-4.9400024 4.1499023-8.2799683 5.0097656-1.6900024.4301758-3.1100464.0498047-4.1700439-.7900391-.0499878-.0297852-.0899658-.0698242-.1399536-.1098633-.2300415.0698242-.4700317.1401367-.7000122.2099609-1.2200317.1298828-2.4299927.2602539-3.5800171.3999023-3.2099609.3999023-6.4699707.800293-9.6599731.300293-3.1900024-.5102539-6.3699951-2.050293-8.1100464-4.7700195-1.0699463-1.6699219-1.7699585-3.6303711-2.2299805-5.7202148 8.2200317-.0097656 16.5-.4897461 23.7299805-4.5698242 5.5400391-3.1298828 9.8800049-7.75 12.7200317-13.2001953 2.2799683-14.2197266 2.039978-28.6699219 1.7600098-43.0600586-.0499878-2.949707 2.0100098-4.5498047 4.2699585-4.7900391.1200561 7.959961.0300292 15.9204102-.0799561 23.8901368z" fill="#b140b5"/></g><g><path d="m112.5744629 124.6949005c-4.3900146 2.4301758-9.2800293 4.5-14.2800293 3.9902344-5.5700073-.5703125-9.5299683-5.0800781-12.5299683-10.9399414.1099854-.4902344.2799683-.9702148.5100098-1.4101563-1.2600098-1.5800781-2.3800049-3.3100586-3.3500366-5.1499023v-.0102539c-2.7099609-7.3198242-4.4799805-15.1699219-6.2299805-19.7797852-1.4899902-3.9301758-2.9400024-7.8798828-4.3599854-11.8398438 2.2999878-2.2900391 7.289978-2.2001953 8.789978 1.8896484 2.3699951 6.4902344 4.9400024 12.8798828 7.7999878 19.1699219 2.2200317 4.8603516 4.2999878 10.3803711 9.1900024 13.1601563 5.2600098 3 11.789978 2.2402344 16.3500366-1.7001953 1.1299438-.9794922 2.3799438-2.2895508 3.5899658-3.7797852 0 .0102539.0100098.0297852.0100098.0400391 2.0899659 7.3701172 1.7700197 12.3300782-5.4899901 16.3598633z" fill="#7fc4d6"/></g><g fill="#202020"><path d="m32.1015129 38.9378242c5.0617218 3.3884468 10.785099 3.0779877 13.5882568 1.2192383 1.4553833-.9912109 1.8586426-1.8217773 2.0009155-2.2773438.1234131-.4775391-.0675659-.6767578-.2736206-.8647461-.2091675-.1904297-.4299316-.3369141-.8555298-.2480469-.1162949.0190506-5.6601601 3.5224228-12.2069702-1.121582-2.7166862-2.0353203-4.9590263-5.1242542-3.2698994-8.0507813.335144-.5795898.8218384-1.1435547 1.4720478-1.7397461.6508789-.5366211 1.3405762-1.0722656 2.1340332-1.4345703 3.2402573-1.6506786 7.3915825-1.103796 10.3695068.949707 1.4926758.9926758 2.6253662 2.3374023 3.2374878 3.7236328.635376 1.3876953.690918 2.8144531.4898071 3.9956055-.4855957 2.3886719-1.6451416 3.7202148-1.3704834 3.9257813.1256104.1474609 1.7509766-.7358398 2.8953247-3.4921875.5146484-1.3652344.7340698-3.2714844.1268921-5.203125-.5765991-1.9296875-1.8713989-3.8144531-3.640564-5.2456055-3.7096405-3.0815392-9.1777916-4.068882-13.6720581-2.0649414-2.2766132 1.0244141-4.0989399 2.4433594-5.4633808 4.5327148-2.812784 5.2082559-.31892 10.0567133 4.4382345 13.3959962z"/><path d="m42.3783073 63.621418c-5.0374146 0-15.8479023.9116249-15.8479023 2.0366249 0 1.1245117 10.8104877 2.0361328 15.8479023 2.0361328 9.1931152 0 9.3853149-.9116211 9.3853149-2.0361328.0000001-1.125-.1921996-2.0366249-9.3853149-2.0366249z"/><path d="m42.3783073 78.5789413c-5.0374146 0-15.8479023.9116211-15.8479023 2.0366211 0 1.1245117 10.8104877 2.0361328 15.8479023 2.0361328 9.1931152 0 9.3853149-.9116211 9.3853149-2.0361328.0000001-1.125-.1921996-2.0366211-9.3853149-2.0366211z"/><path d="m42.3783073 93.5364609c-5.0374146 0-15.8479023.9116211-15.8479023 2.0361328s10.8104877 2.0361328 15.8479023 2.0361328c9.1931152 0 9.3853149-.9116211 9.3853149-2.0361328s-.1921996-2.0361328-9.3853149-2.0361328z"/><path d="m42.3783073 108.4939804c-5.0374146 0-15.8479023.9116211-15.8479023 2.0361328s10.8104877 2.0361328 15.8479023 2.0361328c9.1931152 0 9.3853149-.9116211 9.3853149-2.0361328s-.1921996-2.0361328-9.3853149-2.0361328z"/><path d="m120.7512894 112.1526718c-.3541794-2.0748444-7.967926-28.605629-9.7414551-28.0751953-1.8610916.5548019 5.5133438 23.6247559 6.1991577 28.5996094.9222336 6.670784-2.4698105 8.9879456-8.5899658 11.859375-8.2403793 3.7638321-14.2400055 3.1959915-19.1971436-4.5161133-5.2394257-8.0255966-4.9478836-12.9899139-19.8605957-54.3188477-.6819458-1.8945351-1.3688965-3.8027382-2.0592651-5.7207069-1.2227936-3.6058464-2.2710266-7.5329704-1.829834-11.3134766.241272-1.8095703.8547363-3.5112305 1.8722534-5.0092773 2.1199341-3.1201172 5.2471924-5.6113281 8.7041626-7.0693359 3.4510498-1.4697266 7.2946167-1.8637695 10.6876221-.8466797 6.6623306 1.8398933 9.9276276 9.2746429 12.3583374 15.7709961 3.4114532 9.1670685 5.9546051 16.6395912 10.0361938 28.4174843.9595947 2.7060547 1.5432739 4.1875 1.6790771 4.1469727.1335449-.0400391-.1871948-1.6000977-.8937378-4.3852539-1.7436142-6.8412857-4.9575119-17.8808861-8.675293-28.9399452-2.5657578-7.5559998-5.9882965-15.4039268-13.654541-17.7617188-4.104126-1.3354492-8.7012329-.9321289-12.7310791.690918-4.0475464 1.6206055-7.6851807 4.3842773-10.2871704 8.0541992-.8099937 1.1391602-1.4237633 2.425293-1.8749962 3.7612305-.0917969-3.9580078-.2652588-8.1865234-.5715332-12.6367188-.3218384-4.4707031-.8146973-9.1704102-1.6760254-14.0048828-.4249268-2.4326172-1.024353-4.9511719-2.0697021-7.4008789-3.6945533-8.5671757-10.5500526-9.5764308-21.342102-9.2749022-5.762537.2287602-11.7475319 1.4175112-16.1436787 5.1206055-.5980225.4560547-1.1137695 1.0102539-1.645813 1.5454102-.5751953.5668945-1.0879517 1.3676758-1.4290771 2.0615234-.3570557.7211914-.6203613 1.4042969-.8532104 2.0761719-.2479248.6748047-.4569702 1.3583984-.6638184 2.0424805-1.5385418 5.3770695-1.8516989 10.8537922-2.1586294 16.4741211-.46033 7.9963837-.3321714 15.7552605-.2956543 23.7866211.0289917 5.1210938.1135864 10.1132851.2444458 14.9257851.2606201 9.6245117.7108765 18.5273438 1.2318115 26.3056641.2387085 3.5488281.4901114 6.987793.7659292 10.3188477.286438 3.2573242.3588257 6.4921875.7410278 9.7275391 1.4458809 11.961525 6.4674568 17.1479263 18.843874 16.1894455 1.3708115-.1093903 11.019371-1.1420593 14.3701172-2.0117188 2.2684326-.5664063 4.4729004-1.4799805 6.3729248-2.7919846 3.5953331-2.5479736 5.474411-6.1489105 6.3432007-10.4882813 1.074894-5.5599365.3395271-32.3286514-.1212769-36.8696289-.2144775-1.9990234-.4801025-2.1508789-.7611694-2.1552734-.281189-.0039063-.5512085.140625-.8239136 2.1328125-1.1051521 7.7434082-.666729 30.8829575-1.7998047 36.1635742-.7359009 3.3653336-2.1272583 6.1477432-4.9758911 8.1337891-3.8593597 2.6481628-11.3713608 3.4065323-18.9076538 3.9540939-4.3967705.3252563-9.5222473-.2604675-11.9277973-3.9511642-.1561279-.2446289-.3069458-.5283203-.4647827-.7905273-1.1862183-2.2133789-1.7818604-5.0107422-2.1234741-7.9829102-.3490601-2.9765625-.4211426-6.2055664-.7115479-9.5893555-.270752-3.3125-.5189209-6.7319336-.7562866-10.2607422-.5180054-7.7338867-.9940796-16.5849609-1.307312-26.1542969-.1571655-4.784668-.2747803-9.7490273-.3432007-14.842289-.0972939-7.8753166-.2988739-15.6405716.072876-23.5678711.745182-17.0159378 1.6209946-25.3841705 19.3534565-26.3623047 11.8492966-.5197849 16.0456161 1.3162141 18.7106323 7.2387695.9645386 2.1445313 1.5747681 4.4472656 2.0299072 6.7773438.9381714 4.6982422 1.5274048 9.3056641 1.9526367 13.7148438.8238525 8.8291016 1.1364746 16.8442383 1.3355103 23.5703125.1483765 6.7353516.2684326 12.1870155.3514404 15.9555702.0892944 3.7709961.1935425 5.8583984.3352051 5.8603516.1394653.0019531.3096924-2.0810547.4855347-5.8510742.1634521-3.6069336.3425293-8.7714882.4039917-15.123539.3093262 1.2504883.6655273 2.4731445 1.0503502 3.6645508.652832 1.9707031 1.3372192 3.8745155 1.9984741 5.795414 14.3284073 41.0173721 14.3790817 46.6985474 20.0249023 55.3261719 4.5449066 6.9957352 10.5289536 9.9201279 18.6157837 7.8720627 2.0502319-.5102539 3.9024048-1.2563477 5.6077271-2.0585938 1.7142944-.8207932 3.234375-1.6288986 4.7978516-2.6435471 4.9323806-3.2705769 6.6359787-7.5442356 5.6920166-13.2656254z"/><path d="m87.8845291 61.5984688c.928833-.4956055 1.6384277-1.1259766 2.0732422-1.6884766.862915-1.1445313.9274902-1.8950195.8828125-2.2958984-.0657349-.4130859-.3092651-.5385742-.5626831-.65625-.2564697-.1186523-.5095825-.1987305-.8485107-.065918-.3442383.1191406-.7590332.4887695-1.4857178.9599609-3.9945984 2.4957962-9.8811188.3029518-11.0095825-1.7563477-.4238892-.6494141-.6466675-1.355957-.4671631-2.237793.0927124-.4433594.2890015-.9208984.6098633-1.4892578.3314209-.5166016.6859131-1.0429688 1.1525879-1.46875 3.5556717-3.5527534 11.0632095-2.2272606 11.9612427 2.8515625.2618408 1.8100586-.2184448 3.0947266.0872803 3.206543.1818237.1044922 1.2426147-.8935547 1.4971313-3.2563477.5058899-6.786171-9.8943863-10.9574623-16.0544434-5.5922852-2.8793869 2.5416412-4.307724 5.8033905-2.5152588 9.7177734.1018677.1845703.2218628.347168.3319702.5151367.3902588.637207.8792725 1.1025391 1.3388062 1.5771484 4.416481 3.5162776 9.5626907 3.5400965 13.0084228 1.6791995z"/><path d="m100.1832352 77.0857773c-.3339844-1.0737305-.74646-1.9003906-7.5266113.2080078-3.71521 1.1552734-11.4175415 4.5048828-11.0836182 5.5791016.3339233 1.0737305 8.5776367-.5351563 12.2928467-1.6904297 6.7801513-2.1083985 6.6512451-3.0229492 6.3173828-4.0966797z"/><path d="m103.6818314 88.1175156c-.3339844-1.0742188-.74646-1.9003906-7.5266113.2075195-3.71521 1.1552734-11.4176025 4.5053711-11.0836182 5.5791016.3339233 1.0742188 8.5776367-.534668 12.2928467-1.6899414 6.7801513-2.1083985 6.6512451-3.0229493 6.3173828-4.0966797z"/><path d="m107.1803665 99.1487656c-.3339233-1.0737305-.7463989-1.9003906-7.5265503.2080078-3.71521 1.1552734-11.4176025 4.5048828-11.0836182 5.5791016.3339233 1.0737305 8.5776367-.5351563 12.2928467-1.6904297 6.7801514-2.1079102 6.6512452-3.0229493 6.3173218-4.0966797z"/><path d="m103.1524124 110.3885117c-3.71521 1.1552734-11.4176025 4.5048828-11.0836182 5.5786133.3339233 1.0742188 8.5776367-.534668 12.2928467-1.6899414 6.7801514-2.1083984 6.6512451-3.0229492 6.3173218-4.0966797-.3339844-1.0742188-.7463989-1.9003907-7.5265503.2080078z"/></g></g></svg>