<svg id="Layer_1" enable-background="new 0 0 135 135" height="512" viewBox="0 0 135 135" width="512" xmlns="http://www.w3.org/2000/svg"><g><g><path d="m131.2282867 92.9497681c-.0805359.3823013-.1609955.7547836-.261673 1.1169434-1.3082886 4.9817886-4.3676682 8.162117-8.3026581 10.2048569-7.3264313 3.8044052-17.6821442 3.6329041-25.4010849 3.8044052-23.4285507.4928665-46.8672409.2815704-70.2957916-.4835358-5.0621338-.1808395-10.3858738-.4525833-14.813982-2.8073578-.5836582-.291893-1.1472292-.6442261-1.7007895-1.0265274-15.1963511-10.6677551-1.0566893-36.8538513 5.3640366-50.4198647.3824301-.825058.7447138-1.5798454 1.066762-2.304657 4.7903919-10.6879005 10.6273975-21.0033207 18.2155018-29.8592911 1.8920021-2.1940899 4.0054436-4.6599236 6.3201103-6.7527866 1.418972-1.2481499 2.8883133-2.3852444 4.4582672-3.2304487 2.4455032-1.3385668 5.3036537-1.5095739 8.1416626-1.4191561.0402336 0 .090538 0 .1308327.0098276 1.8617821.060442 3.7336388.2417679 5.4747238.2820625 12.7105522.2815704 25.4211693.5734606 38.1217155.8653507.9560776.0201473 1.9725266.0501232 2.7977676.5739527.3622894.230957.6641922.5228472.9258575.8751793.291893.3926268.5434875.8255482.7850113 1.2579784 7.8799896 14.0996742 14.8742981 29.6583099 20.6912231 44.9452019.3421326.915966.6843262 1.8216095 1.0164566 2.7272568 3.4619505 9.4702149 9.3291151 21.4156037 7.2660505 31.6406098z" fill="#a7a9ac"/></g><g><path d="m49.6084328 69.3144226c11.8051186-.0369034 23.672123-.3457413 35.4489326-1.2321854 4.1953735-.240036 8.0108185-2.8096771 9.8011093-6.6023636 1.6845016-3.568573 2.9637146-9.6150246-1.4239502-11.6617584-2.0751266-.9679947-4.469101-.8767166-6.7572937-.7659264-9.4438782.4572525-18.8877487.9145088-28.3316269 1.3717613-4.7219353.2286301-9.4439735.4552536-14.1658134.6858826-4.7218895.2306328-7.4037247-.410038-7.6293488 5.1400452-.3539772 8.7086106 4.1043244 13.092537 13.0579911 13.0645447z" fill="#58595b"/></g><g><path d="m101.4648056 12.3812027c-.5419998 1.8661108-2.0677261 3.3199358-4.5871506 3.1241121-8.812912-.7012386-17.515419.113265-26.2179947 1.5358782-7.2269669 1.1754436-14.7149773 2.1339226-21.520443 5.0415707-12.0851516 5.1649036-22.0122737 15.4952163-26.8101749 28.0007248-1.1543388 3.020916-4.1053734 3.8973389-6.5143404 3.2580185.3813696-.8245735.7427664-1.5877304 1.0639753-2.3091049 4.7979012-10.6811829 10.6296978-21.0009212 18.2180595-29.8567677 1.8971062-2.1963425 4.0049591-4.6604958 6.3236237-6.7531376.4115753-.2058907.8230858-.4122858 1.2447052-.6081095 3.7339287-1.7941236 7.5783157-3.0516224 11.4829254-4.0312424 1.8669624.0619183 3.7339249.2371025 5.4804459.2783813 12.707531.2889528 25.4150047.5774021 38.1124916.8658514.963562.0206394 1.9773636.0518503 2.8004456.5774021.3613358.2270347.6624451.5260545.9234314.876423z" fill="#d1d3d4"/></g><g><path d="m131.2282867 92.9497681c-.0805359.3823013-.1609955.7547836-.261673 1.1169434-2.2844391 3.7739334-5.052002 7.1758804-8.3026581 10.2048569-7.3264313 3.8044052-17.6821442 3.6329041-25.4010849 3.8044052-23.4285507.4928665-46.8672409.2815704-70.2957916-.4835358-5.0621338-.1808395-10.3858738-.4525833-14.813982-2.8073578 22.1706352.9154739 44.7437897 1.8815613 66.5420074-3.0594406 15.0353546-3.401947 39.5608902-11.291832 44.0292282-28.2494736.583725-4.2166824.6340332-8.5744019.1006775-13.0023842-.0905991-.7144928-.0402908-1.3385658.1207657-1.89188.3421326.915966.6843262 1.8216095 1.0164566 2.7272568 3.4619542 9.4702148 9.3291188 21.4156036 7.2660542 31.6406097z" fill="#808285"/></g><g><path d="m89.5000992 115.1760406c.0501785 4.1313019-3.8544312 7.5626526-8.8831787 7.8225098-8.5821228.4601212-23.1867027 2.5907364-30.6546211-2.7211456-1.134243-.8098526-2.0175514-1.7803955-2.7101402-2.8706131-2.3688393-3.7214966-2.4993324-8.8033142-2.3688393-13.3248825.2108078-6.7523193.4115715-13.504631.6223183-20.2569504.3312569-10.9036407.6625137-21.8072853.9937057-32.7109261l42.0572281-.8103371c-.1003494 1.3105087-.190712 2.7108917-.2509384 4.1913795-.5319519 11.7637978.0803223 28.3998756.6022263 42.3245735.2810821 7.1826402.5320205 13.6545869.5922393 18.356392z" fill="#8dc63f"/></g><g><path d="m88.556572 50.3036957c-.1003494 1.3105087-.190712 2.7108917-.2509384 4.1913795-9.3147812-.8904419-18.8805695-2.2805672-27.8742065.7004356-11.1315766 3.6809502-12.0550118 13.9847794-12.1252824 24.2583237-.0100441 2.2307434-1.2246056 3.6809464-2.8005066 4.3711243.3312569-10.9036407.6625137-21.8072853.9937057-32.7109261z" fill="#9dce4e"/></g><g><path d="m89.5000992 115.1760406c.0501785 4.1313019-3.8544312 7.5626526-8.8831787 7.8225098-8.5821228.4601212-23.1867027 2.5907364-30.6546211-2.7211456-1.134243-.8098526-2.0175514-1.7803955-2.7101402-2.8706131 8.4415855.570015 17.1942749 1.3002472 25.555542-.440094 3.1618423-.6506119 7.7790833-1.5708542 10.1077881-4.1015015 2.6197815-2.871109 1.6059799-7.6627884 1.5658569-11.2440948-.0301437-2.9907684 2.1078491-4.5914154 4.4265137-4.8014526.2810821 7.18264.5320205 13.6545867.5922393 18.3563918z" fill="#83b732"/></g><g fill="#202020"><path d="m131.5269012 77.4183273c-3.219986-11.0910034-15.6063232-41.7815857-28.3740768-64.3764648-.3323975-.5722656-.697937-1.2128906-1.2747803-1.8022461-.5637817-.6049805-1.4383545-1.0390625-2.1876221-1.1723633-.7625122-.1577148-1.4519653-.1503906-2.0704346-.1601563-1.2445068-.0136719-2.4692993-.0268555-3.6734619-.0400391-4.8168335-.0444336-9.303894-.0854492-13.4004517-.1235352-8.1932373-.0625-14.8248291-.0834961-19.4088745-.0541992-4.5806273-.0166043-7.1117553-.0727566-7.1176757.0873996-.0023193.0698242.6280518.171875 1.8311768.3027344 1.2033691.1108398 2.9786377.3325195 5.2680664.4301758 4.578064.2358398 11.2038574.5126953 19.3916626.8188477 4.0941162.1464844 8.5784912.3071289 13.392395.4794922 1.2035522.0410156 2.4277344.0830078 3.6715088.1254883.6231689.0205078 1.1973267.0415039 1.6726074.1552734.4887085.1171875.7993774.2861328 1.1160889.6220703 2.9040375 3.1182003 29.2829666 59.2578392 29.5782394 74.9042969.0710449 3.0839844-.3884277 6.1787109-1.704895 8.8085938-1.2938156 2.6396484-3.482048 4.7099609-6.1398239 6.109375-5.2567215 2.7966232-12.3020172 3.3381958-18.2624512 3.5219727-4.2297363.0927734-8.4103394.1586914-12.5432129.2075195-.0072632-.2236328-.0147095-.4550781-.0219116-.6767578-.4969101-12.3586197-.2619019-6.5868912-1.0803833-26.5268555-.1467285-3.9331055-.2579346-7.3203125-.3447266-10.2475586.5288696-.2338867 1.046814-.4975586 1.5449219-.7993164 2.3696899-1.4033203 4.3198242-3.7163086 5.3705444-6.2856483.5307007-1.2519531.9456787-2.5527344 1.1987915-3.9296875.2426758-1.375.3490601-2.8378906.0362549-4.3808594-.3034058-1.5288086-1.2047729-3.1616211-2.5883789-4.168457-1.3959961-1.0151367-2.8436279-1.4082031-4.2509155-1.6201172-1.4004517-.1977539-2.7182617-.1767578-3.9454346-.1381836-1.1985474.046875-2.3851929.0927734-3.5570679.1386719-2.3363037.0957031-4.6137695.1889648-6.8096313.2792969-10.2072067.4585609-11.7413559.4993973-36.2322998 1.7822266-.5910645.0419922-1.2594604.1508789-1.9406128.3325195-.7053223.2202148-1.4674072.5703125-2.1029053 1.1572266-.6019897.5825195-1.0510864 1.2915039-1.2682495 1.9174805-.1399536.3261719-.2228394.628418-.2895508.921875-.0834961.3032227-.1348877.5874023-.1663818.8574219-.1737671 1.1123047-.1474609 2.065918-.135498 2.9853516-.0100708.4584961.053894.9204102.0855713 1.3657227.0270386.4453125.0842896.8837891.1702271 1.3149414.2843628 1.7138672.8010864 3.2993164 1.5933838 4.6113319 1.5621338 2.6679688 3.8448486 4.0478516 5.5991211 4.6665039 1.0667114.3974609 1.9786377.5756836 2.7686768.675293-.3745728 6.7734375-.7750244 14.8779297-1.1749878 23.5932617-.1331177 2.9682617-.2693481 6.0068359-.4074097 9.0859375-.0414429.9238281-.0773926 1.8657227-.0942993 2.8198242-19.5410843-.4320831-25.8911438-.2715607-31.0424805-3.5151367-2.8652954-1.7753906-4.8080449-4.4365234-5.7423711-7.4243164-.9197998-3.0146484-.9297485-6.2651367-.5732422-9.3759766.8198853-6.2631836 2.9226689-12.0166016 5.0701909-17.2329102 6.3149509-15.2070961 21.3363876-48.0217972 35.6056519-56.3212929 2.0095215-1.1323242 3.7563477-1.328125 4.8933716-1.5405273 2.3375244-.3232422 2.5600586-.503418 2.5606689-.8071289.0010986-.2573242-.1379395-.6166992-2.6486206-.7758789-.6307983-.0214844-1.4161377-.0244141-2.3927612.1044922-.9714355.1323242-2.1539917.3769531-3.4663086 1.0004883-15.153717 7.1879969-31.5830956 41.3536568-38.1387939 56.8359413-2.2426764 5.3681666-4.4987189 11.3193385-5.4434209 18.2504908-.4049072 3.4589844-.4587402 7.2304688.6879882 11.0537109.5974121 1.8945313 1.5150146 3.762207 2.7776489 5.4291992 1.2456665 1.6987305 2.8782353 3.0634766 4.657105 4.2358398 6.3093414 3.968277 13.526125 3.7457275 33.3071899 4.1518555.0770874.9287109.192749 1.8647461.3725586 2.8066406 1.4974365 7.6943283 6.5115089 11.1370392 14.8699951 12.3686523 9.7568054 1.3498154 29.6812134 1.9940414 32.5388184-7.4545898.4284058-1.2485352.4129028-2.7783203.3754272-3.6337891-.0222778-1-.0441284-1.9838867-.0656738-2.953125-.0119629-.3691406-.0234985-.7250977-.0353394-1.0898438 4.1326294-.0776367 8.3136597-.1743164 12.5466919-.3012695 6.6154099-.2590256 13.9822922-.9464798 19.8369751-4.1220703 3.1499023-1.6787109 5.9810715-4.3793945 7.5615158-7.7202148 1.6129761-3.3237305 2.0718994-6.9731445 1.9560547-10.4555664-.1113281-3.5043944-.8684082-6.861328-1.7896729-10.0893554zm-38.2912521-25.210453c.6218872.4453125 1.036377 1.0859375 1.2611084 1.9755859.4118042 1.8149414-.0505371 4.1787109-.8584595 6.253418-.7730713 2.0405273-2.1173706 3.7251015-3.8924561 4.8916054-.0640259-2.4057655-.1102905-4.4301796-.1471558-6.1230507-.1000366-4.2460938-.1668091-6.4516602-.3319092-7.6103516-.0179443-.1225586-.0374146-.2275391-.057312-.3276367.4966431.0048828.9827881.0229492 1.4446411.0791016.992859.1074218 1.9741823.4252929 2.5815431.8613281zm-49.9501343 14.9628944c-1.3326416-.6508789-2.7855225-1.7338867-3.7711792-3.6469765-.5066528-.9467773-.8387451-2.1391602-1.0096436-3.512207-.0563354-.3388672-.0892334-.6938477-.0956421-1.065918-.010498-.3701172-.0560913-.7387695-.0310059-1.1342773.0145264-.7832031.0264893-1.6157227.1685181-2.3320313.1203613-.7382813.3809204-1.3056641.6002808-1.4760742.1123047-.0917969.2942505-.1791992.5808716-.2705078.3295898-.0698242.7111206-.144043 1.2011719-.1669922.9468994-.0664063 2.0899048-.0566406 3.302124-.1083984.6077271-.0253906 1.2283325-.0517578 1.8591919-.078125-.3823586 3.6466751-.8088264 10.8382072-1.0195923 14.5175819-.5520629-.1787109-1.1492919-.4013671-1.7850952-.7260742zm43.9343872 38.5556641c.0532227 1.7988281.1081543 3.6567383.164917 5.5751953.0199585.9560547.0402222 1.9272461.0608521 2.9140625.0319824 1.1220703.0262451 1.6459961-.192749 2.355957-1.8879471 6.5948639-24.3306274 5.4159851-28.1296387 4.9501953-8.2542343-1.0400238-11.038475-4.4153442-12.0834961-9.3334961-.6129761-2.8242188-.6179199-5.8564453-.5566406-8.918457.0490723-3.0825195.0974121-6.1230469.1446533-9.0942383.1154442-7.769371.4763107-33.0928993.1314697-40.8247108 13.2744865-.5536613 30.1141968-1.4500771 30.2766113-1.4584961 2.1942749-.1225586 4.4701538-.2495117 6.8047485-.3798828 1.1635742-.0664063 2.3417969-.1337891 3.5317383-.2016602.1265869-.0068359.2449341-.0053711.3702393-.0112305-.019104.0620117-.0379028.1157227-.057312.1855469-.3220215 1.1416016-.6962891 3.3686523-.9656982 7.6601563-.814621 12.6106453.0440063 33.2102394.5003051 46.5810585z"/><path d="m74.8563156 82.7728195c-1.3287354-.8193359-2.8042603-1.2753906-4.2247314-1.5307617-.6668701-.1206055-1.3224487-.1977539-1.9669189-.2563477-.4906998-2.5910416-1.0271606-5.0876846-1.5102539-7.1567383 2.8858643.3349609 4.4876709 1.5166016 4.6665649 1.2397461.0744019-.0927734-.2214355-.5541992-.9888916-1.1376953-.7612305-.5756836-2.0013428-1.3115234-3.7225342-1.7075195-.1162109-.0283203-.2401123-.050293-.3607178-.0751953-.7307739-2.9194336-1.3807373-4.8886719-1.7669067-4.8334961-.362854.0522461-.4469604 1.8901367-.3581543 4.6069336-1.159668-.015625-2.4179077.1328125-3.7140503.5385742-1.1447754.3798828-2.2981567.8891602-3.4024048 1.7832031-1.5782089 1.3076324-2.217514 2.7625122-2.2833252 4.0522461-.0570679.9179688.2157593 1.9003906.7097778 2.6640625.4899902.7749023 1.1500854 1.3769531 1.8966675 1.8251953 1.5318604.8964844 3.1293945 1.0439453 4.4422607 1.1958008 1.0807495.1162109 2.1639404.2329102 3.2449341.3491211.2588501 2.9262695.5137329 5.6987305.6903076 7.7998047.1464844 1.7036133.2612305 3.2001953.3560791 4.5234375-.7398682-.0766602-1.4424438-.1855469-2.0697632-.3457031-3.3378296-.8618164-4.9787598-2.5922852-5.9736328-3.7675781-.9732666-1.21875-1.3478394-1.9882813-1.7006836-2.3554688-.3258057-.3798828-.6001587-.3808594-.8764648-.3310547-.2763672.050293-.5362549.1201172-.6671143.6923828-.0960693.5546875-.1124878 1.6904297.8164673 3.5424805.4741821.9121094 1.2103882 1.9824219 2.3895264 3.059082 1.1816406 1.0742188 2.8477783 2.105957 4.9788818 2.7680664 1.0224609.3198242 2.1542969.546875 3.3687744.6689453.1241455 1.875.218811 3.1669922.3695679 4.0571289.2757568 1.8544922.7764282 1.9711914 1.338501 2.0063477.5601807.034668 1.0751953.0014648 1.5390625-1.894043.201416-.8945313.3937988-2.2275391.4749756-4.1513672.1890259-.0180664.3726807-.0297852.567627-.0551758 1.5057983-.2084961 3.2467041-.6567383 4.8726196-1.8256836 2.5992813-1.8566895 4.1081467-5.366684 3.5608521-8.9487305-.2142945-1.3403319-2.1890107-5.4477538-4.6968995-6.9999999zm-12.307251-2.1577148c-1.3018799-.0581055-2.4087524-.1743164-3.168335-.5639648-.7902832-.402832-1.2704468-1.0498047-1.2780762-1.6787109-.0455933-.6523438.4226685-1.5214844 1.1208496-2.1884766.6763916-.6650391 1.5960693-1.2001953 2.472229-1.5869141 1.0102539-.4331055 2.0325928-.6640625 3.0101318-.7709961.1244202 2.3780594.2943878 4.4598618.5029297 6.9375-.8867796-.0493164-1.7738646-.0991211-2.6597289-.1484375zm12.8772583 11.9799804c-.3096313 1.2553711-.9902344 2.2495117-1.8203125 2.8525391-.8486328.6318359-1.9385986.9760742-3.0463867 1.1484375-.0452881-1.4086914-.1385498-3.0102539-.2952881-4.8286133-.1621704-1.9262695-.4945068-4.3632813-.9181519-6.9394531.1809692.0336914.3780518.0546875.5527344.0942383 1.1134033.2460938 2.0964355.6171875 2.8737183 1.1347656.7822266.5209961 1.439209 1.2197266 1.9070435 1.9790039.9587402 1.5410156 1.0994262 3.194336.746643 4.559082z"/></g></g></svg>