<svg id="Layer_1" enable-background="new 0 0 135 135" height="512" viewBox="0 0 135 135" width="512" xmlns="http://www.w3.org/2000/svg"><g><g><g><path d="m126.1708832 51.983326c-.5722504 2.0129318-1.3911819 3.8683167-2.2792435 5.5555573v.0096359c-.4243393.8286819-.8781891 1.608223-1.3320389 2.348259-1.4011765 2.2697258-2.7924728 4.1443825-4.0357361 5.880764-1.2727814 1.7961273-2.5653076 3.6216354-3.8777161 5.4765396-5.4960556 7.6171494-11.761528 15.4718246-19.0534668 23.3655243-4.5979919 4.9826965-9.8572464 10.1725769-15.7873993 15.3330612-2.9601364 2.5756683-6.0978088 5.1412125-9.413269 7.657135-.838562.6215134-1.6674881 1.2627792-2.5259171 1.8746567l-1.2826538.9274521-.6413879.4639664-.7597885.5227432c-2.0424423 1.3914185-4.1146355 2.6050568-6.2458458 3.7001724-4.2824173 2.190712-8.82127 3.9767227-13.8238487 5.190361-4.9829445 1.1741333-10.5085068 1.8842926-16.6655827.8286743-3.0587826-.5622406-6.2754745-1.6578369-9.2257347-3.4534836-1.5492039-.9274521-2.9996433-2.0524368-4.2922935-3.3152237-1.1840067-1.1351013-2.2299795-2.3781281-3.1278009-3.6804123-.3059378-.4442139-.6216335-.9178162-.917695-1.411171-.5821266-.9669647-1.1347427-2.0129318-1.5787153-3.0685425-.6610203-1.598587-1.1444998-3.2265701-1.4800682-4.8545456-.6216335-3.2463226-.6216335-6.4435043-.1874175-9.4826508.2170477-1.519577.5524964-2.9996414.9768357-4.4498444.4242182-1.450676.9768353-2.8811188 1.5490847-4.1641312 1.1643734-2.6146927 2.5654278-5.0125809 4.0751266-7.2129288 3.029273-4.4103317 6.4630117-8.051239 9.7782297-11.4257202 1.6183434-1.6183472 3.2463226-3.2366867 4.8744221-4.8550262 1.5885925-1.6082306 3.1773052-3.2068176 4.7558994-4.804924 1.8452682-1.8553848 3.7001686-3.6905365 5.5651932-5.5059319 1.4208069-1.3813019 2.8416138-2.7433319 4.2625427-4.0947609 3.2955856-3.1282806 6.6209183-6.1867027 9.9460144-9.1665916 1.6676064-1.4800682 3.3352127-2.9505005 4.9928207-4.4204521 1.6872406-1.4603157 3.4337387-2.9505005 5.2690086-4.3814278 1.8451462-1.4405594 3.779068-2.8314972 5.8611374-4.104393l1.5884705-.9375687 1.6479721-.8681927 1.7366257-.8286839c.8089294-.3256931 1.608223-.6513844 2.4173965-.9770775.8090439-.2563133 1.6279755-.5227451 2.437149-.779541.819046-.1874161 1.6279755-.3748341 2.437149-.5526161.7992935-.1180382 1.598465-.2269249 2.397644-.3449631.1185226-.0101185.2369232-.0197544.3553238-.0197544.6610184-.0395069 1.3122787-.0496235 1.9734192-.0790138 3.039032.0096359 5.7919998.7101631 8.1403809 2.1213341.858429.522747 1.647728 1.154377 2.3187485 1.9045296.6808929.74967 1.2333908 1.6376133 1.5787125 2.5554295.700531 1.8351517.7992935 3.7396774.5723724 5.6538429-.4538498 3.8581963-2.4865341 7.8739433-4.7658997 11.4160843-.6313858 1.0165825-.9768372 1.4603157-1.4010544 2.0823097-.4144592.5820084-.8289261 1.1640129-1.2531433 1.716629-.8387985 1.1346245-1.6872406 2.2104683-2.5359192 3.2660751-1.7069931 2.1015816-3.4041061 4.0750046-5.0913467 5.9597778-7.7950516 8.6929932-16.5965652 17.662056-25.9505768 24.7169495-1.1248665.8489227-2.348381 1.6872406-3.7495537 1.8847733-1.4109344.1874161-3.039032-.5131073-3.4238625-1.8650208-.2466812-.8778229.0691376-1.8153915.463726-2.6440811 1.0064621-2.0919418 2.5359154-3.8880692 4.0554924-5.6538391 4.5584831-5.2496185 33.6862488-29.4635735 28.2395782-35.8275757-1.7858887-2.0823097-4.9927063-2.4768982-7.6272659-1.6578522-2.6245728.8089333-4.8249207 2.5949364-6.936615 4.3414383-5.9596634 4.9335594-11.8799362 9.926384-17.750946 14.9587097-8.870533 7.6171494-17.8397102 15.5701065-23.2763844 25.8616867-5.5948219 10.5975189-1.7071133 25.9802094 12.8075047 25.3389435 7.0746498-.3059387 13.3304901-4.4599609 19.033596-8.6139755 19.1718712-13.9623642 37.4655495-30.2527542 48.0825844-51.3191528 5.3182755-10.5676498 4.8742981-20.6713295-4.2626648-28.9697342-7.0747681-6.4136295-17.4352493-9.0976982-26.7793808-6.9267387-11.3471907 2.6445619-19.9415358 11.4657099-29.236286 18.4319574-2.3385048 1.7460175-6.0584297 3.2463226-7.8541908 1.0454903-.0493851-.0491447-.0790138-.0886497-.1185226-.1377945-3.4337388-4.6671295 6.7294464-14.1001549 9.6401977-16.9022617 5.2197456-5.0226936 11.3078041-9.1473236 17.9681091-11.9985752 7.587883-3.2564392 15.8959198-4.8646641 24.1546936-4.5982327 5.0223312.1676641 9.1270905 1.1842475 12.9456635 3.1673079 2.6245651 1.3422751 5.1012268 3.1475539 7.6568909 5.4370341 3.0095215 2.7033415 6.0386734 5.426918 8.5349655 8.6139774 6.6603088 8.5349654 8.3772964 20.4347724 5.4565506 30.7456245z" fill="#808285"/></g></g><g><path d="m104.5224762 7.1866899c-25.7531662-4.0552524-48.1120987 12.4032797-64.5901413 30.4695563-.0493851-.0491447-.0790138-.0886497-.1185226-.1377945-3.4337388-4.6671295 6.7294464-14.1001549 9.6401977-16.9022617 5.2197456-5.0226936 11.3078041-9.1473236 17.9681091-11.9985752 7.587883-3.2564392 15.8959198-4.8646641 24.1546936-4.5982327 5.0223313.167664 9.1270905 1.1842474 12.9456635 3.1673078z" fill="#8d8f91"/></g><g><path d="m82.4596024 33.6602554c-8.673233 3.9959908-16.0439453 10.3701134-23.4245338 16.3400116-7.1832962 5.8118668-14.2086792 11.8602982-20.6223106 18.5104904-12.4621793 12.9260254-22.881797 28.8714447-25.2105438 47.0172196-.2269239 1.716629-1.1346226 2.9601364-2.3187494 3.7295609-.5821266-.9669647-1.1347427-2.0129318-1.5787153-3.0685425-.6610203-1.598587-1.1444998-3.2265701-1.4800682-4.8545456-.6216335-3.2463226-.6216335-6.4435043-.1874175-9.4826508.2170477-1.519577.5524964-2.9996414.9768357-4.4498444.4242182-1.450676.9768353-2.8811188 1.5490847-4.1641312 1.1643734-2.6146927 2.5654278-5.0125809 4.0751266-7.2129288 3.029273-4.4103317 6.4630117-8.051239 9.7782297-11.4257202 1.6183434-1.6183472 3.2463226-3.2366867 4.8744221-4.8550262 1.5885925-1.6082306 3.1773052-3.2068176 4.7558994-4.804924 1.8452682-1.8553848 3.7001686-3.6905365 5.5651932-5.5059319 1.4208069-1.3813019 2.8416138-2.7433319 4.2625427-4.0947609 3.2955856-3.1282806 6.6209183-6.1867027 9.9460144-9.1665916 1.6676064-1.4800682 3.3352127-2.9505005 4.9928207-4.4204521 1.6872406-1.4603157 3.4337387-2.9505005 5.2690086-4.3814278 1.8451462-1.4405594 3.779068-2.8314972 5.8611374-4.104393l1.5884705-.9375687 1.6479721-.8681927 1.7366257-.8286839c.8089294-.3256931 1.608223-.6513844 2.4173965-.9770775.8090439-.2563133 1.6279755-.5227451 2.437149-.779541.819046-.1874161 1.6279755-.3748341 2.437149-.5526161.7992935-.1180382 1.598465-.2269249 2.397644-.3449631.1185226-.0101185.2369232-.0197544.3553238-.0197544.9175722 2.0326845.5427401 4.479231-2.1017072 5.7029859z" fill="#8d8f91"/></g><g><path d="m123.8916397 57.5485191c-.4243393.8286819-.8781891 1.608223-1.3320389 2.348259-1.4011765 2.2697258-2.7924728 4.1443825-4.0357361 5.880764-1.2727814 1.7961273-2.5653076 3.6216354-3.8777161 5.4765396-5.4960556 7.6171494-11.761528 15.4718246-19.0534668 23.3655243-4.5979919 4.9826965-9.8572464 10.1725769-15.7873993 15.3330612-2.9601364 2.5756683-6.0978088 5.1412125-9.413269 7.657135-.838562.6215134-1.6674881 1.2627792-2.5259171 1.8746567l-1.2826538.9274521-.6413879.4639664-.7597885.5227432c-2.0424423 1.3914185-4.1146355 2.6050568-6.2458458 3.7001724-4.2824173 2.190712-8.82127 3.9767227-13.8238487 5.190361-4.9829445 1.1741333-10.5085068 1.8842926-16.6655827.8286743-3.0587826-.5622406-6.2754745-1.6578369-9.2257347-3.4534836-1.5492039-.9274521-2.9996433-2.0524368-4.2922935-3.3152237.3059387-2.7828369 2.5853024-5.2394943 5.9301491-4.0061035 20.8295994 7.6764069 41.7577286-7.4692383 58.1272507-18.8164291 16.5471802-11.4758301 31.801712-25.1317749 42.8134537-42.1231689.5821284-.8975792 1.3025264-1.4998207 2.0918254-1.8549004z" fill="#747577"/></g><path d="m79.8698807 53.737175c-1.5473633 2.1572266-3.2839355 4.2119141-5.074585 6.2026367-5.1406403 5.6937714-10.8751717 11.0551682-16.921875 16.8300781-.9455566.9155273-1.8845215 1.8208008-2.8117676 2.8046875-.9381104 1.0356445-1.7359619 1.9863281-2.5725098 3.0678711-.8137207 1.0673828-1.5777588 2.2143555-2.1798096 3.4755859-.3018799.6464844-.6018066 1.3837891-.6577148 2.2944336-.0788574.9008789.2950439 1.9897461.9686279 2.6586914.6616211.6879883 1.4768066 1.0517578 2.2924805 1.2260742.8092041.1845703 1.7200928.1103516 2.4493408-.1074219 1.5131836-.4375 2.642334-1.3076172 3.6447754-2.0644531 9.3933105-7.190979 17.9653091-15.9747162 25.8895264-24.8989258 4.1430359-4.8995705 8.7467194-10.1316986 11.8876953-15.8613281 4.8459091-8.8134537 5.1817856-17.7988491-4.125-21.2334003-11.0948563-4.0599365-24.1415482 4.0989971-33.0864258 11.9604511-2.2980957 1.9135742-4.2871094 3.8212891-6.1901855 5.5068359-1.8479004 1.7441406-3.5325928 3.3344727-5.0457764 4.7626953-3.0164795 2.8657227-5.3529053 5.0737305-6.8609619 6.6435547-.7559814.7817383-1.3314209 1.3769531-1.7181396 1.7768555-.3792725.4072266-.5623779.6254883-.5408936.6479492.0216064.0219727.2476807-.1523438.6694336-.5151367.4150391-.3706055 1.0324707-.9213867 1.8436279-1.6450195 1.5908203-1.4814453 4.0064697-3.6000977 7.09729-6.3745117 1.5454102-1.3862305 3.2662354-2.9301758 5.1534424-4.6235352 1.9345703-1.6362305 3.9760742-3.5136719 6.2860107-5.3623047 8.5457382-7.2364082 21.3649673-15.2846279 31.824585-11.2602558 8.2729187 3.1597195 7.3764343 11.1379223 3.0388184 18.7929707-2.0223389 3.5976563-4.6347656 6.956543-7.4388428 10.3408203-1.4337158 1.6625977-2.8847656 3.3452148-4.3525391 5.0478516-7.8443222 8.6646118-16.4148254 17.3239517-25.7821045 24.3754883-.9753418.7397461-1.9178467 1.3891602-2.8468018 1.637207-.4783936.1298828-.8624268.1503906-1.2904053.0561523-.413208-.0878906-.7974854-.2880859-1.0114746-.5268555-.2116699-.2436523-.2963867-.4536133-.2792969-.8251953.020752-.3671875.184082-.8476563.4306641-1.3500977.5079346-1.0439453 1.1776123-2.0429688 1.9317627-3.0161133.7441406-.9521484 1.6191406-1.9755859 2.4299316-2.8554688 4.2163162-4.4098511 18.3338699-16.4737091 25.2303467-25.9511719.824707-1.1499023 1.6184082-2.3413086 2.3061523-3.652832.6588135-1.3232422 1.3304443-2.7265625 1.3748779-4.578125.024292-.9091797-.267334-2.0102539-.9505615-2.8378906-.5839844-.7104492-1.2770996-1.2514648-2.0411377-1.6660156-1.5323486-.8144531-3.2189941-1.0649414-4.8328857-.9609375-3.3505859.2348633-6.043457 2.059082-8.3051758 3.8222656-4.4112549 3.6079102-8.6966553 7.2636719-13.0968018 10.9321289-4.3792725 3.6738281-8.8059082 7.3251953-13.1199951 11.2460938-4.3062744 3.9140625-8.496582 8.1030273-12.0930195 12.8774414-5.9952068 7.9892578-9.8580971 16.6896439-5.7740479 26.0180664 3.8647423 8.957283 15.4295902 14.1380005 32.8474121 2.0761719 2.4521484-1.7045898 4.7956543-3.4516602 7.15625-5.2177734 16.8974152-12.7195587 38.1934433-32.4779434 45.7646484-52.1582031 3.5481186-9.2071648 2.5676346-17.9698181-4.0085449-25.3100605-1.9521484-2.1762695-4.1928711-4.0839844-6.6517334-5.6118164-28.7335183-17.8797769-51.9369675 18.082964-58.7481667 16.3261738-.2215576-.0664063-.3272705-.1411133-.4667969-.2998047-.0701904-.0385742-.1574707-.2475586-.2518311-.362793-.0478516-.1503906-.1488037-.2773438-.1705322-.4355469-1.9020081-5.3714447 16.0409393-18.4794254 20.855835-21.5664063 18.4561005-11.9564648 36.887001-10.3523092 49.904541.4296875 3.2088623 2.6621084 5.9466553 5.7988272 8.1022949 9.2211905 14.8757706 23.3245144-3.3704987 44.5071106-23.1660156 66.7426758-12.6790466 14.2428284-21.2590103 20.526001-26.6505127 24.9912109-1.0710449.9130859-2.21875 1.6967773-3.3099365 2.5341797-1.1383057.8266602-2.2261963 1.6323242-3.3154297 2.3515625-2.196167 1.4614258-4.4555664 2.7338867-6.7459717 3.8442383-4.5748291 2.2333984-9.2139893 3.8422852-13.7507324 4.7905197-15.6513348 3.3021851-26.044466-2.2874908-31.1397705-11.2075119-1.6650391-2.909668-2.5462646-6.0952148-2.8526611-9.1308594-1.0345144-10.3616791 3.897788-19.3709488 10.5530996-27.3237305 2.5622559-3.0244141 4.9460449-5.5024414 7.0474854-7.652832 4.1907959-4.2836914 6.9539814-7.3393555 8.8709736-9.3764648 3.8093262-4.1108398 3.9207764-4.5981445 3.7242432-4.7988281-.1964111-.2011719-.6778564-.1020508-4.8449707 3.6772461-2.1014404 1.8774414-5.012331 4.753418-9.3642597 8.8920898-2.1663818 2.0625-4.6807861 4.5195313-7.3951416 7.5668945-7.4920826 8.5171432-12.6804152 18.0989151-11.7200928 29.3110352.3068848 3.4321289 1.2434082 7.0302734 3.1333013 10.4291992 6.900877 12.3931961 20.4330635 16.0471725 34.7070313 13.1215744 4.8699951-.9848633 9.7856445-2.6630859 14.630127-4.9936447 2.425293-1.159668 4.8415527-2.5024414 7.1966553-4.0532227 1.1918945-.7797852 2.3239746-1.6108398 3.4434814-2.4150391 1.1225586-.8520508 2.3060303-1.6538086 3.4046631-2.5800781 5.9435425-4.8681717 14.5126724-11.1307983 27.2779541-25.3847656 12.1685104-13.587944 23.9792175-30.6634979 26.0489502-34.6645508 5.0054398-9.3988953 4.0567856-22.4332619.7105713-30.8950214-.8361816-2.0805664-1.8891602-4.0664063-3.0786133-5.9350586-2.3728027-3.7729492-5.383667-7.2338858-8.9344482-10.1840811-13.90271-11.5206804-34.0697556-14.0079765-54.689209-.7329102-6.104847 3.9089136-19.7712021 14.1586866-22.3016357 21.4511719-.2469482.6635742-.4029541 1.4189453-.4862061 2.2021484-.0419922.7993164-.0251465 1.6533203.2485352 2.4907227.1000977.4223633.3103027.8129883.4891357 1.2055664.2408447.3706055.4014893.7138672.7581787 1.0942383.6242676.7460938 1.5709229 1.3325195 2.5067139 1.5644531 1.8847656.4287109 3.4418945-.0048828 4.7658691-.5180664 9.4213371-3.7186356 28.8476868-31.3151379 52.9328613-16.39258 2.1507568 1.3286133 4.1004639 2.9848633 5.8106689 4.8779297 5.563736 6.1766872 6.382431 13.3832264 3.3426514 21.3378925-7.1240845 18.6609192-28.4354706 38.5923386-44.3476563 50.6728516-6.6594124 4.9449921-27.3502388 21.3812256-34.7420654 4.6362305-5.5394249-12.4255905 6.8893185-26.0004959 16.9000263-35.1962891 4.2078857-3.8676758 8.6239014-7.5546875 12.9689941-11.2421875 4.3463135-3.6669922 8.6723633-7.3984375 12.9520264-10.9438477 2.098999-1.684082 4.3605957-3.09375 6.6700439-3.2426758 1.1619873-.0869141 2.3354492.1074219 3.2675781.6000977.460083.2421875.8769531.5776367 1.1759033.9370117.1987305.2519531.3184814.5556641.3157959 1.0273438.0070801.9375-.4571533 2.1513672-1.0299072 3.265625-.5832535 1.1323262-1.3055435 2.2397481-2.070314 3.3198262z" fill="#202020"/></g></svg>