<svg id="Layer_1" enable-background="new 0 0 135 135" height="512" viewBox="0 0 135 135" width="512" xmlns="http://www.w3.org/2000/svg"><g><g><path d="m129.4582672 102.5587997c-.2846069 5.4748917.3502502 10.4115829-5.1224976 13.7028885-4.1155167 2.4733963-9.5444489 2.4216003-14.2291565 2.4216003-17.5894318-.4138794-35.1788712-.8176422-52.7573471-1.2211609-.5363197-.0207214-1.0726395-.0310822-1.6089592-.0414352-9.259922-.2069397-18.5088882-.4242401-27.7687416-.6415329-6.4469185-.1450348-16.2212467 1.6764755-21.1795921-3.0014877-2.9224315-2.7427521-3.196069-7.0480194-3.2836518-10.939415-.2188566-9.6454849-.3721097-19.291214-.4377801-28.9369507-.1094957-12.8124694-.0766271-25.6251869.076626-38.4376564.1531863-12.740202-1.707496-28.4091206 15.8819389-29.2267666 10.441988-.4866452 20.883976-.6210666 31.3369217-.5485501 7.0708199.0411854 14.1306839.1965785 21.2015076.393157 10.7812958.3208928 21.5625916.776207 32.3439484 1.2418804 6.0966568.2693481 16.133667.1761122 20.7307968 4.6056967 4.6627884 4.4914894 3.9622574 12.4814682 4.2796555 18.3495102.0109558.1758595.0219116.3517189.0328674.5174713.5691223 8.6934185.9632111 17.3868313 1.1602325 26.0908604.3502655 15.223969.1203766 30.4582906-.6567688 45.6718907z" fill="#92278f"/></g><g><path d="m108.6178284 67.0954514c-.6144867 3.2797165-1.7443771 6.4316559-3.3202744 9.3577805-3.1219864 5.7932587-7.9685669 10.7028885-13.9053497 14.0020294-2.8445053 1.5908279-5.9367828 2.8084106-9.2174377 3.5743408-2.5967255.6089096-5.3024597.9229507-8.0874939.9229507-6.2241898-.0098267-12.5673637-1.620079-17.8995819-4.742775-2.8940468-1.6886444-5.4809074-3.8294144-7.5919342-6.4019394-.5649414-.6973648-1.1001854-1.4141541-1.5957451-2.1702499-1.8930054-2.876976-3.1913681-5.9994354-3.9446259-9.2496643-.7532616-3.1716003-.9712753-6.4611511-.7234993-9.7406273.4063339-5.6264153 2.1804123-11.2235832 5.0546761-16.1821136 1.5956841-2.7789268 3.5482178-5.3612785 5.7980156-7.6197548 3.9149246-3.9670181 8.7318001-6.9717674 14.1928101-8.4544849.9911118-.2651386 1.992157-.4811344 2.9931946-.6479836 3.2607498-.5401077 6.5810318-.5401077 9.8517075-.0688019 7.0765915 1.0015831 13.8657227 4.2223263 19.0294647 9.1024685 2.3984909 2.2486496 4.4401932 4.8604851 6.0061722 7.7671852.0099182.0095901.0099182.0196571.0198441.0292473 2.2894745 4.2812996 3.4986115 8.6606522 3.7860107 12.9419518.1685332 2.5725211.0099257 5.1157951-.4459535 7.5804405z" fill="#e6e7e8"/></g><g><path d="m12.0896263 117.6690674c-.5989542 2.5758438-.3694153 6.2497406 2.8238544 8.3972549 1.3972473.9396591 3.4772549 1.6712189 5.7639885 1.7153091 3.3025265.0636826 6.2060566-1.3492203 7.2329845-2.9780045 1.0269279-1.6287766 1.1410522-5.4741745.3237934-7.1345596" fill="#939598"/></g><g><path d="m103.3947144 119.0219803c-2.5940323 2.858757-.9591217 7.1991119 3.4154587 8.6655426 4.3745804 1.4664383 10.4149933-.5019989 11.3983765-3.8139496.5595398-1.8844986-.3526764-3.8205795-1.4022446-5.600647" fill="#939598"/></g><g><path d="m19.5632591 37.4843521c-3.9747925-.3381653-3.9212875 4.888073-3.9843025 7.6384659-.2886419 12.5982323-.5772829 25.1964645-.8659248 37.794693-.0417528 1.8223495.0328045 3.9111099 1.4562073 5.0743637 1.575222 1.287323 4.1110744.6668777 5.5037212-.810936s1.9139328-3.5402374 2.3115444-5.5190201c2.2124844-11.0107956 2.1503391-22.3263092 2.0798817-33.5508881-.0156937-2.5002403-.0551434-5.102829-1.1937962-7.3369026-1.1386528-2.2340775-3.7315884-3.9610176-6.1734447-3.2862892" fill="#f9f9f9"/></g><g><path d="m50.3660278 5.6883335c-12.390255 4.1294107-24.2223434 9.738718-31.8841972 20.3158016-9.1723385 12.6780434-11.6679459 27.9641648-11.3833518 43.0433503.0547142 2.7839355-1.8169246 4.4088669-4.0279379 4.8538208-.1094954-12.8124695-.0766268-25.625187.0766263-38.4376565.1531863-12.740202-1.707496-28.4091206 15.8819389-29.2267666 10.441988-.4866447 20.883976-.621066 31.3369217-.5485496z" fill="#bc44bc"/></g><g><path d="m129.4582672 102.5587997c-.2846069 5.4748917.3502502 10.4115829-5.1224976 13.7028885-4.1155167 2.4733963-9.5444489 2.4216003-14.2291565 2.4216003-17.5894318-.4138794-35.1788712-.8176422-52.7573471-1.2211609.6239014-.2175522 1.357296-.3312531 2.1782112-.2898178 8.7782478.4035187 17.2172585-2.3182602 25.3060036-5.2783051 8.0558777-2.9494324 15.0719147-6.6028137 21.1467209-12.4089508 5.4727554-5.2265091 9.3364868-11.8603973 11.656929-18.8462601 4.9364319-14.8618851 3.5353699-31.3277321 2.3642654-46.6242142-.3721771-4.9781342 5.64785-6.199297 8.9205399-3.736002.0109558.1758595.0219116.3517189.0328674.5174713.5691223 8.6934185.9632111 17.3868313 1.1602325 26.0908604.3502656 15.2239687.1203767 30.4582903-.6567687 45.6718904z" fill="#842a87"/></g><g><path d="m80.4899139 55.8327904c-.525322 4.6737366-6.253952 5.8620682-8.771431 3.5053024-1.6155243 2.1800842-5.005127 3.3386917-7.700943 1.0507278-4.9754257-4.2125015-9.8517075-9.2693214-15.3524551-12.7945213-.5252609-.3337021-.9415169-.7167854-1.2785225-1.1291161 1.5956841-2.7789268 3.5482178-5.3612785 5.7980156-7.6197548.1586113.078392.3270836.166851.4856949.2749672 6.1548042 3.9375343 11.5861664 9.4165154 17.1562424 14.1494637.683876-7.6492386.6244125-15.3279648-.4163132-22.9575462-.0297012-.1960964-.0396194-.3828449-.0396194-.5693531 3.2607498-.5401077 6.5810318-.5401077 9.8517075-.0688019 1.060501 8.7390423 1.2388992 17.3606167.2676238 26.1586323z" fill="#f9f9f9"/></g><g><path d="m105.2579269 46.5438118c-5.0943604 4.1731834-10.1688766 8.3854446-15.2235489 12.6077728-4.8465805 4.0552368-11.8835526-2.8671455-7.0072098-6.9420433 5.3916855-4.4972954 10.7932281-8.9749336 16.2245865-13.4329147 2.398491 2.2486496 4.4401932 4.8604851 6.0061722 7.7671852z" fill="#f9f9f9"/></g><g><path d="m108.6178284 67.0954514c-.6144867 3.2797165-1.7443771 6.4316559-3.3202744 9.3577805-6.2142715-1.129364-12.369133-2.5432739-18.4744492-4.2419891-6.1350174-1.7085419-3.5085297-11.1744385 2.6364059-9.4656563 6.3233338 1.7672767 12.7061387 3.2109183 19.1583177 4.3498649z" fill="#f9f9f9"/></g><g><path d="m91.3922043 90.4552612c-2.8445053 1.5908279-5.9367828 2.8084106-9.2174377 3.5743408-1.9623947-5.3711014-4.3311844-10.5360413-7.0864563-15.573204-3.0427399-5.5578537 5.5205307-10.5166245 8.5632706-4.9587784 2.9931335 5.4693985 5.5700759 11.1348877 7.7406234 16.9576416z" fill="#f9f9f9"/></g><g><path d="m71.0842133 74.9410248c-4.7177277 5.3317871-9.6832352 10.4180984-14.8965225 15.2687531-2.8940468-1.6886444-5.4809074-3.8294144-7.5919342-6.4019394 4.5888214-4.2518082 8.9893837-8.6999664 13.2115555-13.3149643-.664032.3732529-1.466835.6086655-2.3984871.6283264-5.4907722.1179428-10.9320564.5106201-16.3534393 1.2667236-.7532616-3.1716003-.9712753-6.4611511-.7234993-9.7406273 5.6691666-.7659302 11.3482475-1.2274055 17.0769386-1.3453522 4.2420082-.0882225 5.6493797 4.2026711 4.2617912 7.1484489.1387711-.1570282.2775421-.294632.406395-.4516525 4.2221068-4.7526054 11.1996154 2.219162 7.0072021 6.9422837z" fill="#f9f9f9"/></g><g><ellipse cx="75.037" cy="63.703" fill="#bcbec0" rx="10.394" ry="9.942"/></g><g fill="#202020"><path d="m130.9514923 20.2891674c-.1893921-1.4121094-.5097656-2.8178711-.9733276-4.1740723-.4512939-1.3569326-1.1012573-2.671874-1.9608154-3.8278799-.398262-.5993652-.9176102-1.1032715-1.3975906-1.6223145-.5465698-.4580078-1.0785522-.9506836-1.6638794-1.2919922-1.1398315-.7727051-2.3321533-1.260498-3.4875488-1.6884766-7.7602158-2.6482401-49.1365967-2.893744-49.1761475-1.5979004-.0695114 2.2778025 39.8314514 1.9437332 48.0020142 4.8769531.9460449.3686523 1.9006348.7783203 2.7045288 1.3508301.4383545.2546387.7671509.6005859 1.1494141.9089355.3234863.3793945.6929932.7214355.9671631 1.1621094 1.21698 1.6552725 1.8679199 3.9208975 2.2000732 6.4082022.1707306 1.2633419 1.6964951 34.2579422 1.6934891 49.1467285-.0031281 10.8868103-.7326813 35.8513412-1.2464676 38.9675293-.333313 2.0893555-1.1536865 3.7128906-2.7796631 4.9338379-1.6103516 1.2607422-3.7080688 2.0070801-6.0251465 2.3837891-5.0848999.7766113-11.2793579.2731934-17.5849609.2116699-6.3390503-.1367188-13.0076294-.2805176-19.9337158-.4299316-82.0285416-1.6752396-64.7675781-.7715607-67.0896606-1.1350098-1.7672729-.2814941-3.4342041-.8039551-4.7608032-1.6936035-1.3349609-.8903809-2.2249146-2.1555176-2.7699585-3.7609863-1.8573632-5.5310669-2.0330143-83.0395508-1.1947632-88.9677734.4483032-3.2016602 1.3839111-6.2666006 3.2521362-8.5300283 1.8282471-2.295166 4.5499878-3.6166992 7.3743286-4.1901855 1.4206543-.314209 2.8312378-.4375 4.3053589-.5097656 16.7730541-.839139 26.3360043-.8890896 43.2758179-.9384766 2.7219238-.020752 4.8357544-.0368652 6.2701416-.0478516 1.4342039-.0283203 2.1885984-.0769043 2.1906736-.1469727.0020752-.0703125-.748291-.1608887-2.1792603-.2692871-1.4309692-.1081543-3.5427246-.2324219-6.2637939-.3564453-14.7283592-.6746292-28.3490486-.7222261-43.3840313-.2661133-1.4787598.0432129-3.074646.1481934-4.6384277.4658203-1.571228.3046875-3.1646729.7905273-4.6706543 1.578125-1.5048828.7814942-2.9025269 1.8796387-4.0319214 3.2265625-7.6849985 9.051198-4.4021397 46.6552086-4.5634155 93.7817383.0812988 2.0219727.2546997 4.1464844.9576416 6.2841797.3530884 1.0632324.8531494 2.1245117 1.5432739 3.088623.3467407.4802246.7357178.9331055 1.1610718 1.3515625.4370728.3930664.8922729.7683105 1.3596191 1.1152344 1.3013306.8884277 2.7108154 1.4667969 4.1271362 1.8608398-.2372437.3356934-.5013428.9655762-.6722412 1.864502-.1309814.7236328-.1843872 1.6245117-.0199585 2.6386719.161499 1.0090332.5610962 2.1369629 1.2786255 3.168457.7206421 1.017334 1.7531738 1.9135742 2.8552246 2.5290527 1.1036377.628418 2.2957153 1.0634766 3.4978638 1.3205566 7.1907883 1.5782623 14.1171436-3.3042221 11.4255981-10.5583496-.0366821-.09375-.0759888-.1628418-.1139526-.2456055l1.5404663.0405273c1.9305401.0512695 3.8550396.1022949 5.7725201.1533203 15.343689.395752 30.2341919.7800293 44.0942993 1.1379395 6.9316406.1708984 13.6055908.3354492 19.9497681.4919434.1153564.0026855.2263184.0053711.3414307.0083008-.0217896.0395508-.0446777.0715332-.0661621.1130371-.350708.6953125-.5557861 1.6662598-.4402466 2.7336426.1115112 1.0661621.5610352 2.2021484 1.2999268 3.1818848 1.4697876 2.0009766 4.0460205 3.208252 6.4372559 3.4748535 2.4041138.3137207 4.6529541-.1176758 6.3163452-.7880859 1.5161743-.6064453 2.8042603-1.494873 3.7398071-2.6467285.470459-.5627441.8240967-1.2341309 1.0413208-1.9084473.2197876-.6601563.2723389-1.2805176.2650146-1.8405762-.0390625-1.1196289-.3353882-1.9274902-.6115112-2.5317383-.006897-.0148926-.013916-.0266113-.020813-.0410156h.0002441c2.717041-.4401855 5.5440674-1.3754883 7.8632202-3.189209 1.1669388-.890625 2.2199173-2.0598145 2.9419632-3.3925781.7315674-1.3295898 1.1292725-2.7526855 1.3490601-4.0866699.5022278-3.2164154 1.271759-24.5387192 1.2241211-39.6408691-.0504151-15.6370916-1.8065033-47.9816542-2.0471192-49.6450205zm-111.6729793 105.4799824c-1.7785034-.1928711-3.6245117-.869873-4.7541504-1.9741211-1.1603394-1.1206055-1.692688-2.7348633-1.9020386-3.9650879-.1316528-.7385254-.1947021-1.3371582-.2845459-1.7177734.4779663.1149902.9553223.2128906 1.4276123.2932129 4.1860962.6757813 8.2020874.347168 12.0292969.2470703.5373535-.0170898 1.0530396-.0102539 1.5772095-.0131836-.055603.1875-.1021729.4191895-.1417847.720459-.3420182 2.3338699-.0030041 7.3326034-7.9515991 6.4094238zm97.222166-3.0334473c-.0350342.2202148-.0863037.4543457-.1894531.6508789-.0932007.1831055-.206665.3991699-.4354248.6308594-.425293.4641113-1.1635132 1.0144043-2.2000732 1.4204102-1.1176758.4541016-2.7523804.8759766-4.4644775.8237305-1.6974487-.0161133-3.440918-.5769043-4.5934448-1.6347656-1.1755981-1.0383301-1.6156006-2.4621582-1.5082397-3.5559082.0158081-.1918945.0436401-.3686523.074646-.5378418 2.5150146.0603027 4.9911499.1193848 7.3933716.177002 1.9173584.0063477 3.8195801.0009766 5.7206421-.1179199.1210936.6091307.295471 1.384033.2024534 2.1435545z"/><path d="m54.6480789 35.2249603c-5.9174194 4.8132324-10.2677612 11.4702148-12.5125732 18.5671387-1.1594238 3.5419922-1.7420654 7.2155762-1.8406372 10.8208008-.2086105 9.9938583 3.8344383 19.4938278 12.1101685 25.5432129 4.1152344 2.96875 8.5612793 4.7885742 12.8499756 5.7810059 7.0545349 1.6569901 13.539032 1.2256393 20.3432617-.8369141.8085327-.3078613 1.6021729-.6098633 2.3812256-.90625 15.7503281-6.3519058 23.874054-22.6970215 21.8894653-33.2587891-.2566528-1.362793-.5249634-1.4348145-.8053589-1.4182129-.2804565.0166016-.5470581.1428223-.7796021 1.447998-.3345261 1.8784256-.0132523 2.1899376-1.6591797 8.3469238-.0178223.0471191-.0367432.0981445-.0546265.145752-1.1043091-.3847656-3.1800537-.6628418-7.123291-1.0048828-2.2568359-.1982422-5.8171997-.3613281-8.8178711-.5063477-2.5773926-.1015625-4.7266235-.2563477-5.397522.0390625.4345093-1.2285156.553833-2.2983398.5244141-3.0336914-.0488892-.8181152-.1931152-1.2497559-.324707-1.248291-.3374023-.0212402-.3873901 1.7663574-1.7463379 3.9533691-.677002 1.0737305-1.6888428 2.2253418-3.0913086 3.0732422-3.1510468 1.9979782-7.3385391 1.8840332-10.2442017-.0822754-1.5567627-1.0307617-2.7677002-2.5527344-3.3189087-4.2202148-.5908203-1.6525879-.5349121-3.4284668-.0641479-4.9035645.4839478-1.4794922 1.3546753-2.7016602 2.3167114-3.5400391 1.7523804-1.5683594 3.8627319-2.177002 5.6831665-2.2233887 1.8413086-.0258789 3.3935547.4526367 4.5825195 1.1132813 2.4226074 1.331543 3.392334 3.0905762 4.000061 4.2009277.5748901 1.1657715.8002319 1.8666992 1.0675049 2.2255859.263855.3657227.5339966.4047852.8149414.4030762.2809448-.0019531.5479736-.0234375.7686768-.4753418.1014404-.2260742.2324829-.5654297.2471924-1.0632324.0454712-.5019531.0108643-1.1643066-.1738281-2.0227051-.2015991-.8508301-.5735474-1.8950195-1.3008423-3.0529785-.2223511-.3498535-.4949341-.7089844-.7937012-1.0690918 1.7201538-.3962402 7.635437-5.5756836 10.4778442-7.9614258 2.848938-2.4819336 4.2930298-3.6166992 4.9161377-4.4389648.6358643-.7856445.4464111-1.2646484.1796875-1.7590332-.2668457-.4946289-.5272217-.9331055-1.6570435-.7128906-1.0983887.2438965-3.0834961 1.1950684-6.119751 3.845459-1.670166 1.4467773-3.9802246 3.9970703-5.6937256 6.2990723-1.3470459 1.8059082-2.3618164 3.4199219-2.5482178 4.2246094-.6124878-.651123-1.3505859-1.2922363-2.2684326-1.8691406-.993103-.6362305-2.2058716-1.1782227-3.5944214-1.5146484.3861084-1.0471191.6158447-3.170166.5845337-7.5187988-.0110474-2.2817383-.2368164-5.8625488-.5370483-8.876709-.2201538-2.1601563-.4638672-4.0188007-.7902832-4.922121 8.0516815.3248081 16.1516953 3.5403118 22.5100708 9.7053242 4.0066986 4.1159859 6.892746 8.9170837 8.5108643 15.1977539.600647 2.4177246.7548828 3.810791.9146729 3.7983398.119873-.005127.243103-1.4208984-.109436-3.9575195-3.5804519-24.1753789-35.0797043-36.4976751-54.3060913-20.3344728zm-1.8016968 6.584961-.0021973-.0014648c.0096436-.0114746.0184937-.0234375.0281372-.034668.0087891-.0021973.0143433-.0031738.0195313-.003418.0046387.0153809.0089722.029541.0132446.0441895-.0382079-.0004883-.0621948-.0058594-.0587158-.0046387zm.0195313.0126953-.0065918-.0041504.0029907.0014648.0028687.0021973zm-7.1483765 13.0876465c1.3029785-4.3510742 3.5009766-8.5454102 6.3922119-12.1918945.0302734.0600586.0609131.1188965.0889893.1738281.4271851.8730469 1.1165161 1.9992676 1.9405518 3.1945801 1.6407471 2.3947754 3.8549194 5.0473633 5.4415283 6.5861816 2.4864502 2.4306641 4.2060547 3.6064453 5.3369751 4.1022949-.7435303 1.0249023-1.3731689 2.2353516-1.7719116 3.5986328-.3297729 1.1386719-.484375 2.3762207-.4332886 3.6311035-2.3753052-.6027832-8.9107056-.6022949-12.3259888-.112793-3.2531738.4462891-5.1348877 1.0161133-6.1796265 1.5473633-.0041504-.2568359-.0255127-.5097656-.0231323-.7680664.0529175-3.2160644.5264282-6.5339355 1.5336914-9.7612304zm3.6488037 26.5639648c-2.9767761-4.0650787-4.416626-8.3642044-4.9559937-12.9799805.0108643.0014648.0189209.0041504.0299683.0053711 1.0046387.1350098 2.824585-.0671387 6.4998169-.5727539 3.2536621-.4694824 9.6775513-1.6738281 11.8916626-2.7258301.1271973.8654785.3487549 1.7272949.6904297 2.5583496.6498413 1.6640625 1.7374878 3.1467285 3.0731812 4.3303223-2.4246521 1.6780319-7.0786247 5.6316986-9.2849121 7.765625-2.7495728 2.6398926-4.1074219 4.1901855-4.7059937 5.1882324-1.1519165-1.0522461-2.2542114-2.2282714-3.2381592-3.5693359zm32.553833-8.8935547c1.5841675-1.2438965 2.5933838-2.7900391 3.1571655-4.1618652.3956909.6054688 2.4660645 1.6169434 5.0651855 2.3659668 2.9920044.8916016 6.6218872 1.5205078 8.9421387 1.7243652 2.9979858.2600098 4.9563599.2497559 6.2498169.1086426-3.789856 8.8860016-10.4459229 14.0154724-17.7617188 17.5690918-.3319092.1550293-.6887817.2602539-1.0366211.3952637-.0689087.0253906-.1414185.0522461-.2105713.0776367-.2130127-1.1445313-.8238525-2.8852539-2.0708618-5.5351563-.8554077-1.8417969-2.3991699-4.5944824-3.6518555-6.8984375-.6228027-1.1467285-1.1882935-2.1877441-1.6079712-2.9604492-.1879883-.3293457-.352478-.5949707-.5054932-.8022461 1.305237-.4487305 2.47699-1.104248 3.4307863-1.8828125zm-4.3662719 2.1650391c-.0528564.2456055-.0930176.5310059-.1012573.8864746-.0394287.9597168.1481934 2.230957.4522705 3.6010742.6276245 2.7336426 1.8036499 5.7697754 2.6582031 7.611084 1.1538086 2.453125 1.9509888 3.9448242 2.5632935 4.8598633-5.4753342 1.3867035-10.5855713 1.8078918-16.9458618.2885742-3.7512207-.8779297-7.6063232-2.4716797-11.12677-4.9575195 1.0636597-.6318359 2.6370239-1.8994141 5.0898438-4.2543945 2.3579369-2.2805481 6.1769867-6.7163391 7.8391724-9.6293945.2014771.1313477.4029541.2631836.6112671.3813477 2.6333845 1.5279768 5.921211 1.9832991 8.9598387 1.2128905zm-2.201416-43.9714375c.2794189-.0041504.5540771.0161133.8322144.0192871-.4191895.8891602-.8416748 2.7331562-1.1453857 4.8796406-.4376221 3.0415039-.6675415 6.6630859-.6564331 8.9592285.0279541 3.8864746.2446899 5.9890137.5791016 7.1396484-.0092773 0-.0180054-.0012207-.0272827-.0012207-2.4628296-.0048828-5.3753052.7607422-7.885376 2.7900391-.5845947-.8642578-1.9336548-2.175293-4.6208496-4.7993164-1.5119629-1.4660645-3.9859619-3.7287598-6.1449585-5.5969238-1.081665-.9309082-2.0897827-1.7548828-2.8803711-2.3032227-.0881348-.0544434-.1400146-.076416-.1873169-.0957031-.0039063-.0007324-.0065918.0009766-.0096436 0 .0297241-.1271973.0110474-.2412109-.0456543-.3417969 1.1235352-1.2880859 2.338623-2.494873 3.6402588-3.5969238 5.2357177-4.5187988 11.9681395-7.0048847 18.5516967-7.0527363z"/><path d="m26.8342381 40.5591888c-.4423828-.9182129-1.0293579-1.6928711-1.6105347-2.2531738-1.1800537-1.1408691-2.3886719-1.6357422-3.3250732-1.8266602-.9469604-.190918-1.6300049-.0661621-2.0501709.0771484-.6050415.2355957-.7438965.4689941-.7531128.6762695-.3682861-.005127-.8529053.0651855-1.3804932.3535156-.7124023.3762207-1.3513184 1.1813965-1.7523193 2.1660156-.4191284.9882813-.6348877 2.1516113-.7897949 3.4135742-.4673462 4.9626465-.9356079 11.7299805-1.4240112 19.2507324-1.3132715 21.5401688-1.4514942 22.0578918-.9660645 24.0341797.2924805 1.2553711 1.1320801 2.7143555 2.5380249 3.4755859 1.3944702.7719727 2.914978.7736816 4.1662598.4597168 1.2649536-.3188477 2.4011841-.9858398 3.2964478-1.9206543 5.5009574-5.7403409 6.8881625-42.0990217 4.0508422-47.9062498zm-2.812439 21.1586914c-.2279682 4.4772339-1.2231312 23.7360153-5.5153198 24.9042969-.5426636.1525879-1.0494385.1098633-1.3432617-.0480957-.2979126-.1513672-.5742798-.4606934-.7516479-1.0783691-.3354092-1.1525803-.2070923.0628204.2146606-22.9650879.1190796-7.5151367.1524658-14.3654785.1280518-19.2565918.0097656-2.3859863.4698486-4.2749023 1.4153442-5.0043945.3673706-.3115234.7576904-.456543 1.072937-.5429688.109375.1564941.3018188.2888184.7039795.4118652.3010864.1071777.7149658.2185059 1.2589111.5097656.5346069.2883301 1.2337646.751709 1.8970337 1.6052246.3325806.4343262.6165771.9226074.850647 1.5605469 1.1150836 3.0324326.4775314 11.9072419.0686645 19.9038086z"/></g></g></svg>