<svg id="Layer_1" enable-background="new 0 0 135 135" height="512" viewBox="0 0 135 135" width="512" xmlns="http://www.w3.org/2000/svg"><g><g><path d="m129.379364 84.0698471c-7.7599564 30.1699219-35.1299515 49.7500076-64.4699783 48.2197342-3.5399742-.1796875-7.1099815-.6699219-10.6799889-1.4897461-.75-.1601563-1.5-.3500977-2.25-.5498047-10.6400146-2.8501053-19.9299927-8.3003006-27.3900146-15.5000076-8.3699951-8.0800781-14.4500132-18.3701172-17.5499878-29.6801758-1.3300171-4.8398438-2.1099854-9.8598633-2.2999878-14.9799805v-.0102539c-.0700073-2.0595703-.0499878-4.1499023.0799561-6.2397461.2400513-4.1899414.9000244-8.4101563 1.9800415-12.6298828 6.8800039-26.7802734 29.2199706-45.2202143 54.6599731-47.9599607.7399902-.0800781 1.4899902-.1503906 2.2300415-.2001953 6.7199669-.4897461 13.62994.1298828 20.4999962 1.9702151 1.7699585.4799805 3.5099487 1.0195313 5.2099609 1.6396484h.0100098c13.5599976 4.9399409 24.5900269 14.2402344 31.9500122 25.9101563 9.2799759 14.7197261 12.7199783 33.2197261 8.0199661 51.4999995z" fill="#fbe000"/></g><g><path d="m89.3993759 6.6596913c-37.8099937 5.2602534-74.6699829 33.3901367-75.6300049 73.8100586-.0899658 3.9199219-3.8499756 5.4599609-6.72998 4.6000977-1.3300171-4.8398438-2.1099854-9.8598633-2.2999878-14.9799805v-.0102539c.4799805-2.949707 1.1300049-5.8398438 1.9400024-8.659668-.4100342 1.0800781-1.0700073 1.8696289-1.8600464 2.4199219.2400513-4.1899414.9000244-8.4101563 1.9800415-12.6298828 6.8800074-26.7802739 29.2199741-45.2202148 54.6599766-47.9599612.0400391.2197266.0599976.4399414.0700073.659668.7200317-.2998047 1.4299927-.5898438 2.1600342-.8598633 6.7199669-.4897461 13.62994.1298828 20.4999962 1.9702151 1.7699585.4799805 3.5099487 1.0195312 5.2099609 1.6396484z" fill="#ffed80"/></g><g><path d="m129.379364 84.0698471c-7.7599564 30.1699219-35.1299515 49.7500076-64.4699783 48.2197342-.3499756-.3295898-.6300049-.7197266-.8599854-1.1396484-3.2700157.1201172-6.5599937.0097656-9.8200035-.3500977-.75-.1601563-1.5-.3500977-2.25-.5498047-10.6400146-2.8501053-19.9299927-8.3003006-27.3900146-15.5000076 23.8900146 5.8295898 50.260006 5.7197266 70.8699951-9.3203125 21.4500122-15.6401367 27.7900391-45.6196289 25.6000366-70.6298828-.0700073-.8598633.039978-1.6000977.2999878-2.2299805 9.2799721 14.7197266 12.7199745 33.2197266 8.0199623 51.5z" fill="#e8c707"/></g><g fill="#202020"><path d="m59.8977432 2.71365c-23.3604126 2.5924308-44.0205364 18.2861631-52.0558481 40.7392576-.4425049 1.1303711-.7103271 2.1787109-.9918823 3.0678711-.2844849.8886719-.4573364 1.6601563-.5977783 2.2827148-.2827148 1.2446289-.3978271 1.9033203-.3297729 1.9208984.1820679.050293.8572388-2.5424805 2.6848755-6.9755859 9.6023168-22.7982636 29.9446725-36.4175148 51.560975-38.4584956 50.5617981-4.9876556 85.5118484 50.3084869 60.0610962 93.4023438-6.0203857 10.2885742-14.5844727 17.8115234-23.0114746 22.3964844-7.6903076 4.25-15.7804565 6.5620117-23.4747314 7.3017578-7.7103882.746582-15.0117188-.0498047-21.5614624-1.7460938-26.5357915-7.1332441-44.5055729-29.6555906-46.7193614-56.509274-.3642578-4.609375-.161438-8.1401405.0284424-10.8120155.104187-1.3374023.1973267-2.4663086.3282471-3.4111328.1204834-.9458008.1624146-1.7280273.2630005-2.3510742.3283081-2.5092773.112915-2.7685547-.1596069-2.8369141-.272583-.0683594-.5731812.0415039-1.3911133 2.5078125-.2229614.6132813-.3857422 1.3935547-.625 2.3486328-.2495728.9541016-.4594727 2.1035156-.677002 3.4770508-.4158325 2.7436523-.8339844 6.4086952-.6419067 11.2436562 1.1815519 27.3726196 19.740036 52.3416214 48.5731812 60.2001953 6.9572754 1.8330078 14.7436523 2.7050781 22.97229 1.921875 8.211731-.7753906 16.8492432-3.2348633 25.0544434-7.7700195 8.9899292-4.8920898 18.1172485-12.9487305 24.4881592-23.9501953 6.3880539-10.9291992 9.8204269-24.7299805 8.5078659-38.7036171-3.18283-35.773491-35.5872032-63.5060873-72.2856361-59.2861327z"/><path d="m47.1592789 88.5696106h.0298462c.199646.2143555.479248.4697266.8643799.7792969.5151367.409668 1.2584229.8354492 2.2424927 1.4057617 1.0166626.4931641 2.293457 1.0976563 3.9599609 1.6308594.8260498.2890625 1.7635498.4926758 2.7825928.762207.1639404.027832.3341675.0600586.5026245.0913086-.7034302 2.7128906-1.1930542 8.1689453-1.1928101 11.1416016.0007324 7.4057617.9123535 7.5605469 2.0368652 7.5600586 1.1247559 0 2.036377-.1547852 2.0356445-7.5605469-.0002441-2.8642578-.4557495-8.0327148-1.1186523-10.8334961.3693848.0556641.7457886.1054688 1.1383667.1357422 2.4765625.269043 5.40448.3232422 8.7454224-.1796875 2.1504517-.3251953 4.477478-.8886719 6.9086914-1.7827148-.1141357.7172852-.2106323 1.5634766-.2973022 2.4702148-.2313232 2.5024414-.4146118 5.4433594-.4365845 7.3125-.0369263 3.4111328.0654907 5.1601563.3895874 6.0751953.3126221.9135742.8181152.9863281 1.3791504 1.0229492.5611572.0371094 1.071228.0375977 1.4955444-.8535156.4125366-.8901367.7697754-2.6782227.8081055-6.2084961.0228882-1.934082-.2518921-4.9775391-.7600708-7.5-.2341919-1.1811523-.513855-2.2358398-.8016968-3.0302734.7651367-.3276367 1.5363159-.6801758 2.3163452-1.0795898.543335-.2597656 1.067749-.6020508 1.6283569-.9169922.5570679-.3144531 1.12854-.6625977 1.7006226-1.0634766 1.1414795-.7910156 2.2915039-1.7182617 3.3826904-2.8286133 1.0847778-1.1137695 2.1085205-2.4306641 2.9002686-3.9882813.7740479-1.5634766 1.2883911-3.3920898 1.2422485-5.2924805-.0284424-1.9023438-.6185913-3.7739258-1.5743408-5.3618164-.9441528-1.6040039-2.2528076-2.9345703-3.7370605-3.9775391-3.048645-2.074707-6.5366211-2.6835976-9.6414185-2.8501015-.0150146-.0004883-.0293579-.0004883-.0443726-.0009766 1.7196655-.7558594 3.5164185-1.6396484 5.3973389-2.7055664.9492188-.5703125 1.9185181-1.1201172 3.005127-1.8676758 1.0689697-.7529297 2.3508911-1.7749023 3.1904907-3.3862305.8325806-1.5839844 1.0494385-3.4453125.7575684-5.1542969-.2963257-1.7158203-1.0298462-3.3457031-2.2092285-4.7260742-1.1654053-1.3442383-2.6195068-2.3110352-4.111145-3.0097656-1.494751-.6992188-3.0220947-1.1464844-4.5028076-1.5087891-.6687012-.1616211-1.338501-.3056641-2.0078125-.4414063.2386475-.9360352.3173828-2.5629883.1419067-5.4155273-.2175903-3.5375977-1.5944824-11.0737305-2.7171021-11.0048828-1.1224365.0693359-1.5653687 7.7172852-1.3477173 11.2548828.1346436 2.1889648.3303223 3.6328125.5724487 4.5981445-1.1481934-.1616211-2.2893066-.2973633-3.4081421-.3876953-3.3618774-.2753906-6.5270386-.2026367-9.3114014.0493164.4170532-.8320313.5950317-2.6860352.3040161-6.9169922-.2763062-4.0161133-1.7786255-12.5727539-2.9006958-12.4956055-1.1218872.0771484-1.4384766 8.7587891-1.1622314 12.7753906.3049316 4.4335938.7628174 6.2104492 1.324707 6.9116211-.987854.137207-1.9145508.2924805-2.7513428.4614258-3.6417236.7226563-5.7738647 1.5893555-5.7127686 1.8364258.0689697.2993164 2.3120728-.0395508 5.918335-.2646484 3.598877-.237793 8.5873413-.2983398 13.9712524.5048828 2.6885986.3969727 5.4736938.9892578 8.2085571 1.7958984 2.7038574.7807617 5.2213745 1.8989258 6.6159058 3.6679688.6651611.8325195 1.102478 1.8955078 1.2415771 2.9101563.1400757 1.0219727-.0366821 1.9658203-.4330444 2.6796875-.3779297.7133789-1.0994263 1.3398438-1.9707642 1.9306641-.8812256.5927734-1.8779297 1.1577148-2.7327881 1.6708984-6.4568481 3.6572266-11.8987427 5.269043-16.0092773 6.2143555-4.1299438.951664-7.0013428 1.2001991-8.9373169 1.4653358-1.9417725.2128906-2.9683838.3828125-3.5109863.6035156-.5432739.2246094-.600769.4902344-.6161499.7709961-.0154419.2807617.0073853.5493164.5447388.8125.5377808.2666016 1.5916748.5385742 3.6541748.6918945 2.0545044.0996094 5.1445313.1416016 9.6121826-.6669922 1.4194946-.2568359 3.0029297-.6118164 4.7061157-1.0839844 2.2123413-.015625 4.5671997.0600586 6.9933472.3012695 2.8359985.3120117 5.7429199 1.0751953 7.9017944 2.7177734 2.1557617 1.6386719 3.6155396 4.2080078 3.5359497 6.625-.0148315 2.4448242-1.4506226 4.7099609-3.2220459 6.4467773-.8918457.8720703-1.8615112 1.6342773-2.835144 2.2929688-.4823608.331543-.9810181.628418-1.4824829.90625-.498291.2744141-.9597168.5795898-1.4418335.8076172-3.4651489 1.7719727-6.7855225 2.7460938-9.744812 3.2456055-2.9661255.4985352-5.5745239.5258789-7.7960434.3823242-1.117836-.0332031-2.1266861-.2211914-3.0671768-.315918-.9217529-.1870117-1.7806396-.3017578-2.5410156-.4970703-1.5361938-.3447266-2.7425537-.7431641-3.7387085-1.0273438-.9614868-.3608398-1.7324219-.5737305-2.3061523-.7695313-.2481689-.0864258-.4621582-.1508789-.6557617-.203125.484436-1.8232422.8324585-5.9448242.9523926-15.2578125.1155396-8.9755898-.5480347-28.2495155-1.6726685-28.2636757-1.1244507-.0146484-2.2839966 19.2358398-2.3995361 28.2114296-.2108765 16.3798833.696228 16.7343754 1.8206787 16.7485356z"/></g></g></svg>