<svg id="Layer_1" enable-background="new 0 0 135 135" height="512" viewBox="0 0 135 135" width="512" xmlns="http://www.w3.org/2000/svg"><g><g><path d="m131.6977997 68.9694901c-.7900391 6.9697266-4.5800247 13.8798828-10.3500443 17.4399414l1.5700073-.8300781c-1.0200195 4.6499023-4.1099854 8.5800781-7.4199829 11.8798828-6.7000122 6.6801758-14.9199829 11.7402344-23.6799927 13.5400391-8.4899902 1.7402344-17.4899902.2099609-24.2600098-4.8999023-7.1900024 2.3500977-14.6300049 3.7099609-21.8599854 3.2299805h-.0100098c-2.2900391-.1499023-4.5599976-.4897461-6.7900391-1.0400391-10.7799664-2.6396484-20.4699688-10.9399414-23.0199585-22.5498047-.75-.2402344-1.4899902-.4902344-2.2200317-.7802734-2.4699707-.9599609-4.789978-2.2197266-6.5799561-4.2197266-2.1900013-2.470215-3.3300157-5.8100587-3.7499986-9.3100587-.1400146-1.1401367-.1900024-2.300293-.1900024-3.4501953.0299682-8.2700157 3.4199827-16.9599571 9.5999753-22.2099571.3900146-.3398438.7999878-.659668 1.210022-.9599609 6.9499521-5.1000977 16.9499512-5.0400391 22.3699951 1.1298828l-1.5599976-2.1796875c.6199951-1.3803711 1.3800049-2.7202148 2.2599487-4 1.9400024-2.8598633 4.4700317-5.4501953 7.3000488-7.6401367 3.6900024-2.8798828 7.9099731-5.0800781 12.0499878-6.3198242 6.3699951-1.8901367 13.0200195-2.9702148 19.6499634-2.7402344 2.1500244.0698242 4.3100586.2900391 6.4300537.6499023 4.4299927.75 8.75 2.1601563 12.6999512 4.2900391 5.1000366 2.7402344 8.3900146 6.5703125 12.3300171 10.6298828 1.0200195 1.050293 1.7600098.6601563 3.2700195.7304688 1.3599854.0595703 2.7199707.2695313 4.0299683.6196289.8200073.2202148 1.6199951.4902344 2.4000244.8300781 1.8200073.7402344 3.5200195 1.7700195 5.0200195 3.050293 1.8599854 1.5795898 3.4199829 3.5297852 4.7699585 5.6396484 3.5400458 5.5703124 5.5200263 12.4999999 4.7300483 19.470211z" fill="#00fff8"/></g><g><path d="m82.4477921 23.70924c-.7900391.7802734-1.8800049 1.3100586-3.2700195 1.3803711-9.1600342.4897461-17.960022 4.1899414-24.5999756 10.5600586-3.1900024 3.0595703-5.1500244 7.0698242-8.2400513 10.159668-2.8299561 2.840332-6.4499512 3.9301758-10.3399658 4.340332-4.3599834.4697266-8.1799908.4599609-11.9400005 3.0195313-3.3599854 2.2900391-5.9400024 5.6801758-7.6500244 9.340332-1.7099619 3.6498985-2.539979 7.5698204-2.8599863 11.5800743.1400146.9897461.3099976 1.9897461.5599976 2.9697266.3900146 1.590332.0599976 2.9399414-.6799927 3.9799805.0499878 1.3100586.1300049 2.6201172.2299805 3.9199219-2.4699707-.9599609-4.789978-2.2197266-6.5799561-4.2197266-2.1900026-2.470215-3.330017-5.8100587-3.7499999-9.3100587-.2200317-6.7299805 1.3099973-13.4399376 4.6999512-19.4199181 1.4000244-2.4599609 2.960022-4.5302734 4.710022-6.2402344.3900146-.3398438.7999878-.659668 1.210022-.9599609 6.9499521-5.1000977 16.9499512-5.0400391 22.3699951 1.1298828l-1.5599976-2.1796875c.6199951-1.3803711 1.3800049-2.7202148 2.2599487-4 1.75-.6201172 2.7900391-1.75 4.2800293-3.800293.9699707-1.3300781 1.960022-2.6098633 3.0200195-3.8398438 3.6900024-2.8798828 7.9099731-5.0800781 12.0499878-6.3198242 6.3699951-1.8901367 13.0200195-2.9702148 19.6499634-2.7402344 2.1500233.0698243 4.3100574.2900392 6.4300526.6499025z" fill="#97fff7"/></g><g><path d="m131.6977997 68.9694901c-.7900391 6.9697266-4.5800247 13.8798828-10.3500443 17.4399414l1.5700073-.8300781c-1.0200195 4.6499023-4.1099854 8.5800781-7.4199829 11.8798828-6.7000046 6.6801758-14.9199677 11.7402267-23.6799698 13.5400391-4.4770355.919838-9.1588058.9399948-13.6246567-.0579529-2.9407349-.6571732-6.1815262-1.9008865-8.734993-3.4907837-1.2804031-.7972336-2.7490158-1.664093-.8330765-2.2180481 2.1962814-.6350174 5.872467.3041763 8.2304382.2388992 10.564476-.2924423 21.2907333-3.0659943 29.78228-9.5717239 7.1399536-5.4702148 13.6299362-15.2802734 15.8599777-23.9604492 2.4799805-9.6196251-.7900391-19.7597618-4.8300171-28.4697227-.4199829-.9199219-.5599976-1.8198242-.4899902-2.6601563 1.8200073.7402344 3.5200195 1.7700195 5.0200195 3.050293 1.8599854 1.5795898 3.4199829 3.5297852 4.7699585 5.6396484 3.5400468 5.5703124 5.5200273 12.4999999 4.7300493 19.470211z" fill="#00efe3"/></g><g fill="#202020"><path d="m111.8782883 38.6562653c-1.9047852-.0249023-3.2822266.2402344-4.0128784.4951172-.0296631-.5283203-.4713745-1.5136719-1.9192505-3.5976563-10.0136719-11.7873478-25.7815323-16.1530914-40.7764893-13.550293-10.3673553 1.7224312-22.1983795 7.2633362-27.9835854 16.1435547-2.057251 3.152832-2.6297607 5.4335938-2.4352417 5.590332-.5973511-.5634766-1.3649292-1.1694336-2.3751831-1.7504883-1.5259399-.8833008-3.550354-1.6333008-5.8938599-1.918457-2.3348999-.28125-4.9882202-.1533203-7.6168213.6367188-10.3144712 3.0085487-16.7947425 14.0189361-17.6382438 24.612793-.3268433 3.7241211.0100708 7.0610352.8141479 9.9316406.8015137 2.8676758 2.1827395 5.2426758 3.8010867 6.9101563 1.6174316 1.6738281 3.2984009 2.6000977 4.6749268 3.2431641 1.3930054.6357422 2.5429077.9711914 3.4664307 1.2124023.7216187.1679688 1.3081665.2807617 1.7919922.3525391.0855713.8432617.3130484 2.0537109.7650747 3.53125 4.602869 14.4300537 21.5000076 25.366539 45.744751 19.0576172 2.3212929-.6435547 4.0902138-1.2675781 5.4591103-1.8232422.3061523.3056641.6998901.6547852 1.204895 1.0517578 10.6660309 8.0326538 30.3394165 7.0522995 46.0140991-8.8203125 3.2576294-3.2348633 5.8064575-6.7050781 6.984436-9.5556641.703064-1.6313477.9901733-2.953125 1.0683594-3.8032227.4707031-.1816406 1.0717163-.4951172 1.8391724-1.0322266 7.7665482-5.5159073 12.209404-19.0389023 6.3594284-31.9658203-3.5912782-8.2067795-10.4507066-14.8754883-19.3363572-14.9516601zm11.071167 44.758789c-.9473267 1.081543-1.4682617 1.6586914-1.6647339 2.0825195-.197937.425293-.0869141.6728516.0615234.9116211.1466675.2358398.3095093.4453125.7888794.4160156-.3579102.7231445-.8547974 1.7070313-1.5890503 2.8432617-1.5082397 2.418457-4.1732788 5.3432617-7.5432129 8.1870117-12.4980011 10.7380219-27.133934 15.3392334-42.402771 8.5385742 1.8804932-1.0507813 1.7947998-1.5253906 1.625-1.9672852-.2056274-.5371094-.5109863-.9228516-3.6278687-.203125-1.5599976.3476563-3.8295288.9609375-7.1969643 1.6865234-23.0023499 4.5835266-36.7337494-3.077713-43.3913574-16.0083008-.5705566-1.1435547-.9909058-2.1108398-1.3161011-2.8417969 1.1379395.0444336 1.2919922-.3017578 1.4039307-.6381836.1843872-.5546875.1066284-1.0302734-3.1407461-2.5175781-.7938843-.3881836-1.7796021-.8457031-2.8895874-1.5019531-1.1015625-.6611328-2.355896-1.5019531-3.4662476-2.7871094-1.104248-1.2714844-2.0985718-3.0600586-2.7122192-5.4233398-.6095581-2.3520508-.8956909-5.2524414-.6029663-8.5332031.7281275-9.2206459 5.6958523-18.9036217 14.4730825-22.2158203 2.2071533-.8461914 4.4909668-1.1464844 6.5485229-1.1040039 2.0653076.0463867 3.9067993.4902344 5.3740845 1.0727539 2.9759521 1.1577148 4.3790894 2.7758789 4.6350708 2.5234375.112854-.0644531-.3231812-1.0229492-1.5492554-2.1835938.2991333.097168 1.3491821-1.9355469 3.6824341-4.6459961 6.6208725-7.7016792 17.4656296-12.1216335 27.2821693-13.3920898 27.4944994-3.771694 39.892647 15.507805 41.8165895 14.0712892.0389404-.0288086.076416-.0595703.1124268-.0922852.6572876.121582 2.1102295.1694336 4.0566406.5410156 8.044899 1.4810982 13.0533295 7.2447853 16.036499 14.8237305 3.7255173 9.3840562 2.7136765 19.6408768-4.8037719 28.3579102z"/><path d="m59.2984505 71.930191c.1445313-6.4125977-.4567261-20.1943359-1.5811768-20.2197266-1.1242065-.0253906-2.3457642 13.715332-2.4902954 20.1279297-.2637329 11.7026367.6420898 11.9677734 1.7663574 11.9931641 1.1244507.0253907 2.0413819-.1987304 2.3051148-11.9013672z"/><path d="m87.4805832 69.2060699c-1.9941406-1.3413086-4.1862183-1.8916016-6.2441406-2.1157227.946167-.4516602 1.9116821-.9394531 2.914978-1.5083008.7485962-.449707 1.4992676-.8754883 2.3670654-1.4736328.8532104-.6040039 1.9124146-1.4428711 2.6166382-2.7954102.6959229-1.3286133.8689575-2.8779297.6251831-4.2832031-.2479248-1.4121094-.8512573-2.7426758-1.8255615-3.8769531-.9589233-1.0986328-2.1416626-1.8745117-3.3406982-2.4296875-1.201416-.5551758-2.4144897-.9013672-3.579834-1.1782227-.4430542-.1040039-.8866577-.1938477-1.3300171-.2827148.0634155-.7768555.0059204-1.8935547-.2262573-3.5292969-.3872681-2.7290039-2.1209106-8.4570313-3.2344971-8.2988281-1.1133423.1577148-1.1848755 6.1420898-.7976074 8.8710938.1364136.9614258.2809448 1.7324219.4329834 2.355957-.5795898-.0644531-1.1548462-.1176758-1.7234497-.1582031-2.0457153-.1489258-3.9927979-.1293945-5.7827148-.0097656.2543945-.8198242.3444824-2.2631836.166626-4.8486328-.2148438-3.1235352-1.5853271-9.7631836-2.7074585-9.6860352-1.1218262.0771484-1.5703125 6.8422852-1.3554688 9.965332.1859131 2.7026367.4910278 4.1274414.8789673 4.8798828-.9192505.1318359-1.7720375.2851563-2.5314369.453125-2.8358154.6171875-4.4815063 1.3500977-4.4194946 1.6030273.1116333.5942383 7.0884438-.8442383 15.430851.5048828 2.0730591.3276367 4.2181396.8032227 6.3210449 1.440918 2.0792847.6147461 3.9469604 1.4868164 4.9224243 2.7578125.460083.5864258.7672119 1.3500977.8578491 2.0610352.0921021.7182617-.0408936 1.3505859-.3005981 1.8085938-.2425537.4545898-.741333.8979492-1.3969116 1.3393555-.6624146.4438477-1.4404907.8847656-2.0947266 1.277832-4.9667969 2.8129883-9.1473999 4.0649414-12.3067017 4.815918-3.1738892.7558594-5.3824463.9819336-6.8746986 1.2280273-1.496582.206543-2.2918091.3876953-2.7142944.6137695-.4231567.2285156-.4716797.4946289-.4870605.7753906-.0154419.2807617-.0015259.5493164.4156494.8081055.4176636.2612305 1.2402344.5219727 2.8574219.6816406 1.6108437.1181641 4.0379677.1831055 7.5496254-.4296875 1.2694092-.2216797 2.6942749-.5332031 4.2505493-.9833984 1.5167847.0244141 3.111084.1074219 4.7377319.284668 2.175415.2592773 4.3712769.8701172 5.9510498 2.0991211 3.8326569 2.968895 4.1613159 7.9297485-4.2236328 12.5742188-5.3260498 2.7006836-10.0319824 2.9980469-13.3947144 2.8071289-3.416748-.1796875-5.6482582-.9130859-7.1795692-1.3100586-1.5122681-.4731445-2.3366699-.7070313-2.8386841-.7158203-.505249-.0043945-.6782837.2050781-.824707.4453125-.1463623.2397461-.2608032.4829102.0236816.9228516.2836914.4438477.9597168 1.1049805 2.5153809 1.9985352 1.2095947.625 2.9654541 1.4482422 5.4991493 1.9936523-.4990845 1.9599609-.7218628 5.2226563-.6139526 7.0537109.2923584 4.9619141 1.2085571 5.012207 2.3311157 4.9462891 1.1228027-.0664063 2.0267334-.2236328 1.734375-5.1860352-.0991211-1.6821289-.6171875-4.5336914-1.2634277-6.4501953.0993652.012207.1887207.0288086.289978.0400391 1.9541626.2231445 4.2664795.2744141 6.906189-.1171875 10.8675461-1.6202698 21.2144547-10.0351715 16.0474854-18.5405273-.7710574-1.2973634-1.831055-2.3652345-3.0316775-3.1997072z"/><path d="m80.1542282 89.9751129c-.5602417.0683594-.9052124 1.4238281-1.1513062 3.0375977-.2406616 1.6162109-.3974609 3.4975586-.3856812 4.690918.0025024 4.3466797.8034668 4.4902344 1.9552612 4.5454102 1.0930786.0541992 2.1188965.0141602 2.1168823-4.5976563-.0122681-1.2612305-.315979-3.2397461-.8153076-4.8603516-.4941405-1.6245117-1.1638793-2.8837891-1.7198485-2.815918z"/></g></g></svg>