<svg id="Layer_1" enable-background="new 0 0 135 135" height="512" viewBox="0 0 135 135" width="512" xmlns="http://www.w3.org/2000/svg"><g><g><path d="m102.895195 90.935051c-1.5900269 2.7197266-4.4899902 4.7397461-8.1000366 6.2397461-10.3299561 4.2700195-26.4799805 4.2099609-34.6099892 3.6503906-6.9799805-.4804688-22.9199829-1.4599609-26.9500122-7.340332-2.0100098-2.949707-2.2199707-6.5698242-2.3399658-10.0297852-.210022-5.9902344-.3099976-11.9902344-.2900391-17.9902344.0100098-6.4199181.1600342-12.8398399.4200439-19.2597618.4099731-9.6899414 2.2199707-16.6401367 13.8299561-17.5600586 12.0500488-.9599609 24.1900063-.7797852 36.239994.0498047 1.8700562.1303711 3.6500244.2700195 5.3200073.4599609 9.5100098 1.0800781 15.6300049 3.6899414 17.1400146 14.300293 1.1799927 8.2700195 1.5900269 16.6201172 1.460022 24.9497032-.1000365 6.3701172 1.2699586 16.7402344-2.119995 22.5302735z" fill="#f9e606"/></g><g><path d="m84.9158249 87.3736038c-6.5917282 2.9317856-16.9067535 2.8936768-22.093998 2.5092392-4.4571648-.3303223-14.6361198-1.0023193-17.2076378-5.0433502-1.2859573-2.0227661-1.42173-4.5111465-1.4984474-6.8820038-.2757835-8.5223846-.2470512-17.0539169.0861244-25.5745544.2603416-6.6578369 1.4205208-11.4266701 8.8323326-12.0613136 7.691185-.6585617 15.4401207-.5352936 23.1325722.0378342 8.0032501.5962791 13.2159653 1.5651474 14.3448257 10.129982.7485733 5.6795044 1.0123825 11.4121056.9311829 17.1345863-.0619888 4.3682861.8096008 11.4909897-1.3531342 15.4667435-1.0153503 1.8665084-2.8664931 3.2566146-5.1738204 4.2828368z" fill="#fff200"/></g><g><path d="m86.4151535 29.1547813c-.7299805.5800781-1.6599731.9604492-2.789978 1.0400391-11.3300171.8203125-24.2600136.1801758-34.8100014 4.9399414-9.5 4.2802734-17.0700073 13.7900391-15.2700195 24.6904297.4400024 2.659668-1.0199585 4.6796837-2.9400024 5.6396446.0100098-6.4199181.1600342-12.8398399.4200439-19.2597618.4099731-9.6899414 2.2199707-16.6401367 13.8299561-17.5600586 12.0500488-.9599609 24.1900063-.7797852 36.239994.0498047 1.8700561.1303711 3.6500244.2700195 5.3200073.4599609z" fill="#fff597"/></g><g fill="#202020"><path d="m79.6190796 66.1057129c-.6630249-.8447266-1.4726563-1.5063477-2.364502-1.9970703-.6652222-.3564453-1.3378296-.6088867-2.0037231-.7890625.4824219-.2646484.9511719-.5151367 1.5318604-.8886719.6038208-.4047852 1.4560547-1.0097656 2.0185547-2.1455078.5464478-1.1123047.5415649-2.375.229126-3.4052734-.3081055-1.0380859-.9179688-1.9697266-1.7269287-2.6733398-1.5734863-1.3432617-3.3756104-1.7646484-4.8971558-2.0698242-.0616455-.0117188-.1228027-.0170898-.1844482-.0283203.020752-.4560547-.0318604-1.0458984-.1795654-1.8178711-.3189087-1.6669922-1.8987427-5.0727539-3.003418-4.8613281-1.1044922.2114258-1.3154907 3.9594727-.996582 5.6264648.0390625.2041016.0797729.3916016.1217041.5683594-.109436-.0058594-.2238159-.0219727-.3324585-.0268555-1.0925293-.046875-2.1429443-.0288086-3.1281738.034668.1390991-.5478516.1657104-1.3613281.0274658-2.5986328-.8017921-7.1750107-4.9962044-8.0393257-4.0473022.4521484.1429443 1.2788086.3573608 2.0810547.6262207 2.581543-.3357544.0664063-.659729.1357422-.956543.2099609-1.8632202.4589844-2.9329834 1.0004883-2.8759155 1.2626953.1141968.5703125 4.6870728-.0410156 10.0543823.921875 1.3374023.234375 2.7176514.5532227 4.0774536.956543 1.3582153.3891602 2.5445557.8989258 3.1573486 1.5537109.2744141.2807617.4460449.6259766.5144653.9423828.0663452.3183594.0071411.5185547-.0510864.5927734-.0327148.0615234-.2318726.2705078-.6348877.5136719-.4028931.2475586-.9266357.5224609-1.3459473.7529297-3.220459 1.6777344-5.9089966 2.4116211-7.9384155 2.8779297-2.038269.4692383-3.4549561.6499023-4.4172974.8637695-.9569702.1811523-1.4711914.3833008-1.7515869.6113281-.2843628-4.2089844-1.1469727-10.0825195-2.0889893-10.0708008-1.1244507.0136719-1.9327393 8.4204102-1.8846436 12.3325195.0877686 7.1391602 1.0011597 7.2773438 2.1256104 7.2631836 1.1246338-.0136719 2.0343628-.1743164 1.9465942-7.3134766-.0018921-.1547852-.0078735-.3276367-.0127563-.4956055.3066406.2070313.8180542.3974609 1.7080078.5522461 1.0671997.1523438 2.6786499.2661133 5.0306396-.0483398 1.0795898-.1450195 2.333252-.3837891 3.7285156-.7807617.6726074.0488281 1.3642578.1142578 2.069397.203125 1.3931274.1889648 2.7701416.5654297 3.7619019 1.2407227.9932861.6591797 1.6536865 1.7314453 1.6375732 2.5024414.0331421.7578125-.4954224 1.5966797-1.3381348 2.3286133-.8139038.730957-1.8484497 1.2612305-2.769104 1.6962891-3.3912964 1.5336914-6.3630371 1.6503906-8.4942627 1.5546875-2.1642456-.1015625-3.6021118-.4716797-4.6080933-.6416016-.9963379-.2089844-1.5645752-.2695313-1.928833-.1845703-.3659058.0859375-.5193481.3081055-.6558228.5537109-.1364746.2460938-.2508545.4882813-.0910034.8442383.1602783.3574219.5906372.8461914 1.621521 1.4663086.7529907.418457 1.8354492.9350586 3.369751 1.3237305-.4631958 1.3955078-.7263184 3.3823242-.6831665 4.5498047.1298828 3.5141602 1.0435791 3.5537109 2.1673584 3.512207 1.1239624-.0415039 2.0322266-.1484375 1.9024048-3.6625977-.0377808-1.0219727-.3566895-2.652832-.8143311-3.9550781 1.1638794.121582 2.487915.1474609 3.9898071-.0175781 1.0153809-.1083984 2.1160278-.3266602 3.2669678-.6635742-.1765137.3432617-.3213501.7773438-.4393311 1.2436523-.2476196.9975586-.3876953 2.1313477-.3535156 2.8442383.0978394 2.5942383.9400024 2.6748047 2.0830078 2.6928711 1.1039429.019043 2.0921021-.0175781 1.9842529-2.9003906-.0375366-.7866211-.3624268-2.0087891-.8548584-2.9829102-.296936-.59375-.6500854-1.090332-1.0053711-1.3701172.413269-.15625.8280029-.3164063 1.2518311-.5102539 1.149353-.5478516 2.4888306-1.2446289 3.7650146-2.4599609.6335449-.5976563 1.2524414-1.3388672 1.7349854-2.2729492.4781494-.9379883.7645874-2.1098633.6386719-3.2973633-.1232299-1.1875001-.6313475-2.2519532-1.2842406-3.0976563z"/><path d="m72.7175903 101.895752c-1.6169052 4.9442139-.1623306 29.4794922 1.3330078 29.4794922 1.5136871 0 2.9803696-25.1261368 1.2717896-29.6542969.5585938-.0439453 1.1167603-.0878906 1.6549072-.1391602 3.3300171-.3120117 6.2556763-.7788086 8.7311401-1.3037109-1.0964432 4.0670776.2063904 16.6401367 1.6196289 16.6401367 1.5012512 0 2.9167404-14.3735046 1.3549805-17.3535156.5507813-.1494141 1.0789185-.2998047 1.557251-.4506836 3.0484619-.9672852 4.5992432-1.8427734 4.5534668-1.9404297-.0654297-.159668-1.706604.4526367-4.7664185 1.1479492-3.4356995.7719574-8.0725479 1.4214706-13.1661987 1.6791992-11.4172211.5869827-24.2765121-.6996841-31.1700439-2.1245117-1.9456787-.4121094-3.8947754-.9306641-5.7684326-1.6235352-4.2246742-1.5857697-6.3697395-3.3691406-7.1155396-8.0351563-.3347168-2.0014648-.3425293-4.1796875-.3986206-6.4243164-.0986328-4.4604492-.1411743-8.9814453-.1187134-13.519043.0212326-5.059864.2777443-21.9361153 1.0216675-26.90625.305603-2.0771484.8320313-4.0424805 1.7362061-5.6484375.9015503-1.6044922 2.1640015-2.8466797 3.8070068-3.6240234 1.6196289-.8041992 3.5101318-1.2231445 5.4349976-1.4013672 1.9484253-.2060547 4.0518188-.3056641 6.0197754-.4101563 7.9671631-.3945313 15.3685913-.2949219 21.8364258-.0405273 2.9514771.1181641 5.8123779.277832 8.5846558.4672852 4.5717621.3153915 10.6177292.7357712 14.5679932 2.734375 3.7280884 1.8535614 5.5539169 5.4913902 6.1819458 9.6088867.3518677 1.9833984.5809937 4.0664063.7993164 5.9902344.9257736 8.5922356 1.9056396 33.8706818.2772217 39.1518555-1.1752243 3.764267-3.3121719 5.2782135-6.4758301 7.5244141-1.3585205.9208984-1.4038696 1.1826172-1.2874146 1.453125.1050415.2451172.3268433.4936523 1.9887085-.0317383 3.8337326-1.3119202 6.9800034-3.9518967 8.4959106-8.0039063.1680298-.4501953.3167725-.9228516.454895-1.4077148 1.0374146.3608398 3.0437622.5839844 6.9382324.5839844 4.3189087 0 13.5875854-.9116211 13.5875854-2.0366211 0-1.1245117-9.2686768-2.0361328-13.5875854-2.0361328-3.206665 0-5.1224365.152832-6.28302.4072266.3481445-2.2578125.4954834-4.7861328.4986572-7.5849609.0036011-.5166016-.0010376-1.0478516-.006958-1.5839844.666626.2006836 1.6848145.3183594 3.2608032.3183594 2.4185791 0 7.6090088-.9116211 7.6090088-2.0361328s-5.1904297-2.0361328-7.6090088-2.0361328c-1.6169434 0-2.6499023.1230469-3.3148804.3334961-.0149536-.9282227-.0266113-1.8696289-.0206299-2.8359375.0411377-1.9570313.0742798-4.1083984.0618896-6.378418 1.3733521.2729492 3.704895.4370117 7.7023315.4370117 5.1827393 0 16.3051147-.9116211 16.3051147-2.0361328s-11.1223755-2.0361328-16.3051147-2.0361328c-4.0430298 0-6.3852539.1674805-7.7519531.4462891-.0845947-3.3945313-.2832642-7.0595703-.6689453-11.0097656-.0817871-.7851563-.1644287-1.5732422-.253418-2.3696289 1.0479736.4082031 3.2156372.6655273 7.7456665.6655273 4.6837158 0 14.7351685-.9116211 14.7351685-2.0366211 0-1.1245117-10.0514526-2.0361328-14.7351685-2.0361328-5.0675049 0-7.1832275.3217773-8.0744019.8168945-.0615845-.4262695-.1240845-.8540039-.197998-1.2949219-1.4436798-9.6997757-7.225975-13.4337273-16.0963745-14.8833008-.2753906-.0439453-.5534058-.0776367-.8297729-.1176758.2220459-1.1630859.3521118-3.0058594.3521118-5.9311523 0-4.2485352-.9116211-13.3662109-2.036377-13.3662109-1.1245117 0-2.0361328 9.1176758-2.0361328 13.3662109 0 2.609375.1050415 4.3447266.2849121 5.5175781-1.3203125-.1269531-2.6519165-.2285156-3.9981079-.3237305-2.1830444-.1518555-4.4398193-.2768555-6.7362671-.3852539.1693726-.6557617.2674561-1.6137695.2674561-3.0283203 0-2.3789063-.9116211-7.4848633-2.036377-7.4848633-1.1245117 0-2.0361328 5.105957-2.0361328 7.4848633 0 1.3100586.0841675 2.2280273.230896 2.878418-3.2911987-.1108398-6.8054199-.168457-10.5023193-.1367188.3515015-1.1469727.5686646-3.3310547.5686646-7.5205078 0-4.715332-.9116211-14.8359375-2.036377-14.8359375-1.1245117 0-2.0361328 10.1206055-2.0361328 14.8359375 0 4.2407227.2220459 6.4296875.5811157 7.5654297-2.3327026.0507813-4.7218018.1352539-7.1731567.2734375-.7504883.0454102-1.4954224.090332-2.2435913.1381836.102478-.765625.1592407-1.7783203.1592407-3.1186523 0-2.9453125-.9116211-9.2670898-2.036377-9.2670898-1.1245117 0-2.0361328 6.3217773-2.0361328 9.2670898 0 1.5341797.0762939 2.628418.2084961 3.4248047-.098938.0107422-.1934204.0180664-.2931519.0292969-2.2089233.2314453-4.5282593.7260742-6.7509766 1.847168-2.237793 1.0693359-4.2142334 3.0126953-5.4078979 5.2480469-1.218811 2.2387695-1.7824097 4.6445313-2.1031494 6.96875-.1572266 1.140625-.2554321 2.2827148-.3239136 3.4150391-1.104187-.3183594-3.1049805-.5136719-6.7711182-.5136719-4.3601074 0-13.7171631.9116211-13.7171631 2.0366211 0 1.1245117 9.3570557 2.0361328 13.7171631 2.0361328 3.5164185 0 5.5080566-.1782227 6.6395264-.4741211-.0042114.1342773-.0095825.2705078-.0136719.4042969-.0568237 2.2646484-.1139526 4.5405273-.1712646 6.8222656-.0298462 1.6669922-.0410767 3.3388672-.0531616 5.0097656-.6369019-.2905273-1.7512817-.4648438-3.7007446-.4648438-2.4416504 0-7.6816406.9116211-7.6816406 2.0361328s5.2399902 2.0361328 7.6816406 2.0361328c1.9365234 0 3.0477295-.1723633 3.6867065-.4594727-.0007935 1.855957.001709 3.7119141.0236816 5.5644531.0063477.5688477.0233765 1.1333008.0318604 1.7016602-1.2689819-.3535156-3.6937256-.5722656-8.3588257-.5722656-5.2321777 0-16.4606323.9116211-16.4606323 2.0366211 0 1.1245117 11.2284546 2.0361328 16.4606323 2.0361328 4.7271729 0 7.1587524-.2241211 8.4133911-.5859375.0645752 3.0141602.1473999 6.0180664.2682495 8.9897461.0283813.6235352.0535278 1.253418.0819092 1.8867188-.7998047-.2744141-2.1617432-.4399414-4.5020752-.4399414-3.0230103 0-9.5105591.9116211-9.5105591 2.0366211 0 1.1245117 6.4875488 2.0361328 9.5105591 2.0361328 2.5748291 0 3.9645386-.2001953 4.7235718-.5263672.0679932.6162109.1526489 1.2363281.2683716 1.8608398 1.1298294 5.7698517 3.7633247 8.1392136 9.1467285 10.0800781 1.9871826.6835938 3.9668579 1.1611328 5.9180908 1.534668-.244873 1.4077148-.3911133 3.7001953-.3911133 7.4819336 0 5.2055664.9116211 16.3764648 2.036377 16.3764648 1.1245117 0 2.0361328-11.1708984 2.0361328-16.3764648 0-3.3276367-.1137695-5.4970703-.3074341-6.9331055 3.5374489.4917374 7.1655769.7584457 10.7766724.956543-.8515282 3.7799911.407608 12.9663086 1.7491455 12.9663086 1.2949829 0 2.5876083-8.7969971 1.7841797-12.8144531 3.602234.1015624 6.9979859.0478514 10.1295777-.1220704z"/><path d="m91.4544678 46.0808105c-.630188-1.6508789-1.7475586-3.3837891-3.3786621-4.6235352-5.9643784-4.5596275-29.2061501-3.80196-35.7319336-3.0361328-6.1087494.6990929-8.9483604 4.1805878-9.7213745 10.1586914-.5000267 3.9438972-1.2094193 31.6477737 1.4480591 36.4643555.098877.1879883.2185669.3676758.3282471.550293l.4301147.5454102c4.5911484 6.2863998 29.2676163 5.5299454 37.1365356 2.7128906 2.0079346-.7182617 3.0022583-1.3735352 2.9503174-1.4794922-.0662231-.1484375-1.1568604.2456055-3.1756592.6899414-8.7180099 1.9235077-22.1378784.9939575-29.1137085-.8413086-1.61409-.4458389-3.792057-1.1853714-5.0411987-2.296875-.1983032-.1855469-.4196777-.3618164-.5404663-.5693359l-.2279663-.2929688c-.0670776-.1264648-.1444702-.2446289-.2062378-.3754883-1.8656731-3.5872116-.7608986-31.2091141-.2692261-34.605957.6274338-4.3812981 2.308197-6.3448753 6.4559937-6.7416992 5.4981575-.5923882 28.3461761-1.106884 32.8463135 2.3256836.9655762.7368164 1.6356201 1.7207031 2.1018066 2.8857422 1.5024567 3.4621773 3.4786758 31.3676758.7503662 35.628418-.348877.5629883-.7515869 1.0117188-1.1172485 1.3920898-.7459717.7543945-1.3638916 1.2236328-1.765625 1.5800781-.8240356.699707-.8190308.9584961-.6971436 1.2216797.1134644.246582.2966919.4946289 1.4424438.1777344.5679321-.1728516 1.3907471-.4785156 2.4783325-1.2304688.5366821-.3833008 1.1478271-.8779297 1.7400513-1.5981445 4.0726776-4.8016815 3.2477417-32.8730926.8778687-38.6416016z"/></g></g></svg>