<svg id="Layer_1" enable-background="new 0 0 135 135" height="512" viewBox="0 0 135 135" width="512" xmlns="http://www.w3.org/2000/svg"><g><g><path d="m130.621521 74.1878433v.079834c.1099854 6.7600098-.7700195 13.1901855-2.8300858 18.6799316-2.4099121 6.4501953-6.0899658 12.420166-10.7199707 17.6101074-3.6799316 4.170166-7.9799805 7.8500977-12.7099609 10.8898926-7.0300293 4.5400391-15 7.6701736-23.3500977 8.9502029-13.8099365 2.119873-28.2598877-.6101074-40.5698242-7.0400467-1.3000488-.6801758-2.5700684-1.3999023-3.8000488-2.1699219-19.4000225-11.9001464-30.9699688-33.580078-32.1900616-55.1000975-.4200439-7.3200645.3599854-14.629879 2.460083-21.5200157 2.7999268-9.3300781 8-17.9199238 15.8299561-24.7500019 3.7299805-3.2900391 8.0599365-6.1699219 13.0198956-8.5500488 16.920166-8.1298828 37.4101563-8.0300293 54.9001465-1.0700684 2.6999512 1.0700684 5.3299561 2.3100586 7.8598633 3.7102051 5.3400879 2.9399414 10.3200684 6.5500488 14.3601074 11.0300293 2.3000488 2.5400391 4.4299316 5.5 6.3599854 8.7500019 2.9200439 4.9099121 5.3800049 10.5 7.25 16.369873 2.519905 7.8601074 4.0000075 16.2199669 4.1300124 24.1301231z" fill="#97e4fc"/></g><g><path d="m90.5750198 9.3183184c.4799728.4167576.6229324.9072342.0688324 1.4696732-.3694229.3749046-.9149551.5032806-1.430603.608798-6.7194061 1.3749952-13.6361694 1.6729765-20.3062592 3.2701321-10.1212616 2.4235401-19.4941711 7.886343-26.5914841 15.4982853s-11.8917064 17.3437156-13.6019668 27.6096076c-.3663502 2.1990318-.6131725 4.4789162-1.6739349 6.4397163-1.6648598 3.0774612-3.8803501 3.2287064-6.818634 2.5353622-3.5081902-.8278122-7.2031393-1.012619-10.740202-1.8303986-3.4514136-.797966-7.4480033-2.1617889-6.7692871-6.421833.8399658-5.1499023 2.2700195-10.1298828 4.2000732-14.9099121 2.9799805-7.3798828 7.1699219-14.2600117 12.2299805-20.5200214 1.1398926-1.3999023 2.3299561-2.8200684 3.5999756-4.2299805 3.7299747-3.2900343 8.0599251-6.1699142 13.0198765-8.5500393 8.8688278-4.2558708 18.7243538-6.2528009 28.5411339-6.198535 4.9986877.0276318 9.9939728.5823135 14.8798676 1.6369467 2.442215.5271592 4.8575058 1.1794772 7.2325211 1.9551868.6283339.2052213 3.1461867.756631 4.1601103 1.6370117z" fill="#bbf2ff"/></g><g><path d="m50.3649559 42.3104401c-8.2848358 4.5858231-16.669342 9.243866-23.5285606 15.7722206" fill="none"/></g><g><path d="m130.4215698 74.6377945c.0699463-.1201172.1298828-.25.1999512-.3701172.1099854 6.7600098-.7700195 13.1901855-2.8300858 18.6799316-2.4099121 6.4501953-6.0899658 12.420166-10.7199707 17.6101074-4 3.9099121-8.2700195 7.5-12.7099609 10.8898926-7.0300293 4.5400391-15 7.6701736-23.3500977 8.9502029-13.8099365 2.119873-28.2598877-.6101074-40.5698242-7.0400467-1.3000488-.6801758-2.5700684-1.3999023-3.8000488-2.1699219 3.3898926-.4702148 6.75-1.1101074 10.0899658-1.9702148 11.2999268-2.9099121 21.8699951-7.9799805 31.6500244-14.2900391 18.9099121-12.2099609 37.9099121-29.3398438 44.6199951-51.4999962.5899658-1.9399414 1.9499512-3.0097656 3.4899902-3.369873 2.5199051 7.8601074 4.0000076 16.2199669 4.1300125 24.1301231-.0700683.1499025-.1300048.2998048-.1999511.4499513z" fill="#70d8ef"/></g><path d="m2.6995902 65.9151459c.1025391 1.7687988.3258057 3.5263672.5211182 5.2792969 4.9645581 31.7309189 26.4368057 53.2433548 53.7012939 59.3347168 31.8001823 6.9746857 61.0862923-10.1079559 71.7650146-35.8273926 5.7025909-13.3910446 4.1187134-30.3662949-.3041992-44.4069824-3.0422287-9.1169434-5.7202072-13.4082031-7.110466-15.5710449-1.4692383-2.1364746-1.7883301-2.1584473-2.0307617-2.0163574s-.3770752.4511719.6369629 2.7714844c.9376221 2.3444824 3.1461182 6.7077637 5.7454834 15.6416016.1949463.7150879.3912354 1.4714355.586792 2.2473145-.3616943.1303711-.8120117.3222656-1.3796387.5959473-1.028511.5680504-9.5061646 4.2883301-18.0378418 6.7883301-1.1937256-8.9851074-3.2202148-18.552002-6.1265869-26.9731445-.1339111-.3901367-.2781982-.7641602-.4161377-1.1486816 4.2489014-1.6765156 7.0950928-3.2116718 8.9586182-4.4982929 2.0478516-1.3969727 2.9396973-2.4743652 3.2687988-3.1437988.1160889-.244873.1507568-.4123535.1572266-.5534668.7647705.8134766 1.4698486 1.6049805 2.0769043 2.3405762 3.024292 3.7106934 4.3806152 6.026125 4.5294189 5.9321308.0579834-.0344238-.2148438-.6474609-.8376465-1.7600117-.6264648-1.1096191-1.6033936-2.7211914-3.0454102-4.6779785-6.7680664-9.1894112-17.7374878-15.7732477-28.4051514-19.4179688-10.7598013-3.7075847-22.5908712-4.9054721-34.1153654-3.15918-14.3821373 2.2095175-26.5770225 8.7563743-35.2010479 17.9562988-1.2648926 1.2241211-2.2922363 2.6657715-3.4295654 4.0185547-.5810547.6689453-1.0247803 1.4406738-1.5443115 2.1584473-6.3266535 9.4986286-10.5876272 19.4428806-9.9635015 38.0896015zm4.1551514 4.7595215c-.1966553-1.6601563-.4249268-3.3259277-.5362549-5.0014648-.0192871-.4765625-.045166-.9533691-.0712891-1.4306641 9.4047356 3.5255661 20.0693016 5.8125458 29.5170879 6.8774414.3791504 5.112793 1.0639648 9.8200684 1.8486328 13.7785645.9488525 4.769043 2.1071777 9.0036621 3.3349609 12.7739258-6.903553 3.0615158-12.7729702 6.7922974-16.5078106 9.8867188-9.7248062-10.490471-15.2498497-22.8112947-17.585327-36.8845216zm52.7803941-31.5795899c3.9150391.1435547 7.6909218.0563965 11.1508827-.1677246.9398651 9.0399132 1.9408188 19.3925285 2.5859375 28.4516602-11.6786041 1.3816528-25.9697227 1.5349274-33.8566933.9929199-.1763916-2.5444336-.2862549-5.1682129-.2833252-7.8566895.0010986-4.4465332.2399902-9.0280762.7233887-13.5541992.3835449-3.4868164.9321289-6.9311523 1.5853271-10.2602539 5.7869873 1.3520508 12.0869141 2.130127 18.0944825 2.3942871zm43.064579 56.465332c-.03125.1760254-.0643311.3352051-.0958252.5092773-7.2772598-2.7388306-15.2204208-4.5505676-23.9439697-5.1486816-.6929626-28.2174454-7.3287964-16.0238647 24.817627-25.1728516.8097152 9.7456742.7935256 20.159546-.7778321 29.8122559zm-28.3612061-11.7263183c.1091309 2.4301758.1931152 4.7248535.2590332 6.90625-10.639492-.2228775-20.2258644 1.6572037-29.9218788 5.3908691-1.1166992-3.5698242-2.1799316-7.5603027-3.0693359-12.03125-.7172852-3.6237793-1.3822021-7.8928223-1.8272705-12.5280762 7.5290794.8654099 21.037178 1.1701889 33.8621864-.1870117.2941894 4.583252.5168457 8.8256836.6972656 12.4492188zm-49.2342548 24.4238281c5.3703136-2.9920044 9.9210949-5.4692535 16.709837-8.0270996.0368652.1049805.0734863.2145996.1104736.3186035 4.1008263 11.3634796 8.9250412 19.7305756 13.4266357 25.3999023-11.9455833-3.150444-22.012928-9.0673904-30.2469463-17.6914062zm33.7392559 18.4973145c-2.6262245-4.9502792-8.070137-12.9146271-13.1505127-27.5163574-.0373535-.1086426-.0742188-.2231445-.1114502-.3325195 9.6175575-3.1410675 18.7645836-4.6172867 29.1182899-4.1865234.3426361 16.2220764-.4335251 29.3066177-.1166992 33.28125-5.0581055.2448729-10.355957-.1533204-15.7396278-1.2458497zm17.8919716 1.1149902c1.7865143-8.0437698 2.0974045-24.6867065 1.9993896-32.8950195 1.8201904.1535645 3.5411377.3425293 5.0982666.5471191 7.567627 1.0544434 13.4310303 2.7666016 18.0131836 4.3786621-2.8829422 13.4404449-8.0055466 20.3868637-8.8497314 23.0869141-.1933594.6186523-.118042.876709.0323486 1.0424805-4.7171936 1.9271316-10.4436035 3.3386764-16.293457 3.8398437zm18.3417968-4.6923828c.1624756-.1674805.3347168-.3496094.5296631-.5668945 4.7299881-5.2675323 8.2886276-14.4427948 9.946167-21.3256836 5.2338333 2.0769348 8.2797165 3.7723007 11.5218506 5.2822266-.118042.144043-.2286377.2893066-.3486328.4328613-5.4764404 6.5479049-13.1918488 12.4744644-21.6490479 16.1774902zm30.9542237-67.2792969c.2515869-.2087402.4609375-.3918457.6523438-.5639648 2.7683182 12.0164185 3.5274429 26.5162888-1.4550781 37.9104004-1.6271973 3.8112793-3.8431396 7.6914063-6.6966553 11.4699707-2.9736404-2.6026077-8.1883621-5.3905258-12.1662598-7.1247559.0898438-.4470215.1791992-.8974609.2668457-1.3586426 1.8139725-10.3150482 1.777565-21.0399628.6306152-31.6225586 5.7965546-1.8489875 15.7328796-5.9340934 18.7681885-8.7104492zm-23.2432862 3.2736817c.1130371.880127.2127686 1.7521973.3081055 2.6206055-8.6951447 2.3504715-18.6868973 4.2375946-25.8630371 5.1252441-.6652222-7.3052368-1.7915726-17.0131416-3.427002-28.2246094 1.526123-.1418457 2.9724121-.307373 4.3060303-.4921875 8.3400879-1.157959 14.6680908-2.9272461 19.4876709-4.5910645.1071777.3508301.2202148.6918945.3243408 1.0471191 2.2711182 7.652588 3.8687744 16.2978516 4.8638916 24.5148927zm-49.5410194-52.921877c11.0419044-1.8577437 22.5161934-.93502 33.0971718 2.4443359 9.2492752 2.9266052 18.810318 8.0790901 25.635498 15.045166-.15625-.0163574-.3491211.0100098-.6157227.1203613-.5744629.2246094-1.5482178.8049316-3.6029053 1.7824707-1.8682861.9006348-4.675415 2.1108398-8.8284912 3.5339355-2.3446045-5.7741699-5.0471191-10.7102051-7.5401611-14.1835938-3.1098633-4.3955078-5.5910645-6.6340332-5.7607422-6.4760742-.2504883.2131348 1.8010254 2.7856445 4.4234619 7.3273926 2.0953369 3.5717773 4.383667 8.4729004 6.3625488 14.1464844-4.6800537 1.4377441-10.7939453 3.0561543-18.8599854 4.1760273-1.3431396.185791-2.8061523.3603516-4.3487549.517334-1.2027588-7.9409199-2.4407959-15.093996-3.4058838-20.2915058-.9995117-5.3164063-1.7373047-8.5874023-2.0151367-8.5478516-.2789307.0397949-.0712891 3.3867188.4455566 8.7697754.4909668 5.2363281 1.2979736 12.4030762 2.1335449 20.3254414-3.3033447.2626953-6.9022255.427002-10.6398964.4035645-5.8033447-.0810547-11.9108887-.5856934-17.574707-1.6022949 1.8406982-8.4426289 4.5167236-15.8420429 6.7041016-21.0905781 1.0749512-2.560791 2.0125732-4.6179199 2.6612549-6.0771484.5769044-.1130371 1.1539308-.2253418 1.7292482-.3232422zm-33.3026104 17.5314942c7.5134144-8.2109747 18.087923-14.3360472 30.4259014-16.9719238-.8215332 1.3024902-1.8344727 3.0397949-2.9498291 5.1691895-2.6655273 5.1210938-5.8198242 12.5251465-8.0695801 21.0964375-.0093994.0354004-.0175781.0725098-.0269775.1079102-6.2531738-1.2915058-11.7702618-3.114748-15.7148418-4.6232929-1.0024414-.3837891-1.909668-.730957-2.7071533-1.0361328-.7850342-.333252-1.4675293-.6120605-2.0323486-.8291016-.4448242-.1708984-.7932129-.2905273-1.0849609-.3808594.6840819-.8774416 1.3686522-1.7526857 2.1597899-2.5322267zm-4.6096191 5.8657226c.4812012-.6791992.8861084-1.4140625 1.4272461-2.046875.2432861-.2946777.4798584-.5949707.7154541-.895752.2480469.1940918.5751953.4282227 1.0131836.7182617.5089111.3371582 1.1402588.736084 1.8804932 1.1894531.7480469.4372559 1.6265869.8842773 2.5921631 1.3950195 3.8118896 1.9750977 9.3172588 4.2607441 15.6679668 5.9528828-.8151855 3.4174805-1.5134277 6.96875-2.0266113 10.5778809-.6450195 4.6367188-1.0197754 9.3510742-1.1252441 13.9406738-.0620117 2.5944824-.0144043 5.1362305.1027832 7.609375-14.7564144-1.0606689-28.4833355-4.724041-29.3914776-4.9289551-.5552846-12.2056349 3.3500337-24.5688017 9.1440429-33.5119647z" fill="#202020"/></g></svg>