<svg id="Layer_1" enable-background="new 0 0 135 135" height="512" viewBox="0 0 135 135" width="512" xmlns="http://www.w3.org/2000/svg"><g><g><path d="m114.8217926 54.3733826c-.0700073 4.1899414-.5899658 8.6601563-1.6300049 13.3999023-4.3499756 19.7299805-36.7000122 54.340332-45.6900024 62.7202148-.9400024-.8798828-2.1499634-2.050293-3.539978-3.4599609-11.9400024-12.0200195-38.2700195-41.6000977-42.1500244-59.2602539-7.0899678-32.2099609 10.2399902-51.619627 24.0599975-59.6298809.0599976-.0400391.1300049-.0698242.1900024-.1098633 12.9000244-7.3798828 29.9700317-7.3798828 42.8699951 0 .0700073.0400391.1300049.0698242.2000122.1098633 11.7800294 6.8300781 26.1199952 21.9501953 25.6900025 46.2299786z" fill="#ee3c37"/></g><g><ellipse cx="67.729" cy="50.053" fill="#fff" rx="26.173" ry="26.361"/></g><g><path d="m114.8217926 54.3733826c-.0700073 4.1899414-.5899658 8.6601563-1.6300049 13.3999023-4.3499756 19.7299805-36.7000122 54.340332-45.6900024 62.7202148-.9400024-.8798828-2.1499634-2.050293-3.539978-3.4599609 6.5800171-6.9902344 12.6199951-14.4902344 18.210022-22.340332 10.4099731-14.6196289 20.5899658-30.199707 24.8199463-47.8598633.9600219-4.0097656 5.2600097-4.3598633 7.830017-2.4599609z" fill="#e52e2e"/></g><g fill="#202020"><path d="m76.057457 23.011816c-2.5771484-.7827148-5.4542236-1.2841797-8.5697632-1.3032227-3.1113281.0068359-6.4551964.5732422-9.7924767 1.8393555-14.3533211 5.4672298-21.6279564 21.5830135-16.3896484 35.9106445 3.9734116 11.5216237 16.0065803 19.5457173 28.3063927 18.3007832 9.105835-.7151108 18.1558075-6.2993927 22.5072021-16.1816444 1.439209-3.3955078 1.8809814-6.3632813 1.9950562-8.3837891.0516968-2.0327148-.0899048-3.1435547-.2121582-3.1411133-.1581421-.0014648-.2941895 1.105957-.6031494 3.0463867-.3690796 1.9301758-1.0463257 4.7124023-2.6162109 7.8081055-4.1465225 7.9710655-11.8373566 13.5622139-21.2664185 13.9785194-10.8138084.747818-21.289135-6.5003586-24.5703087-16.6709023-4.2589722-12.3199768 1.9912224-26.1353722 14.3008423-30.8847637 2.8479614-1.0922852 5.6992149-1.6010742 8.3749352-1.6323242 2.6777954-.0039063 5.149231.3945313 7.3779297 1.0268555 14.3157578 5.4767399 15.1306763 13.4945431 18.1536255 22.2270489.2954102 1.0161133.567749 1.1025391.8487549 1.1010742.2810059-.0019531.5455322-.0722656.7351074-1.1679688.0673218-.5458984.2376709-1.3618164.1279907-2.5380859-.7105256-9.7432556-6.4698869-18.5725994-18.7077027-23.334959z"/><path d="m20.5146122 69.5088882c3.4899673 13.097374 16.9334965 30.4077988 25.6371479 40.8432617 3.3087158 3.9555664 6.6532593 7.7431641 9.977478 11.359375 1.6609497 1.809082 3.3251343 3.5683594 4.9837646 5.28125.8383179.8505859 1.6694336 1.69384 2.4928589 2.5292892.4767418.46875.9512291.9350586 1.4234581 1.3994141.8272095.7861328 1.6505127 1.5683594 2.4696655 2.347168.6785889-.6416016 1.3544312-1.2797852 2.0273438-1.9155273.4710693-.4545898.9400635-.9072266 1.4070435-1.3579102.6629028-.6606445 1.3198853-1.3154297 1.9708252-1.9638672 1.2908325-1.3046799 2.5394897-2.5971603 3.7489014-3.8745041 2.4198608-2.5537109 4.690918-5.0390625 6.8140259-7.4272461 10.3129272-11.6601563 18.7335815-22.5029297 24.9119263-32.9619141 3.0209351-5.2548828 5.5925903-10.4199219 6.7573242-15.8354492 2.5210953-14.4541779 1.4376755-25.6176567-1.4540405-32.4443398-.6546021-1.6357422-1.1468506-3.2495117-1.9060059-4.6660137-7.5074311-16.022952-21.8961106-23.9572805-22.6491089-22.6782225-.8407059 1.4274464 12.1737289 7.2531948 19.5715942 24.0683575.6827393 1.3364258 1.1008911 2.8603516 1.6853027 4.3950195 2.5291977 6.2364655 3.4774551 16.6380959.9508667 30.5024452-1.0334473 4.6992188-3.4604492 9.6040039-6.3964233 14.6376953-5.9985962 10.0585938-14.3270874 20.7641602-24.5153198 32.2768555-2.097168 2.3588867-4.338562 4.8178711-6.7197266 7.3417969-1.1899414 1.2626953-2.4168091 2.5395508-3.6791992 3.8232422-.6343994.6367188-1.2747192 1.2792969-1.9207764 1.9277344l-.4896851.4790039-.1022338.1000976-.0023193.003418-.0103149.0136719-.0167236-.0112305c-.3494873-.3413086-.7006836-.684082-1.0534668-1.0283203-.8112183-.8154297-1.6298828-1.6381836-2.4556236-2.4677734-1.6398315-1.6767578-3.2919312-3.4038086-4.9431763-5.1806641-10.8288727-11.6402969-30.977047-35.0538177-35.2614136-50.3945313-7.234663-23.7733002 3.5653763-50.3246078 25.6678486-61.1533203 7.3162231-3.5048831 14.7467613-4.4033203 20.7924767-4.1728516 3.038147.1513672 5.7561646.5766602 8.1113281 1.0815432 1.1630859.3032227 2.2573242.5571289 3.2384033.8686523.9718018.3374023 1.885498.5834961 2.6663818.9077148.7885132.3100586 1.4879761.5849609 2.09375.8227539.5928345.2705078 1.0939331.4990234 1.4988403.6835938.8181763.3569336 1.2603149.5253906 1.2896118.4750977.0346069-.0600586-.3443604-.3378906-1.1113892-.8081055-.3870239-.2319336-.8658447-.5185547-1.432373-.8579102-.59375-.2905273-1.2792969-.6259766-2.0521851-1.0043945-.7721558-.3862305-1.6817017-.6948242-2.6563721-1.0957031-.9836426-.3754883-2.0862427-.6938479-3.2652588-1.0610354-2.3861694-.6333008-5.163269-1.1870117-8.2926636-1.4565428-6.2272968-.4633811-13.9726543.2250954-21.765623 3.7226542-24.3345261 11.2164574-34.9174156 39.7962132-28.0367451 63.9262714z"/><path d="m78.6610336 48.0030251c-.8401489-.8935547-1.8460083-1.6474609-2.9830322-2.1582031-1.6425781-.7373047-3.3458862-1.0532227-4.9851685-1.2695313-.4335938-2.8652344-.9264526-5.7514648-1.4066162-8.0869141.1850586.0458984.37677.0869141.5522461.1386719 1.2835693.3833008 2.3115845.8574219 3.0418091 1.1552734.729187.3056641 1.164917.4462891 1.2452393.328125.0778809-.1142578-.2006226-.4804688-.8079224-1.0224609-.6119995-.534668-1.5495605-1.262207-2.8955078-1.9345703-.4640503-.2290039-.9927979-.4501953-1.571167-.6367188-.4562988-1.90625-.8786011-3.1166973-1.1980591-3.0859356-.2871704.027832-.4627075 1.0590801-.5543213 2.6894512-.6248169-.0839844-1.2849731-.1166992-1.9821777-.0600586-1.0613403.0854492-2.2041588.3647461-3.2848473.9760742-1.0731201.5849609-2.1017456 1.5986328-2.6936035 2.8203125-.6047974 1.2163086-.8925171 2.6884766-.5557861 4.2114258.1630859.7490234.5270386 1.5200195 1.0027466 2.1308594.4727173.6201172 1.0386353 1.112793 1.619873 1.515625 2.0025024 1.3417969 4.1742516 1.828125 6.1415977 2.1811523.1273193 2.2485352.2807007 4.3491211.44104 6.0009766.1234131 1.2719727.2436523 2.4160156.3613281 3.4526367-2.37677.0639648-3.9734497-.1518555-5.0770226-.4018555-1.3271484-.2929688-2.0021973-.5654297-2.4561157-.5927734-.449646-.0380859-.6547852.1425781-.8336792.3588867-.178894.2167969-.3347168.4350586-.1203003.9072266.2162476.4536133.824585 1.2407227 2.4136963 2.0283203 1.3936157.7089844 3.5900841 1.2758789 6.5446129 1.3671875.8673096 5.8603554 1.6161499 5.9550819 2.473938 5.8715858.8440552-.081543 1.552063-.3085938 1.3123169-5.9506874.0912476-.0063477.1768799-.0107422.270752-.0185547 1.0820923-.1025391 2.3348999-.2680664 3.7162476-.8603516.6862183-.2993164 1.3922729-.7163086 2.0325928-1.3115234.6651001-.5913086 1.203125-1.355957 1.5768433-2.1894531.7489014-1.6767578.8768311-3.6142578.3405762-5.5004883-.3007813-1.0312499-.8318482-2.1030273-1.682129-3.0537108zm-15.6101036-5.116211c-.7563477-.4589844-1.2221069-.9521484-1.4243164-1.5981445-.2141724-.6586914-.1621704-1.4990234.1311035-2.2363281.5455322-1.4902344 2.0700684-2.434082 3.6574059-2.7348633.5480957-.1118164 1.0856934-.1367188 1.614624-.1293945-.0356445 2.2636719.0214844 5.0917969.1350708 7.9428711-1.5436401-.2343751-2.9833374-.5756837-4.1138878-1.2441407zm13.2541466 12.0141602c-.1575928.362793-.3607178.6650391-.6134644.8911133-.2515259.25-.5740356.4604492-.9335327.6269531-.7611084.3496094-1.6723022.5317383-2.5997925.6455078-.0853882-1.0678711-.1898193-2.246582-.3174438-3.5615234-.1346436-1.387207-.3349609-3.0849609-.5775146-4.9135742 1.0294189.222168 1.9528198.4882813 2.7054443.8608398.7008057.331543 1.2428589.8012695 1.6640625 1.2446289.3737793.4316406.6431885.9609375.7981567 1.4931641.2838745.9790039.1920166 1.9951171-.1259155 2.7128906z"/></g></g></svg>