<svg id="Layer_1" enable-background="new 0 0 135 135" height="512" viewBox="0 0 135 135" width="512" xmlns="http://www.w3.org/2000/svg"><g><g><path d="m56.9703674 125.0650864c3.4248772-6.0657654 14.6964645-26.4446106 6.2603722-23.9692612-4.5967751 1.3488083-6.4504013 5.3599472-8.042778 8.9125977-2.2822914 5.0918808-4.9785461 10.0569687-7.6907768 15.0323563-.7099152 1.3022842-1.4334259 2.7908554-.8591461 4.1447067.7436295 1.7530975 3.4499664 2.3122711 5.3773384 1.546051 1.9273758-.7662354 3.1777-2.4463501 4.0920601-4.1348801.1289481-.2381287.4345626-.7728958.8629302-1.5315704z" fill="#726658"/></g><g><path d="m93.8805618 125.0650864c-3.424881-6.0657654-14.6964722-26.4446106-6.260376-23.9692612 4.5967789 1.3488083 6.4504013 5.3599472 8.042778 8.9125977 2.2822952 5.0918808 4.9785461 10.0569687 7.6907806 15.0323563.7099152 1.3022842 1.4334259 2.7908554.8591461 4.1447067-.7436371 1.7530975-3.4499664 2.3122711-5.3773422 1.546051-1.9273758-.7662354-3.1777039-2.4463501-4.0920563-4.1348801-.1289519-.2381287-.4345626-.7728958-.8629302-1.5315704z" fill="#726658"/></g><g><path d="m125.7455368 97.5441742c-3.6599121 4.6254501-11.6999512 5.542305-18.7700195 5.8901138-2.9099121.1476669-5.6499023.1893387-7.8598633.3581009-11.9700928.9065628-23.9899902 1.0748062-35.9899864.9168549-8.1601563-.1054764-23.3100586 1.580574-33.6201172-1.5908661-5.9899902-1.8337173-10.3499756-5.3107758-10.7800293-11.717453-1.2799072-19.2200394-2.5699463-38.4395599-3.8498545-57.6698875-.3601074-5.2793865-2.5600586-11.6119766.6098633-16.5121689 4.04004-6.2271156 14.6401377-4.4253016 21.3100586-4.7623053 19.2800293-.9698515 38.5700645-1.6438599 57.8699913-2.0235682 6.0499268-.1157646 12.210083-.2001448 18.0300293 1.3490448 2.8199463.7583885 5.6400146 1.9597692 7.4699707 4.099102 1.7999268 2.0966282 2.4500732 4.8363934 2.9500732 7.470686 1.1298828 5.9533958 1.7999268 12.0230694 2.2600098 18.1447124.8498535 11.3804474.9599609 22.9080467 1.869873 34.1511192.5100108 6.3433915 2.9699793 16.2482225-1.499999 21.896515z" fill="#27aae1"/></g><g><path d="m125.7455368 97.5441742c-3.6599121 4.6254501-11.6999512 5.542305-18.7700195 5.8901138-2.9099121.1476669-5.6499023.1893387-7.8598633.3581009-11.9700928.9065628-23.9899902 1.0748062-35.9899864.9168549-8.1601563-.1054764-23.3100586 1.580574-33.6201172-1.5908661 20.8000488-.7697067 41.6101036-2.6661911 62.1400108-6.1221542 9.5899658-1.6124725 23.3199463-3.6144333 29.3299561-12.8030701 3.210083-4.8996811 2.9200439-11.2430725 2.380127-16.8908463-.6201172-6.4591599-1.6401367-12.8977394-2.4799805-19.3250008-.460083-3.4667664 1.9599609-5.9117203 4.5-6.4807663.8498535 11.3804474.9599609 22.9080467 1.869873 34.1511192.5100098 6.3433915 2.9699783 16.2482225-1.5 21.896515z" fill="#1ca2d1"/></g><g><path d="m90.5454636 44.6552124c.7523193.3813477 1.4576416.7641602 1.8641357 1.5366211.2026367.387207.3295898.8735352.3439941 1.5131836.0169678.6416016-.0716553 1.4418945-.4030762 2.387207-.1561279.4794922-.3544922 1.0073242-.6010742 1.5898438-.2541504.5761719-.6055908 1.1665039-.9907227 1.8334961-.2008057.3286133-.411377.6728516-.6320801 1.0336914-.2512207.3369141-.513916.6894531-.7888184 1.0581055-.5551758.7382813-1.1818848 1.5292969-1.9530029 2.3007813-.3814697.3925781-.7784424.8007813-1.1914063 1.2260742-.4456787.3881836-.9085693.7919922-1.3895264 1.2109375-.9492188.8642578-2.0935059 1.6220703-3.2973633 2.4829102-2.4837646 1.5927734-5.4959717 3.1635742-9.170166 4.3388672-4.0078125 1.2612305-9.5432091 2.1538086-15.3336143 1.2407227-.7177734-.1171875-1.4501953-.2275391-2.1604004-.3666992-.7072754-.1508789-1.3624268-.3183594-1.9920654-.4829102-1.2575684-.331543-2.3692627-.6533203-3.3631592-.8876953-.9949951-.2392578-1.8552246-.3862305-2.621582-.4355469-.6755371-.0170898-1.401123.003418-2.1323242.2060547-1.4713135.3701172-2.9163818 1.2783203-4.0810547 2.3427734-1.1599121 1.0839844-2.0124512 2.3359375-2.619873 3.4897461-.6328125 1.1611328-.9127197 2.2299805-1.2536621 3.050293-.2501221.8051758-.553833 1.378418-.9620361 1.487793-.4036865.1088867-.9102783-.2617188-1.4796143-1.1694336-.4713135-.90625-1.0025635-2.3925781-.9689941-4.2963867.0097656-1.8925781.4796143-4.1933594 1.6947021-6.4887695 1.2276611-2.2666016 3.1619873-4.6015625 6.0167236-6.2446289 1.4178467-.8295898 3.0733643-1.4160156 4.8414307-1.7573242 1.6906738-.2939453 3.3432617-.3164063 4.8360596-.2358398 1.4971924.0791016 2.8586426.2504883 4.0648193.378418.6026611.0639648 1.177002.1240234 1.699585.159668.5118408.0136719 1.0212402.027832 1.5268555.0415039l.7469482.0263672.7463379-.0415039c.4923096-.0234375.9797363-.0463867 1.4610596-.0688477.9627686-.1459961 1.8984375-.1738281 2.7921143-.3857422.4473839-.0795898.8863487-.1582031 1.3157921-.2348633.4246826-.1083984.8399658-.2148438 1.244751-.3183594.8168945-.1669922 1.5648193-.4458008 2.2756348-.6508789 2.5780029-.8251953 4.7355957-1.8696289 6.5786133-2.8759766.8806152-.5644531 1.7609863-1.0141602 2.4890137-1.559082.3807373-.2529297.7470703-.496582 1.0997314-.7314453.3360596-.2563477.6590576-.5024414.9694824-.7392578.6495361-.4501953 1.1958008-.9165039 1.7133789-1.3383789.2664795-.206543.5213623-.4038086.7648926-.5922852.2313232-.2011719.4519043-.3935547.6624756-.5771484.4241943-.3666992.8544922-.6728516 1.2156982-.9731445.3530273-.3051758.6901855-.5703125 1.012085-.7988281.6644287-.4458008 1.1889648-.7915039 1.6815186-1.0151367.4957275-.2216797.9519043-.3242188 1.3796387-.340332.8566893-.0327153 1.595703.2905269 2.3481444.6713863z" fill="#e6e7e8"/></g><g><path d="m91.8400574 59.618969c-1.9758606-3.1849709.4381638-7.9771843-1.119873-11.5907898-1.7395782-4.0346718-6.6460724-4.3841705-10.3187485-5.4500999-2.6402588-.7662849-7.1579819-2.5607681-4.9757919-6.0479927.7581863-1.2113266 2.1271591-1.8846283 3.4602814-2.3993645 6.9772797-2.6940193 14.6654816-2.6634674 22.1445084-2.596838 10.3480377.0921803 5.4391708 14.8276997 3.5445709 20.7703762-.9069214 2.8446732-1.9626617 5.8122063-4.2196426 7.7668648-2.2569962 1.9546738-6.096405 2.4036255-8.0635757.1575089-.171364-.1956636-.3211367-.3991548-.451729-.609665z" fill="#f1f2f2"/></g><g><path d="m126.655571 15.4603882c-1.1400146 3.5698242-5.6800537 4.6298828-9.4699707 5.0898438-14.4000244 1.7802734-27.9899902 1.2802734-42.3900146 2.1899414-16.7399864 1.0703125-33.4000206 1.4101563-50.1599083 1.4101563-1.8300781-.0400391-4.880127-.5800781-7.8901367-1.5698242-6.6699228-2.1899414-13.1098642-6.5400391-5.5200205-12.25 2.5-1.8901367 5.8100595-2.3203125 8.9500742-2.6601563 5.7700195-.6298828 11.5599365-1.2001953 17.3499756-1.6899414 9.8500977-.8300781 19.7199707-1.4399414 29.6000938-1.8100586 12.1599121-.4702148 24.329834-.5698242 36.5-.2700195 1.8598633.0498047 3.7199707.1000977 5.579834.1601563 1.9301758.0595703 3.9500732.1899414 5.920166.4897461 4.119873.6298828 8.0100098 2.0200195 10.329834 5.2700195 1.1601562 1.6298827 1.8000488 3.7402342 1.2000732 5.6401366z" fill="#726658"/></g><g><path d="m115.1256638 4.5502319c-.420166.6801758-1.0900879 1.2700195-2.0500488 1.7001953-7.9499512 3.5498047-17.1101074 4.2597656-25.6600342 5.4599609-8.6199951 1.199707-17.2700195 2.2197266-25.9400597 3-8.4899902.7597656-17.0599365 1.0200195-25.5100098 2.2299805-6.2399902.8999023-13.5 2.2700195-19.2199707 5.6401367-6.6699228-2.1899414-13.1098642-6.5400391-5.5200205-12.25 2.5-1.8901367 5.8100595-2.3203125 8.9500742-2.6601563 5.7700195-.6298828 11.5599365-1.2001953 17.3499756-1.6899414.1799316.1699219.3500977.3701172.4899902.5800781 4.8800049-.5 9.6800537-.7700195 14.1201172-1.1000977 5-.3701172 10-.7900391 14.9899864-1.2900391 12.1599121-.4702148 24.329834-.5698242 36.5-.2700195 1.8598633.0498047 3.7199707.1000977 5.579834.1601563 1.9301758.0595705 3.9500733.1899415 5.9201661.4897462z" fill="#897d71"/></g><g fill="#202020"><path d="m108.5534744 45.614933c.4232178-1.8442383.803833-3.8632813.8707275-6.1635742.0250244-1.1508789-.0291748-2.3798828-.3286133-3.6987305-.2965088-1.2998047-.8720703-2.7695313-2.0579834-3.9741211-1.2641602-1.3686523-3.2132568-2.0620117-4.9689941-2.2148438-.4162598-.0200195-.9395752-.0585938-1.2839355-.0517578-.3751221-.0004883-.7547607-.0014648-1.1386719-.0019531-.7720947.0039063-1.5611572.0083008-2.3651123.012207-3.2232666.043457-6.7375488.1572266-10.3691406.7041016-1.8133545.2729492-3.65271.6547852-5.4711914 1.1889648-.9086914.2670898-1.8132324.5683594-2.7020264.9179688-1.5070877.5656013-3.0627441 1.3094902-4.1137695 2.519043-.2076416.2314453-.3956299.4916992-.5665283.762207-.1536865.2705078-.286499.5454102-.4212646.8208008-.1260986.2871094-.2120361.6318359-.302002.9477539-.0513916.3491211-.0976563.7138672-.078125 1.0776367.0501709.7421875.3037109 1.4790039.6842041 2.0239258.7554932 1.1303711 1.7093506 1.690918 2.5887451 2.1708984.8945313.4628906 1.7823486.7851563 2.6578369 1.0522461 1.578125.4750977 3.0749512.7294922 4.4438477 1.0400391-.2972412.2128906-.6081543.4365234-.9367676.6723633-.3135986.2329102-.6837158.4829102-.9954834.7397461-.6330566.5239258-1.4346924 1.0395508-2.2348633 1.6425781-.8049316.5947266-1.7209473 1.2675781-2.7753906 1.9018555-1.8999023 1.1962891-4.3951416 2.5639648-7.3522949 3.5976563-13.3756752 4.8282928-19.7665939-1.8626671-29.130249 3.465332-5.1523705 2.8906593-8.8209572 8.5535851-8.8332539 14.6093788-.010376 1.3857422.2331543 2.847168.7821064 4.2226563.069458.1723633.1433105.3442383.2225342.515625l.1239014.2568359c.0395508.0712891.1206055.2553711.2022705.3652344.2481689.3769531.4604492.6782227.8388672 1.0664063.1923828.1884766.4158936.3920898.7662354.5981445.333252.1943359.8879395.4350586 1.6181641.3671875.737915-.0766602 1.2823486-.4672852 1.5727539-.7631836.3074951-.3095703.4705811-.578125.6043701-.8144531.2518311-.4624023.3908691-.8740234.4962158-1.2050781l.3046875-.8374023c.2052002-.5947266.388916-1.1040039.6120605-1.5791016 4.9368362-10.3272057 10.5151711-2.7645416 22.7705078-3.2197266 2.7167969-.0776367 5.3687744-.4672852 7.8913574-1.1025391 5.067627-1.3056641 9.5046387-3.578125 13.086792-6.2695351.8637695-.6342773 1.7905273-1.3769531 2.5290527-2.0957031.3919678-.3637695.7781982-.7226563 1.1584473-1.0756836.3380127-.3686523.6706543-.7314453.9978027-1.0883789.6815186-.7163086 1.3104248-1.5043945 1.8377686-2.2456055.2181396-.3120117.4302979-.6157227.6408691-.9174805.0357666.9023438.1281738 1.6953125.3325195 2.3276367.397583 1.2944336.9924316 1.8066406 1.0777588 1.7363281.1425781-.0864258-.1732178-.7128906-.2714844-1.8901367-.121582-1.1870117.1538086-2.8920898.4555664-5.1625977.1273193-1.1342773.2327881-2.4555664-.0812988-3.9375-.3218994-1.4799805-1.2167969-2.9995117-2.574707-4.0644531-2.7375488-2.1625977-6.3331299-2.5195313-9.2780762-3.5913086-.7445068-.2705078-1.4714355-.5854492-2.1083984-.9589844-.6273193-.3652344-1.1928711-.8256836-1.3858643-1.2109375-.1793213-.3813477-.2039795-.5458984.0264893-1.0498047.2526855-.5288086.5953369-.8608398 1.1864014-1.2338867.5787354-.3515625 1.3116455-.6494141 2.1330566-.9179688.8033447-.2817383 1.623291-.5219727 2.4498291-.7338867 1.6538086-.4238281 3.3405762-.7192383 5.0247803-.9228516 3.3699951-.4086914 6.7254639-.4448242 9.8760986-.4326172.7905273.0083008 1.5664063.015625 2.3255615.0234375.3817139.0053711.7591553.0107422 1.1320801.0161133.4042969-.0009766.618042.0361328.9306641.0454102 1.1245117.1308594 1.9416504.4716797 2.440918 1.0249023.9880371.9550781 1.2919922 2.9243164 1.251709 4.7441406-.0383301 1.8554688-.347168 3.6801758-.7126465 5.3735352-.3681641 1.6987305-.8061523 3.2817383-1.2403564 4.7612305-.4417725 1.4760742-.8572998 2.8999023-1.2561035 4.0864258-.7965088 2.4150391-1.7564697 4.1005859-2.8546143 5.1518555-1.0074463.9838867-2.2388916 1.3989258-3.166626 1.5478516-.9473877.1269531-1.6490479.0161133-2.1530762-.1450195-.5174561-.1489258-.8487549-.3496094-1.1245117-.4667969-.5123291-.2895508-.791748-.2084961-1.0253906-.0561523-.2337646.1523438-.4545898.3129883-.1776123 1.0883789.1697998.3637695.4969482.9121094 1.237915 1.434082.7258301.5322266 1.8752441.9960938 3.3901367 1.0214844 1.487793-.0102539 3.3968506-.3833008 5.2592773-1.8969727 1.770752-1.4355469 3.1639404-3.7563477 4.1433105-6.4023438.5079346-1.34375.9466553-2.6982422 1.4448242-4.2192383.4884034-1.5219726.9865723-3.1860351 1.4154053-5.0292968zm-18.4863281 3.5131836c.3355713 1.0791016.3842773 2.2490234.3748779 3.3408203-.0004883.0185547-.0007324.0366211-.0012207.0556641-.4037323.6804428-.4995499.8159218-.8961182 1.4130859-.0673828.1010742-.0957031.1484375-.1385498.1948242-.0016556.0020561.0477142-.0588379-1.017334 1.2646484-.5583496.6806641-1.1340332 1.3173828-1.821167 1.9589844-.3444824.3344727-.6949463.6743164-1.0509033 1.0200195-.3684082.3037109-.7426758.6123047-1.1223145.925293-.7746582.6713867-1.5325928 1.2104492-2.444458 1.8183594-3.4550781 2.3447266-7.7589111 4.3090858-12.427002 5.3237343-2.3470459.4995117-4.8009033.7724609-7.2733154.7636719-2.487915.0083008-4.918457-.3608398-7.4274902-.9082031l-1.8475341-.4824219c-1.604332-.1030045-6.0415382-2.8463745-10.8779297-.296875-2.7047501 1.4225082-4.6446381 3.6255798-6.0270996 6.3920898-.206665.4199219-.3762207.8349609-.5323486 1.237793-.1235352-.5688477-.1862793-1.1508789-.1744385-1.7431641.0466309-3.9946289 2.2469482-7.5131874 4.7324219-9.6152382 8.3797989-7.1744118 15.4884377.9396553 30.5367432-4.9760742 3.3068848-1.2714844 5.8326416-2.769043 8.036499-4.3110352 1.0322266-.6923828 1.9100342-1.4160156 2.7435303-2.1162109.8249512-.7075195 1.5899658-1.2841797 2.2474365-1.9257813.631958-.5649414 1.2032471-1.0756836 1.7198486-1.5371094.241333-.206543.4470215-.4296875.6820068-.6005859.239502-.1821289.4655762-.3535156.6790771-.515625.0317383-.0239258.0587158-.0410156.0894775-.0639648.4185791.1899414.8178711.3945313 1.1679688.6376953 1.0310059.6904297 1.7294923 1.6875 2.069336 2.7456055z"/><path d="m8.9827948 20.9694252c.9116211.6933594 1.8643799 1.2602539 2.842041 1.7568359-.1413574 2.6293945.2509766 5.0449219.5579834 7.2719727.1923828 1.3256836.3753662 2.59375.4573975 3.7880859.0863037 1.2998047.1713867 2.5810547.255249 3.8432617.1680908 2.5288086.3310547 4.9804688.4884033 7.347168 1.1704102 17.2753906 2.1975098 32.4370155 3.098876 45.7421913.0366211.7807617.1654053 1.7861328.3009033 2.6992188.1140137.4624023.2275391.9223633.3405762 1.3803711 1.4455128 5.6199341 6.8080273 8.8268127 12.3717041 10.4018555 5.9267597 1.5722656 11.42029 1.699707 16.4207783 1.7382813 2.9851074-.0004883 5.7921143-.0976563 8.4630127-.203125-1.5787697 2.9980011-.9880333 2.5821686-8.3907471 16.5366211-.572876 1.1328125-1.3745117 2.3496094-1.6431885 4.0732422-.1240234.8588791-.0266113 1.88134.3984375 2.7255783.4219971.8740234 1.0908203 1.4970703 1.7342529 1.8950195 1.3128662.7822266 2.5560303.934082 3.6621094.8862305.5559082-.0288086 1.0843506-.1137695 1.5844727-.2670898.5126953-.1479492.9643555-.355957 1.3392334-.5698242 1.5651855-.8896484 2.3828125-2.0146484 2.928833-2.8686523.5368652-.8740234.8051758-1.5849533.9703369-2.1049728.1577148-.5004883.2298584-.8642578.2421875-1.1342773.0246582-.5400391-.1903076-.7041016-.4351807-.8422852-.2449951-.1381836-.4954834-.2392578-.9493408.0703125-.2269287.1542969-.5048828.4121094-.8587646.8198242-.3394775.3901367-.729248.8896484-1.2727051 1.4628906-.5421143.5610352-1.2293701 1.2031174-2.151123 1.584465-.2414551.1035156-.4661865.175293-.6933594.2128906-.2351074.0493164-.5041504.065918-.78125.0566406-.550293-.0048828-1.1798096-.1879883-1.5477295-.4575195-.1837158-.1337891-.2712402-.2641602-.3056641-.3618164-.046875-.1201172-.0612793-.2524414-.0179443-.5327072.0892334-.5839844.6159668-1.5361328 1.300293-2.7397461 7.4738274-13.4243927 7.512291-15.6087341 9.4372559-18.6201172.2233887-.0078125.4592285-.0180664.6801758-.0253906 1.0323486-.0351563 2.032959-.0551758 3.0008545-.0571289.4543457.0004883.8873291.0014648 1.3322754.0019531-.1547852.59375-.3275146 1.1875-.5169678 1.7714844-2.4312668 7.3028336-7.2352829 16.4879761-6.6560059 16.8139648 1.0641518.599762 8.1341476-12.8867645 9.3599854-15.8232422.3553467-.8759766.6782227-1.8022461.9663086-2.769043 1.3428955-.0073242 2.6566162-.0151367 3.9105225-.0219727 4.6641846-.0522461 8.7113037-.1748047 12.2431641-.3334961.3079834 1.1015625.6712646 2.1416016 1.0700684 3.1245117 1.9951172 4.7792969 4.340332 8.706543 6.0917969 11.5258789 1.7752686 2.8017578 3.0274658 4.4331055 3.2683105 4.2973633.2490234-.1401367-.5375977-2.0371094-1.8695068-5.0429688-1.3033447-3.0058594-3.2442627-7.1381836-4.7866211-11.7709961-.244751-.7543945-.4536133-1.5234375-.6352539-2.2895508.5852051-.0322266 1.1547852-.0654297 1.7069092-.0996094.9770508-.0610352 1.8934326-.1245117 2.7712402-.1884766.0184784.0238647 6.4907303 13.0412216 10.0906982 19.5068359.6842041 1.2036133 1.2110596 2.1557617 1.300293 2.7397461.043335.2802658.0289307.41259-.0179443.5327072-.0344238.0976563-.1220703.2280273-.3057861.3618164-.3677979.2695313-.9973145.4526367-1.5476074.4575195-.2770996.0092773-.5462646-.0073242-.78125-.0566406-.2271729-.0375977-.4520264-.109375-.6933594-.2128906-.9217529-.3813477-1.6090088-1.0234299-2.151123-1.584465-.543457-.5732422-.9332275-1.0727539-1.2727051-1.4633789-.3538818-.4072266-.6317139-.6650391-.8587646-.8193359-.4537354-.3095703-.7042236-.2084961-.9492188-.0703125-.244873.1381836-.4598389.3022461-.4351807.8422852.012207.2700195.0843506.6337891.2420654 1.1342773.1651611.5200195.4334717 1.2309494.9703369 2.1049728.5460205.8540039 1.3636475 1.9790039 2.928833 2.8686523.3748779.2138672.8265381.421875 1.3392334.5698242.5001221.1533203 1.0285645.2382813 1.5844727.2670898 1.1060791.0478516 2.3492432-.1040039 3.6621094-.8862305.6434326-.3979492 1.3122559-1.0209961 1.7342529-1.8950195.4249268-.8442383.5224609-1.8666992.3984375-2.7255783-.2686768-1.7236328-1.0704346-2.9404297-1.6433105-4.0732422-8.4625702-15.9538803-7.3315582-14.9255676-9.2027588-17.9633789 1.260498-.1186523 2.3862305-.237793 3.3861084-.3544922 2.5881348-.2446289 4.3520508-.4272461 5.5594482-.6083984 2.413208-.3535156 2.5825195-.6293945 2.5683594-.9101563-.0142822-.2807617-.206665-.5400391-2.6602783-.6723633-1.2255859-.0620117-3.0229492-.1088867-5.6364746-.0795898-2.5953369.0742188-6.0089111.1723633-10.4995117.3012695-4.4915771.0922852-10.0616455.1577148-16.9726563.0888672-1.7279053-.0239258-3.5394287-.0488281-5.4385986-.074707-.9526367-.0175781-1.9272461-.0356445-2.9243164-.0541992-1.026001-.0146484-2.0645752-.0102539-3.116333.0097656-4.208374.0732422-8.7164307.2822266-13.5877686.2314453-11.4031563-.1804657-24.9434795-1.3607254-25.4735126-12.7329102-.8773193-13.3076172-1.8770752-28.4707069-3.0162354-45.7480507-.1590576-2.3666992-.3237305-4.8183594-.4936523-7.3466797-.0863037-1.2666016-.1739502-2.5522461-.2628174-3.855957-.1010742-1.4101563-.3041992-2.7631836-.4991455-4.0898438-.2510986-1.7075195-.4870596-3.3969727-.541503-5.0239258 6.4520063 2.1567421 9.5822458 1.9659386 29.4848633 1.4355469 21.1990204-.5637589 18.5359612-1.043766 52.2167969-2.4638672 5.9389725-.2599335 12.1042023-.6392899 18.034668-1.3974609 1.8078613-.2226563 3.6567383-.4628906 5.4428711-.9570313.6196289 2.137207.9594727 4.5185547 1.3770752 6.7900391 1.9749756 12.2744141 2.2928467 24.2392578 2.9306641 35.1049805.326416 5.448246.6132813 10.5927773 1.2176514 15.4721718.6595459 4.793457 1.3304443 9.2304688.7667236 13.159668-.2731934 1.9482422-.8695068 3.7348633-1.8422852 5.1572266-.9459229 1.4379883-2.2843018 2.4707031-3.6612549 3.2167969-2.7797852 1.4936523-5.5665283 2.0493164-7.7908936 2.4755859-2.2463379.4033203-4.0224609.5878906-5.2230225.7382813-1.2020264.1469727-1.8348389.2421875-1.8310547.3149414.003418.0673828.642334.1113281 1.8583984.1005859 1.2154541-.0141602 3.0111084-.0644531 5.3175049-.3422852 2.2901611-.3085938 5.1621094-.7236328 8.230957-2.2143555 1.5148926-.7451172 3.0839844-1.8505859 4.2429199-3.4814453 1.1789551-1.6040039 1.9061203-3.6113281 2.2646408-5.71875.7307129-4.2485352.1289063-8.8652344-.4056396-13.6401367-.4735107-4.7368164-.6550217-9.9287109-.8701096-15.3432655-.4232178-10.8486328-.5296631-22.8730469-2.3594971-35.440918-.2161865-1.5722656-.5061035-3.1381836-.7789307-4.7290039-.1689453-.8769531-.3642578-1.7783203-.6208496-2.6845703.8999023-.4648438 1.7429199-1.0585938 2.4533691-1.8481445.6828613-.7597656 1.1571045-1.6928711 1.4056396-2.6606445.2333984-.9814453.2021484-1.9741211.0012207-2.8745117-1.2341995-5.7242122-7.469162-8.1491156-13.7005615-8.7646484-2.2008057-.1884766-4.0910645-.1831055-5.6234131-.1635742-3.067749.0424805-4.763916.1298828-4.767334.2705078s1.6859131.3276367 4.7403564.5498047c1.5270996.112793 3.387085.2382813 5.5089111.5463867 5.3534241.8370743 11.0823898 3.0369234 11.939209 7.9453125.2730713 1.3510742-.0977783 2.7192383-1.0654297 3.7294922-.9632568 1.0166016-2.473877 1.6767578-4.1116943 2.0869141-1.649292.4233398-3.4281006.6044922-5.31604.7832031-5.9101334.5894318-12.0316162.8144894-17.8594971.940918-30.5967712.6130047-29.1392288 1.2524967-52.1998291 1.5898438-20.9503593.3088455-22.861639.6119747-29.4794922-1.9838867-1.6184082-.6396484-3.1330566-1.4116211-4.3028564-2.3134766-.569458-.4516602-1.0369873-.9389648-1.3095703-1.3857422-.2751465-.4560547-.3498535-.8032227-.3125-1.1679688.3647728-5.5313129 13.1195936-6.009532 30.3936768-7.4560547 21.3510331-1.7902894 36.4800424-2.1367178 50.8878182-2.5844726 5.9870605-.1689453 9.105835-.3110352 10.729126-.5219727 1.6235352-.2119141 1.7510986-.4770508 1.7578125-.7583008.0067139-.2807617-.1065674-.5512695-1.7241211-.8266602-1.6176758-.2763672-4.7399902-.5732422-10.7561035-.7729492-16.3924026-.497697-34.6592102.2015429-51.2139892 1.487793-22.3941956 1.7350479-28.768118 1.9243737-32.8200698 7.7709961-.6115723.828125-1.1564941 1.9423828-1.3001709 3.2470703-.1546631 1.3144531.2541504 2.7021484.9005127 3.7109375.6435546 1.0302735 1.4499516 1.7973633 2.2753911 2.4516602z"/></g></g></svg>