<svg id="Layer_1" enable-background="new 0 0 135 135" height="512" viewBox="0 0 135 135" width="512" xmlns="http://www.w3.org/2000/svg"><g><g><path d="m113.455162 100.4982452c-.0700073 15.7099609-10.2800293 29.7600098-27.3400269 31.1398926-2.2399902.1799316-4.4899902.3200684-6.7399902.420166-10.039978.4299316-20.1099854 0-30.0700073-1.2700195-3.1900024-.4101563-6.4500122-.9501953-9.5499878-1.8701172-4.1900024-1.2299805-8.0700092-3.1298828-10.9600239-6.25-6.3499756-6.8598633-7.0799561-19.369873-7.5499878-28.1499023-.0700073-1.25-.1199951-2.5-.1699829-3.75-.4200439-11.8601074.1599731-23.8901367.4099731-35.7199707.1900024-9.4299316.4899902-18.8601074.8900146-28.2800293.2799683-6.6601563-.789978-14.6499023 5.7600098-18.9699707 5.5100117-3.630127 13.6699848-3.6101074 20.0499897-3.5800781 14.2000123.0700688 28.3900148.77002 42.5200196 2.0900883 1.1599731.1098633 2.3899536.1799316 3.6499634.2700195 5.1700439.3598633 10.8699951.9299316 14.2700195 4.7099605 5.539978 6.1298828 4.2799683 18.4499512 4.3400269 25.8300781.0299683 3.8898926.0699463 7.7697754.1099854 11.6599121.1900024 17.2399903.4599609 34.4899903.3800048 51.7199707z" fill="#662d91"/></g><g><path d="m113.455162 100.4982452c-.0700073 15.7099609-10.2800293 29.7600098-27.3400269 31.1398926-2.2399902.1799316-4.4899902.3200684-6.7399902.420166-10.039978.4299316-20.1099854 0-30.0700073-1.2700195-3.1900024-.4101563-6.4500122-.9501953-9.5499878-1.8701172 7.5700073-.6599121 15.0700073-1.9399414 22.539978-3.5800781 10.1799927-2.2397461 22.4200439-3.8498535 30.4200439-11.079834 15.5599976-14.0500488 18.1299438-39.8898926 14.3299561-59.2600098-.789978-4.0700684 2.9500122-6.6298828 6.0300293-6.2199707.1900025 17.2399903.459961 34.4899903.3800049 51.7199707z" fill="#562382"/></g><g><path d="m65.125145 43.6981964c-7.0800171-.75-21.6799927-.880127-25.6300049-7.8400879-.0800171-.1098633-.1400146-.2299805-.2000122-.3498535-3.2600098-6.4899902-.7199707-17.8400879 7.8300171-19.0700684 4.210022-.6098633 8.4899902-.5898438 12.7399902-.5698242 7.789978.0397949 15.5700073.4199219 23.3800049.8798828.5300293.0300293 1.0599976.0698242 1.5800171.1298828 5.8900146.6000977 12.1300049 2.8100586 15.5499878 7.4599609.8200073 1.1000977 1.4699707 2.3400879 1.9299927 3.7299805 6.7000121 20.3901368-25.5800172 16.8601075-37.1799927 15.630127z" fill="#d1d3d4"/></g><g><path d="m52.4251328 65.4988022c-.8499756 3.8356476-4.3200073 6.8013535-7.8900146 6.6067886-2.6900024-.1489944-5.3999634-2.1413193-7.2999878-4.901001-2.3399658-3.3892136-3.4500122-7.9349098-1.7600098-11.5530739 3.1000366-6.6411743 12.1199951-2.7367554 15.6600342 3.320446 1.2000121 2.0381699 1.7699584 4.3167496 1.289978 6.5268403z" fill="#d1d3d4"/></g><g><path d="m49.5751572 90.5983429c-.8500366 3.3498535-4.3099976 5.9499512-7.8900146 5.7797852-4.2299805-.2099609-8.5100098-4.3999023-9.5999756-8.869873-.4600239-1.880127-.3600483-3.8100586.5499878-5.5100098 1.9699707-3.6999512 6.3699951-3.6499023 10.2099609-1.7399902 4.2000122 2.0700683 7.7400512 6.3498534 6.7300415 10.3400878z" fill="#d1d3d4"/></g><g><path d="m49.5751572 113.6081085c-.8500366 3.3500977-4.3099976 5.9501953-7.8900146 5.7800293-3.6599731-.1799316-7.3599854-3.3498535-9-7.0998535-1.0399799-2.4101563-1.2399921-5.0400391-.0499878-7.2800293 1.8599854-3.4799805 5.8599854-3.6398926 9.5199585-2.0600586 4.4900512 1.920166 8.4800414 6.4499512 7.4200439 10.6599121z" fill="#d1d3d4"/></g><g><path d="m77.7351303 69.3803024c-.8499756 3.8356476-4.3200073 6.8013535-7.8900146 6.6067886-3.4499512-.1831055-6.9400024-3.4235992-8.7099609-7.3967896-1.2900391-2.9313202-1.6500244-6.2632294-.3500366-9.0570107 2.5700073-5.5076141 9.2300415-3.7559814 13.4400024.4693565 2.580017 2.576298 4.2400512 6.0686648 3.5100097 9.3776552z" fill="#d1d3d4"/></g><g><path d="m74.8851547 93.2282257c-.8500366 3.3500977-4.3099976 5.9399414-7.8900146 5.7700195-3.75-.1801758-7.5499878-3.5100098-9.1199951-7.3798828-.9400024-2.3200684-1.0800171-4.8400879.0700073-6.9902344 1.8900146-3.5498047 6.0100098-3.6499023 9.7299805-1.9699707 4.4100341 1.9699708 8.2600097 6.4299317 7.2100219 10.5700684z" fill="#d1d3d4"/></g><g><path d="m75.0851669 117.1981964c-.8500366 3.3500977-4.3099976 5.9499512-7.8900146 5.7800293-4.1600342-.1999512-8.3500366-4.25-9.5400391-8.6298828-.5299683-1.9602051-.4599609-3.9799805.4800415-5.75 1.9500122-3.6501465 6.2600098-3.6501465 10.0700073-1.8200684 4.2699585 2.0500489 7.8999634 6.3798828 6.8800049 10.4199219z" fill="#d1d3d4"/></g><g><path d="m105.5851669 68.4986115c-.8500366 3.8359299-4.3099976 6.8128128-7.8900146 6.618248-4.9899902-.2633286-10.0300293-6.9045029-9.8599854-12.9043999.0299683-1.2367134.2799683-2.4387589.7999878-3.549675 3.1099854-6.6752777 12.2199707-2.6906319 15.7199707 3.4121399 1.1600342 2.015522 1.710022 4.2597236 1.2300415 6.423687z" fill="#d1d3d4"/></g><g><path d="m102.7351303 93.2282257c-.8399658 3.3500977-4.3099976 5.9399414-7.8900146 5.7700195-3.1299438-.1499023-6.289978-2.4899902-8.1599731-5.5100098-1.7199707-2.7700195-2.3599854-6.119873-.8900146-8.8601074 2.210022-4.1599121 7.4800415-3.579834 11.5900269-.9599609 3.5599974 2.2399902 6.2399901 6.0200195 5.3499754 9.5600586z" fill="#d1d3d4"/></g><g><path d="m102.9351425 117.1981964c-.8400269 3.3500977-4.3099976 5.9499512-7.8900146 5.7800293-4.0599976-.1999512-8.1699829-4.0800781-9.4599609-8.3500977-.6100464-2.0400391-.5800171-4.1699219.4099731-6.0297852 2.2600098-4.25 7.710022-3.5500488 11.8599854-.7900391 3.4200439 2.2700197 5.9500121 5.9399415 5.080017 9.3898927z" fill="#d1d3d4"/></g><g><path d="m94.4851303 6.5783238c-21.8599853 2.2199703-46.5899658-2.0102539-61.8200073 15.1599117-4.5199604 7.579834-4.6900043 17.3200684-5.5899677 26.0400391-1.3200073 12.8000488-2.1900024 25.6499023-2.6700439 38.5100098-.0899658 2.3498535-1.4899902 3.8398438-3.1999512 4.4799805-.4200439-11.8601074.1599731-23.8901367.4099731-35.7199707.1900024-9.4299316.4899902-18.8601074.8900146-28.2800293.2799683-6.6601563-.789978-14.6499023 5.7600098-18.9699707 5.5100117-3.630127 13.6699848-3.6101074 20.0499897-3.5800781 14.2000122.0700687 28.3900146.7700199 42.5200195 2.0900882 1.1599732.1098633 2.3899536.1799317 3.6499634.2700195z" fill="#8351af"/></g><g><path d="m100.375145 24.338089c-.7000122.3701172-1.5700073.5302734-2.6199951.3901367-11.7299805-1.5300293-25.1000366.7600098-36.5599976 3.3398438-7.5200195 1.6901855-14.9199829 4.1501465-21.7000122 7.7900391-.0800171-.1098633-.1400146-.2299805-.2000122-.3498535-3.2600098-6.4899902-.7199707-17.8400879 7.8300171-19.0700684 4.210022-.6098633 8.4899902-.5898438 12.7399902-.5698242 7.789978.0397949 15.5700073.4199219 23.3800049.8798828.5300293.0300293 1.0599976.0698242 1.5800171.1298828 5.8900146.6000976 12.1300048 2.8100585 15.5499878 7.4599609z" fill="#e8edef"/></g><g><path d="m51.1351547 58.971962c-.710022.1948433-1.5.2063065-2.3599854-.0111809-4.2900391-1.1223793-8.7300415 1.2478943-10.3300171 6.0798454-.2900391.881691-.710022 1.6031952-1.210022 2.1639633-2.3399658-3.3892136-3.4500122-7.9349098-1.7600098-11.5530739 3.1000368-6.6411743 12.1199953-2.7367553 15.6600343 3.3204461z" fill="#e8edef"/></g><g><path d="m74.2251205 60.0026474c-3.4699707.400589-8.4599609.2862549-9.5999756 4.7173386-.5800171 2.244194-1.9500122 3.4694443-3.4899902 3.8703156-1.2900391-2.9313202-1.6500244-6.2632294-.3500366-9.0570107 2.5700073-5.5076142 9.2300415-3.7559815 13.4400024.4693565z" fill="#e8edef"/></g><g><path d="m104.3551254 62.0749245c-1.3999634 1.167942-3.289978 1.591732-5.25.4925575-3.4599609-1.9350166-7.6300049-1.0533295-11.2699585-.3550224.0299683-1.2367134.2799683-2.4387589.7999878-3.549675 3.1099854-6.6752777 12.2199707-2.6906319 15.7199707 3.4121399z" fill="#e8edef"/></g><g><path d="m42.8451157 80.258255c-.4400024.3098145-.9299927.5700684-1.4599609.7600098-2.3699951.8798828-6.3500366 2.3398438-7.6199951 4.6599121-.460022.8400879-1.0400391 1.4401855-1.6799927 1.8300781-.4600239-1.880127-.3600483-3.8100586.5499878-5.5100098 1.9699706-3.6999511 6.369995-3.6499023 10.2099609-1.7399902z" fill="#e8edef"/></g><g><path d="m67.6751328 82.6581573c-.6400146 1.2900391-1.8599854 2.3100586-3.2399902 2.8300781-.039978.0100098-.0700073.0200195-.1099854.0400391-.0300293.0200195-.0599976.0397949-.1000366.0598145-.2699585.170166-.5599976.3100586-.8299561.4902344-.1199951.0698242-.210022.1298828-.2700195.1799316-.1799927.1499023-.3499756.3000488-.5200195.4599609-.2299805.2299805-.4400024.4699707-.6599731.6999512-.0200195.0200195-.0300293.0300293-.0499878.0500488-.0200195.0500488-.0500488.0998535-.0900269.1699219-.3200073.5500488-.6300049 1.1000977-.8900146 1.6901855-.5700073 1.2797852-1.7399902 2.0200195-3.039978 2.2900391-.9400024-2.3200684-1.0800171-4.8400879.0700073-6.9902344 1.8900145-3.5498046 6.0100096-3.6499023 9.7299804-1.9699707z" fill="#e8edef"/></g><g><path d="m97.3851547 83.6681671c-3.5100098 1.2001953-8.2800293 3.0600586-9.8300171 6.7700195.0800171 1.1899414-.2600098 2.2299805-.8699951 3.0500488-1.7199707-2.7700195-2.3599854-6.119873-.8900146-8.8601074 2.2100219-4.1599121 7.4800415-3.5798339 11.5900268-.9599609z" fill="#e8edef"/></g><g><path d="m42.1551132 102.9481964c-1.5699463.8601074-2.8199463 1.6899414-4.0199585 2.8200684-.7300415.6899414-1.4400024 1.4199219-2.0599976 2.1999512-.2000122.25-.6700439.9499512-.7300415 1.1699219-.3399658 1.4299316-1.3799438 2.5500488-2.6599731 3.1501465-1.0399799-2.4101563-1.2399921-5.0400391-.0499878-7.2800293 1.8599854-3.4799806 5.8599854-3.6398927 9.5199585-2.0600587z" fill="#e8edef"/></g><g><path d="m68.205162 106.7782745c-3.2700195 1.2800293-6.5900269 2.8798828-8.5900269 5.7600098-.5299683.7600098-1.2000122 1.3798828-1.960022 1.8100586-.5299683-1.9602051-.4599609-3.9799805.4800415-5.75 1.9500123-3.6501465 6.2600099-3.6501465 10.0700074-1.8200684z" fill="#e8edef"/></g><g><path d="m97.8551254 107.8083038c-.2299805.1298828-.4799805.2399902-.7299805.3398438-3.1400146 1.25-6.210022 3.0500488-8.8400269 5.1699219-.8199463.6601563-1.75 1.1201172-2.6999512 1.3100586-.6100464-2.0400391-.5800171-4.1699219.4099731-6.0297852 2.2600099-4.25 7.7100221-3.5500488 11.8599855-.7900391z" fill="#e8edef"/></g><g fill="#202020"><path d="m115.3959045 97.0009384c-.0053711-2.3669434-.0109253-4.8337402-.0167847-7.4047852-.3052444-67.9446487.1626968-65.2069778-1.1028442-71.1083984-2.0555191-9.2819738-7.082962-12.6623125-16.4387817-13.6625977-8.8606873-.9783547-28.2664261-2.3046491-44.7227745-2.499512-3.265625-.0266113-6.5317383-.0732422-9.9318848.020752-10.5039825.365346-19.7406559 2.777727-21.8087177 13.127682-.3687744 1.8415527-.4891357 3.6591797-.543335 5.4282227-.6038952 41.088131-2.256691 59.0896034-.2963867 80.4665527.6221313 6.1789551 1.6837769 12.2875977 4.4440308 17.5715332 1.3953857 2.6096191 3.3192139 4.954834 5.597229 6.6323242 10.0818882 7.5919113 36.7185059 7.597847 47.0089111 6.7624435 1.2597656-.114502 1.9187622-.2092285 1.9157715-.2792969-.036026-.8801117-35.6696892 1.2679291-47.6385498-8.1581955-2.0131836-1.5559082-3.6309814-3.612793-4.864563-6.010498-2.4258423-4.8503418-3.3826294-10.7089844-3.8826294-16.7492676-1.6104774-21.4034882.3340912-40.0521011 1.295105-80.1132813.5715408-15.8264774 11.531847-14.8605846 28.6479511-14.810058 15.7662849.2835217 35.619915 1.6758685 44.3414879 2.6540523 7.6339493.8072538 11.2640991 3.0461063 12.9036255 10.4873047 1.2066269 5.5371189.6788788 8.1537247.9243164 34.1347656.1536255 13.8776894.2858276 25.819828.3995972 36.0964394.0341187 2.5693359.0668945 5.0344238.0983276 7.3996582.1360703 9.6223068-1.4741974 18.2246628-8.1812134 25.1271973-4.7164536 5.2820282-11.9669724 7.8398056-19.0222778 8.6591721-.9499512.1164551-1.7215576.2236328-2.3479614.3234863-2.5061646.3989258-2.6858521.6784668-2.6732178.9592285.0125732.2807617.2091675.5371094 2.7651367.623291.6391602.0214844 1.4259644.0324707 2.3946533.0302734 7.3536148-.0592804 13.9730453-2.1757202 19.4422607-6.8718185.5432739-.4938965 1.1471558-.9580078 1.6819458-1.5200195 7.5758134-7.3810121 9.6272507-16.8359834 9.6115723-27.3166505z"/><path d="m86.8193054 45.7384834c23.3558273-2.0599365 20.4557114-18.577816 12.9586792-25.3583984-2.4656982-2.1364746-4.8384399-3.1660156-6.7391968-3.8110352-1.9141235-.6398926-3.4100342-.9069824-4.5478516-1.0319824-1.1365356-.1386719-1.9225464-.1228027-2.4594116-.0786133-1.076416.1132813-1.1729736.3713379-1.2027588.6508789s.0253296.5563965.9898071.9199219c.4787598.1936035 1.1881104.4013672 2.1987305.7351074 1.0125732.3186035 2.3366699.7561035 3.9744873 1.4873047 1.6295166.7285156 3.5982056 1.7878418 5.4830933 3.5981445 4.0316772 4.0536976 12.4983826 20.4021225-21.0369873 18.9748535-1.9644775-.0849609-4.0737305-.2277832-6.3037109-.4221191-2.2321167-.1838379-4.5675659-.4616699-7.0958824-.6577148-4.9277954-.3933105-10.1819458-.6950684-15.1334229-2.1416016-5.3535576-1.5720291-8.3680687-4.3515129-8.2735596-10.25-.1857491-10.4261703 5.9729729-11.5309124 14.6095581-11.9230957 2.4593506-.1062012 4.8746948-.135498 7.1594849-.1730957 4.5734825-.0588379 8.7004356-.0234375 12.1693687.0092773 6.9450073.0695801 11.2348022.1027832 11.2590332-.1569824.0274048-.3000488-4.2557373-.8701172-11.1881104-1.4267578-3.4693604-.2766113-7.6080933-.5441895-12.216671-.7023926-2.3059692-.0705566-4.7106934-.1469727-7.2462769-.1396484-7.7628593.038929-14.8319359.4479837-17.2498169 9.9416504-.246521.7307129-.3381958 1.4931641-.4942017 2.2451172-.0718994.762207-.1970825 1.5241699-.1792603 2.2963867-.2818909 7.4066696 3.5980835 11.6133575 10.5283203 13.8603516 5.5635376 1.729248 11.0181274 2.0783691 15.918335 2.536377 2.4567833.2492676 4.8222008.4892578 7.0707359.7172852 5.4640048.5100516 11.531586.7926482 17.0474856.3007811z"/><path d="m52.9772682 63.5507393c.203064-.736084.270752-1.8737793.0009766-3.2329102-.5441284-2.7089844-2.5997925-6.1745605-6.1680908-8.5524902-1.7702637-1.1711426-3.9556885-2.157959-6.5437622-2.1201172-1.2791748.027832-2.6618652.3999023-3.8140259 1.173584-1.1566162.767334-2.0141602 1.8603516-2.5695801 2.9587402-1.173645 2.2155762-1.3422241 4.6708984-1.0687866 6.7451172.2709961 2.1005859.9753418 3.9023476 1.7738647 5.3549843 1.427124 2.675293 3.3839722 4.6264648 5.4871216 5.9194336 4.8464775 2.9563293 10.3204842.7271042 12.487854-3.7473145.6553345-1.5002441.6486816-2.3754883.5197754-2.8327637-.1297607-.4602051-.3868408-.536377-.6607056-.5986328-.2739258-.0625-.5454712-.0844727-.8693237.1838379-.3168335.2646484-.703186.8234863-1.4448242 1.7424316-2.7199707 3.0795212-4.7515602 2.9659119-6.9473267 2.3688965-.3304443-.1425781-.6729736-.3359375-1.0244751-.5327148-1.3703003-.9013672-2.87854-2.3742676-3.9658813-4.4404335-.6168823-1.1108398-1.1713867-2.4855957-1.4067993-3.9848633-.2421875-1.4897461-.173584-3.1125488.4807129-4.5095215.6208496-1.4301758 1.6766968-2.2751465 3.2175293-2.4294434 1.5362549-.1582031 3.3307495.3774414 4.8538208 1.2102051 3.1248169 1.6674805 5.2649536 4.3869629 6.1437378 6.5439453.9122925 2.190918.6351318 3.788578.9628296 3.8476601.1229858.0292969.3665771-.3278808.5553588-1.0676307z"/><path d="m37.6926003 96.5534286c2.0853271.9814453 4.3727417 1.2026367 6.0915527.7607422 1.7401123-.3994141 3.0074463-1.1875 3.9263916-1.954834.9140625-.7866211 1.5028687-1.5688477 1.8759766-2.2507324.7394409-1.3757324.7471313-2.2387695.6362915-2.677002-.1185303-.4470215-.3743286-.5275879-.6460571-.5986328s-.5427856-.1013184-.8665771.1242676c-.8337364.5641937-2.2426567 3.1061478-5.6478882 3.6743164-.5304565.0720215-1.0991821.1179199-1.6939087-.0234375-.1495361-.0292969-.3014526-.0356445-.4575806-.0769043-.156311-.0505371-.3155518-.1020508-.4776611-.154541-.3282471-.0708008-.6550903-.2695313-1.0019531-.4143066-6.0072174-2.9341583-8.0523891-12.4718552-1.7952881-13.0483398 1.4944458-.1435547 3.1876221.2641602 4.6739502.9221191 3.0209351 1.3190918 5.2944946 3.5805664 6.2382813 5.5 1.0100098 1.934082.7010498 3.4309082 1.0286255 3.4968262.1182861.0332031.3774414-.2905273.5588989-.9916992.1914673-.6936035.2528687-1.7941895-.1025391-3.0598145-.670166-2.5544434-2.9627686-5.5544434-6.4244385-7.5153809-1.7290649-.970459-3.7801514-1.7402344-6.1257324-1.7255859-1.1625977.0134277-2.4107056.2634277-3.5439453.8647461-7.0410596 3.6624832-4.3635808 15.3780136 3.753601 19.1481933z"/><path d="m47.7835426 104.4479599c-1.1383057-1.144043-2.6263428-2.3044434-4.6174927-3.2290039-.9915771-.4599609-2.1230621-.8640137-3.4222412-1.0979004-9.6280155-1.5578003-13.0347328 9.0998077-6.3257446 16.4621582 1.4534912 1.5834961 3.2354126 2.8605957 5.2184448 3.5627441.9884644.3486328 2.0283203.5429688 3.0500488.536377 1.0175171-.0056152 1.97052-.2114258 2.8135986-.5263672 1.6945801-.6320801 2.9411011-1.6806641 3.7585449-2.6950684.8148804-1.029541 1.2099609-2.0227051 1.3583984-2.71875.1550903-.6992188.0786133-1.105957-.0420532-1.1340332-.3053589-.0913086-.7817383 1.3515625-2.4558105 2.7507324-.8311768.682373-1.9588623 1.3300781-3.2797241 1.6179199-1.3287964.3088379-2.7493896.1662598-4.131958-.5039063-8.462532-3.9764557-7.9713631-16.8961563 1.8291626-12.6120605 1.5272217.6540527 2.7352295 1.5019531 3.6654663 2.3105469 1.8725586 1.6447754 2.6046753 3.0939941 2.989502 4.0422363.368103.9667969.4882813 1.5415039.6696777 1.8806152.1873169.3439941.4407959.447998.7136841.513916.2729492.065918.5356445.1184082.8458862-.2299805.1536865-.1755371.3375854-.453125.4464111-.8986816.1357422-.442627.2136841-1.0566406.1450806-1.8457031-.1253661-1.5700682-.9475707-3.8840331-3.2288818-6.1857909z"/><path d="m78.2865906 67.4347763c.203064-.736084.270752-1.8737793.0009766-3.2329102-.5441284-2.7089882-2.5997925-6.1745644-6.1680908-8.552494-1.7702637-1.1711426-3.9556885-2.157959-6.5437622-2.1203613-1.2791748.0280762-2.6618614.3999023-3.8140221 1.173584-1.1566162.767334-2.0141602 1.8603516-2.5695801 2.9587402-1.173645 2.2155762-1.3422241 4.6708984-1.0687256 6.7453651.9118004 7.0684738 7.6554985 14.1378632 13.8298912 12.3913574 1.9035034-.4870605 3.2120361-1.4462891 4.1176758-2.342041.9108887-.9091797 1.4470215-1.7910156 1.8012085-2.5222168.6553345-1.5002441.6486816-2.3754883.5197754-2.8327637-.1297607-.4604492-.3868408-.536377-.6607056-.598877-.2739258-.0625-.5454712-.0842285-.8693237.184082-.3168335.2646484-.703186.8232422-1.4448242 1.7424316-6.2459183 7.071579-12.5050926-1.2433319-13.3444786-6.5891151-.2421875-1.4897461-.173584-3.112793.4807129-4.5097656.6208496-1.4301758 1.676754-2.2749023 3.2175865-2.4291992 1.5361938-.1582031 3.3306885.3774414 4.8537598 1.2099609 3.1248169 1.6674805 5.2649536 4.387207 6.1437378 6.5441933.9122925 2.1906738.6351318 3.7885742.9628296 3.8474121.1230468.0295411.366577-.3276366.5553588-1.0673827z"/><path d="m68.9179916 81.658165c-1.7290573-.970459-3.7800827-1.7402344-6.1256599-1.7255859-1.1626587.0134277-2.4107666.2634277-3.5440063.8647461-6.9486542 3.6144104-4.5179939 15.3070908 3.7536621 19.1479492 2.0853233.9816895 4.3726768 1.2028809 6.0914879.7607422 1.7401123-.3994141 3.0074463-1.1872559 3.9263916-1.9545898.9140625-.7868652 1.5028687-1.5688477 1.8759766-2.2509766.739502-1.3757324.7471313-2.2385254.6362915-2.677002-.1185303-.4470215-.3743286-.5273438-.6460571-.5983887s-.5427856-.1013184-.8665771.1240234c-.8316879.5634384-2.2449341 3.1067734-5.6478882 3.6745605-.5304565.0720215-1.0991821.1179199-1.6939087-.0236816-.1495361-.0292969-.3014526-.0354004-.4575806-.0769043-.156311-.0505371-.3155518-.1018066-.4776611-.1542969-.3282471-.0710449-.6550903-.2695313-1.0019531-.4145508-6.1951828-3.0261002-7.9155655-12.4842148-1.7952843-13.0480957 1.494442-.1435547 3.1876183.2641602 4.6739464.9221191 3.0209351 1.3190918 5.2944946 3.5805664 6.2382813 5.5 1.0100098 1.934082.7010498 3.4306641 1.0286255 3.4968262.1182861.0332031.3774414-.2905273.5588989-.9916992.1914673-.6936035.2528687-1.7941895-.1025391-3.0598145-.6701662-2.5544432-2.9627687-5.5544432-6.4244463-7.5153807z"/><path d="m75.4449768 116.0070419c.1914673-.6936035.2528687-1.7941895-.1025391-3.0598145-.670166-2.5544434-2.9627686-5.5544434-6.4244461-7.5153809-1.7290573-.970459-3.7800827-1.7402344-6.1256599-1.7255859-1.1626587.0134277-2.4107666.2634277-3.5440063.8647461-1.1367798.5915527-2.0888062 1.5334473-2.7266235 2.5559082-7.416626 10.2363892 11.7779884 25.2024612 18.3741417 13.1474609.739502-1.3757324.7471313-2.2387695.6362915-2.677002-.1185303-.4470215-.3743286-.5273438-.6460571-.5983887-.2717285-.0712891-.5427856-.1015625-.8665771.1240234-.3239746.2192383-.6969604.7033691-1.4561768 1.4624023-9.1801987 8.727684-19.0689201-10.6348801-9.6180992-11.5056152 1.494442-.1435547 3.1876183.2641602 4.6739464.9221191 3.0209351 1.3190918 5.2944946 3.5805664 6.2382813 5.5 1.0100098 1.934082.7010498 3.4309082 1.0286255 3.4970703.1182859.0329593.3774412-.2907712.5588987-.9919431z"/><path d="m99.5456848 54.7663155c-1.06073-.5351563-2.2134399-1.107666-3.6469116-1.3730469-1.4033203-.2731934-3.0854492-.3654785-4.8392944.2849121-.4560547.2231445-.9681396.3989258-1.402832.7248535-.4169922.3378906-.932251.6318359-1.2657471 1.0756836-.7893677.8215332-1.3338623 1.8076172-1.7822876 2.8442383-.8334961 2.1286621-.8905029 4.5429688-.3868408 6.77808.5050049 2.2468262 1.4980469 4.3713379 2.8759766 6.1867676 1.3527832 1.8269043 3.1087646 3.3674316 5.1526489 4.3291016 1.0438232.4450684 2.1467285.7509766 3.2670288.7805176 2.7607269.0795059 5.3736649-1.4919357 6.8843994-3.7294922.7813721-1.1552734 1.1281738-2.2275391 1.2536011-2.9709473.1303101-.7463379.0531006-1.1728516-.0703735-1.1984863-.3157959-.0881348-.7489624 1.4926758-2.4104004 3.1660156-1.4196854 1.4305115-3.5023346 2.4401932-5.4812622 2.1481934-.7147827-.1022949-1.4385986-.3879395-2.1502075-.7687988-2.8409424-1.6687012-5.0951538-5.2875977-5.6382446-8.6608887-.291748-1.6894569-.1365967-3.3295937.4047852-4.5700722.5952759-1.2680664 1.3518677-2.0231934 2.1956787-2.3273926 1.579895-.5839844 3.6195679.0073242 5.1491089.7937012 1.5638428.8220215 2.7789307 1.8564453 3.6984253 2.8190918 1.8062134 1.9838867 2.5297852 3.6352577 2.8795776 4.7419472.3521118 1.1201172.447998 1.7617188.6467285 2.1325684.1762085.3708496.4311523.467041.7058105.5256348.2747192.0585938.5402832.0998535.8585815-.2695313.2883301-.3666992.6881104-1.192627.6325684-2.8427734-.0584717-1.6342812-.7376099-4.05933-2.8978882-6.757328-1.1008302-1.3193361-2.5680543-2.7031252-4.6326295-3.862549z"/><path d="m96.7704773 81.658165c-1.7290039-.970459-3.7800903-1.7402344-6.1256714-1.7255859-1.1626587.0134277-2.4107666.2634277-3.5439453.8647461-1.1367798.5913086-2.0888062 1.5334473-2.7266846 2.5559082-3.1146774 4.2967606-.6146469 13.2975769 6.4802856 16.592041 2.0853271.9816895 4.3727417 1.2028809 6.0915527.7607422 1.7400513-.3994141 3.0074463-1.1872559 3.9263306-1.9545898.9141235-.7868652 1.5029297-1.5688477 1.8759766-2.2509766.739502-1.3757324.7471313-2.2385254.6362915-2.677002-.1185303-.4470215-.3743286-.5273438-.6459961-.5983887-.2717285-.0710449-.5428467-.1013184-.8665771.1240234-.8307877.5628281-2.2450333 3.1067734-5.6478882 3.6745605-.5304565.0720215-1.0991821.1179199-1.6939087-.0236816-.1495972-.0292969-.3014526-.0354004-.4575806-.0769043-.1563721-.0505371-.3155518-.1018066-.4777222-.1542969-.3282471-.0710449-.6550293-.2695313-1.0019531-.4145508-6.051033-2.9556885-8.0120392-12.4753189-1.7952271-13.0480957 1.4943848-.1435547 3.1876221.2641602 4.6739502.9221191 3.020874 1.3190918 5.2944336 3.5805664 6.2382813 5.5 1.0099487 1.934082.7010498 3.4306641 1.0286255 3.4968262.1182251.0332031.3774414-.2905273.5588989-.9916992.1914063-.6936035.2528687-1.7941895-.1025391-3.0598145-.6701659-2.5544432-2.9628295-5.5544432-6.4244994-7.5153807z"/><path d="m103.2975159 116.0070419c.1914063-.6936035.2528687-1.7941895-.1025391-3.0598145-.670166-2.5544434-2.9628296-5.5544434-6.4244995-7.5153809-1.7290039-.970459-3.7800903-1.7402344-6.1256714-1.7255859-1.1626587.0134277-2.4107666.2634277-3.5439453.8647461-3.117218 1.6221237-4.6981277 5.7185211-3.9349365 9.067627.343811 2.0222168 1.1381226 3.7021484 2.0007935 5.0212402 5.5967941 8.2444305 14.4911346 7.2635117 17.581604 1.614502.739502-1.3757324.7471313-2.2387695.6362915-2.677002-.1185303-.4470215-.3743286-.5273438-.6459961-.5983887-.2717285-.0712891-.5428467-.1015625-.8665771.1240234-.3239746.2192383-.6970215.7033691-1.4561768 1.4624023-4.147995 3.9432068-8.8098373 2.3060455-11.8433838-2.1586914-3.1207733-4.7358398-1.3855133-9.0142517 2.2252808-9.3469238 1.4943848-.1435547 3.1876221.2641602 4.6739502.9221191 3.020874 1.3190918 5.2944336 3.5805664 6.2382813 5.5 1.0099487 1.934082.7010498 3.4309082 1.0286255 3.4970703.1182249.0329592.3774412-.2907713.5588988-.9919432z"/></g></g></svg>