<svg id="Layer_1" enable-background="new 0 0 135 135" height="512" viewBox="0 0 135 135" width="512" xmlns="http://www.w3.org/2000/svg"><g><g><path d="m129.9881897 105.380455c-.1300049.7700195-.2999878 1.5102539-.5299683 2.2402344-.3099976.9399414-.7000122 1.8398438-1.2200317 2.6899414-1.5899658 2.5898438-4.0800171 4.3100586-6.8900146 5.5498047-.3200073.1501465-.6399536.2900391-.9699707.420166-1.7800293.7099609-3.6600342 1.25-5.4899902 1.7099609-19.5500488 4.920166-41.4299927 5.0300293-62.2900352 4.2099609-5.6799927-.2199707-11.289978-.5100098-16.75-.8000488-5-.2597656-10.2099609-.7099609-14.4899902-3.3198242-5.9899912-3.6501465-8.6699839-10.4501953-10.1699839-17.5400391-.3300171-1.5100098-.5900269-3.0300293-.8300171-4.5400391-.1499634-.9399414-.2799683-1.8701172-.4099731-2.7900391-1.5800173-11.4899901-3.1600343-22.9799803-4.7399904-34.4699706-1.3700559-9.9899902-1.2800291-20.0700684 8.8799438-25.3400879 4.3800058-2.2700195 9.3600473-3.0598145 14.250001-3.75 20.460022-2.8898926 41.0800133-4.5898438 61.7300377-5.119873 2.3699951-.0600586 4.7299805-.1000977 7.0999756-.130127 10.2700195-.119873 22.1099854.8000488 28.1900024 9.0800781 3.5700073 4.8798828 4.2200317 11.1601563 4.3800049 17.2900391.0200195.8798828.0300293 1.7600098.039978 2.6298828.1600342 12.4501953.3200073 24.9101563.4800415 37.3601074.0100098.5400391.0199585 1.0800781.0199585 1.619873.0300293 1.9702148.0500488 3.9401855.0800171 5.9101563.0300293 2.3500977.0300293 4.7900391-.3699951 7.0898438z" fill="#2aedff"/></g><g><g><path d="m117.9281921 63.0306015c-1.8599854 2.8898926-4.9199829 6.8601074-9.75 12.4599609-.8099976.9699707-1.9299927 2.5500488-3.3400269 4.3898926-.3499756.4501953-.7299805.9401855-1.1399536 1.4301758-.210022.25-.4200439.5100098-.6400146.7600098-.2399902.2700195-.3900146.4599609-.8599854.9499512-1.5700073 1.6599121-3.3900146 3.2299805-5.4800415 4.25-2.0799561 1.0300293-4.4499512 1.4899902-6.8800049 1.1098633-1.2099609-.1999512-2.3599854-.6699219-3.4799805-1.2197266-1.0800171-.6401367-2.1599731-1.3701172-3.0800171-2.4001465-.9599609-.9499512-1.7999878-2.1398926-2.6099854-3.3498535-.2000122-.3100586-.3999634-.6201172-.5899658-.9401855l-.3300171-.5200195c-.1799927-.3098145-.3699951-.6098633-.5599976-.9199219-.1000366-.1599121-.1500244-.2399902-.1699829-.2700195 0 0-.0100098 0-.0100098-.0100098v-.0100098c0-.0100098-.0100098-.0100098-.0100098-.0200195-.0100098-.0100098-.0200195-.0200195-.039978-.0300293h-.0100098s-.0100098 0-.0400391.0300293c-.1399536.130127-.2799683.25-.4400024.4001465-.2999878.2900391-.6199951.6098633-.9499512.9599609-1.3400269 1.3898926-2.8800049 3.119873-4.4400024 4.8300781-1.5700073 1.7197266-3.210022 3.5097656-4.9100342 5.3098145-1.7000122 1.7900391-3.4699707 3.6101074-5.3300133 5.420166l-1.4199829 1.3498535-1.7699585 1.6398926c-1.7000122 1.5400391-3.4400024 3.0200195-5.2200317 4.1000977-1.789978 1.1000977-3.539978 1.7199707-5.2399902 1.8000488-.8300171.0400391-1.7700195-.0400391-2.6400146-.4001465-.4099731-.1599121-.710022-.3999023-1.0599976-.6098633-.3300171-.2299805-.6500244-.5-.9699707-.7800293-1.2700195-1.1699219-2.25-3-3.1000366-4.8601074-.2199707-.4599609-.4199829-.9299316-.6099854-1.4199219-.2000122-.4699707-.3900146-.9499512-.5599976-1.4399414-.1799927-.4799805-.3599854-.9499512-.5100098-1.3999023l-.2399902-.6801758-.1500244-.4499512-.0599976-.2099609-.0299683-.1000977-.0100098-.0300293-.0200195-.1398926-.039978-.2800293c-.039978-.1899414-.0700073-.3898926-.1099854-.5898438-.0800171-.4101563-.1799927-.8500977-.3300171-1.3100586-.1500244-.4399414-.4000244-.9399414-.8300171-1.1101074-.4199829-.1599121-.7999878-.0100098-1.1499634.1501465-.6900024.3598633-1.3699951.8898926-2.1700439 1.4399414-.0499878.0400391-.0799561.0498047-.1499634.1098633l-.2600098.2202148c-.1699829.1499023-.3400269.2998047-.5.4399414-.3300171.2900391-.6600342.5698242-.9799805.8398438-.6500244.5500488-1.2700195 1.0700684-1.8700562 1.5700684-4.7799683 3.9599609-8.0499878 6.130127-8.7799683 5.4599609-.7299805-.6699219 1.1300049-4.119873 4.6500244-9.2399902.4400024-.6298828.9099731-1.2998047 1.3899536-2 .25-.3398438.5-.6899414.75-1.0498047.1300049-.1801758.2600098-.3601074.3900146-.5400391l.2000122-.2700195.2999878-.380127c.8300171-1.0500488 1.7000122-2.2099609 2.6699829-3.3200684.710022-.8198242 1.4700317-1.5698242 2.2800293-2.1899414.289978-.2299805.5899658-.4399414.8999634-.6298828 1.1400146-.7001953 2.4200439-1.2600098 3.9500122-1.1801758.7399902.0400391 1.4899902.25 2.1199951.5600586.6500244.3100586 1.2300415.7001953 1.7800293 1.1699219.539978.4702148 1.0700073 1.0200195 1.5700073 1.670166.25.3200684.4899902.6699219.7199707 1.0400391.2399902.369873.4700317.7399902.6900024 1.1499023.4400024.8000488.8599854 1.6599121 1.2700195 2.5300293.3699951.8300781.75 1.6499023 1.1300049 2.4899902l.1799927.369873.0899658.1401367c.0600586.1000977.1100464.1799316.1500244.2399902l.2800293.3601074c.1900024.2299805.3599854.4199219.539978.5698242.0999756.0800781.1799927.1501465.289978.1899414.1300049.0200195.2800293-.079834.3900146-.1699219.2299805-.1999512.4100342-.4299316.5499878-.6398926.1500244-.2102051.2600098-.4001465.3500366-.5700684l.0299683-.0600586c0-.0100098.0700073-.0800781.1099854-.1298828l.1400146-.1601563.5800171-.6398926 1.1599731-1.3300781c1.5400391-1.7800293 3.0599976-3.6298828 4.5599976-5.4699707 1.5-1.8598633 2.9800415-3.6999512 4.4300537-5.4899902 1.4799767-1.829834 2.8699913-3.5700684 4.4799767-5.4199219.4099731-.4599609.8399658-.9299316 1.289978-1.4001465.2200317-.2397461.4700317-.4799805.710022-.7199707.1499634-.1499023.3499756-.329834.5499878-.5100098l.5800171-.5200195c1.5700073-1.369873 3.289978-2.4799805 5.0499878-3.1899414 1.7700195-.6999512 3.5999756-.9699707 5.3599854-.8100586 1.7700195.1501465 3.4100342.7602539 4.8300171 1.5900879 1.3099976.7700195 2.4299927 1.8300781 3.4400024 2.9799805.4699707.6201172.9799805 1.1901855 1.3900146 1.8500977.2099609.3200684.4299927.6398926.6399536.9499512l.4300537.6999512c.2099609.3400879.4099731.6799316.6199951 1.0100098l.2599487.4301758h-.0099479v.0197754c-.0100098.0300293.0099487.1000977.0699463.1201172.0300293.0100098.0600586.0200195.1100464.0100098-.0700073.0800781.1699829-.1601563.3200073-.3100586.1599731-.1699219.3199463-.3398438.4799805-.5100098.3300171-.369873.6599731-.7299805.9799805-1.079834 1.3300171-1.5 2.6199951-3.1101074 4.3500366-4.8200684 5.3599854-5.0900879 9.1900024-8.3400879 11.9799805-10.3300781 3.5700073-2.5400391 5.4699707-3.0300293 6.75-2.7099609.7299805.1899414 1.25.6398926 1.7700195 1.1398926 1.4400024 1.3701173 2.5599975 2.8100587-1.1500245 8.590088z" fill="#f7941e"/></g></g><g><path d="m90.0682068 24.5306015c-.2600098 2.7700195-2.6799927 5.630127-6.2600098 5.0600586-9.9899902-1.6000977-19.840023 1.3999023-29.1599693 4.7199707-8.7900391 3.1298828-18.75 5.7099609-26.4800415 11.0898438-16.2699585 11.3100586-16.6300049 33.4902344-15.289979 51.2099609.1400146 1.8400879-.5800171 3.1501465-1.6900024 3.9301758-.3300171-1.5100098-.5900269-3.0300293-.8300171-4.5400391-.1499634-.9399414-.2799683-1.8701172-.4099731-2.7900391-1.5800172-11.4899902-3.1600342-22.9799804-4.7399903-34.4699707-1.3700559-9.9899902-1.2800291-20.0700684 8.8799438-25.3400879 4.3800058-2.2700195 9.3600473-3.0598145 14.250001-3.75 20.460022-2.8898925 41.0800133-4.5898437 61.7300377-5.119873z" fill="#7df9ff"/></g><g><path d="m117.308197 53.300621c-1.8910217 2.5468521-3.3882828 5.0971069-5.5012894 7.4858971-2.2358017 2.5276222-4.5184937 5.0137672-6.8464355 7.4567909-2.4776535 2.6000977-5.0666428 5.1960144-8.2678757 6.8243103s-7.1610413 2.1602173-10.3673248.5418854c-2.0061188-1.0125656-3.6324081-2.8026123-5.8106308-3.3549957-1.8014908-.4568481-3.7450409.0259781-5.3488464.965065-3.7931366 2.2210236-7.285759 5.9060898-10.3574142 9.0254364-3.5247536 3.579483-6.9554939 7.2741547-10.8469391 10.4661484-1.2813263 1.0510101-2.8060226 1.9311142-4.4626808 1.9746933-2.2996178.0604935-4.363327-1.5151215-5.6812935-3.4005508-1.3179665-1.885437-2.0785294-4.0947647-3.1296997-6.1409683-1.0594101-2.062233-3.0725822-5.0532227-5.6595955-5.1537704-.1199951 0-.2299805-.0100098-.3399658-.0300293.289978-.2299805.5899658-.4399414.8999634-.6298828 1.1400146-.7001953 2.4200439-1.2600098 3.9500122-1.1801758.7399902.0400391 1.4899902.25 2.1199951.5600586.6500244.3100586 1.2300415.7001953 1.7800293 1.1699219.539978.4702148 1.0700073 1.0200195 1.5700073 1.670166.25.3200684.4899902.6699219.7199707 1.0400391.2399902.369873.4700317.7399902.6900024 1.1499023.4400024.8000488.8599854 1.6599121 1.2700195 2.5300293.3699951.8300781.75 1.6499023 1.1300049 2.4899902l.1799927.369873.0899658.1401367c.0600586.1000977.1100464.1799316.1500244.2399902l.2800293.3601074c.1900024.2299805.3599854.4199219.539978.5698242.0999756.0800781.1799927.1501465.289978.1899414.1300049.0200195.2800293-.079834.3900146-.1699219.2299805-.1999512.4100342-.4299316.5499878-.6398926.1500244-.2102051.2600098-.4001465.3500366-.5700684l.0299683-.0600586c0-.0100098.0700073-.0800781.1099854-.1298828l.1400146-.1601563.5800171-.6398926 1.1599731-1.3300781c1.5400391-1.7800293 3.0599976-3.6298828 4.5599976-5.4699707 1.5-1.8598633 2.9800415-3.6999512 4.4300537-5.4899902 1.4799767-1.829834 2.8699913-3.5700684 4.4799767-5.4199219.4099731-.4599609.8399658-.9299316 1.289978-1.4001465.2200317-.2397461.4700317-.4799805.710022-.7199707.1499634-.1499023.3499756-.329834.5499878-.5100098l.5800171-.5200195c1.5700073-1.369873 3.289978-2.4799805 5.0499878-3.1899414 1.7700195-.6999512 3.5999756-.9699707 5.3599854-.8100586 1.7700195.1501465 3.4100342.7602539 4.8300171 1.5900879 1.3099976.7700195 2.4299927 1.8300781 3.4400024 2.9799805.4699707.6201172.9799805 1.1901855 1.3900146 1.8500977.2099609.3200684.4299927.6398926.6399536.9499512l.4300537.6999512c.2099609.3400879.4099731.6799316.6199951 1.0100098 0 0 .2599487.4301758.25.4499512-.0100098.0300293.0099487.1000977.0699463.1201172.0300293.0100098.0600586.0200195.1100464.0100098-.0700073.0800781.1699829-.1601563.3200073-.3100586.1599731-.1699219.3199463-.3398438.4799805-.5100098.3300171-.369873.6599731-.7299805.9799805-1.079834 1.3300171-1.5 2.6199951-3.1101074 4.3500366-4.8200684 5.3599854-5.0900879 9.1900024-8.3400879 11.9799805-10.3300781 3.5700073-2.5400391 5.4699707-3.0300293 6.75-2.709961z" fill="#ffaf57"/></g><g><path d="m129.9881897 105.380455c-.4699707.6801758-.9799805 1.3400879-1.5100098 1.9902344.3300171.0698242.6500244.1499023.9800415.25-.3099976.9399414-.7000122 1.8398438-1.2200317 2.6899414-1.5899658 2.5898438-4.0800171 4.3100586-6.8900146 5.5498047-.1499634-.1098633-.289978-.2397461-.4199829-.3798828-.1799927.2700195-.3699951.5300293-.5499878.8000488-1.7800293.7099609-3.6600342 1.25-5.4899902 1.7099609-19.5500488 4.920166-41.4299927 5.0300293-62.2900352 4.2099609 6.8400269-1.079834 13.6500206-2.4099121 20.4000206-3.9799805 10.1900024-2.3601074 20.4799805-4.8798828 28.8599854-11.4799805 7.3800049-5.8100586 14.7800293-12.9099121 19.7200317-20.9599609 5.8099976-9.4699707 5.7599487-19.7099609 5.1799927-30.4699707-.1300049-2.4501953 1.2299805-3.9599609 2.9799805-4.5400391.0200195.8798828.0300293 1.7600098.039978 2.6298828.1600342 12.4501953.3200073 24.9101563.4800415 37.3601074-.2800293.4699707-.5800171.9299316-.8699951 1.3898926.2999878.0500488.5999756.130127.8899536.2299805.0300293 1.9702148.0500488 3.9401855.0800171 5.9101563.0300291 2.3500977.0300291 4.7900391-.3699953 7.0898438z" fill="#00e4ef"/></g><g><path d="m42.2981911 40.9405136c-1.8999634 3.0900879-6.960022 4.3601074-9.1300049 1.4399414-.7299805-.9799805-1-2.2197266-1.2299805-3.4199219-.3400269-1.7800293-.6300049-3.5600586-.8599854-5.3598633-.5700073-4.1899414-.8600464-8.420166-.8800049-12.6501465-.0200195-6.2800293 4.1300049-11.369873 9.6900024-5.0100098.4899902.5600586.9499512 1.3100586 1.3599854 2.1899414 2.8499757 6.0600587 3.7000123 18.5000001 1.0499879 22.8100587z" fill="#594a42"/></g><g><path d="m94.808197 40.9405136c-1.9099731 3.0900879-6.960022 4.3601074-9.1300049 1.4399414-.7399902-.9799805-1.0100098-2.2197266-1.2299805-3.4199219-.4299927-2.2800293-.7900391-4.5698242-1.0599976-6.869873-.4299927-3.6999512-.6600342-7.420166-.6799927-11.1401367-.0200195-6.2800293 4.1199951-11.369873 9.6799927-5.0100098.3200073.3701172.6300049.8200684.9199829 1.3300781 3.2100221 5.6401368 4.2899781 19.1499024 1.5000001 23.6699219z" fill="#594a42"/></g><g><path d="m41.2482033 18.130455c-4.1300049 3.2299805-6.3800049 8.8100586-8.460022 13.6601563-.3399658.8000488-.9599609 1.3999023-1.7099609 1.8100586-.5700073-4.1899414-.8600464-8.420166-.8800049-12.6501465-.0200195-6.2800293 4.1300049-11.369873 9.6900024-5.0100098.4899903.5600586.9499512 1.3100586 1.3599854 2.1899414z" fill="#75655e"/></g><g><path d="m93.1511154 16.9908161c-.3275452 2.4591084-4.2147827 5.2747059-4.9785385 8.1004906-.5146179 1.9040051-1.0721741 5.4563999-3.6332932 5.565506-1.5047989.0640774-1.152359-.1317081-1.4460831-1.4603367-.5697479-2.5772133-.3708572-5.6155262-.3849716-8.2457199-.0259247-4.8386784 2.5828629-9.6388779 7.9798813-7.0957689 2.0101548.9471979 2.6138001 2.0037374 2.4630051 3.1358289z" fill="#75655e"/></g><g fill="#202020"><path d="m6.2507772 76.8946228c2.9019165 18.5083008 3.5487061 19.2016602 4.1054078 19.1103516.5532227-.0910645.9216309-.8776855-1.2525635-19.5029297-.5732422-4.6503906-1.2839355-10.4162598-2.1651001-17.5651894-1.579051-12.6367874-.4069457-21.6940079 12.0406485-25.4631348 2.5021362-.7695313 5.2454224-1.2680664 8.1759033-1.685791.5353394-.074707 1.0942993-.1486816 1.6387329-.2231445.1374512 1.1850586.2866211 2.3225098.449646 3.3793945.2019653 1.3181152.4263916 2.5383301.6517334 3.6694336.2252197 1.0966797.4306641 2.2514648.9393311 3.4174805.4838867 1.1582031 1.404604 2.239502 2.4313984 2.8347168 1.0286865.6103516 2.0825806.8178711 2.9671021.8251953 1.7921143.0170898 3.0506592-.5454102 3.9647827-1.0708008 1.8164063-1.1313477 2.2984619-2.244873 2.442749-2.7893066.1170654-.5878906-.1020508-.7443848-.3386841-.8947754-.2366943-.1501465-.4967041-.2485352-.9296265-.0561523-.4503784.161377-1.0762939.6706543-2.4306641 1.1489258-1.2529907.4189453-3.8556519.8452148-4.6430054-1.4406738-.2408447-.6259766-.3961182-1.5495605-.5772705-2.673584-.1782837-1.0942383-.3615723-2.2717285-.5291138-3.5412598-.534687-4.0196228-2.4215755-17.5436153 1.2105103-19.3535156.4958496-.2270508 1.1602783-.1953125 2.0269165.276123 5.3819618 2.4260216 6.7093315 14.2427845 6.4884033 20.5588379-.0377808 1.5727539-.2488403 2.8068848-.4105225 3.6687012-.1958008.8378906-.3370361 1.3308105-.2056274 1.4125977.1032715.0705566.4956665-.2937012.973999-1.1240234.4371338-.8361816.9272461-2.1347656 1.21698-3.7756348.3356934-1.8005371.515564-4.0087891.4707031-6.4575195.4416504-.0493164.8805542-.0991211 1.3327026-.1464844 10.3568726-1.0849609 21.8746948-2.001709 34.5875854-2.5361328.2840271 4.3998337.8031845 8.1246605 1.5189209 11.7172852.2252197 1.0966797.4306641 2.2514648.9393311 3.4174805.4838257 1.1582031 1.4046021 2.239502 2.4313965 2.8347168 1.0286865.6103516 2.0825806.8178711 2.9671021.8251953 1.7921143.0170898 3.0506592-.5454102 3.9647217-1.0708008 1.8164673-1.1313477 2.2985229-2.244873 2.4428101-2.7893066.1170654-.5878906-.1020508-.7443848-.3386841-.8947754-.2366943-.1501465-.4967041-.2485352-.9296265-.0561523-.4503784.161377-1.0762939.6706543-2.4306641 1.1489258-1.2529907.4189453-3.8556519.8452148-4.6430054-1.4406738-.2408447-.6259766-.3961182-1.5495605-.5772705-2.673584-.1782837-1.0942383-.3615723-2.2717285-.5291138-3.5412598-.3376465-2.5383301-.6439819-5.4416504-.8200684-8.7607422-.13974-2.6866436-.7390976-9.2126198 2.0305786-10.5927734.4958496-.2270508 1.1602783-.1953125 2.0269165.276123.4246216.1914063.8413086.5712891 1.2697144.8884277.2737885.4947796 2.2089615 1.0660267 3.8255615 7.543457 1.1777344 4.5981445 1.5021973 9.0087891 1.3931274 12.1269531-.0377808 1.5727539-.2488403 2.8068848-.4105835 3.6687012-.1957397.8378906-.3369751 1.3308105-.2055664 1.4125977.1032715.0705566.4956665-.2937012.973999-1.1240234.4371338-.8361816.9272461-2.1347656 1.21698-3.7756348.4741211-2.5429688.6480713-5.8852539.2919922-9.5993652 3.8118896-.0373535 7.7440796.0407715 11.7381592.6589355 9.1391678 1.432663 15.5029221 5.2849121 17.7160645 14.3415527.6901855 2.8503418.9361572 5.9296875 1.0350952 9.1062012.1110229 6.4641113.2248535 13.0905762.3403931 19.8166542.5456085 32.2918015 1.2338867 35.5210419-1.7001343 39.619873-1.6901245 2.4177246-4.5237427 4.0246582-7.567749 5.1259766-21.3886795 7.8652649-60.5287247 6.2484055-81.8049316 5.3857422-4.9996338-.1689453-9.6406269-.4785156-13.4207783-2.1237793-3.7793579-1.6132813-6.4017334-4.4846191-8.0930777-7.3076172-1.6835938-2.859375-2.6311035-5.6203613-3.3016968-7.8891602-1.300354-4.5661621-1.7007446-7.199707-1.8775635-7.1665039-.0671997.010498-.0359497.6745605.1107178 1.9294434.154541 1.253418.4249268 3.0998535.9736328 5.447998.5548096 2.3408203 1.3900757 5.2104492 3.0449219 8.2817383.848999 1.5180664 1.9214468 3.0751953 3.3269033 4.5026855 1.4046021 1.4172363 3.1385498 2.7189941 5.1703491 3.6489258 4.0762939 1.9082031 8.9744263 2.326416 13.9663715 2.6149902 22.4877777 1.4295273 60.8078156 3.5650177 83.0090942-4.253418 1.6914673-.5883789 3.3743286-1.3439941 4.9726563-2.3361816 1.5859985-1.0039063 3.0908203-2.2915039 4.2415771-3.9013672 1.1621094-1.6064453 1.9171143-3.4765625 2.3233032-5.3200684.8284302-3.6603699.651825-4.1855164.3786011-36.3068848-.069519-6.7487831-.1380615-13.3977089-.204834-19.8835487-.085083-3.2890625-.3134766-6.6252441-1.0863647-9.9077148-2.5217438-10.6657085-10.1427994-15.7032146-20.9239502-17.4279785-4.5540771-.7141113-8.9095459-.7695313-12.9673462-.7202148-1.196167-5.9772587-5.6284561-12.9399939-11.2884521-10.7902832-4.0281754 1.8105001-4.7228088 6.8109894-4.6932983 11.2067871.0001831.0146484.0007935.0283203.0010376.0429688-12.809021.5490723-24.4116211 1.4987793-34.8411255 2.6328125-.3995361.043457-.7869873.0891113-1.1766357.1342773-1.4807243-12.7540493-7.3275757-13.6274147-7.5991821-13.9731445-.2051392-.0805664-.406189-.1643066-.6170654-.234375l-.6951294-.1328125c-.9238892-.189209-1.9721069-.0236816-2.8861694.3234863-5.0426464 2.2664642-4.8497372 9.2629261-4.5905781 14.2434082.0338135.637207.0786743 1.2441406.1229858 1.8520508-.6116943.0874023-1.2404175.1738281-1.8425903.2619629-2.9973755.4487305-5.9481812.9960938-8.7515259 1.8833008-14.6039912 4.5658529-16.2455988 15.605625-14.2410881 29.573242 1.0816653 7.1213417 1.9541018 12.864994 2.6577761 17.4975624z"/><path d="m20.5286694 100.1133728c.1499023.3476563.5823364.4855957.8404541.6547852.2537842.1694336.5360107.244873.8305664.2756348.2836914.0478516.6112671.0166016.9421387-.0200195.6937256-.1218262 1.526062-.4753418 2.4037476-1.0046387.8786011-.5234375 1.7940063-1.2355957 2.6466675-1.9133301l1.3430176-1.0854492c2.2398586-1.8250504 4.376585-4.2014999 6.5176411-5.5834961.2195435-.1411133.4385376-.2844238.6641846-.4072266l.3557129-.2023926c.0704346-.041748.098999-.050293.1454468-.0217285.0194702.0131836.0328369.032959.0460205.0527344.0071411.0144043.0090332.012207.0206909.0407715.0103149.0239258.0109253.0178223.0603638.1672363.1539917.4450684.2843628.9711914.4039917 1.5244141.9067459 3.9896927 2.0618591 8.1098099 4.7138062 10.8034668.5244751.5075684 1.0817261.9904785 1.6971436 1.3830566l.8105469.5192871c.2788696.1879883.8149414.456543 1.1676025.5693359 1.5830688.5463867 3.1137695.4990234 4.538147.236084 1.4338989-.2758789 2.7446899-.8242188 3.932312-1.4882813 3.1522522-1.7893906 5.9852562-4.5801468 8.7702026-7.2407227 1.7423706-1.7236328 3.4128418-3.5039063 5.1051025-5.2375488 14.0576401-14.9917755 7.8419189-12.39608 13.7625732-6.5249023 2.3832321 2.5673218 5.9367676 4.2436218 9.6185303 4.1142578 2.3328247-.0771484 4.5497437-.8601074 6.3795166-1.9848633 4.1723404-2.5689392 4.9320297-4.303154 14.2763062-16.1750488 3.7453613-4.7929688 6.6309204-8.870121 7.8163452-12.1992226.2854004-.829834.4465942-1.6262207.40271-2.3388672-.0362549-.7148438-.3059082-1.2961426-.5908813-1.6713867-.59375-.7429199-1.0341187-.9443359-1.067688-.9128418-.0690308.0598145.2984009.4013672.7162476 1.1362305.1968384.3696289.3519897.8566895.3221436 1.4550781-.0241699.5974121-.2241211 1.291748-.5496216 2.0397949-1.335144 3.0085449-4.3745117 6.8967323-8.2752075 11.4860878-8.1074142 9.4904251-9.917244 12.7792053-14.2054443 15.2180176-1.6051025.9250488-3.4130249 1.4929199-5.2872925 1.5112305-2.9863052.020134-5.8021393-1.43293-7.6292725-3.5202637-1.588295-1.644783-3.1048584-4.3858719-3.6395874-5.201416l-.831665-.8696289-.2087402-.2143555c-.0672607-.045166-.1342163-.0827637-.2004395-.1062012-1.3663406-.5133286-3.5241241 2.743454-13.074707 12.5810547-4.9863472 4.9317703-11.4037209 11.9012833-16.178833 12.7197266-.9696655.1738281-1.972229.1435547-2.7027588-.1357422-.2254639-.0866699-.2371826-.0966797-.4703369-.2416992l-.7252197-.4780273c-.4134521-.2670898-.7739258-.5976563-1.1233521-.9379883-2.0411034-2.1056976-3.0425949-6.1957016-3.6346436-9.0568848-.4356956-2.1075134-.7061539-2.4991302-1.1450195-3.3815918-.3075562-.4589844-.645874-.9101563-1.1116333-1.1677246-.8759155-.6513672-2.0773926-.644043-3.0466919-.1403809-13.1469517 9.5156708.8000908-1.132164-10.3272724 7.939209-.0635376.0449219-.0865479.0551758-.125061.0720215-.0264282.0183105-.0889893.0124512-.059082-.0439453 2.1343136-3.4423904 8.4123363-13.0841827 12.187624-14.612793.6223145-.2509766 1.2124634-.3562012 1.7558594-.2919922.5178223.0258789 1.0078125.2590332 1.5031128.5705566.8982544.6218262 1.7423706 1.6804199 2.4243164 2.8847656 1.7102547 2.9597092 2.6833801 6.5376434 3.4456177 7.5134277.1969604.2331543.4099121.4196777.6547852.576416.4847412.3188477 1.1636353.4804688 1.7354736.4150391.5795898-.0725098 1.1516113-.2399902 1.7017822-.7297363 8.3273392-6.4745712 17.597374-20.4717178 22.8319702-24.1865234 4.2105179-3.02388 9.4745026-2.5492706 13.0615234 1.1877441.5175171.5339355 1.0025635 1.1108398 1.4698486 1.7128906.2349243.3100586.4672852.6166992.6972046.920166.2658691.345459.5527344.7531738 1.1057129 1.2058105.5547485.4753418 1.2539673.7036133 1.9484863.7990723.7205811.0563965 1.3797607-.0620117 1.8919067-.2631836 3.2898178-1.2631683 2.4234848-2.897583 14.1408691-13.0932655 2.4634399-2.1486816 4.4229736-3.6479492 5.9505005-4.5595703 1.5458984-.940918 2.5603027-1.1425781 3.1713867-1.0354004.6444702.1057129 1.0760498.3808594 1.3461304.4294434.2720947.0720215.3927612-.003418.4893799-.1054688.0966797-.1020508.1685181-.2226563.0629272-.501709-.1315308-.2512207-.3468018-.7871094-1.3895264-1.3234863-.5231323-.251709-1.2764282-.3833008-2.0898438-.2858887-.8197021.0881348-1.6896362.3718262-2.6303101.796875-1.8843994.8554688-4.0737915 2.2873535-6.7402954 4.3615723-9.4635239 7.3536873-10.0756531 9.3357277-12.2421875 11.1923866-.4425049.3762207-.9225464.6884766-1.2578125.7976074-.1743774.0554199-.2628174.0644531-.2929688.0571289-.0457764-.0126953-.0914917-.0288086-.12323-.0646973-.0446777-.0341797-.2344971-.2504883-.4326172-.5358887-.2382813-.3271484-.479126-.657959-.7226563-.9921875-.5045166-.675293-1.0614014-1.3679199-1.6985474-2.0480957-4.7210464-5.1606789-12.1936188-5.8837242-17.949646-1.8359375-3.2252274 2.253006-6.7796707 6.6482849-9.84729 10.2001953-7.5773163 8.8573532-7.158432 8.6037445-11.9822998 12.9411621l-.1775513.1560059-.0006104.0002441-.001709.0007324-.0029297.0007324-.0027466-.0048828-.000061-.0012207-.1090698-.2836914-.4182739-1.064209c-.5776367-1.4345703-1.2205811-2.9152832-2.0732422-4.3950195-.8521118-1.4658203-1.9313354-2.9963379-3.6587524-4.2099609-2.7804832-1.8298264-5.6969795-1.6431656-8.611084.1005859-.4943848.2944336-.9608154.6271973-1.3969116.9743652-3.0852642 2.4730301-7.7512589 9.2711945-9.8582783 12.5458984-.6506348 1.0390625-.980896 1.4743652-2.2278442 3.746582-.2300415.4638672-.5032959.9433594-.6642456 1.3842773l-.2780762.6743164c-.067749.2109375-.1107178.407959-.1674194.612793-.2120972.8146973-.1843262 1.4440918-.0114746 1.9472656.1070555.2478032.2510374.4431157.4436644.7270512z"/></g></g></svg>