<svg id="Layer_1" enable-background="new 0 0 135 135" height="512" viewBox="0 0 135 135" width="512" xmlns="http://www.w3.org/2000/svg"><g><g><path d="m102.0729904 51.7687569c-.8199463 2.7998047-2.1599731 5.5-4.1299438 7.7199707l-23.170044-35.8701172-3.6399536-5.6398926c4.2299805-.0300293 8.5.2600098 12.539978 1.4599609 5.5200195 1.6401367 10.4500122 5 13.9299927 9.4099121.7999878 1.0100098 1.5200195 2.0800781 2.1500244 3.1901855 3.3999634 5.959961 4.25 13.1999513 2.3199463 19.7299806z" fill="#808285"/></g><g><path d="m32.6429977 97.1886826c-2.329958 3.5300293-7.4499531 5.5100098-11.4099751 3.6799316-2.1300049-.9899902-3.5999756-2.8200684-4.8800049-4.75-.2999878-.4499512-.5900269-.9199219-.8699951-1.369873-2.0599976-3.3100586-4.1099854-6.6201172-6.1699829-9.9301758-2.0400386-3.2700195-4.1400142-6.8198242-3.7700191-10.5998535.4000244-4.1799316 4.2399898-7.8300781 8.6599731-8.2399902l.7800293.3398438c.9299927.25 1.8399658.5700684 2.7199707.9599609 1.8099976.7700195 3.4800415 1.8200684 4.9400024 3.0900879 1.4400024 1.25 2.6700439 2.6999512 3.8699951 4.1501465 2.7200317 3.2797852 5.4200439 6.6799316 6.8900166 10.5998535 1.4700314 3.9299315 1.5599973 8.5300292-.7600101 12.0700683z" fill="#be1e2d"/></g><g><path d="m100.4630051 68.7087021c-1.1699829 3.8000488-4.7399902 6.4299316-8.289978 8.4699707-13.460022 7.7199707-41.1799927 15.6999512-56.710022 13.4299316l-1.8499756-3.119873-8.8400288-14.920166-3.3699951-5.6999512c10.9199848-16.1499062 21.8500385-32.3098183 32.7700214-48.4599648 1.1199951-1.6599121 2.4099731-3.4499512 4.3999634-4 1.4200439-.3999023 2.9500122-.0900879 4.3600464.3500977 8.7299805 2.7199707 14.9899902 9.869873 20.4699707 16.9499512.1900024.25.3900146.5.5800171.75 5.9099731 7.6999512 11.6699829 15.7299805 14.9299927 24.6999512.3900146 1.0500488.75 2.130127 1.0599976 3.2099609.789978 2.7199707 1.3200073 5.6301307.4899902 8.3400917z" fill="#be1e2d"/></g><g><path d="m51.7530441 126.3886337c-.9100342 1.4499512-2.4000244 2.6501389-4.0700073 3.1501389-1.7800293.5297852-3.6799927.2597656-5.3600464-.4702148-.5899658-.2597656-1.1599731-.5698242-1.6799927-.9299316-2-1.3798752-3.4799805-3.3400803-4.8399658-5.3298264-4.3500385-6.3500977-7.869997-13.25-10.4500141-20.4902344l6.6099854-4.5698242 4.5499897-3.1401367c4.1300049 5.7099609 8.8400269 11.0700684 12.1100464 17.3200684 1.6199951 3.0800781 2.8599854 6.369873 3.3499756 9.8300781.2200317 1.5500487.6500243 3.2199706-.2199708 4.6298827z" fill="#58595b"/></g><g><path d="m83.4030075 31.7086983c-1.0899658-.0300293-2.2099609-.4899902-3.1900024-1.5500488-4.5100098-4.8400879-10.3399658-11.25-17.5-7.6398926-5.6300049 2.8398438-9.5 9.3398438-13.3200073 14.1599121-8.4099731 10.619873-17.0999756 21.1101074-22.5599995 33.6198769-.5 1.1501465-1.2299805 1.880127-2.0599976 2.2700195l-3.3699951-5.6999512c10.9199848-16.1499062 21.8500385-32.3098183 32.7700214-48.4599648 1.1199951-1.6599121 2.4099731-3.4499512 4.3999634-4 1.4200439-.3999023 2.9500122-.0900879 4.3600464.3500977 8.7299805 2.7199707 14.9899902 9.869873 20.4699707 16.9499512z" fill="#d33548"/></g><g><path d="m16.5030422 89.2985458c1.7799683 2.2900391 1.289978 5.0102539-.1500244 6.8200684-.2999878-.4499512-.5900269-.9199219-.8699951-1.369873-2.0599976-3.3100586-4.1099854-6.6201172-6.1699829-9.9301758-2.0400386-3.2700195-4.1400142-6.8198242-3.7700191-10.5998535.4000244-4.1799316 4.2399898-7.8300781 8.6599731-8.2399902l.7800293.3398438c.9299927.25 1.8399658.5700684 2.7199707.9599609-.0699463.0400391-.1399536.0800781-.2199707.1201172-8.7899784 4.6499022-6.0000004 15.4499511-.9799809 21.8999022z" fill="#cc3648"/></g><g><path d="m100.4630051 68.7087021c-1.1699829 3.8000488-4.7399902 6.4299316-8.289978 8.4699707-13.460022 7.7199707-41.1799927 15.6999512-56.710022 13.4299316l-1.8499756-3.119873c.5299683-.3901367 1.1900024-.6799316 2-.8200684 12.8999634-2.2900391 25.5299683-5.7700195 37.7199707-10.5800781 9.8800049-3.9099121 20.8099976-9.0998535 25.5800171-18.9299355.3900146 1.0500488.75 2.130127 1.0599976 3.2099609.789978 2.7199708 1.3200073 5.6301308.4899902 8.3400918z" fill="#aa042f"/></g><g><path d="m97.6030197 28.8485909c-3.4699707-1.4099121-6.7700195-3.2399902-10.3099976-4.4599609-4.1400146-1.4199219-8.2800293-1.1899414-12.5200195-.7700195l-3.6399536-5.6398926c4.2299805-.0300293 8.5.2600098 12.539978 1.4599609 5.5200196 1.6401367 10.4500122 4.9999999 13.9299927 9.4099121z" fill="#9c9da0"/></g><g><path d="m51.7530441 126.3886337c-.9100342 1.4499512-2.4000244 2.6501389-4.0700073 3.1501389-1.7800293.5297852-3.6799927.2597656-5.3600464-.4702148 2.3100586-3.0497971 1.5600586-8.1498947.3300171-11.6298752-1.9799805-5.6298828-5.8399658-10.4799805-9.6400146-14.9899902-1.2599506-1.5-1.4799824-3.1999512-1.0499897-4.6999512l4.5499897-3.1401367c4.1300049 5.7099609 8.8400269 11.0700684 12.1100464 17.3200684 1.6199951 3.0800781 2.8599854 6.369873 3.3499756 9.8300781.2200317 1.5500487.6500243 3.2199706-.2199708 4.6298827z" fill="#434649"/></g><g fill="#202020"><path d="m15.0929585 97.6440048c.9902344 1.4919434 2.1991577 3.0283203 3.880249 4.1760254 1.6488647 1.1618652 3.8031006 1.755127 5.7244873 1.6755371.3279419-.0053711.6452637-.046875.9645386-.081543 1.1474743 4.5414352 7.9474964 20.7279892 11.8758564 24.9731522 6.5959244 6.4379578 14.870182 3.1628113 16.4935913-3.2487869 2.6207161-8.1952438-10.4288597-24.1093292-16.1798706-30.4047852-.7044678-.7683105-1.2512207-1.3161621-1.6882935-1.7075195.083252-.5571289.1361084-1.1057129.1596069-1.6445313.1414185.0500488.2993164.1015625.4892578.1557617.6672974.1879883 1.6595459.4384766 3.1196899.550293 15.0724182 1.8598633 47.3286247-7.5125885 57.9080772-16.3376465 1.7509766-1.4746094 3.507019-3.4255371 4.4234619-6.0393066.9382935-2.6296387.7318115-5.4506836.1704712-7.9375-.3292236-1.4074707-.7476196-2.833252-1.2408447-4.270752.9580078-1.2841797 2.1424561-3.3029785 3.0230713-6.4855957 2.2650146-8.308136.0801163-18.0505219-6.3480835-24.75-5.3639221-5.7546692-12.9906693-9.1733074-22.2865601-8.9689941-1.4517822.0427246-2.5935059.1552734-3.361084.2910156-1.9860229-1.416748-4.1297607-2.6481934-6.423645-3.5673828-2.990818-1.2892351-6.5490494-2.2156096-9.2919273-.4394531-1.6887817 1.054513-1.6348419.0589209-27.557375 40.7163086-2.4320679 3.8144531-4.3760376 6.9179688-5.6829224 9.0876465s-1.9766846 3.4052734-1.8601685 3.4838867c.116394.0788574 1.0135498-1.0031738 2.5401001-3.0241699 1.5264893-2.0209961 3.682373-4.9814453 6.3162231-8.6594238 12.501509-17.4574395 25.055445-35.8637734 26.3245261-37.4343262.5032959-.6105957 1.0373535-1.1120605 1.5859985-1.4335938 1.7877731-1.0563841 4.1233597-.0858078 6.329464.8212891 3.1401978 1.3320313 6.0048218 3.3505859 8.5772095 5.7028809 5.464119 4.9637909 21.8381882 24.636013 25.3796997 39.8105469.4806519 2.125.5500488 4.1025391-.0340576 5.717041-.5616455 1.6394043-1.7657471 3.0771484-3.2010498 4.2873535-8.1478806 6.8493194-36.0983429 16.6361084-55.2203942 17.1540527-1.4060669.1066895-2.3579712.092041-3.0228882.1494141-.2647705.0219727-.4714355.0512695-.6508179.0837402-.3192673-7.9457169-8.6581955-17.5639725-12.3813496-20.6540527-1.4864502-1.2402344-2.8468018-2.0117188-3.9699707-2.5336914-2.2675781-1.0227051-3.5787964-1.1352539-4.2593384-1.111084-.6914063.0495605-.8005981.3022461-.8745728.5717773-.0747681.2727051-.0922241.5415039.4107666.9440918.4904175.4228516 1.5354614.9279785 3.3247681 2.112793.8867798.6005859 1.9512329 1.3847656 3.1016846 2.5192871 1.1821365 1.1559219 9.1627064 9.9892426 10.3523579 16.2963867.321228 1.6733398.3693237 3.5102539-.0946064 5.2797852-.4987183 1.9604492-1.6802979 3.8891602-3.8388672 5.0856934-2.1152954 1.2094727-4.9285278 1.5437012-7.0509033.1379395-1.793829-1.105835-14.1151028-18.0553055-14.536438-23.2246094-.2658081-2.442627.8237305-4.5932617 2.1015625-6.0383301 1.2935181-1.465332 2.7525635-2.2578125 3.7850952-2.7021484 1.0452271-.4372559 1.689209-.5861816 1.6733398-.7453613-.0073242-.1188965-.6860352-.2512207-1.9069214-.0415039-1.2025146.2214355-2.9708862.8449707-4.6728516 2.3684082-.8435669.7578125-1.6594849 1.7404785-2.2787476 2.9699707-.6347656 1.2128906-.999939 2.7387695-.9761353 4.291748.038863 5.0569991 7.0024226 16.1705016 10.8555301 22.0722655zm60.3720073-77.4711914c-.6148682-.5429688-1.2526245-1.0688477-1.9056396-1.579834.5632935.0852051 1.2041016.1784668 1.9234619.2868652 7.6548767 1.2016106 14.2663193 3.5908489 19.5968628 9.8979492 5.5372086 6.3732185 7.6790695 15.6644974 4.5632324 24.7341309-4.9862976-11.4768295-17.5386429-27.5088138-24.1779175-33.3391113zm-45.437376 81.8757324c1.5633545-.854248 2.9068623-1.9990234 3.8975239-3.375.6098633-.833252 1.0591431-1.7004395 1.4093628-2.5673828.0737915.1220703.1445923.2407227.2255859.3713379 3.7885971 6.136673 16.5409241 21.5829391 14.6292114 27.5864258-.8705444 3.978508-6.133522 5.9431839-10.2357178 1.9631348-3.5264893-3.3852386-10.9808617-18.5630035-13.5752583-22.7062988 1.3127442-.2319337 2.5435792-.6811524 3.6492921-1.2722169z"/><path d="m85.2555542 16.8617783c.5649414-.003418 1.0612183-1.465332 1.5050049-3.2270508.4370728-1.7658691.8417358-3.8354492.9953613-5.161377.6109009-4.8225093-.1356201-5.0773921-1.2770386-5.2858882-.5532837-.1005859-1.0581055-.1696777-1.5369873.421875-.4689941.5917969-.937439 1.8500977-1.2327881 4.4074702-.1625366 1.4003906-.1228027 3.6345215.1742554 5.4978027.2897339 1.8666993.8127442 3.3510743 1.3721924 3.3471681z"/><path d="m104.1046143 18.0878525c1.7633667-1.8955078 3.7926636-4.1484375 5.0214844-5.6293945 2.2394409-2.7045898 3.3209839-4.1459961 3.6744995-5.0778804.364502-.9213867.0249634-1.3034668-.3814697-1.6918945-.4065552-.3884277-.7976685-.7158203-1.7176514-.279541-.9073486.4458008-2.3812256 1.637207-4.7190552 4.4604487-1.2822876 1.5449219-3.0366821 4.1894531-4.2387085 6.5693359-1.2130127 2.3771973-1.8959351 4.4570313-1.4216309 4.7507324.4813233.2988281 2.0130615-1.2155762 3.7825318-3.1018066z"/><path d="m108.9717407 30.6969833c.2462769.5100098 2.6918335-.112793 5.6231689-.9648438 2.9300537-.8635254 6.3620605-1.9265137 8.5163574-2.6760254 3.930542-1.3691406 5.9141846-2.1501465 6.8553467-2.8181152.9451904-.6533203.8532715-1.1564941.7011719-1.6977539-.1521606-.5415039-.3291016-1.0205078-1.5013428-1.0686035-1.1664428-.0336914-3.3494262.3295899-7.4042358 1.7419434-2.2216187.7724609-5.6029053 2.3049316-8.3009644 3.8713379-2.7056884 1.557373-4.7324828 3.1098633-4.4895019 3.6120605z"/><path d="m129.321228 55.0485458c1.0570068-.1137695 1.2123413-.5996094 1.3464966-1.145752s.2131348-1.0512695-.6317139-1.6437988c-.8410645-.6088867-2.6091309-1.2658691-6.1047974-2.4223633-1.9157104-.6337891-4.9692383-1.5249023-7.5830078-2.2597656-2.6152954-.7202148-4.8079834-1.2490234-5.0599365-.7409668-.2480469.4987793 1.5197144 1.954834 3.9221802 3.3864746 2.3929443 1.4431152 5.427002 2.8146973 7.428772 3.4763184 3.6542969 1.2089844 5.6314087 1.4477539 6.6820068 1.3498535z"/><path d="m120.9779053 79.3136826c.8984985-.6765137 1.5196533-1.3671875-3.6033325-8.1706543-2.8071289-3.7280273-9.5596924-11.1801758-10.4581909-10.5036621-.8983154.6765137 4.3977051 9.2253418 7.204895 12.9533691 5.1229248 6.8034668 5.9583129 6.3974609 6.8566284 5.7209473z"/></g></g></svg>