<svg id="Layer_1" enable-background="new 0 0 135 135" height="512" viewBox="0 0 135 135" width="512" xmlns="http://www.w3.org/2000/svg"><g><g><path d="m127.4605865 73.7668381c-8.7469788 14.2887802-27.3592758 13.0006561-41.6978989 14.3887253-16.3756332 1.5777283-32.8909531 2.3863373-49.3065681.9885178-.4992561-.039978-.9985123-.0799561-1.4977684-.1299286-7.0102634-.589859-14.4209518-1.1471558-20.7761383-4.4436874-3.3702669-1.7482147-5.3867846-4.2454605-7.9528408-6.9033356-2.7143869-2.8115082-3.0082343-6.8037949-3.0546308-10.607605-.0636823-5.2210083.6771963-10.7299843 3.8383064-14.885746 1.6547933-2.1754761 4.1200166-4.1368408 4.560061-6.987896.4503222-2.9176369 1.2501745-5.4183846 3.0256033-7.8945656 2.9855471-4.163929 7.6784849-7.2891331 13.1702757-8.9665565 8.4773617-2.606226 13.7595348-5.7614384 20.8090916-2.1669388.5492325.2796135 1.1183319.599205 1.6874313.9685287l3.7644119 1.4178085c2.8458557-4.6229973 7.4188805-8.1177902 12.3317261-10.8237209 7.1892471-3.954072 15.4669571-6.4303646 23.80439-6.1007767 2.9356918.1196947 5.8813782.6089563 8.6871338 1.4777794 5.1423645 1.5474997 9.8453217 4.3333893 13.2402878 8.2474804 4.6331177 5.3521366 6.4803391 12.8809624 4.3734894 19.411274l.4492874-1.1084557c.619194.3895569 1.2281494.7988586 1.8273544 1.2281494 3.3648605 2.3466034 6.3505249 5.1822243 8.4973526 8.5473289 4.6629715 7.3191758 4.7529373 16.9647218.2196426 24.3436204z" fill="#27aae1"/></g><g><path d="m98.8531723 13.0974407c-.5790939 1.8471022-2.0968552 3.394846-4.5431595 3.5445251-10.5143661.639185-20.6393051 3.8743553-29.5460815 9.5258503-4.0838814 2.586235-7.4388695 6.0210609-11.402935 8.7369881-3.9142151 2.6859398-8.2677155 3.2551613-12.9108238 3.1354637-10.7938595-.2696152-19.1515274 4.7029572-25.3322639 13.5096664-2.271903 3.2380219-4.3771353 6.5990372-6.2332783 10.0931587-.9914975 1.8664589-1.9124856 3.7714806-2.7346539 5.7187614-.4878459 1.1554489-1.0018835 4.1685486-2.1580384 4.7218857-1.9009717-3.3287201-.7586422-9.6650047.1961615-13.1714058.6661143-2.4462242 1.6661172-4.8035088 2.9797139-6.972683.6560569-1.0833626 1.3896914-2.1200256 2.1976633-3.0954819.2982283-.3600464 1.8021183-1.5519943 1.8286333-2.0020905.2104731-3.5727921 1.4284201-6.7860565 3.4045525-9.5506935 4.7529306-4.2736664 10.3545732-7.4990845 16.7150955-8.7072468 5.1922169-.9882736 11.8124828.9187984 16.3956242-1.8670921.2894859-.1796646.5890884-.3693218.8686981-.5592251.5492325.2796135 1.1183319.599205 1.6874313.9685287l3.7644119 1.4178085c2.8458557-4.6229973 7.4188805-8.1177902 12.3317261-10.8237209 7.1892471-3.954072 15.4669571-6.4303646 23.80439-6.1007767 2.9356907.119695 5.8813771.6089567 8.6871327 1.4777797z" fill="#46c9f7"/></g><g><path d="m127.4605865 73.7668381c-8.7469788 14.2887802-27.3592758 13.0006561-41.6978989 14.3887253-16.3756332 1.5777283-32.8909531 2.3863373-49.3065681.9885178-.4992561-.039978-.9985123-.0799561-1.4977684-.1299286.1997757-2.3263702 1.8072472-4.5930176 4.782795-4.7829208 8.8517303-.5647125 17.7038803-1.122818 26.5556526-1.6868515 14.3599014-.9150162 29.9502106-1.332634 42.4664612-9.374176 4.2480392-2.7293167 7.9767532-6.3377228 10.6368332-10.6441078 2.709259-4.385994 2.0466995-10.1984444.5315018-14.9846268-.5598907-1.7685661-2.0343323-4.7556496-1.1375961-6.5571022 3.3456726 1.6585083 6.468956 5.3341217 8.4469452 8.4388542 4.6629714 7.3191756 4.752922 16.9647178.2196425 24.3436164z" fill="#059ed3"/></g><g><path d="m75.6545563 113.8983383c-.2116394-4.518158-5.0626907-8.2690277-9.2938538-8.8935242-3.0705757-.4531937-6.3593369.5639496-8.5237808 2.7885895-6.7823982 6.9710159 1.2984619 17.0533142 9.6566467 15.6398926 4.6807709-.7915497 8.3686905-5.1003494 8.1609879-9.5349579z" fill="#ef4136"/></g><path d="m97.0623627 88.9677734c4.6166992-.3364258 9.0223389-.8452148 13.123291-1.8234863 19.715332-4.6727142 26.0954742-21.2230911 20.8696289-34.5773926-1.4805908-3.6831055-3.5108643-6.2128906-5.2458496-7.9997559-1.7633057-1.7905273-3.2816162-2.9226074-4.4625244-3.7189941-1.1875-.7900391-2.0490723-1.2429199-2.6627197-1.5085449-.1013184-.043457-.185791-.074707-.2740479-.1088867.02771-.0800781.0544434-.1503906.0822754-.2338867.6229248-2.1774902 1.2497559-5.732666-.0738525-10.6540508-6.7128448-24.0061321-43.8891678-24.2725945-60.807373-5.6296387-1.7608643 1.9169922-2.7567139 3.5668945-3.1873779 4.5275879-.0172119-.0507813-.0269775-.0979004-.057373-.1550293-.210083-.3962402-.7856445-.984375-2.0697021-1.592041-1.2816162-.6091309-3.2648926-1.2463379-6.2252197-1.6003418-12.9625015-1.3862381-28.4373627 3.3866482-34.0726318 15.5942364-.2747803.7827148-.5789795 1.5048828-.7597656 2.2126465-.1627197.7133789-.3574219 1.3615723-.4338379 1.9741211-.0776367.6123047-.1385498 1.1633301-.182251 1.6452637-.0229492.4853516.0042725.9067383.0213623 1.2478027.0268555.4118652.0721436.6960449.1328125.871582-.1425781.088623-.3424072.2324219-.598999.4304199-.5395508.3774414-1.2211914 1.0534668-2.0806885 1.958252-1.6324468 1.8571777-3.697022 4.9499512-4.9167485 9.2919922-.6103516 2.1608887-1.0134277 4.6235352-.9796143 7.2946777.0351563 2.6638184.5107422 5.5507813 1.7116699 8.3703613 1.2218018 2.7824707 3.0632324 5.4985352 5.6047368 7.6843262 9.7756968 8.5178452 37.8732681 9.0090866 50.7648926 8.779541 1.3583984-.0212402 2.7000732-.0612793 4.0394287-.1027832-.4885254 3.5151367-.8161621 8.7548828-.8669434 12.328125-4.6208153.4091415-8.0067558 3.1983719-9.4893799 7.1137695-.0942383.2541504-.1685791.512207-.2380371.7709961-19.3582764.3562012-38.9365234 1.0048828-38.9365234 1.7463379 0 .7380371 19.4030762 1.3840332 38.6759033 1.7412109.1071777 1.0441895.3608398 2.0463867.7385254 2.9316406.8723145 2.1015625 2.2493896 3.6882324 3.6097412 4.8361816 6.1407318 4.9231873 14.0373535 3.3048172 17.5574951-2.3686523.6929932-1.1010742 1.0328369-2.114502 1.2132568-2.9365234.1903076-.9697266.1905518-1.671875.1119385-2.1784668 1.4592285.0068359 2.8496094.0107422 4.1400146.0107422 38.3127441 0 39.1138916-.9116211 39.1138916-2.0361328 0-1.1247559-.8011475-2.036377-39.1138916-2.036377-1.6116943 0-3.380249.0058594-5.2469482.0166016-.1593018-.5002441-.3796387-1.0378418-.6990967-1.5998535-1.5733337-2.7217331-4.4622574-4.8063049-7.3807373-5.6357422-.0649414-3.5927734-.4544678-9.1369629-1.0010986-12.7790527 11.8251341-.4580994 13.2820433-.9434739 30.552368-2.1027833zm-23.477295 21.414795c1.2010498 1.40625 1.5759277 2.703125 1.8310547 3.246582.0092773.0966797.0222168.192627.0288086.2895508-.204834.0358887-.4013672.1308594-.5859375.3925781-.2376709.3444824-.4711914.9926758-1.0039063 2.0837402-.2799072.5397949-.6469727 1.1970215-1.2443848 1.9072266-3.0350494 3.6868591-8.0373001 4.4749527-12.2109375 1.1645508-.9472656-.8046875-1.9161377-1.8981934-2.5240479-3.253418-.6121826-1.3476563-.8181152-2.9211426-.3531494-4.4301758.0622559-.1872559.0924072-.3864746.1737061-.5715332.138401-.1109772 1.8187141-4.9811783 7.8129883-4.8483887 2.609726.0321808 5.8904267 1.4860077 8.0758057 4.0192872zm-13.390625-22.8854981c-27.5008392.9029236-47.9303055-.7474899-54.2036133-13.6435547-1.1566162-2.4509277-1.7076416-5.0524902-1.8496094-7.5058594-.1425781-2.4599609.1164551-4.7788086.5766602-6.840332.9168701-4.1447754 2.6530762-7.21875 4.0223393-9.1691895.7261963-.9504395 1.2911377-1.7016602 1.7261963-2.1679688.1943359-.2304688.3366699-.4116211.4327393-.548584.0068359.0024414.0123291.0148926.0194092.0153809.1400146.0117188.3242188-.3381348.5397949-.963623.0982666-.3134766.2175293-.6936035.3555908-1.1340332.1643066-.4326172.34021-.9228516.524292-1.4614258.1832275-.5393066.4748535-1.0966797.7230225-1.7080078.2662354-.6057129.642334-1.2092285.973877-1.8632813 6.5601625-10.0920963 19.6551971-13.2751789 31.7329102-12.873045 2.6896973.1257324 4.454834.4101563 5.6298828.5959473 1.1818848.1867676 1.7816162.2895508 2.1782227.2304688.3074951-.0446777.480957-.1794434.6130371-.3474121.0023193.0019531-.0001221.0126953.0025635.013916.2686768.1704102 1.6239014-1.8261719 4.5167236-4.2692871 18.0705256-15.4984798 49.4927744-14.6192636 56.1162104 5.5649414 1.2890625 4.0707989 1.0484619 7.0329571.8537598 8.9626446-.0709229.4870605-.1334229.9162598-.1884766 1.2949219-.0687256.3791504-.1282959.7072754-.1799316.9921875-.0716553.5856934-.1710205.9760742-.1617432 1.28125-.0054932.6020508.2128906.7685547.4641113.8945313s.5050049.2148438.9744873-.2282715c.2226563-.2270508.5540771-.5673828.8570557-1.1530762.1203613-.2216797.2580566-.4836426.3970947-.770752.458252.4506836 1.1375732 1.0583496 2.098877 1.9431152.9825439.9140625 2.2681885 2.121582 3.7347412 3.8613281 1.4516602 1.748291 3.0759277 4.045166 4.2199707 7.2563477 4.1656647 12.0588531-1.8390198 25.5213623-18.6419678 29.4453125-8.2792282 1.9468918-42.5697098 4.0972367-49.0582276 4.2954102z" fill="#202020"/></g></svg>