<svg id="Layer_1" enable-background="new 0 0 135 135" height="512" viewBox="0 0 135 135" width="512" xmlns="http://www.w3.org/2000/svg"><g><g><path d="m130.6588898 17.1393776v69.840332c0 6.2397461-5.060051 11.2900391-11.3000412 11.2900391h-102.8999062c-3.4000244 0-6.4400635-1.5-8.5200195-3.8603516-1.7299805-1.9897461-2.7800293-4.5898438-2.7800293-7.4296875v-69.840332c0-6.2397461 5.0600581-11.2998047 11.3000488-11.2998047h102.8999023c4.4000244 0 8.2099609 2.5097651 10.0800705 6.1801753.7800332 1.5395513 1.2199746 3.2797856 1.2199746 5.1196294z" fill="#fde4cb"/></g><g><path d="m101.2779236 84.4002609h-65.2499161c-5.8026047 0-10.506546-4.7039413-10.506546-10.5065536v-42.5187359c0-5.8026047 4.7039413-10.506546 10.506546-10.506546h65.2499161c5.8026047 0 10.506546 4.7039413 10.506546 10.506546v42.5187378c0 5.8026104-4.7039413 10.5065517-10.506546 10.5065517z" fill="#ffefe1"/></g><g><path d="m129.4389191 12.0197487c-.1500244.0097656-.3100586.0097656-.4699707 0-23.35009-1.4702148-46.7499924-2.9501953-70.1600342-2.3701172-10.7600098.2700195-22.9000244-.1298828-33.2800293 3.04004-4.9694805 1.5187988-10.7743464 5.8739557-13.0471287 10.6600122-2.4839506 5.2307358-3.3687553 11.211668-4.461915 16.8582821-.140708.7268143-.3232198 1.5139618-.9009075 1.9769211-2.5000429 2.00354-1.9600415-4.5000725-1.9600415-5.4554138 0-2.798233 0-5.5964661 0-8.394701 0-3.7317829 0-7.4635658 0-11.1953945 0-6.2397461 5.0600581-11.2998047 11.3000488-11.2998047h102.8999023c4.4000297.0000005 8.2099662 2.5097656 10.0800758 6.1801758z" fill="#ffeddc"/></g><g><path d="m130.6588898 33.1794167v53.8002968c0 6.2397461-5.060051 11.2900391-11.3000412 11.2900391h-102.8999062c-3.4000244 0-6.4400635-1.5-8.5200195-3.8603516 13.8699951-.7099609 27.75-1.1098633 41.6398926-1.1699219 13.9500732-.0698242 28.239994 1.1499023 42.120121-.6201172 11.7700195-1.5097656 24.5400391-6.1499023 31.3999023-16.4296875 7.2299728-10.840332 5.2100754-24.7900429 3.380127-36.9199257-.4899903-3.1801758 1.7399826-5.4501953 4.179924-6.090332z" fill="#f4cba6"/></g><g><path d="m38.5344353 71.9106979c-.2373543-6.7305145-.6665535-13.4584503-1.2873306-20.1796303-.0264091-.2859573-.0361366-.6044159.2698097-.819603.2861061-.2012329.7570534-.2464981 1.1876793-.2773399 3.849781-.2757149 7.7257843-.4115868 11.6013336-.4066849.4224243.0005341.8586159.0044746 1.2450714.1098671 1.0262184.2798653 1.2503395 1.1021805 1.3285561 1.7935638.7622871 6.7381897 1.0996971 13.4947243 1.0112 20.2491264" fill="#d7df23"/></g><g><path d="m61.2838936 71.9645767c-.1398315-9.8876915.1085854-21.7131538-.03125-31.6008415-.0252457-1.7853317.2739143-3.9292908 2.8229179-4.7702904 1.9609833-.6469955 4.375-.1906128 6.5731583-.3956299 1.5495529-.1445198 3.3610077-.5788155 4.5127792.0777512.7910461.450943.8159637 1.2044411.783905 1.8691483-.5778961 11.9824829-1.1557999 23.964962-1.733696 35.9474487" fill="#2bb673"/></g><g><path d="m82.6590576 70.7405167c-.9340057-9.612545-1.3924255-19.2371635-1.3746643-28.861557 3.3883209.2437439 6.7766418.487484 10.1649704.7312241.5410767.0389214 1.1096268.0835953 1.5403214.2554588.4975281.1985321.7121277.5262299.8861313.8363457 5.2308044 9.3227196-3.3351059 19.2474823-1.6511307 28.9077072" fill="#ec008c"/></g><g fill="#202020"><path d="m111.827301 25.5116959c-1.74897-3.8524971-5.5892639-6.7231369-10.1268311-7.1665039-28.5645447-.130764-43.53339-.0921192-64.1130371-.0126953-1.1641846.0185547-2.1898193-.0332031-3.6450195.0888672-2.7178955.3115234-5.3656006 1.5400391-7.3459473 3.5083008-1.9752197 1.9614258-3.3078613 4.621582-3.6081543 7.4448242-.1657391 1.8963623.1771698 38.3474884.2275391 44.1591797.0517578 2.7739258 1.1352539 5.4760742 2.8947754 7.5332031 1.7623291 2.0688477 4.2275391 3.4506836 6.8203125 3.9619141.6530762.1049805 1.3050537.1953125 1.9611816.1987305 2.2990646.1057205 45.8006439-.6099319 45.9172363-.6118164 6.0930176-.121582 11.0241699-.2495117 14.4320068-.3823242 3.4078369-.1323242 5.2924805-.2695313 5.2924805-.4101563s-1.8846436-.277832-5.2924805-.4101563c-3.4078369-.1328125-8.3389893-.2607422-14.4320068-.3823242-68.3405075-1.1062164-37.8626518-.0038986-45.824707-.6464844-.5018311-.0102539-.9951172-.0942383-1.4891357-.1791992-1.9523926-.4321289-3.7895508-1.5053711-5.0828857-3.0849609-1.2869873-1.5737305-2.0529785-3.5825195-2.0546875-5.6420898.3355713-45.3066444.2475052-42.6767731.3583984-43.6757813.230957-1.9628906 1.177002-3.7880859 2.557251-5.1401367 1.3905029-1.3525391 3.2174072-2.1694336 5.0841064-2.3735352.8460693-.0708008 2.1173096-.0366211 3.2297363-.0380859.1951828.0007534 35.4137955.1197662 63.7427979.0864258 3.1199493.29566 5.7423248 2.2678452 6.9255371 4.8491211.3916016.8442383.6643066 1.7294922.7637939 2.6279297.0110168.1017513.6715851 44.2093353.2930908 45.7275391-.8272095 3.7044067-3.4014893 6.0103531-6.9968262 7.3183594-.7998047.2685547-1.256958.3901367-1.5010986.5385742-.2456055.1450195-.2813721.2841797-.2808838.4248047s.0316162.2763672.3034668.3955078c.2723389.1152344.7893066.2519531 1.7677002.199707 4.2874222-.3350754 8.208313-3.5488968 9.4997559-8.171875.8487244-2.790596.9040604-45.7945366.807373-46.878418-.1370849-1.3095704-.5164794-2.6162111-1.0848388-3.8564454z"/><path d="m3.2069397 86.1044693c.0063477.7827148-.0048828 1.8544922.1652832 2.8300781.3012695 1.9760742 1.043457 3.9091797 2.2091064 5.5625 1.1635742 1.6533203 2.7060547 3.046875 4.4910889 4.0390625 4.6547813 2.566925 6.6053143 1.6336365 47.6728516 1.425293-.1992188.3764648-.3985596.753418-.59729 1.1293945-2.6466064 5.0351563-5.2275391 10.0092773-7.4699707 14.4160156-4.4848633 8.8134766-7.6154785 15.3574295-7.2078857 15.5830154.4073486.2250977 4.2890625-5.9033279 9.3742676-14.384285 2.5426025-4.2407227 5.3859863-9.0693359 8.246582-13.9863281.5350342-.9248047 1.0710449-1.8515625 1.6069336-2.777832 2.9188232-.0151367 5.8349609-.0297852 8.7431641-.0444336 14.828125 31.3676834 15.9677734 31.6674881 16.9730225 31.1928787.9864502-.4658203 1.4683838-1.527832-12.4855957-31.2158279 35.8695297-.1811142 30.6312332-.1515884 42.595459-.2353516l1.2530518-.0087891c7.8807678.0385361 13.117691-5.9368515 13.0980225-12.487793-.1189423-14.0260773-.4379883-48.1879196-.8057861-62.1738281-.0662842-2.5205078-.1337891-4.4775391-.2022705-5.8046875s-.1379395-2.0244141-.208252-2.0244141c-.0701904 0-.1396484.6972656-.2081299 2.0244141s-.1358643 3.2841797-.2021484 5.8046875c-.3767395 14.3256302-.680191 47.6920166-.8099365 62.1425781-.0779877 5.4330215-3.7533417 9.774765-11.9145508 9.7895508-108.0521815-.7407073-102.2897905.1404954-105.6013187-1.7124022-1.2608643-.7158203-2.3508301-1.7138672-3.1700439-2.8886719-.8208008-1.1767578-1.3272705-2.5424805-1.5332031-3.9360352-.2282553-1.5752792-.0145965-4.5819168-.0268555-68.5102539-.0002441-.5566406-.0004883-1.1113281-.0007324-1.6640625-.0059662-6.7237339 4.0213528-10.1233301 9.4348145-10.3310547.5013428-.0004883 1.0004883-.0014648 1.4976807-.0019531 24.5444908-.0241075 73.9239426-.1188707 98.4274902-.5766602 5.536087-.1050739 10.4202118.4973955 12.9669189 7.2246089.4272461 1.1723633.5574951 1.8579102.7081299 2.21875.1514893.3647461.2913818.4174805.4318848.4165039.140625-.0004883.2756348-.046875.3883057-.4472656.1108398-.3989258.2419434-1.1689453.0063477-2.5849609-.9449921-5.2099113-5.2898254-9.5462675-12.7042236-9.6723633-.5809326-.0112305-1.1799316-.0229492-1.7973633-.034668-24.4929582-.4575907-73.8203241-.5524902-98.4274904-.5766591-.4971924-.0004883-.9963379-.0014648-1.4976807-.0019531-7.6199293.2178125-13.4707122 5.3025259-13.5006103 14.3676753-.0002441.5527344-.0004883 1.1074219-.0007324 1.6640625-.0042601 22.2149276.0296313 48.1749954.081665 66.2514648z"/><path d="m93.1689758 70.9003677c.3446045-.3212891.7199707-1.1240234 1.1853027-3.0605469 1.446907-6.12677 2.2222443-15.0484505 1.1593018-22.9980469-.1741943-.9248047-.3250732-2.0830078-1.2817383-3.3974609-.4731445-.6499023-1.2871094-1.230957-1.9968262-1.4892578-.732666-.2832031-1.3267822-.371582-1.8996582-.4619141-1.1586914-.1645508-2.3310547-.2270508-3.6064453-.1235352-.6376953.0561523-1.2957764.1469727-1.9998779.3520508-.7003174.2109375-1.4581299.5063477-2.2156982 1.1416016-.6855469.5996094-1.0397949 1.3217773-1.2557373 1.918457-.2174072.6132813-.3239746 1.1787109-.3956299 1.7167969-.1369629 1.065918-.1309814 2.0776367-.1473389 2.9575195-.1368179 5.2724648-.0206528 10.5747719.4718018 15.9545898.2559814 2.8100586.581665 5.222168.8994141 7.0214844-1.911377-.0263672-4.0783691-.0410156-6.5175781-.0444336.0559082-.3427734.1120605-.7114258.1690674-1.1308594.2861328-2.1083984.5861816-5.2348633.9127197-9.8662109.302002-4.6328125.7344971-10.7646484 1.0194092-18.9648438.0330811-1.1245117.0684814-2.3291016.105957-3.6000977l.0126953-.4799805c-.0012207-.1806641-.005249-.3828125-.0205078-.6064453-.0200195-.3930664-.1256104-1.121582-.4057617-1.7060547-.2731934-.5932617-.708252-1.1162109-1.2573242-1.4936523-.5267334-.3842773-1.2666016-.6259766-1.7231445-.7094727-.5036621-.1010742-.9549561-.1308594-1.3675537-.1430664-.3704834-.0029297-.7441406-.0053711-1.1206055-.0078125-2.3939514.0095139-4.7697372.1671562-7.088623.7954102-.8370361.2324219-1.6011963.4858398-2.479248.8891602-.4467773.2138672-.9467773.496582-1.4210205.9291992-.4803467.4384766-.8577881.9887695-1.0959473 1.5288086-.4801025 1.0932617-.5452881 2.1000977-.5603027 2.9868164.000843 1.4183884 1.147049 26.5316467 1.1519775 26.6323242.1020508 2.3388672.2553711 4.1264648.4222412 5.1870117-1.9024658.0566406-3.8222656.1230469-5.7056885.1972656.0803223-.3515625.1558838-.7817383.2250977-1.3100586.5392723-4.2469177.2179604-10.5988274-.1878662-15.1308594-.0583496-.5854492-.1185303-1.1899414-.1806641-1.8144531l-.050293-.4716797c-.0179443-.1479492-.0267334-.3154297-.0925293-.6694336-.1177979-.6279297-.3631592-1.2392578-.7583008-1.753418-.4291992-.5673828-1.0596924-1-1.7856445-1.2368164-.3552246-.1230469-.7658691-.1879883-1.1323242-.215332-.2897949-.0214844-.5383301-.0219727-.7585449-.0209961-.828125.0146484-1.6992188.0307617-2.6040039.0473633-1.8067627.0522461-3.7463379.1508789-5.7407227.3022461-1.0194092.0888672-2.0540771.1791992-3.0941162.2700195-.9541016.0576172-1.8812256.2084961-2.5162354.7255859-.3253174.2470703-.598877.6166992-.7303467.9916992-.1707764.3623047-.1077881.8041992-.0822754 1.2246094l.0748291 1.2563477c.0082703.1019936 2.0730515 18.9148026 2.8319092 18.890625 1.2350311-.0368195.493885-19.1092415.4868164-19.3081055-.0488281-.3076172.21875-.2387695.3234863-.2177734.9724121-.0288086 1.9395752-.0571289 2.8927002-.0849609 1.9530029-.0463867 3.8479004-.0634766 5.6108398-.0610352.8803711.0048828 1.7279053.0097656 2.5335693.0146484.1881104.0019531.3431396.0073242.449707.0175781.0292969.0039063.008667.0024414.0150146.0043945l-.0009766.0024414h.0006104c.0283203.2480469.0561523.4921875.0836182.7329102.8622169 7.9579353 1.1171455 13.5805054 1.5319824 16.5175781.0789795.5761719.1634521 1.0297852.2521973 1.3964844-8.4571533.3725586-15.5552979.9057617-15.5552979 1.4980469 0 1.1245117 25.5626221 2.0361328 37.4741211 2.0361328 21.7380371 0 22.192627-.9116211 22.192627-2.0361328 0-.6054685-.1381836-1.1494138-3.6566162-1.5224607zm-9.6774902-7.5776367c.0965424-6.3697205.6412811-16.3647995.9864502-18.2749023.104126-.7441406.4458008-1.3632813.4765625-1.2973633.2593994-.2148438 1.1694336-.4658203 2.0484619-.4848633.8948975-.0454102 1.8510742.0292969 2.7115479.1757813.43396.0737305.835083.1669922 1.0157471.2519531.2056885.0986328.1951904.1074219.2813721.2124023.1728516.2070313.3798828.8666992.4787598 1.5678711 1.1973801 8.9344025.0670853 16.4922867.0063477 22.0102539-.0307617 2.0664063.1425781 2.9277344.4121094 3.3017578-1.9537354-.1523438-4.682373-.2670898-8.4957275-.3334961.0325925-1.8261718.0338132-4.2822265.0783689-7.1293945zm-21.5064697 2.1455078c1.3315849-17.2853584.1329727-26.3974648 1.067627-28.1303711.0861816-.1674805.1710205-.2587891.2675781-.3393555.104248-.0849609.2839355-.1914063.5372314-.2988281.5333252-.2211914 1.2363281-.440918 1.8747559-.5888672 1.9844437-.467186 4.1006012-.5276947 6.1308594-.4873047.7076416.0161133 1.3768311.0244141 1.7008057.1113281.2149658.0561523.1350098.0444336.1558838.0517578.0019531.0058594.0023193.015625.0023193.015625-.0227051-.1362305.0557861.3222656.0018311 1.0214844-.0446777 1.2480469-.0870361 2.4316406-.1264648 3.5361328-.2818604 8.0668945-.598877 14.2075195-.6955566 18.8500977-.1206055 4.6411133-.1228027 7.7822266-.0410156 9.9082031.0184326.4765625.0415039.8945313.0679932 1.2749023-3.2774658.0200195-7.2952881.0957031-11.4487305.2158203.156738-1.0581053.3142087-2.8271483.5048826-5.1406249z"/></g></g></svg>