<svg id="Layer_1" enable-background="new 0 0 135 135" height="512" viewBox="0 0 135 135" width="512" xmlns="http://www.w3.org/2000/svg"><g><g><path d="m116.8577881 85.2242584c-6.4500122 3.9101563-12.9099731 7.8100586-19.3599854 11.7202148-10.1000366 6.1098633-20.1900024 12.2299805-30.4500122 18.0297852-.9799805.5500488-1.9799805 1.1101074-2.9799805 1.6501465-7.9400024 4.2800293-16.6000366 7.9099121-25.25 6.0598145-1.9800415-.4199219-3.8000488-1.0498047-5.4900513-1.8598633-10.9699726-5.2600098-16.3499775-17.9599609-22.5-28.2900391-1.0199585-1.7099609-2.1099854-3.5700684-3.1799927-5.5200195-.1499634-.2800293-.3099976-.5600586-.4599609-.8500977-.4100351-.7700195-.8099984-1.5598144-1.2000131-2.3498535-2.1799927-4.4399414-3.9500122-9.2199707-4.2200317-13.8500977-.2699585-4.5300293.8900146-8.9199219 4.5-12.7399902 1.7800293-1.8798828 3.8400269-3.6398926 6.0800171-5.2900391 7.2200308-5.3598633 16.2200317-9.6899414 23.2900391-13.9599609 8.2299805-4.9599609 16.5899658-9.709959 25.0599976-14.209959 2.7599487-1.4699707 5.5299683-2.9099121 8.3099976-4.3300781 6.5599976-3.3398438 13.5699463-6.619873 20.8599854-6.0698242 7.8599854.5998535 13.8699951 4.4399414 18.7999878 9.7797852 2.8800049 3.1000977 5.3800049 6.7102051 7.6699829 10.4802227 1.0500488 1.7299805 2.0599976 3.4799805 3.0300293 5.2399902 2.0200195 3.6499023 3.9099731 7.2900391 5.8099976 10.6599121 2.0899658 3.7199707 4.1900024 7.5 5.3900146 11.619873 3.739991 12.8400879-4.010009 18.2102051-13.7100212 24.0800781z" fill="#f7941e"/></g><g><path d="m60.2877808 106.2542877c-5.2299805 4.3601074-10.7999878 4.2199707-14.6499634 1-2.1300049-1.7700195-3.7400513-4.4899902-4.4700317-7.9099121-.2600098-1.2099609-.4099731-2.5100098-.4299927-3.8901367-.0499878-2.1899414.2799683-4.5097656 1.6099854-6.2099609 1.6500244-2.1298828 4.5100098-2.8500977 7.1400146-2.7600098 3.5999756.130127 7.289978 1.8300781 10.0299683 4.3000488 4.6400146 4.1999512 6.5700073 10.6298828.7700195 15.4699707z" fill="#d1d3d4"/></g><g><path d="m61.6177979 32.3343658c-11.1099854 6.5300293-22.7200317 12.619873-33.3200073 19.9799805-9.9899902 6.9399414-17.7000122 16.3898926-16.6300049 29.1499023.2299805 2.7700195-1.4899902 4.3300781-3.5800171 4.6999512-2.6999512-5.079834-5.0999756-10.7397461-5.4199829-16.1999512 1.7700195-6.7897949 5.5700073-12.8798828 10.5800171-18.0300293 7.2199697-5.3598633 16.2199707-9.6899414 23.289978-13.9599609 8.2299805-4.9599609 16.5900269-9.709959 25.0599976-14.209959 2.7200317 1.8400879 3.7100219 6.3999023.0200195 8.5700664z" fill="#fca649"/></g><g><path d="m117.237793 33.6244049-103.5499888 61.8798828-4.0499878-6.6899414-1.0900269-1.8000488-1.8599854-3.0800781.2000122-.119873 102.6799927-60.670166c1.2299805 1.3200684 2.3899536 2.7402344 3.4899902 4.2202148 1.4799816 1.9899921 2.8699962 4.0998554 4.1799938 6.2600097z" fill="#d1d3d4"/></g><g><path d="m116.8577881 85.2242584c-6.4500122 3.9101563-12.9099731 7.8100586-19.3599854 11.7202148-10.1000366 6.1098633-20.1900024 12.2299805-30.4500122 18.0297852-.9799805.5500488-1.9799805 1.1101074-2.9799805 1.6501465-.4299927-1.8701172.1099854-3.9602051 2.1499634-5.3000488 14.2999878-9.3601074 28.8300171-18.4301758 42.8900146-28.1401367 6.1599731-4.2597656 12.6599731-9.6599121 14.4799881-17.3098526 1.2201309-5.1368294-.8289948-9.9831009-3.460762-14.3072929-2.0109253-3.3039894-7.0514069-8.4012337-6.0656967-12.6720963.241745-1.0474358 1.0612106-1.9774513 2.1099091-2.2135849 2.4250565-.5460434 3.2177277 2.3142815 3.9996262 3.9331856 1.482338 3.0691338 3.3393936 5.9416275 5.0069427 8.9097328 2.0899658 3.7199707 4.1900024 7.5 5.3900146 11.6198692 3.7399903 12.8400879-4.0100097 18.2102051-13.7100219 24.0800781z" fill="#e57c0a"/></g><g><path d="m59.5177612 90.784317c-.0099487 0-.0099487 0-.0199585 0-8.8400269-1.2199707-13.6000366 8.4499512-13.8599854 16.4699707-2.1300049-1.7700195-3.7400513-4.4899902-4.4700317-7.9099121-.2600098-1.2099609-.4099731-2.5100098-.4299927-3.8901367-.0499878-2.1899414.2799683-4.5097656 1.6099854-6.2099609 1.6500244-2.1298828 4.5100098-2.8500977 7.1400146-2.7600098 3.5999757.1301269 7.2899781 1.8300781 10.0299683 4.3000488z" fill="#e3e4e5"/></g><g><path d="m113.0578003 27.364397c-35.4000244 18.879881-69.9100342 39.3898907-103.4199839 61.4499493l-1.0900269-1.8000488-1.8599854-3.0800781.2000122-.119873 102.6799927-60.670166c1.2299815 1.3200702 2.3899547 2.7402362 3.4899913 4.2202166z" fill="#e3e4e5"/></g><g fill="#202020"><path d="m11.7524519 95.7677231c6.0220118 10.3035583 9.5673838 17.4257355 18.0286865 23.4494629.7774048.4729004 1.4350586.8132324 1.9611206 1.092041 2.2030048.9543457 2.4693012.7585449 2.5894794.5151367.1291504-.2585449.0638428-.5681152-1.7650757-1.8691406-.4393921-.3496094-.9791279-.7790527-1.6430683-1.307373-7.3741474-6.9298019-8.9641094-10.2868958-15.8305044-22.8105469 2.5675039-1.1591797 12.3203115-7.2463379 24.1132813-14.3061523 40.0079689-23.9610176 64.1699219-36.0651894 74.1105957-41.9372559 1.6776123-.9802246 2.7705688-1.6865234 3.4854126-2.2175293.8537521 1.441124 11.9913559 20.4897537 13.3946609 26.2731934 2.5878754 10.2424316-2.8576279 14.875351-11.8052444 20.4819336-29.3473206 18.1012573-17.9220963 11.0384979-48.8417358 29.8220215-8.5079651 5.2066956-18.8392754 10.8695221-28.7040977 9.4929199-2.1333008-.2602539-3.7455444-.7749023-4.8309326-1.1157227-1.0844116-.3574219-1.6508789-.574707-1.6832886-.5063477-.0283813.0583496.4781494.4016113 1.5309448.8937988 1.055542.4755859 2.6588745 1.1330566 4.8477173 1.5375977 9.9906387 2.0223846 20.901577-3.4732361 29.798275-8.6140137 30.1876373-17.4051056 27.3629227-15.7624588 49.4646606-28.9438477 9.9730606-6.0660324 16.3927536-11.849205 13.5030594-23.854248-1.3632813-6.0039291-15.0590744-32.0351791-21.8956375-39.4194336l-1.6297607-1.7290039c-8.2868271-8.0968924-17.2875519-10.4806814-25.4404907-8.939209-5.8812866 1.0830078-10.8803711 3.6010742-15.4420776 5.8862305-7.0817338 3.5978642-54.6725437 28.9988403-63.309755 38.3540039-7.6300087 9.378746-5.5688834 18.7631226.5039673 30.3295898 1.8817754 3.567627 3.8629155 6.6564942 5.4898076 9.4418946zm100.2693453-59.7458496c-20.4827499 8.7615814-62.0649872 32.495018-91.0454102 53.654541-3.0562744 2.2531738-5.2128897 3.9348145-6.0974112 4.7702637-.0657959-.119873-.1279297-.2331543-.1942749-.354248-1.6278687-2.9304199-3.4898682-5.9577637-5.2457886-9.4204102-.2542725-.5012207-.5075073-1.0136719-.7589722-1.5322266 2.2920952-.5667191 96.2002792-54.4989052 98.1904907-55.7602539 1.0610352-.6643066 1.8742065-1.203125 2.5115356-1.6535645 8.8874275 10.2750855 5.913932 8.9139862 2.6398308 10.2958985zm-103.406003 22.6347656c7.6202173-8.1513214 53.9703445-33.1478729 62.2915611-37.404541 4.4881592-2.2780762 9.2105713-4.6176758 14.3099976-5.5693359 8.4604721-1.6081285 16.338295 1.8571548 22.482605 8.2019043-.6187744.255127-1.3377075.5673828-2.1984253.9611816-22.40168 10.3992062-67.7530823 37.6428299-90.3816528 53.1999512-3.6254272 2.505127-6.0129395 4.2680664-6.5426636 4.878418-4.5532356-9.4643632-5.913323-17.0354005.038578-24.2675782z"/><path d="m40.2939568 98.995018c.3306274.4313965.6040649.4030762.8774414.345459.2767334-.0583496.5253906-.1523438.6807861-.6367188.164917-.484375.2091064-1.3532715.3292847-2.9726563.8004608-9.5852203 9.25877-8.1086121 14.2514038-4.769043 5.5061531 3.7303314 7.9234428 9.7880173 2.4602661 14.2304688-5.0407715 4.3108063-11.066021 4.1704712-15.2267456-1.5112305-1.6651611-2.4855957-2.164856-4.4272461-2.4949951-4.3408203-.2072144.0288086-.27948 2.0981445 1.1297607 5.1464844 3.7024231 7.168045 11.804409 8.5821838 18.6887817 3.3525391 1.1272583-.8249512 2.2034302-1.861084 3.0499229-3.1105957 4.047905-5.936615.5900497-13.1196213-5.3317833-17.1445313-9.0383224-6.0347824-20.8787384-3.3133545-19.4046631 8.244873.2576295 1.8325197.6710816 2.7338868.9905397 3.1657716z"/></g></g></svg>