<svg id="Layer_1" enable-background="new 0 0 135 135" height="512" viewBox="0 0 135 135" width="512" xmlns="http://www.w3.org/2000/svg"><g><g><path d="m58.6888847 46.4274063c-2.1600342 1.199707-4.6401367 1.7797852-7.1000977 1.8198242-1.75.0400391-4.5400391-1.2700195-5.6398926.3100586-.6201172.8901367-.8701172 1.9799805-.9200439 3.1499023-.1199951 2.5800781.7600098 5.5600586.9100342 7.7099609.3199463 4.5400391.6499023 9.0703125 1.0300293 13.6103516 1.289917 15.2299805 2.5699463 30.6899414-.5500488 45.699707-1.1400146 5.5102539-4.5 12.1201248-10.4000244 11.8501053-2.8900146-.1298828-5.1099873-1.9199219-6.7200947-4.2700272-1.0698242-1.5297852-1.8598633-3.3100586-2.4099121-5.0200195-3.1199951-9.7397461-2.7099609-20.1499023-2.2700195-30.3300781.3100586-7.2597656.6300049-14.5200195.9399414-21.7700195.1601563-3.7397461.3200684-7.4697266.4801025-11.199707.0699463-1.6401367.1500244-3.2402344.4000244-4.8398438.1298828-.8500977.3999023-2.1401367-.0500488-3.0102539-.0600586-.1201172-.1300049-.2299805-.2199707-.3300781-.5600586-.6298828-1.2099609-.3398438-1.9899902-.2099609-1.75.2797852-3.4899902.5800781-5.25.7001953-1.3100586.0898438-2.7399902.1196289-4.1201162-.0800781-1.8598633-.2700195-3.619873-.9399414-4.8398438-2.4199219-1.2800293-1.550293-1.5600586-3.6601563-1.3300781-5.6201172.2099609-1.8198242.8100586-3.5400391 1.5900879-5.2202148.8198242-1.7700195 1.8598633-3.4799805 2.8798828-5.1499004 3.8000479-6.2197266 7.1201162-13.659668 11.9799795-19.199707 2.2199707-2.5200195 6.4599609-6.8100581 10.2700214-7.9404292.7299805-.2197266 1.4300537-.3198242 2.1101074-.2797852 2.9799805.2001953 5.2099609 2.5600586 7.0998535 4.7397456.0900879.1103516.1800537.2104492.2700195.3203125 4.8601074 5.6098633 9.7099609 11.239747 14.5700684 16.8500977 2.3100586 2.6699219 4.7099571 5.5097656 5.2700157 8.9399395.7199708 4.3701171-1.9499473 8.9399413-5.9899864 11.1899413z" fill="#ee2a7b"/></g><g><path d="m126.3888321 93.5973282c-.4799805 3.7797852-2.5300293 7.1699219-4.5400391 10.4501953-3.8299561 6.2397461-7.2199707 13.7397461-12.0899658 19.2700195-.9500732 1.0898438-2.2799072 2.5-3.789917 3.8398438-.0100098.0200195-.0200195.0200195-.0300293.0297852-2.6500244 2.3501053-5.8500977 4.490242-8.5100098 4.2700272-.9200439-.0800781-1.7600098-.3696289-2.5500488-.8095703h-.0100098c-1.7099609-.9404297-3.1300049-2.5703125-4.3898926-4.1103592-2.1401367-2.6201172-4.2800293-5.2299805-6.420166-7.8500977-2.6699219-3.2597656-5.3398438-6.5297852-8.0100098-9.7895508-2.25-2.7402344-4.5698242-5.6704102-5.0898438-9.1503906-.6501465-4.449707 2.039917-9.0297852 6.0599365-11.25 4.0200195-2.2099609 9.0899658-2.2197266 13.3800049-.5698242l.1699219.3198242c-.7700195-11.1899414-.8398438-15.3496094-1.619873-26.5400391-.2700195-3.9399414-.5500488-7.8896484-.75-11.8496094-.5800781-11.5703125-.5500488-23.1704082 1.8898926-34.4804688 1.2000733-5.5795888 4.6101075-12.2197253 10.4300538-11.859862 2.460083.1601563 4.4200439 1.5502932 5.9000244 3.4799807 1.3798828 1.7602534 2.3699951 3.97998 3 6.0903316 2.9499512 9.9199228 2.4099121 20.4697266 1.8399658 30.7998047-.7600098 13.7299805-1.2399902 27.1601563-1.9899902 40.8999023l1.2399902.5c4.3900146-.3896484 9.0599365-1.7797852 12.7399902.7700195.6700439.4599609 1.3099365 1.0600586 1.9100342 1.8198242 1.2399903 1.5903311 1.4899903 3.7304678 1.2299805 5.7202139z" fill="#1c75bc"/></g><g><path d="m44.8387871 9.4474268c-4.8598633 4.1796875-9.1599121 9.2299814-12.9499531 13.6298838-7 8.1201172-12.9399414 17.2402325-17.0800781 27.1401348-1.8598633-.2700195-3.619873-.9399414-4.8398438-2.4199219-1.2800293-1.550293-1.5600586-3.6601563-1.3300781-5.6201172.2099609-1.8198242.8100586-3.5400391 1.5900879-5.2202148 4.0599365-7.4697247 8.9799795-14.4296856 14.5898428-20.9599609 3.2000732-3.7197266 6.710083-7.6899414 10.540041-11.3300781.7299805-.2197266 1.4300537-.3198242 2.1101074-.2797852 2.9799805.2001953 5.2099609 2.5600586 7.0998535 4.7397456.0900888.110353.1800547.2104506.2700205.3203139z" fill="#ff4399"/></g><g><path d="m46.4188652 118.727211c-1.1400146 5.5102539-4.5 12.1201248-10.4000244 11.8501053-2.8900146-.1298828-5.1099873-1.9199219-6.7200947-4.2700272 9.0100117-2.3100586 10.7200947-18.8598633 11.3801289-26.4199219 1.2600098-14.4799805 2.0200195-28.9897461.9099121-43.5-.2099609-2.7001953 1.4300537-4.25 3.4400635-4.6801758-.1199951 2.5800781.7600098 5.5600586.9100342 7.7099609.3199463 4.5400391.6499023 9.0703125 1.0300293 13.6103516 1.2899169 15.2299805 2.5699462 30.6899415-.5500489 45.6997071z" fill="#e01b75"/></g><g><path d="m106.4188614 6.997232c-11.1101074 7.4999995-13.6600342 26.1201157-14.8400879 38.4501938-.2199707 2.2998047-1.6499023 3.7700195-3.3798828 4.4101563-.5800781-11.5703125-.5500488-23.1704082 1.8898926-34.4804688 1.2000732-5.5795888 4.6101074-12.2197253 10.4300537-11.859862 2.460083.1601562 4.4200439 1.5502932 5.9000244 3.4799807z" fill="#2388cc"/></g><g><path d="m126.3888321 93.5973282c-.4799805 3.7797852-2.5300293 7.1699219-4.5400391 10.4501953-3.8299561 6.2397461-7.2199707 13.7397461-12.0899658 19.2700195-.9500732 1.0898438-2.2799072 2.5-3.789917 3.8398438-.0100098.0200195-.0200195.0200195-.0300293.0297852-3.380127 2.1303787-7.1600342 3.2299881-11.0600586 3.4604568h-.0100098c-1.7099609-.9404297-3.1300049-2.5703125-4.3898926-4.1103592-2.1401367-2.6201172-4.2800293-5.2299805-6.420166-7.8500977 4.3500977 2.0200195 9.1800537 3.0400391 13.8601074 1.3901367 5.0999756-1.7998047 7.6899414-6.6098633 10.5100098-10.8999023 5.0300293-7.6499023 9.9699707-15.3598633 14.8199463-23.1201172.6700439.4599609 1.3099365 1.0600586 1.9100342 1.8198242 1.2399903 1.5903321 1.4899903 3.7304688 1.2299805 5.7202149z" fill="#116daa"/></g><g fill="#202020"><path d="m52.1922531 49.6693535c1.8339844-.0200195 4.2032471-.2675781 6.8753662-1.5400391 1.3322754-.6411133 2.723877-1.5712891 3.9632568-2.8754883 1.2432861-1.2929688 2.3881836-2.956543 3.0771484-5.0454102.3426514-1.0410156.5705566-2.1870117.5979004-3.4072266.0356445-1.2236328-.1713867-2.5136719-.5706787-3.7241211-.7913818-2.4643536-2.322998-4.6113262-3.9691162-6.6210918-6.5440521-7.7410736-17.194458-20.3703423-19.9085693-22.3027344-1.0690918-.7543948-2.4018555-1.4052737-3.9078369-1.6445315-.7216797-.1040039-1.5897217-.1206055-2.3240967.015625-.3790283.0581055-.7513428.1298828-1.0888672.2446289-.3508301.1000977-.6976318.2080078-1.0115967.3491211-2.5883808 1.0688479-4.595705 2.7065432-6.4974384 4.4345703-1.8843994 1.7495112-3.6159668 3.6357417-5.2058105 5.7314448-2.7573166 3.6202173-12.9953089 21.4636907-14.264648 25.9399404-.6374512 2.2954102-.9007568 4.777832-.0837402 7.0761719.3950191 1.1357422 1.1249995 2.1787109 2.000854 2.9072266.876709.7436523 1.8815918 1.2197266 2.8497314 1.503418 1.9544678.5683594 3.760498.5322266 5.3563232.4296875 1.6162109-.1337891 2.9747314-.3588867 4.2578125-.6459961 1.2188721-.3432617 2.1741943-.6342773 2.8839111-.4946289.5566406.1005859.9151611.4677734 1.1254883.7993164-.2874756 1.2841797-.7003174 5.5371094-1.1872559 11.7666016-3.0009003 38.4120293-3.0404472 47.4640617-.6464844 56.8437538.7476807 2.9990234 1.8848877 6.2407227 4.026001 8.8706055 1.0576172 1.3237305 2.4050293 2.527832 4.0615253 3.3022461 1.6433105.8085938 3.5291748 1.0581055 5.2956543.8354492 1.7969971-.21875 3.4790039-1.0083008 4.7935791-2.0405273 8.7285004-6.7979279 8.6303406-28.5816116 8.154541-39.7490234-.4303932-9.2037582-2.7042465-31.7683525-3.1152344-35.1943398-.4237061-3.5161133-.7709961-5.5761719-1.0731201-6.7880859.3510742.1503906.7768555.3066406 1.305542.4541016 1.0086672.281738 2.3807375.5581052 4.2298586.5693357zm-6.0544433 61.7939491c-.5710793 4.8141632-1.4201813 9.7094803-3.6361084 13.2246094-1.2529297 1.9921875-3.0238037 3.6015625-5.1187744 3.8745117-2.1563721.3422852-4.3168945-.6518555-5.9407978-2.6611328-.8240967-.9731445-1.5124512-2.1455078-2.078125-3.3935547-.288208-.6254883-.5316162-1.2641602-.7558594-1.9360352-.2078857-.6958008-.4577637-1.3789063-.6351318-2.0883789-3.3912296-12.233902-1.6648235-23.5647812-1.2290039-55.8447304.0720215-5.3120117.0664063-9.1943359-.0405273-11.0424805.0180664.0366211.0361328.0605469.0579834.0610352.05896.0068359.1864014-.2407227.1169434-.7480469-.0664063-.472168-.4053955-1.3188477-1.4321289-1.6987305-.9995117-.3500977-2.1867676-.0922852-3.3540039.0986328-1.1462402.1342773-2.5845947.2456055-4.0708008.2475586-1.4932861-.015625-3.1540527-.1259766-4.6879883-.6884766-1.5317383-.5488281-2.8422852-1.6557617-3.300415-3.2895508-.4998779-1.637207-.2443848-3.6479492.4013672-5.5966797 1.2547054-3.7775154 12.1789169-21.4676399 14.6179199-24.5039063 1.4735107-1.8491211 3.1552734-3.5996094 4.8925781-5.1425781 1.729126-1.5288086 3.5976582-2.9082026 5.3950214-3.5942378.2243652-.1000977.4401855-.1572266.65271-.2138672.2175293-.0751953.4189453-.1025391.6149902-.128418.2053223-.0493164.3812256-.0356445.5562744-.0371094.1696777-.0200195.3706055.0229492.5601807.0410156.7581787.1376953 1.5073242.484375 2.2349854 1.0112305 1.5793419 1.1332011.6015892.2218432 19.137085 21.590332 1.5566406 1.8486328 2.7791748 3.6015606 3.3483887 5.3002911.6099854 1.6884766.5240479 3.2827148.086792 4.7680664-.4343262 1.472168-1.2321777 2.7421875-2.1242676 3.7441406-.8914795 1.019043-1.8903809 1.7587891-2.8824463 2.3085938-2.0134277 1.1083984-3.9359131 1.484375-5.4761963 1.6674805-1.5548096.1601563-2.7695313.1123047-3.694458.0639648-.9283447-.0473633-1.5712891-.1171875-2.0288086-.1186523-.9090576-.0327148-1.0718994.1879883-1.1650391.4555664-.0180664.0517578-.0316162.1049805-.0391846.159668-.2907715.7050781-.4370117 2.6767578-.2629395 8.2915039.6921996 22.7009866 3.5130118 38.0525949 1.2797851 55.8183648z"/><path d="m69.3630295 101.5531464c1.2106781 4.4253998 3.8664551 7.297287 20.0123291 26.8081055 2.1746368 2.5716705 4.7226486 4.9398041 8.1518555 5.0527344.8137207.0263672 1.5854492-.0859375 2.2860107-.2792969 2.8050537-.8134766 4.8566895-2.4125977 6.8031006-4.0605469 8.490509-7.4262466 11.4123459-15.7219543 16.6335449-24.5605469 1.1887207-2.0244141 2.3577881-4.0883789 3.1999512-6.2705078.8265381-2.184082 1.3458252-4.4746094 1.1444092-6.7602539-.1046143-1.1328125-.4041748-2.2602539-.9606934-3.2548828-.2767334-.4916992-.6149902-.9658203-1.0039063-1.331543-.1911621-.1899414-.3677979-.3920898-.5690918-.5620117-.2119141-.1577148-.4221191-.3144531-.6304932-.4692383-1.7297363-1.1899414-3.6126709-1.4443359-5.1855469-1.5732422-3.192627-.1567383-5.6333008.2241211-7.3308105.2646484-1.6911621.0898438-2.6269531.003418-2.6607666.1552734-.0321045.121582.8937988.487793 2.6368408.6650391 1.7288818.2216797 4.2647705.1083984 7.1883545.4916992 1.434082.2255859 3.0090332.5976563 4.2122803 1.5678711l.4425049.3725586c.1397705.1342773.255249.2954102.3869629.4399414.2785645.2880859.4705811.6098633.6456299.9643555.342041.7070313.5236816 1.5405273.5571289 2.4267578.065918 1.7768555-.4484863 3.7324219-1.2705078 5.6220703-.8359375 1.9047852-1.9998779 3.7895508-3.2580566 5.7475586-5.4983292 8.5343552-8.5685883 16.4931335-16.609375 23.206543-1.7303467 1.4433594-3.6436768 2.7241211-5.3479004 3.1533203-1.526123.4360352-2.9925537-.2075195-4.3929443-1.4677734-.1124344-.1010056-19.9915619-22.7923126-21.3354492-27.3974609-1.4544907-5.0636139 2.3004074-11.4377747 10.4881592-12.2963867 1.5322266-.1347656 2.7277832-.0664063 3.6380615-.0009766.9136963.0644531 1.5463867.1464844 1.9979248.15625.5992432.0336914.869873-.0532227 1.0151367-.1928711.1086426.0732422.2159424.0800781.3243408.0727539.5610352-.0385742 1.0484619-.4091797.9050293-8.7890625-.3026352-16.4064407-4.4334946-57.4533997 2.956665-69.9223633 1.2104492-2.0629878 2.9637451-3.7758784 5.0062256-4.0273433 2.1179199-.3520508 4.2005615.8432617 5.746582 2.9663081 8.2057877 11.1207857 4.0939789 46.7453957 3.6918945 64.2270508-.1759033 7.6376953-.1677246 12.3691406.1130371 12.3842773.2806396.015625.807373-4.6860352 1.4698486-12.2973633 1.9194031-22.0605621 6.3822327-54.36129-2.2335205-66.512207-1.0023193-1.3759766-2.2382813-2.7001956-3.8845215-3.5820315-.7983398-.46875-1.7120361-.7539063-2.6212158-.9609375-.9229736-.1552734-1.850708-.1953125-2.7698975-.0834961-1.8574219.2148438-3.5646973 1.0786133-4.8575439 2.1640625-1.309082 1.089844-2.2861328 2.3686526-3.0782471 3.6625979-8.4551773 13.969759-4.1426697 55.9876213-2.4121094 72.1806641.4066162 3.8540039.7376709 5.9765625 1.0321045 7.1542969-.4162598-.2470703-1.0266113-.5512695-1.9632568-.8349609-.9918213-.3007813-2.3448486-.6015625-4.1762695-.6425781-10.1909561-.0493241-16.1716384 8.6624145-14.133789 16.2231445z"/></g></g></svg>