<svg id="Layer_1" enable-background="new 0 0 135 135" height="512" viewBox="0 0 135 135" width="512" xmlns="http://www.w3.org/2000/svg"><g><g><path d="m128.4190826 88.0440521c-1.6600418 3.7399902-4.359993 7.4599609-8.3700027 8.880127.3800049 3.6599121-.0600586 7.369873-1.7199707 10.619873-.2600098.5100098-.5500488 1.0200195-.880127 1.5100098-.6899414 1.0400391-1.5499268 1.9899902-2.539917 2.8100586-3.5299072 2.9899902-8.6300049 4.4199219-12.9899902 2.9099121-1.539917 6.1899414-5.8199463 11.5900879-11.3699951 14.0900879-6.2399902 2.7998047-15.2199707 4.329834-20.7399902.2199707-5.2099609 2.579834-11.4200401 3-17.010006 1.5200195-2.6400146-.6999512-4.6699219-1.6201172-6.5300293-3.5600586-2.3000488-2.380127-4.0700684-1.6999512-7.0700684-2.1398926-3.2199707-.4799805-6.3398438-1.7001953-9.0198994-3.5500488-5.0499268-3.5100098-8.2999268-8.9401855-9.7200928-14.630127l2.4101563-.2600098c-6.7000732-2.2199707-12.3200684-7.0998535-15.130127-13.1499023-2.0499268-4.4001465-2.6098633-9.4401855-1.6098633-14.1901855.2698975-1.3098145 1.2698975-2.5297852 1.7199707-3.7697754.1599121-.4299316.2600098-.8500977.2399902-1.2900391-.0900879-1.8898926-1.8500977-3.3400879-2.5100098-5.0300293-1.0700684-2.7900391-1.5600586-5.8000488-1.3701172-8.7900391.2700195-4.2600098 1.9300537-8.3701172 4.5400391-11.7299805.9899902-1.2600098 2.8000488-2.4199219 3.3701172-3.8901367.4899902-1.2797852-.0800781-2.8498535.0599365-4.1799316.25-2.329834.9500732-4.5998535 2.0599365-6.6599121 1.3000488-2.4199219 3.1500244-4.5200195 5.3200684-6.1899414 1.1599121-.8901367 2.4899902-1.8300781 3.8599854-2.3601074 1.2700195-.4899902 2.3800049-.2900391 2.8499756-1.6499023.3800049-1.1000977.1400146-2.6000977.5800781-3.8300781.619873-1.7099609 1.5100098-3.3100586 2.6499023-4.7299814.7600098-.9799805 1.6400146-1.880127 2.6201191-2.6599121 1.1599121-.9399414 2.5-1.7001953 3.9099121-2.3100586 2.4499512-1.0500488 5.1600342-1.6201172 7.7099609-1.7700195 1.9300537-.1098633 3.5.5300293 5.3200684.6401367 2.2299805.1398926 4.0999756-.8701172 6.1999512-1.3400879 1.7199707-.380127 3.3900146-.6000977 5.1101074-1.0800781 4.3598595-1.2099609 8.9799767-1.75 13.4799767-1.119873 4.6999512.6599121 9.1599121 2.7700195 11.4299316 5.8798828 6.0300293.1298828 11.9799805 1.9199219 16.6500244 5.04004.6600342.4399414 1.2999268.9099121 1.9100342 1.4099121 2.25 1.8200684 4.0999756 3.9602051 5.4699707 6.3000488 1.0500488 1.7800293 1.8200684 3.6799316 2.25 5.6298828 5.8200684 3.920166 10.2199707 9.3100586 12.4399414 15.2900391 2.3400879 6.2700195 2.2700195 13.1501465-.1999512 19.3901367 3.6999512 2.3300781 6.0600662 6.3100586 6.7700272 10.4299316.7600099 4.4899902-.2700194 9.1000976-2.1500243 13.290039z" fill="#fde4cb"/></g><g><path d="m92.919075 37.3240814c-1.8099365 3.2299805-4.0499268 6.1599121-6.0100098 8.9499512-3.0899658 4.4299316-6.0499268 9.0200195-9.0599365 13.5100098-6.0600586 9.0500488-22.7499962 35.0400391-25.3601036 38.5898438-1.2800293 1.7402344-3.0999756 4.3100586-4.8598633 4.920166-1.210083.4199219-2.6401367-1.170166-3.5700684-2.0300293-1.0300293-.9399414-2.1000977-3.3500977-1.7399902-5.2299805.4099121-2.1098633 2.0200195-3.3798828 2.8100586-5.1899414.2598877-.6000977 4.8099365-7.6801758 10.9099121-17.0300293 12.7199669-19.5 32.1699181-48.9001465 33.4299278-50 2.1401367-1.8701172 5.1201172-2.1599121 6.0900879 1.4599609 0 .0100098.0100098.0300293.0100098.0400391 1.0500489 4.0300293-.8701172 8.8298339-2.6500244 12.0100097z" fill="#00a79d"/></g><g><path d="m61.7790642 39.8240814c.1799316 4.9099121-1.7299805 10.4199219-3.9299316 14.6499023-3.2299805 6.1899414-9.960083 10.9199219-16.8500977 10.1101074-4.3898926-.5100098-8.5100098-3.25-10.8599873-7.2299805-1.1500244-1.9499512-1.9100342-4.0200195-2.3099365-6.1401367-2.0600586-10.7299805 4.7299824-22.8400879 14.119875-26.9899902 4.6201172-2.0400391 10.3500977-2.25 14.2900391 1.0300293.8100586.670166 1.5100098 1.4699707 2.130127 2.3300781.0299072.0397949.0499268.0700684.079834.1098633 1.0500488 1.4699707 1.7800293 3.1601563 2.2900391 4.9299316.6700438 2.3300782.9500731 4.8200685 1.0400389 7.2001954z" fill="#00a79d"/></g><g><path d="m99.9493179 99.5140228c-2.7674408 3.2199707-6.2719803 6.0600586-10.4796982 7.4299316-4.2190704 1.3601074-9.220932 1.0400391-12.6800537-1.5-9.7538147-7.1599121-4.2758408-23.6799316 3.2664032-31.7600098.6691208-.7199707 1.3609467-1.369873 2.0529099-1.9399414 4.729393-3.9099121 11.2054443-5.8999023 16.7516785-4.0400391 5.2170029 1.75 7.7122574 5.4702148 8.3927307 9.8901367.0113525.0698242.0227051.1398926.0227051.2099609 1.0433425 7.2700197-2.7445984 16.3701174-7.3266755 21.7099611z" fill="#00a79d"/></g><g><path d="m95.6351547 82.2092133c-.3187561-2.3376617-1.4808044-4.3053055-3.9117966-5.2300415-2.584465-.9831161-5.5993805.0702972-7.8045807 2.1343765-3.9586411 3.7053146-7.4319 13.6871872-2.4794464 17.8130646 1.6094894 1.3408432 3.9423981 1.5099182 5.9068451.7893753s3.5930252-2.2224045 4.8829727-3.9249496c2.1574555-2.8475419 3.9326478-7.7196732 3.4060059-11.5818253z" fill="#fff"/></g><g><path d="m37.0845528 47.7692261c.2739716 2.2927437 1.4545135 4.3031654 4.0127144 5.4179344 2.7197037 1.1851501 5.9534073.4367447 8.3545151-1.3634872 4.3103256-3.2316742 8.2788239-12.5859146 3.1293945-17.0282974-1.6734962-1.4437027-4.1484108-1.8177795-6.2563591-1.2970467-2.1079521.5207329-3.8805923 1.8284454-5.2988701 3.3610535-2.3720894 2.5633125-4.3940316 7.1218948-3.9413948 10.9098434z" fill="#fff"/></g><g><path d="m46.6191521 124.594101c-1.710083.4199219-3.4700928.5898438-5.2399902.5100098 1.7499999-.130127 3.4999999-.3000489 5.2399902-.5100098z" fill="#fcd4b1"/></g><g><path d="m128.4190826 88.0440521c-1.6600418 3.7399902-4.359993 7.4599609-8.3700027 8.880127.3800049 3.6599121-.0600586 7.369873-1.7199707 10.619873-1.1101074 1.4599609-2.25 2.8999023-3.4200439 4.3200684-3.5299072 2.9899902-8.6300049 4.4199219-12.9899902 2.9099121-1.539917 6.1899414-5.8199463 11.5900879-11.3699951 14.0900879-6.2399902 2.7998047-15.2199707 4.329834-20.7399902.2199707-8.2199669 4.0700684-19.2199669 2.7897949-25.9999962-3.1501465l3.3999023-1.4199219c90.2467346-11.8133163 66.7467499-87.1027985 61.9899864-97.6799316-.4427185-.9844303-.1799316-2 .1101074-2.8200684 1.0500488 1.7800293 1.8200684 3.6799316 2.25 5.6298828 5.8200684 3.920166 10.2199707 9.3100586 12.4399414 15.2900391 2.3400879 6.2700195 2.2700195 13.1501465-.1999512 19.3901367 3.6999512 2.3300781 6.0600662 6.3100586 6.7700272 10.4299316.7600097 4.4899903-.2700196 9.1000977-2.1500245 13.2900391z" fill="#fcd4b1"/></g><g><path d="m58.3691521 27.5840912c-13.7600098.079834-26.0200195 9.119873-30.1601582 22.7099609-.0998535.329834-.2299805.6398926-.3798828.9199219-2.0600586-10.7299805 4.7299824-22.8400879 14.119875-26.9899902 4.6201172-2.0400391 10.3500977-2.25 14.2900391 1.0300293.8100585.670166 1.5100097 1.4699707 2.1301269 2.3300781z" fill="#05c6b3"/></g><g><path d="m95.5590897 25.2740326c-11.209961 15.9499512-22.2399903 32.0500488-34.3900109 47.3000488-1.5300293 1.9199219-3.5 2.0698242-5.1300049 1.2399902 12.7199669-19.5 32.1699181-48.9001465 33.4299278-50 2.1401368-1.8701171 5.1201173-2.1599121 6.090088 1.459961z" fill="#05c6b3"/></g><g><path d="m107.2759933 77.8040619c-5.5800171-5.3901367-13.4852676-7.7800293-21.0729218-3.7700195-2.3249588 1.2299805-4.5593796.8200684-6.1471024-.3500977.6691208-.7199707 1.3609467-1.369873 2.0529099-1.9399414 4.729393-3.9099121 11.2054443-5.8999023 16.7516785-4.0400391 5.2170029 1.75 7.7122574 5.4702148 8.3927307 9.8901367.0113526.0698243.0227051.1398926.0227051.209961z" fill="#05c6b3"/></g><g><path d="m103.839119 17.713974c-.1800537-.0300293-.3701172-.0700684-.5700684-.1298828-20.8599854-6.0800791-45.3200645-11.750001-64.1499023 2.4199219-7.9500751 5.9899902-14.5600605 13.9099121-19.5200214 22.5100098-4.6800537 8.1098633-9.630127 18.6298828-8.5400391 28.1999512.3100586 2.6599121-1.2399902 4.1999512-3.2099609 4.6401367.1599121-.4299316.2600098-.8500977.2399902-1.2900391-.0900879-1.8898926-1.8500977-3.3400879-2.5100098-5.0300293-1.0700684-2.7900391-1.5600586-5.8000488-1.3701172-8.7900391.2700195-4.2600098 1.9300537-8.3701172 4.5400391-11.7299805.9899902-1.2600098 2.8000488-2.4199219 3.3701172-3.8901367.4899902-1.2797852-.0800781-2.8498535.0599365-4.1799316.25-2.329834.9500732-4.5998535 2.0599365-6.6599121 1.3000488-2.4199219 3.1500244-4.5200195 5.3200684-6.1899414 1.1599121-.8901367 2.4899902-1.8300781 3.8599854-2.3601074 1.2700195-.4899902 2.3800049-.2900391 2.8499756-1.6499023.3800049-1.1000977.1400146-2.6000977.5800781-3.8300781.619873-1.7099609 1.5100098-3.3100586 2.6499023-4.7299814 1.0500488-.9001465 2.1101074-1.7600098 3.1999531-2.5998535 1.1000977-.8400879 2.210083-1.630127 3.3300781-2.3701172 2.4499512-1.0500488 5.1600342-1.6201172 7.7099609-1.7700195 1.9300537-.1098633 3.5.5300293 5.3200684.6401367 2.2299805.1398926 4.0999756-.8701172 6.1999512-1.3400879 1.7199707-.380127 3.3900146-.6000977 5.1101074-1.0800781 4.3598595-1.2099609 8.9799767-1.75 13.4799767-1.119873 4.6999512.6599121 9.1599121 2.7700195 11.4299316 5.8798828 6.0300293.1298828 11.9799805 1.9199219 16.6500244 5.04004.660038.4399412 1.2999305.9099119 1.910038 1.4099119z" fill="#fff0e3"/></g><g fill="#202020"><path d="m41.7987862 92.8218842c-.4564209.7248535-.9022217 1.6135254-1.1209717 2.5927734-.255127 1.0463867-.1810303 2.0876465-.0025635 2.9743652.1866455.9023438.4901123 1.7236328.9040527 2.5102539.2131348.3937988.4447021.7783203.7458496 1.1647949.1563721.1950684.3164063.3876953.5224609.5869141l.3834229.3681641c.4931641.4663086 1.0290527 1.010498 1.796875 1.53125.3288574.2316895 1.0129395.6074219 1.6268311.7365723.6325684.1645508 1.2884521.0996094 1.8991699-.0791016.2736816-.1171875.5539551-.2131348.8144531-.3679199.2044678-.1049805.3728027-.2175293.5445557-.3305664.3391113-.2268066.6296387-.4626465.9017334-.6994629.5384521-.4746094.9864502-.9550781 1.4001465-1.4301758 2.4678955-2.8498001 6.1178207-8.611084 15.2476845-22.6982422 3.7388916-5.8088379 6.9564209-10.8078613 9.7252197-15.1096191 5.5644531-8.5493126 9.2969971-14.3828087 11.7678223-18.3264122 2.5825195-3.8823242 3.7766113-6.1164551 4.21521-7.3393555.4470215-1.2294922.2437744-1.4455566.0031738-1.5812988-.2490234-.1403809-.5185547-.1779785-1.361084.7634277-.8465576.9511719-2.3063965 2.7966309-5.2050781 6.489502-2.8027344 3.7753906-6.77771 9.4345703-12.5540771 17.9304199-14.8916664 22.1367683-22.8213997 35.5056038-25.9237099 38.251461-.1673584.1467285-.3341064.28125-.4862061.3828125-.0753174.0493164-.1516113.1044922-.2139893.1320801l.0032959.0014648-.0041504.0026855c-.022583-.0124512.0686035.0454102-.1522217-.0925293-.3387451-.2192383-.770874-.6196289-1.262085-1.0876465l-.3562012-.3371582c-.041626-.0366211-.1010742-.1079102-.1611328-.1794434-.1239014-.1540527-.2524414-.3615723-.37146-.576416-.2376709-.439209-.4273682-.9448242-.5299072-1.4289551-.1002197-.4938965-.1234131-.9174805-.0325928-1.2758789.3557243-1.697113 13.1701126-21.3607101 33.6453896-53.2524376 3.2685547-5.0395508 6.361084-9.8076172 9.161377-14.1254883.7011719-1.0810547 1.4003906-2.1049805 2.0765381-3.1040039.3547363-.545166.6245117-.8547363.9194336-1.2868652.3753662-.3410645.7835693-.626709 1.2016602-.8352051.8432617-.4272461 1.699585-.4851074 2.2921143-.0898438.6158447.3825684 1.0413818 1.1828613 1.2609863 2.0231934.4772949 1.706543.3514404 3.4145508.1196289 4.8623047-.2402344 1.4597168-.6356201 2.6958008-.9747314 3.6955566-.7037354 1.9973145-1.2225342 3.065918-1.0917969 3.1369629.100708.0578613.8486328-.8808594 1.8099365-2.8395996.4675293-.9831543.9993896-2.2216797 1.3804932-3.7578125.3659668-1.5253906.6563721-3.3850098.21875-5.4541016-.217041-1.0102539-.6435547-2.2167969-1.7868652-3.0585938-.5639648-.4086914-1.2977295-.6352539-2.0018311-.635498-.7071533-.0046387-1.3804932.171875-1.9956055.439209-.6162109.2695313-1.1828613.6318359-1.7011719 1.0605469-.4310303.4956055-.9512939 1.092041-1.2768555 1.5576172-.7332764.986084-1.4924316 2.0031738-2.2363281 3.0539551-3.0146484 4.1965332-6.2598877 8.8718262-9.6702881 13.829834-9.0649109 13.180092-24.3870353 35.8530847-34.1153602 51.30151z"/><path d="m39.4193916 66.1133881c7.704937 1.5925827 16.8827744-2.739212 21.5986328-14.272213 1.2121582-3.0292969 1.8747559-5.7229004 2.1607666-8.0412598.3022461-2.3039551.1672363-4.2995605-.0362549-5.720459-.3988037-2.9379883-1.005127-4.4143066-1.4191895-5.1247559-.4327393-.7116699-.7147217-.6833496-.9818115-.6079102-.2736816.0773926-.5039063.2099609-.5570068.9885254-.2947769 3.2945175 1.3781548 7.9370499-2.6279297 17.0568848-4.2985992 9.6870384-11.5478821 12.9148178-17.3094482 11.7336426-5.4535675-1.0921631-9.7335243-5.1847305-10.8762188-14.2165527-.2489014-3.7373047.6594238-7.6809082 2.2706299-11.2514648 3.9122105-8.4238625 12.5972843-14.9709893 20.8981915-12.6337891 1.3496094.378418 2.4882813 1.0449219 3.4364014 1.7807617 1.880127 1.5498047 2.9748535 3.3364258 3.6391602 4.5751953.6669922 1.2587891.9814453 2.0102539 1.1262207 1.9667969.1242676-.0349121.078125-.8603516-.3702393-2.2866211-.4587402-1.4116211-1.3652344-3.465332-3.3393555-5.4377441-1.0111084-.9577637-2.3085938-1.8671875-3.8709717-2.4375-7.7482033-2.8537064-18.7555351 1.5857086-24.5552959 12.9936523-1.9621582 3.9633789-3.1586914 8.4453125-2.9831543 12.9064941.3886909 9.3762246 6.1207179 16.4728051 13.796873 18.0283166z"/><path d="m83.76754 68.7928314c-1.8181152 1.0566406-3.5490723 2.4404297-5.0477295 4.0305176-1.5004883 1.5837402-2.8143311 3.3432617-3.980957 5.199707-4.5435638 7.3743591-7.2861099 17.5088959-2.8909912 24.9406738 3.6870804 6.1999512 11.0308609 8.0986481 18.013916 5.972168 2.5697021-.8007813 4.7460938-2.0498047 6.5731201-3.407959 5.3146667-3.9673767 9.1884918-9.8913956 11.1096191-16.2680664.6616211-2.2053223.9719238-4.0522461 1.0961914-5.5539551.213501-3.0166016-.1806641-4.6013184-.5057373-5.3684082-.3314209-.7734375-.6018066-.7797852-.8797607-.7387695-.2779541.0407715-.5356445.1481934-.6967773.9035645-.1647949.7495117-.2346191 2.1608887-.7684326 4.7961426-.2838135 1.3154297-.7164307 2.9355469-1.4454346 4.8823242-2.0666656 5.5097122-5.5299225 10.688797-10.2729492 14.1328125-1.5606689 1.1298828-3.3638916 2.1298828-5.4060059 2.7514648-4.9665375 1.4918365-10.5889435.4609528-13.4095459-4.1755371-3.7148743-5.8986435-1.0734482-15.0750732 2.3797607-21.1308594 2.010376-3.4538574 4.5089111-6.5358887 7.649292-8.5183105 3.0930176-2.0354004 6.6074219-3.1347656 9.7800293-3.0783691 3.1673584.0214844 5.9923096 1.2280273 7.8657227 2.7202148 1.9116211 1.5097656 2.8657227 3.3618164 3.4163818 4.6474609.543335 1.3066406.753418 2.0952148.907959 2.0690918.121582-.017334.1894531-.8469238-.1263428-2.3195801-.3255615-1.4406738-1.1156006-3.6340332-3.145874-5.5827637-2.0032959-1.9213867-5.0861816-3.5334473-8.8118896-3.809082-3.7003175-.2958984-7.7770997.7570801-11.4035645 2.9055176z"/><path d="m95.6353378 82.2090912c-.2786865.036377-.5408936.1091309-.7487793.4865723-.0544128.1000137-3.3702393 14.8295441-10.7388916 13.3171387-.4793701-.0996094-.9477539-.2856445-1.3365479-.5869141-.1981201-.1623535-.3991699-.4042969-.6256104-.5942383-.1634521-.2563477-.3670654-.4880371-.5217285-.7758789-2.093689-3.8912277.5316162-11.5138474 3.9157715-14.4624023 1.2980957-1.114502 2.8485107-1.7912598 4.253418-1.8400879 1.3909912-.0712891 2.6955566.5134277 3.5408936 1.2199707.854126.7312012 1.3360596 1.6123047 1.6390381 2.2385254.3060303.6318359.4763184 1.0183105.6224365.9973144.1311035-.0175781.2376709-.4394531.1689453-1.2148438-.0720215-.7619629-.3483887-1.9328613-1.2832031-3.1149902-.9425049-1.1479492-2.5321045-2.2167969-4.6080322-2.4016113-2.0506592-.1879883-4.2454834.5314941-6.0858154 1.8305664-5.1523285 3.6924591-9.2407913 13.6688385-4.7432861 20.0895996.4124756.4272461.7822266.8503418 1.2382813 1.2248535.9450684.7524414 2.0147705 1.1743164 2.9981689 1.3776855 1.8083496.3666992 3.5102539.104248 4.9453125-.4697266 5.1743164-2.074913 8.7388535-8.6484833 8.8006592-14.1977539-.0244141-1.5827637-.315918-2.3986816-.6015625-2.7866211-.2832032-.3889159-.5509034-.3732909-.8294679-.3371581z"/><path d="m54.9922676 34.4019661c-.3936768-.4226074-.7683105-.8374023-1.1816406-1.2165527-4.266674-3.6083298-11.6065178-2.2695637-15.7375488 4.4360352-1.8022461 2.996582-2.2071533 5.3691406-2.3140869 6.9511719-.0540771 1.6062012.227417 2.4440918.5025635 2.8410645.2758789.3991699.5437012.3869629.822876.3554688.2791748-.03125.5426025-.1005859.7581787-.4711914.2132568-.3671875.3903809-1.0344238.7579346-2.2578125.4083252-1.1994629 1.0124512-3.0693359 2.6086426-5.3581543 3.3451004-4.6809196 7.7120285-5.2621765 10.0040283-3.387207 4.9718361 4.721199-.9360962 16.8956184-8.2907715 16.2460938-1.43396-.123291-2.7359619-.7788086-3.5830078-1.512207-.8605957-.7536621-1.3430176-1.626709-1.6434326-2.255127-.302124-.6325684-.4648438-1.0229492-.6115723-1.0043945-.1309814.0151367-.2462158.4375-.1810303 1.2177734.0672607.7675781.3587646 1.9411621 1.2738037 3.119873.9255371 1.1564941 2.4012451 2.2368164 4.381958 2.6818848 6.8012428 1.4942017 12.6799812-5.0605812 14.1138916-11.8781738.4603271-2.2841797.3439941-4.8364258-.7348633-7.0112305-.2658692-.5336917-.6239014-1.0187991-.9459229-1.4973147z"/><path d="m4.8795981 71.1912689c.7896729 1.3354492 1.5179443 2.2053223 2.1162109 2.7866211-.2932129.4023438-.6322021.9611816-.9833984 1.6811523-4.4568071 9.2111053-1.1582632 22.2754593 10.0151367 28.7854004 1.8637695 1.0473633 3.2598877 1.5354004 4.2562256 1.7661133-.0843506.4289551-.0469971 1.2663574.166748 2.402832 1.855463 9.8130493 11.0397701 18.0552826 21.8647442 17.5556641.6723633-.0412598 1.2634277-.1152344 1.795166-.2070313.1966553.2924805.4572754.6286621.8212891 1.0227051 5.0054436 5.0832672 14.6166878 7.2424469 22.1785927 4.3349609.3745117-.1516113.7189941-.2910156 1.0360107-.4191895.3018799-.1623535.5775146-.310791.8297119-.4465332.494873-.2836914.8863525-.517334 1.1662598-.779541.1225586-.1069336.222168-.2045898.3149414-.2998047.3146973.2629395.6933594.5405273 1.1444092.8188477 6.7150574 4.1844482 24.570755 2.8347473 30.6953125-11.673584.543335-1.338623.8448486-2.4619141 1.0150146-3.3937988 8.0728912 2.757019 20.208168-4.0833359 18.6721191-18.4477539-.0256348-.2072754-.0544434-.4018555-.0839844-.5942383.0913086-.0349121.1774902-.0627441.2720947-.1022949 1.7956543-.7006836 3.9835205-2.3974609 5.7055664-4.7495117 8.1987076-11.0381088 5.3367691-24.3314896-2.380249-28.350338.0541992-.0900879.1043701-.1640625.161499-.2661133 5.5030746-10.3418694.0137024-27.5242844-13.2935791-34.09375.1556396-.3000488.2348633-.7915039.1566162-1.6577148-.7507629-6.3249836-7.8692856-14.91819-19.8037109-16.9089355-2.5496826-.4309082-4.8382568-.434082-6.4605713-.2644043-.0830078-.2380371-.1936035-.4990234-.3751221-.8129883-4.9927979-8.6235857-22.5093422-8.0986042-31.7168007-1.7919917-.8769531.5979004-1.4649658 1.1403804-1.737915 1.5144038.0513916-.3876953-.1687012-.8610835-1.3210449-1.5959468-.8275146-.4780273-2.1577148-1.0551758-4.222168-1.3671875-11.691314-1.598885-21.7730687 6.9114414-21.5925267 16.3425289.0076904.4890137.0458984.9104004.0996094 1.2736816-.3944092-.036377-1.0330811.0288086-1.8513184.2250977-7.6066809 1.8817616-14.2866678 9.9065361-13.3032227 19.1567383.1060791.9333496.2768555 1.6816406.4675293 2.2885742-.3867188.1889648-.8927002.5129395-1.4769287.973877-6.7610457 5.4321059-9.5398538 16.2783774-4.3482671 25.2934531zm6.1916509-25.2968712c.0447998.0983887.0893555.190918.1329346.2768555.7526855 1.4020996 1.2884521 1.2539063 1.8087158 1.0827637.5458984-.1782227.9654541-.4128418.9873047-1.7719727.0264893-.6804199-.0456543-1.6450195-.0161133-3.0512695.1732855-5.9964104 2.4341564-10.7903576 6.4033203-14.4814453 2.1010742-2.0234375 4.3398438-3.2949219 5.138916-4.0200195.1259766.4555664.2818604.6992188.4134521.6923828.2967529-.0107422.4857178-.984375.9229736-2.4260254 2.6660862-8.9419956 10.4905224-13.0352554 19.6723614-12.8222666 1.6905518.0693359 2.810791.2683105 3.605957.3439941 1.5649414.2231445 1.880127-.1474609 2.1318359-.6643066v-.0002442c.0001221 0 0 .0002441.0001221.0002441.1602783.2397461 1.0987549-.0927734 2.5819092-.5393066 1.4793701-.4506836 3.5460205-.9982905 5.8521729-1.4475093 10.898716-2.1372757 17.6739235-.0848627 22.9939003 3.6914058.626709.4467773 1.0119629.670166 1.3304443.7258301.322998.0546875.5679932-.0585938.8115234-.1987305.050415-.0290527.0991211-.059082.1467285-.0898438 1.5351563.333252 3.7183838.7763672 6.0482178 1.5585938 9.5525436 3.1650562 13.3343201 7.7112036 17.7384033 14.9787607.4521484.7971191.796875 1.1379395 1.1140137 1.2675781 8.6087875 8.5521393 13.8065796 15.8357315 12.6467285 28.3291016-.2022705 2.0397949-.4891357 3.4143066-.609375 4.3742676-.0709229.4824219-.0993652.8601074-.0941162 1.1599121-.008667.0163574-.0184326.0314941-.0269775.0478516-.1303711.2490234-.2332764.4985352-.1331787.8344727.4605331 1.5224495 11.5808029 10.0477562 2.7918701 25.9143028-1.1560059 2.1254883-2.6064453 3.7724609-3.8933105 4.7949219-.2121582-.8293457-.4499512-1.4665527-.6640625-1.9482422-.7874756-1.6784668-1.3271484-1.5693359-1.8554688-1.4172363-.5512695.157959-.9801025.3818359-.9511719 2.0620117-.0023193.8395996.1186523 2.0480957.1400146 3.7976074-.0166473 11.2558289-6.8533401 16.7407837-14.6386719 16.6186523-.0355225-.0009766-.0668945-.0031738-.1019287-.0043945.0028076-.0507813.0073242-.1066895.0093994-.1555176.043335-2.2634277-.5362549-2.3769531-1.0703125-2.4353027-.579834-.0661621-1.0339355.0114746-1.7498779 1.8527832-.3765869.9118652-.8435059 2.2724609-1.8059082 4.1352539-4.0903015 7.654335-10.9864731 11.5535431-19.7312012 12.3552246-2.7242432.2856445-5.1801758-.0371094-6.8964844-.5656738-.4741211-.1435547-.8894043-.2932129-1.2546387-.4311523-.0150146-.2126465-.1105957-.3981934-.2155762-.5876465-.2723389-.4909668-.5931396-.9006348-1.8862305-.6547852-.3155518.0751953-.7209473.1318359-1.1951904.2490234-.2376709.057373-.494873.1257324-.7731934.206543-.2854004.0622559-.5953369.130127-.9324951.2036133-7.6260872 1.7745209-13.6218796.7509918-20.1474648-2.041748-.0751953-.0351563-.1351318-.0603027-.2070313-.0932617.3933105-.1228027.7336426-.2521973 1.0150146-.3798828 1.7415771-.824707 1.5898438-1.3835449 1.416748-1.895752-.1835938-.5500488-.4353027-.9445801-2.0683594-.9091797-.8164063.0053711-1.9921875.0822754-3.7171631.0009766-13.6897202-.8903046-17.6194973-10.5267715-21.3350811-16.0834961 1.5352783.2199707 1.7510986-.2387695 1.9100342-.7070313.1866455-.5454102.2336426-1.020752-1.3101807-2.034668-7.4020586-4.955925-13.83605-10.2090836-14.4639893-20.9484863-.2331543-3.4001465.4155273-6.3530273.7000732-7.9978027 1.0069585.7036133 1.3974614.4089355 1.7641606.0908203.4344482-.3754883.729126-.7565918.1120605-2.1481934-.2983398-.7001953-.8145752-1.6635742-1.4541016-3.1184082-4.0313136-9.4834786-1.7876236-15.8155708 2.8575442-23.5749474z"/></g></g></svg>