<svg id="Layer_1" enable-background="new 0 0 135 135" height="512" viewBox="0 0 135 135" width="512" xmlns="http://www.w3.org/2000/svg"><g><g><path d="m115.3803329 79.3389359c-.2699585 8.3100586-.539978 16.6201172-.8099976 24.9301758-.1599731 4.9697266-.3199463 9.9599609-.7599487 14.9199219v.0097656c.0099487.0400391 0 .0600586-.0100098.1000977-.1900024 2.3500977-.460022 4.6899414-.8099976 7.0302734-.1600342 1.1298828-.3800049 2.2997971-1.1000366 3.1796799-1.3299561 1.6201172-3.7699585 1.590332-5.8599854 1.4604492-13.6400146-.8701172-27.710022.3896484-41.460022.5395508-6.1099854.0703125-12.2199707.1303711-18.3199463.2001953-5.4100342.0600586-12.6000366 1.4199219-17.8200073-.0200195-1.1700439-.3198242-2.1199951-.8701172-2.9000244-1.5898438-.5900269-.5302734-1.0800171-1.1601563-1.4799805-1.8701172-2.7700195-4.9501877-1.3800049-13.509758-1.4299927-18.2700119-.1600342-17.8701172-.3699951-35.75-.8400269-53.6298866v-.0102539c-.1900024-7.4897461-.4199829-14.9799805-.7199707-22.4697266-.2200317-5.4101543-.4300537-10.8300762-.6500244-16.2402325-.0800171-1.8999023-.710022-4.8500977-.5800171-7.4101563 0 0 0 0 0-.0097656.0800171-1.7700195.5200195-3.3500981 1.7700195-4.2597661 1.1400146-.8300781 2.5100098-1.2001953 3.9299927-1.3901367h.0100098c.7700195-.1000977 1.5499878-.1499023 2.3200073-.1899414 7.5999758-.3500974 15.219971-.1601563 22.7899783.5898437 3.5900269.3598633 7.2200317.8500977 10.5300293 2.2700195.039978.0200195.0700073.0297852.1099854.0498047 2.5700073 1.1303716 4.8499756 2.7602544 6.9899902 4.610352 1.5 1.2900391 2.9299927 2.6796875 4.3499756 4.0498047 4.0500488 3.9301758 8.0900269 7.8701172 12.0800171 11.8798828 1.5900269 1.5800781 3.1799927 3.1899414 4.7399902 4.8100567 5.9700317 6.1499023 11.7200317 12.4702148 17.0500488 19.1699219.3999634.5.7999878 1 1.1899414 1.5 2.4500122 3.1401367 4.8400269 6.4301758 6.2000122 10.1801758 1.0499878 2.8999062 1.4400024 5.9702187 1.5499878 9.069828.0900269 2.2700196.0200195 4.550293-.0599976 6.8100587z" fill="#49c8ea"/></g><g><path d="m106.5003891 51.7788734c-1.0900269 2.4003906-3.8500366 3.9799805-6.8400269 2.2099609-1.0200195-.5996094-2.0999756-1.0498047-3.210022-1.4399414-6.7799683-1.8500977-14.8999634 2.3100586-21.6999512-.7099609-2.4900513.2900391-4.9200439.1000977-6.710022-2-3.2700195-3.8198242-.2999878-11.159668-.0100098-15.6401367.0300293-.449707.0499878-.8999023.0700073-1.3598633-.2200317-2.8598614-.4000244-5.7299786-.539978-8.6000957-.0400391-.8896484.1299438-1.659668.4299927-2.3095703-.1500244-2.2099609-.3699951-4.4301758-.6600342-6.6401367-.1900024-1.4902344.210022-2.6298828.9500122-3.4199219 1.5 1.2900391 2.9299927 2.6796875 4.3499756 4.0498047 4.0500488 3.9301758 8.0900269 7.8701172 12.0800171 11.8798828.0300293.1201172.0599976.2299805.0900269.3500977 1.5 1.5703125 3.039978 3.0600586 4.6499634 4.459959 5.9700318 6.1499023 11.7200318 12.4702148 17.0500489 19.1699218z" fill="#17a9c1"/></g><g><path d="m61.2903671 7.2588553c-1.0499878 1.6899419-2.9500122 2.9101567-5.3800049 2.570313-.0700073-.0102539-.1400146-.0200195-.2000122-.0302734-.4099731.2802734-.8699951.5102539-1.3999634.6801758-20.3900146 6.5097656-29.540039 26.0400371-32.5300292 45.8398418-.1900024-7.4897461-.4199829-14.9799805-.7199707-22.4697266-.2200317-5.4101543-.4300537-10.8300762-.6500244-16.2402325-.0800171-1.8999023-.710022-4.8500977-.5800171-7.4101563 0 0 0 0 0-.0097656 1.6000366-2.0498047 3.5599976-3.9399419 5.7000122-5.6499028h.0100098c.7700195-.1000977 1.5499878-.1499023 2.3200073-.1899414 7.5999755-.3500973 15.2199707-.1601562 22.789978.5898438 3.5900269.3598633 7.2200317.8500977 10.5300293 2.2700195.039978.0200196.0700073.0297852.1099853.0498047z" fill="#60d8f4"/></g><g><path d="m115.3803329 79.3389359c-.2699585 8.3100586-.539978 16.6201172-.8099976 24.9301758-.1599731 4.9697266-.3199463 9.9599609-.7599487 14.9199219v.0097656c-.0300293.050293-.0599976.090332-.0900269.1401367.0300293-.0097656.0499878-.0297852.0800171-.0400391-.1900024 2.3500977-.460022 4.6899414-.8099976 7.0302734-.1600342 1.1298828-.3800049 2.2997971-1.1000366 3.1796799-1.3299561 1.6201172-3.7699585 1.590332-5.8599854 1.4604492-13.6400146-.8701172-27.710022.3896484-41.460022.5395508-6.1099854.0703125-12.2199707.1303711-18.3199463.2001953-5.4100342.0600586-12.6000366 1.4199219-17.8200073-.0200195-1.1700439-.3198242-2.1199951-.8701172-2.9000244-1.5898438.2999878-.2299805.6400146-.4301758 1.039978-.6103516 9.2200317-4.1699142 19.6800537-2.7499924 29.5500488-3.1396408 10.6999512-.4199219 21.9400024-.4702148 32.4799805-2.5 22.7999878-4.3798828 23.2399902-27.5600586 22.1699829-46.5-.1799927-3.2001953 2.1900024-4.800293 4.6699829-4.8203125.0900271 2.2700196.0200197 4.550293-.0599974 6.8100587z" fill="#35b5d3"/></g><g fill="#202020"><path d="m25.0418434 129.9236603c.4193115.4975586 1.0345459 1.0537109 1.883728 1.5205078.8527222.4790039 1.9337769.7788086 3.1323242 1.0063477 2.4189453.4663086 5.4262085.4970703 8.8488159.3144531 13.1791992-.6425476 68.981369.1873932 71.8354492-.8334961.9754639-.3325195 1.9688721-1.0429688 2.5814209-2.0058594.6072388-.9560547.8273315-1.9448318.9865723-2.8071365.1450195-.8613281.2591553-1.6494141.3736572-2.4829102 1.4431763-10.4477158 2.5465164-49.298912 2.5263062-51.2485352-.052002-3.5571289-.4268799-7.2670898-1.7374878-10.7978516-1.3083496-3.5244141-3.3840332-6.550293-5.4817505-9.3330078-2.1177979-2.7592773-4.2606201-5.4467773-6.4772339-8.0507813-11.0217857-13.0281867-30.4655112-31.8307437-33.5974159-34.5917948-6.9197197-6.0641398-13.2613602-8.834569-37.1701622-8.4467773-2.1765747.0419922-4.2165527.0932617-6.4063721.2456055-5.8868599.4933305-7.9257507 2.9993093-8.4310913 6.5830078-.1560059 1.1850586-.1358643 2.2792969-.0683594 3.3173828.1352539 2.0620117.505249 3.9848633.5687866 5.609375.7659931 18.514822 1.1795597 27.2369709 1.7012329 46.9985352 1.9679813 81.4361496.4811268 45.5247574 1.079834 54.9980469.1613159 2.7944336.6238403 4.7246094 1.0999756 5.9819336.4738159 1.2631836.9302368 1.8618164 1.2178345 2.1401443.2854614.28125.4243774.253418.5472412.1850586.1229248-.0678711.2203369-.1811523.1847534-.55616-.0383301-.3720703-.2211304-.9990234-.4221802-2.1923828-.2026978-1.1904297-.407959-2.9575195-.3511353-5.6079102.1686935-10.2520905 1.2879219 1.3131332.3952637-55.0297852-.3069267-18.7205658-.7681255-29.6780014-1.4304199-47.0771484-.09375-2.1064453-.4556274-3.9233398-.5600586-5.7133789-.0581665-.8847656-.0575562-1.7460938.0458374-2.5053711.2018623-1.5379543.6987171-2.1341224 2.2164307-2.6337895.7319336-.2426758 1.5988159-.3754883 2.5407104-.4511719 1.9178467-.1313477 4.0619507-.1889648 6.1346436-.2250977 23.53125-.3615451 28.6565132 2.3560081 34.5191002 7.4692388-.4558716 2.9145508-.958374 9.1464844-1.4139404 16.3867188-.3157349 5.0180645-.6087646 10.5112286-.8477173 15.6992168-.0252686.6293945-.0783081 1.3232422-.0245972 2.1391602.0518799.7983398.2394409 1.7744141.7999268 2.6787109.560791.9077148 1.3776855 1.5205078 2.1045532 1.9047852.7381592.3911133 1.4307861.6137695 2.0582886.7963867 2.4213867.6601563 4.6832886 1.0083008 6.6582642 1.1987305 3.602356.315918 6.7073975.2348633 9.3924561.1660156 2.6513062-.0874023 4.9329834-.1630859 6.8969116-.2280273 3.8796387-.1025391 6.4387817.0244141 8.1855469.1054688 1.7460938.0776367 2.664978.1245117 3.1911011-.0131836.5234985-.1269531.6322021-.3764648.7053833-.6479492s.1113281-.5375977-.314209-.8881836c-.4273071-.3393555-1.3137817-.8325195-3.1397705-1.2963867-1.8178101-.4672852-4.5890503-.9101563-8.617981-1.012207-2.0109253-.0610352-4.3361816-.0380859-6.9851685-.0083008-2.6485596.015625-5.6391602.0585938-8.9447021-.2329102-1.8047485-.1738281-3.8469238-.4672852-5.9680176-.9897461-1.0188599-.2451172-1.7711182-.6347656-1.9389038-.9389648-.2585449-.2724609-.3511963-1.2885742-.3078613-2.6347656.032959-5.1933594.0278931-10.6948242-.0247803-15.7221661-.0691528-6.6040039-.2210693-12.3735352-.4760132-15.5717773 3.3177567 3.0209217 21.4152603 20.3265209 32.340271 33.0454102 2.1966553 2.5400391 4.3319702 5.1767578 6.4143066 7.8427734 2.0471191 2.6616211 3.9205933 5.3955078 5.0487671 8.3662109 2.2580261 5.9118576 1.6957169 10.0270538.8738403 40.5263672-.1793823 6.7978516-.3696899 13.4672852-1.1658554 19.8891602-.2242813 1.5874023-.3390884 3.3398438-.8751602 4.1538162-.2632446.4077148-.6290894.7089844-1.1705933.9111328-.5348511.2050781-1.2074585.2998047-1.9180908.3232422-72.1173935 1.6040649-58.7914047 1.0224915-69.0407715 1.9052734-3.3842163.3076172-6.2993774.4018555-8.6341553.0834961-1.1697998-.1567383-2.1889648-.3745117-2.986145-.7504883-.8048096-.3696289-1.4160767-.8291016-1.8596802-1.253418-.8874512-.8574219-1.2107544-1.4599609-1.2884521-1.4106445-.0423545.0195291.1499062.6899393.9866982 1.6977518z"/><path d="m73.5845032 116.8318558c25.1270142 0 25.6524048-.9116211 25.6524048-2.0361328 0-1.125-.5253906-2.0366211-25.6524048-2.0366211-13.7684898 0-43.3163414.9116211-43.3163414 2.0366211 0 1.1245117 29.5478515 2.0361328 43.3163414 2.0361328z"/><path d="m73.5845032 101.52668c25.1270142 0 25.6524048-.9116211 25.6524048-2.0361328s-.5253906-2.0361328-25.6524048-2.0361328c-13.7684898 0-43.3163414.9116211-43.3163414 2.0361328s29.5478515 2.0361328 43.3163414 2.0361328z"/><path d="m73.5845032 86.2219925c25.1270142 0 25.6524048-.9116211 25.6524048-2.0361328s-.5253906-2.0361328-25.6524048-2.0361328c-13.7684898 0-43.3163414.9116211-43.3163414 2.0361328s29.5478515 2.0361328 43.3163414 2.0361328z"/><path d="m73.5845032 70.917305c25.1270142 0 25.6524048-.9116211 25.6524048-2.0361328 0-1.125-.5253906-2.0366211-25.6524048-2.0366211-13.7684898 0-43.3163414.9116211-43.3163414 2.0366211 0 1.1245117 29.5478515 2.0361328 43.3163414 2.0361328z"/></g></g></svg>