<svg id="Layer_1" enable-background="new 0 0 135 135" height="512" viewBox="0 0 135 135" width="512" xmlns="http://www.w3.org/2000/svg"><g><g><path d="m87.8403549 101.3343277c-2.9899902 1.4399414-6.5299683 2.2900391-8.4599609 4.9899902-4.2000122 5.8701172 2.1499634 13.7600098 1.25 19.1401367-.2700195 1.619873-1.1900024 3.0097733-3.2600098 4.0498123-.7200317.3701172-1.5900269.6899414-2.6099854.9599609-7.7800293 2.0800781-12.4700317-1.0200195-14.1600342-7.3198318-.3599854-1.3500977-.5800171-2.8500977-.6699829-4.4699707-.1799927-3.4401855 1.6699829-8.1501465-.9899902-10.920166-5.3800049-5.5998535-14.8400269 1.8300781-20.7600098-2.3100586-5.0700073-3.5397949-4.0200195-16.369873 3.25-16.6499023 7.460022-.2800293 13.0899658 2.0700684 20.2299805 2.5400391 4.9800415.3200684 10.1199951-2.0800781 12.8500366-6.2600098 2.7299805-4.1799316 2.8200073-10.0100098.0099487-14.1398926-2.9399414-4.3000488-7.6699829-6.7099609-12.6499634-8.7700157-9.6400146-4-20.2299805-6.7399902-20.5300293-19.630127-.2299805-9.7099609 5.5200195-17.6398945 13.6100464-22.4899921 2.3699951-1.4099121 5.1199951-2.8198242 5.9699707-5.4499502 1.1500244-3.5200195-.8200073-6.9299316 2.9100342-9.25 1.9299927-1.1999512 5.9299927-2.8300781 8.2599487-2.2800293 2.5800171.6101074 3.6900024 1.8400879 4.0700073 3.3798828.9500122 3.8300781-2.6300049 9.5400391.6700439 12.2402334 6.9799805 3.7199707 20.9899902-1.8400879 22.6099854 10.3999023.7999878 6.0000019-1.5300293 8.4899921-5.0200195 9.4399433-4.5299683 1.25-11.0200195-.0800781-15.1500244.4001465-1.4799805.1699219-2.9899902.7299805-3.9199829 1.8999023-6.1599731 7.7700195 6.0800171 14.0700684 10.6500244 16.8100586 3.1300049 1.869873 5.9299927 4.3400879 8.1900024 7.2199669 3.2600098 4.1499023 5.3999634 9.1499023 5.7999878 14.4099121.669983 8.8901368-4.1099852 18.1999513-12.1500243 22.0600587z" fill="#39b54a"/></g><g><path d="m76.1603622 6.4542036c-.7699585 3.9802246-2.4599609 7.5-6.1199951 10.2302237-5.5299683 4.119873-11.3800049 6.579834-15.6199951 12.3498535-7.2299805 9.8100605-7.1900024 26.8100605 5.7800293 32.0800781.6599731.2700195 1.2199707.6298828 1.6699829 1.0600586-9.6400146-4-20.2299805-6.7399902-20.5300293-19.630127-.2299805-9.7099609 5.5200195-17.6398945 13.6100464-22.4899921 2.3699951-1.4099121 5.1199951-2.8198242 5.9699707-5.4499502 1.1500244-3.5200195-.8200073-6.9299316 2.9100342-9.25 1.9299927-1.1999512 5.9299927-2.8300781 8.2599487-2.2800293 2.5800171.6101093 3.6900025 1.8400898 4.0700073 3.3798847z" fill="#51ce5d"/></g><g><path d="m87.8403549 101.3343277c-2.9899902 1.4399414-6.5299683 2.2900391-8.4599609 4.9899902-4.2000122 5.8701172 2.1499634 13.7600098 1.25 19.1401367-.8300171 1.5898438-1.9400024 2.939949-3.2600098 4.0498123-.7200317.3701172-1.5900269.6899414-2.6099854.9599609-7.7800293 2.0800781-12.4700317-1.0200195-14.1600342-7.3198318 4.25 1.3598633 9.4400024 1.5600586 11.4100342-2.5700684 1.1799927-2.4899902-.2000122-6.3498535-.2900391-8.9899902-.0799561-2.3100586.1799927-4.6298828 1.1300049-6.75 2.0700073-4.6499023 6.8500366-7.5200195 11.0400391-10.3300781 7.5799561-6.5097656 9.0499878-16 9.0899658-26.3798828 0-1.3901367.4700317-2.4799805 1.210022-3.2700195 3.2600098 4.1499023 5.3999634 9.1499023 5.7999878 14.4099121.6699829 8.8901367-4.1099853 18.1999512-12.1500244 22.0600586z" fill="#1ca529"/></g><path d="m85.0636902 104.6924896c1.5332031-.677002 3.2818604-1.2944336 4.9404907-2.2749023 8.8001938-5.0548553 13.349968-16.0003662 11.5421143-25.7094727-1.3728943-7.7721024-6.2386093-15.4501991-14.8969727-20.6748047-.864563-.4997559-1.7087402-.9875488-2.532959-1.4638672-3.2058105-1.8850098-5.9509277-3.8393555-7.604126-6.0124512-.8031616-1.0820313-1.293335-2.184082-1.336731-3.2102051-.1242981-1.4655228.8633118-3.8754082 2.6880493-4.675293.7911987-.3522949 1.659729-.4602051 2.572937-.5285645 1.803894-.1240234 3.4743042-.0498047 4.9068604-.043457 2.8822021.0498047 4.9213257-.0666504 6.2962036-.3046875 1.3794556-.2429199 2.0964966-.5327148 2.4517822-.7568359.3569336-.2199707.3660889-.3632813.3295288-.4987793-.0366211-.1357422-.1246338-.2561035-.5188599-.2998047-.3919067-.0395508-1.0913696-.0163574-2.388855-.0246582-1.3037109-.0136719-3.2025757-.125-6.0570679-.3896484-1.43573-.1120605-3.0905151-.2998047-5.1378174-.2700195-5.5361786.1321831-8.3181458 4.0584831-8.1549072 7.9121094.0289917 1.7878418.7935181 3.5029297 1.8067017 4.9372559 2.0869751 2.8671875 5.0903931 5.0012207 8.4017334 7.0563965 8.0611877 4.8598137 13.9280319 10.5345688 15.475769 19.880127 1.4680405 8.2215118-2.486145 17.5006714-9.7963867 21.6496582-1.2965698.7709961-2.8535767 1.3225098-4.571228 2.0634766-1.6860352.7402344-3.6380005 1.673584-5.2125854 3.4614258-1.5227661 1.7590332-2.3674316 4.1950684-2.3334961 6.458252-.020874 2.2736816.5215454 4.3371582 1.081604 6.2875977.5632324 1.9372559 1.2293091 3.8195801 1.5365601 5.5668945.1511841.8669434.196228 1.6884766.0758057 2.3520508-.116272.6699219-.3867188 1.1569824-.8675537 1.6308594-.4707642.4746094-1.199585.8869629-2.0374756 1.2087402-.8206787.3464355-1.7806396.5690918-2.7391357.7731934-1.9003296.3630371-3.8585205.4438477-5.4991455-.1516113-.8518066-.2353516-1.5535278-.7380371-2.2341309-1.2697754-.6411743-.590332-1.2070923-1.3046875-1.6618614-2.1442871-.9171143-1.6789551-1.375-3.784668-1.5616455-5.963623-.3886147-2.6359024 4.6278954-17.8461761-11.9771118-15.447998-1.4953613.2424316-3.008606.487793-4.5387573.736084-7.3406677 1.0762939-9.6917763-2.7883377-8.2172852-9.2016602.8494377-3.8143539 2.8053474-4.5967178 5.0474854-4.6118164 3.2386475-.0615234 6.5247192.4597168 9.9616699 1.1237793 2.9058762.5495911 7.9777107 1.5447922 10.980896 1.3591309 8.5083733-.4293976 15.5996666-7.1689911 15.0709801-16.1396484-.53508-8.5472183-7.5982132-13.0289688-15.5401573-16.338623-3.4310303-1.4189453-6.8555298-2.6140137-9.9921265-4.1516113-8.0714455-3.9326477-11.9902039-10.4441643-9.2278442-20.3503418.444519-1.5744629 1.0405273-3.1005859 1.7990723-4.5424824 5.8501282-10.7571869 14.6764526-10.7420349 16.7346191-16.6938477.1309814-.4555664.2462158-.9104004.3115234-1.3623047.5400734-3.5448647-.728302-5.7274652 2.3671837-7.496582 1.2269287-.7041016 2.5825806-1.2805176 3.9135742-1.6691895 4.086731-1.1800432 7.1820602.2518234 6.4047852 5.4550781-.2890396 2.0088491-.8822556 4.2723427-.6115112 6.2714834.2567978 1.9110813 1.35466 3.1796856 2.7194824 3.6799316 2.9562759 1.1442928 6.1795654 1.1362991 9.1588135 1.291748 2.2528687.1022949 4.3755493.2416992 6.260437.7375488 1.8843384.4768066 3.4871216 1.3964844 4.4915161 2.7260742 1.0373535 1.3037109 1.5036011 2.8884277 1.7606201 4.3464355.2454224 1.4807129.3164063 2.8662109.1432495 4.0664082-.1647949 1.2023926-.567688 2.2138672-1.1046143 2.9665527-.5411987.751709-1.182373 1.2487793-1.7333374 1.5876465-1.1208496.6638184-1.8193359.8442383-1.7891846.9335938.0090942.0432129.7368774.0075684 1.9900513-.5688477.6164551-.2973633 1.361145-.7766113 2.0230713-1.5727539.6575928-.7954102 1.1772461-1.909668 1.4238281-3.2124023.2564087-1.3051777.2463379-2.7753925.0540771-4.3471699-.2107544-1.5664063-.6400146-3.3474121-1.802002-4.9304199-1.1256104-1.6123047-3.0249634-2.7646484-5.0769653-3.3427734-2.0611572-.607666-4.2778931-.8059082-6.5473022-.9724121-2.9473419-.2262955-5.9505539-.3110695-8.5537109-1.3789063-1.5655289-.6049118-1.6987686-2.3446617-1.5013428-4.0126944.1398926-1.2382813.4620972-2.5480957.6976929-3.9562988.9095001-5.8873568-2.3187714-8.5585623-6.5853271-8.3786621-.8495483.0507813-1.6503906.2082521-2.4285278.4160157-1.5550537.4272461-3.0254517 1.0202637-4.4780235 1.817627-4.5273895 2.5448766-3.1381798 6.277379-3.6783447 9.1396484-.0541382.3415527-.1456909.6623535-.2385864.9807129-1.6736794 4.3586588-10.676239 5.0660906-16.8595581 16.1103516-.8762817 1.611084-1.578064 3.3322773-2.1049805 5.1191425-2.1403008 7.3320351-.9843864 15.7643585 5.7299805 21.0300293 4.2529182 3.3447266 9.9133797 5.1976051 15.0236816 7.3779297 22.2452126 9.4722214 12.4177513 25.1811676 1.6057739 25.6154785-6.4842529.010498-13.473877-2.7736816-20.8174438-2.6235352-4.9049263-.0445251-7.7605515 3.0170135-8.8480835 7.6208496-.4302979 1.890625-.5004272 3.7988281-.2169189 5.6809082 1.1173592 7.1124954 5.866478 9.3480377 12.8325195 8.3881836 4.3935471-.6234894 11.9940491-2.7175827 12.2631226 2.9477539.1253395 1.6997604-.2968979 3.734726-.418335 5.8640137-.0498657.7402344-.0097656 1.5913086.0592041 2.2504883.2270508 2.5561523.7427979 5.1606445 2.0406494 7.5654297.6482544 1.1972656 1.5072021 2.315918 2.5532837 3.2602539 1.0808716.888916 2.2974205 1.677002 3.6151085 2.065918 2.6228638.909668 5.2478638.7255859 7.5831909.2856445 1.1644897-.248291 2.3143311-.5144043 3.4706421-.9931641 1.1452026-.453125 2.3284912-1.0651855 3.3604736-2.0766602 1.0396729-.9814453 1.8028564-2.4265137 2.0167236-3.8046875.2400513-1.3808594.1164551-2.6386719-.0770874-3.7719727-.4165649-2.2668457-1.1229248-4.1665039-1.6543579-6.0083008-.5366211-1.8190918-.9547729-3.5605469-.9345093-5.1071777-.0195923-1.550293.489624-2.847168 1.3450317-3.8942871.8641967-1.0073245 2.2318115-1.7595217 3.776123-2.4299319z" fill="#202020"/></g></svg>