<svg id="Layer_1" enable-background="new 0 0 135 135" height="512" viewBox="0 0 135 135" width="512" xmlns="http://www.w3.org/2000/svg"><g><g><path d="m129.3736877 83.9380188c-7.7599411 30.1699219-35.1299362 49.75-64.4699631 48.2197266-3.539978-.1796875-7.1099854-.6699219-10.6799927-1.4897461-.75-.1601563-1.5-.3500977-2.25-.5498047-10.6400146-2.8500977-19.9299927-8.300293-27.3900146-15.5-8.3699951-8.0800781-14.4500132-18.3701172-17.5499878-29.6801758-1.3300171-4.8398438-2.1099854-9.8598633-2.2999878-14.9799805v-.0102539c-.0700073-2.0595703-.0499878-4.1499023.0799561-6.2397461.2400513-4.1899414.9000244-8.4101563 1.9800415-12.6298828 6.8800039-26.7802753 29.2199707-45.2202163 54.6599732-47.9599626.7399902-.0800781 1.4899902-.1503906 2.2300415-.2001953 6.7199707-.4897461 13.6299438.1298828 20.5 1.9702151 1.7699585.4799805 3.5099487 1.0195313 5.2099609 1.6396484h.0100098c13.5599976 4.9399409 24.5900269 14.2402344 31.9500122 25.9101582 9.2799606 14.7197261 12.7199631 33.2197261 8.0199508 51.4999995z" fill="#fbe000"/></g><g><path d="m89.3937149 6.5278611c-37.8099976 5.2602534-74.6699839 33.3901382-75.6300058 73.81006-.0899658 3.9199219-3.8499756 5.4599609-6.7299805 4.6000977-1.3300171-4.8398438-2.1099854-9.8598633-2.2999878-14.9799805v-.0102539c.4799805-2.949707 1.1300049-5.8398438 1.9400024-8.659668-.4100342 1.0800781-1.0700073 1.8696289-1.8600464 2.4199219.2400513-4.1899414.9000244-8.4101563 1.9800415-12.6298828 6.8800049-26.7802753 29.2199717-45.2202163 54.6599742-47.9599626.0400391.2197266.0599976.4399414.0700073.659668.7200317-.2998047 1.4299927-.5898438 2.1600342-.8598633 6.7199707-.4897461 13.6299438.1298828 20.5 1.9702151 1.7699585.4799804 3.5099487 1.0195312 5.2099609 1.6396484z" fill="#ffed80"/></g><g><path d="m129.3736877 83.9380188c-7.7599411 30.1699219-35.1299362 49.75-64.4699631 48.2197266-.3499756-.3295898-.6300049-.7197266-.8599854-1.1396484-3.2700195.1201172-6.5599976.0097656-9.8200073-.3500977-.75-.1601563-1.5-.3500977-2.25-.5498047-10.6400146-2.8500977-19.9299927-8.300293-27.3900146-15.5 23.8900146 5.8295898 50.2600098 5.7197266 70.8699951-9.3203125 21.4500122-15.6401367 27.7900391-45.6196289 25.6000366-70.6298828-.0700073-.8598633.039978-1.6000977.2999878-2.2299805 9.2799607 14.7197266 12.7199632 33.2197266 8.0199509 51.5z" fill="#e8c707"/></g><g fill="#202020"><path d="m2.5817745 70.1697083c1.6052401 37.1880646 34.4586525 65.6520081 71.5454712 62.1220703 35.3910828-3.3417969 61.3878479-34.8939438 58.0504761-70.4238281-6.1063641-68.6324797-101.6921948-81.835867-124.341492-18.5468712-.4425049 1.1303711-.7103271 2.1787109-.9918823 3.0678711-.2844849.8886719-.4573364 1.6601563-.5977783 2.2827148-.2827148 1.2446289-.3978271 1.9033203-.3297729 1.9208984.1820679.050293.8572388-2.5424805 2.684876-6.9755859 25.7836999-61.2168522 114.6396607-45.3880687 119.8383149 18.5834961 2.8719635 33.248806-21.4250565 62.8592033-54.7023926 66.0585938-33.7903023 3.2718201-65.2718658-21.7503052-68.2808228-58.2553711-.3643188-4.609375-.161438-8.1401329.0283813-10.8120079.104187-1.3374023.1973267-2.4663086.3282471-3.4111328.1204834-.9458008.1624146-1.7280273.2630005-2.3510742.3283081-2.5092773.112915-2.7685547-.1596069-2.8369141-.272583-.0683594-.5731812.0415039-1.3911133 2.5078125-.2229614.6132813-.3857422 1.3935547-.6249998 2.3486328-.2495728.9541016-.4594727 2.1035156-.677002 3.4770508-.41583 2.7436485-.8339208 6.4086837-.6419042 11.2436447z"/><path d="m51.900135 55.2014503c.5368652 1.2504883 1.3076172 2.3959961 2.2236938 3.394043.9231567 1 2.0200806 1.7832031 3.1523438 2.46875 1.1625977.6303711 2.3474121 1.1508789 3.5593872 1.5229492 2.4233398.765625 4.8544884 1.0834961 7.1620445 1.3349609.0345459.003418.067688.0068359.1021729.0102539-.0545044 4.5214806-.0583496 8.7480431-.0106812 12.0893517.0874634 6.1953125.2262573 10.956543.3947144 14.6376953-1.303772-.1323242-2.5029907-.3388672-3.5836792-.5615234-2.2763634-.4746094-4.0698204-1.0795898-5.5015831-1.5976563-2.8483887-1.0854492-4.274292-1.8256836-5.104126-2.0820313-.8202515-.2773438-1.0373535-.1025391-1.203125.1245117-.1658325.2270508-.2785034.4750977.3068237 1.1831055.5966797.6845703 1.8930054 1.8754883 4.8421021 3.4111328 1.482666.7407227 3.3811035 1.5664063 5.8570518 2.2412109 1.3461914.3608398 2.8721924.6982422 4.5826416.9091797.1448975 2.2568359.3028564 3.9404297.4647217 5.1826172.4586182 3.4399414.9710693 3.5634766 1.5330811 3.5483398.5621948-.0151367 1.0674438-.1679688 1.3457031-3.621582.0995483-1.1914063.168335-2.7880859.2089844-4.8950195.3741455-.0009766.7510376-.0043945 1.1400757-.0209961 1.8692627-.0908203 3.9194336-.3730469 6.0681763-1.0996094 2.1229858-.7529297 4.4017944-1.9321289 6.3007813-3.8813477.9783325-.9404297 1.788269-2.1005859 2.510437-3.3388672.7011108-1.2558594 1.2306519-2.6323242 1.632019-4.0737305.793457-2.8393555.9481201-6.2646484-.0028687-9.5722656-.529541-1.8149414-1.3746948-3.7124023-2.7194214-5.440918-1.3123779-1.7412109-3.1987305-3.2602501-5.2979736-4.2631798-3.1622314-1.5332031-6.649353-2.0419922-10.0614014-2.3481445-.1240845-4.2651367-.2681885-8.6586914-.4191895-12.7285156-.1682129-4.4423828-.3497314-8.484375-.5519409-11.5585938 2.7715302.1265068 5.6724854.9485817 8.3251953 2.4750977 1.3768311.7915039 2.0942993 1.3427734 2.2015381 1.2260742.0846558-.0869141-.4466553-.847168-1.7384033-1.9038086-1.2834473-1.0478516-3.3979492-2.3525391-6.3389893-3.1186523-.7939453-.2089844-1.6624146-.3647461-2.5770874-.4609375-.2012329-2.5180683-.4229736-4.0380878-.6723633-4.0405293-.2442627-.0024414-.4951782 1.480957-.7315674 3.9516621-2.0745239-.0537109-4.3373413.2402344-6.6079063 1.105957-3.805603 1.4228516-7.6218872 4.3276367-9.8919067 8.6108398-.5767822 1.0595703-1.0249634 2.2182617-1.3590698 3.434082-.2914429 1.2280273-.4785767 2.5161133-.4111328 3.8383789.0738525 1.3178714.3566284 2.6479495.8707275 3.9077151zm22.6548424 9.4956017c2.0449829.3535156 3.9425659.8857422 5.5460815 1.6928711 3.2296143 1.5600586 5.072998 4.4394531 5.8623657 7.237793.3619385 1.2719727.5162964 2.5649414.5088501 3.8085938.0082397 1.2416992-.2202759 2.4291992-.5043335 3.6118164-.616394 2.3066406-1.6703491 4.237793-3.0725098 5.6557617-2.8096924 2.8759766-6.5876465 3.7929688-9.746582 4.0307617-.2971802.0219727-.5866089.0327148-.8762207.0444336.0152588-3.7045898-.022522-8.5185547-.1114502-14.8125-.0460815-3.2294922-.1351318-7.2861328-.2510376-11.6376953.9047242.1035156 1.7909547.2167968 2.6448365.368164zm-20.1827354-16.5400352c.2302856-.9697266.5483398-1.9267578.9940186-2.8300781 1.736084-3.6616211 4.9151001-6.3745117 8.1793823-7.8056641 1.8790245-.8427734 3.7889366-1.2304688 5.5919151-1.3291016-.2415771 3.0703125-.4615479 7.1044922-.6342163 11.5400391-.1577759 3.9755859-.2730103 8.2607422-.34729 12.4355469-2.1663818-.1879883-4.2985191-.4365234-6.28442-1.0083008-1.0286865-.2836914-1.9978638-.6894531-2.9082031-1.1420898-.8760376-.5043945-1.7203369-1.0620117-2.4066162-1.7636719-.6806641-.7021484-1.253418-1.4912109-1.6674805-2.3618164-.3901367-.8803711-.6291504-1.8242188-.7235107-2.7944336-.0877076-.9736329.0202635-1.9653321.2064208-2.9404297z"/></g></g></svg>