<svg id="Layer_1" enable-background="new 0 0 135 135" height="512" viewBox="0 0 135 135" width="512" xmlns="http://www.w3.org/2000/svg"><g><g><path d="m128.6441803 90.2041702c-.039978.1401367-.0700073.2802734-.1099854.4301758-1.210022 4.6801758-3.5800171 9.2202148-7.0300293 12.5200195-1.6300049 1.5600586-3.5100098 2.8398438-5.6099854 3.7299805-3.8099976 1.6098633-8.0499878 1.8100586-12.1799927 1.9599609-10.8499756.3999023-21.710022.5600586-32.5599976.4799805-14.1199989-.0898438-28.2200356-.5698242-42.3099976-1.4399414-6.8699951-.4301758-13.0200205.0698242-17.2900391-3.7202148-1.3299561-1.1796875-2.4699707-2.7695313-3.3999634-4.9199219-4-9.2797852-2.9700317-20.9399414-2.4400024-30.75.4799805-8.9399414-1.7000122-24.5600586 4.1599731-31.949707 1-1.2602539 2.1000366-2.3701172 3.2900391-3.3603516 10.6599741-8.7895527 28.3599854-7.3295918 40.8200073-7.3896503 20.409977-.1103516 40.8499794.2299805 61.1900063 2.0600586 2.2199707.199707 4.5099487.4399414 6.4699707 1.5.7299805.3999023 1.4000244.8896484 2 1.4697266 2.8900146 2.7099628 4.3699951 7.1899433 5.2999878 11.7299824.75 3.5800781 1.1500244 7.2099609 1.6400146 10.0200195 2.0100062 11.4902343.8200038 26.2499999-1.940006 37.6298827z" fill="#d7df23"/></g><g><path d="m121.6441803 29.3545589c-1.960022-1.0600586-4.25-1.300293-6.4699707-1.5-10.7900391-.9702148-21.6000366-1.5200195-32.4300537-1.8100586-9.5799561-.25-19.1799965-.300293-28.7599525-.25-12.1600342.0600586-29.3099957-1.3300781-40.0400391 6.7797871-.2600098.1899414-.5199585.3999023-.7799683.6098633.5299683.6000977 1.0799561 1.2001953 1.6199951 1.7802734.4199829.449707.8300171.8901367 1.2600107 1.3198242 7.0599976 7.3300781 15.1199951 13.5703125 23.130003 19.8701172 4.8699951 3.8398438 9.7299805 7.7099609 14.289978 11.9199219 4.1400146 3.8203125 8.1400146 8.1401367 13.8300209 9.5200195 5.4499512 1.3198242 9.8800049-.5800781 14.0099487-4.0498047 5.1400146-4.3203125 9.8200073-9.2299805 14.5300293-14 9.289978-9.4101563 19.3599854-18.5 27.8099976-28.7202168-.5999746-.580078-1.2700185-1.0698241-1.999999-1.4697265zm-54.6199951 37.3295918c-.3400269-.2099609-.6699829-.4399414-1-.6699219.1500244-.1196289.2999878-.2397461.4400024-.3598633.1799927.3901367.4099731.75.6699829 1.0898438-.039978-.0200195-.0700073-.0297852-.1099853-.0600586z" fill="#f2f230"/></g><g><path d="m82.7441559 26.0445004c-.0099487 2.4799805-1.6199951 4.8798828-4.8199463 4.7397461-19.5700111-.8798828-39.12006-.0400391-57.9000244 5.9799824-1.5999756.5102539-2.9500122.2402344-3.9799805-.4799805-.500001-.3398438-.9299936-.7900391-1.2600107-1.3198242-.4500122-.7001953-.75-1.5302734-.8400269-2.3901367 10.7300425-8.1098652 27.8800049-6.7197285 40.0400391-6.7797871 9.5799532-.050293 19.1799936 0 28.7599497.25z" fill="#fffb66"/></g><g><path d="m121.5041656 103.1543655c-1.6300049 1.5600586-3.5100098 2.8398438-5.6099854 3.7299805-3.8099976 1.6098633-8.0499878 1.8100586-12.1799927 1.9599609-24.9500122.9101563-49.950016.5800781-74.8699951-.9599609-6.8699951-.4301758-13.0200205.0698242-17.2900391-3.7202148.2700195-.2099609.5400391-.409668.8200073-.5996094 1.7800293-1.340332 3.6199951-2.6401367 5.4800425-3.9003906 1.0299683-.8398438 2.0499878-1.7099609 3.039978-2.6098633.8699951-.7797852 1.8200073-1.1899414 2.75-1.3100586 1.7399902-1.1699219 3.4500122-2.3598633 5.0999756-3.5898438 8.0700054-6.0097656 15.9000225-12.3300781 23.5400372-18.8701172 1.2399902-1.0600586 2.6300049-1.3896484 3.9199829-1.2299805 2.960022-1.0800781 5.5599976 1.5400391 5.9100342 4.4799805 1.75.0102539 3.2899818.9301758 4.2699623 2.2402344.7600098-.2202148 1.5400391-.25 2.2700195-.1201172 1.3399658-.6499023 2.9099731-.6899414 4.2700195-.2202148 1.0299683-.9199219 2.3799438-1.4799805 3.7599487-1.3496094-1.4799805-4.1303711 4.0300293-7.5703125 7.7200317-5.2802734 1.460022-.4199219 3.0899658-.0800781 4.4099731 1.5 6.3800049 7.6098633 13.7200317 14.2299805 21.3099976 20.6000977 3.67999 3.0898437 7.6500218 6.0498046 11.3800022 9.2499999z" fill="#c6c10a"/></g><g><path d="m128.6441803 90.2041702c-.039978.1401367-.0700073.2802734-.1099854.4301758-1.210022 4.6801758-3.5800171 9.2202148-7.0300293 12.5200195-1.6300049 1.5600586-3.5100098 2.8398438-5.6099854 3.7299805-3.8099976 1.6098633-8.0499878 1.8100586-12.1799927 1.9599609-10.8499756.3999023-21.710022.5600586-32.5599976.4799805 14.539978-3.5200195 28.3800049-10.3500977 38.8699951-20.4501953 9-12.159668 14.5900269-26.8095703 15.7600098-41.9599609.1799927-2.2299805 1.5199585-3.6899414 3.1599731-4.3598633.75 3.5800781 1.1500244 7.2099609 1.6400146 10.0200195 2.01001 11.4902344.8200076 26.25-1.9400022 37.6298828z" fill="#cccc19"/></g><path d="m129.1537781 88.8963089c.333252-1.15625.7476807-2.8828125 1.1655273-5.1308594 3.1291504-16.7094116.8196869-41.9624786-1.5852661-47.9775352-.5292969-1.347168-1.3209915-2.6689453-2.3814163-3.8046894-1.0250854-1.0703125-2.1799927-2.0136719-3.432251-2.8261719-7.5254898-4.8902836-17.0713501-4.7452946-26.5830688-5.0751953-14.0293808-.4498005-51.5960922-.3721504-58.2863159-.0419922-8.6799641.4064503-16.9128513 1.5764236-24.1392822 6.2490234-3.5482073 2.4902515-6.8055873 5.7021275-8.1200562 9.8374043-.3340454.7939453-.5127563 1.5986328-.74823 2.3974609-1.7961125 6.97192-1.0255618 11.5653915-1.8081057 34.9365196-.24891 7.2385941.0457365 15.1603013 2.7507946 21.8408204.8262939 2.0678711 1.9743652 4.1733398 3.6682129 5.8452148 1.6767578 1.6928711 3.8397827 2.8276367 5.9376221 3.4365234 2.1103506.6240234 4.159667.8383789 6.1026602.9780273 16.5992584 1.1283722 38.238678 1.772789 55.5762939 1.6577148 8.1679153-.0529861 31.6687164-.0255203 38.4265137-2.6342773 1.263855-.4946289 2.3965454-1.1147461 3.4127197-1.753418 2.0124512-1.3242188 3.5197754-2.809082 4.6835327-4.2119141 1.1629028-1.4091797 1.9943237-2.7412109 2.6396484-3.9189453 1.2545166-2.3793945 1.7820511-4.1362305 2.0941238-5.3339844.5488892-2.4228516.2549438-2.6699219.0079956-2.7363281-.2943115-.0810547-.5324097.0629883-1.5031815 2.2099609-.5186157 1.0556641-1.2277832 2.6220703-2.5588379 4.7011719-.9824829 1.456543-2.3012085 3.2524414-4.2769775 4.9458008-3.8115616-6.0874176-27.9796982-26.6007614-33.4356689-31.1938477-.1502075-.1245117-.2896729-.2387695-.4302368-.3544922.3630981-.2861328.7396851-.5810547 1.0906982-.8579102 10.3543701-8.348629 17.5064697-15.3730431 22.8037109-20.7763634 3.7091064-3.8474159 11.0378876-11.7837715 13.486084-16.5244141.3220215.2758789.6516113.5463867.9465332.8422852.8335571.8637695 1.4987183 1.8959961 1.9741211 3.0405273 2.0984116 4.9109764 5.2328873 28.4924889 2.8764114 46.9785118-.5725098 4.4926758-1.1230469 6.9521484-.9726563 6.9887695.0714113.018555.2897951-.5766598.6183474-1.7333981zm-121.8690863-11.3041992c.7175865-23.3068619-.0903025-27.7004013 1.5276489-34.1079063.1989746-.6782227.3459473-1.390625.618103-2.027832 1.009141-2.9293747 2.7756252-5.0223274 5.1566772-6.9306641.9234619 1.2133789 3.0649405 3.6411133 6.1332998 6.8608398 7.6873913 8.0781822 17.9902267 17.6345634 29.0505371 26.6215782.9005737.7314453 1.8184814 1.4433594 2.7277222 2.1674805-4.6752396 3.028656-36.3069077 28.3694839-40.2283325 31.800293-1.0443115-1.1274414-1.8499756-2.5517578-2.5042725-4.1870117-2.4672507-6.0893861-2.692356-13.6496506-2.4813832-20.1967774zm78.3334952-5.2001953c6.5229034 8.5592117 27.4263458 28.2249527 32.4448242 31.6806641-.159729.1035156-.3063965.2109375-.4728394.3120117-1.7651367 1.050293-3.9146118 1.8491211-6.5297241 2.2617188-2.6049805.4345703-5.6266479.4960938-9.0614624.5683594-6.8363647.1557617-14.9962769.2910156-24.7337036.2514648-19.3028946-.0755005-42.7348213-1.0658569-55.2849121-1.9467773-3.2218628-.2124023-6.3640127-.7583008-8.6390982-2.5351563 13.0266123-7.1986923 34.7429428-23.6676102 41.3223267-30.8046875.0560303-.0620117.0929565-.1088867.1452637-.1679688.3068237.2397461.6083374.4887695.9156494.7275391 2.0047607 1.5292969 3.9456177 3.1362305 6.2366333 4.5195313 2.2421875 1.3686523 4.9692993 2.4775391 7.8605347 2.4165039 2.8673706-.0556641 5.3751221-1.1162109 7.4615479-2.2753906 2.0991211-1.1870117 3.8792114-2.5146484 5.5142212-3.7475586.8318481-.6118164 1.6290894-1.222168 2.3972168-1.8203125.1340321.1806639.2731312.3657225.4235219.5600585zm-15.8896485 3.3950195c-1.8892822.0771484-3.8929443-.6166992-5.8654175-1.7626953-1.9686279-1.1235352-3.9460449-2.6640625-5.9766235-4.1396484-12.9214096-9.5284843-24.2338257-18.9989319-36.0627441-29.6362267-3.2550659-2.9228516-5.6370239-5.0703125-6.8485708-6.0292969.34729-.2680664.6990356-.53125 1.0567617-.7885742 6.6740685-4.3630638 14.215414-5.3199615 22.2140503-5.8149433 4.4747581-.2643585 40.940834-.9484959 58.0203247-.6547852 8.7874832.2446537 18.1534348-.236227 25.3424072 4.25.1817017.112793.3442383.246582.520874.3657227-6.735939 6.7597828-41.1181183 43.8437481-52.401062 44.2104473z" fill="#202020"/></g></svg>