<svg id="Layer_1" enable-background="new 0 0 135 135" height="512" viewBox="0 0 135 135" width="512" xmlns="http://www.w3.org/2000/svg"><g><g><path d="m106.3847122 112.0080414v.0100098c-.3800049 1.8300781-1.289978 3.4299316-3.1199951 5.0600586-1.0800171.9599609-2.4799805 1.9299316-4.2800293 2.9499512-7.8399658 4.4599609-16.4499512 7.579834-25.3299561 9.1699219-6.6199951 1.1799316-13.5599937 1.5-19.9800377-.5-1.75-.5500488-3.3699951-1.2600098-4.8699951-2.1398926-5.75-3.3300781-9.6799927-8.8901367-11.5899658-15.5-1.6400146-5.7199707-2.4000244-12.1101074-3.0599976-17.2001953-.3400269-2.5998535-.6900024-5.199707-1.0599976-7.8098145-1.1300049-8.0600586-2.3300171-16.1799316-3.1500244-24.25-.5-4.8701172-1.1799927-9.8400879-1.1599731-14.5600586.0299683-8.1499023 2.1099854-15.5998535 10.7799683-20.7199707.4799805-.2800293.960022-.5500488 1.4500122-.8000488 3.2199707-1.6699219 6.6900024-2.7700195 10.2600098-3.5998535 3.039978-.7099609 6.1399536-1.2099609 9.2099609-1.6901855 7.8800011-1.25 16.3800011-2.3798828 23.4900475 1.2199707 5.5 2.7800293 9.3799438 8.0900879 11.6799927 13.8000488.3099976.7700195.5899658 1.5400391.8499756 2.3200684 1.6900024 5.0400391 2.4700317 10.3701172 3.2299805 15.6499023.9000244 6.2299805 1.8000488 12.4702148 2.7000122 18.7099609 1.4500122 9.9902344 2.6400146 19.8601074 3.5800171 29.9001465.3999633 4.2700194.9299926 7.3498534.369995 9.9799804z" fill="#00a79d"/></g><g><path d="m46.6406403 108.6041718c-.3943977-5.5602417.7055168-16.0410614 12.377327-24.7355652 9.3746109-6.9832916 25.6507721-7.4411621 33.9267426 1.6231766 1.7903671 1.960907 3.1808853 4.2563782 4.2316589 6.6887894.7143936 1.6537399 2.7181473 5.3563995 1.4546051 7.0071716-1.1104202 1.4506607-3.3233032 1.9667816-4.9555588 2.5324249-2.007309.6956177-4.0358276 1.3297348-6.080162 1.9074478-4.1366501 1.1689758-8.3377762 2.1064453-12.5723343 2.8435669-8.4510803 1.4710922-17.0386429 2.154686-25.6146431 2.1565933-.9225884.000206-1.8451806-.0076675-2.7676354-.0236053" fill="#e6e7e8"/></g><g><path d="m66.7842484 18.9770355c-2.4367065-.480957-4.9419518.578125-5.914608 2.8842773-.8344116-.5385742-1.8011475-.8583984-2.7307739-.8583984-.4332886 0-.8331299.0639648-1.2151489.1582031-1.0465698.15625-2.0499268.6064453-2.8071899 1.3637695-1.4906616 1.4907227-1.781189 3.6540527-1.0258179 5.4741211.1121216 2.4287109.9030151 4.8417969 2.656189 6.5898438 2.6989746 2.6911621 6.809021 2.9541016 10.1262169 1.3291016.0626831-.0307617.1181641-.0725098.1799316-.1047363.4949951-.0141602.9945679-.052002 1.5026855-.1394043 2.6633301-.4570313 4.1570435-3.7314453 3.4921875-6.1503906-.0148926-.0541992-.0405273-.0986328-.0568237-.1516113.0886841-.3220215.1713867-.645752.2312012-.9716797.6718749-3.6621094-.0041505-8.5480958-4.4380494-9.4230958z" fill="#e6e7e8"/></g><g><path d="m50.9047356 30.4880219c-14.6300049 9.7700195-16.5200195 33.75-13.6799927 49.4599609.5799561 3.2199707-1.6500244 5.5-4.1300049 6.1000977-1.1300049-8.0600586-2.3300171-16.1799316-3.1500244-24.25-.5-4.8701172-1.1799927-9.8400879-1.1599731-14.5600586 2.2799683-8.2299805 6.1999512-15.7900391 12.2299805-21.5200195 1.4799805-1.4099121 3.0899658-2.6999512 4.8399658-3.869873 2.0400391-1.3701172 4.0300293-.9599609 5.4200439.2700195 2.2600097 1.9999999 2.9299927 6.159912-.3699951 8.369873z" fill="#12ccba"/></g><g><path d="m106.3847122 112.0080414v.0100098c-.6599731.9199219-1.3699951 1.8100586-2.1400146 2.6699219-.3099976.8000488-.6300049 1.6000977-.9799805 2.3901367-1.0800171.9599609-2.4799805 1.9299316-4.2800293 2.9499512-7.8399658 4.4599609-16.4499512 7.579834-25.3299561 9.1699219-6.6199951 1.1799316-13.5599937 1.5-19.9800377-.5-1.75-.5500488-3.3699951-1.2600098-4.8699951-2.1398926 5.4200439-.0900879 10.8300171-.7600098 16.1099815-1.9899902 7.7900391-1.8200684 15.75-4.4499512 21.9700317-9.670166 3.1300049-2.619873 5.5999756-5.3898926 7.2399902-9.1499023 1.75-4 2.6699829-8.3300781 3.1600342-12.6499023.6999512-6.3701172.5-12.8000488.8699951-19.2001953.2999878-5.2797852.2699585-10.1499023-.5500488-15.3798828-.8199463-5.2900391-1.8199463-10.5400391-2.8499756-15.7900391-.4299927-2.1398926.4099731-3.8701172 1.75-4.9599609 1.6900024 5.0400391 2.4700317 10.3701172 3.2299805 15.6499023.9000244 6.2299805 1.8000488 12.4702148 2.7000122 18.7099609 1.4500122 9.9902344 2.6400146 19.8601074 3.5800171 29.9001465.3999635 4.2700193.9299928 7.3498533.3699952 9.9799803z" fill="#039385"/></g><g><path d="m71.243187 57.6668892c-5.68647-2.2358551-11.8311424-1.9895859-15.5516815 3.3844643-3.0483742 4.4031525-2.9929771 11.2034149-.1898689 15.687561 3.1515541 5.0415649 9.7256279 7.7501297 15.4558449 6.1644745 5.730217-1.5856628 10.020668-7.4734497 9.5476379-13.4001694-.4200822-5.2633972-4.347992-9.9042244-9.2619324-11.8363304z" fill="#e6e7e8"/></g><g fill="#202020"><path d="m37.4831161 112.5800705c.2809448.9685059.7123413 2.407959 1.5582275 4.1481934 4.3635712 9.0307465 12.396244 13.636879 22.4431763 14.3117599 4.0963745.2973633 8.4806519-.046875 12.973999-.8395996 11.0541534-1.9276276 25.9904938-7.7658234 30.9849243-13.2377853 1.0065918-1.0803223 1.8453369-2.4873047 2.2536011-3.9951172.4251099-1.5048828.4801025-3.0058594.4449463-4.4174805-.0357666-1.4223633-.1781616-2.7780762-.3040771-4.1213379-.4863892-5.3359375-.9767456-10.8215332-1.5938721-16.2744141-.8217697-7.5411987-5.0958557-40.9854546-7.0739746-48.3039589-4.4420776-16.8208408-14.9572754-23.558651-29.9384155-22.5561523-.1140747-.4799805-.2359619-.982666-.3739624-1.5332022-.4598389-1.7231445-1.0420532-3.7763672-2.0231934-6.0092773-.503418-1.1123047-1.0952148-2.2778325-1.9847412-3.4179692-.4497681-.5661621-.9943237-1.1257324-1.6936035-1.6035156-.6917114-.4741211-1.6077881-.8481445-2.5915527-.8740234-.9833374-.0302734-1.9050293.2670898-2.6755981.6623535-.3977051.1938477-.7438965.4306641-1.0794067.6796875-.3588867.2358398-.6420898.5180664-.9470825.7919922-1.1776123 1.1191406-2.0692749 2.4033208-2.8400269 3.7211919-1.524231 2.6496582-2.5697632 5.4641113-3.328125 8.2819815-.2234497.8630371-.4224243 1.7121582-.581604 2.5825195-1.0449219.2739258-2.0813599.564209-3.0968018.895752-3.1309814 1.0268555-6.116394 2.3452148-8.7414551 4.1555176-8.0514641 5.3247337-10.5511398 12.9100838-10.4204712 22.4216309.1844368 10.757328 4.481966 37.3289604 6.1204834 47.9399452 1.1102295 7.4128418 2.1925659 11.2504883 2.9177246 13.1643066.7404175 1.9194336 1.0654907 1.9763184 1.3268433 1.9018555.2792969-.0791016.4667969-.2954102.2120972-2.2822266-.241272-1.9953613-.8619385-5.7521973-1.600708-13.1533203-.9928818-9.789772-5.0138416-38.102478-5.0872803-47.6132851-.1504345-10.104332 3.2852249-15.4276314 8.7619019-19.027832 2.2427368-1.545166 4.906311-2.7255859 7.7672729-3.6547852.5046997-.1635742 1.0249023-.3105469 1.5432739-.4594727.0318604.6181641.0883789 1.2282715.1787109 1.8225098 3.1611519 19.5345306 27.279892 12.3541107 23.4920044-1.6591797-.6082153-2.0842285-1.2571411-2.9108887-1.6451416-3.340332-.4125977-.4111328-.6773071-.3496094-.9400635-.2509766-.2637329.098877-.49823.2319336-.546936.800293-.0733032.560791.1452026 1.5834961.2971191 3.2966309.708458 10.5131453-14.260643 13.8049162-16.722229.4929198-.1196289-.6906738-.1882935-1.4089355-.2077026-2.1384277 1.2356567-.2685547 2.4927368-.5185547 3.7855225-.7436523 3.2701416-.5534668 6.7210083-1.1303711 10.1737061-1.5344238.9991455-.1098633 2.019043-.2028809 3.0511475-.267334.0684204.0703125.1276855.1108398.1693726.0939941.0234985-.0100098.0358276-.0546875.0464478-.1049805 2.8111572-.1635742 5.7134399-.0961914 8.5706787.5354004 9.1858292 2.0478382 14.4280472 9.9326973 16.9006348 19.0117188 1.6507797 5.9023399 6.4835968 37.5471458 9.2931519 63.8742714.2887573 2.6643066.630249 5.279541.0805664 7.4077148-1.6861496 6.9909515-21.5367813 13.9656525-30.7522583 15.802002-4.3452759.8752365-8.5430908 1.3102951-12.4441528 1.1396408-9.6833076-.3656616-17.0710831-4.4416122-21.8267212-12.7521896-1.8352661-3.2849121-2.3649292-5.3571777-2.550415-5.2946777-.0675052.0195311.0244137.5407713.2640377 1.5251463zm28.7442627-95.0178261c-3.6621094.4301758-7.0626831 1.0041504-10.4278564 1.5761719-.8786011.1542969-1.7515259.3188477-2.6188354.4938965.0506592-.2460938.1017456-.4926758.15625-.7373047.5869751-2.5742188 1.4486084-5.2124014 2.6446533-7.5563955.598938-1.1652832 1.2925415-2.2612305 2.0938721-3.1171875.7924194-.8530278 1.7315063-1.45752 2.463562-1.4855962.7217407-.0625 1.5922852.4748535 2.3395386 1.2785649.7445068.8068848 1.3716431 1.7875977 1.9182129 2.753418 1.0870972 1.9533691 1.8806763 3.8850098 2.5584717 5.4987783.1608276.3986816.3157959.7780762.4650879 1.1384277-.5385743.0480958-1.0703736.1008301-1.5929567.1572266z"/><path d="m46.6406479 108.6042404c-.0045776.28125.053894.5493164.9171143.800293 10.9461937 3.1314621 37.8039322-2.511116 48.991333-6.5078125.8793335-.3400879 1.8861084-.7573242 2.8908691-1.621582.2520142-.2224121.4804688-.4516602.7250977-.755127.2539063-.3503418.5166626-.7509766.6489258-1.1904297.293396-.8815918.2817383-1.6435547.2061157-2.2805176-1.2353821-8.6635742-8.621376-17.8651199-20.2999268-19.7250977.2838135-.5288086.5444946-1.0605469.7556763-1.595459 3.8227921-9.5403595-4.3665848-18.4232178-9.3756104-18.5544472-.6243896-.0046387-.7526855.2319336-.8569946.4926758-.1043701.2609863-.1582642.5297852.2185669.9584961.7483826.8850212 9.9601974 6.8268089 6.3139648 15.6105995-.9662476 2.3137207-2.9290771 4.7980957-5.8964844 6.1604004-1.5962524.7321777-3.6568604 1.1433105-5.8995361.8466797-2.2286377-.2802734-4.6077271-1.2248535-6.5613403-2.8300781-6.0666313-4.8918915-5.8787766-15.6472511.3719482-19.6691933 1.8171387-1.1943359 3.8916016-1.5488281 5.6235962-1.5891113 1.7489624-.0441895 3.1969604.208252 4.1960449.3808594 1.0036621.1721191 1.5784302.2727051 1.6332397.1313477.0477905-.1201172-.4260864-.4772949-1.3909302-.9155273-.9619141-.4360352-2.4268188-.9689941-4.3660889-1.1801758-1.9100342-.208252-4.4071045-.0864258-6.8304443 1.1982422-8.0835342 4.2183876-9.5298767 17.5759926-1.6759033 24.4956093.512207.4516602 1.0529175.8571777 1.6074219 1.234375-.1317139.0932617-.2653198.1882324-.3971558.2792969-.850769.7304688-1.7310791 1.3933105-2.5114746 2.1496582-7.261425 6.9540634-9.8563156 14.4445648-9.4986572 21.1369629.0983277 1.6577148.333191 2.548828.4606324 2.5390624zm.3598633-2.5170898c.9100723-8.3279495 4.4829102-14.0654449 10.3938599-19.2180176.7560425-.6679688 1.6147461-1.2497559 2.432312-1.8950195.5062256-.3117676 1.0021973-.6455078 1.5151367-.9597168 1.3381348.578125 2.7221069.9780273 4.0942993 1.1811523 2.9656982.4597168 5.8756104-.0522461 8.1271362-1.0913086 1.9835815-.8791504 3.5690308-2.1694336 4.8505249-3.5458984 8.8385544 1.0276184 13.6787415 5.0612869 17.3533325 13.3696289.2055054.4567871.3987427.890625.5664063 1.3112793.3418579.8339844.5957642 1.6552734.6592407 2.2512207l.0183105.206543c-.0042114.0534668-.0074463.1032715-.0062256.1550293-.012207.0822754-.012146.1533203-.0235596.1313477.0092163.0083008-.0011597-.012207-.0009155.0100098-.0405273.0515137-.1303711.1450195-.2154541.2180176-.3560791.3171387-.9686279.621582-1.6519775.8745117-23.2128067 8.2890015-43.1366272 7.5046387-47.5371094 8.7336426-.4396973.1206055-.6715088.2495117-.795166.3840332.0626831-.4123537.1176148-1.1318361.2198487-2.1164552z"/></g></g></svg>