<svg id="Layer_1" enable-background="new 0 0 135 135" height="512" viewBox="0 0 135 135" width="512" xmlns="http://www.w3.org/2000/svg"><g><g><path d="m46.7200165 124.1108704c-10.9948769-.2905579-22.1831074.7000198-33.1604729.5404968-4.481946-.0651398-10.6599159 1.2786713-9.9870377-5.0003891.3699505-3.4522476 2.5600049-7.0530167 4.5901451-9.7909927 3.3766375-4.5539398 8.2478495-8.0847855 13.6730356-9.7599411 14.5500889-4.4927063 29.8632107 3.7346039 33.728569 18.4636307 1.1430206 4.3555069-.5291862 5.9762344-4.5660706 5.7308578-1.4221962-.0864411-2.8485459-.1458817-4.2781685-.1836624z" fill="#42dbcc"/></g><g><path d="m122.3257141 124.1108704c-10.994873-.2905579-22.1831055.7000198-33.1604691.5404968-4.4819489-.0651398-10.6599197 1.2786713-9.9870377-5.0003891.3699493-3.4522476 2.5600052-7.0530167 4.5901413-9.7909927 3.3766403-4.5539398 8.2478485-8.0847855 13.6730347-9.7599411 14.5500946-4.4927063 29.8632126 3.7346039 33.728569 18.4636307 1.1430206 4.3555069-.5291901 5.9762344-4.5660706 5.7308578-1.4221953-.0864411-2.8485488-.1458817-4.2781676-.1836624z" fill="#42dbcc"/></g><g><path d="m86.2837143 65.2706909c-10.9948807-.2905579-22.1831131.7000198-33.1604767.5404968-4.481945-.0651398-10.6599159 1.2786713-9.9870377-5.0003891.3699493-3.4522476 2.5600052-7.0530128 4.5901451-9.7909889 3.3766365-4.5539436 8.2478485-8.0847855 13.6730347-9.7599487 14.5500908-4.4927025 29.8632164 3.7346115 33.7285728 18.4636383 1.143013 4.3555031-.5291901 5.9762306-4.5660782 5.7308617-1.4221877-.0864487-2.8485412-.1458893-4.27816-.1836701z" fill="#42dbcc"/></g><g><path d="m20.7602386 23.0617981c1.9301567 5.3416977 4.1959324 10.5620995 6.7795277 15.6201897.5721779 1.1201973 1.3681107 2.3762856 2.6227493 2.4663582 1.0909843.0783234 2.0025806-.7789459 2.728159-1.5974274 2.5811081-2.911602 4.783947-6.1581497 6.5357704-9.632431.3725967-.7389507.734005-1.5373268.6459732-2.3602028-.0755119-.7058735-.4781609-1.3394566-.9647331-1.8563747-1.5878181-1.6868343-3.9831696-2.2872658-6.2398758-2.8105583-2.1098576-.4892426-4.2197113-.9784832-6.329567-1.4677238-1.783165-.4134884-3.8562737-.7667332-5.278347.3858109" fill="#f7941e"/></g><g><path d="m112.3180618 24.677578c-1.9301605 5.3416977-4.1959305 10.5620995-6.7795258 15.6201897-.5721817 1.1201935-1.3681107 2.3762856-2.6227493 2.4663582-1.0909882.0783234-2.0025864-.7789459-2.7281647-1.5974274-2.5811081-2.911602-4.7839432-6.1581497-6.5357666-9.6324329-.3725967-.7389488-.7340088-1.5373249-.6459732-2.3602009.0755157-.7058735.478157-1.3394566.9647369-1.8563747 1.5878143-1.6868362 3.9831619-2.2872658 6.2398758-2.8105583 2.1098557-.4892426 4.2197113-.9784832 6.329567-1.4677238 1.7831573-.4134884 3.8562698-.7667332 5.2783432.3858089" fill="#f7941e"/></g><g><path d="m83.4727249 26.257246c0 8.5798244-6.8781281 15.5479069-15.3579865 15.5479069-5.7266426 0-10.7224541-3.1838875-13.3556519-7.8993454-1.2713776-2.2623997-1.9923096-4.8757973-1.9923096-7.6485615 0-8.5900879 6.8781319-15.5581703 15.3479614-15.5581703 4.2750015 0 8.1394958 1.771596 10.932663 4.6250191 2.7332918 2.8035602 4.4253236 6.6679268 4.4253236 10.9331512z" fill="#89e5e5"/></g><g><path d="m47.1102829 87.047821c0 8.5900879-6.8681145 15.5483932-15.3479671 15.5483932-6.4173908 0-11.9037647-3.9851151-14.196476-9.6416092-.7408543-1.8219452-1.1513672-3.8144989-1.1513672-5.9067841 0-8.5900879 6.8679905-15.5581741 15.3478432-15.5581741 4.8457355 0 9.1608219 2.2726746 11.9640179 5.8168411 2.1124457 2.6632616 3.3839492 6.056862 3.3839492 9.7413331z" fill="#89e5e5"/></g><g><path d="m121.0363998 87.047821c0 8.5900879-6.8679886 15.5483932-15.3478394 15.5483932-7.2684784 0-13.3456345-5.1060486-14.9374542-11.9744034-.2702103-1.140976-.4105148-2.3425751-.4105148-3.5739899 0-8.5900879 6.8681183-15.5581741 15.3479691-15.5581741 2.9834595 0 5.7667313.8608704 8.1194458 2.3528442 4.3450317 2.7532045 7.2283935 7.6387865 7.2283935 13.20533z" fill="#89e5e5"/></g><g><path d="m43.7263336 77.306488c-.6106987.2703323-1.3214874.4003677-2.1324921.3705521-8.389782-.3206863-22.5563164 4.4852066-23.8378391 14.4167023-.0400848.3001556-.1000919.5905304-.1901627.8608627-.7408543-1.8219452-1.1513672-3.8144989-1.1513672-5.9067841 0-8.5900879 6.8679905-15.5581741 15.3478432-15.5581741 4.8457356 0 9.160822 2.2726746 11.9640179 5.8168411z" fill="#a6f4f0"/></g><g><path d="m79.0474014 15.3240948c-5.2060165.100215-9.4810181 2.6833038-13.7259521 5.746933-3.9144783 2.8133373-9.8414268 6.3873253-10.3420105 11.7035809-.0399628.4003677-.1101151.7806931-.2203522 1.1311989-1.2713776-2.2623997-1.9923096-4.8757973-1.9923096-7.6485615 0-8.5900879 6.8781319-15.5581703 15.3479614-15.5581703 4.2750016-.0000001 8.1394959 1.7715959 10.932663 4.625019z" fill="#a6f4f0"/></g><g><path d="m113.8080063 73.8424911c-3.9847412.3905869-7.6990356 2.2824402-11.183075 4.6054611-4.1647644 2.7732544-9.631218 6.3071594-11.4232254 11.2230453-.1302795.350502-.2803574.6609268-.4505997.9508133-.2702103-1.140976-.4105148-2.3425751-.4105148-3.5739899 0-8.5900879 6.8681183-15.5581741 15.3479691-15.5581741 2.9834595.0000001 5.7667312.8608705 8.1194458 2.3528443z" fill="#a6f4f0"/></g><g fill="#202020"><path d="m3.4897327 114.0025864c-.5255127 1.1137695-.9842529 2.2885742-1.2897949 3.5488281-.3022461 1.2597656-.496582 2.5678711-.2763672 4.0776367.0999756.7402344.3804932 1.5551758.8691406 2.2832031.2420654.3540039.5692139.6743164.8826904.9609375.3405762.2270508.6917725.5214844 1.0469971.6508789 1.4404297.6601563 2.7626953.7236328 3.9720459.7602539 1.2138672.0180664 2.3508301-.0595703 3.4353027-.1088867.550293-.0288086 1.0493164-.0395508 1.59021-.0488281.5518799-.0068359 1.1009521-.0136719 1.6468506-.0205078 8.7285156-.1816406 16.5294189-.8706055 22.1850567-1.1992188 5.6516113-.3696289 9.1584473-.5053711 9.1682129-.7958984.0102539-.2714844-3.5043945-.6723633-9.2012939-.7890625-5.6927471-.1572266-13.5527325.0922852-22.1412334-.0952148-.5362549-.0161133-1.0756836-.0317383-1.6179199-.0478516-.5533447-.0136719-1.1544189-.0244141-1.7087402-.0170898-1.1243896.0078125-2.2177734.0371094-3.2486572-.0180664-1.0202637-.050293-2.0062256-.2119141-2.6234131-.5400391-.6193848-.3198242-.7941895-.6889648-.9143066-1.4663086-.0957031-.7578125.0354004-1.7666016.307251-2.7133789.2613525-.9580078.6623535-1.9165039 1.1365967-2.8520508.9440918-1.8623047 2.2076416-3.6850586 3.5174561-5.3139648 2.6397705-3.2255859 5.9956055-5.6748047 9.404541-7.1884766 1.1549072-.512207 2.3198242-.9042969 3.4750977-1.2172852 3.0318604 1.7373047 6.5629883 2.4677734 9.8079815 2.1289063 1.9848633-.1777344 3.8449707-.7397461 5.5025635-1.5366211 1.8322754.6835938 3.520874 1.4770508 4.9855957 2.4389648 3.6048584 2.2827148 6.0146484 5.1748047 7.6794434 7.8374023.8591309 1.3310547 1.4311523 2.6733398 1.9848633 3.8945313.4093018 1.2587891.9180908 2.4624023 1.079834 3.4179688.2049561.9829102.1169434 1.7109375-.0626221 2.012207-.1293945.3266602-.5921631.5786133-1.1672363.7353516-.5748291.1474609-1.1844482.2006836-1.7279053.2241211-.6044922.034668-1.1271973.0644531-1.5797119.090332-.9107666.0693359-1.5335693.1582031-1.9599609.262207-.8525391.2070313-.9205322.472168-.9282227.753418-.0078125.2807617.0489502.5512695.8748779.8305664.4128418.1396484 1.0177002.2817383 1.9014893.4282227.4482422.0727539.9394531.1474609 1.5600586.222168.6573486.0791016 1.4263916.1396484 2.3845215.0205078.4804688-.0732422 1.012085-.1694336 1.5939941-.4506836.5693359-.2568359 1.2072754-.7045898 1.6540527-1.359375.4492188-.6357422.7344971-1.4199219.8118896-2.137207.097168-.7290039.078125-1.4467773-.0163574-2.1376953-.1711426-1.4213867-.6437988-2.671875-1.0634766-4.1630859-.5629883-1.4257813-1.173584-2.9912109-2.1140137-4.5605469-1.8248291-3.1342773-4.5704346-6.5561523-8.7280273-9.2636719-.9794922-.6577148-2.0703125-1.2338867-3.2075195-1.7749023 1.9866943-1.8061523 3.2487793-3.9370117 4.0029297-5.800293.8126221-2.0610352 1.0192871-3.8447266 1.0336914-5.0517578-.0241699-1.2143555-.1639404-1.8681641-.2938232-1.8666992-.3666992-.0327148-.3001709 2.6870117-2.1785889 6.2529297-.9544678 1.7392578-2.3925781 3.6855469-4.5177002 5.1606445-2.0795898 1.5063477-4.7944336 2.559082-7.7021484 2.6479492-2.9035625.1328125-5.9399395-.7255859-8.4079571-2.4545898-2.4512939-1.7392578-4.3708496-4.2661133-5.2347412-7.0551758-.9222412-2.7641602-.8806152-5.7182617-.1549072-8.2143555 1.6604099-5.8402405 6.9259071-9.7913208 12.7315674-9.8876953 1.4832745-.0083008 2.8510723.2089844 4.0886211.5507813 5.2716904 1.7672958 7.8888359 5.003479 9.7696533 10.0253906.1234131.3950195.2302246.7368164.322998 1.0332031.2244873.5927734.3054199 1.0185547.4580078 1.3066406.2734375.581543.5441895.6357422.8251953.6342773.2810059-.0019531.5471191-.0400391.758667-.7006836.0892334-.3295898.2374268-.8232422.21521-1.5405273-.0036621-.3588867.0012207-.7802734-.0444336-1.2631836-.9790268-6.4738388-5.0222931-11.0207062-11.1380615-13.2050781-1.5882568-.4941406-3.3652344-.8154297-5.2901592-.8305664-7.5926876-.0165024-14.5321407 5.2140121-16.5432129 12.8154297-.8786621 3.2529297-.8277588 7.0170898.4570313 10.5102539.7821045 2.2480469 2.1063232 4.3212891 3.7818604 6.0566406-.4433594.1743164-.8867188.3442383-1.329834.5473633-3.9459229 1.8188477-7.7373047 4.7036133-10.6864014 8.4785156-1.4453129 1.8901367-2.7390141 3.8505859-3.8052983 6.0878906z"/><path d="m132.0268402 115.3644028c-.5629883-1.4257813-1.173584-2.9912109-2.1140137-4.5605469-1.8248291-3.1342773-4.5704346-6.5561523-8.7281494-9.2636719-1.3018799-.8745117-2.762085-1.6337891-4.3321533-2.3081055 1.6669922-1.6831055 2.7631836-3.5825195 3.4440918-5.2651367.8127441-2.0615234 1.0192871-3.8452148 1.0335693-5.0522461-.0241699-1.2143555-.1639404-1.8681641-.2939453-1.8666992-.3666992-.0327148-.2999268 2.6875-2.1783447 6.253418-.9544678 1.7392578-2.3924561 3.6860352-4.5186768 5.1606445-2.0800781 1.5053711-4.7958984 2.5566406-7.7042236 2.644043-2.9067383.1547852-5.9443359-.7241211-8.4089355-2.4541016-2.4772949-1.71875-4.3430176-4.284668-5.2333984-7.0576172-.9511719-2.7719727-.8669434-5.7163086-.1468506-8.2172852.7164307-2.5117188 2.1005859-4.5859375 3.6015625-6.0483398 2.7724609-2.7016602 6.1914063-3.7895508 9.1330566-3.8378906 2.9770508-.0566406 5.4708252.859375 7.3419189 2.0175781 1.894165 1.1621094 3.1862793 2.5727539 4.1219482 3.8369141.9321289 1.2788086 1.4874268 2.4526367 1.8937988 3.4169922.7836914 1.9492188 1.0046387 3.0776367 1.28479 3.6508789.2624512.5820313.5324707.6362305.8133545.6347656.2810059-.0019531.5480957-.0400391.7705078-.7011719.1977539-.6538086.430542-1.9775391-.1208496-4.4462891-.2947998-1.2211914-.802124-2.7338867-1.8223877-4.4140625-1.0244141-1.6625977-2.5445557-3.5400391-4.8985596-5.1259766-2.3239746-1.5791016-5.5531006-2.8701172-9.4168701-2.859375-3.8199463-.0092773-8.3543701 1.3989258-11.953125 4.9208984-1.9543457 1.9033203-3.7277832 4.6240234-4.5947266 7.8920898-.8751221 3.246582-.8623047 7.0258789.4471436 10.5102539.8753662 2.4536133 2.3685303 4.7207031 4.274292 6.5537109-.0447998.0205078-.0895996.0375977-.1345215.0581055-3.9459229 1.8188477-7.7373047 4.7036133-10.6864014 8.4785156-1.4453125 1.8901367-2.7390137 3.8505859-3.8052979 6.0878906-.5255127 1.1137695-.9842529 2.2885742-1.2897949 3.5488281-.3022461 1.2597656-.496582 2.5678711-.2763672 4.0776367.0999756.7402344.3804932 1.5551758.8691406 2.2832031.2420654.3540039.5690918.6743164.8826904.9609375.3405762.2270508.6917725.5214844 1.046875.6508789 1.4405518.6601563 2.7628174.7236328 3.972168.7602539 1.2138672.0180664 2.3508301-.0595703 3.4351807-.1088867.550293-.0288086 1.0494385-.0395508 1.590332-.0488281.5518799-.0068359 1.1009521-.0136719 1.6467285-.0205078 8.7285156-.1816406 16.529541-.8706055 22.1851807-1.1992188 5.6516113-.3696289 9.1584473-.5053711 9.1680908-.7958984.010376-.2714844-3.5042725-.6723633-9.2011719-.7890625-5.6928711-.1572266-13.5528564.0922852-22.1412354-.0952148-.5362549-.0161133-1.0756836-.0317383-1.6179199-.0478516-.5533447-.0136719-1.1544189-.0244141-1.7087402-.0170898-1.1243896.0078125-2.2177734.0371094-3.2486572-.0180664-1.0202637-.050293-2.0062256-.2119141-2.6234131-.5400391-.6193848-.3198242-.7943115-.6889648-.9143066-1.4663086-.0957031-.7578125.0354004-1.7666016.307251-2.7133789.2613525-.9580078.6623535-1.9165039 1.1365967-2.8520508.9440918-1.8623047 2.2076416-3.6850586 3.5174561-5.3139648 2.6397705-3.2255859 5.9956055-5.6748047 9.404541-7.1884766.7803955-.3457031 1.56604-.640625 2.3500977-.8925781 2.8979492 1.515625 6.2004395 2.1391602 9.2449951 1.8022461 2.2758789-.2021484 4.3931885-.9033203 6.2215576-1.8950195 2.2163086.7573242 4.2319336 1.6679688 5.9545898 2.7993164 3.6048584 2.2827148 6.0146484 5.1748047 7.6794434 7.8374023.8591309 1.3310547 1.4311523 2.6733398 1.9847412 3.8945313.4094238 1.2587891.9182129 2.4624023 1.079834 3.4179688.2050781.9829102.1169434 1.7109375-.0625 2.012207-.1293945.3266602-.5921631.5786133-1.1672363.7353516-.5748291.1474609-1.1844482.2006836-1.7279053.2241211-.6044922.034668-1.1271973.0644531-1.5797119.090332-.9108887.0693359-1.5336914.1582031-1.9599609.262207-.8525391.2070313-.9205322.472168-.9283447.753418-.0076904.2807617.0489502.5512695.875.8305664.4128418.1396484 1.0177002.2817383 1.9014893.4282227.4482422.0727539.9394531.1474609 1.5600586.222168.6573486.0791016 1.4263916.1396484 2.3845215.0205078.4803467-.0732422 1.012085-.1694336 1.5939941-.4506836.5692139-.2568359 1.2072754-.7045898 1.6540527-1.359375.4492188-.6357422.7344971-1.4199219.8118896-2.137207.097168-.7290039.078125-1.4467773-.0163574-2.1376953-.1712646-1.4213866-.6437988-2.6718749-1.0634765-4.1630858z"/><path d="m86.2836761 65.2706528c.010376-.2709961-3.5042725-.671875-9.2011719-.7885742-.4326477-.0119476-27.3876419-.1075821-28.7165527-.1787109-1.0202637-.050293-2.0063477-.2114258-2.6234131-.5395508-.6193848-.3203125-.7943115-.6894531-.9143066-1.4667969-.0957031-.7578125.0354004-1.7666016.307251-2.7128906.7670288-2.8130226 2.8205872-5.8865662 4.6540527-8.1660156 2.6397705-3.2255859 5.9956055-5.675293 9.404541-7.1889648 1.4858398-.6586914 2.9904785-1.1342773 4.4667969-1.4736328 1.8676758.4707031 3.7830811.6225586 5.6075439.4316406 1.3302002-.1186523 2.6069336-.4077148 3.8039551-.824707 1.2967529.1855469 2.5401611.4589844 3.7207031.8027344 13.8502045 4.6370352 19.6232148 19.7024344 15.6865235 20.7753904-.5748291.1474609-1.1844482.2011719-1.7279053.2241211-.6044922.034668-1.1271973.0644531-1.5797119.090332-.9108887.0693359-1.5336914.1586914-1.960083.262207-.852417.2070314-.9204102.4721681-.9282227.7534181-.0076904.2807617.0489502.5512695.875.8310547.4128418.1396484 1.0175781.28125 1.9014893.4277344.4482422.0727539.9394531.1479492 1.5600586.2226563.6573486.0791016 1.4263916.1396484 2.3845215.0200195.4803467-.0732422 1.012085-.1694336 1.5939941-.4506836.5692139-.2563477 1.2072754-.7041016 1.6539307-1.359375 3.1739044-4.4905434-2.6937103-20.2977104-17.9990234-25.5708008 2.2666016-1.8891602 3.6628418-4.2109375 4.4758301-6.2202148.8126221-2.0610332 1.0194092-3.8447247 1.0336914-5.0512676-.0240479-1.2143555-.1638184-1.8681641-.2938232-1.8671875-.3665771-.0322266-.3000488 2.6875-2.1785889 6.2529278-.9543457 1.7392578-2.3924561 3.6855469-4.5177002 5.1611328-2.0794678 1.5063477-4.7943115 2.5585938-7.7020264 2.6479492-2.9035645.1323242-5.9399414-.7260742-8.4080811-2.4545898-2.4511719-1.7392578-4.3707275-4.2666016-5.2346191-7.0551739-.9223633-2.7641602-.8806152-5.71875-.1550293-8.2148438.7143555-2.5117188 2.1003418-4.5844727 3.5997314-6.0473633 2.7720947-2.7011719 6.1904297-3.7915039 9.1318359-3.840332 1.4832764-.0078125 2.8511963.2089844 4.0887451.5512695 5.2204819 1.7501278 7.9045944 5.0352879 9.7695313 10.0253906.1235352.3945313.2303467.7363281.322998 1.0327148.2244873.5927734.305542 1.019043.4581299 1.3071289.2734375.581543.5441895.6357422.8250732.6337891.2810059-.0014648.5472412-.0395508.7587891-.7001953.0891113-.3295898.2373047-.8232422.21521-1.5405273-.0036621-.3588867.0010986-.7802734-.0445557-1.2631836-.0721436-.4775391-.1470947-1.027832-.2790527-1.6445313-1.4411163-5.4611874-5.1107178-9.5080757-10.8590088-11.5610352-1.5881348-.4941406-3.3652344-.8149414-5.2901611-.8300781-3.819458-.0083008-8.3520508 1.4013672-11.9503174 4.9228516-1.9526367 1.9042969-3.7280273 4.6235352-4.5927734 7.8925781-.8787842 3.2524414-.8278809 7.0166016.4569092 10.510252 1.1514893 3.3100586 3.4771729 6.2382813 6.3790283 8.2612305-.239502.1015625-.4790039.1865234-.7182617.2963867-3.9460449 1.8183594-7.7373047 4.703125-10.6864014 8.4780273-1.4454346 1.8901367-2.7391357 3.8510742-3.8052979 6.0878906-.5255127 1.1137695-.9842529 2.2885742-1.2897949 3.5488281-.3022461 1.2602539-.496582 2.5678711-.2764893 4.078125.1000977.7402344.3806152 1.5551758.8692627 2.2827148.2420654.3540039.5690918.6748047.8825684.9609375.3406982.2275391.6918945.5214844 1.0469971.6513672 1.4405518.659668 2.7628174.7231445 3.9720459.7597656 4.8991661.0748825 28.7396393-1.3701096 28.8575439-1.3769531 5.6516114-.3701171 9.1584473-.505371 9.1680908-.7963866z"/><path d="m12.7108021 41.2569809c-1.3267822 2.059082-2.7504883 4.9311523-3.6925049 8.1074219-.9818115 3.1713867-1.53125 6.6430664-1.6497803 9.8027344-.2653809 6.3525391 1.0968018 11.2958984 1.6099854 11.2036133.592041-.0708008.2858887-5.0463867 1.2556152-10.918457.4669189-2.9326172 1.2601318-6.0678711 2.3375244-8.8813477 1.0479736-2.8349609 2.3927002-5.2851563 3.5655518-7.112793 2.15271-3.3310547 4.3029785-5.4804688 5.9384766-7.0869141.7615967-.7280273 1.4121094-1.3271484 1.9770508-1.8447266.1629639.4067383.3253174.8129883.4986572 1.2290039.4744873 1.1411133.9859619 2.3149414 1.5308838 3.5.2824707.6123047.6204834 1.3105469 1.1791992 2.0058594.2830811.347168.6334229.7026367 1.1020508 1.0053711.4833984.3139648 1.0782471.5327148 1.6768799.5849609.6766357.0668945 1.4321289-.0996094 1.972044-.3583984.5584717-.2553711.986084-.5761719 1.3580322-.8901367.7473145-.6582031 1.2122803-1.2207031 1.7355957-1.7954102 2.4356117-2.7520905 4.4853172-5.7787857 6.0332031-8.7797832.276001-.5356445.6091309-1.1689453.819458-1.9775391.1313477-.5009766.2025146-1.097168.1374512-1.7104492-.0675049-.6196289-.2644043-1.1708984-.5007324-1.6289063-.4855957-.925293-1.0860596-1.5112305-1.6696777-2.0175781-1.2060547-1.0117188-2.4768066-1.5454102-3.5870361-1.9204102-1.8818398-.588583-9.9209423-2.3700504-12.2778301-2.1777344-1.7259521.1171875-2.6418457.8720703-2.8826904 1.3056641-.2625732.4677734-.088623.690918.081665.9082031.1738281.2231445.381958.3950195.7502441.4414063.3897705.0703125.847168.0078125 1.9595947.2231445 16.5088787 3.174509 17.1294422 3.8239708 8.3067608 14.959959-.4429913.5527344-.9223614 1.1621094-1.286375 1.5185547-.1883545.184082-.3669434.324707-.4893799.394043-.1351318.0756836-.1383057.074707-.2137451.0947266-.0581055.0043945-.1018066.0039063-.1760254-.0273438-.0910645-.0410156-.2252197-.1381836-.3674316-.2861328-.2918701-.3007813-.5849609-.7524414-.8822021-1.2880859-.6148682-1.1171875-1.2185059-2.2148438-1.8017578-3.2749023-1.1483154-2.1328125-2.1755371-4.1411114-3.0517578-5.8652325-1.7475586-3.4501953-2.9035645-5.7612305-3.2476807-5.6376953-.3291016.1176758.1967773 2.6665039 1.427124 6.3950195.1928711.5820313.4091797 1.2006836.6362305 1.8344727-.8764648.5141602-1.9442139 1.23242-3.2281494 2.2641582-1.9349368 1.5981446-4.4426272 3.925293-6.8845217 7.7016602z"/><path d="m99.7077484 43.218895c.3720703.3144531.7996826.6347656 1.3580322.8901367.5400391.2587891 1.2955322.425293 1.972168.3583984.5986328-.0522461 1.1934814-.2709961 1.6767578-.5844727.4686279-.3032227.8189697-.6586914 1.1021729-1.0058594.5585938-.6953125.8967285-1.3935547 1.1791992-2.0058594.5447998-1.1850586 1.0563965-2.3588867 1.5307617-3.5.1733398-.4160156.3354492-.8217773.498291-1.2285156.5668945.519043 1.2159424 1.1162109 1.977417 1.8442383 16.5658035 16.271534 10.9477997 33.7411652 13.0974121 34 1.1643906.2082825 6.4036102-22.7587204-10.6170654-36.815918-1.2832031-1.0317383-2.3522949-1.7509766-3.2280273-2.2646484.2269287-.6337891.4432373-1.2519512.6361084-1.8339825 1.2303467-3.7285156 1.7561035-6.2773438 1.427002-6.3950195-.3441162-.1235352-1.5 2.1875-3.2475586 5.6376953-.8762207 1.7241192-1.9034424 3.73242-3.0517578 5.8652325-.583252 1.0600586-1.1868896 2.1577148-1.8016357 3.2753906-.2973633.5351563-.590332.9868164-.8823242 1.2875977-.1422119.1479492-.2763672.2451172-.3674316.2861328-.0742188.03125-.1179199.0322266-.1759033.0273438-.0754395-.0195313-.0786133-.0185547-.2137451-.0947266-.1225586-.0693359-.3010254-.2099609-.4893799-.394043-.3640137-.3564453-.8435059-.9658203-1.286377-1.5185547-.885498-1.1176758-1.7033691-2.2573242-2.442627-3.3847656-.7410889-1.1264648-1.4020996-2.2416992-1.9858398-3.3076172-.5438232-1.0190411-1.2070313-2.2460918-1.3084717-2.7006817-.0563965-.3227539-.0554199-.2294922.0362549-.472168.0952148-.2104492.3692627-.5234375.6807861-.7924805.6137695-.5356445 1.4157715-.9257813 2.2609863-1.2324219 1.6914063-.5893555 3.5487061-.96875 5.0133057-1.3862305 1.4886475-.3979492 2.7314453-.7509766 3.7681885-1.0664063 1.0019531-.3139648 1.720459-.5087891 2.2840576-.6171875 1.1125488-.215332 1.5698242-.152832 1.9595947-.2231445.3682861-.0458984.576416-.2177734.7502441-.440918.1702881-.2177734.3442383-.440918.081665-.9082031-.2408447-.434082-1.1566162-1.1884766-2.8826904-1.3061523-.8436279-.0688477-1.8551025.0185547-2.9556885.2060547-1.0698242.1728516-2.3411865.402832-3.8530273.7006836-1.5205078.3320313-3.2053223.5629883-5.4689941 1.2709961-1.1102295.375-2.3811035.9086914-3.5870361 1.9204102-.5836182.5063477-1.1842041 1.0922852-1.6696777 2.0175781-.2363281.4580078-.4332275 1.0092773-.5008545 1.6289063-.0650635.6132813.0061035 1.2099609.1375732 1.7104492.2103271.8085938.543335 1.4418926.819458 1.9775372.2830811.5488281.5922852 1.112793.9237061 1.6889648.6647949 1.1503906 1.4255371 2.3452148 2.2814941 3.5395508.854248 1.1958008 1.802124 2.3920898 2.8280029 3.5512695.5233153.5747071.9881591 1.1372071 1.7354735 1.7954103z"/></g></g></svg>