<svg id="Layer_1" enable-background="new 0 0 135 135" height="512" viewBox="0 0 135 135" width="512" xmlns="http://www.w3.org/2000/svg"><g><g><path d="m121.0979996 115.5904465c-.1900024 4.6899414-5.7600098 6.8300781-9.5100098 8.6298828-9.9500122 4.7500076-21.6300049 6.5400467-32.5300293 4.7900467-6.8599854-1.0998611-13.4499512-3.689949-19.2799644-7.4599686-3.1400146-2.0200195-6.0700073-4.3798828-8.6900024-7.0400391-1.0100098-1.0200195-1.8099976-2.0400391-2.6400146-2.9399414 0-.0100098-.0100098-.0100098-.0100098-.0100098-1.4400024-1.5397949-2.9299927-2.7199707-5.5499878-2.9199219-3.6599731-.2900391-7.0899658 1.5500488-10.3099976 2.9699707-1.0399799.4499512-2.1099873.9199219-3.2399921 1.0200195-2.0599976.1799316-4.0499878-.9101563-5.460022-2.4299316-.1099854-.1201172-.2199707-.2399902-.3200073-.3601074-1.5999756-1.9199219-2.4799805-4.4899902-2.1300049-6.9699707.8600464-6.130127 6.5100098-8.0500488 11.7600117-8.5600586 3.3200073-.329834 8.7600098-1.4199219 9.0700073-5.5998535.3500366-4.75-4.6400146-11.4399414-9.5299683-10.6801758-4.7300434.7402344-9.6799946 3.4501953-14.4600239 1.4599609-3.5200195-1.4599609-5.960022-5.8898926-4.1099854-9.2099609 2.5700073-4.579834 9.6099854-3.7998047 13.6799927-5.5600586 2.3300171-.9897461 3.6799927-2.8198242 2.6799927-6.9299316-2.4799805-10.1899414-1.1900024-20.7800293 3.4600239-29.7897949 2.4499512-4.75 5.8399658-9.0700684 10.0899658-12.6601563 3.8300171-3.2199707 8.2000122-5.75 12.8699951-7.5200191 2.7300415-1.0400391 5.5599976-1.8198242 8.4500084-2.3300781 3.1699829-.5698242 9.3499756-1.9697266 12.3099976-.2998047 1.8900146 1.0698242 2.6799927 3.2797847 3.1099854 5.5200191.2600098 1.2797852.3900146 2.5600586.5500488 3.6398926.6499634 4.5100098-.8099976 6.369873-4.9800415 8.7099609-3.2799683 1.8300781-6.9899902 2.7199707-10.5299683 3.9602051-5.9999962 2.0998535-11.8200035 5.4199219-15.3699913 10.6699219-2.7000122 4-4.25 10.5100098-2.1900024 15.2900391.2299805.5498047.5100098 1.0698242.8399658 1.5698242 3.0800171 4.5700684 9.2900391.1201172 14.2200317.4199219 2.8599815.1801758 8.8499718 2.6401367 7.8999596 6.4802246-.8699951 3.5300293-8.5599937 5.1799316-11.4499474 6.4499512-1.0400391.4499512-2.1100464.9199219-2.9000244 1.7399902-2.6199951 2.7299805-1.1199951 8.4599609.7700195 11.2199707 3.0299683 4.4399414 7.1799889 1.0900879 11.1599693-.8798828.9799805-.4799805 2.039978-.920166 3.1199951-1.1901855 1.6799927-.4199219 3.4000244-.4299316 4.8900146.3901367 1.9799805 1.079834 2.9799805 3.3498535 3.4799805 5.5397949.2999878 1.3400879.4700317 2.7802734.0100098 4.0800781-.4199829 1.2099609-1.3499756 2.1899414-2.3400269 3.0200195-1.8499756 1.5300293-6.1899414 2.8601074-8.6599731 4.7299805-.7600098.5700684-1.3400269 1.1899414-1.6199951 1.880127-1.4199829 3.4799805 4.5599976 8.329834 7.3400269 9.7399902 8.5299683 4.3198242 19.6299438-.5900879 28.0099487-3.0900879 2.8400269-.8400879 7.3400269-2.4799805 10.5700073-1.6398926.7200317.1799316 1.3699951.4799805 1.9299927.9399414 2.8400269 2.3398438 5.7000122 7.459961 5.5400391 11.209961z" fill="#f2ac5f"/></g><g><path d="m80.1354828 10.7105637c-12.289978.1999512-22.6799927 7.1699219-31.4899902 15.4799805-4.4699707 4.2199707-8.7399902 8.7700195-11.5499878 14.2900391-3.0599976 6.0097656-4 12.9099121-4.8699951 19.5200195-.3900146 2.9199219-2.7299805 4.5-5.0599976 4.7197266 2.3300171-.9897461 3.6799927-2.8198242 2.6799927-6.9299316-2.4799805-10.1899414-1.1900024-20.7800293 3.460022-29.7897949 2.5099487-3.1901855 5.3499756-6.130127 8.2699585-8.880127 4.4899902-4.2299805 9.4000244-8.1599121 14.6900024-11.3000488 2.7300415-1.0400391 5.5599976-1.8198242 8.4500122-2.3300781 3.1699829-.5698242 9.3499756-1.9697266 12.3099976-.2998047 1.8900146 1.0698245 2.6799926 3.279785 3.1099853 5.5200194z" fill="#ffc388"/></g><g><path d="m121.0955048 115.5904465c-.1900024 4.6899414-5.7600098 6.8300781-9.5100098 8.6298828-9.9500122 4.7500076-21.6300049 6.5400467-32.5299683 4.7900467-6.8600464-1.0998611-13.4500122-3.689949-19.2800293-7.4599686.7399902-.4799805 1.7000122-.7299805 2.8800049-.6098633.4700317.0400391.960022.0698242 1.4400024.119873-3.6900024-1.6799316-7.2199707-3.75-10.5100098-6.1599121-1.6400146-1.1999512-3.2600098-2.5900879-5.1400146-3.3300781 0-.0100098-.0099487-.0100098-.0099487-.0100098-1.4400024-1.5397949-2.9300537-2.7199707-5.5500488-2.9199219-3.6599731-.2900391-7.0899658 1.5500488-10.3099976 2.9699707-1.039978.4499512-2.1099854.9199219-3.2399902 1.0200195-2.0599976.1799316-4.0499878-.9101563-5.4599609-2.4299316 5.2699585-4.0800781 11.3499756-7.3701172 17.7299805-8.6901855 9.9099731-2.0400391 15.4899902 4.5500488 23.4699707 8.9301758 8.9000244 4.8898926 19.4700317 6.869873 29.4700317 4.7900391 4.9199829-1.0300293 17.25-5.2402344 19.0800171-11.7900391.7199707.1799316 1.3699951.4799805 1.9299927.9399414 2.8399658 2.3398438 5.6999511 7.459961 5.539978 11.209961z" fill="#f2963b"/></g><g><path d="m80.3254852 88.8004074c-.4199829 1.2099609-1.3499756 2.1899414-2.3399658 3.0200195-1.8500366 1.5300293-6.1900024 2.8601074-8.6600342 4.7299805-.7099609-2-.2600098-4.3498535 2.1300049-5.6999512 5.5100098-3.0998535 3.0700073-7.880127.4899902-12.0600586 1.6800537-.4199219 3.4000244-.4299316 4.8900146.3901367 1.9799805 1.079834 2.9799805 3.3498535 3.4799805 5.5397949.3000489 1.340088.4700318 2.7802735.0100098 4.0800782z" fill="#f2963b"/></g><path d="m27.7014122 63.0230675c-.7544556.4206543-1.7714233.6948242-2.8284912.9211426-2.1341553.4611855-4.5067139.6872597-6.9528809 1.5222206-1.2127686.4287109-2.4835205 1.0119629-3.5687256 1.9946289-1.0697632.9677734-1.9468384 2.2363281-2.3164673 3.7746582-.3314877 1.5131836-.1490479 3.0585938.3635254 4.3884277 2.830842 7.3106079 9.7233124 6.8755875 17.1897583 4.9077148 3.0845985-.8253632 6.5308533-2.0834579 9.6934814 3.6853027.493042.8730469.8602905 1.8156738 1.0384521 2.7348633.1832886.9221191.1809692 1.8237305-.0540771 2.3972168-.4378052 1.2172852-2.2600098 2.1860352-4.2706909 2.6376953-1.0148315.2436523-2.0457153.3950195-3.1607056.5019531-1.2146606.1174316-2.4370728.3166504-3.6559448.6188965-10.6709499 2.685379-12.1093063 12.7620544-6.5253296 18.5827637.9472046.9714355 2.0796509 1.7907715 3.4174194 2.3234863 5.7653809 2.3756027 10.2763481-3.7359009 16.335144-3.4360352 4.78899.1874084 3.9738464 3.6750793 13.704834 10.8818359 15.782795 11.5664825 35.7981224 13.0730438 53.3401527 5.9145508 1.4082031-.5500488 2.8318481-1.2485352 4.0998535-1.833252 4.5961838-2.1454315 9.8040924-4.9417648 9.5742188-10.4370117-.0315552-1.7565918-.4905396-3.2709961-1.027832-4.7038574-.5546875-1.4255371-1.2679443-2.7338867-2.088501-3.9694824-4.1683578-6.2226563-8.0628433-6.1884537-15.9671631-3.7580566-4.8527832 1.4291992-9.4219971 3.15625-13.7977905 4.2070313-16.0917587 3.9597168-21.3873901-6.3563232-20.6994019-7.7758789.1424561-.3239746.6980591-.8701172 1.3812866-1.3146973 1.3873901-.9265137 3.1287231-1.6757813 4.8532715-2.5063477 4.7320786-2.2904053 7.4657974-5.0301132 6.5144653-10.2456055-.3726807-1.8925781-.9666748-3.7871094-2.2653809-5.4887695-.6439209-.8364258-1.505127-1.598877-2.5049438-2.0900879-.991394-.4995117-2.0787354-.7424316-3.0912476-.7749023-4.0807495-.0310059-6.9838867 2.045166-9.4417725 3.3085938-2.1015701 1.0999985-4.0368156 2.0485764-5.5078773.3696289-.6387329-.7265625-1.1918335-1.8078613-1.5697632-2.855957-.3846436-1.0605469-.6353149-2.1501465-.7142334-3.1777344-.178009-2.5883942.6906586-3.6128235 1.9465942-4.324707.3980713-.220459.8643799-.4333496 1.3431396-.6442871.427124-.1835938.8956909-.3620605 1.3778076-.5344238.9912109-.3540039 1.956604-.6984863 2.8967934-1.0341797 1.9105225-.7233887 3.7537842-1.4672852 5.4335938-2.6787109.8242798-.6228027 1.6522217-1.3808632 2.1798706-2.498539.1104126-.2912598.2301025-.5861816.3016968-.8781738.0464478-.2927246.0845947-.5859375.1142578-.8754883.0009155-.59375-.0717163-1.182373-.2680664-1.7128906-.3809204-1.0625-1.0393677-1.8395996-1.6950073-2.4519043-.6712036-.5959473-1.3690796-1.041748-2.0579834-1.4191895-1.3903198-.7241211-2.7419434-1.1733398-4.0946655-1.425293-1.3998451-.2719727-2.7496376-.1262207-3.854557.0693359-1.1295776.1999512-2.1029663.4824219-2.9879761.7290039-1.7630005.5029297-3.1864014.9084473-4.3374634.9921875-1.1519165.0991211-1.9887695-.0952148-2.6043091-.4182129-1.1863403-.7241211-1.6716919-1.5893555-2.0092773-1.9179688-.3249512-.3657227-.4695435-.3786621-.6005249-.3210449-.1261597.0554199-.2387695.1677246-.1343994.6865234.0556641.2583008.1679688.6193848.4077148 1.105957.2719727.4772949.6636963 1.1350098 1.4691162 1.7734375.8200073.6191406 2.0933228 1.0383301 3.5389404 1.03125 1.4528198.017334 3.0426025-.331543 4.8231812-.7231445 1.7723389-.3676758 3.796875-.9040527 5.786808-.4660645 1.0498657.2375488 2.1991577.670166 3.2705688 1.279541.5279541.3137207 1.0386353.6726074 1.4717407 1.0817871.4160156.4145508.7411499.8735352.8791504 1.3134766.2940674.8908691-.0942993 1.7133789-1.3624268 2.6003418-1.2338257.8547363-2.9185791 1.5329628-4.7338295 2.1667519-.9383545.3139648-1.9017944.6362305-2.8910522.967041-.5076904.1711426-1.0359497.3579102-1.6010742.5893555-4.6035957 1.9364929-6.9236679 5.3322601-4.5252686 12.2697754 2.3629379 6.5612717 6.1488724 7.3544312 11.9699745 4.5048828 1.3488159-.6967773 2.6257324-1.4472656 3.8761597-1.9733887 1.2592773-.5307617 2.5884399-.8881836 3.7573853-.8395996 1.1680298.0646973 2.0713501.5063477 2.8069458 1.4692383.7373657.9567871 1.2380371 2.3867188 1.5093994 3.8862305.6067505 3.3722992-1.3212891 4.639328-4.4707642 6.1240234-1.6558838.7963867-3.4716187 1.527832-5.3516235 2.7521973-.9179688.6391602-1.9622192 1.3730469-2.7246704 2.8391113-.208252.3417969-.2802734.7758789-.3942871 1.1726074-.1029053.4052734-.0768433.8039551-.0938721 1.2089844.0167236.3891602.0966797.7463379.1598511 1.1191406.0916748.3422852.2094727.6623535.3231812.9921875 1.939476 4.6587906 8.3535233 10.3019638 17.9237671 9.9194336 2.4385376-.0942383 4.8396606-.5095215 7.1994019-1.0744629 4.7467651-1.1345215 9.2722168-2.8474121 14.050415-4.2390137 7.5103912-2.2817535 8.8934479-1.651619 11.4188843 2.1625977 1.3103638 1.9650879 2.3618774 4.3967285 2.4237061 6.4924316.056839 3.3541183-4.0052414 5.175766-7.2376709 6.6782227-1.3682251.6311035-2.5742188 1.2260742-3.9141235 1.7504883-15.9552612 6.5047607-34.5375748 5.4886017-49.4476967-5.3659668-7.9023476-5.8153992-8.1494675-8.8175888-12.0124512-10.6723633-1.2564087-.6052246-2.6217041-.8547363-3.902832-.9038086-8.3605042-.319809-12.4911957 7.1198654-17.1578979 2.3574219-4.1031208-4.1761856-2.8616791-11.7695923 7.8226929-12.8588867 1.1744385-.1196289 2.4293213-.3044434 3.6563721-.609375 1.2333374-.3125 2.4886475-.7224121 3.7139282-1.4562988 1.1977539-.7197266 2.4584351-1.8344727 3.0549316-3.4160156.1290283-.3903809.2827759-.7824707.3240967-1.1821289.0736084-.4055176.1153564-.7988281.1004639-1.1535645.0234985-.7419434-.0783081-1.4416504-.2149048-2.1201172-.2797852-1.3581543-.7874146-2.6008301-1.4393921-3.748291-4.0465851-7.0632553-8.4889832-6.7447739-13.7351685-5.3046875-2.2645264.6274414-4.4091797 1.2575684-6.4260864 1.3083496-4.8106441.1297836-7.6345196-3.6180344-6.9762573-6.5053711.1634521-.7302246.6401978-1.4726563 1.2744141-2.0595703.6292725-.5930176 1.4996948-1.0234375 2.4549561-1.3691406 1.9362183-.6933594 4.194397-.9545898 6.5534668-1.470459 1.1824341-.2731934 2.4224243-.5776367 3.6818237-1.2746582 1.2546997-.6325684 2.4918213-1.977787 2.8981934-3.4882851.4138184-1.4941406.281189-2.8823242.0479736-4.1313477-5.8638515-27.6779881 9.8144073-47.006916 35.3256264-51.927002 8.3516998-1.5702 10.98069-1.0852809 12.1973267 4.1147466.1907959.8068848.3256226 1.6398926.4473877 2.484375.1148071.8393555.2571411 1.737793.3378296 2.4973145.3586578 3.6170797-1.2517776 4.9929609-4.3930664 6.8483877-2.6177368 1.5300293-5.4936523 2.4020996-8.2384644 3.3210449-5.5534706 1.7600098-10.427372 4.2392578-13.9263344 7.4018555-5.9281998 5.3399086-7.7662239 12.5392838-6.5814819 17.6113281.0893555.4238281.1884766.7912598.3027954 1.1003418.0996094.3127441.1939697.5703125.2959595.7683105.1875.4008789.2982788.5964355.3305664.5825195.0911865-.0354004-.2773438-.8642578-.5194702-2.5246582-.7702293-5.124485 1.2743759-11.7786331 6.9667969-16.6242676 3.4262085-2.9228516 8.1243286-5.190918 13.6151772-6.8059082 2.7419434-.8583984 5.7421875-1.6877441 8.626709-3.2954102 3.7532272-2.1634865 5.8225403-4.0248337 5.4554443-8.5434561-.0843506-.9321289-.2020264-1.7294922-.3061523-2.6044922-.1107788-.8679199-.2384033-1.7602539-.4369507-2.666748-1.6165619-7.3099847-6.4049454-7.3182249-14.5829468-5.9052739-1.8646851.3322754-3.8300819.6550293-5.7747841 1.1660156-21.7811623 5.5784945-37.8326912 25.6938419-32.1992188 53.5776367.1836548.979248.2102661 1.934082-.0014648 2.6540527-.2285158.7006839-.642151 1.193848-1.4237062 1.6120609z" fill="#202020"/></g></svg>