<svg id="Layer_1" enable-background="new 0 0 135 135" height="512" viewBox="0 0 135 135" width="512" xmlns="http://www.w3.org/2000/svg"><g><g><path d="m21.6229973 127.4843903c-2.3967056 3.1159821-6.6169996 4.8978424-9.9515762 3.1053009-3.5325689-1.8963623-4.6788001-6.7107544-5.3040051-10.9517212-.3230972-2.2199554-.6044078-4.418541-.8441229-6.6171265-1.6047359-14.6619873-1.3129311-28.9377823.9483022-43.8394165.6981564-4.5849228 1.9590611-9.7636337 5.7625098-11.8685989 3.7409925-2.073925 6.6691542-.6563721 8.8991575 2.9694405 2.84478 4.6062889 4.5433292 12.7864952 5.3040066 21.935482 1.500555 18.0588302-.625206 39.8584594-4.8142719 45.2666397z" fill="#009b8c"/></g><g><path d="m130.1422272 102.7672195c.3230286 9.7534637 2.0320129 22.7892761-8.9929123 26.9473038-4.3974228 1.6566925-9.2221222 1.6775665-13.9217834 1.6673889-14.4532471-.0208588-28.9064941-.0315552-43.3597374-.0417328-2.1258278-.0106812-4.2620163-.0106812-6.3877792-.0106812-6.6691551-.0101776-13.8071785 1.3442841-19.4029884-2.9908142-4.9393768-3.8242416-5.9814262-9.4720764-6.2419395-15.3386993-.031229-.5418854-.0520916-1.0944595-.062521-1.6358414-.2605133-10.2332687-.2292213-20.4660263.0938129-30.6886063.2500801-7.7110825-1.9277706-18.3503838 5.5853767-23.1128807 7.982151-5.0850868 22.1956787-4.2725143 31.2823982-4.7518158 12.8067856-.6563683 25.6344376-.9377441 38.4725113-.8334389 5.1060791.0417252 10.7123184.3749962 15.1618347 2.5425453 1.1045685.5210266 2.1466217 1.1773949 3.0844955 1.9589348.6460648.5525703 1.2609024 1.1672173 1.8131561 1.8551369 3.6784744 4.5640602 3.5221329 10.1391335 3.1574478 15.5890465-.0729523 1.2608414-.1667633 2.5216827-.2292786 3.7514801-.4064178 8.2738267-.3230437 16.8081666-.0520934 25.0926743z" fill="#00a79d"/></g><g><path d="m56.1772842 53.019455c-1.6072311-14.1166-1.9112129-28.3809814-.9068336-42.5531158.0710831-1.0030088.1557579-2.0327396.5936203-2.9381518 1.2533951-2.591785 4.6722946-3.0853434 7.550602-3.221653 12.8306961-.6076304 25.6781311-.862399 38.5228576-.7639202 2.4888382.0190816 5.276123.1771138 6.964386 2.0038621 1.3526993 1.4636612 1.6070862 3.6014452 1.7769394 5.5862007 1.1681595 13.6502895 1.458313 27.3754864.8680801 41.0628662" fill="#e6e7e8"/></g><g><path d="m115.5639343 76.9240494c-1.594368 1.9380722-4.7517471 3.1571884-8.0238037 3.699585-3.2720566.5413818-6.689949.4894791-10.066185.4375839-13.9947433-.2396545-27.9999084-.4793091-41.9947166-.7194672-1.5734444-.0203552-3.5742264-.208107-5.5124283-.5830994-4.720459-.9173889-9.0449944-2.9490891-5.8563194-6.5128174 3.5742264-4.0018234 15.0576515-4.6164703 21.1536255-4.5437088 11.5980377.1251678 23.3524017-.0727615 34.9608078.5525665 1.9069672.0936203 3.8035126.2187881 5.7000504.3648224 4.189064.3332748 9.1388092 1.2191162 10.3475571 3.8552856.5314559 1.1356736.1563338 2.3970185-.7085878 3.4492494z" fill="#a7a9ac"/></g><g><path d="m111.1977386 118.4498901c-.7815399.5103378-1.6255951.9067078-2.500946 1.2399826-2.8656387 1.0837708-6.064743 1.4277267-9.0137024.6253281-.7607422-.2086105-1.4693298-.5001602-2.1153946-.8649826-6.4294434-3.6161423-7.7945251-14.4009628-2.8343506-19.7887955 4.8559265-5.2621536 11.4729919-4.5325165 16.0892715-.5210266 1.5526505 1.3442841 2.8864365 3.0533905 3.8451691 5.0331879 2.3446198 4.8143997 1.0107651 11.3480835-3.470047 14.2763061z" fill="#a7a9ac"/></g><g><path d="m97.5676956 119.4502182c-6.4294434-3.6161423-7.7945251-14.4009628-2.8343506-19.7887955 4.8559265-5.2621536 11.4729919-4.5325165 16.0892715-.5210266-9.1700973 2.1782303-14.7241897 11.0041199-13.2549209 20.3098221z" fill="#bbbbbc"/></g><g><path d="m100.2249146 69.2546921c-.7919083 1.3234253-2.2091446 2.2296219-4.2723846 2.1151428-9.6389771-.5210266-19.8510666.3856812-29.312912 2.292717-5.1893921 1.0420456-11.7439346 2.7715073-16.6728172 6.0960999-4.720459-.9173889-9.0449944-2.9490891-5.8563194-6.5128174 3.5742264-4.0018234 15.0576515-4.6164703 21.1536255-4.5437088 11.5980376.1251678 23.3524016-.0727616 34.9608077.5525665z" fill="#bbbbbc"/></g><g><path d="m122.3684998 54.5199471c-.5001678 1.9797974-2.0841064 3.4802895-4.7725525 3.126152-10.5143204-1.396183-21.101532-1.6984177-31.6992416-1.3025627-9.8577652.3648186-20.0594864.7398148-29.677597 3.0742569-4.1682053 1.0105019-8.5656281 2.3339272-12.1086273 4.8454361-4.0118752 2.8340912-4.9184532 6.8984985-5.8563232 11.4625626-2.188282 10.6291275-2.7406006 21.4663544-2.1153946 32.2827225.1771927 3.0844345-1.9382019 4.7518158-4.3036766 4.9914703-.031229-.5418854-.0520916-1.0944595-.062521-1.6358414-.2605133-10.2332687-.2292213-20.4660263.0938129-30.6886063.2500801-7.7110825-1.9277706-18.3503838 5.5853767-23.1128807 7.982151-5.0850868 22.1956787-4.2725143 31.2823982-4.7518158 12.8067856-.6563683 25.6344376-.9377441 38.4725113-.8334389 5.106079.0417252 10.7123184.3749962 15.1618347 2.5425454z" fill="#04baa8"/></g><g><path d="m121.1493149 129.7145233c-4.3974228 1.6566925-9.2221222 1.6775665-13.9217834 1.6673889-14.4532471-.0208588-28.9064941-.0315552-43.3597374-.0417328.7293816-.510849 1.6463966-.8339386 2.7405968-.8858337 9.097084-.4167175 18.1733704-1.1982574 27.1870728-2.5216827 4.8036575-.7052994 9.5496292-1.4753036 14.2889938-2.5153809 4.1405258-.9086609 8.4940338-2.203064 11.4697266-5.4067993 4.0032806-4.3100662 4.4585495-10.6966858 5.0911636-16.2567139.779068-6.8472214.1088562-13.7452469-.1125031-20.6038818-.0761642-2.3599243-.4292831-4.9979019.8028717-7.1439438.4839706-.8429413 1.2446365-1.4407501 2.1415405-1.7970657.2414474-.0959244 2.9650497-.6079102 2.9463425-.2858124-.0729523 1.2608414-.1667633 2.5216827-.2292786 3.7514801-.4064178 8.2738266-.3230438 16.8081665-.0520935 25.0926743.3230285 9.7534637 2.0320129 22.7892761-8.9929123 26.9473037z" fill="#029687"/></g><g><path d="m12.1967058 76.3820496c-1.6274719 4.4764099-2.7397108 9.1246185-3.2982769 13.6881866-.3395233 2.7739639-.4801388 5.5727539-.4153814 8.3667526.0503798 2.1736603.6510782 4.2631607-1.018342 6.0758133-3.3237028 3.6088715-2.8432021-3.5634308-2.8887801-5.1823502-.0938201-3.3239746-.086884-6.6507492.0211787-9.9742966.2196083-6.7542419.8572497-13.4943161 1.8744917-20.174736.6981564-4.5849228 1.9590616-9.7636299 5.7625093-11.8685913 3.7409925-2.073925 6.6691542-.6563721 8.8991575 2.9694405-3.8018722 4.6913185-6.8093357 10.2487908-8.9365568 16.0997811z" fill="#04baa8"/></g><g fill="#202020"><path d="m68.3353119 21.6679306c.7070313.6132813 1.7305908 1.2524414 3.0866089 1.4946289 1.3702393.2573242 2.862854-.0439453 4.1690063-.4536133 1.3098145-.4125977 2.5345459-.9086914 3.6069946-1.0732422.5410156-.0830078.99823-.0898438 1.4702759-.0043945.4819336.0825195 1.0105591.2490234 1.5810547.4599609 1.1401978.4121094 2.446228 1.027832 4.031189 1.2387695.7764282.1054688 1.6539917.0708008 2.3580933-.0776367.7055664-.1435547 1.2770386-.340332 1.7549438-.5063477 3.2052612-1.1533203 5.6677246-1.6191406 7.5723877-1.9418945 1.897644-.3066406 3.2017822-.4609375 4.0918579-.6333008 1.7832031-.3251953 1.9107056-.7836914 1.9476318-1.3583984.0357666-.5463867.0185547-1.1049805-1.9050293-1.5209961-.9619751-.1967773-2.4094238-.3422852-4.5496216-.2167969-2.119873.1342773-5.0061646.5678711-8.5054932 1.8286133-.4419556.1552734-.8619385.2978516-1.2354736.3833008-.3737183.0834961-.668396.1049805-1.088501.078125-.8236084-.0493164-1.9356689-.4399414-3.3256836-.8466797-.6975708-.1958008-1.4819946-.3862305-2.3539429-.4482422-.8811646-.0712891-1.8046875.0527344-2.5889282.2719727-1.5894165.4501953-2.8052368 1.1689453-3.8995972 1.6806641-1.0872192.5175781-2.0413208.8583984-2.9145508.8735352-.8815308.027832-1.7360229-.2329102-2.4278564-.5498047-1.3967896-.6499023-2.1878052-1.3979492-2.4224854-1.206543-.2022704.1416016.1327516 1.2592773 1.5471193 2.5283203z"/><path d="m67.8143158 30.5253525c.7070313.6132813 1.7305298 1.2524414 3.0865479 1.4946289 1.3702393.2573242 2.862915-.0439453 4.1690674-.4536133 1.3098145-.4125977 2.5345459-.9086914 3.6069336-1.0732422.5410156-.0830078.99823-.0898438 1.4702759-.0043945.4819946.0825195 1.0106201.2490234 1.5810547.4599609 1.1402588.4121094 2.4462891 1.027832 4.031189 1.2387695.7764282.1054688 1.6539917.0708008 2.3580933-.0776367.7056274-.1435547 1.2770996-.340332 1.7550049-.5063477 3.2052612-1.1533203 5.6676636-1.6191406 7.5723877-1.9418945 1.897644-.3066406 3.2017822-.4609375 4.0917969-.6333008 1.7832031-.3251953 1.9107666-.7836914 1.9476929-1.3583984.0357666-.5463867.0185547-1.1049805-1.9050903-1.5209961-.9619141-.1967773-2.4094238-.3422852-4.5496216-.2167969-2.119812.1342773-5.0061035.5678711-8.5054932 1.8286133-.4418945.1552734-.8619385.2978516-1.2354736.3833008-.3736572.0834961-.668396.1054688-1.088501.078125-.8235474-.0493164-1.9356689-.4399414-3.3256836-.8466797-.6975098-.1958008-1.4819946-.3862305-2.3539429-.4482422-.8811646-.0712891-1.8046875.0527344-2.5888672.2719727-1.5894165.4501953-2.8052368 1.1689453-3.8996582 1.6806641-1.0871582.5175781-2.0413208.8583984-2.9144897.8735352-.8815308.027832-1.7360229-.2329102-2.4279175-.5498047-1.3967896-.6499023-2.1877441-1.3979492-2.4224243-1.206543-.2023318.1416015.1327512 1.2592773 1.5471189 2.5283203z"/><path d="m67.2932587 39.3827744c.7070313.6132813 1.7305908 1.2524414 3.0866089 1.4946289 1.3702393.2573242 2.862854-.0439453 4.1690063-.4536133 1.3098145-.4125977 2.5345459-.9086914 3.6069946-1.0732422.5410156-.0830078.99823-.0898438 1.4702759-.0043945.4819336.0825195 1.0105591.2490234 1.5810547.4599609 1.1401978.4121094 2.446228 1.027832 4.031189 1.2387695.7764282.1054688 1.6539917.0708008 2.3580933-.0776367.7055664-.1435547 1.2770386-.340332 1.7549438-.5063477 3.2052612-1.1533203 5.6677246-1.6191406 7.5723877-1.9418945 1.897644-.3066406 3.2017822-.4609375 4.0918579-.6333008 1.7832031-.3251953 1.9107056-.7836914 1.9476318-1.3583984.0357666-.5463867.0185547-1.1049805-1.9050293-1.5209961-.9619751-.1967773-2.4094238-.3422852-4.5496216-.2167969-2.119873.1342773-5.0061646.5678711-8.5054932 1.8286133-.4419556.1552734-.8619385.2978516-1.2354736.3833008-.3737183.0834961-.668396.1054688-1.088501.078125-.8236084-.0493164-1.9356689-.4399414-3.3256836-.8466797-.6975708-.1958008-1.4819946-.3862305-2.3539429-.4482422-.8811646-.0712891-1.8046875.0527344-2.5889282.2719727-1.5894165.4501953-2.8052368 1.1689453-3.8995972 1.6806641-1.0872192.5175781-2.0413208.8583984-2.9145508.8735352-.8815308.027832-1.7359619-.2329102-2.4278564-.5498047-1.3967896-.6499023-2.1878052-1.3979492-2.4224854-1.206543-.2022704.1416015.1327516 1.2592773 1.5471193 2.5283203z"/><path d="m22.7134266 129.3315125c.3052368-.3540039.5983887-.7172852.8445435-1.1386719 2.9427357-4.9165268 4.02742-13.3049774 4.524231-18.9838943.383728-4.4018555.4779663-8.0913086.4710083-11.1811523.0050049-3.0893555-.1116943-5.5786133-.2531128-7.5820313-.2844238-4.0078125-.6743774-6.0727539-.9951782-7.1318359-.3185425-1.059082-.5909424-1.1147461-.8710938-1.0917969-.2802734.0229492-.5415039.1264648-.7097778 1.2094727-.1658325 1.0825195-.2168579 3.1425781-.3027954 7.0844727-.0437012 1.9707031-.0942993 4.4130859-.2441406 7.4345703-.1376514 3.0200195-.3552246 6.6254883-.8291016 10.8886719-.9018555 8.1002197-3.2877121 23.6193314-11.3873901 20.1074295-1.105835-.4550781-2.0692139-1.4834061-2.7765503-2.9213943-2.6400862-5.2531891-3.6604242-23.4226761-3.776855-29.2832031-.1816688-8.0298462.5476737-27.0515976 3.0625606-33.7397461.4416504-1.1904297 1.0340576-2.2602539 1.7655029-3.1323242.7191772-.8867188 1.6453247-1.4741211 2.6787109-1.8955078 1.0106812-.4174805 1.9919434-.4536133 2.8989258-.1713867.9003906.3227539 1.7397461.9677734 2.4370117 1.7817383 1.4029541 1.6445313 2.3236694 3.6972656 3.069519 5.6162109 1.70788 4.5715637 2.5473366 9.2158966 3.4025879 13.9301758.3490601 1.9951172.5664673 3.1030273.711792 3.0908203.1347656-.0112305.1911621-1.1420898.1040039-3.1811523-.1002197-2.0371094-.328125-4.9863281-.967041-8.6044922-.7358074-4.076683-2.0296688-9.007843-4.5628662-12.2983398-.8140869-1.0356445-1.9084473-2.0371094-3.359314-2.6235352-1.4655762-.5625-3.1950684-.5097656-4.616333.0239258-1.4001465.4882813-2.8117676 1.3334961-3.8424072 2.5112305-1.0462036 1.1547852-1.823669 2.4985352-2.3926997 3.8803711-2.9329028 7.0889664-4.1834307 25.8861008-4.1421509 34.859375.0127923 6.8498306.8342335 24.917923 3.8890991 31.0620117.9584351 1.9682693 2.5829463 3.9116287 4.827209 4.8393631 2.253479.9633789 4.6899414.7231445 6.5918579-.0146484 1.9418334-.7363285 3.5051879-1.947266 4.7502441-3.3447269z"/><path d="m132.0100555 71.1645126c.0596313-3.9741211-.4937744-7.1625977-1.4912109-9.3676758-.9490356-2.2319336-2.1035156-3.4648438-2.8711548-4.2495117-.8172607-.7612305-1.3540039-1.0444336-1.6696167-1.1533203-.3202515-.1035156-.4385376-.019043-.5283813.0874023-.2102051.2348633-.1460571.4711914.9904175 2.0927734.5071411.8510742 1.3288574 2.0458984 1.9471436 4.0234375.6625366 1.9589844.9736938 4.7128906.7446289 8.472168-1.8624649 34.8565598-.2194977 34.3585739-.6756592 42.715332-.1189575 2.1894531-.3883057 4.4321289-1.0612793 6.550293-1.6082077 5.0812683-4.9996185 7.3406906-10.0863037 8.39991-2.5957031.5170898-5.4386597.6293945-8.4628296.6337891-10.8867416-.0243073-8.1955032-.0181274-30.4605103-.0561523-4.072937-.0014648-8.4376221-.0029297-13.041687-.0048828-2.3019981.0014648-4.6638756.003418-7.0790367.0048828-2.4625854-.0234375-5.0045166.1425781-7.4359131.1987305-2.4398193.0493164-4.8613281-.0126953-7.0870972-.5932617-1.1176147-.2753906-2.1779785-.6865234-3.1504517-1.2597733-.9692383-.5585938-1.9076538-1.2607422-2.6986694-2.1040039-1.6010742-1.6572266-2.7127075-3.7861328-3.3155518-6.2158203-.6200562-2.4238281-.8325195-5.0678711-.9190674-7.7963867-.1751709-5.5380859-.2609863-11.175293-.2615356-16.8354492.0002441-2.8305664.0216064-5.6689453.0674438-8.5083008l.0845947-4.2583008c.0440674-1.3901367.0507202-2.9282227.0124512-4.3544922-.0731201-2.8710938-.2487183-5.6743164-.0774536-8.3618164.3904228-9.4417038 5.9945259-12.3507805 15.0934448-13.8310547 5.190918-.824707 10.4230957-.9477539 15.5020103-1.1254883 7.0678558-.206398 16.7891922-1.1854858 39.4188843-1.519043 3.5341187-.0454102 6.7114868-.1235352 9.4749756.078125 2.7662964.1787109 5.118103.5917969 6.9753418 1.1513672 1.8639526.543457 3.2233276 1.2226563 4.1082153 1.7397461.8907471.5107422 1.3393555.8300781 1.3934937.7636719.0361938-.0410156-.3239136-.4692383-1.1638184-1.1113281-.8328857-.6469727-2.1832886-1.4775391-4.0771484-2.1704102-1.8867188-.7094727-4.302002-1.2680664-7.1276245-1.5795898-.2623291-.03125-.5448608-.0483398-.8139038-.074707.3191528-.8095703.6398315-2.6074219.9484253-6.5874023.2502441-3.5053711.4751587-8.706543.3518066-16.4047852-.0715332-3.8486328-.2259521-8.3212891-.5803223-13.5092764-.0960083-1.2963867-.1953735-2.6381836-.2982178-4.0263672-.1306152-1.4033203-.2310181-3.0356445-.9984131-4.8364258-.3847046-.8867188-1.0016479-1.8110352-1.824707-2.5219729-.819458-.7089844-1.7877197-1.2138672-2.734436-1.512207-1.9064941-.6064453-3.744873-.6254883-5.4432983-.6420898-7.3736572-.0551759-16.8626708.0600585-26.9348144.4804686-2.5170898.1201172-5.0714111.2421875-7.6392822.3647461-1.2843628.0737305-2.5721436.1474609-3.8604088.2211914-1.3447876.0854492-2.7436523.237793-4.1776733.6459961-1.4082031.4116211-2.9849243 1.1601565-4.0622559 2.6059573-.5282593.6987305-.8954468 1.5581055-1.0547485 2.3364258-.1730957.78125-.2142944 1.4960938-.2515259 2.137207-.1297607 2.5395508-.2331543 5.0424805-.2773438 7.4902334-.2026978 9.7905273.3290405 18.6445313 1.0200195 25.0087891.4677734 4.3183594.9736938 7.4912109 1.3335571 9.0791016-2.5068359.1142578-5.0568237.3071289-7.6433105.671875-10.765995 1.5726051-17.2943935 5.5258675-17.9131489 16.4594727-.2250366 2.956543-.0750122 5.8359375-.0426025 8.6484375.0172119 1.4174805-.0026855 2.7270508-.0655518 4.1831055l-.1373291 4.2851563c-.0802612 2.8569336-.1345825 5.7138672-.1662598 8.5639648-.0622559 5.7016602-.0336304 11.3671875.0915527 16.9628906.0673828 2.8305664.2511597 5.7382813.9625854 8.6318359.6824951 2.8837891 2.0980854 5.7568359 4.2139301 7.9633865 2.0635986 2.1953125 4.8427124 3.7988281 7.6610718 4.4897461 2.8214722.7460938 5.5837402.7988281 8.1593018.7661133 2.5975342-.0478516 4.9867554-.1958008 7.3560181-.1625977 2.4151611.0073242 4.7770386.0146484 7.0790367.0214844 4.6040039.0092773 8.968689.0175781 13.041626.0258789 23.1901855.0152283 18.7006073.0162811 30.4837036.0087891 3.1003418-.0170898 6.2093506-.1333008 9.2348022-.7485352 1.5123901-.3237305 2.9854126-.715332 4.4059448-1.3706055 7.1764526-3.039444 9.4187775-9.5849686 9.772583-17.3125076.309479-7.0381241-.5469511.797699-.2674559-42.7983399zm-75.9785728-28.477539c-.2020264-6.3549805-.2901611-15.1337891.276062-24.7885742.1350098-2.413085.3244629-4.8808584.5343018-7.3764639.0535278-.6157227.1149292-1.1679688.2346191-1.6235352.1139526-.4624023.2879639-.7866211.5352173-1.1000977.4780884-.609375 1.3273315-1.0581055 2.3712158-1.328125 1.0464478-.2661133 2.2229004-.3779297 3.4432983-.4204102 1.2806969-.0405273 2.5609703-.0810547 3.8378868-.1220703 2.5565186-.0644531 5.0996094-.128418 7.6055908-.1918945 10.0247804-.2124023 19.4577027-.2133789 26.7886964-.1586914 1.6439209.0019531 3.1060791.0761719 4.2160034.4379883 1.1173096.3764648 1.6973267.8920898 2.1116943 1.8071289.4177856.9267578.5761719 2.1992188.6918335 3.5375977.1137695 1.3701172.2236938 2.6943359.329895 3.9736328.4038696 5.119628.6358032 9.5341787.8088989 13.3344717.3267212 7.6020508.401123 12.75.5197754 16.2314453.107605 3.8481445.2891235 5.6586914.5275269 6.5175781-2.2589722-.15625-4.7250977-.1962891-7.3624268-.253418-20.4357147-.4034882-32.5510025.4466476-39.4860229.5146484-2.5093956.0390625-5.0805626.0634766-7.7012291.1713867.0087891-1.6142577-.1461182-4.8247069-.2828369-9.1625975z"/><path d="m117.2132416 71.995079c-1.067627-1.315918-2.251709-1.8129883-3.2160645-2.190918-1.9688721-.7055664-3.432312-.8120117-4.5435791-.9101563-1.1097412-.0673828-1.8639526-.0317383-2.3818359.0375977-1.0342407.1450195-1.1251831.4125977-1.1483765.690918-.0236206.2822266.0345459.5493164.9880371.8862305.4753418.1708984 1.1744385.362793 2.1734619.6318359.9794922.2866211 2.3291626.6108398 3.7872314 1.3144531.7171021.3413086 1.4515381.8393555 1.7993774 1.3881836.1658936.2890625.2466431.4946289.2122192.7558594-.0223389.2592773-.1470947.6088867-.4182739.9814453-.5496216.7514648-1.6400146 1.5166016-3.0175171 2.0839844-1.3907471.5703125-3.0514526.9912109-4.9226074 1.21875-3.7431641.4853516-8.4292603.1865234-13.9129639.0981445-38.3286934-.7327423-41.1952629-.0531464-46.2006798-2.2412109-.491333-.2246094-.9458618-.4902344-1.2230835-.7416992-.27771-.2680664-.3391724-.3999023-.3287964-.4467773-.0176392-.059082.0336304-.3549805.3084717-.730957.138855-.1816406.2879639-.3925781.4708252-.5405273 3.3332443-2.9202194 10.7366371-3.667366 15.2238159-3.9350586 2.604187-.1748047 5.1982384-.1416016 7.7954674-.1777344 10.3078003-.1396484 19.6015015-.3652344 26.3357544-.3530273 6.7323608-.0141602 10.9048462.1010742 10.9292603-.1918945.0236206-.2670898-4.1210938-.918457-10.8746338-1.3925781-6.7503052-.5004883-16.0974121-.7133789-26.3710327-.9423828-2.5473022-.0551758-5.2232018-.1787109-7.9531212-.081543-4.9356232.1417084-12.6040039.8039703-16.6455078 3.6987305-.3446655.2055664-.6643677.5336914-.9864502.824707-.3355103.2910156-.5980835.6225586-.8704224.9755859-.5172729.7045898-1.0633545 1.7060547-1.0299683 3.0048828.0150146.6318359.2111816 1.2753906.4991455 1.7758789.2806396.5302734.6359863.902832.9859619 1.2470703.7108765.65625 1.4329224 1.0561523 2.1379395 1.4033203 5.8447495 2.6465683 9.5107307 2.2711639 47.7293663 2.8344727 2.7427979.0239258 5.2942505.0458984 7.6679077.0664063 2.407959-.0083008 4.6953735-.1157227 6.8257446-.4365234 2.1386108-.3183594 4.1062622-.8647461 5.8514404-1.6582031 1.7333374-.8110352 3.3149414-1.8740234 4.3816528-3.4829102.5178223-.8056641.8779907-1.7768555.8753662-2.809082-.000061-.5112305-.0953979-1.0234375-.2684326-1.480957-.175781-.4643557-.4178464-.8305667-.6650998-1.1743167z"/><path d="m116.3612518 105.3866806c-.270874-.5253906-.5245972-.8466797-.75-1.0395508-.4326782-.3901367-.6847534-.2978516-.9382935-.1772461-.2536011.1210938-.4767456.2807617-.5199585.7988281-.0353394.5073242.0905151 1.3959961.1334839 3.0112305-.0077515.8085938-.0460815 1.8105469-.3161621 2.9975586-1.2200546 5.0913925-4.9881058 7.4703674-10.2171631 7.7329102-6.3172302.2544327-9.6779175-4.2606812-10.1054077-9.8657227-.754303-7.257309 5.2517471-13.3084641 12.6086426-11.121582 1.9232178.5849609 3.519043 1.6274414 4.7196045 2.6508789 2.4502563 2.0532227 3.3808594 3.9716797 3.6969604 3.7958984.1263428-.0610352.0016479-.574707-.3461304-1.4819336-.18396-.4467773-.484314-.9550781-.817627-1.5639648-.1849976-.2910156-.4070435-.5864258-.6348877-.9082031-.2207031-.3291016-.4816895-.6542969-.7863159-.9716797-1.1550903-1.315918-2.8126221-2.7236328-5.0446167-3.6577148-.5595093-.2270508-1.1361694-.4604492-1.7653198-.5913086-.3115845-.0712891-.6213989-.1743164-.9468994-.2177734-8.9643555-1.0556107-14.8964996 6.2523956-14.4304199 14.2705078.2916031 7.6233292 5.1488266 14.1084442 14.0724487 13.7080078 6.8999786-.4117355 12.4160004-4.2045288 13.3292847-11.2299805.1870117-1.5917969.043396-2.8803711-.156189-3.8837891-.2178954-1.0048828-.5029906-1.7348633-.7850341-2.2553711z"/><path d="m49.5673714 94.5854111c-2.1672974.0146484-6.8121948.9580078-6.8045044 2.0830078.0076294 1.1245117 4.664978 2.0043945 6.8322754 1.9892578 3.9552002-.0268555 4.0317383-.9389648 4.0240479-2.0634766-.0076295-1.1245117-.0965577-2.0356445-4.0518189-2.008789z"/><path d="m67.8032684 94.5854111c-2.1672974.0146484-6.812191.9580078-6.8045006 2.0830078.0076294 1.1245117 4.6649742 2.0043945 6.8322716 1.9892578 3.9552002-.0268555 4.0317383-.9389648 4.0240479-2.0634766s-.0965576-2.0356445-4.0518189-2.008789z"/><path d="m49.5673714 102.5312119c-2.1672974.0146484-6.8121948.9580078-6.8045044 2.0825195.0076294 1.1245117 4.664978 2.0043945 6.8322754 1.9897461 3.9552002-.0268555 4.0317383-.9389648 4.0240479-2.0634766-.0076295-1.125-.0965577-2.0356445-4.0518189-2.008789z"/><path d="m67.8032684 102.5312119c-2.1672974.0146484-6.812191.9580078-6.8045006 2.0825195.0076294 1.1245117 4.6649742 2.0043945 6.8322716 1.9897461 3.9552002-.0268555 4.0317383-.9389648 4.0240479-2.0634766-.0076904-1.125-.0965576-2.0356445-4.0518189-2.008789z"/><path d="m49.5673714 110.4765244c-2.1672974.0151367-6.8121948.9584961-6.8045044 2.0830078.0076294 1.1245117 4.664978 2.0043945 6.8322754 1.9897461 3.9552002-.0268555 4.0317383-.9394531 4.0240479-2.0634766-.0076295-1.125-.0965577-2.0361328-4.0518189-2.0092773z"/><path d="m67.8032684 110.4765244c-2.1672974.0151367-6.812191.9584961-6.8045006 2.0830078.0076294 1.1245117 4.6649742 2.0043945 6.8322716 1.9897461 3.9552002-.0268555 4.0317383-.9394531 4.0240479-2.0634766-.0076904-1.125-.0965576-2.0361328-4.0518189-2.0092773z"/><path d="m49.5673714 118.4223251c-2.1672974.0146484-6.8121948.9580078-6.8045044 2.0830078.0076294 1.1245117 4.664978 2.0043945 6.8322754 1.9892578 3.9552002-.0268555 4.0317383-.9389648 4.0240479-2.0634766-.0076295-1.1245116-.0965577-2.0356444-4.0518189-2.008789z"/><path d="m67.8032684 118.4223251c-2.1672974.0146484-6.812191.9580078-6.8045006 2.0830078.0076294 1.1245117 4.6649742 2.0043945 6.8322716 1.9892578 3.9552002-.0268555 4.0317383-.9389648 4.0240479-2.0634766s-.0965576-2.0356444-4.0518189-2.008789z"/><path d="m79.6703339 96.0038681c-1.1245117 0-2.0361328 12.4448242-2.0361328 18.2436523 0 10.5825195.9116211 10.8037109 2.0361328 10.8037109 1.1247559 0 2.036377-.2211914 2.036377-10.8037109-.0000001-5.7988281-.9116212-18.2436523-2.036377-18.2436523z"/></g></g></svg>