<svg id="Layer_1" enable-background="new 0 0 135 135" height="512" viewBox="0 0 135 135" width="512" xmlns="http://www.w3.org/2000/svg"><g><g><path d="m119.8333359 67.8901291c0 31.0097656-24.4299927 56.1499023-54.5599976 56.1499023-2.8200111 0-5.5999794-.2202148-8.3100014-.6499023-.8699951-.1303711-1.7399902-.2900391-2.5999756-.4702148-.4900513-.1000977-.960022-.2099609-1.4400024-.3300781-.4300537-.0996094-.8600464-.199707-1.2800293-.3198242-.9099731-.2402344-1.8099976-.5-2.6900024-.7900391-.3900146-.1201172-.7799683-.25-1.1699829-.3901367-.4299927-.1499023-.8500366-.2998047-1.2600098-.4599609-1.2800293-.4799805-2.5300293-1-3.75-1.5698242-.3800049-.1801758-.7700195-.3701172-1.1500244-.5600586-.3999634-.1899414-.789978-.3901367-1.1799927-.6000977s-.7799683-.4199219-1.1599731-.6298828c-.4199829-.2402344-.8400269-.4799805-1.25-.7202148-.3500366-.2099609-.7000122-.4199219-1.0400391-.6396484-.7999878-.5-1.5799561-1.0102539-2.3499756-1.550293-.3099976-.2197266-.6199951-.4399414-.9299927-.6699219-.0100098 0-.0300293-.0097656-.039978-.0200195-.3500366-.2597656-.6900024-.5200195-1.0400391-.7900391-.3499756-.2700195-.6900024-.5400391-1.039978-.8198242-1.7200317-1.3901367-3.3500366-2.8798828-4.8900146-4.4702148-.3099976-.3198242-.6099854-.6396484-.9099731-.9599609-.3099976-.3300781-.6000366-.6601563-.9000244-.9897461-.8800049-1-1.7299805-2.0302734-2.5299683-3.090332-.2700195-.3496094-.5400391-.7099609-.8000488-1.0698242s-.5199585-.7202148-.7699585-1.0898438c-.2600098-.3603516-.5100098-.7299805-.75-1.1103516-.25-.3696289-.4900513-.75-.7200317-1.1298828-.7199707-1.1401367-1.3900146-2.2998047-2.0100098-3.5-.2099609-.3901367-.4199829-.7900391-.6199951-1.199707-.3099976-.6201172-.6199951-1.2602539-.8999634-1.9003906-.1500244-.3300781-.3000488-.6699219-.4400024-1-.3000488-.6796875-.5800171-1.3696289-.8400269-2.0698242-.0999756-.25-.2000122-.5102539-.2799683-.7602539-.3500366-.9199219-.6600342-1.8496094-.9500122-2.7895508-.1199951-.3803711-.2300415-.7700195-.3400269-1.1601563-.0799561-.2402344-.1400146-.4799805-.2099609-.7202148-.1000366-.3598633-.1900024-.7299805-.2800293-1.0996094-.4799805-1.8901367-.8599854-3.8300781-1.1400146-5.800293-.0599976-.3701172-.1099854-.7397461-.1499634-1.1098633-.0400391-.3100586-.0800171-.6298828-.1100464-.9501953-.039978-.3701172-.0799561-.7299805-.0999756-1.0898438-.0299683-.3100586-.0599976-.6201172-.0800171-.9301758-.0299683-.4296875-.0599976-.8598633-.0799561-1.2900391-.0200195-.4799805-.0400391-.9599609-.0500488-1.4399414-.0099487-.4799805-.0199585-.9697266-.0199585-1.449707 0-4.5200157.5199585-8.9101524 1.5-13.1201134 5.7399902-24.6699219 27.3099976-43.0200195 53.0499916-43.0200195.4699707 0 .9400024.0097656 1.4099731.0200195.3500366.0097656.6900024.0200195 1.0400391.0400391.2799683.0097656.5700073.0200195.8499756.0400391.2200317.0097656.4500122.0297852.6799927.0498047.5499878.0400391 1.1100464.090332 1.6600342.1499023.4299927.0400391.8699951.090332 1.3099976.1503906.4500122.0595703.8999634.1298828 1.3599854.199707.039978 0 .0900269.0102539.1400146.0200195.789978.1298828 1.5700073.2700195 2.3499756.4301758.1199951.0297852.2399902.0498047.3500366.0800781.3899536.0795898.7799683.1699219 1.1699829.2597656h.0100098c.4299927.1098633.8699951.2099609 1.2999878.3300781.4400024.1098633.8699951.2397461 1.2999878.3598633.5700073.1601563 1.1300049.3398438 1.6900024.5200195.289978.1000977.5800171.1899414.8699951.300293.4299927.1499023.8500366.2998047 1.2600098.4599609.4199829.159668.8400269.3198242 1.25.4897461.4099731.1601563.8200073.340332 1.2299805.5102539.4100342.1796875.8200073.3696289 1.2200317.5498047.3999634.1899414.7999878.3798828 1.2000122.5800781.1299438.0600586.2599487.1298828.3799438.1899414.6700439.3300781 1.3200073.6801758 1.9700317 1.0498047.4199829.2299805.8400269.4702148 1.2399902.7104492.3500366.2099609.7000122.4296875 1.0499878.6396484.75.4702148 1.4899902.9599609 2.210022 1.4599609.3599854.2602539.7199707.5102539 1.0800171.7700195.3599854.2602539.7099609.5302734 1.0599976.800293 1.0499878.7998047 2.0700073 1.6396484 3.0599976 2.5400391.3299561.2900391.6599731.5898438.9799805.8896484.6500244.6103516 1.2800293 1.2202148 1.9000244 1.8603516.3099976.3198242.6099854.6396484.9099731.9599609.9100342.9799805 1.7800293 1.9897461 2.6099854 3.0297852.5599976.6899414 1.1000366 1.3999023 1.6199951 2.1201172 1.25 1.699707 2.4000244 3.4897461 3.4400024 5.3398438.0800171.1298828.1500244.2700195.2300415.4101563.2000122.3598633.3899536.7197266.5799561 1.0800781.210022.3896484.4200439.7900391.6200562 1.199707.1899414.3798828.3799438.7700195.5699463 1.1699219.3900146.8300781.7600098 1.6704102 1.1100464 2.5302734.1699829.4199219.3399658.8398438.5 1.2700195.1900024.4799805.3699951.9599609.539978 1.449707.1300049.3701172.2600098.75.3800049 1.1303711.1199951.3500977.2299805.7099609.3399658 1.0698242.1000366.3198242.2000122.6401367.2900391.9599609.0800171.2900391.1699829.5898438.2399902.8798828.4400024 1.6201172.8099976 3.2700195 1.1099854 4.9404297.0800171.4794922.1600342.949707.2300415 1.4199219.0799561.5297852.1599731 1.0498047.2199707 1.5800781.1099854.909668.2000122 1.8198242.2700195 2.7397461.1099852 1.4599573.1699828 2.9301721.1699828 4.4101526z" fill="#e6e7e8"/></g><g><path d="m119.8333359 67.8901291c0 31.0097656-24.4299927 56.1499023-54.5599976 56.1499023-3.739994 0-7.3900185-.3901367-10.909977-1.1201172-.4200439-2.7900391 1.1499634-5.7597656 4.7199707-5.3999023 17.239994 1.7099609 33.5399818-7.1401367 44.6699867-19.8798828 10.0200195-11.5 14.960022-26.25 14.9200439-41.3002892.7599489 3.7299805 1.1599733 7.5903321 1.1599733 11.5502892z" fill="#dbdbdb"/></g><g><path d="m105.8333359 67.3798752c0 22.7099609-18.2999878 41.1201172-40.8800049 41.1201172-11.2700233 0-21.4699745-4.5898438-28.8499794-12-1.2399902-1.2402344-2.4000244-2.5600586-3.4700317-3.9501953-5.3599854-6.949707-8.5499878-15.6899414-8.5499878-25.1699219 0-22.7197227 18.2999878-41.129879 40.8699989-41.129879 8.6199951 0 16.6199951 2.6801758 23.210022 7.2597656 2.8899536 2.0102539 5.5199585 4.3901367 7.8099976 7.0703125 6.1499633 7.1899414 9.8599853 16.5600586 9.8599853 26.7998009z" fill="#be1e2d"/></g><g><path d="m81.3333359 67.2299728c0 12.2998047-9.6599731 22.2700195-21.5800209 22.2700195-4.5599976 0-8.789978-1.4599609-12.2699585-3.9599609-5.6199951-4.0102539-9.3000488-10.7202148-9.3000488-18.3100586 0-1.5600586.1600342-3.0898438.460022-4.5600548 2.0300293-10.1201172 10.710022-17.7197266 21.1099854-17.7197266 1.1500244 0 2.2800293.0898438 3.3900146.2797852 5.2500038.8500977 9.8699989 3.6499023 13.1400185 7.6699219 3.1499633 3.8701172 5.0499877 8.8798828 5.0499877 14.3300743z" fill="#e6e7e8"/></g><g><path d="m88.163353 33.5097618c-.9899902.6000977-2.2200317.8300781-3.6500244.4902344-15.6009216-3.7076149-36.3387718 1.8637505-46.0316887 15.2638016-8.5472851 11.8163261-8.6103611 27.2297249-5.8282776 40.9765434.16996.839798.1499329 1.6097794-.0200424 2.3094559-5.3599854-6.949707-8.5499878-15.6899414-8.5499878-25.1699219 0-22.7197227 18.2999878-41.129879 40.8699989-41.129879 8.6199951 0 16.6199951 2.6801758 23.210022 7.2597656z" fill="#cc2f42"/></g><g><path d="m105.8333359 67.3798752c0 22.7099609-18.2999878 41.1201172-40.8800049 41.1201172-11.2700233 0-21.4699745-4.5898438-28.8499794-12 1.3699951-1.6201172 3.5999756-2.3300781 5.8899536-.75 13.9800415 9.6801758 35.3000526 3.7001953 47.0600014-7.2700195 11.7000122-10.8999023 13.4800415-30.2499962 7.1900024-44.3300743-.5599976-1.2597656-.5999756-2.4799805-.2699585-3.5698242 6.1499634 7.1899413 9.8599854 16.5600585 9.8599854 26.7998008z" fill="#b21628"/></g><g><path d="m81.8933334 14.3998985h-.0299683c-28.4700356-.0600586-55.1900063 15.3300781-69.6400146 40.3701172 5.7399902-24.6699219 27.3099976-43.0200195 53.0499916-43.0200195.4699707 0 .9400024.0097656 1.4099731.0200195.3500366.0097656.6900024.0200195 1.0400391.0400391.2799683.0097656.5700073.0200195.8499756.0400391.2200317.0097656.4500122.0297852.6799927.0498047.5499878.0400391 1.1100464.090332 1.6600342.1499023.4299927.0400391.8699951.090332 1.3099976.1503906.4500122.0595703.8999634.1298828 1.3599854.199707.039978 0 .0900269.0102539.1400146.0200195.789978.1298828 1.5700073.2700195 2.3499756.4301758.1199951.0297852.2399902.0498047.3500366.0800781.3899536.0795898.7799683.1699219 1.1699829.2597656h.0100098c.4299927.1098633.8699951.2099609 1.2999878.3300781.4400024.1098633.8699951.2397461 1.2999878.3598633.5700034.1601563 1.130001.3398438 1.6899985.5200196z" fill="#f5f6f7"/></g><g><path d="m76.2833481 52.8998985c-1.1000366 1.4199219-2.8500366 2.3901367-5.0400391 2.0800781-15.4699745-2.1601563-29.8699989 11.470211-23.7299843 27.0400352.539978 1.3701172.4500122 2.5600586-.0299683 3.5200195-5.6199951-4.0102539-9.3000488-10.7202148-9.3000488-18.3100586 0-1.5600586.1600342-3.0898438.460022-4.5600548 1.2299805-2.75 2.8900146-5.3300781 4.9199829-7.6098633 5.1600342-5.7900391 12.1799927-8.8999023 19.5800171-9.8300781 5.2500038.8500978 9.869999 3.6499025 13.1400185 7.669922z" fill="#fff"/></g><path d="m131.3333435 66.4553223c0-.9326172-.2727051-1.7177734-10.7471313-1.9589844.0148926-.3310547.0285645-.6855469.039978-1.0839844-.0421753-1.3999023-.0933838-3.2612305-.4294434-5.6767578-5.1921386-31.3059044-32.7493438-49.7372971-57.8186645-47.8588867-.4840698.0024414-.9690552.0263672-1.4553223.0625-.3342896-5.4414063-1.0239868-5.605957-1.821106-5.605957-.8178101 0-1.5224609.1723633-1.8464355 6.0361328-18.6900177 2.5342398-34.9813232 14.0096264-43.6384888 33.8730469-2.590332 5.8969727-4.2528687 12.597168-4.6999512 19.6069336-5.1017456.3168945-5.2501221 1.0307617-5.2501221 1.8618164 0 .824707.1465454 1.5336914 5.1270752 1.8544922-.0001221.2783203-.0153198.5537109-.0114136.8325195.342206 30.9168472 23.5609779 54.2595062 50.8517456 56.8608398.3400879 5.246582 1.0204468 5.4077148 1.8048096 5.4077148.7740479 0 1.4471436-.1508789 1.791626-5.1948242 4.5046387.1333008 8.9569092-.2729492 13.1954956-1.1982422 7.1244507-1.5415039 13.6210938-4.4946289 19.0814209-8.2207031 13.3736115-9.0944519 21.6873932-23.2500916 23.9185791-37.8813477.272522-1.6259766.3762817-3.0932617.4958496-4.3623047.0612793-1.2749023.1040649-2.3574219.1074829-3.234375-.0238647-.9848633-.0549927-1.6992188-.0931396-2.1459961 11.1211548-.2231445 11.3971558-1.0219726 11.3971558-1.9736327zm-68.7471924-52.5839844c7.873024-.6418524 17.6807785 1.1194525 26.137085 5.4604492 17.6132278 9.3121052 26.5230408 23.9627571 29.9776001 44.2260742.0354004.3256836.0701904.6245117.1044312.9033203-1.7636719-.0273438-3.7741699-.0419922-6.0690918-.0419922-1.7488403 0-3.8529053.0283203-6.1273193.0805664.008728-.1689453.0182495-.3266602.0256348-.5161133.0064087-.3212891.0366821-.675293.017395-1.0585938-1.9180145-22.8127098-20.2284698-38.5438995-42.0603638-38.6518555-1.1564331.0043945-2.3342285.0610352-3.5269165.1699219.0473633-1.769043.0731812-3.4047852.0731812-4.7758789 0-2.2138672-.0203247-4.1005859-.0576782-5.7216797.5030516-.0424803 1.0050047-.0717772 1.5060423-.0742186zm19.6627808 50.2412109c-.3903732-8.3719521-5.7856522-16.5385094-15.4327545-19.9916992-2.0948334-.6625977-4.4377289-1.09375-6.9669647-1.1396484.4701538-3.2426758.8544922-9.0454102 1.0775146-14.4892578 1.2509766-.1376953 2.4873047-.2177734 3.6987915-.2294922 18.2658615.0020733 34.4058151 11.2887497 39.6646118 33.7158203.0942993.4208984.1812744.8085938.2613525 1.1655273.072998.3588867.0979004.6914063.1478882.9936523.0216675.1499023.0425415.2724609.0637817.4086914-8.9520874.246582-19.7320557.8286133-22.6559448 1.5400391.0809327-.4536132.2050782-1.0859375.1417237-1.9736328zm-23.8913574-21.1069336c-2.2947998.1298828-4.7092896.6289063-7.1087036 1.5732422-8.0780945 3.189064-14.1556015 10.8622665-14.9091797 20.5004883-2.0869141-.4331055-6.0370483-.8027344-10.1096802-1.0537109.2218018-2.5019531.6721802-4.9355469 1.3303833-7.2397461 4.1996441-14.3194618 15.4033737-24.736866 29.7402344-27.7158203.2266235 5.2871093.6017456 10.8120117 1.0569458 13.9355468zm-22.0906372 23.3525391c-.0775146 2.9111328.340271 5.9213867 1.359436 8.8125 1.6115723 4.8398438 5.0165405 9.1586914 9.3054199 12.0405273 4.1599731 2.753418 9.1884766 4.0195313 13.8688965 3.6772461-.5292969 3.1386719-.9626465 9.6630859-1.2000732 15.6791992-15.1798248-2.335556-27.1172905-13.1242981-31.3709717-26.1049805-1.4990845-4.2788086-2.1708984-8.7280273-2.1521606-13.0561523 4.0801391-.2485351 8.0580444-.6162109 10.1894531-1.0483398zm25.7904052 24.4101562c10.7508621-1.2714081 19.0736084-10.3699036 19.5270996-20.9130859.0127563-1.7036133-.1244507-2.6303711-.2512207-2.6289063-.1536255-.0009766-.2938843.9228516-.5644531 2.5375977-2.3222885 11.3520737-10.7415771 17.8462067-19.6242065 18.222168-4.2363281.2519531-8.6921997-1.0151367-12.3103027-3.5649414-3.5836182-2.5820313-6.3881226-6.3237305-7.6535645-10.4536133-4.2830544-13.0312958 5.0162506-26.847847 18.4057617-27.0102539 2.1914063-.0083008 4.211853.3330078 6.0322876.8642578 7.873703 2.6881638 12.2636032 8.4199028 14.3719482 16.5830078.2738037.8691406.3373413 1.4892578.5043335 1.9072266.2855835.8427734.5571899.9165039.8381958.9145508.2122803-.0009766.4154663-.0356445.5881958-.4482422 2.7149048.7548828 14.3800659 1.3710938 23.6750488 1.6079102-.046669.3234558.011261-.1511459-.2114868 1.7348633-.0830688.590332-.0820313 1.2802734-.2650757 2.0356445-3.4275436 20.638237-19.7938538 33.8662109-37.4726563 34.7651367-1.4390869.1083984-2.8949585.112793-4.3551636.0327148-.2367552-6.1958008-.6848753-13.0292969-1.2347411-16.1860352zm-44.7459717-44.9233398c7.7281628-17.5263309 24.8806305-29.4172344 39.8007813-31.4013672-.0303955 1.5078125-.046875 3.2329102-.046875 5.2236328 0 1.5107422.0310059 3.3413086.0881348 5.3203125-15.7643013 2.9479008-28.7681218 14.3356819-33.4360962 30.7260742-.7190552 2.5859375-1.1959229 5.3120117-1.4116821 8.1079102-2.2138672-.0942383-4.2892456-.1464844-5.9177856-.1464844-1.307373 0-2.4730835.0107422-3.5256348.0297852.4963378-6.4033203 2.064331-12.4902344 4.4491576-17.8598633zm-4.6333618 22.5258789c-.0015259-.2202148.0122681-.4365234.0133667-.65625 1.0961914.0214844 2.317688.0332031 3.6964722.0332031 1.5979614 0 3.6265259-.050293 5.7935791-.1416016.0442505 4.6899414.8344116 9.4907227 2.5084229 14.1015625 4.8505764 14.1868439 18.0987167 25.8278122 34.8051147 27.9291992-.0598755 2.0581055-.0922241 3.9619141-.0922241 5.5273438 0 2.8266602.0317383 5.1367188.0903931 7.0268555-25.9496918-3.0853119-46.681902-25.7322235-46.8151246-53.8203125zm105.7357788 9.6201172c-3.027504 14.8155823-11.595047 27.8717728-24.2240601 36.081543-5.3002319 3.4584961-11.5411987 6.1503906-18.326416 7.4975586-4.02771.8076172-8.2404175 1.1240234-12.4891357.9360352.0653076-1.9477539.1010742-4.3530273.1010742-7.3417969 0-1.4902344-.0297241-3.2885742-.0841675-5.2329102 1.4958496.0419922 2.9838867.0043945 4.4515991-.1362305 20.3321228-1.4811478 36.5271759-17.9271469 38.0924683-37.543457.1190186-.7788086.0523071-1.4858398.0686646-2.0898438-.0315781-1.9184952-.02211-1.4476547-.0357056-1.7661133 2.5213623.0620117 4.8555298.0957031 6.7680664.0957031 2.694519 0 4.9900513-.0205078 6.9606323-.0581055-.1370849 1.2451173-.2755126 4.6079103-1.28302 9.5576173z" fill="#202020"/></g></svg>