<svg id="Layer_1" enable-background="new 0 0 135 135" height="512" viewBox="0 0 135 135" width="512" xmlns="http://www.w3.org/2000/svg"><g><g><path d="m97.964592 109.0914536c-27.1108551 2.5719299-54.5122986 2.0842819-81.5121841-1.4710083-3.2595644-.4292145-6.7609253-1.0226517-9.0709648-3.36203-2.862741-2.8991089-2.9504824-7.4550858-2.8571262-11.5283432.3447499-15.041954-1.4747705-29.8586426-.9567962-45.0258293.1585219-4.64188.4496512-9.4259834 2.4829774-13.6018372 1.3275166-2.7263317 3.5641036-5.1851063 6.3504252-6.4558868 2.6574717-1.2120152 4.7412863-.3175507 6.1305132-3.2868481 2.0497246-4.3810291-.3071842-10.2298222 4.50103-13.2479925 3.475523-2.1801271 7.9770947-2.8357325 12.0035267-2.9611654 6.8656998-.2138848 13.7313957-.4277701 20.5970955-.6416559 2.4209709-.0754199 4.9396439-.1321259 7.1552811.8833189 6.2046814 2.8524561.6757622 9.7545185 5.2241287 13.3419132 2.3571472 1.859129 5.5670853 1.9931259 8.5475464 2.0488033 12.763092.2384186 25.5261765.4768391 38.2892685.7152576 6.2674484.1192989 10.7671204 1.3390961 13.5985947 7.2843609 2.1871033 4.5923023 2.615509 8.0377941 2.4448242 13.1488895-.473938 14.1916656-1.3170319 28.3719444-2.5132141 42.5209389-.6203918 7.3382721.3236084 17.5102997-9.0536499 18.9683304-7.0917985 1.1026611-14.2164475 1.9929733-21.3612763 2.670784z" fill="#e8d807"/></g><g><path d="m130.4798279 62.9354782c-.2800293 8.2900391-.6800537 16.5703125-1.210022 24.8500977-.0599976.9399414-.1199951 1.8701172-.1799927 2.8100586-.3300171 4.9599609-.710022 9.9101563-1.1300049 14.8598633-.6199951 7.340332.3300171 17.5102539-9.0499878 18.9702148-7.0900269 1.0996094-14.2200317 1.9897461-21.3600464 2.6699219-23.6399536 2.2397385-47.4999962 2.1601486-71.1299438-.2700195-3.460022-.3500977-6.9300537-.75-10.3800049-1.2099609-1.4000244-.1801758-2.8400269-.3999023-4.2200317-.7700195-1.8300171-.4902344-3.539978-1.25-4.8599849-2.5898438-2.0100098-2.0302734-2.6500244-4.8901367-2.8200073-7.8203125-.0700073-1.2397461-.0599976-2.5-.0299683-3.7099609.0799561-3.7197266.039978-7.4296875-.0800171-11.1298828-.3400249-11.260254-1.2700176-22.470215-.8800029-33.8901369.0999756-2.8999023.25-5.8598633.8399658-8.6899414-.0099487-.0097656 0-.0200195 0-.0200195.3600464-1.6899414.8800049-3.3398438 1.6400146-4.8901367 1.3300171-2.7299805 3.5700068-5.1899414 6.3500361-6.4599609.8399658-.3798828 1.6199951-.5498047 2.3299561-.699707 1.5700073-.3300781 2.8500366-.550293 3.8000488-2.590332.7599487-1.6396484.9199829-3.4897461 1.0599976-5.3095703 0 0-.0100098-.0102539 0-.0102539.2299805-3.0498047.4400024-6.040041 3.4499512-7.9199238.1900024-.1201172.3900146-.2299805.5800171-.340332.0100098-.0097656.0100098-.0097656.0200195-.0097656 3.3800049-1.8999023 7.5999756-2.5 11.3999653-2.6201172 6.8699951-.2099609 13.7300415-.4199219 20.6000366-.6396484 2.4199829-.0703125 4.9400024-.1303711 7.1499634.8896484 4.4100304 2.0200195 2.9000206 6.0903339 3.2900352 9.5600605.1499634 1.4199219.6199951 2.7402344 1.9400024 3.7802734 2.3499756 1.8598633 5.5599976 1.9897461 8.539978 2.0498047 12.7700195.2397461 25.5300293.4702148 38.289978.7099609 6.2700195.1201172 10.7700195 1.3398438 13.6000366 7.2900391 1.3399658 2.8100586 2.0199585 5.1899414 2.3099976 7.7900391.1799928 1.6401365.2099611 3.3798826.1400148 5.3598631z" fill="#fff200"/></g><g><path d="m65.2821655 35.6512718c-.2273026.3045998-.513916.5395508-.8718338.6769447-1.9595032.7521935-6.4161301-1.0592537-8.5318909-1.2934647-6.3002167-.6974297-12.7770729-.3576698-18.8486214 1.5506287-3.2700195 1.0302734-6.4800434 2.6000977-8.8599873 5.1201172-2.3900146 2.5400391-3.1800537 5.8701172-5.0500488 8.7299805-2.0799561 3.1801758-5.3099976 4.7001953-7.8299561 7.3901367-2.6300049 2.8100586-3.5800171 6.6499023-4.4700317 10.2900391-2.1400145 8.7700195-2.6099852 17.7099609-1.869995 26.6899414.2800283 3.3398285-2.3099737 4.9301605-4.9199476 4.7900391-.8009527-.0429993-.9811218-30.6648483-.8934443-33.4811478.2618246-8.4100876 2.2037547-17.6856766 10.7782154-21.4186554 1.6315575-.7103157 3.4667959-1.224411 4.5941477-2.601181 1.5931377-1.9456062 1.1866074-4.6690407 1.2763081-6.9971695.116003-3.0108032 1.1072922-4.4683952 3.4347229-6.3319111 5.4795971-4.3873825 12.9848404-2.4953671 19.580513-3.2898006 4.2315178-.5096779 8.507679-.658123 12.7614059-.3674545 3.6313324.2481403 9.199852-.1921215 10.173111 4.2040253.3320848 1.4999903.6928636 4.8038749-.4526671 6.3389319z" fill="#fff683"/></g><g><path d="m130.4798279 62.9354782c-.2685699 7.6028824-.4621124 15.2174301-1.2102509 22.7924576-.3218842 3.2591705-1.1149139 6.5539627-.8245087 9.8059006.2931519 3.282608-.2075348 6.633667-.48526 9.9216614-.6199951 7.340332.3300171 17.5102539-9.0499878 18.9702148-7.0900269 1.0996094-14.2200317 1.9897461-21.3600464 2.6699219-23.6399536 2.2397385-47.4999962 2.1601486-71.1299438-.2700195-.1000366-.6499023-.0700073-1.300293.0799561-1.9101563-4.8899536.1201172-9.789978.1000977-14.6799927-.0698242-1.8300171-.4902344-3.539978-1.25-4.8599849-2.5898438-2.0100098-2.0302734-2.6500244-4.8901367-2.8200073-7.8203125 25.9299927 1.9702148 53.3599854.0800781 78.5200195-6.2700195 11.5599976-2.9199219 23.5499878-6.9897461 31.6699982-16.1997223 7.1267929-8.0955734 6.0655518-18.5887527 8.2493286-28.5360603.412796-1.8803444 1.0194092-3.8276405 2.4280014-5.1398315 1.0877609-1.0133209 3.2770462-1.7483139 4.6308517-.7900963 1.4583889 1.0322418.8998409 3.7935828.841827 5.4357299z" fill="#eddb03"/></g><path d="m3.5447216 115.6461716c.2037354 1.8041992.6135864 3.675293 1.5524902 5.3955078.9248657 1.7207031 2.4539185 3.1630859 4.1432495 3.9990234 8.3312931 4.2641983 50.2789383 4.7066727 60.1206665 4.4174881 8.9753418-.2568359 16.2205811-.8149414 21.2124634-1.3149414 2.4973145-.2382889 4.4302979-.4848709 5.7388916-.6684647s1.9920654-.3134766 1.9854126-.3833008c-.0146484-.1567383-2.7831421.0029297-7.7842407.2333984-5.000061.2348633-12.2360229.5356445-21.1757202.5483398-18.6993103.040863-53.1741409-2.2841034-58.8270874-5.2583008-1.2816772-.6699219-2.2719116-1.6499023-2.9420166-2.909668-.6685791-1.2607422-1.005188-2.7724609-1.1596069-4.3549805-.0094748-.1000214-1.2837157-42.9023819-.6075439-52.9360313.2463989-3.4912109.8309326-6.8964844 2.3145142-9.7670898 1.4399414-2.7905273 3.986145-5.1782227 6.7856445-5.7885742.7504883-.1933594 1.7511597-.269043 2.975647-.8427734.6051636-.2866211 1.1795654-.7480469 1.6148682-1.2402344.4558716-.4995117.741333-1.0234375 1.0040283-1.5317383.9580688-2.0292969 1.1297607-4.0673828 1.2779541-5.8330078.2925701-3.6236839.4128666-5.6653919 3.5495605-7.2080097 2.7194824-1.3837891 5.9703369-1.9008789 9.1871967-2.0688477 6.7689209-.1972656 13.3676147-.3901367 19.7298584-.5756836 10.5679016-.2878761 10.0859299 1.3249435 10.0654297 6.8193378-.0089722.7763672.0440063 1.6401367.1829224 2.5292969.6183624 2.8643951 2.3227158 4.8476372 5.4110107 5.9604492 1.5791016.5649414 3.1184082.7607422 4.5464478.8608398 1.4397583.0922852 2.7518921.0913086 4.0380859.1210938 9.4232788.1723633 18.2698975.3339844 26.5751343.4858398 8.1279297.4921875 16.9238281-1.1264648 20.4752808 3.9350586.4564819.6079102.890625 1.2441406 1.236145 1.9589844.3694458.6855469.713623 1.4931641 1.0108032 2.230957.6005249 1.5083008 1.0133057 3.0087891 1.2393188 4.5366211.4683228 3.0405273.2150879 6.2446289.1343384 9.4023399-1.881134 54.8705139-3.650589 54.9291-9.048584 56.4082031-3.4534683.7782516-15.7761154 2.5482788-19.0553589 3.215332-2.6079102.5092773-2.7811279.7861328-2.7540283 1.0688477.0266113.2768555.2474365.5336914 2.9161987.5078125 6.2549438-.1088333 17.7333298-1.4940186 19.5428467-1.9165039 4.304718-.9919815 7.1056137-3.4653778 8.4525757-8.8051758 1.5183105-6.0120163 3.5184479-42.5841446 3.8330078-50.3320313.0593872-1.5888672.137146-3.1396446.1702271-4.8471642.0258789-1.6879883-.0237427-3.4594727-.2894897-5.2792969-.1091309-.7695313-.2705688-1.5429688-.4624634-2.3120117.0878296-1.8100586.1712036-3.6606445.2484131-5.5615234.0593262-1.5888672.137146-3.1396484.1702271-4.847168.0258789-1.6879883-.0237427-3.4594727-.2894897-5.2792969-.4894104-3.4510918-2.0270081-7.6736164-4.2486572-10.61133-1.2872925-1.6679688-3.1231689-3.1196289-5.1698608-3.9282227-2.0395508-.8452148-4.1651001-1.1572266-6.2141724-1.3041992-2.0889282-.1289063-4.0040283-.1166992-6.0264893-.1708984-2.0091553-.0390625-4.0516357-.0791016-6.1279297-.1201172-8.3052979-.1582031-17.1519165-.3271484-26.5751953-.5068359-2.6053467-.0620117-5.2150879.0078125-7.2786865-.7353516-2.4544144-.8818531-2.949913-2.230299-2.9244385-4.6704102-.0925369-5.1229458-.0055466-10.4411917-9.3503418-10.8769531-1.7347412-.0698242-3.3014526.0356445-4.8908081.0756836-6.3881836.2192383-13.013855.4462891-19.8104858.6791992-3.5240498.2172852-7.2358418.7631836-10.7308369 2.5507817-4.6784077 2.3656406-5.1337204 5.6157103-5.5419312 10.3149405-.1173096 1.7368164-.3103638 3.2998047-.8782349 4.5092773-.2998657.6005859-.5562134.8999023-.9217529 1.0849609-.3891602.2114258-1.1920776.3505859-2.1727295.5756836-3.233655.7052135-6.9350791 3.3916321-9.1312256 7.7280293-1.8027954 3.5844727-2.3692627 7.4775391-2.6026611 11.1630859-.2133789 3.6918945-.2360229 7.3154297-.196167 10.9594727.0493164 3.7197266.1959229 7.4169922.3718261 11.0883751-.1797908 7.2700051 1.3646823 49.3215036 1.3755492 49.4218759zm4.2381592-80.9990197c1.4398804-2.7905293 3.986145-5.1782246 6.7856445-5.7885761 2.3703938-.6107197 4.0325737-.5918369 5.5944824-3.6147461.9581299-2.0292969 1.1298218-4.0673828 1.2779541-5.8330078.292696-3.6236839.412859-5.6653852 3.5495605-7.2080069 2.7195435-1.3837891 5.9703979-1.9008789 9.1871967-2.0688477 6.7689819-.1972656 13.3676758-.3901367 19.7298584-.5756836 10.5681-.287878 10.0859871 1.3248386 10.0654907 6.819335-.0487251 4.1876144 1.56073 7.0364532 5.5939331 8.4897461 1.5791016.5649414 3.1183472.7607422 4.5464478.8608398 1.4397583.0922852 2.7518921.0913086 4.0380859.1210938 9.4232178.1723633 18.2698364.3339844 26.5751343.4858398 11.9475403.7234898 24.9961243-3.505146 24.1711426 19.7924824-.0770874-.1054688-.1439209-.2148438-.2232056-.3198242-4.405632-5.7084541-11.201149-5.2369156-17.4104614-5.4033203-2.0092163-.0390625-4.0516357-.0791016-6.1279297-.1201172-8.3052979-.1582031-17.1519775-.3271484-26.5752563-.5068359-2.6053467-.0620117-5.2150879.0078125-7.2786255-.7353516-1.9474487-.6997032-2.4958267-1.648571-2.8029785-2.8662109-.0762939-.5361328-.1286621-1.1201172-.121521-1.8041992-.0925369-5.1227646-.0058212-10.4411945-9.3502808-10.876955-1.7347412-.0698242-3.3014526.0356445-4.8908691.0756836-6.3881836.2192383-13.013855.4462891-19.8104248.6791992-3.5240498.2172852-7.2358418.7631836-10.7308979 2.5507813-4.7051601 2.3791695-5.1423206 5.713541-5.5418701 10.3149433-.1173096 1.7368164-.3104248 3.2998047-.8782959 4.5092773-.2998657.6005859-.5561523.8999023-.9217529 1.0849609-.3891602.2114258-1.1920776.3505859-2.1727295.5756836-.9672241.2109375-2.0856323.6396484-2.9580078 1.1455078-.9081421.5068359-1.7509766 1.1098633-2.5102539 1.7915039-1.3713989 1.2314453-2.4956055 2.6865234-3.3745117 4.2802734.0412598-2.0419922.1150513-4.0795898.2503662-6.0883789.2463989-3.4912108.8309936-6.8964843 2.3145752-9.7670898z" fill="#202020"/></g></svg>