<svg id="Layer_1" enable-background="new 0 0 135 135" height="512" viewBox="0 0 135 135" width="512" xmlns="http://www.w3.org/2000/svg"><g><path d="m38.3032455 129.0700378c-.6900024.2399902-1.5599976.3701172-2.6599731.3901367-5.5400372.079834-11.2400494-.1401367-16.7499981-.5500488-1.9100342-.1298828-3.8700571-.3300781-5.5599985-1.1899338-1.5-.7700195-2.6200562-1.8500977-3.460022-3.1201172-.1400146-.2199707-.2800293-.4499512-.4199829-.6899414-1.5300293-2.7399902-1.960022-6.1899414-2.3000488-9.2299805-.789978-6.9799805-1.1399536-14.0400391-1.4499512-21.0600586-.6000366-13.830078-.5300293-27.6999511.2299805-41.5300292.0899658-1.75.2399902-3.619873 1.3399658-5.0200195 1.2800293-1.6298828 3.5100098-2.2099609 5.6000366-2.5500488 5.8399668-.9599609 11.8499765-.9399414 17.6699829.0700684 2.7700176.4899902 5.7200298 1.3300781 7.3599834 3.5400391.1000366.1398926.2000122.2800293.3000488.4299316 1.7999878 2.8100586 1.9299927 6.9899902 1.7999878 10.9101563-.0800171 2.3398438-.2600098 4.5998535-.2300415 6.4199219.1200562 7.1098633.2300415 14.2099609.3400269 21.3200684.1799927 11.3398438.3499756 22.6799316.5300293 34.0197754.0599986 3.9001463.5599986 6.8300703-2.3400259 7.84008z" fill="#8dc63f"/><path d="m84.1232529 126.2900162c-.7700195.75-1.9500122.9399414-3.0499878 1.0800781-8.0300293 1.0300217-16.1400146 1.4499435-24.2399902 1.2399826-.2800293-.0100098-.5900269-.0200195-.8100586-.1899414-.3199463-.2399902-.3499756-.6701584-.3499756-1.0500412-.0100098-1.4199219-.039978-2.8398438-.0700073-4.2600098-.1199951-6.75-.3699951-13.5-.75-20.2399902-.7099609-12.8200684-1.8900146-25.6201172-3.5299683-38.3598633l.1300049-1.1501465c6.2199707-3.1499023 13.2299805-4.880127 20.2799683-5.0100098 1.1000366-.0200195 2.2700195.0100098 3.2000122.5600586.5100098.3000488.9099731.7299805 1.2299805 1.2099609s.5700073 1.0100098.7900391 1.5300293c1.0199585 2.4499512 1.6900024 5 2.1900024 7.5900879.3799438 1.9499512.6699829 3.9299316.9499512 5.8999023 2.2000122 15.7199707 3.8400269 31.5200195 4.9000244 47.3500977.0900267 1.3298341.119995 2.8398438-.8699952 3.7998048z" fill="#d7df23"/><g><path d="m124.6732407 125.7499771c-.0100098 0-.0100098.0102539-.0100098.0200195-.0999756.3701172-.2699585.7099609-.5599976.9902344-.2799683.2700195-.6300049.4499512-1.0100098.5598145-.4299927.1501465-.8999634.2199707-1.3499756.2700195-6.1799927.8000412-12.4199829 1.1201096-18.6599731.9599533-.2200317-.0100098-.460022-.0197754-.6300049-.1499023-.2400513-.1799316-.2600098-.5100021-.2700195-.810051-.0200195-2.2299805-.0599976-4.4599609-.1300049-6.6899414-.0700073-3.0200195-.1799927-6.0500488-.3300171-9.0700684-.5299683-10.9099121-1.4899902-21.8100586-2.8899536-32.6499023l.1099854-.880127c4.7799683-2.4299316 10.1799927-3.7697754 15.6099854-3.869873.8499756-.0100098 1.75.0200195 2.4699707.4399414.4300537.25.75.6098633 1.0100098 1.0100098.2200317.3498535.3900146.7299805.5500488 1.0998535.6299438 1.5102539 1.0799561 3.0700684 1.4299927 4.6501465.4299927 1.8898926.7099609 3.8200684.9799805 5.7399902 1.7000122 12.1098633 2.960022 24.2700195 3.7799683 36.4599609.0400389.630127.0700072 1.3200684-.0999757 1.9199219z" fill="#fbb040"/></g><path d="m41.6132431 15.3700933c-.960022 5.749999-3.7399902 11.1000967-7.6900024 15.1201162-1.3900146 1.4099121-2.919981 2.6499043-4.5700054 3.6799335-.5700073.369873-1.1599731.7099609-1.7600098 1.0200195-1.2099609.6298828-2.6399536 1.1599121-3.8800049.5900879-.9899902-.4501953-1.6099854-1.4902344-2.1699829-2.4702148-3.2000122-5.6098652-10.250001-13.1298847-11.9099741-19.2797852-1.6400146-6.0800786 3.0100098-7.8801274 8.3200083-8.1201172 2.6999512-.1101074 5.5799561.1799316 7.8899536.5100098 1.3099976.1999512 2.4299927.3999023 3.2400513.5598145 2.1099854.4101563 4.2199688.8200684 6.3299541 1.2302251 2.4700317.4799805 5.3699951 1.3398438 6.1700439 3.8898926.3299561 1.0500474.209961 2.18994.0299683 3.2700181z" fill="#27aae1"/><path d="m29.3532352 34.1701431c-.5700073.369873-1.1599731.7099609-1.7600098 1.0200195-1.2099609.6298828-2.6399536 1.1599121-3.8800049.5900879-.9899902-.4501953-1.6099854-1.4902344-2.1699829-2.4702148-3.2000122-5.6098652-10.250001-13.1298847-11.9099741-19.2797852-1.6400146-6.0800786 3.0100098-7.8801274 8.3200083-8.1201172-1.6199951 9.8798819 4.6599732 22.0600567 11.3999634 28.2600098z" fill="#58ccf4"/><path d="m41.6132431 15.3700933c-.960022 5.749999-3.7399902 11.1000967-7.6900024 15.1201162-1.1699829-1.4101563-1.6199951-3.4001465-.5200195-5.4799805 1.8200073-3.420166 4.0400391-7.7802734 2.6700439-11.7700186-1.3000488-3.7900391-5.8099957-5.5102544-9.3000469-6.4702153-.3399658-.0898438-.6499634-.2099609-.9299927-.3498535 1.3099976.1999512 2.4299927.3999023 3.2400513.5598145 2.1099854.4101563 4.2199688.8200684 6.3299541 1.2302251 2.4700317.4799805 5.3699951 1.3398438 6.1700439 3.8898926.3299561 1.0500488.209961 2.1899414.0299683 3.2700195z" fill="#119fd1"/><path d="m38.20327 48.5600357c-1.0900269 1.2600098-2.7700195 2-4.8600464 1.5-6.959959-1.6699219-15.5700054-1.7700195-20.5700073 4.2900391-4.2399902 5.1499023-4.5299683 13.1699219-5.0899658 19.5-1.4299927 16.0500488-.8200073 32.25 1.789978 48.1499023.1100464.6801758.1000366 1.3200684-.0199585 1.9101563-1.5300293-2.7399902-1.960022-6.1899414-2.3000488-9.2299805-.789978-6.9799805-1.1399536-14.0400391-1.4499512-21.0600586-.6000357-13.8300781-.5300284-27.6999512.2299814-41.5300293.0899658-1.75.2399902-3.619873 1.3399658-5.0200195 1.2800293-1.6298828 3.5100098-2.2099609 5.6000366-2.5500488 5.8399668-.9599609 11.8499765-.9399414 17.6699829.0700684 2.7700176.4899902 5.7200298 1.3300781 7.3599834 3.5400391.1000377.1398924.2000132.2800292.3000499.4299315z" fill="#b0e261"/><path d="m38.3032455 129.0700378c-.6900024.2399902-1.5599976.3701172-2.6599731.3901367-5.5400372.079834-11.2400494-.1401367-16.7499981-.5500488-1.9100342-.1298828-3.8700571-.3300781-5.5599985-1.1899338-1.5-.7700195-2.6200562-1.8500977-3.460022-3.1201172.1699829-.0200195.3499756-.0300293.539978-.0200195 3.8300171.1101074 7.6500254.0900879 11.4800425-.1499023 2.8599854-.1899414 8.6699829.4199219 10.5199566-1.9301758 1.4700317-1.8498535 1.460022-6.9099121 1.6500244-9.1298828.2700195-3.2600098.2399902-6.5200195.0499878-9.7900391-.7700195-13.4099121-1.5700073-27.3198242.4799805-40.6699219.4800415-3.1101074 3.0400391-4.0500488 5.4100342-3.4399414-.0800171 2.3398438-.2600098 4.5998535-.2300415 6.4199219.1200562 7.1098633.2300415 14.2099609.3400269 21.3200684.1799927 11.3398438.3499756 22.6799316.5300293 34.0197754.0599975 3.9001465.5599975 6.8300705-2.340027 7.8400802z" fill="#80b729"/><path d="m76.1632309 60.1200943c-.7299805.4799805-1.6400146.7600098-2.7399902.75-7.5800171-.0800781-15.5899658 3.3798828-17.6599731 11.3400879-1.0500488 4.0598145-.2800293 8.6999512.0199585 12.8200684.3200073 4.5297852.7600098 9.0397949 1.2800293 13.5498047.25 2.1801758-.7600098 3.6101074-2.210022 4.2900391-.7099609-12.8200684-1.8900146-25.6201172-3.5299683-38.3598633l.1300049-1.1501465c6.2199707-3.1499023 13.2299805-4.880127 20.2799683-5.0100098 1.1000366-.0200195 2.2700195.0100098 3.2000122.5600586.5100097.3000488.9099731.7299804 1.2299804 1.2099609z" fill="#f2f23d"/><g><path d="m84.1232529 126.2900162c-.7700195.75-1.9500122.9399414-3.0499878 1.0800781-8.0300293 1.0300217-16.1400146 1.4499435-24.2399902 1.2399826-.2800293-.0100098-.5900269-.0200195-.8100586-.1899414-.3199463-.2399902-.3499756-.6701584-.3499756-1.0500412-.0100098-1.4199219-.039978-2.8398438-.0700073-4.2600098 5.2000122 1.4599609 11.2000122 1.5400391 16.4299927.1799316 3-.7797852 4.2200317-1.7797852 4.5599976-4.8198242.3300171-2.9001465.2000122-5.920166.0100098-8.8300781-.7600098-11.8701172-2.0599976-23.6899414-2.6799927-35.6000977-.1799927-3.4299316 2.5599976-5.0297852 5.2200317-4.7998047.3799438 1.9499512.6699829 3.9299316.9499512 5.8999023 2.2000122 15.7199707 3.8400269 31.5200195 4.9000244 47.3500977.0900267 1.3298341.119995 2.8398438-.8699952 3.7998048z" fill="#d1d109"/></g><g><path d="m118.033226 75.8801041c-.2299805.0600586-.4699707.0998535-.7199707.130127-7.9100342.8198242-13.2700195 5.5097656-14.710022 13.3498535-1.3300171 7.2700195-1.0899658 15.0800781-.8800049 22.4699707-.5299683-10.9099121-1.4899902-21.8100586-2.8899536-32.6499023l.1099854-.880127c4.7799683-2.4299316 10.1799927-3.7697754 15.6099854-3.869873.8499756-.0100098 1.75.0200195 2.4699707.4399414.4300537.2499999.7499999.6098632 1.0100097 1.0100097z" fill="#ffc271"/></g><g><path d="m124.6732407 125.7499771c-.0100098 0-.0100098.0102539-.0100098.0200195-.4899902.5700684-1.0199585 1.0900879-1.5700073 1.5500488-.4299927.1501465-.8999634.2199707-1.3499756.2700195-6.1799927.8000412-12.4199829 1.1201096-18.6599731.9599533-.2200317-.0100098-.460022-.0197754-.6300049-.1499023-.2400513-.1799316-.2600098-.5100021-.2700195-.810051-.0200195-2.2299805-.0599976-4.4599609-.1300049-6.6899414.0999756 0 .210022.0100098.3200073.0300293 3.5899658.5698242 8.7299805 1.3398438 12.2600098-.130127 4.0799561-1.6899414 3.8699951-5.6499023 3.5999756-9.4399414-.5999756-8.329834-1.6599731-16.6499023-2.4899902-24.9599609-.3099976-3.1000977 1.8699951-4.6799316 4.2700195-4.7700195.4299927 1.8898926.7099609 3.8200684.9799805 5.7399902 1.7000122 12.1098633 2.960022 24.2700195 3.7799683 36.4599609.0400389.6301271.0700072 1.3200685-.0999757 1.919922z" fill="#f29214"/></g><g fill="#202020"><path d="m5.9764752 119.9294205c.6275024 2.9990234 1.8709106 5.9819336 4.08252 7.989502 1.093811.9887772 2.2955933 1.7233963 3.5842285 2.1757889 3.7605104 1.3122559 15.8960714 1.1492615 19.8762817.8681641.7692261-.0559082 1.4162598-.1174316 1.9604492-.1828613.5546875-.0600586 1.0377197-.151123 1.4104004-.2536621 1.5183716-.4577637 1.4989014-.8779297 1.4103394-1.1079102-.1008911-.2924805-.2697754-.4020996-1.5855713-.4677734-.338623-.0297852-.7529297-.0666504-1.2618408-.1115723-.5392456-.0427246-1.1783447-.0932617-1.9366455-.1533203-16.807312-1.1062012-18.5693302-1.0499191-21.0054321-3.3764725-1.4121704-1.3442383-2.3537598-3.496582-2.861084-6.1450195-.5001221-2.6359863-.749939-5.7980957-1.0395508-9.123291-.6771603-8.3861847-1.3657489-23.9781494-1.2582402-37.607666.0122437-1.8671799.1845484-21.1393967 1.0986943-23.1650352.2347412-.5256348.5217285-.8933105 1.0098267-1.2436523.4832153-.3425293 1.1292114-.630127 1.8765869-.8422852 5.3972845-1.5136108 15.9410219-1.5315781 21.4870605.1208496 1.6589355.496582 3.0631104 1.2441406 3.8286133 2.4440918.8660278 1.2329102 1.3131714 2.9416504 1.5291748 4.7185059.2264404 1.7832031.2261963 3.661377.1777954 5.5559082-.2868309 12.4071083 1.1400414 49.2437172 1.6763916 61.3164024.0889282 1.9333496.281311 3.5720215.1868286 4.8532715-.0446777.6398926-.1674194 1.1835938-.3632813 1.6125488-.1981201.4289627-.4772339.7236404-.7175903.9548416-.5147095.4289551-.8765869.5749512-.8417358.659668.0137329.0439453.4147949.0441895 1.0842896-.3210449.3178101-.2023926.7094727-.5046387 1.0175171-.9929199.3046875-.4846268.5169678-1.1115799.6350708-1.8103104.239624-1.4055176.1680298-3.0776367.2097778-4.9750977.0448227-3.4358139.3056793-67.0848846.2902222-67.2355957-.2254639-2.060791-.6702271-4.2680664-1.9979858-6.2851563-.6382446-1.0339355-1.6084595-1.904541-2.5892944-2.5305176-.996521-.6245117-2.0388184-1.0620117-3.0664063-1.3852539-3.7179279-1.1532478-10.5714703-2.0165405-17.7944336-1.3666992-.9640493.0935059-1.9224234.2021484-2.8708487.3452148-.9353638.1320801-1.9307251.2993164-2.9429932.5795898-1.0100098.279541-2.0700073.6901855-3.0697637 1.3798828-1.0015869.6716309-1.8866577 1.7468262-2.3613892 2.8505859-.4901733 1.1054688-.6731567 2.1818848-.7822266 3.152832-.1778657 1.6780891-.7183955 11.8402138-.7822874 21.5798302-.0857024 10.785244.6094429 37.3829002 2.6965322 47.5256386z"/><path d="m82.6877213 125.3051529c-1.9250488 1.5926819-24.7969437 1.9505157-24.8969765 1.9538574l-.2834473.0056152c-.0705566.0043945-.1387329-.043457-.1497192-.1125488-.4853706-14.4060211-1.0478554-29.5386276-3.7451782-49.4365234-1.0743408-7.9946289-2.0247192-12.8959961-2.2890625-12.8615723-.2932739.0378418.1251831 5.0046387.7123413 13.0253906 1.9398193 26.0868759 1.7597466 37.6247253 1.9483643 47.918457l.0030518 1.2287598c.0012207.7419434-.0158691 1.505867.2563477 2.1052322.2381592.6142578.7967529 1.1330566 1.4135742 1.3364258.3103638.1125488.6595459.1726074 1.0311279.1901855l1.0341187.0307617c2.5331383-.0045166 23.6058159.2911072 27.2379799-2.2275391.5291138-.376709 1.0008545-.89991 1.3193359-1.4636307.317688-.5646973.4929199-1.1420898.5922241-1.6687012.7941666-4.3672943-3.5070343-42.7707214-5.4710693-54.201416-.4919434-2.8417969-1.1225586-5.5041504-1.9794312-7.911129-.4577026-1.2121582-.8224487-2.2900391-1.5814209-3.5473633-.3842163-.6086426-.9017334-1.2312012-1.5812378-1.7109375-.6838989-.4902344-1.4613037-.7587891-2.1304932-.8859863-1.3720703-.2434082-2.3927612-.1242676-3.343811-.0895996-.9653931.0515137-1.8838501.1328125-2.7564087.234375-3.4924316.4067383-6.2440224 1.112793-8.4109535 1.7980957-4.3258057 1.4311523-6.3502197 2.7045898-7.3505249 3.4133301-.9845581.7524414-.9379883 1.027832-.8119507 1.2790527.1260986.2512207.3317871.4489708 1.4883423.1547852 1.1695557-.2526855 3.2781372-1.0710449 7.4432983-2.0720215 2.0862427-.4724121 4.6950722-.9736328 7.9591713-1.2111816.8154907-.0593262 1.6714478-.1008301 2.5685425-.1157227.9060059-.0151367 1.8543091-.0375977 2.4916382.1162109.3272095.0771484.5501099.1789551.729126.3186035.187561.1433105.3855591.3691406.5846558.7043457.3869019.6538086.7945557 1.7802734 1.1539307 2.8354454 2.9841156 8.7613373 7.509697 58.1798935 7.1452026 60.1826172-.0869142.4455569-.1752321.5524905-.3306886.6843264z"/><path d="m100.5092545 127.7883072c-.0094604.5808182.0797119 1.1098709.2923584 1.5398026.199646.4428711.626709.8405762 1.0606079 1.0224609.1107788.0490723.2249146.0927734.3478394.1257324 4.2947464.3487854 11.3997498.2915649 18.4456787-.4743652.6259155-.0722656 1.1642456-.1230469 1.8565674-.220459.6878662-.1157227 1.5580444-.2592773 2.494751-.90625.4662476-.3349609.8583984-.7692871 1.1420898-1.2653885.2788086-.4946289.4251709-.9838867.5096436-1.4267578.1613159-.887207.1083984-1.6101074.0762939-2.2077637-.0737305-1.144043-.1463623-2.2702637-.2175903-3.3759766-.5459671-8.0908203-2.908493-34.8930359-5.632019-42.4758301-.3638306-.9516602-.6397705-1.7763672-1.2670898-2.8139648-.3171997-.5002441-.7525024-1.0253906-1.3323975-1.4333496-.5847168-.4179688-1.2471313-.644043-1.8018799-.7475586-1.1411743-.197998-1.9356079-.0949707-2.6732178-.065918-.7514038.0439453-1.4659424.111084-2.1445313.1940918-2.7160645.3325195-4.8516846.8999023-6.5299072 1.4521484-3.3500977 1.1516113-4.8995361 2.1848145-5.6505737 2.7832031-.7384644.6318359-.673645.8984375-.5475464 1.1496582.1260376.2512207.3134766.4580078 1.223999.2839355.9202271-.1420898 2.553833-.7202148 5.7432861-1.4416504 1.5975342-.3393555 3.5904541-.7016602 6.078125-.8652344.62146-.0410156 1.2735596-.0683594 1.956665-.0756836.6925659-.0092773 1.4146729-.0153809 1.821106.0927734.2127075.0534668.3206177.112793.4005127.1801758.0878906.0717773.2036743.1999512.3357544.4267578.255249.434082.5740967 1.307373.8395996 2.1020508 2.275238 6.7467422 4.9116745 37.8353043 5.4623413 44.8962402.045105.5385742.0524292.9768066.0056763 1.2333984-.0579834.2753906-.0610352.2104492-.0753174.2473145-.0281982.0405273-.3449097.1762695-.8218384.2487793-.4830322.0778809-1.1329956.1564941-1.6987305.2319336-7.1007462.9092636-11.0966873.8866196-15.9212036.9938965l-.105835.0046387c-.1362305-.0021973-.2855835.0478516-.3150024-.0759277-.0125732-.0493164-.0132446-.1020508-.0200195-.1557617l-.0081177-.0812988c-.0030594-.1006393-.0755463-2.4897461-.0709229-2.3374023-1.0763779-27.1882019-4.3741989-45.0990372-4.9311523-45.0258789-.7320023.0943146 1.4687271 16.2461243 1.6682129 45.0859375l-.0005493 1.8569336z"/><path d="m17.721653 30.0969028c1.4674072 1.7663574 2.2794189 2.6372089 2.7929077 3.0407734.5233765.4001465.7822266.3110352 1.026001.1711426.2438354-.1398926.454834-.309082.3340454-.9855957-.1127319-.6833515-.5964966-1.8554707-1.8013306-3.8886738-2.4794636-4.3104763-8.4130096-11.5779648-8.7612295-16.3691406-.0276489-1.2912598.2706909-2.1418457 1.3962402-2.8623047 4.612731-2.9483595 17.5618362.0265675 22.2348633.828125 1.5519409.267334 3.0362549.6569824 3.9900513 1.3388672.9370728.6848145 1.2411499 1.4470215 1.12677 2.9384766-.3234253 3.098876-1.302124 6.2634268-2.6577148 8.9953604-2.708252 5.5510254-7.0927124 9.4746113-10.6392822 11.4160175-.8604126.4707031-1.6654663.7248535-2.321106.6616211-.6555786-.0466309-1.1794434-.4187012-1.5789185-.7980957-.786499-.7873535-1.1893311-1.3640137-1.3223877-1.2746582-.0979614.0644531.0162964.7185059.6923218 1.8005371.3418579.5146484.9599609 1.2111816 1.9902954 1.4633789 1.0176392.2575684 2.1586304.0092773 3.204834-.4138184 2.0469971-.871582 4.3306885-2.1875 6.52948-4.1311035.7529297-.651125 1.4830322-1.394289 2.1976318-2.177248.4923706.3513184.9904175.7067871 1.5090332 1.0766602 25.2374153 16.2255955 53.4953346 25.3611584 83.565979 23.9599628 2.0620728-.1137695 3.7231445-.1918945 5.0546875-.4040527 5.3296432-.7143555 5.4841843-1.2351074 5.436882-1.7949219-.0473022-.5603027-.3180542-1.0532227-5.5828171-1.0810547-1.3143311.0266113-2.9465332-.0629883-4.9639282-.0964355-31.9056168-.4403992-56.4643936-8.196003-82.3916626-22.3742695-.4578857-.2763672-.8939819-.5390625-1.3322754-.8034668.894104-1.1315918 1.7404785-2.3508301 2.4932251-3.6757813.8549805-1.46875 1.5614624-3.0688477 2.1571045-4.7351074.604248-1.6848145 1.0336304-3.378418 1.3165894-5.2556143.1174927-.9631348.1609497-2.1142578-.2475586-3.2910156-.3763428-1.1633301-1.1832275-2.1833496-2.0775146-2.8620605-1.814209-1.3588872-3.7322388-1.7883306-5.4315796-2.1652837-6.8654537-1.3938532-18.7015648-4.5499907-25.1361084-.5578613-1.0892334.6853036-2.0816651 1.7426767-2.6148076 2.9719252-.5462646 1.2268066-.6424561 2.4748535-.579895 3.5585938.5758876 6.138175 6.5002379 12.951066 10.3911738 17.776122z"/></g></g></svg>