<svg id="Layer_1" enable-background="new 0 0 135 135" height="512" viewBox="0 0 135 135" width="512" xmlns="http://www.w3.org/2000/svg"><g><g><path d="m86.3687744 50.0009079c-1.1699829 4.3500977-2.4700317 5.2001953-6.1500244 5.7001953-.8200073.1098633-1.7599487.2099609-2.8399658.3198242-5.4700317.5700684-10.9700317.9902344-16.4800453 1.25-4.75.2202148-11.539978 1.2602539-15.6099854-1.7900391-.5100098-.3798828-.9799805-.829834-1.3999634-1.3498535-1.6900024-2.1101074-2.6100464-5.2600098-3.1700439-8.5998535-.6799927-4.0900879-.8099976-8.4602051-1.1199951-11.5-.4799805-4.6601582-.9500122-11.2402363 2.6900024-14.710207.210022-.1899414.4200439-.3798828.6400146-.5598145.0300293-.0200195.0599976-.0500488.0900269-.0700684.5599976-.4099121 1.1999512-.75 1.9199829-1.0300293 6.0299683-2.2900391 15.5599976-2.0100098 22.0700111-2.0900879 3.5999756-.0500488 7.3899536.1000977 10.5499878 1.7299805 1.8699951.9602051 3.3900146 2.4001465 4.6400146 3.9899902.2099609.2600098.3999634.5200195.5899658.7800293 1.4400024 2 2.5200195 4.3000488 3.2999878 6.7600098 2.1800538 6.8701192 1.9600221 14.959963.2800294 21.1699239z" fill="#ef4136"/></g><g><path d="m39.3787804 109.9210739c-.1199951.7800293-.2700195 1.5300293-.4299927 2.25-.8600464 3.7700195-1.8300171 4.5300293-4.5800171 5.0400391-.6099854.119873-1.3099976.2199707-2.1199951.3498535-4.0800152.6000977-8.1799908 1.0900879-12.2899761 1.4301758-3.9900513.3498535-9.9000244 1.619873-12.710022-2.3100586-1.0599976-1.4899902-1.7299805-3.6201172-2.1500244-5.9501953-.3099976-1.5898438-.4899902-3.2697754-.6399536-4.8999023-.210022-2.3398438-.3100586-4.5800781-.4700317-6.3198242-.4400024-4.7802734-.8800049-11.920166 3.9500122-14.1801758 4.4799805-2.1000977 11.5899658-2.0800781 16.4500122-2.2998047 2.5899658-.1201172 5.289978-.0900879 7.5899658 1.0998535.1000347.0500488.2000103.0900879.2900372.1501465 1.6299438.9199219 2.8999634 2.3898926 3.9299927 3.9799805 3.6900023 5.7797851 4.3200072 14.6398925 3.1799926 21.659912z" fill="#2bb673"/></g><g><path d="m82.3187866 115.4210739c-4.7399902 1.8601074-12.25 1.6499023-17.3699951 1.7299805-2.8400307.0500488-5.8200111-.0700684-8.3000526-1.369873-1.5299683-.8100586-2.7599487-2.0302734-3.7599487-3.3701172-.1199951-.1499023-.2400513-.3100586-.3500366-.4699707-1.5199585-2.1799316-2.539978-4.7900391-3.1300049-7.5700684-1.0899658-5.0300293-.7999878-10.5800781.3699951-14.9699707.9300537-3.5200195 1.9500122-4.2099609 4.8500366-4.619873.6499634-.0900879 1.3900146-.170166 2.2399902-.2602539 4.2999878-.4699707 8.6300087-.8198242 12.9699745-1.0400391 4.210022-.2099609 10.4500122-1.2597656 13.3800049 2.5.7700195.9902344 1.3400269 2.2602539 1.7600098 3.6801758 1.210022 4.0200195 1.2600098 9.2399902 1.5800171 12.5300293.0999756 1.0100098.1900024 2.1298828.2199707 3.2800293.1300048 3.9999999-.5 8.3999023-4.459961 9.9499511z" fill="#2bb673"/></g><g><path d="m128.6487427 113.9210739c-3.7399902 2.6499023-11.6199951 2.5400391-16.0299683 2.8898926-4.460022.3601074-11.1099854.6899414-13.1300049-3.9399414-.4199829-.9599609-.7299805-2.0400391-.9699707-3.1999512-.3800049-1.7800293-.5700073-3.7299805-.6800537-5.670166-.1399536-2.4399414-.1499634-4.8498535-.1999512-6.8498535-.0700073-2.5700684.0199585-5.2600098 1.2999878-7.4899902.8800049-1.5500488 2.2600098-2.7399902 3.7600098-3.6899414 6.0299683-3.8300781 15.539978-4.0100098 22.289978-2.3200684 1.7000122.4199219 2.7299805.8601074 3.3900146 1.5.2299805.2099609.3999634.4399414.5499878.6999512.3300171.5800781.5100098 1.2900391.6699829 2.2299805.0900269.5800781.1799927 1.25.2800293 2.0200195.5 3.8999023.8800049 7.8200684 1.1300049 11.7399902.2500001 3.8100586 1.3299561 9.4699707-2.3600463 12.0800781z" fill="#2bb673"/></g><g><path d="m82.1987915 21.2909451c-1.6900024.0800781-3.3699951.1401367-5.0300293.0400391-5.3900146-.2998047-10.7700195-1.1599121-16.1499672-.2099609-10.0700073 1.8000488-18.8700562 9.1401367-17.9000244 20.0700703.1900024 2.2199707-.8800049 3.6699219-2.4000244 4.3400879-.6799927-4.0900879-.8099976-8.4602051-1.1199951-11.5-.4799805-4.6601582-.9500122-11.2402363 2.6900024-14.710207.210022-.1899414.4200439-.3798828.6400146-.5598145.0300293-.0200195.0599976-.0500488.0900269-.0700684.5599976-.4099121 1.1999512-.75 1.9199829-1.0300293 6.0299683-2.2900391 15.5599976-2.0100098 22.0700111-2.0900879 3.5999756-.0500488 7.3899536.1000977 10.5499878 1.7299805 1.8699952.960205 3.3900147 2.4001464 4.6400147 3.9899902z" fill="#ff7b78"/></g><g><path d="m86.3687744 50.0009079c-1.1699829 4.3500977-2.4700317 5.2001953-6.1500244 5.7001953-.8200073.1098633-1.7599487.2099609-2.8399658.3198242-5.4700317.5700684-10.9700317.9902344-16.4800453 1.25-4.75.2202148-11.539978 1.2602539-15.6099854-1.7900391 2.7200317-.0197754 5.4400024-.119873 8.1600342-.2998047 5.2699585-.3300781 10.8299599-.5800781 15.7899818-2.5500488 8.5200195-3.380127 14.7600098-11.8300781 15.6599731-20.909914.1200562-1.1801758.5600586-2.1501465 1.1900024-2.8901367 2.1800538 6.8701191 1.9600221 14.9599629.2800294 21.1699238z" fill="#dd2824"/></g><g><path d="m31.9785538 84.1276169c-13.8131943-.7203064-25.6337738 8.7689819-27.5182724 21.7004929-.207243-2.3368378-.3128738-4.5754318-.4704835-6.313385-.4361931-4.783455-.8798469-11.9274522 3.9448468-14.1844178 4.487155-2.1016693 11.5984707-2.0746536 16.455452-2.3020935 2.5884304-.1210251 5.2893085-.0841446 7.5884571 1.0994034z" fill="#46db90"/></g><g><path d="m84.9787598 89.6610641c-11.6599731-.5-34.409977-4.1101074-34.2299843 11.25.0200195 1.5100098-.5100098 2.6599121-1.3400269 3.4599609-1.0899658-5.0300293-.7999878-10.5800781.3699951-14.9699707.9300537-3.5200195 1.9500122-4.2099609 4.8500366-4.619873.6499634-.0900879 1.3900146-.170166 2.2399902-.2602539 4.2999878-.4699707 8.6300087-.8198242 12.9699745-1.0400391 4.210022-.2099609 10.4500122-1.2597656 13.3800049 2.5.7700196.9902344 1.340027 2.260254 1.7600099 3.6801758z" fill="#46db90"/></g><g><path d="m128.928772 85.8510056c-12.9699707.6601563-26.7000122 5.2399902-31.0900269 18.1499023-.1399536-2.4399414-.1499634-4.8498535-.1999512-6.8498535-.0700073-2.5700684.0199585-5.2600098 1.2999878-7.4899902.8800049-1.5500488 2.2600098-2.7399902 3.7600098-3.6899414 6.0299683-3.8300781 15.539978-4.0100098 22.289978-2.3200684 2.25.5600586 3.3400269 1.1499023 3.9400025 2.1999512z" fill="#46db90"/></g><g><path d="m39.3787804 109.9210739c-.1199951.7800293-.2700195 1.5300293-.4299927 2.25-.8600464 3.7700195-1.8300171 4.5300293-4.5800171 5.0400391-.6099854.119873-1.3099976.2199707-2.1199951.3498535-4.0800152.6000977-8.1799908 1.0900879-12.2899761 1.4301758-3.9900513.3498535-9.9000244 1.619873-12.710022-2.3100586-1.0599976-1.4899902-1.7299805-3.6201172-2.1500244-5.9501953.4400024-.0197754.9100342.0102539 1.4000244.1101074 10.9899902 2.2600098 22.0700073 1.8898926 32.880003-.9199219z" fill="#19a35e"/></g><g><path d="m82.3187866 115.4210739c-4.7399902 1.8601074-12.25 1.6499023-17.3699951 1.7299805-2.8400307.0500488-5.8200111-.0700684-8.3000526-1.369873-1.5299683-.8100586-2.7599487-2.0302734-3.7599487-3.3701172.5199585-.1801758 1.1099854-.2600098 1.7699585-.2399902 10.0300331.329834 21.5400429.8999023 29.910038-5.6599121.7099609-.5500488 1.4599609-.8901367 2.2099609-1.0400391.1300048 3.9999999-.5 8.3999023-4.459961 9.9499511z" fill="#19a35e"/></g><g><path d="m128.6487427 113.9210739c-3.7399902 2.6499023-11.6199951 2.5400391-16.0299683 2.8898926-4.460022.3601074-11.1099854.6899414-13.1300049-3.9399414-.4199829-.9599609-.7299805-2.0400391-.9699707-3.1999512.75-.1501465 1.5999756-.0800781 2.5299683.2900391 5.8499756 2.2897949 13.3699951 3.6398926 19.3200073.7897949 6.460022-3.0898438 5.6900024-13.8898926 4.6300049-19.7397461-.5200195-2.8901367 1.2299805-5.0200195 3.3800049-5.8601074.2299805.2099609.3999634.4399414.5499878.6999512.3300171.5800781.5100098 1.2900391.6699829 2.2299805.0900269.5800781.1799927 1.25.2800293 2.0200195.5 3.8999023.8800049 7.8200684 1.1300049 11.7399902.25 3.8100586 1.329956 9.4699707-2.3600464 12.0800781z" fill="#19a35e"/></g><path d="m130.4911041 88.7594528c-.3444824-.7141113-.6159668-.7229004-.8934326-.6779785-.2775269.045166-.5338745.1464844-.6741943.9138184-.805603 5.1101074 1.4935455 18.1468277-.1165771 21.7324219-.2634888.5776367-.6275635 1.043457-1.1149979 1.4277344-3.2291794 2.5012894-20.4945068 3.5959091-24.1674194 2.0078125-.6177979-.279541-1.1607666-.6247559-1.5751343-1.0646973-.3988037-.4643555-.6699829-.9538574-.9788818-1.7893066-1.0660248-2.9843674-3.1674271-17.9191437-.003479-21.8293457 1.0195923-1.3095703 2.5636597-2.3671875 4.1237183-3.1728516 3.1853027-1.611084 6.7412109-2.2631836 9.9506836-2.5087891 3.2310791-.2194824 6.1808472-.0166016 8.6158447.3642578 1.2177734.2004395 2.3190308.4118652 3.1873169.7224121.8696289.3110352 1.4490433.7487793 1.7847366 1.2871094.3466187.5292969.5172729 1.0551758.6612549 1.3935547.1376953.345459.2364502.527832.3071289.5158691.0679321-.0112305.1066284-.2150879.1008301-.5993652-.017395-.3820801-.0448608-.9567871-.3415527-1.6896973-.2723999-.7495117-1.0448608-1.5378418-2.0228958-2.0151367-.9754028-.4934082-2.1030884-.8330078-3.3518677-1.1662598-1.9924927-.5117188-4.350708-.8916016-6.9599609-1.026123.0765991-.2773438.1481934-.6047363.2160645-.9924316.2055054-1.3586426.0664063-3.6342773-1.4606934-5.8085938-1.505127-2.1740723-4.0991211-3.9328613-7.1843872-5.1970215-1.6088867-.6298828-3.3673706-.9724121-5.1343384-1.1828613-1.772644-.2121582-3.5418091-.3256836-5.3840332-.4787598-8.1425323-.6342926-18.890976-.9395981-31.2658081-.5673828-.2285156-1.3916016-.4882813-2.7980957-.7693481-4.1093712-.3814697-1.7966309-.800415-3.4104004-1.1932373-4.5656738.3023071-.0292969.6241455-.060791.9147949-.0891113 2.8336182-.2875977 5.1153564-.5439453 6.9518433-.7756348 1.8365479-.2314453 3.2279053-.4379883 4.2810669-.6264648 1.0539551-.1906738 1.7745361-.4150391 2.2567139-.5837402.9662476-.3540039 1.0010986-.6274414.963501-.9060059-.0375366-.2785645-.1495361-.5354004-1.1593018-.6669922-.5073853-.0737305-1.2271118-.0825195-2.2929077-.1083984-1.0669556-.0280762-2.4656372-.0234375-4.3000488.0229492-22.6695862.5732613-27.7304955 4.0638809-29.9118042-10.8266602-.3283157-2.3169098-1.2638855-13.5275669-1.2437134-15.7868671.0407104-2.0175781.284729-4.1264648 1.1138916-5.8398438 1.0580482-2.1142578 2.3686142-2.7616978 4.4295654-3.4245605 5.9498215-1.8069782 20.8739471-1.8627911 23.1882935-1.7790527 5.4730682.1681137 8.9919891 1.6507511 12.1243896 6.4421387 4.4877243 6.7229481 5.2064819 16.5129795 3.8324585 24.4541035-.3123779 1.6123047-.6287231 3.0791016-1.118042 4.2163086-.4765015 1.1491699-1.2126465 1.8479004-1.9938354 2.2468262-.7849731.388916-1.4926758.576416-1.958313.7304688-.4719238.1452637-.720459.2487793-.7106323.3195801.0094604.0683594.2759399.1027832.7803955.0910645.5031738-.0246582 1.2507935-.0712891 2.2112427-.3864746.4741211-.1733398 1.0022583-.4365234 1.491333-.8566895.4901123-.4172363.9190063-.9775391 1.2645874-1.6062012.6898804-1.2666016 1.1328735-2.7624512 1.5819702-4.416748 2.1180267-8.5139503 1.6187286-18.8792477-2.9597778-26.350832-3.4898529-5.731451-7.8274078-7.8655462-14.387207-8.2568359-1.8288422-.11654-17.3627625-.5983171-24.4592285 1.425293-.3321533.0861816-.6641846.2133789-.9944458.3188477-.4444427 1.2699757-10.6821709-1.6364565-6.2037964 29.031496 1.1152725 7.1274834 2.9846687 12.5999413 9.9273071 14.2971191 3.9420204.9577332 9.1254807.3987427 14.81073-.15625-.0944824 1.213623-.1135864 2.8857422-.1002197 4.7280273.0115356 1.2573204.0388794 2.5939903.0778198 3.9184532-10.3630829.4029236-21.7197723 1.2923126-31.9612408 2.2861328-6.3499012.555336-11.9097271 2.8723297-13.06427 9.0935059-.1589966.8378906-.1290894 1.4277344-.0716553 1.8239746.0771484.4018555.1849365.6142578.3082886.7294922-1.1381226.0388184-2.2785645.0986328-3.4187021.1987305-2.1911011.206543-4.3884277.5351563-6.557312 1.2788086-1.0239253.3476563-2.3157954.9677734-3.2808223 1.8540039-.9738159.8942871-1.6386108 1.9755859-2.1220093 3.0339355-2.7017841 6.2521591-.3299894 23.2565155.7318726 26.5324707.3989258 1.1582031.8965454 2.2922363 1.640564 3.3513184.7688599 1.098877 1.8552246 1.9396973 2.9375606 2.4694824 2.2124023 1.0617676 4.2634888 1.0957031 5.9873047 1.078125 2.6993666-.0649872 16.6169128-1.705513 19.005127-2.8955078.7583008-.3552246.7687378-.6271973.7218628-.904541-.046875-.2770996-.1532593-.5324707-.9667969-.6618652-5.8383598-.7734222-19.3896027 1.8249969-22.9932251-.0874023-.5883789-.3129883-1.0906372-.7089844-1.4768066-1.2832031-.4091187-.6083984-.7679439-1.4084473-1.0635982-2.3071289-1.2169657-3.8795776-2.6447392-19.4935913-.8679199-23.6940918.3009033-.675293.6694946-1.2832031 1.1498413-1.7409668.5031734-.4477539 1.0280147-.7485352 1.9144893-1.0849609 1.6690063-.6132813 3.6108398-.970459 5.619751-1.2053223 2.0179453-.2268066 4.1160288-.3349609 6.2564707-.4135742 4.2495384-.1624451 8.4363537-.7250519 11.2469463 1.7475586 5.6625252 4.8329239 6.5812988 16.4839935 5.3355713 24.3779297-.2129517 1.2961426-.4390259 2.4667969-.7675171 3.3974609-.3295898.9313965-.7901001 1.5693359-1.3619385 1.9296875-.55896.3769531-1.1182861.5568848-1.4771729.7087402-.3665771.1450195-.5605469.246582-.5480957.3171387.0117798.067627.2276611.1035156.6347656.0900879.4039917-.0258789 1.0144653-.0622559 1.7826538-.3950195.7890625-.3049316 1.5892334-1.1374512 2.0817261-2.1706543.5083008-1.0336914.8626099-2.2302246 1.2077637-3.5554199 2.2088966-8.7552338 1.5099716-21.1178131-4.7890015-27.0388184-.8893433-.8378906-2.0055542-1.5588379-3.1787701-2.0202637-3.1291142-1.253273-6.6373711-.9971619-10.2485352-.9685059-.7427368.0056152-1.4905396.026123-2.2374268.0441895.1160278-.097168.2346802-.2368164.3620605-.4853516 2.9054699-4.7947159 3.3945274-6.9727249 11.8693237-7.4035645 23.6507359-1.5586777 24.7089024-1.6454544 31.8193951-2.0273438.0529175 1.0126953.1121216 1.9560547.1780396 2.7553711.3302612 4.1298828.677063 6.5734863 1.0501709 8.0170898-1.5935669.1877441-2.9421387.3615723-4.0718384.5236816-2.9214478.4091797-4.4291992.762207-5.1964111 1.1186523-.7634888.3354492-.7817383.6071777-.7425537.885498s.1378174.536377.9468384.6865234c.8013306.1303711 2.3307495.2165527 5.2554932.177002 1.460083-.0244141 3.2658691-.0854492 5.5-.190918 1.1175537-.0581055 2.3430786-.1218262 3.6869507-.1916504 1.4099121-.0439453 2.868103-.1577148 4.3943481-.182373 1.5144653-.0192871 3.1324463.0344238 4.5944824.4511719.7202148.2165527 1.382019.5222168 1.921875.9475098.2764282.2080078.4985352.467041.730957.7351074 2.8818283 4.2554398 3.8569565 20.7576599 2.2634888 24.1357422-.3098145.6359863-.7059937 1.1716309-1.2050171 1.598877-3.2328796 2.557869-21.8640671 3.4795685-25.7391968 1.2077637-1.5230713-.8754883-2.8201294-2.3310547-3.8154297-3.9116211-3.3971634-5.3460541-3.9418678-13.1333542-2.9262085-19.3874512.2315063-1.2819824.4677124-2.4472656.8284302-3.3474121.3553467-.9055176.8845215-1.4628906 1.4828491-1.7956543 1.2355347-.621582 2.1245117-.7634277 2.0801392-.9326172-.0098877-.0683594-.2241821-.1088867-.6293945-.1101074-.4042969.0097656-1.005127.034668-1.7857056.293457-.7841797.2441406-1.7008667.9785156-2.2382813 2.0180664-.5567627 1.0236816-.920105 2.2177734-1.2874146 3.5390625-1.7193718 6.6787186-1.4944344 15.0491333 2.0097656 21.2102051 1.0932007 1.9008789 2.5439453 3.7624512 4.6466675 5.1081543 5.6233444 3.5775681 25.5399628 2.5647507 29.8286743-.8046875 1.0299683-.8242188 1.80896-1.8759766 2.3401489-2.9455566 2.5952759-5.4311371.8088989-21.7514648-1.6689453-26.6403809-.2860718-.5754395-.6538086-1.1296387-1.0447388-1.6623535-.4442139-.5305176-.918335-1.0285645-1.4550171-1.4265137-1.0626831-.807373-2.2194214-1.2814941-3.2985229-1.5776367-2.1741943-.5554199-4.0736694-.5183105-5.7567139-.4533691-1.6821899.0825195-3.1617432.2573242-4.4584961.3564453-.6815186.072998-1.3325806.1425781-1.9552002.2089844.1376343-1.4973145.0956421-3.9523926-.2277222-7.9963379-.0631104-.7661133-.1591797-1.6608887-.277771-2.6206055 9.8976898-.4795227 20.7300339-.7473602 30.5564575-.4770508 3.6550293.1286621 7.1394653.0461426 9.8989258.9306641 2.8442993.9445801 5.2714844 2.3388672 6.6906128 4.017334 1.4486694 1.6730957 1.8293457 3.5317383 1.8980103 4.8061523.015564.390625.0150757.7248535.0119629 1.0114746-.4893188-.0175781-.9689941-.0456543-1.4751587-.0441895-3.4331665.0478516-7.3009644.4970703-11.1096802 2.1875-1.885376.8757324-3.7536621 1.9831543-5.3000488 3.7666016-.7692261.8789063-1.3984985 1.9714355-1.7974854 3.0834961-1.4207001 3.8868561-1.2310638 16.6531296.5497437 22.0285645.3190918.9692383.8845825 2.2043457 1.7177734 3.145752.8435059.942627 1.8709106 1.6018066 2.881958 2.0712891 5.2975998 2.3393402 23.7213516 1.0939713 28.2810745-2.5888672.99646-.8095703 1.7459106-1.8718262 2.1868286-2.9191895 2.4122923-5.9021914-1.3920747-22.5948336-1.8742067-23.5385745z" fill="#202020"/></g></svg>