<svg id="Layer_1" enable-background="new 0 0 135 135" height="512" viewBox="0 0 135 135" width="512" xmlns="http://www.w3.org/2000/svg"><g><g><path d="m128.9845581 40.6268692c-.3799438 3.3999023-1.6299438 6.5297852-3.3699951 9.449707-2.3899536 4.0102539-5.7099609 7.6201172-9 10.9702148-9.2099609 9.3598633-19 18.25-30.0299683 25.3798828-7.8200073 5.0498047-16.210022 9.1601563-24.7700233 12.7700195-.4400024.2001953-.8900146.3798828-1.3300171.5698242-3.3399658 1.3901367-6.6999512 2.7202148-10.0799561 4-1.1500244.4399414-2.2999878.8701172-3.460022 1.300293-3.7999878 1.409668-9.5100098 2.3999023-12.3399658 5.4697266-1.2900391 1.4101563-2.4500122 2.9301758-3.460022 4.550293l-8.1500244-15.4902344c.8600464-6.5200195 1.9800415-13 3.3800049-19.4301758.3599854-1.7099609.75-3.409668 1.1500244-5.1098633.4799805-2.0200195 1-4.0698242 1.7399902-6 .6300049-1.659668 1.4099731-3.2299805 2.4699707-4.6499023.9100342-1.2197266 2-2.2998047 3.1500244-3.2998047.6799927-.6000977 1.3699951-1.1601563 2.0599976-1.7299805 18.6799927-15.2802733 37.8800088-29.9301776 57.5399819-43.9101571 3.0400391-2.1601563 6.3100586-4.3798828 10.0300293-4.5102539 1-.0400391 1.9899902.0800781 2.9500122.3203125h.0100098c.4099731.1000977.8200073.2197266 1.2199707.3598633 2.0800171.7402344 4.0499878 1.9599609 5.8500366 3.2602539 1.8499756 1.3295889 3.6499634 2.8295889 5.3099976 4.4799795.0799561.0795898.1699829.159668.25.2397461.0099487 0 .0099487 0 .0099487.0102539 5.710022 5.7299805 9.7400513 13.1298847 8.8699951 21.0000019z" fill="#2bb673"/></g><g><path d="m33.0145836 111.7967911c-2 2.9799805-4 5.949707-6.0100098 8.9296875-.6599731.9799805-1.3599854 1.9902344-2.4400024 2.5800781-1.2799683.6899414-2.8599854.6499023-4.3399658.590332-1.1300049-.0400391-5.2200317.1396484-8.7700195-.0200195-3.0700073-.1401367-5.7299805-.550293-5.6900024-1.590332.0300293-.7597656.5900269-1.3999023 1.1199951-1.9897461 5.5200195-6.0302734 11.3400269-11.8203125 17.460022-17.3500977l2.6799927 2.7402344z" fill="#fff200"/></g><g><path d="m128.9845581 40.6268692c-.3799438 3.3999023-1.6299438 6.5297852-3.3699951 9.449707-12.6399536-4.3598633-23.8499756-12.5400391-30.2799683-23.9697285-20.3599854 7.5698261-38.7899818 19.9096699-55.4000282 34.0498047-1.6099854 1.3701172-3.4699707 1.5200195-5.0499878.9501953.6799927-.6000977 1.3699951-1.1601563 2.0599976-1.7299805 18.6799926-15.2802714 37.8800087-29.9301757 57.5399818-43.9101552 3.0400391-2.1601563 6.3100586-4.3798828 10.0300293-4.5102539 1-.0400391 1.9899902.0800781 2.9500122.3203125h.0100098c.2799683.1499023.5599976.2998047.8299561.449707.1300049-.0297852.2600098-.0600586.3900146-.0898438 2.0800171.7402344 4.0499878 1.9599609 5.8500366 3.2602539 1.8499756 1.3295889 3.6499634 2.8295889 5.3099976 4.4799795-.0100098.0097656-.0200195.0097656-.0300293.0200195.0900269.0698242.1900024.1499023.2800293.2197266.0099487 0 .0099487 0 .0099487.0102539 5.710022 5.7299806 9.7400513 13.1298848 8.8699951 21.000002z" fill="#58e09b"/></g><g><path d="m60.4845543 99.7665176c-3.3399658 1.3901367-6.6999512 2.7202148-10.0799561 4-9.0200195-6.6298828-16.1600341-15.5498046-24.0300293-23.6000976.3599854-1.7099609.75-3.409668 1.1500244-5.1098633.4799805-2.0200195 1-4.0698242 1.7399902-6 .210022.1401367.4099731.300293.5999756.4902344 10.5300294 9.9897461 31.0599976 30.0297851 30.6199952 30.2197265z" fill="#58e09b"/></g><g><path d="m27.0245934 105.6869278c-5.4700317 5.8198242-10.6900024 11.8696289-15.5700073 18.1899414-3.0700073-.1401367-5.7299805-.550293-5.6900024-1.590332.0300293-.7597656.5900269-1.3999023 1.1199951-1.9897461 5.5200195-6.0302734 11.3400269-11.8203125 17.460022-17.3500977z" fill="#f9ef75"/></g><path d="m4.5349193 120.3434219c-.3735962.5942383-.5807495 1.2143555-.6275024 1.8369141.0026245.2138672-.012207.4375.069519.6401367.0122681.2250977.0931396.4335938.1937866.6298828.1807251.3984375.4985962.6845703.8210449.9697266 2.382957 1.7715302 17.5171165 1.681633 19.3042603 1.137207.7012329-.2099609 1.4215698-.5786133 1.9814453-1.0151367.5655518-.4345703.9962769-.909668 1.3452759-1.3515625.8224487-1.0683289 3.7093239-5.7032852 4.9141235-8.1049805.3198242-.6376953.5374756-1.1386719.6799927-1.5410156.2601318-.2763672.5462036-.5805664.8934326-.949707.2440186-.2490234.5108032-.5209961.8024292-.8188477.1486206-.1450195.3035889-.296875.4651489-.4550781.1536865-.1328125.3136597-.2714844.4802246-.4155273 2.71455-2.2552109 4.6647339-1.7901306 19.6468506-7.3779297 5.0893555-1.8642578 11.1329346-4.2490234 18.1271362-7.6582031 12.8215179-6.2263336 23.5029449-13.5289993 36.1316528-25.2973633 7.5812149-7.0631981 16.7243423-15.5523987 19.9606247-24.4101524.7668457-2.1318359 1.2966309-4.4633789 1.3568115-6.8852539.4443817-13.1022053-12.1987839-25.7126694-21.3148117-29.2392578-6.2116394-2.3270049-10.6390305-.0491228-15.8925171 3.6674805-12.8586802 9.2593287-24.6763224 18.1994494-36.6393427 27.6606444-7.675415 6.0810547-14.8938599 11.9868164-21.3925781 17.4448242-1.6289063 1.3706055-3.2533569 2.7944336-4.5736694 4.4829102-1.3267822 1.6948204-2.237915 3.570797-2.9053345 5.4003868-.6686401 1.8359375-1.1174927 3.640625-1.5075684 5.359375-.3839111 1.7182617-.7331543 3.3632813-1.046875 4.9414063-1.260498 6.3076172-2.0048828 11.4589844-2.4255981 15.0273438-.4193726 3.5688477-.5197144 5.5561523-.3867188 5.5737305.145752.019043.5182495-1.9316406 1.1977539-5.4482422.6808472-3.515625 1.6733398-8.5981445 3.1628418-14.8129883.7839355-3.0883789 1.5003052-6.5644531 2.819397-9.9472656.0045166-.0112305.0100708-.0224609.0146484-.0336914.8486328 1.7729492 2.4456787 4.5507813 4.3970947 7.6230469 5.3372765 8.3471603 12.2078209 16.975441 20.6772461 22.0488281.3658447.2104492.6967163.3984375 1.0010376.5585938-.6852417.277832-1.3568115.546875-2.0108032.8066406-1.6717529.6855469-3.2258301 1.3222656-4.687439 1.9213867-.1575317-.1518555-.3609619-.3154297-.6376343-.5141602-2.3895302-1.8090973-15.1016693-14.3113403-15.9110107-15.1171875-2.9987793-2.9492188-5.4384766-5.3969727-5.8969727-5.0541992-.442749.3291016 1.2020264 3.4169922 3.7023926 6.9189453 3.109066 4.4104309 10.5603485 12.9638901 15.0812988 15.2524414-3.0258446 1.1424561-7.7561417 2.2714615-10.7720947 4.7021484-.1116333-.1210938-.2494507-.2348633-.4411621-.3334961-.6713867-.4311523-1.9492188-.5810547-4.2072754-1.8930664-1.2320557-.703125-3.1279297-2.1098633-4.5062866-3.7050781-1.44104-1.5288086-2.4041748-3.1108398-2.9633789-2.9350586-.4569092.1289063-.4987183 1.7709961.2391357 3.7583008-1.2354126.7695313-3.4087524 2.4365234-6.0281372 4.6674805-2.3536615 2.0019454-11.4385919 10.2634276-12.6918949 12.2846678zm91.4039921-103.7128868c4.209938-2.9309378 7.7366714-4.9722691 12.4854736-3.0888681 7.1574097 2.8313341 23.0667496 16.5071678 17.491272 31.2387695-.6102295 1.6616211-1.4137573 3.2167969-2.3206177 4.684082-.3522949-.1904297-.7416382-.4018555-1.1903687-.6152344-.8129883-.3706055-1.7458496-.8930664-2.8693237-1.4824219-13.3527603-7.3658257-19.8880539-15.9252968-26.8141479-26.2915039-.354187-.5776367-.6713867-1.074707-.9546509-1.496582 1.3912354-.9853505 2.782898-1.9731435 4.1723633-2.9482412zm-37.2606201 80.93359c-8.243885-7.0945816-11.1715393-9.5414276-21.7639771-22.284668-2.5896606-3.1357422-4.8726196-5.8666992-6.1928711-7.1484375.5848389-1.2407227 1.2978516-2.4355469 2.1925049-3.5146484 1.1981201-1.4497032 2.7288818-2.735836 4.3726196-4.0458946 6.6174927-5.2753906 13.9476318-11.012207 21.7143555-16.9306641 11.7065201-8.9048958 21.5114288-16.0767269 31.8101807-23.3857422.1323242.4482422.2946167.9555664.4888306 1.5234375 4.6768188 12.1383667 14.2578888 23.380764 26.5866699 28.9599609 1.2611694.5419922 2.3203125.9819336 3.2520752 1.2426758.2155151.0634766.4185181.1254883.6142578.1845703-3.4387054 4.5939255-10.6137619 11.5697594-14.7553101 15.4467735-14.7352371 13.7952271-27.4891281 22.2281723-47.6043701 30.6806641-.1842651-.2143555-.4076538-.4487305-.7149658-.7280273zm-50.3937378 23.9282226.0234985-.0532227c.0137939-.0239258-.0203247.0053711.1564941-.1953125 4.130476-4.7522202 4.8653965-5.5281754 10.3273315-11.565918 2.137207-2.3447266 3.8743896-4.2578125 4.8121948-5.4438477.9678345 2.28125 3.062439 4.5517578 4.7765503 5.5253906 1.5610352.9448242 2.9542847 1.3178711 4.0009155 1.4536133.1159668.0136719.2133179.0136719.3215332.0214844-.0303955.043457-.0709229.0947266-.1002808.137207-.0605469.0878906-.1029053.1591797-.1589966.2431641-.4246216.0380859-1.0623169.4545898-2.2963257 1.8632813-2.1517849 2.4563599-4.9329166 6.5510025-5.5361328 7.2509766-.2335205.2709961-.467041.4941406-.6965332.6542969-.2317505.1606445-.4442749.262207-.7643433.3520508-.6265259.1821289-1.5683594.2016602-2.7496338.1430664-1.215786-.0331421 4.4196606.05159-11.9241943-.2250977-.0354004.0068359-.1876221.034668-.2059326-.0654297-.0046995-.0302734.001343-.0620117.0138552-.0957031z" fill="#202020"/></g></svg>