<svg id="Layer_1" enable-background="new 0 0 135 135" height="512" viewBox="0 0 135 135" width="512" xmlns="http://www.w3.org/2000/svg"><g><g><path d="m34.9276695 99.2370987c4.2293053-8.1845627 11.831234-14.8107681 20.1878281-20.7986221 6.7464828-4.83004 10.924778-13.492157-2.9694862-25.8674355-3.1722832-2.794136-6.4945183-5.5483131-9.1628761-8.7020721-5.6384583-6.6271782-8.2564201-14.331274-9.112484-22.3550339-1.0570183-9.6201296 8.306816-18.0035114 20.5405769-18.0035114h15.0022926 15.0022888c12.2337646 0 21.5975952 8.3833818 20.5405807 18.0035114-.8560638 8.0237598-3.4740295 15.7278557-9.1124878 22.3550339-2.6683578 3.153759-5.990593 5.9079361-9.1628799 8.7020721-13.8942642 12.3752785-9.7159653 21.0373955-2.9694824 25.8674355 8.3565903 5.987854 15.9585266 12.6140594 20.1878281 20.7986221 2.3660049 4.6302567 3.5741959 9.5002594 3.9767227 14.4501724.8560638 9.501236-8.5587769 17.5639801-20.5399628 17.5639801h-17.9226074-17.922615c-11.9811821 0-21.3960228-8.0627441-20.5399609-17.5639801.4025269-4.949913 1.6107235-9.8199158 3.9767246-14.4501724z" fill="#9ee5e3"/></g><g><path d="m30.8357639 113.5743179c.4224644-4.9547806 1.644392-9.8109131 4.0208378-14.4345703 4.2544022-8.1753922 11.8803978-14.785141 20.2659073-20.7414093 2.1835022-1.5582886 4.1000595-3.5127563 5.2282372-5.8729019.2546616-.5327072.7137489-.9323196 1.2609253-1.1632767.1905708-.5541.3882332-1.0015945.3744621-1.1497269-.3498611-3.7865067-.8138695-7.686409-2.7637558-11.0057373-1.2633553-2.1499672-7.7130775-7.1051178-9.4956779-8.8927422-6.3328552-6.3512421-9.5325089-9.3103104-12.4664154-17.3941345-.4310379-1.1876431-2.6106911-5.4888077-1.6493225-4.6259956 11.1161728 9.9768448 52.9971008 17.6690254 67.4415359-.1135101.8126831-1.0003338.426178 2.7724991.0743027 3.991024-.6171646 2.1371918-1.8640976 4.1303177-3.2824478 5.9156952-1.9429626 2.4454575-4.2430496 4.6304855-6.0542831 7.1655388-.7486801 1.047924-1.4154358 2.1576233-2.3089752 3.0976601-.8381729.8819084-1.8536835 1.5910606-2.8450699 2.3155975-5.6978378 4.163105-11.151535 9.6417007-11.7055511 16.4702873-.1089172 1.3424225-.884079 2.564621-2.135582 3.1967239-.0331116.0167236-.0661392.0333862-.0990829.0499878-5.5571671 2.800209-9.5988235 7.7529907-10.9387894 13.5913162-2.8430061 12.3871536.369072 31.4402924 43.689888 34.0725632 1.985672.1204147-7.1331024 10.3501587-5.4302902 9.5402985-4.5200043 2.1497498-54.5273323-1.6062012-64.8623199-2.4091415-1.254921-.097496-2.4277344-.6673203-3.1880722-1.6206436-2.283066-2.8625489-3.46579-6.3207245-3.130461-9.9829026z" fill="#6fcccf"/></g><g><path d="m109.3937607 120.2636795v6.5302734c-.5700073 1.8496017-1.9700317 3.3398361-3.7700195 4.0297775h-74.9299965c-1.4799805-.5698242-2.6900024-1.6801758-3.3900146-3.0898361-.4299927-.8500977-.6699829-1.8100586-.6699829-2.8300781v-2.75c0-3.5200195 2.8499756-6.3598633 6.3699951-6.3598633h70.3200073c.6699829 0 1.3099976.0996094 1.9199829.2998047 1.9800453.6201172 3.5400428 2.1801758 4.1500282 4.1699219z" fill="#ffd2b3"/></g><g><path d="m109.3237534 8.9135809v3.9204102c-.6300049 2.1499023-2.2700195 3.8798838-4.3800049 4.6098642h-70.6799965c-.7700195-.2700195-1.4799805-.6699219-2.0999756-1.1801758-.1700439-.1499023-.3400269-.2998056-.5-.4599619-1.2600098-1.2597656-2.0400391-3-2.0400391-4.9301758 0-3.8496089 3.1199951-6.9697261 6.9700317-6.9697261h66.039978c1.4400024 0 2.7800293.4399414 3.9000244 1.1899414.3699951.25.7199707.5297852 1.0299683.8500977.8200112.8198242 1.4299966 1.8300781 1.7600137 2.9697261z" fill="#ffd2b3"/></g><g><path d="m106.5337753 5.0937572c-14.1400146 4.4501948-29.8600464 2.1201171-44.4600258 3.4999995-7.6099854.7197266-15.210022 2.1401367-22.4400024 4.6699219-2.2600098.7900391-4.9099731 1.7602539-7.4699707 3.000001-.1700439-.1499023-.3400269-.2998056-.5-.4599619-1.2600098-1.2597656-2.0400391-3-2.0400391-4.9301758 0-3.8496089 3.1199951-6.9697261 6.9700317-6.9697261h66.039978c1.4400064-.0000001 2.7800332.4399414 3.9000283 1.1899414z" fill="#ffe4d2"/></g><g><path d="m109.3937607 120.2636795v6.5302734c-.5700073 1.8496017-1.9700317 3.3398361-3.7700195 4.0297775h-74.9299965c-1.4799805-.5698242-2.6900024-1.6801758-3.3900146-3.0898361 12.8600464.0097656 25.7400513-.050293 38.5700111-.840332 7.7300415-.4599609 15.4299927-1.3598633 22.9700317-3.4599609 4.0899658-1.159668 12.5299683-2.949707 16.3999634-7.3398438 1.9800415.6201172 3.540039 2.1801758 4.1500244 4.1699219z" fill="#f7c6a4"/></g><path d="m24.7744446 120.8288651c-.086731.4663086-.0963135.996582-.1063843 1.4238281l.0067139 1.125c.0253906.7822266-.039978 1.4038086.0709839 2.4985352.3629608 2.9946365 2.3988914 5.6693039 5.3626709 6.7534256.9586182.3720703 2.0527344.5317383 3.0025024.5102539 12.699707-.1030273 26.1494751-.2519531 38.4382324-.4365234 12.2887573-.184082 23.4164429-.4033203 31.4719238-.6469727 1.0490112.0107422 2.2005005-.2338867 3.0758667-.6713867.9108276-.4208984 1.6772461-1.0126953 2.2566528-1.668457 1.1787109-1.3203125 1.6184692-2.8281326 1.6937866-4.0175858.0388794-.6118164-.0278931-1.1162109-.0536499-1.543457-.0402222-.4331055-.0742798-.7998047-.1019287-1.097168-.0684204-.5932617-.1378784-.9047852-.2081909-.9047852s-.1397705.3115234-.2081909.9047852c-.0275879.2973633-.0617065.6640625-.1019287 1.097168-.0405273.4384766-.0450439.9384766-.1411743 1.4467773-.1878052 1.0268555-.6956787 2.2739258-1.7526855 3.2758865-1.0513916.9946289-2.6124878 1.7324219-4.4585571 1.5927734-8.055481-.2436523-19.1831665-.4628906-31.4719238-.6469727-12.2887573-.1845703-25.7385254-.3334961-38.4382324-.4365234-.6365356.0004883-1.1325684-.0952148-1.6428833-.2954102-.5666504-.2211914-1.0026245-.4936523-1.4187622-.8647461-.807251-.7260818-1.333313-1.7651443-1.4405518-2.8042068-.0513306-.4243164-.0095215-1.3232422-.0159302-2.0454102l.0067139-1.125c.0169067-.3193359.0155029-.5366211.0696411-.800293.3465862-2.1047897 2.1585484-3.5519104 4.071167-3.6298828.1043549-.009285 36.2978668.3393784 67.6647949-.4570313 3.0942078-.1025925 5.1254578-.5215073 7.128479 1.7006836.6993408.7749023 1.0162964 1.5083008 1.2456055 1.9750977.4133301.984375.6022339 1.1245117.9044189 1.1123047.2518921-.0063477.628418-.0625.6483154-1.4316406-.0325317-.6806641-.1623535-1.6992188-.9615479-3.0019531-.0248413-.0400391-.0579224-.0825195-.0844727-.1230469.2166138-1.2407227.2559204-2.5205078.1983643-3.7866211-1.8331451-23.1177597-20.6926422-32.3861237-26.1850586-37.769043-5.6815872-5.2083817-4.6357727-10.8884811.0415649-16.8872032 6.1331558-7.6585121 15.4249878-11.2744446 20.8199463-24.8457031 1.359375-3.4355469 2.2518921-7.0014648 2.758606-10.5566406.2557983-1.690918.434021-3.7661133.1585693-5.6977539-.0529785-.3139648-.1260376-.6225586-.194397-.9326172-.0221558.0087891-.0464478.0146484-.0687256.0234375 1.2024536-.871582 1.9638062-1.9560556 2.3833618-2.9003916.4541016-1.0385742.5579834-1.9155273.5595703-2.4926758-.0007324-.5820313-.0881348-.8789063-.1540527-.878418-.0742188 0-.1275024.2954102-.2592163.8276367-.1328125.5297852-.3608398 1.3037109-.8761597 2.1679688-.5147705.8530273-1.3399658 1.8071289-2.5647583 2.4599619-1.7474976.9511433-3.1824493.7702656-4.6449585.722168-7.6124268-.2436523-18.1281128-.4628906-29.7409668-.6469727-30.9045448-.4262028-21.8722-.2832432-35.1254883-.430665-.2769775-.0141602-.5493164-.050293-.8158569-.1074219-4.6346493-.9223537-5.4988575-7.3814821-1.2178955-9.4306641 1.8320961-.9803309 32.6684494-.036869 67.0247803-.9599609.6428223-.0151367 1.326355-.0581055 1.7279053-.0424805 2.0955582.0801487 4.208725 1.2682161 5.6068115 4.3725581.3846436.9545898.5872803 1.0766602.8858032 1.0678711.2580566-.0043945.6120605-.0634766.6757813-1.3408203.0221252-3.2136354-2.8201141-6.6240063-6.9072876-7.1030269-.7672119-.0800781-1.3240967-.065918-1.9890137-.0966797-18.390213-.5009743-64.5429077-.6197912-66.3745117-.2871094-7.0939655 1.3760245-9.5857506 9.7482376-5.0355225 14.7514648.3220215.3579102.6466675.6401367 1.0040894.9550781.4033203.3251953.7700806.5688477 1.1885986.8071289-.0543823.4545898-.1065063.909668-.1190186 1.3657227 1.0451508 25.1249313 17.4134331 30.2833176 24.9512329 40.7954102 3.9264755 5.8448067 3.9056015 11.0839729-1.6602783 15.7158165-8.8764343 7.4279556-23.6233253 16.0412292-25.2837524 36.2041016-.0426636.5786133-.0758057 1.1552734-.0915527 1.7270508-.9011841.3549805-1.7513428.8657227-2.4866333 1.5214844-1.4181518 1.2348643-2.4088745 3.0146495-2.7013549 4.9399425zm32.8955078-41.5576172c6.424736-5.2420807 8.0253143-12.4182434 2.5163574-20.7241173-7.439373-10.5954552-23.3290215-16.463913-24.0327148-37.2055664-.0187988-.4379883-.0375977-.8774414-.0565186-1.3188477.0027466-.1098633.0194092-.21875.0258789-.3286133.0421753.0019531.0842285.0078125.1264038.0092773l.6363525.0019531c9.378952-.1016331 2.6144371.0196743 34.631897-.421875 11.612854-.184082 22.12854-.4033203 29.7409668-.6469727.4763794-.0161133.9414673-.03125 1.3947754-.0463867.2002563-.0068359.395874-.0268555.5905762-.0488281.0050659.0263672.0123901.0522461.0172119.0786133.1984863 1.4750977.1114502 2.8657227-.1300659 4.6000977-.4489746 3.3061523-1.2493286 6.5795898-2.4609375 9.7109375-4.9384918 12.6855507-13.7324448 15.9652825-20.0684204 24.0717774-5.8375244 7.6286278-6.4939651 15.1750069.5056763 21.4560509 5.8361816 5.579689 23.6474609 13.6675873 25.7215576 35.5805664.0224609.4277344.0256958.8544922.0195923 1.2797852-1.9546127-1.113739-3.3448105-.995636-6.4434204-1.0961914-21.1547318-.5445786-66.5746307-.5033188-67.8825684-.4199219.0341187-.2875977.0670166-.5693359.1069336-.8837891 2.4860535-18.2934342 14.7065315-25.2956467 25.0404663-33.6479492z" fill="#202020"/></g></svg>