<svg id="Layer_1" enable-background="new 0 0 135 135" height="512" viewBox="0 0 135 135" width="512" xmlns="http://www.w3.org/2000/svg"><g><g><path d="m101.7768402 112.2315369c-.0100098.0200195-.0200195.0400391-.0200195.0600586-.0700073.2299805-.1499634.4699707-.2399902.6999512-.2600098.7099609-.5900269 1.3999023-.9700317 2.0598145-.0599976.1201172-.1199951.2402344-.1899414.3500977-2.0100098 3.3300781-5.3200073 5.9501953-9.1000366 7.2900391-4.6499634 1.6601563-9.9099731 1.4299316-14.460022-.3300781-1.7799683-.6899414-3.5099487-1.6298828-4.6999512-3.079834-.0100098-.0100098-.0200195-.0300293-.0300293-.0400391-.9899902-1.2099609-1.539978-2.7099609-2.0700073-4.1599121-.2399902-.6401367-.4699707-1.2900391-.7099609-1.9301758-1.3600464-3.7299805-2.7300415-7.4599609-4.0900269-11.1999512l1.960022-.5900879h.0100098l31.0499878-9.4199219c.0599976.1401367.1199951.2700195.1799927.4101563 2.7499998 6.3398436 5.4400023 13.3398436 3.3800047 19.8798827z" fill="#a97c50"/></g><g><path d="m90.3768158 99.3814392c-1.0100098.9301758-2.0599976 1.8500977-3.2799683 2.5100098-1.1500244.630127-2.4000244 1.0200195-3.7000122 1.2299805-2.1500244.380127-4.4299927.2800293-6.6199951.1000977-14.6799965-1.1999512-28.450016-8.8000488-37.4600258-19.4699707-5.1499634-6.0900879-8.7399902-13.1699219-10.0899658-20.6401367 0 0-.0100098-.0097656 0-.0200195-1.7400513-9.6398926.2799683-19.9399414 7.5799561-29.5498047 1.5900269-2.0900879 3.4500122-3.9599609 5.5300293-5.6101074.0100098-.0100098.0200195-.0100098.0200195-.0200195 5.5599976-4.3798828 12.5999756-7.079834 19.7699585-7.6599121 6.0700111-.4899902 12.2700233.4299316 18.0700111 2.4799805 6.4299927 2.2600098 12.3699951 5.9099121 17.0999756 10.5400391 2.8400269 2.7700195 5.25 5.8999023 7.0700073 9.2998047 2.6400146 4.9401855 4.0599976 10.0400391 4.4800415 15.170166 1.3299561 16.1398923-6.5100097 30.5998532-18.4700317 41.6398923z" fill="#fff200"/></g><g><path d="m84.1041641 123.9537735c-.2325134 1.3204727.4401627 2.6706238 1.4798355 3.5471497 1.0396729.8765182 2.3986435 1.3375626 3.7640533 1.5980148 1.46492.2794495 3.0573196.3341522 4.4023514-.3171082 1.6695862-.808403 2.6606216-2.6230164 2.7221146-4.4018021s-.6972046-3.502243-1.7915421-4.9244995" fill="#a7a9ac"/></g><g><path d="m80.1968231 22.7315369c-.5499878.9599609-1.5 1.75-2.8900146 2.1298828-10.8999634 2.9902344-20.4599648 9.1101074-27.949955 17.5700684-8.9500122 10.1000977-10.9100342 22.8400879-7.5300293 35.75.6900024 2.630127-.6300049 4.619873-2.5100098 5.5700684-5.1499634-6.0900879-8.7399902-13.1699219-10.0899658-20.6401367 0 0-.0100098-.0097656 0-.0200195.1300049-13.079834 4.6599731-25.8098145 13.1099854-35.1599121.0100098-.0100098.0200195-.0100098.0200195-.0200195 5.5599976-4.3798828 12.5999756-7.079834 19.7699585-7.6599121 6.0700111-.4899904 12.2700233.4299314 18.0700111 2.4799803z" fill="#fff388"/></g><g><path d="m90.3768158 99.3814392c-1.0100098.9301758-2.0599976 1.8500977-3.2799683 2.5100098-1.1500244.630127-2.4000244 1.0200195-3.7000122 1.2299805-1.0800171-1.6999512-1.0800171-3.8898926 1.0100098-5.5500488 8.6499634-6.8798828 13.7799683-17.329834 16.9799805-27.6999512 1.6799927-5.4399414 3.1599731-11.0197754 2.2999878-16.7600098-.8999634-5.9399414-3.4599609-11.5600586-5.9299927-16.9799805-.4500122-.9899902-.5800171-1.9599609-.460022-2.8598633 2.8400269 2.7700195 5.25 5.8999023 7.0700073 9.2998047 2.6400146 4.9401855 4.0599976 10.0400391 4.4800415 15.170166 1.3299561 16.1398926-6.5100097 30.5998535-18.4700317 41.6398926z" fill="#eddb06"/></g><g><path d="m72.2068329 110.4014587c-.0999756.2800293-.2299805.5400391-.3800049.7900391-.5700073.9199219-1.5 1.6201172-2.539978 1.9599609-1.3600464-3.7299805-2.7300415-7.4599609-4.0900269-11.1999512l1.960022-.5900879h.0100098c.5799561.1801758 1.1599731.4501953 1.6900024.8200684 1.3499756.9399414 2.3799438 2.3200684 3.0199585 3.8400879.5800171 1.3798828.8400269 2.9699707.3300171 4.3798828z" fill="#c19368"/></g><g><path d="m101.7768402 112.2315369c-.0100098.0200195-.0200195.0400391-.0200195.0600586-.3499756.9399414-.75 1.8598633-1.210022 2.7597656-.0599976.1201172-.1199951.2402344-.1899414.3500977-2.0100098 3.3300781-5.3200073 5.9501953-9.1000366 7.2900391-4.6499634 1.6601563-9.9099731 1.4299316-14.460022-.3300781-1.7799683-.6899414-3.5099487-1.6298828-4.6999512-3.079834-.0100098-.0100098-.0200195-.0300293-.0300293-.0400391 5.0100098-.0600586 10.1099854-.920166 14.3500366-3.3400879 6.1399536-3.5 7.9499512-10.6799316 6.6699829-17.2900391-.7299805-3.75 2.3999634-6.2199707 5.3099976-6.2597656 2.75 6.3398437 5.4400025 13.3398437 3.3800049 19.8798828z" fill="#9b6635"/></g><g fill="#202020"><path d="m51.9864426 96.7403259c4.1489868 2.4995117 8.602356 4.4240723 13.1541748 5.7751465.2582245 2.3527451 3.1101151 11.2576828 3.7984619 13.4436035.3720703 1.1364746.8029175 2.402832 1.6004639 3.6455078.8059082 1.2651367 1.9865112 2.2941895 3.2212524 3.0568848 1.2488403.7729492 2.5540161 1.3193359 3.894165 1.78125 1.8756714.6364746 3.8483887 1.0175781 5.8234863 1.1552734.0046387.0751953.0044556.1459961.0142212.2260742.0775757.6210938.3369141 1.3435059.8217163 2.0310059.4906616.6982422 1.1878052 1.3129883 1.986084 1.7900391.7977295.4787598 1.6815796.8278809 2.5623169 1.0786133.8798828.2507324 1.8334961.434082 2.8446655.4382324 1.005249.0068359 2.0819702-.1872559 3.0291748-.645752.9591675-.4558105 1.6897583-1.1228027 2.2001953-1.7644043 1.8450317-2.4057617 1.6474609-4.9504395 1.2109985-6.3669434-.1235962-.3967285-.2605591-.7397461-.4033813-1.0427246.6977539-.5559082 1.3502808-1.1286621 1.9141846-1.7121582 1.3231812-1.401123 2.3807373-2.9121094 3.1243896-4.4733887.7626953-1.5620117 1.1783447-3.126709 1.4420166-4.59375.453125-2.9580078.1713257-5.4851074-.2593994-7.5310059-.9074707-4.1037598-2.1469116-6.5527344-2.9639893-8.189209-1.1387329-2.1293945-1.7660522-2.8007813-2.2072754-2.9521484 4.2025146-5.5024414 6.989624-11.2124023 8.5891113-16.2485352 1.6761856-5.3828125 2.0181885-9.9711914 1.9779663-13.0837364-.0238647-.7814941-.0162354-1.4743652-.0728149-2.0727539-.0684814-.5964355-.1264038-1.1013184-.1732788-1.5100098-.1070557-.8139648-.1965332-1.2355957-.2666016-1.2297363-.0700073.0058594-.1190796.4384766-.149231 1.251709-.0084229.4057617-.0187988.9072266-.0310059 1.4995117-.0109253.5910645-.0855713 1.2724609-.1274414 2.0371094-.2225952 3.048336-.8125 7.4758263-2.6594238 12.600338-1.8729858 5.0983887-4.9803467 10.8754883-9.6436157 16.355957-6.8490677 8.152977-16.2246857 18.7813797-42.4937134 2.3666992-7.3338623-4.5654297-13.6589355-10.8986816-17.8240967-18.1689453-11.6764982-19.9734343-2.6007612-42.8684844 15.0781863-50.5688437 4.4533081-1.9338379 8.9735107-2.8728027 13.2230835-2.9609375 4.2595215-.1425781 8.2463379.4226074 11.8389893 1.3515625 14.934433 3.8903847 26.3193588 13.7838173 30.8379517 29.0314941.479248 1.6335449.7528687 2.7758789.9796753 3.5549316.4302979 1.5644531.6821899 1.675293.9706421 1.6494141.2713013-.0239258.5561523-.161377.6019897-1.8491211.010376-.8427734-.0413208-2.0773926-.3320313-3.8603516-.2952881-1.7790527-.8320923-4.1171875-1.9876709-7.0439453-4.9080963-12.444294-16.7996368-21.6392975-30.0777588-25.2429199-3.8962402-1.0493164-8.2468262-1.7067871-12.9517822-1.5791016-4.7063599.0737305-9.7609863 1.0927734-14.7224731 3.2353516-13.2464218 5.738306-21.1180248 18.6921997-22.4676514 30.9765625-.9656372 8.279541 1.088623 17.4150352 5.7617798 25.1867638 4.6096801 7.8239746 11.4580688 14.4560547 19.3132934 19.1713867zm42.4608154 27.9040528c-.0956421.501709-.3172607 1.0842285-.7069702 1.5842285-.446167.5471191-1.0006714 1.0170898-2.2102051 1.1850586-1.1641235.1525879-2.8278809-.0227051-3.9968262-.3710938-1.0198364-.2946777-1.7639771-.8210449-2.267395-1.3991699.2581177-.0029297.5178223.0136719.7748413.0014648 2.8092041-.1240234 5.5357666-.7993164 7.8820801-1.907959.2007446-.09375.3803711-.2053223.5748901-.3046875.0273438.383545.0327149.8022462-.050415 1.2121583zm3.2722778-31.3730469c.0610962.5703125.2439575 1.4016113.609436 2.6435547.4550781 1.7004395 1.3490601 4.1733398 1.9447021 7.7880859.2855835 1.8015137.4181519 3.8947754.0194702 6.1828613-.4283447 2.2736816-1.4568481 4.7263184-3.578125 6.9296875-1.15271 1.1889648-2.666687 2.4082031-4.5286865 3.3293457-3.7853622 1.8989487-8.6871643 2.4204712-13.5293579 1.072998-2.3583374-.6540527-4.5615845-1.6550293-5.7502441-3.2531738-.6235962-.8178711-1.0924072-1.8427734-1.5386353-2.9057617-1.0724792-2.5558701-4.1299667-9.926506-5.5545654-12.3557129 18.60701 5.2745057 23.4254838 1.1177064 31.9060059-9.4318847z"/><path d="m21.5512009 66.2745056c-.8533936-.0529785-2.3063965.3320313-5.0609741 1.2978516-1.5090942.53125-3.8366089 1.5039063-5.8048706 2.4013672-1.9626465.9040527-3.5650635 1.7573242-3.4483643 2.310791.1147461.546875 1.9580688.6843262 4.1872559.4726563 2.227478-.203125 4.8209229-.7807617 6.4038696-1.3383789 2.8915405-1.013916 4.2417603-1.8513184 4.8325195-2.4868164.5872803-.6472168.4129028-1.1262207.1920776-1.6430664-.2207641-.5173341-.4528808-.9719239-1.3015136-1.0144044z"/><path d="m9.8075485 35.6275368c2.0706787 1.6450195 4.6848145 3.369873 6.4298096 4.3144531 6.3890991 3.4196777 6.9707642 2.5935059 7.4655762 1.6105957.5169678-1.0253906.7496948-1.8322754-5.5214844-5.189209-1.7149048-.9282227-4.5010986-2.2270508-6.9176636-3.2202148-2.4172974-.9887695-4.4743042-1.6618652-4.7703857-1.1816406-.2941895.4770507 1.2399292 2.0241699 3.3141479 3.6660156z"/><path d="m35.6993942 16.2879372c2.0301514 2.6213379 3.1172485 3.9326172 3.9151001 4.453125.7825928.5302734 1.2338257.2905273 1.7077026-.0119629.473999-.3027344.8864136-.6025391.7022095-1.5646973-.1988525-.949707-.9624023-2.6027832-3.1135864-5.3811045-1.1748657-1.5236816-3.3130493-3.6938477-5.3364868-5.2526855-2.0189209-1.5705562-3.8760376-2.5444331-4.2476196-2.1296382-.3792725.421875.7617798 2.1237788 2.1716309 4.1254878 1.4213866 1.9975586 3.0911254 4.3225098 4.2010497 5.7614756z"/><path d="m60.3550949 14.2205534c.5588379-.0627441 1.0621338-.145752 1.3800659-.6513672.3301392-.5073242.4462891-1.4238281.4515381-3.1975098.0021973-.9724121-.1402588-2.5075679-.3244629-3.8598628-.1940918-1.3469238-.451355-2.5212405-1.0037231-2.6433108-.5448608-.1213379-1.2957764.8820803-1.850647 2.261719-.5637207 1.3723145-.8919067 3.1054683-.8936157 4.2111812-.0056152 2.0202637.3485107 3.032959.7548828 3.5083008.4199219.4770508.9273071.4335937 1.4859619.3708496z"/><path d="m84.037529 18.8318825c1.0021973.510498 1.8725586.8103027 4.6496582-4.6413584 1.5217285-2.9870605 3.9750977-9.8115234 2.9728394-10.3220215-1.0019531-.510498-5.0799561 5.4863281-6.6016235 8.4736328-2.7770997 5.451417-2.0228883 5.979249-1.0208741 6.4897471z"/><path d="m102.6326828 31.7420387c.9604492-.2922363 2.5875244-1.2304688 5.3224487-3.6208496 1.4989014-1.3085938 3.6375732-3.6130371 5.2008667-5.7438965 1.5733643-2.1262207 2.5882568-4.0454102 2.1707153-4.4157715-.4232178-.3762207-2.1802368.84375-4.225769 2.3984375-2.0408325 1.5644531-4.3945313 3.4448242-5.8342285 4.7021484-2.6259766 2.2954102-3.9078369 3.5439453-4.3984375 4.4040527-.4989014.848877-.2227783 1.2788086.117981 1.7260742.3408203.4472658.6759033.8317872 1.6464233.5498048z"/><path d="m110.8044357 48.3719215c.1538696 1.0935059.4266357 2.0512695 6.9663696.9719238 3.5957642-.5678711 11.0305099-3.0593262 10.7650681-4.1835938-.2523804-1.0651855-7.935051-.3852539-11.4509201.1691895-6.4185791 1.0595704-6.4405517 1.9091798-6.2805176 3.0424805z"/></g></g></svg>