<svg id="Layer_1" enable-background="new 0 0 135 135" height="512" viewBox="0 0 135 135" width="512" xmlns="http://www.w3.org/2000/svg"><g><g><path d="m110.0757294 115.431076c-.5999756 3.9301758-2.2399902 7.8398438-5.2600098 10.4599609-6.5299683 5.6499023-14.7999878 4.8100586-22.789978 4.7099609-9.5-.1298828-18.9500084-.3798828-28.3500328-.7597656-6.2099609-.25-20.2399902 1.4799805-25.2799702-4.2700195-.8699951-.9702148-1.460022-2.1601563-1.7200317-3.6103516-1.2099609-6.8598633-1.2999878-14-1.1300049-21.159668.1300049-5.9902344.4500122-11.9902344.4300537-17.8500977-.0400391-14.0898438-.0800171-28.1601601-.1199951-42.2099648-.0100098-3.7802734-.6500244-8.3300781-.5300293-12.6298809.1599731-5.3500977 1.4899902-10.300293 6.6900043-12.8901367.5599976-.2797852 1.1300049-.5200195 1.710022-.7299805 6.1300049-2.2099609 13.2099609-.7802734 19.5199585-.9101563 1.0599976-.0200195 2.1300049-.0400391 3.1900024-.0400391 11.7499962-.1499023 23.5700035.1699219 35.4200401.9702148 2.9899902.199707 6.1599731.4897461 8.5699463 2.2099609 4.9200439 3.5 5.1800537 10 5.6100464 15.4799786.2099609 2.6401367.3800049 5.2700195.5099487 7.9101563.2200317 4.409668.3500366 8.8300781.4400024 13.3398438.3300171 16.3798866 1.6000366 32.7197304 2.960022 49.0800819.0200195.3398438.0499878.6699219.0800171 1.0097656.3300172 3.9599613.6599732 7.9599613.0499879 11.890137z" fill="#e6e7e8"/></g><g><path d="m56.4357185 13.5409374c-.5599976.9101563-1.4799805 1.6401367-2.789978 2.0200195-7.210022 2.0800781-14.0300293 4.9902344-17.4899902 12.1000977-3.1100464 6.3901348-3.1799927 13.709959-3.210022 20.6601543-.0700073 15.9799843-1.7899799 32.0000038-.8300171 47.9599648.2400513 4.0297852-3.579958 5.5200195-6.5700092 4.5200195.1300049-5.9902344.4500122-11.9902344.4300537-17.8500977-.0400391-14.0898438-.0800171-28.1601601-.1199951-42.2099648-.0100098-3.7802734-.6500244-8.3300781-.5300293-12.6298809 1.1699829-3.7402344 2.8800049-7.2700195 5.3800049-10.4199219.9299927-1.1704102 1.9400043-2.2304688 3.0200214-3.2001953 6.1300049-2.2099609 13.2099609-.7802734 19.5199585-.9101563 1.0599976-.0200193 2.1300049-.0400389 3.1900024-.0400389z" fill="#fdfeff"/></g><g><path d="m110.0757294 115.431076c-.5999756 3.9301758-2.2399902 7.8398438-5.2600098 10.4599609-6.5299683 5.6499023-14.7999878 4.8100586-22.789978 4.7099609-9.5-.1298828-18.9500084-.3798828-28.3500328-.7597656-6.2099609-.25-20.2399902 1.4799805-25.2799702-4.2700195 9.3900166 1.8999023 18.9299946 2.7597656 28.5700092 2.5 6.9799805-.1801758 13.9199791-.9199219 20.7699547-2.2900391 5.9400024-1.1899414 12.4400024-2.4399414 17.5100098-5.9501953 10.4700317-7.2397461 12.1000366-20.4296875 11.0300293-32.1298828-1.2999878-14.3701172-3.25-28.4501991-3.3099976-42.9301796-.0100098-2.6098633 1.6300049-4.159668 3.5799561-4.659668.2200317 4.409668.3500366 8.8300781.4400024 13.3398438.3300171 16.3798866 1.6000366 32.7197304 2.960022 49.0800819.0200195.3398438.0499878.6699219.0800171 1.0097656.3300171 3.9599611.6599731 7.9599611.0499878 11.8901368z" fill="#cfd0d1"/></g><g><path d="m82.8057098 10.4310741c-.0100098.2998047-.0199585.5898438-.0199585.8901367-.0500488 1.6298828-.0900269 3.2700195-.1300049 4.8999023-.0200195 1.0698242-.0599976 2.1699219-.4899902 3.1201172-.6200562 1.3696289-1.9200439 2.0698242-3.1400146 2.5698242-6.4500122 2.6000977-13.3599854 1.9902344-19.9600182.9101563-1.2600098-.2099609-2.539978-.4399414-3.6900024-1.0703125-1.6599731-.8999023-3.6199951-3.5498047-4.789978-6.5200195-1.210022-3.0898438-1.5700073-6.5297852.1599731-8.7299805 2.3600464-3 8.7300415-1.3496094 11.710022-1.3300781 5.7899742.050293 11.5800133.2705078 17.3900108.6503906.6799927.0400391 1.3999634.0996094 1.9499512.5600586 1 .8295899 1.0500488 2.5600586 1.0100097 4.0498047z" fill="#6d6e71"/></g><g><path d="m82.8057098 10.4310741c-.0100098.2998047-.0199585.5898438-.0199585.8901367-10.9500122-1.2602539-21.8500328.1899414-32.2000084 3.909668-1.210022-3.0898438-1.5700073-6.5297852.1599731-8.7299805 2.3600464-3 8.7300415-1.3496094 11.710022-1.3300781 5.7899742.050293 11.5800133.2705078 17.3900108.6503906.6799927.0400391 1.3999634.0996094 1.9499512.5600586 1.0000001.8295899 1.0500489 2.5600586 1.0100098 4.0498047z" fill="#868789"/></g><g fill="#202020"><path d="m24.279417 22.1207752c-.4838257 1.7124023-.717041 3.4301758-.7984619 5.097168-.1139526 1.6787109-.055603 3.3022461-.0042114 4.9101543.4884529 11.104641.4346409-1.5088959.4358521 27.0351563.0057373 5.7539063.0112305 11.2944336.0164795 16.5605469.0037231 2.6313477.0073242 5.1943359.0108032 7.6816406.0024414 2.456543-.0620117 4.8525391-.1247559 7.1694336-.2648315 8.4594727-.6439819 16.5307617-.0616455 24.1772461.7498283 9.3628159 1.2248077 14.7401276 12.9110737 16.6030273 1.4299049.2078552 52.8720245 1.696991 59.2463989.4516602 8.8311615-1.7006531 14.4757919-7.3736954 15.5046997-16.5786133.196228-1.7910156.1903687-3.3291016.1374512-4.640625-.1210327-2.6254883-.4060669-4.3681641-.6107788-5.5581055-.4364014-2.3706055-.7205811-2.5209961-.999939-2.4990234-.28125.0214844-.5302124.2250977-.5804443 2.6235352-.038269 1.1948242.0113525 2.9423828-.0858765 5.4345703-.5638428 9.8444672-4.0933762 16.1815643-13.9786377 17.8974609-5.179245.9013214-57.9176445-1.0573044-58.0184937-1.0727539-8.3187637-1.3505325-8.4417782-4.6795502-8.9013081-7.6132813-.2573853-1.7402344-.440979-3.5268555-.5841064-5.3515625-.5460205-7.3139648-.1776123-15.2260742.0923462-23.7539063.0633545-2.3398438.1270752-4.7685547.1212158-7.2900391-.0085449-2.4907227-.0174561-5.0571289-.0264893-7.6918945-.0249023-5.2666016-.0510254-10.8066406-.0782471-16.5605469-.0325928-5.7543945-.0664673-11.722168-.1011353-17.84375.0053101-3.1855469-.3502808-6.3120117-.503479-9.3637676-.1288452-3.0307617-.1660156-6.0966797.5946045-8.8100586.9057827-3.8846588 3.4485531-5.2701435 4.8125629-6.1914063 2.5169067-1.315918 5.5119629-1.8100586 8.6072998-1.8959961 2.3148193-.0673828 4.694397.0737305 7.1369629.1791992 1.2077065 3.4097347 3.6177063 7.3734226 7.1137085 8.7099609.8903198.3242188 1.7657471.4985352 2.5736694.628418 3.1235962.4750977 6.3556519.8613281 9.6533203.8647461 3.2844849.0039063 6.6096191-.4277344 9.6201172-1.4365234 3.9954376-1.2799873 6.1993713-2.8012142 6.3406372-6.6303711-.0004272-.6079102-.0060425-1.1875-.0135498-1.753418 1.958313.0795898 3.9188843.1567383 5.8527222.2646484 3.144165.2006836 6.2444458.2231445 8.6881714 1.2822266 1.1967773.5053711 2.2277222 1.3652344 3.0828857 2.3701172.8436279 1.0141602 1.4689941 2.2241211 1.9212646 3.5253906 2.2352524 6.4659367 2.5607376 31.988348 3.0371704 40.2333984.25354 4.753418.5578613 9.1757813.8712769 13.2084961.6300659 8.0664063 1.2810669 14.5776367 1.7718506 19.0737305.2471313 2.2475586.4575195 3.9912109.6235962 5.1713867.1658325 1.1806641.2863159 1.7973633.3563843 1.7919922.1411133-.0117188.0687866-2.5141602-.1618652-7.0292969-.2380371-4.5126953-.5823975-11.0405273-1.0078125-19.1069336-.1913452-4.0317383-.3762817-8.4482422-.5137939-13.1889648-.2891159-8.6479988-.0241928-33.7569046-2.381897-41.0283203-.5063477-1.5385742-1.2528687-3.0771484-2.3358154-4.4233398-.2648315-.3408203-.5477295-.6674805-.8657227-.965332-.2980957-.3178711-.6254883-.6025391-.9714966-.8676758-.6547852-.5629883-1.461853-1.0351563-2.2543335-1.3955078-1.611084-.7260742-3.2905884-1.0556641-4.9089966-1.2597656-1.6314697-.2001953-3.1877441-.2802734-4.762146-.4003906-2.0184326-.1401367-4.0653687-.2490234-6.1106567-.3588867-.0214844-.7246094-.0437622-1.4267578-.0643921-2.0854492-.0360107-1.0058594-.1237183-1.9643555-.4172363-2.8056641-.2666016-.8383789-.8691406-1.5493164-1.4909058-1.793457-.6247559-.253418-1.0909424-.2036133-1.3900146-.1762695-.3014526.0395508-.4543457.1035156-.4596558.1723633-.0055542.0708008.1447144.1464844.4177246.2416992.2653198.0986328.6801147.2114258 1.0293579.4780273.7440796.4975586.9345703 1.9448242.7260132 3.84375-.5289764 6.6871471 1.858139 12.4276829-14.1549072 11.671875-3.0172119-.140625-6.1051025-.6293945-9.0706177-1.1826172-2.3492775-.4543476-4.8183594-1.3125401-6.7246704-7.5712891-.3035889-1.0722656-.4480591-2.0839844-.4581909-2.9663086.0317307-3.3367848 2.0412598-3.74822 5.4068604-3.6083984.119236.0047565 8.9713745.8236837 18.2896118.3657227 4.2924805-.2099609 4.5030518-.7114258 4.5388184-1.2724609.0357666-.5615234-.0983276-1.0756836-4.3925781-1.6035156-.1006775-.012361-18.13657-1.4686239-18.2387695-1.4746094-.8529053-.0493164-1.7678223-.0581055-2.7561035.0214844-4.6467323.4582572-6.8817978 3.308991-6.9202271 7.5395508.0021362.4550781.0365601.9106445.0853271 1.3662109-2.0882568-.1171875-4.2155762-.2392578-6.3960571-.199707-7.8749999.1504993-15.0605468 3.037691-16.9478168 10.6538085z"/><path d="m40.1206665 45.4020233c-.0153923 1.4541855 56.8546371 4.3848801 56.8946533.6040039.0390778-3.6737251-56.8780861-2.1615066-56.8946533-.6040039z"/><path d="m39.5143433 65.120285c-.0228996 1.4541855 56.8525772 4.6773605 56.9122925.8964844.0578231-3.6737289-56.8876954-2.4539871-56.9122925-.8964844z"/><path d="m38.9075317 84.8561249c-.0303879 1.4541855 56.8507996 4.9713058 56.9298096 1.1904297.0234985-1.1245118-56.8972626-2.7479325-56.9298096-1.1904297z"/><path d="m38.3001099 104.6105194c-.0292969 1.1245117 24.3445435 2.6713867 35.7131348 2.9677734 20.7473755.5410156 21.2049561-.3588867 21.2342529-1.4833984.0957107-3.6721268-56.9068642-3.0391388-56.9473877-1.484375z"/></g></g></svg>