<svg id="Layer_1" enable-background="new 0 0 135 135" height="512" viewBox="0 0 135 135" width="512" xmlns="http://www.w3.org/2000/svg"><g><g><path d="m130.1512756 50.4615059c-.2879181 4.8939018-.6353302 9.7778664-.933136 14.662075-.0694885 1.1116867-.3276062 2.1145554-.6948853 3.0675049-.8437729 2.2733002-2.2732468 4.2783127-3.1071396 6.819664-.9628754 2.9581985-2.173996 5.8371506-3.7722168 8.507431-2.0846863 3.4644852-4.6457825 7.6635513-8.6761093 9.2817688-2.2733078.9231339-4.804657.9231339-7.2565765.7343369-4.6457901-.3572311-9.2916412-1.3797302-13.4510193-3.5039902-.4466629-.2282944-.8933868-.466774-1.3301697-.7246399l-.0099411-.0101852c-3.5041656-2.0546951-6.5319214-4.9435806-8.4279404-8.5270615-.0496216-.0894318-.0992432-.1885529-.1489258-.2779846-1.1514969-2.233551-1.8463898-4.7152863-3.3056183-6.7602844-1.5585327-2.2037506-3.8615875-3.7126617-6.303627-4.7746658-2.1640625-.9432526-3.4148636-.992691-4.1693192-3.3454819-1.5386581-4.844223-2.0151291-10.2545853-1.8463898-15.4165344.0794296-2.1043777 1.6379623-3.901207 3.7225876-4.2089996 4.9634628-.7246475 10.631752.8637581 14.6322708-2.7199669 1.8265762-1.6380882 2.7795792-4.0601959 2.7795792-6.5220528-.0099335-6.9488392-6.8694687-10.9196053-12.8951111-9.9865341-.6452103.0993652-1.220993.1291752-1.7470856.0894299-4.6755981-.3671703-4.9337082-6.0455799-4.6755981-11.0982246.029747-.6948357.1488647-1.3799772.3374786-2.0350666.7842636-2.7994576 2.8490829-5.122201 5.6385422-6.1546388 1.8960114-.6948357 3.8317719-1.2706742 5.797287-1.7372103 10.8004837-2.6106627 22.5142365-2.094686 33.7614441-1.4791007 3.7225952.2084265 7.693367.4864092 10.6813736 2.7299018 1.6776505 1.2508006 2.8192139 2.9383283 3.6134109 4.8442187 1.1911774 2.8392038 1.6180267 6.1546383 1.8761444 9.2618904.1687927 2.0251293.2879181 4.0502586.3672943 6.0654507.3077242 7.7427997.0099337 15.495779-.4566038 23.2189502z" fill="#ec008c"/></g><g><path d="m130.1512756 50.4615059c-.2879181 4.8939018-.6353302 9.7778664-.933136 14.662075-.0694885 1.1116867-.3276062 2.1145554-.6948853 3.0675049-1.0721283-.1391144-2.094574-.6155853-2.8689041-1.3601074-.8140106-.7941971-1.4790955-1.6775894-2.0350037-2.6305313-3.1071243 1.4592285-6.809845 2.3724213-9.222084 4.6258545-2.7001495 2.5115356-1.5883408 7.8819122-3.1071243 11.3265228-1.3997345 3.1865005-3.7623444 5.9859619-6.7801056 7.7827911-4.2983704 2.5711594-9.1724548 2.8392029-13.5800095 1.3700409l-.0099411-.0101852c-2.5611572-.8535767-4.9733887-2.2929306-7.0183334-4.2189331-1.4096069-1.3201141-1.7471466-2.888649-1.4096069-4.3081284.7742691-3.2759323 5.1818237-5.7675934 8.4279404-2.7100296 4.9337082 4.6357956 11.1280975 1.3797379 11.9023666-4.7450943.7247009-5.7775345 1.439415-9.7184906 6.6212921-13.1432266 4.6755447-3.0774422 10.7111206-3.9906387 14.3642197-8.5471802 4.298378-5.3604393 3.5736694-11.9716759 1.9853821-18.2157478-.9231949-3.6135311 1.9457016-6.0157681 4.814537-6.1645756.307724 7.7427998.0099335 15.4957791-.456604 23.2189503z" fill="#d6038a"/></g><g><path d="m127.5106812 117.944664c-.029747.1689224-.0595551.3376007-.0893097.506279-.536087 3.2759323-1.3897934 6.7205429-3.901268 8.8450394-1.8464508 1.558342-4.2884369 2.1441269-6.6907959 2.5311661-.2878571.0496826-.5757141.0993652-.8636322.1391144-11.6641235 1.7372131-23.5168686 2.2631226-35.3001099 1.5980988-3.3453674-.1885529-6.6907349-.4764709-10.0162277-.8635101-2.6306534-.2978668-5.8469696-.2879333-8.3286934-1.2408752-.4467239-.1689148-.8835106-.3872833-1.3202972-.6354523-3.7126579-2.1143188-7.0084-6.7901001-9.1426506-10.0757217-5.569046-8.5966263-8.0110283-19.2879333-6.273819-29.4334564.4665375-2.7197189 1.2209892-5.4200516 2.5809746-7.812355 1.8861389-3.3057404 4.8145905-5.8768997 7.872036-8.1400223 2.5314102-1.8763199 5.6782265-4.0601959 8.9540939-5.4598007 1.7967758-.7743301 3.6233521-1.3104248 5.4101868-1.4395981 2.5412827-.1786194 5.4002457 1.1019897 8.0209656 1.2607346 2.8092728.1689224 5.6483536-.0494385 8.3981323-.6550903 1.3997269-.3077927 3.2163086-.5559616 3.9608307.6749649.3474731.5857773.2978516 1.3203583.2481689 2.0052567-.1191177 1.4095459-.2084274 2.8690109-.1984863 4.318306.0396805 3.6729126.7543945 7.2862015 3.2559967 9.8374863 2.3725433 2.422348 6.1646347 3.3355484 9.3809433 2.2633667s5.6980438-4.090004 6.1348267-7.4551239c.3672943-2.8091507-.5658417-5.826973.5955887-8.4080658 1.2309952-2.7398453 4.357933-4.0105133 7.206955-4.9733963.8438263-.2879181 1.7471466-.5559692 2.6504669-.7544556 2.5810394-.5656586 5.2513809-.5656586 7.0282745 1.220993 1.469223 1.4790955 1.7670135 3.7325287 1.9655762 5.8073425 1.4294127 15.4264599.9132536 31.0414807-1.5387269 46.3387753z" fill="#8dc63f"/></g><g><path d="m70.4209824 81.0662689c-2.1938095 2.8290253-6.3928757 2.5609741-10.631691 2.3922958-3.3056793-.1391144-6.6411095-.228302-9.0632782 1.2607346-3.1567535 1.925766-4.864212 5.7576599-4.7748451 9.4603806.099247 3.6927872 1.8067055 7.2168884 4.2288742 10.0061722 3.9112091 4.5068588 10.9493599 1.8166962 15.1881676 5.5492325 5.5590515 4.893898 1.3401108 10.8103027-.6948929 16.8658142-.2084885.6354599-.4467239 1.3004913-.9827538 1.7074051-.5857162.4466553-1.3699188.4665375-2.0945663.4665375-11.0486603.0298004-22.0973244.0596161-33.1459885.0993652-5.4498672.0099335-10.9891033.0198669-16.2206078-1.5188522-1.8066454-.5261536-3.6034756-1.270668-4.9137745-2.6106567-.3672915-.3674164-.6750836-.7743301-.9430695-1.2013626-1.3798556-2.1739349-1.6577778-4.9930267-1.8265791-7.6138687-.5757174-9.4901886-.3970404-18.881012-.0893083-28.3610229.0198126-.6453934.0396857-1.3004837.0595589-1.9458771.1488676-4.6059875-1.4791007-9.8474274.3772278-14.254921.9628816-2.2832336 3.1170058-4.0601883 5.4796166-4.7848358 1.5387201-.4764709 3.3056793.0794907 4.9535208.0894241 1.9357615.0099411 3.8814592-.2086639 5.7576609-.6652679 1.4393539-.34729 2.9283905-.8833847 3.7821522-2.0845032 1.0919361-1.5287857.8040771-3.6433449.2282982-5.4299927-.5658398-1.7868958-1.3897915-3.583725-1.2309265-5.4501114.1985493-2.1836319 1.7372093-4.0599518 3.6134109-5.1917572 1.8662663-1.1315613 4.0402622-1.6279068 6.1844482-2.0646324 2.8390846-.57584 5.7575989-1.0622482 8.6264954-.6652679 2.8688927.3972206 5.7278481 1.8167 7.2366982 4.2884941 2.1640587 3.5638504 1.0324364 8.1201477 1.4493523 12.2697754.0694962.7047729.1985512 1.4393539.6254005 2.0052567.9231949 1.1911774 1.9357605.3969803 2.9979477.0099373 1.2408638-.4568443 2.6008453-.6553345 3.9111481-.6652718 2.7398376-.0198708 5.5094833.8438873 7.6834793 2.5413513.3970413.3077927.8040771.6948318 1.191185 1.1414948 3.1071348 3.4744261 5.9561491 10.5822523 3.0376387 14.3545301z" fill="#00aeef"/></g><g><path d="m128.3644409 11.9152145c-11.0784683 3.0774403-22.0873871-.0891876-33.3048477.6652679-7.4253159.4963455-22.2461929 4.7448521-21.8490906 14.2648525-4.6755981-.3671703-4.9337082-6.0455799-4.6755981-11.0982246.029747-.6948357.1488647-1.3799772.3374786-2.0350666 3.0972519-3.3849907 7.1871414-6.0853248 11.4358292-7.891849 10.8004837-2.6106627 22.5142365-2.094686 33.7614441-1.4791007 3.7225952.2084265 7.693367.4864092 10.6813736 2.7299018 1.6776504 1.2508006 2.8192138 2.9383283 3.6134109 4.8442187z" fill="#f422a9"/></g><g><path d="m91.0292664 69.7494354c-.1191177 1.4095459-.2084274 2.8690109-.1985703 4.3183289-4.502037 1.2515793-9.3065414 1.163063-13.9139481.6614456-1.9191513-.2089386-4.7590332-.1332092-6.1183701-1.4651489-1.5642548-1.5327301-2.5174026-4.8071747-3.2211227-6.8322601.1949692.561058 4.2368698.2700424 4.9646606.299263 1.9944229.0800705 3.8799667.8720856 5.8802185.9932404 2.8092728.1689224 5.6483536-.0494385 8.3981323-.6550903 1.3997269-.3077927 3.2163086-.5559616 3.9608307.6749649.3474733.5857772.2978517 1.3203581.2481691 2.0052565z" fill="#a3d850"/></g><g><path d="m127.5106812 117.944664c-.029747.1689224-.0595551.3376007-.0893097.506279-1.4790955 3.2858658-3.6332855 6.27388-6.7404099 8.7754822-1.2408676.992691-2.5214157 1.8562012-3.8516541 2.6007233-.2878571.0496826-.5757141.0993652-.8636322.1391144-11.6641235 1.7372131-23.5168686 2.2631226-35.3001099 1.5980988-3.3453674-.1885529-6.6907349-.4764709-10.0162277-.8635101-2.6306534-.2978668-5.8469696-.2879333-8.3286934-1.2408752-.4467239-.1689148-.8835106-.3872833-1.3202972-.6354523 1.2309265-.5358582 2.6902161-.5954742 4.1991234.1291809 3.7126617 1.7866364 9.5298157-.5559692 13.3119659-1.2508087 4.0303268-.7445221 8.0805283-1.3203583 12.1704102-1.7471466 8.1003418-.8438873 17.3621674-1.0821228 23.9536514-6.5617981 6.6808014-5.5589294 6.1447678-15.2476044 6.3929367-23.1394577.3077316-9.4802551.3871689-18.9803772-1.4195404-28.331459-.2481689-1.2806091-.0496826-2.4124146.4466629-3.3454819 2.5810394-.5656586 5.2513809-.5656586 7.0282745 1.220993 1.469223 1.4790955 1.7670135 3.7325287 1.9655762 5.8073425 1.4294129 15.4264601.9132538 31.0414809-1.5387267 46.3387755z" fill="#7eb22b"/></g><g><path d="m51.1403313 57.3536453c-.6783104 2.2276268-3.3561707 2.0934334-4.921627.312748-.7204018-.8194466-1.0797691-1.8964081-1.7350159-2.7688332-1.8314743-2.4385147-5.5247879-2.6622887-8.3721962-1.5700836-1.3295441.5099869-2.684082 1.3997116-3.0083694 2.786293-.2053795.8781624.0434875 1.7886963.1743279 2.681015.5537567 3.7766533-1.3058109 7.7425003-4.4078751 9.9150162-3.5696049 2.4999619-8.4630775 1.3732834-12.4710655 2.5684814-4.3279982 1.2906265-7.0379286 5.5887451-6.3927259 10.0557861.5459681 3.7623444-2.690155 6.234375-5.5491118 6.234375.0198126-.6453934.0396857-1.3004837.0595589-1.9458771.1488676-4.6059875-1.4791007-9.8474274.3772278-14.254921.9628816-2.2832336 3.1170058-4.0601883 5.4796166-4.7848358 1.5387201-.4764709 3.3056793.0794907 4.9535208.0894241 1.9357615.0099411 3.8814592-.2086639 5.7576609-.6652679 1.4393539-.34729 2.9283905-.8833847 3.7821522-2.0845032 1.0919361-1.5287857.8040771-3.6433449.2282982-5.4299927-.5658398-1.7868958-1.3897915-3.583725-1.2309265-5.4501114.1985493-2.1836319 1.7372093-4.0599518 3.6134109-5.1917572 1.8662663-1.1315613 4.0402622-1.6279068 6.1844482-2.0646324 2.8390846-.57584 5.7575989-1.0622482 8.6264954-.6652679 2.8688927.3972206 5.7278481 1.8167 7.2367134 4.288517 1.2415314 2.0446205 2.1316109 5.1514702 1.7115669 7.5394287-.0251162.1427957-.057339.2777521-.0960848.4049989z" fill="#30cdfc"/></g><g><path d="m64.673317 126.6008987c-.2084885.6354599-.4467239 1.3004913-.9827538 1.7074051-.5857162.4466553-1.3699188.4665375-2.0945663.4665375-11.0486603.0298004-22.0973244.0596161-33.1459885.0993652-5.4498672.0099335-10.9891033.0198669-16.2206078-1.5188522-1.8066454-.5261536-3.6034756-1.270668-4.9137745-2.6106567-.3672915-.3674164-.6750836-.7743301-.9430695-1.2013626 1.2904868-.0198746 2.5809736-.0198746 3.8714609-.009697 7.0679588.0792542 14.1260433.5557251 21.1840649.8933258 6.7205429.3077927 13.4509583.4963455 20.1715012.0794983 2.9780731-.1885529 6.0256462-.0894318 8.001091-2.6307831 1.0621872-1.3598633 2.6902161-5.2215652 2.0151329-6.9687119-.992691-2.5709152-4.9237137-2.2335587-7.1970139-2.5314102-2.4916039-.3274231-4.834404-.8734512-7.1473312-1.8760834-4.3479958-1.8860168-7.9415321-5.2116318-9.3313255-9.8474197-3.32549-11.0783538 5.4498701-20.1417541 14.8407545-24.1820755 4.8939629-2.1043777 9.2518921 3.6232224 7.0084 6.9885864-3.3056793-.1391144-6.6411095-.228302-9.0632782 1.2607346-3.1567535 1.925766-4.864212 5.7576599-4.7748451 9.4603806.099247 3.6927872 1.8067055 7.2168884 4.2288742 10.0061722 3.9112091 4.5068588 10.9493599 1.8166962 15.1881676 5.5492325 5.5590515 4.8938979 1.3401107 10.8103027-.6948929 16.8658141z" fill="#00a5d8"/></g><path d="m2.4354854 96.370903c-.1231689 5.2802734-.1421509 10.5507813.0438232 15.7521973.0477295 1.300293.1075439 2.5959473.1779175 3.8862305.5002053 8.6550903 2.8853931 12.3393021 12.706665 14.0893478 5.3042889.9499512 7.2778797.8319855 42.9074707.7189941.8083496-.0029297 1.6104126-.0058594 2.4060669-.0085449l1.21698-.0063477c.4599609-.0117188 1.0159302-.0275879 1.7009888-.2211914.2874146-.0825195.5561523-.2033691.8132935-.3422852 1.4523926.4313965 3.9726563 1.0021973 8.3532715 1.6264648 5.0493774.6699219 12.5933838 1.5031738 23.7895508 1.2556152 5.5929565-.1435547 12.0957031-.5734863 19.5849609-1.6376953 1.8655396-.2734375 3.9536133-.5581055 6.1400757-1.4887695 1.0823975-.4680176 2.1890869-1.1328125 3.1317139-2.0368576.9534302-.8874512 1.6939087-1.970459 2.2634277-3.088623 1.1358032-2.2556152 1.6053467-4.6381836 1.9885254-6.9421387 2.429245-15.4362411 3.0644684-30.7728348 1.3766479-47.3725586-.1488647-1.293457-.3255615-2.7060547-.9405518-4.1762695-.0056152-.0141602-.0133667-.0283203-.019104-.0424805.2759399-1.451416.5952759-3.8186035.9994507-7.7263184 1.1651001-12.1091042 2.5158386-29.2370701.6829224-41.645752-1.2647095-7.8560715-4.4759979-12.770237-12.3897705-14.1501465-2.3586426-.4013672-4.6755981-.4702148-6.9842529-.6010742-5.1091309-.2592772-10.9977417-.5388182-17.4144897-.2680663-6.396484.2797833-13.389404 1.1301251-20.2335812 3.5581036-6.8938065 2.2314978-8.4473419 7.5293436-7.9423828 14.6826172.1907349 1.9033203.4588623 3.979248 1.8666382 5.9562988.7255859.9689941 1.8425293 1.7473145 3.0147095 2.0859375l.87677.2009277c.2852783.0344238.5648193.0407715.8475342.057373.5794067.0578613 1.0777588-.0551758 1.6138306-.0935059 1.6009521-.2709961 3.0905762-.1774902 4.5892944.2124023 8.9508286 2.3928223 10.3266296 15.5947781-2.6820679 15.994875-1.4267578.0576172-2.8648071.0529785-4.2938232.1411133-.7137451.0412598-1.4276733.1137695-2.1323242.2202148-.7644653.0930176-1.5921021.3986816-2.2406616.8388672-1.333252.8825684-2.1573486 2.310791-2.338501 3.7460938-.0891724.7675781-.0316162 1.3000488-.0350952 1.9040527.0160522.5881348.036377 1.1628418.0700684 1.7236328.2556152 4.4890137 1.0288696 8.0507813 1.7055054 10.4506836.3099365 1.0944824.5956421 1.9387207.8293457 2.5444336-.0877686.0163574-.1430664.036377-.1450195.0617676-.0021973.0288086.0841675.0668945.2097778.1086426.2471313.6188965.4238892.9304199.4847412.911377.0645752-.0192871.0377197-.2993164-.043396-.7949219.9266357.2104492 2.8312378.5144043 5.5935669.8833008 2.0056152.2473145 4.4553223.5341797 7.3234863.5529785 1.4329834.0031738 2.9740601-.0705566 4.5966187-.3378906 1.5843506-.3027344 3.2366333-.5881348 3.6010742.2529297.0563354.107666.088562.2265625.1035767.3464355.0122681.1032715.0176392.2563477.0064697.4685059-.0239868.3876953-.086792.9135742-.130249 1.3991699-.088501.989502-.1565552 2.0078125-.1832275 3.0556641-.1329117 10.9523849 6.1695328 15.3436356 12.7462769 14.2956543 5.0874176-.8163605 8.9615936-4.9078293 8.7510376-12.498291-.0454712-1.2495117-.0685425-2.401123.1379395-3.3686523.1938477-.9672852.6418457-1.7175293 1.3486328-2.4018555 1.4241943-1.357666 3.7844849-2.1789551 6.0997314-2.888916 2.243042-.6755371 4.6638184-1.0029297 6.1266479-.234375.7313843.3686523 1.2408447.9477539 1.5828857 1.8103027.3526611.8583984.5118408 1.9614258.6216431 3.137207 1.3904877 15.9703827.7031555 31.0866699-1.6729126 46.347168-.3497314 2.1828613-.7897339 4.1875-1.5892944 5.7658691-.7987671 1.5991211-1.881897 2.6123047-3.3897705 3.2644043-1.5036621.6608887-3.2893677.9624023-5.1098022 1.230957-7.3096313 1.0930099-13.6605835 1.5922775-19.1307373 1.8349533-10.9494629.4462891-18.3654785-.0744629-23.3695068-.3701172-3.2200317-.2216797-5.4407349-.3859863-6.989624-.4660645.1638794-.3078613.2741089-.5876389.3730469-.8403244 4.3516693-9.9243469 5.92659-19.4025116-4.6898193-21.800293-1.4040527-.315918-2.7103882-.4526367-3.9137573-.6064453-6.8832092-.7870941-10.0951347-6.560173-10.0058594-11.6691895.0545654-3.307373 1.8097534-6.2919922 4.0890503-7.4980469 1.0772705-.6025391 2.447876-.854248 3.824585-.9570313 1.390564-.0874023 2.7984009-.0463867 4.1660767-.0124512 2.7410278.0715332 5.4123535.1936035 7.9832153-.612793 2.6080933-.7687988 4.6079102-3.1518555 4.9194946-5.3007813.4382935-2.138916.0968018-3.9089355-.2924805-5.3547363-.4186401-1.447998-.932251-2.6218262-1.458252-3.5844727-1.0427856-1.9306641-2.045166-3.0678711-2.7971191-3.7734375-.7559204-.7050781-1.2652588-.9758301-1.5756226-1.0622559-.3045044-.0908203-.4138794-.0043945-.5012207.1057129s-.1426392.2438965-.02948.5202637c.1165771.269043.3973999.6821289.8930664 1.456543.4900513.7700195 1.2125244 1.9243164 1.9554443 3.7338867.3770752.8994141.7323608 1.973877.9959106 3.2155762.2505493 1.230957.3823853 2.6889648.012085 4.0605469-.0567017.361084-.2528076.6462402-.3721924.9831543-.2150879.2702637-.3485718.6064453-.6462402.8305664-.4608154.5649414-1.1994019.8833008-2.0418701 1.170166-.8692627.2585449-1.9385986.338623-3.0861816.3757324-1.1749268-.0007324-2.4377441-.0559082-3.8189697-.1379395-1.3850708-.0693359-2.8673706-.1555176-4.5036621-.0905762-1.6275024.0952148-3.4776001.3168945-5.335022 1.2873535-3.6152954 1.9067383-5.9701538 6.0090332-6.1316528 10.5412598-.1493301 4.8156433 2.3519096 9.8828735 5.5873413 12.8959961 1.114502.9519043 2.4550781 1.6120605 3.7773438 2.0153809 1.3260498.409668 2.6395264.6083984 3.8838501.7729492 2.4752808.3181152 4.8260498.5981445 6.3545532 1.7624512.3855591.2487793.7605591.6882324 1.135376 1.0563965l.4589233.6130371c.1432495.2077637.2306519.4333496.3589478.6450195 1.1371841 2.4053116.2234879 5.511879-3.0002441 13.0112305-.090332.2619629-.2091064.4501953-.1796875.3964844-.0728149.0231934-.3065186.0551758-.6297607.0571289l-1.1606445.0039063c-.7957153.001709-1.5977173.0036621-2.4061279.0056152-34.3301506.0907211-36.8210716.392128-42.2153931-.5371094-9.4694014-1.7078323-9.2465744-4.2610016-9.8152466-14.2429199-.2335815-5.1025391-.272522-10.3010254-.2127686-15.5378418.4169593-22.3865433-.9641247-19.3736115-.00177-23.2568359.2675171-1.1220703.6921387-2.0004883 1.3847656-2.8027344.6749883-.7912598 1.5762334-1.4260254 2.58429-1.9050293 1.9581299-.953125 4.3540039-1.0021973 6.9275513-1.0593262 1.279541-.0300293 2.6466064-.1030273 3.9805908-.3137207.6809692-.1091309 1.4091187-.262207 2.1470337-.5629883.7376709-.2912598 1.47229-.7763672 2.0352783-1.3508301 1.137146-1.1594238 1.7635498-2.6455078 1.9468384-4.1328125.185791-1.4824219-.0393677-2.9091797-.4378052-4.2045898-.4300537-1.3286133-.921875-2.3000488-.9242554-3.1096191-.1368389-3.8774529 5.8948517-7.5466423 11.5961914-8.0874023 8.249321-.8405151 13.4892387 3.2636909 12.9213257 12.5014648-.0533447.8178711-.1054688 1.6162109-.156189 2.3942871-.0412598.7880859-.0716553 1.6748047.2603149 2.545166.1762619.4306641.458313.8530273.8474731 1.1757813.4118042.2834473.8742065.4631348 1.2956543.4975586.8509521.095459 1.5667725-.067627 2.2272949-.2263184 1.3074951-.3330078 2.4412231-.814209 3.4265137-.9680176 1.0039673-.105957 2.0360107-.0253906 2.8967896.1032715 1.7557373.2734375 3.0501709.8312988 3.8953857 1.2507324.8452148.4294434 1.2706909.7102051 1.3190308.6477051.0385132-.0473633-.3013306-.4399414-1.1068115-1.0058594-.8051758-.5541992-2.1064453-1.2717285-3.9520874-1.6984863-.9328613-.2026367-1.942688-.3635254-3.159729-.3095703-1.2296143.1276855-2.3643799.5588379-3.5894775.7998047-.6010132.1201172-1.2348633.2058105-1.7640991.1147461-.5449829-.0864258-.8330078-.3444824-1.0220337-.8657227-.1795044-.5258789-.1605225-1.1970215-.085022-1.9501953.0802612-.7719727.1625977-1.564209.2469482-2.3757324 1.0618553-10.9662399-5.6801796-15.5168648-14.682312-14.9003906-6.2026291.4329376-14.1378403 4.4504509-14.0797119 10.4138184.0332642 1.6186523.7072144 2.8532715.9660645 3.8398438.6254272 2.0405273.4025879 4.246582-.9179688 5.5095215-.6069336.6047363-1.4337158.880127-2.5892334 1.0395508-1.1625366.1608887-2.3341064.2062988-3.600769.2150879-1.2565308.0163574-2.5812378.0014648-3.9706421.1442871-1.3811035.1323242-2.8515625.4541016-4.2183228 1.0771484-1.3347783.607666-2.6290288 1.465332-3.6698003 2.640625-1.0515137 1.1425781-1.7926636 2.6826172-2.138855 4.1027832-.7548828 2.9194336-.5016479 5.7810059-.2877197 8.3952637.3243678 3.8722994.2813583 2.3278429-.1311654 15.615967zm124.2724003-33.642334c-1.562439-.7519531-3.1957397-.8383789-4.6409912-.7211914-1.4585571.1289063-2.8109131.4645996-4.0968628.8688965-1.288147.4123535-2.4918823.8457031-3.7698975 1.4216309-1.2529907.5913086-2.5401001 1.3068848-3.6505127 2.4147949-1.1123047 1.0751953-1.963501 2.6308594-2.213501 4.1550293-.2782593 1.5158691-.180603 2.9020996-.1159058 4.1481934.3234634 5.8649216-2.4022217 8.890419-6.0596924 9.574707-4.9932251.953064-9.845665-2.2522507-10.0609741-11.5061035-.0112915-.9824219.0159302-1.9555664.0637207-2.9143066.0233765-.4887695.0632324-.9243164.0767822-1.4921875.0033569-.2653809-.0072632-.5905762-.0766602-.9523926-.0670166-.3452148-.1896973-.6748047-.3675537-.9694824-.3312988-.5483398-.8619995-.9445801-1.4450073-1.1547852-.6246948-.213623-1.1586304-.2214355-1.6351318-.204834-.9553223.0395508-1.826416.3032227-2.5324707.4450684-1.4815063.3181152-2.9359741.4655762-4.3111572.5383301-2.755127.1357422-5.192688.0144043-7.1968994-.0683594-2.8511963-.1455078-4.8190308-.2160645-5.7373657-.1799316-.1123657-.6391602-.2839966-1.5366211-.4802856-2.6882324-.4104004-2.4221191-.9138184-5.949707-.9215088-10.3164063-.0027466-.545166.0074463-1.1032715.0214233-1.6733398.0270386-.552002.0212402-1.2097168.1040649-1.638916.1671143-.9506836.7676392-1.8618164 1.638916-2.3791504.4465332-.2617188.894104-.4187012 1.468811-.4658203.6286011-.0673828 1.2768555-.107666 1.9481201-.1191406 1.3409424-.0290527 2.7571411.0292969 4.255249.0253906 8.8518219-.0245934 12.6756439-5.1136322 12.2491455-10.7358398-.2127609-5.2494755-3.8865662-9.1277027-8.7697144-10.5612812-1.8699341-.5566406-3.9771118-.7045898-5.8779907-.420166-.3461304.0058594-.7285156.0966797-1.0355835.0373535-.1591187-.0158691-.3253784-.0166016-.479248-.0354004-.1390991-.0427246-.277832-.0795898-.4185181-.111084-.5252686-.1821289-.9246216-.4660645-1.2714233-.9262695-1.3500824-1.9690914-2.9004898-10.9900427 2.5458984-14.2172852.611084-.3652344 1.192627-.5874023 2.0548096-.8588867 6.3682861-2.15625 12.9856567-2.901123 19.1558838-3.1157227 6.1844482-.2089844 11.9674072.0893555 17.046814.3481445 2.3372192.1281738 4.5452881.2067871 6.5055542.5422363 4.9068832.8537703 7.9119873 3.1858091 9.1398926 10.7612305 1.9498596 12.5594387.5211945 34.0965881.3850098 40.8378906-.0595703 2.1933594-.0768433 3.8928223-.0643311 5.2414551-.4348143-.3735333-.9127806-.6975079-1.4309081-.9338361z" fill="#202020"/></g></svg>