<svg id="Layer_1" enable-background="new 0 0 135 135" height="512" viewBox="0 0 135 135" width="512" xmlns="http://www.w3.org/2000/svg"><g><g><path d="m56.4827995 72.4535675c.3274078-.3508224.6702576-.7457962 1.1425133-.8309479.6428261-.1159058 1.2172966.3831406 1.6798325.8443604.5588036.5572205 1.1176109 1.1144409 1.6764145 1.6716614.9881897.9853821 2.0577087 2.208107 1.8181419 3.5829239-.2165222 1.242569-1.4046211 2.0246582-2.3632927 2.8442993-2.4813309 2.1214676-4.1900711 5.4793549-7.3656273 6.2366562-.4392357.1047516-.9125671.1503067-1.333725-.012558-.4555206-.1761551-.7867126-.5688705-1.090065-.9516296-1.7705956-2.2340546-4.5881195-4.9858017-2.0738297-7.5254898 2.3151856-2.3385773 5.637436-3.4245301 7.9096375-5.8592759z" fill="#fff"/></g><g><path d="m127.8041611 61.7180519c-2.3099976 5.8198204-5.9799805 11.2199669-10.9699707 15.6999474-15.4800415 13.9099121-38.2300415 14.0100098-52.8900146.9499512-1.1600342-1.0297852-2.2800293-2.1499023-3.3300171-3.3498535-7.6400146-8.7102051-10.6599731-20.010006-9.289978-30.9401817 1.2099609-9.5598145 5.789978-18.8298359 13.5999756-25.8398457 16.710022-15.0200195 41.8800049-13.9501953 56.2200317 2.3898926 3.6699829 4.1799316 6.2699585 8.9499512 7.8299637 13.9899921 2.7300414 8.8000488 2.290039 18.4101562-1.1699906 27.1000976z" fill="#2bb673"/></g><g><ellipse cx="90.345" cy="48.6" fill="#fff" rx="28.103" ry="28.443"/></g><g><path d="m53.3841782 90.38797c-.4700317 1.3901367-1.3200073 2.7600098-2.3500366 4.1000977-1.6499634 2.1499023-3.3599854 4.2299805-5.1300049 6.2700195-4.0599976 4.6699219-8.4400024 9.0400391-13.0999756 13.0998535-6.1699829 5.3601074-13.2799683 11.9001465-21.6799927 13.3200684-1.6199951.2700195-3.4299922.2800293-4.7899776-.7099609-.4700317-.3400879-.8400269-.7700195-1.1100464-1.25-.75-1.2700195-.8999634-2.9399414-.6699829-4.4101563.3699951-2.3198242 1.4700317-4.4199219 2.6300049-6.4399414 5.4999995-9.5800781 12.5900269-18.1999512 20.8900146-25.4199219 2.6099854-2.2800293 5.3599854-4.4199219 8.3999634-6.1000977 5.2000122-2.869873 10.1300049-4.9799805 15.0800171.2299805 2.3499752 2.4702148 2.6400142 4.920166 1.8300167 7.3100586z" fill="#2bb673"/></g><g><path d="m128.9741516 34.6179543c-1.5799637.0600586-3.1900101-.5998535-4.2899857-2.2998047-8.1199951-12.5500507-26.3499756-17.5400391-40.5599976-15.8400898-14.7299805 1.7600098-28.1400146 13.6298828-32.7999878 27.5998554 1.2099609-9.5598145 5.789978-18.8298359 13.5999756-25.8398457 16.710022-15.0200195 41.8800049-13.9501953 56.2200317 2.3898926 3.669983 4.1799317 6.2699586 8.9499512 7.8299638 13.9899922z" fill="#46d38d"/></g><g><path d="m127.8041611 61.7180519c-2.3099976 5.8198204-5.9799805 11.2199669-10.9699707 15.6999474-15.4800415 13.9099121-38.2300415 14.0100098-52.8900146.9499512 1.0599976-1.1298828 2.6699829-1.6699219 4.6400146-.9699707 14.2299805 5.0700684 30.1099854 6.5600586 43.539978-1.5998535 5.9899902-3.6401368 11.3699951-8.459961 15.6799927-14.0800744z" fill="#16a85f"/></g><g><path d="m53.3841782 90.38797c-.5700073-.1298828-1.1500244-.4099121-1.7399902-.8500977-8.3699951-6.3198242-20.8600464 4.7402344-26.9400024 10.3400879-7.3500366 6.7700195-13.1799927 14.8000488-17.9200439 23.5700684-.4299927.7900391-.9599609 1.3701172-1.5599976 1.7700195-.75-1.2700195-.8999634-2.9399414-.6699829-4.4101563.3699951-2.3198242 1.4700317-4.4199219 2.6300049-6.4399414 5.4999995-9.5800781 12.5900269-18.1999512 20.8900146-25.4199219 2.6099854-2.2800293 5.3599854-4.4199219 8.3999634-6.1000977 5.2000122-2.869873 10.1300049-4.9799805 15.0800171.2299805 2.3499755 2.4702149 2.6400145 4.9201661 1.830017 7.3100587z" fill="#46d38d"/></g><g fill="#202020"><path d="m119.6963882 45.504921c-.7755966-6.2172241-3.3321075-11.7396545-6.75354-15.6301289-3.3741455-4.0966797-7.5552979-6.6362305-11.1965942-8.1091309-3.6843872-1.4587402-6.8884888-1.8518066-9.0645142-1.9047852-2.1861572.0063477-3.3757935.1965332-3.3688354.3156738.0042114.1611328 1.2009277.2485352 3.3016968.5024414 2.0929565.3105469 5.1146851.9445801 8.4985352 2.5400391 3.3449707 1.6091309 7.1129761 4.1733398 10.0610962 8.0898438 2.9448242 3.6394939 5.120575 8.7557812 5.6574097 14.4892597 2.2373734 21.412468-21.6163101 36.7379684-39.4121094 25.7145996-3.6845932-1.8598022-8.6077194-6.7196655-11.0964966-12.697998-2.9760475-7.1854362-2.962944-15.5048714 1.3604126-23.5373535 5.8257751-10.5918865 14.5714417-12.0339127 20.475708-14.2031269 1.083374-.3408203 1.1660156-.6169434 1.1537476-.8977051-.012207-.2807617-.0980835-.5419922-1.2814941-.682373-7.6622314-.5558662-17.9679947 4.2183208-23.6020508 13.9143085-5.1231346 9.0902901-5.2518501 18.6590958-1.8490028 26.9577637 2.833622 6.8821182 8.4854469 12.4545288 12.805912 14.6508789 20.6641996 12.5453796 47.5363691-5.5536728 44.3101194-29.512207z"/><path d="m3.5000343 126.3100967c.5779419.9836426 1.505127 1.851799 2.5374146 2.3447189 1.0327759.5068359 2.0845947.6728516 3.0215454.7023926.94104.0263672 1.8156738-.0720215 2.600769-.2258301 10.7363186-2.0280075 23.9247208-14.6301651 30.4949951-22.1586838 2.2546997-2.6040039 3.2598267-4.098877 3.694519-4.947998.427063-.8554688.269165-1.081543.057251-1.2663574s-.4599609-.3083496-1.2453613.217041c-.7923584.5180664-2.1068115 1.6994629-4.5753784 3.9941406-11.4184227 10.5335007-20.6727238 18.6044159-29.132019 20.1723633-1.2299805.2404785-2.4289551.2231445-3.1238403-.1379395-.3502808-.1762695-.6102905-.4135742-.8403931-.7910156-.2250366-.3742676-.3954468-.8874512-.4603882-1.4697266-.926013-6.7995453 14.6613312-25.2064819 21.8060913-31.7714844 3.8827972-3.5892868 12.1686935-10.2476273 17.4373169-9.7321777 1.8581543.1748047 3.5159302 1.215332 4.8728027 2.5373535 1.3343506 1.2971191 2.1702881 2.8105469 2.1777344 4.362793.0206909 1.5541992-.6153564 3.0566406-1.3446655 4.3312988-.7145386 1.2875977-1.6194458 2.3789063-2.3357544 3.3754883-4.6320915 6.3020706-4.31073 6.5472412.9477539.7539063.8216553-.9272461 1.819397-1.9228516 2.730896-3.2871094.8955688-1.3330078 1.8209229-3.0131836 1.942749-5.1425781.0043945-.0898438-.0040894-.182373-.00354-.2731934 1.0621948-.4133301 2.8518066-1.6694336 6.184082-4.6281738.8862915-.7868652 1.991272-1.8491211 3.1346474-3.0056152 2.3344727 1.9187012 4.8278198 3.5561523 7.4500732 4.7685547 14.6016769 6.8969955 30.3553467 4.46492 41.8475952-4.3457031 2.3726196-1.9580078 3.5390015-3.1889648 3.4595947-3.2731934-.1085205-.1240234-1.4581299.8986816-3.9368286 2.6054688-13.3426743 8.4966278-27.6854477 8.9985275-40.2059326 2.6994629-5.4525757-2.6839981-9.5268402-6.7935028-13.2105751-11.5678711-1.0889282-1.7180176-2.2346802-3.4294434-3.0601196-5.3286133-1.7613525-3.7272949-2.9761353-7.784668-3.4363403-11.9609375-.962925-9.1779709 1.0495644-16.3417168 5.0812988-24.0874043 10.3996544-18.2348595 33.1087761-25.199707 50.9401283-16.0458984 4.2507935 2.1791992 7.7655029 5.041503 10.5640259 8.1479483 5.7110748 6.5922928 9.0324631 14.713995 9.3288498 23.9899921-.3753204 9.5446625-1.3880692 16.3065491-9.1569138 26.8947754-.2450562.3427734-.4707642.6584473-.678833.9494629-.2286377.2734375-.4378662.5236816-.6292725.7526855-.3823242.4594727-.6853027.8435059-.9235229 1.1652832-.9535522 1.2885742-.8649902 1.5776367-.6759644 1.7856445.1890869.2077637.4477539.3283691 1.7825928-.6506348.3339233-.2451172.7354126-.5593262 1.2203979-.9592285.2400513-.2021484.5113525-.4162598.7865601-.6713867.258606-.2714844.5391846-.5664063.843689-.8862305 14.4259567-15.6482048 14.7975388-39.0341988 1.0946045-55.0095215-3.0771484-3.4645987-6.9778442-6.673583-11.7038574-9.1120596-19.8440399-10.2572295-44.8806687-2.3409012-56.0587807 17.8020002-4.5159187 8.8562717-6.3490868 16.6942387-5.1675415 26.3403339.5767822 4.5344238 1.9741211 8.927002 3.9649658 12.934082.520874 1.1298828 1.1467285 2.1953125 1.8062134 3.2338867-1.3010864 1.010498-2.5031738 1.9956055-3.3995972 2.7915039-3.3061523 2.9355469-4.7651978 4.5600586-5.3078003 5.565918-.2028809-.0446777-.4041748-.0942383-.6117554-.1240234-6.3199081-.8806305-15.1065845 5.5216827-19.9973145 9.7822266-7.1630745 6.204071-24.7984009 25.3783798-23.6036377 34.7751465.1217653 1.0368652.4253541 2.099121 1.0147706 3.0847167zm51.2097168-50.0385742c.8109741-.7199707 1.8065796-1.6730957 2.8458252-2.7158203.5137939.6379395 2.7649612 3.1428604 3.6976318 4.1806641-1.149231.9023438-2.2068481 1.7722168-3.0125122 2.4875488-2.1394653 1.8996582-3.4981079 3.244873-4.3473511 4.2368164-.4310303-.8222656-.9859009-1.5783691-1.6116333-2.2670898-.7030029-.7199707-1.4598389-1.4528809-2.3875732-2.0466309 1.0908814-.7163086 2.6112671-1.9182129 4.8156128-3.8754883z"/></g></g></svg>