<svg id="Layer_1" enable-background="new 0 0 135 135" height="512" viewBox="0 0 135 135" width="512" xmlns="http://www.w3.org/2000/svg"><g><g><path d="m127.9273453 73.0109406c.0200195 10.949707-.0998535 22.949707-.7600098 31.9897461-.0698242 1.0102539-.1499023 1.9702148-.2399902 2.8999023-.5100098 5.5703125-1.2799072 9.6201172-2.4199219 10.9501953-1.2700195 1.4897461-6.0800781 4.5600586-8 5.5-9.0100098 4.4399414-21.1799316 3.5800781-29.7900391 4.1000977-4.0300293.2397461-8.0599365.449707-12.0999756.6196289-10.3699951.4404297-20.7600098.6303711-31.1400146.5800781-1.9899902-.0097656-3.9899902-.0297852-5.9799805-.0600586-4.4299316-.0698242-16.7399902 1.0800781-24.6699219.25-2.8701172-.2998047-5.1700444-.8598633-6.3100591-1.8398438-.7399902-.6401367-1.4799805-4.4101563-1.6199951-7.6499023-.0999756-2.6201172.1700439-4.8999023 1.1400146-4.8901367 2.6599126.0200195 5.3399663.2299805 8.0200195.4799805 3.3399649.3203125 6.2800283-1.9101563 6.4399405-4.8500977l.5700684-10.5c.0799561-1.4399414 1.4699707-2.5498047 3.1098633-2.4897461l5.9500732.2197266c2.4200439.090332 4.4200439-1.6098633 4.4200439-3.7299805 0-2.5698242.1599121-5.1396484.4699707-7.699707.1499023-1.3100586 1.4299316-2.2900391 2.9299316-2.300293l11.5600586-.1196289c1.1799316-.0102539 2.2299805-.4501953 2.9699707-1.1401367s1.1700439-1.6201172 1.1201172-2.6401367l-.3300781-6.6699219c-.0300293-.6201172.1799316-1.2001953.5800781-1.6699219.3398438-.4199219.8198242-.7402344 1.3898926-.9199219h.0100098c.1600342-.050293.3400879-.090332.5200195-.1103516 3.2800293-.4296875 6.6300049-.3999023 9.9099121.0703125 2.2700195.3300781 4.2900391-1.2700195 4.3100586-3.2802734.0300293-2.1899414-.0899658-4.3798828-.3499756-6.5498047-.1800537-1.4399414 1.0200195-2.75 2.6600342-2.8701172 3.8000488-.2998047 7.5999756-.4399414 11.4099121-.4296875 3.1101074.0097656 5.5200195-2.3500977 5.1700439-5.050293-.1600342-1.2797852-.3399658-2.5800781-.0499268-3.7797852 1.1599121-4.8901367 8.5299072-5.8803711 14.2199707-5.7802734 8.3299561.1499023 16.6499023.2900391 24.9699783.4399414-.2500076 0-.2600174 4.0400391-.2099686 10.25.0200195 3.3901367.0599365 7.4399414.0899658 11.8203125.0198992 2.209961.0198992 4.5000001.029909 6.8500978z" fill="#3ce5d0"/></g><g><path d="m129.3174896 16.5304737c-.2299805.1801758-.460083.3603516-.6900635.5400391-5.6800613 4.3901367-12.8700027 9.0600586-19.1200027 12.4501953l-.6300049-10.0800781c-.0699463-.9199219-.1099854-1.8500977-.1099854-2.7700195-.0300293-3.7597666.4899902-7.5297861 1.5500488-11.1499033 6.5998535 1.3200684 12.9599609 3.7099609 18.7399979 7.0297852 1.4799805.8500975 1.5999756 2.9301757.2600098 3.9799813z" fill="#d33c4e"/></g><g><path d="m127.8074722 54.3405304c-4.7399902-.4599609-9.380127-1.6098633-14.1700439-1.6396484-5.0999756-.0200195-10.1099854.8398438-14.9899902 2.3198242-7.5799561 2.2797852-14.5499268 6.0600586-21.1700439 10.3701172-1.9399414 1.4296875-3.8499756 2.8999023-5.6398926 4.5600586-2.8400879 2.6396484-5.4899902 5.4399414-8.5500488 7.8295898-2.8701172 2.2402344-6.8100586 4.6103516-10.8100586 5.550293.7399902-.6899414 1.1700439-1.6201172 1.1201172-2.6401367l-.3300781-6.6699219c-.0300293-.6201172.1799316-1.2001953.5800781-1.6699219.4699707-.2900391.9399414-.6000977 1.3898926-.9199219h.0100098c.1600342-.050293.3400879-.090332.5200195-.1103516 3.2800293-.4296875 6.6300049-.3999023 9.9099121.0703125 2.2700195.3300781 4.2900391-1.2700195 4.3100586-3.2802734.0300293-2.1899414-.0899658-4.3798828-.3499756-6.5498047-.1800537-1.4399414 1.0200195-2.75 2.6600342-2.8701172 3.8000488-.2998047 7.5999756-.4399414 11.4099121-.4296875 3.1101074.0097656 5.5200195-2.3500977 5.1700439-5.050293-.1600342-1.2797852-.3399658-2.5800781-.0499268-3.7797852 1.1599121-4.8901367 8.5299072-5.8803711 14.2199707-5.7802734 8.3299561.1499023 16.6499023.2900391 24.9699783.4399414-.2500076.0000001-.2600174 4.0400392-.2099686 10.2500001z" fill="#52f7df"/></g><g><path d="m127.1673355 105.0006866c-.0698242 1.0102539-.1499023 1.9702148-.2399902 2.8999023-.5100098 5.5703125-1.2799072 9.6201172-2.4199219 10.9501953-1.2700195 1.4897461-6.0800781 4.5600586-8 5.5-9.0100098 4.4399414-21.1799316 3.5800781-29.7900391 4.1000977-4.0300293.2397461-8.0599365.449707-12.0999756.6196289-10.3699951.4404297-20.7600098.6303711-31.1400146.5800781-1.9899902-.0097656-3.9899902-.0297852-5.9799805-.0600586-4.4299316-.0698242-16.7399902 1.0800781-24.6699219.25 3.4399405-1.6000977 7.2999258-2.1000977 11.039916-2.5498047 13.3499756-1.6098633 26.6900635-3.300293 40.0200195-5.0698242 12.960083-1.7099609 25.7000732-2.7900391 38.2600098-7.1601563 6.4799805-2.25 13.0599365-5.2900391 17.5100098-11.1298828 6.6900635-8.7802734 5.8599854-20.4599609 8.2698975-30.9199219.0200205 10.9497072-.0998525 22.9497072-.7600088 31.9897462z" fill="#2ad8bf"/></g><g><path d="m129.3174896 16.5304737c-.2299805.1801758-.460083.3603516-.6900635.5400391-2.1300125-1.1396494-4.3299637-2.1098642-6.6600418-2.7797861-3.3099365-.9399414-11.4599609-2.2202148-13.1398926 2.2202158-.0200195.0498047-.0400391.1098633-.0600586.159668-.0300293-3.7597666.4899902-7.5297861 1.5500488-11.1499033 6.5998535 1.3200684 12.9599609 3.7099609 18.7399979 7.0297852 1.4799805.8500975 1.5999756 2.9301757.2600098 3.9799813z" fill="#e84d68"/></g><path d="m49.6178474 81.3910751c-.1397705-.0009766-.1802979.015625-.4169922.0136719-7.6619835.0520859-3.2226868.0219193-11.3640137.0786133l-.4310303.019043c-1.1945801.0966797-2.383667.5932617-3.2954102 1.5380859-.453125.4702148-.8278809 1.0678711-1.0336914 1.7451172-.4048653 1.3122559-.6408081 6.3881683-.6563721 8.3217773-.0046654 1.4094086-1.0217705 2.06353-2.1411133 2.0727539-.1424561.0083008-.5828857-.012207-.9133301-.0249023-2.4761028-.0956726-3.4762192-.1342545-5.1748047-.2001953-1.0018311-.046875-2.1594238.1948242-3.0906982.7998047-.9417725.5878906-1.7536621 1.5634766-2.0577393 2.7768555-.0782471.2817383-.1168213.6479492-.1318359.875l-.0270996.4926758c-.6482258 11.7348862.0631104-.9625778-.5738525 10.1870117-.1062012.7607422-.5976563 1.4951172-1.3426514 2-.7391357.5078125-1.6859131.7685547-2.6158447.7138672-7.2072291-.5798798-5.5408964-.3799744-6.9099121-.46875-.5054932-.0102539-1.0092773-.0205078-1.5113525-.0307617-.4370117.0966797-.9156494.0952148-1.2851563.3364258-.4046631.2080078-.7178953.5444336-.9749753.9067383-.1297607.1831055-.2443848.378418-.3284912.5976563-.1044922.2045898-.1727295.4311523-.2364502.6601563-.0765381.2275391-.1202393.4516602-.1608887.6748047l-.0654297.3359375-.0288086.2202148c-.1446533 1.152832-.1322021 2.171875-.0980225 3.1918945.0952148 2.0273438.3256836 3.9394531.7830811 5.9106445.1217041.4990234.2508545.9921875.4578857 1.5478516l.187866.4570313c.1015625.2001953.1965332.4072266.3265381.5888672.2421875.38134.5550537.6879807.9499512.962883 6.426259 4.4602966 74.2558136.7763367 81.9276123.237793 7.9210739-.4832001 21.9999084-.2509766 29.7797852-4.1230392 2.0168457-1.0668945 2.0247803-1.4091797 1.9140625-1.637207-.1220703-.2568359-.387085-.3696289-2.4494629.2075195-10.6306076 2.6487579-20.0759811 1.9240952-29.4161377 2.2700195-5.3368988.2476196-75.1313095 2.8702164-79.3660889-.2124023l-.0670166-.1679688c-.111084-.2949219-.2172852-.6835938-.3100586-1.0737305-.3699951-1.5932617-.59021-3.387207-.6650391-5.1293945-.0310059-.8647461-.027832-1.7563477.0712891-2.5063477l.0197754-.152832.0037842-.0200195.0009766-.0014648.0032959-.0009766c.4449463.0166016.8930664.0332031 1.3442383.0498047 2.4744625.1457214 1.0087166.0399323 5.9160156.4345703 1.7491455.0922852 3.5701904-.3725586 5.1000977-1.4174805 1.5227051-1.0214844 2.7850342-2.7358398 3.0748291-4.7714844.1606178-2.7884369.601738-10.4466171.6412354-11.1538086.0064697-.152832.4035645-.5712891 1.0601807-.5195313.164278.0059052 1.1334343.0407944 5.175293.1850586.3702393.0092773.6320801.0341797 1.1948242.0219727 3.1880608-.076561 6.0876198-2.4782028 6.0185547-6.0766602.0023384-.6014557.1324806-6.925087.5568848-7.3588867.1357422-.1494141.4257813-.3085938.7491455-.3300781 2.2278175-.0335236 1.1318398-.0199585 11.5036621-.1513672 2.9855995.0664902 5.9122543-2.0799866 6.144043-5.1767578.0222206-.5573807.0346375-.3581696-.3416748-7.3525391-.005127-.0742188.0241699-.1503906.0712891-.2431641.1043701-.1826172.3581543-.3862305.6951904-.4443359.1205177-.0478592 3.3214417-.4786682 6.920166-.2456055.7841797.050293 1.5677528.1279297 2.3485146.2319336.1513672.0234375.4902344.0581055.7840576.0795898 2.5960693.0211029 4.4662094-1.2698364 5.3323975-3.0629883.2871094-.5883789.4638672-1.2543945.482666-1.9238281.0169678-.5385742.0064697-.8950195.0020752-1.3520508-.0281982-1.7319336-.1429443-3.4658241-.345459-5.1914101.0962524-.1343384-.5201492-.9700813.9622803-1.2861328l.2908936-.0249023c1.6541748-.1347656 3.3123779-.2387695 4.972168-.3134766 1.65979-.0756836 3.3214111-.1206055 4.9827881-.1362305l.6229248-.0043945c.2147217-.0024414.3874512.0029297.6849365-.0131836 3.6407089-.1188507 6.6891022-2.8564148 6.6002197-6.3886719-.0345459-.6694336-.1063232-.9824219-.1491699-1.3920898-.3519669-2.8514328.4407425-4.7059669 3.8820801-5.8334961 1.3902588-.4970703 2.9244385-.7905273 4.4787598-.9594727 1.56604-.1679688 3.1270752-.2080078 4.7431641-.1850586 1.6386719.0175781 3.270752.0356445 4.8955078.0532227 3.2575684.0322266 6.4853516.0644531 9.675415.0961914 1.7578125-.0415039 3.2509766-.2451172 4.7485352-.2558594.7392578-.015625 1.4584961.0112305 2.1021729.1137695.6459961.0883789 1.2304688.2866211 1.4840088.5195313.2623291.2480469.3049316.3417969.3461914 1.0444336.0129395.7124023-.0229492 1.4477539-.0686035 2.190918-.6363831 10.2054901.469841 39.069622-.0402832 51.1943398-.1540527 4.1494141-.4515381 7.8925781-.8535156 11.1630859-.1889648 1.6376953-.4375 3.1494141-.6519775 4.546875-.2250977 1.4160156-.4047852 2.6635742-.8602295 3.65625-.220459.503418-.5054932.8886719-.8496094 1.2744141-.3292236.3793945-.6612549.7148438-.9830322 1.0136719-.6444092.597168-1.2459717 1.0473633-1.7416992 1.3974609-.9978027.6948242-1.5629883 1.015625-1.5274658 1.0854492.0268555.0556641.6523438-.1381836 1.7479248-.7319336.5449219-.3007813 1.2054443-.7075195 1.9251709-1.2802734.3592529-.2866211.7329102-.6147461 1.1075439-.9941406.3704834-.3603516.7806396-.8461914 1.0579834-1.402832.5863037-1.1123047.8378906-2.4584961 1.1229248-3.8261719.2810059-1.3984375.5966797-2.9204102.8514404-4.5678711 2.9952469-18.4672852 1.1515274-47.2782593 2.3532639-62.3378944.0601807-.7788086.1132813-1.5742188.1119385-2.4003906l-.001709-.3100586c-.0008545-.1054688-.0262451-.2758789-.0422363-.4116211-.0562744-.2900391-.0444336-.5683594-.1854248-.8623047-.2030029-.5966797-.5889893-1.1274414-1.043457-1.5263672-.9383469-.7866211-1.9234543-1.0112305-2.8021164-1.1708984-.895752-.1542969-1.7484131-.1904297-2.5789795-.1870117-1.6472168-.0092773-3.3029785.1782227-4.7272949.1855469-3.1732178-.0761719-6.3837891-.152832-9.6241455-.2304688-.1195068-.0029297-.2403564-.0058594-.3599854-.0087891.8031006-1.4106445 1.6442871-6.8945313 2.0634766-11.2509747.4370117.0986328 1.237915-.0395508 2.8818359-.7231445 1.4016113-.5878906 3.4101563-1.5825195 6.2683105-3.2563477 2.8459473-1.6943359 6.5710449-4.0131836 11.1990891-7.6079102.1071777-.0795898.4371338-.3413086.6859131-.6113281.2532959-.2744141.4805908-.5864258.6618652-.9301758.3658447-.6865234.5517578-1.4877939.5133057-2.2983408-.0321045-.8100586-.3094482-1.6367188-.810791-2.3422852-.2457275-.3564453-.5601807-.6665039-.9018555-.9370117-.168457-.1264648-.3679199-.2514648-.5314941-.3505859l-.3303223-.1796875c-1.7676926-.9682617-3.7125168-1.8916016-5.7554855-2.7294917-2.0405273-.8447266-4.1829834-1.59375-6.3352051-2.2412109-1.0780029-.3193359-2.1577148-.6147461-3.2314453-.8754883-.5385742-.1230469-1.0734863-.2456055-1.6037598-.3666992l-.7950439-.1655273c-.0974121-.0224609-.3397217-.0668945-.5498047-.0927734-.2155762-.0166016-.4302979-.0249023-.6446533-.0058594-1.7434082.105957-3.1282959 1.5449219-3.3057861 3.0854492-.1208496 1.0629878-.1491699 2.0361323-.1392822 2.9785151.0250244 1.8730469.2163086 3.5200195.4185791 4.887207.1555176.9936533.3109131 1.8378916.4589844 2.515626-.9178467.1352539-1.649292 1.2583008-1.9777832 8.7719727-.1855469 4.2441406.1629639 12.8471661 1.0357666 14.7084942-1.2666016-.0302734-2.5339355-.0610352-3.8087158-.0917969-1.6599121-.0454102-3.3947754-.0268555-5.114624.1376953-1.7264404.1679688-3.4761963.4658203-5.2243652 1.0634766-4.2976685 1.3749657-6.6471176 4.2848129-6.1187744 9.2324219.1239014 1.0288086.1751709 1.315918.0113525 1.8276367-.3031769 1.0365257-1.3269196 1.7977524-2.387085 2.0449219-.2841797.0751953-.5831299.1103516-.883667.1157227-.1223145.0107422-.3702393.0053711-.5759277.0048828l-.6383057-.0024414c-1.7023926-.0019531-3.4055176.0268555-5.1075439.0869141-1.7020264.0595703-3.4029541.1494141-5.1005859.2709961l-.3371582.0258789c-.15979.019043-.319458.0327148-.4783936.0639648-2.2226028.4228668-3.7989731 2.1902542-3.7961426 4.3447266.0054932.1601563.0236816.4267578.0341797.4990234l.0335693.3012695c.1734619 1.6083984.2655029 3.2226601.2772217 4.8339882.0058441 1.3966904.1014786 2.5222321-2.0153809 2.612793-.119751-.0175781-.1950684-.0141602-.4542236-.0541992-.8637695-.1230469-1.7303505-.2158203-2.5976601-.2788086-3.5946808-.2620621-6.1581116.0606918-6.4893799.074707l-.6435547.0678711c-.2371826.03125-.3662109.0332031-.7349854.0996094-1.2734375.2250977-2.5170898.984375-3.255249 2.2055664-.9698219 1.6293182-.6001091 2.7677155-.3485107 8.2861328.0773157 1.4178387-.009194 2.1299435-1.8941657 2.5297848zm59.9870644-71.0810575c.0930176-.8579102.2258301-1.7729492.4182129-2.6469722.1134033-.4082031.5223389-.6855469.8929443-.6459961.0456543.0009766.0909424.0141602.1359863.0205078.0473633.019043.0637207.0185547.2199707.0664063l.7424316.2207031c.4951172.1557617.994751.3129883 1.4976807.4707031 1.0026855.327148 2.0111084.6826167 3.0170898 1.054687 2.0085449.7539063 4.0061035 1.5825195 5.8981934 2.4746094 1.8952637.8857422 3.6890869 1.824707 5.3017578 2.7680664l.3019943.1743164c.0375977.0317383.0418701.0341797.064209.0488281.024292.0322266.0537109.0517578.0661621.0849609.0318604.0566406.0625.128418.0563965.2075195-.0023193.0771484-.0223389.1459961-.0523682.1992188-.0142822.027832-.0341797.0507813-.0563965.0756836-.0297852.0249023-.0098877.0200195-.2154465.1772461-4.4370117 3.4477549-8.0219727 5.8164072-10.6896973 7.640626-2.6844482 1.8081055-4.5015869 3.0366211-5.6954346 3.9301758-.5483398.4077148-.9594727.7446289-1.2724609 1.0322266.0263672-.3916016.0478516-.7636719.0627441-1.1054688.3118896-7.1352539-.2409668-8.5610352-1.0700684-8.8710938.0461426-.7167969.0778809-1.6230469.1025391-2.6914072.0417483-1.3535156.0874026-2.9555663.2735598-4.6855468z" fill="#202020"/></g></svg>