<svg id="Layer_1" enable-background="new 0 0 135 135" height="512" viewBox="0 0 135 135" width="512" xmlns="http://www.w3.org/2000/svg"><g><g><path d="m74.8772659 131.9290771h-61.7529974c-3.4517794 0-6.25-2.7982178-6.25-6.25v-115.5c0-3.4517794 2.7982206-6.25 6.25-6.25h61.7529984c3.4517746 0 6.25 2.7982206 6.25 6.25v115.5c-.000001 3.4517823-2.7982264 6.25-6.250001 6.25z" fill="#fbb040"/></g><g><path d="m68.7033463 117.2474976h-49.405159c-2.1367626 0-3.8689508-1.732193-3.8689508-3.8689499v-90.898941c0-2.1367645 1.7321882-3.8689518 3.8689508-3.8689518h49.405159c2.1367569 0 3.8689499 1.7321873 3.8689499 3.8689518v90.898941c-.0000001 2.1367569-1.7321931 3.8689499-3.8689499 3.8689499z" fill="#fff"/></g><g><ellipse cx="41.12" cy="124.537" fill="#fff" rx="3.865" ry="4.131"/></g><g><path d="m128.9000244 52.5009193v40.0042839c0 1.4313049-.2535553 2.7832718-.7164764 4.0331573-1.6643753 4.4536743-6.0071487 7.5098877-11.0552979 7.3168335l-68.6907425-2.7039413c-5.4339676-.2158051-9.776741-5.1465759-9.776741-11.0210114v-36.0049628c0-5.8738747 4.3427734-10.7708092 9.776741-10.941124l68.6907425-2.1358528c6.4590302-.2047119 11.7717743 4.9196777 11.7717743 11.4526176z" fill="#27aae1"/></g><g><path d="m128.183548 96.5383606c-1.6643753 4.4536743-6.0071487 7.5098877-11.0552979 7.3168335l-68.6907425-2.7039413c-5.4339676-.2158051-9.776741-5.1465759-9.776741-11.0210114v-35.6865234c0-5.7834511 4.0892143-10.6459885 9.3358231-11.1913261.7715721.9542007 1.2675858 2.192997 1.2675858 3.7036285v34.9142876c0 6.9651108 6.2606392 12.7818451 14.1305504 12.986557z" fill="#1799c6"/></g><g><path d="m125.7584457 71.1377258-84.684433.166481c-1.4170074.0027847-2.5621071-2.1435013-2.5621071-4.7938538v-7.3764c0-2.6503563 1.1450996-4.8250923 2.5621109-4.8575134 8.6522102-.1979561 17.3044205-.3959122 25.9566269-.5938721 7.6493835-.1750107 15.2987671-.3500252 22.9481506-.5250397 7.0099945-.1603813 14.197525.140152 21.1822739-.4850807 4.8637009-.4353752 9.8182526-.3928795 14.7237625-.4872017.7341995-.0141182 1.5265274-.0104256 2.1210403.4338913.7352753.5495186.9269104 1.6001854.8729401 2.5346947-.2019653 3.4973221.0232391 7.0900307.0232391 10.6443787.0000039 2.9455185-1.4101523 5.3361054-3.1436042 5.3395157z" fill="#fff"/></g><g><path d="m115.0563889 92.9634399-7.3597565-.2042465c-1.7301102-.0480194-3.1276627-1.5071182-3.1276627-3.2591705v-6.6732864c0-1.7520523 1.3975525-3.1543121 3.1276627-3.131958l7.3597565.0950851c1.7661133.0228195 3.2029953 1.4838562 3.2029953 3.263237v6.7773743c0 1.7793808-1.4368821 3.1819763-3.2029953 3.132965z" fill="#f9ed32"/></g><g><path d="m53.9221191 62.6132393c0 2.5230217-1.9374619 4.5701485-4.3149681 4.5723763-2.3638496.0022125-4.2701797-2.0200882-4.2701797-4.5169258 0-2.4968338 1.9063301-4.5437622 4.2701797-4.5720863 2.3775063-.0284883 4.3149681 1.9936103 4.3149681 4.5166358z" fill="#d7df23"/></g><g fill="#202020"><path d="m44.0451889 119.9309006c-.699646-.5400391-1.7225342-1.0068359-2.9731445-1.0195313-1.2354736-.0209961-2.7052002.4926758-3.789917 1.6508789-.5843506.6308594-1.1079712 1.4970703-1.3369141 2.5175781-.2410278 1.0141602-.2028198 2.1533203.1828613 3.2290039.3753052 1.0756836 1.1276855 2.0468826 2.0995483 2.6860428.9775391.6342773 2.1809082.8989258 3.2445068.7348633 1.7742691-.2361755 3.2527924-1.5367126 3.7088013-3.2475662.3030396-1.2324219-.0142822-1.9594727-.1959839-1.9458008-.2276001-.0039063-.3634644.6826172-.8973389 1.4790039-.5043945.7900391-1.5758667 1.6381836-2.7759399 1.5605469-.5924072-.0175781-1.1571045-.2568359-1.6060791-.6376953-.4407959-.3950195-.7667236-.9272461-.8982544-1.4907227-.2946167-1.1518555.1646729-2.2490234.6997681-2.7924805 1.0245972-1.0351563 2.2387085-.8286133 2.921936-.4204102.7275391.4296875 1.0838623 1.0029297 1.3461304 1.3789063.4647217.8066406.7631836.9423828 1.2097778.9228516.2108154-.0009766.4115601-.0073242.5859375-.1953125.1674805-.1875.3440552-.5708008.2786865-1.3291016-.0919799-.7226562-.3974608-1.9521484-1.8043822-3.0810546z"/><path d="m115.498436 104.7380295c1.1570435.0239258 2.2081909.0957031 3.5290527.0390625 1.2576294-.1064453 2.4869385-.3901367 3.6414795-.84375 2.2958374-.9423828 4.2386475-2.5742188 5.5060959-4.578125 1.2950439-1.9951172 1.8765259-4.3300781 1.8685913-6.5600586-.1286621-8.0209961-.2445068-15.2495117-.3422852-21.3442383.0234985-.0004883.0485229-.0009766.0720215-.0014648-.0350342-1.6899414-.0684814-3.3022461-.1002197-4.8305664-.1264038-4.3647156-.0603333-2.4107666-.3162231-9.2597656-.0237427-.5136719-.0476685-.9760742-.0717163-1.4140625-.12323-2.9570313-.2501831-4.597168-.380188-4.597168-.0517578 0-.1030273.2617188-.1538086.7583008-.4806519-.4130859-2.4532394-.7558594-10.4962692-.9057617-17.3670197-.323555-59.9107285.4356995-77.482666.7636719.0140381-.105957.0282593-.2124023.0415649-.3183594.1767578-1.2670898.6734619-2.4482422 1.3342285-3.4711914 1.3297729-2.0576172 3.5598755-3.3081055 5.6803589-3.3676758 5.6905518-.1889648 11.0101929-.3657227 15.9830322-.53125 31.0245895-1.1098976 21.4664841-.7442093 44.5916748-1.6982422 7.7998657-.3727112 6.8228683-.3254967 8.5696411-.4160156.5006104-.0273438 1.0024414-.0581055 1.3825684-.0493164.8183594-.0302734 1.581543.1049805 2.2944336.2495117 2.8535156.7133789 4.6071167 2.4042969 5.6037598 3.7880859 1.0206909 1.4160156 1.4092407 2.5996094 1.6893311 3.3959961.2732468.809082.3839645 1.2724609.5369797 1.5185547.1455688.2480469.284668.2841797.4251709.2836914.140564-.0004883.2762451-.0322266.3953247-.3051758.1102295-.2734375.2581787-.7939453.2030029-1.7763672-.0675659-.9667969-.2727051-2.4541016-1.3299561-4.3408203-.5351486-.9287109-1.2744675-1.96875-2.3849411-2.9243164-1.0994263-.9541016-2.545166-1.8720703-4.3806763-2.4179688-.9188843-.2485352-1.9198608-.4667969-2.9959717-.4853516-.5651245-.03125-1.034729-.0195313-1.5332031-.0146484-1.9146957.0205803-.57901.0024338-8.5724487.1186523-21.4957123.4546661-17.0885696.3530159-25.1947632.5688477.0129318-3.9311218.0064011-.1143913.041626-25.4492188.0007935-.987793.0015869-1.9833984.0024414-2.9873047-.0368423-.1000013.7437668-9.1917572-8.1101685-9.4326172-.5443115-.0024414-1.0907593-.0048828-1.6394043-.0073242-15.9147415 0-39.3301239.0267627-57.0598755.0756836-.7963867.0024414-1.59552.0048828-2.3972778.0073242-.6904297-.0068359-1.8773193-.0097656-2.8830566.2763673-3.4017211.8763003-5.9595667 3.948698-6.0943623 7.5585947l-.0150757.3935547c.0473971 13.1246729.0388417 10.7389269.041748 11.5385733.5014114 93.4140244.3928981 75.8480072.6094971 103.7285156.0128174.3701172.0128784.8842773.0984497 1.3110352.2705078 1.7890701 1.2106934 3.443367 2.5661621 4.5669022 1.3450928 1.1367188 3.0854492 1.7583008 4.7976074 1.7548828 5.9385777-.054184-1.3231869.0270844 34.2201538-.3842773 35.972908-.5132294 37.5845642-1.0487518 0-1.5849609-32.0847015-.3713379-28.2782249-.3283844-34.2030029-.3886719-1.1748047-.0229492-2.3329468-.465332-3.2300415-1.2480469-.90448-.7753906-1.5059814-1.8955154-1.6636353-3.083992-.0563354-.3134766-.0435791-.5595703-.052124-.9428711.0063744-.3957291.1721621-22.2789154.1730957-22.4013672.1394654-26.0004884.2921753-54.4575197.4363404-81.3271486.0069923-1.9141026.0281239-7.6932659.041748-11.5385733l.0133667-.2226562c.0775833-1.9142666 1.4705687-3.5253286 3.2359619-3.9648442.5574951-.1420898.9981079-.1455078 1.9071655-.137207.8017578.0024414 1.6008911.0048828 2.3972778.0068359 19.0927448.0526819 45.6472244.0808921 57.0598755.0756836 7.2588806.0271997 5.3379517 5.0018735 5.6931763 5.3706059.0008545 1.0039063.0016479 1.9995117.0024414 2.9873047.034584 24.8761368.0272293 21.0768204.0419922 25.5551758-1.4874878.0395508-3.003479.0800781-4.571228.121582.0447922-25.2079353.0130234-5.9533424.0266113-17.5874023l-.0220337-.4453125c-.6689224-7.0063534-8.6989441-5.3889942-16.232666-5.3911133-38.1380768.0611858-27.0831356.0483589-38.4075928.0839844-.4799805-.003418-1.5859985-.0244141-2.4556274.300293-1.795105.5874023-3.2503662 2.0922852-3.756958 3.934082-.1279297.4570313-.2025757.9306641-.2128296 1.402832-.0393744.8195648.0112581 6.2580051.4782104 73.6396484.0058489.5947037.1609297 16.467308.1730957 17.3461914.0016479.324707.0373535.7553711.1124268 1.1210938.3233643 1.5170898 1.3486328 2.8320313 2.6973877 3.4975586.6710205.3374023 1.414917.5209961 2.1516724.5385742 3.8593864-.0293198 1.3031311.0018311 28.217165-.3984375 6.598877-.1220703 11.9394531-.25 15.630249-.3823242 7.4287109-.2673187 7.8534775-.539238 0-.8208008-3.6907959-.1328125-9.0313721-.2607422-15.630249-.3823242-32.2794609-.4824448-23.7904434-.3427963-28.1354389-.4121094-.3913574-.0200195-.772644-.1254883-1.1175537-.3085938-.6955566-.3623047-1.2024536-1.0649414-1.3491211-1.8320313-.0305786-.2080078-.0445557-.359375-.0429688-.6206055.0356293-3.3104935.0038986-.1631393.1730957-17.3461914.5445366-78.6114883.4197655-73.4771729.5662842-73.9873047.1700439-.605957.6734619-1.1103516 1.2611694-1.2944336.4591408-.1494045-2.2664242-.0740795 39.647583-.0068359 9.5591507-.0013447 10.5086899-.0487137 10.8099365.0571289.6748276.1586266 1.2746582.7381039 1.3793945 1.612793l.0076294.1411133.0023804.2695313c.0070801 4.3443604.020874 12.8115234.0289917 17.3774414-9.2020378.2465973-2.8217697.064537-22.8236084.6513672-3.1091309.0751953-6.0661011 1.6123047-8.0927734 3.9833984-.8785667-18.6668873-1.775219-13.7577629-2.484436 4.6181641-.7891541 2.6585732-.5505219 3.6884346-.5247192 18.6459961-.1099243 5.6679688-.1713257 11.0244141-.1713257 15.1542969 0 29.1357422.9116211 29.7451172 2.0361328 29.7451172.8605347 0 1.5958252-.3730469 1.8939819-13.5898438.5213013.5166016 1.09021.9907227 1.7080688 1.4082031 1.184082.7973633 2.5440674 1.3798828 3.9800415 1.6591797.3571167.0825195.7193604.1298828 1.0855103.1538086l.5474243.0463867.4563599.0170898c15.186657.490036-17.9972324-.5717926 22.9230957.737793.2394333 10.062973.4386749 9.9897766.3257446 10.7119141-.0465698.3188477-.1420898.6074219-.2681885.8554688-.2387695.5083008-.5800781.8520508-.8746948 1.1069336-.6116943.5004883-1.0725098.6474609-1.3026123.8125-.2414551.1445313-.284668.284668-.2832031.4248047.0015259.1401367.0308228.2768555.3496094.3930664.3068848.0849609.9677734.2138672 2.0559082-.2734375.5269165-.2548828 1.1682739-.6767578 1.7038574-1.4394531.2728271-.3745117.5120239-.8369141.6708984-1.3793945.1713867-.5263672.2085571-1.2265625.2271729-1.6870117.1516724-2.9243851.254776-6.4886551.3253174-9.4316406 1.8209839.0585938 3.6425171.1166992 5.4605103.1748047.0849915 7.0610275.1888123 13.8313904.4122925 21.1884766.0078735.371582.0378418.8168945.0279541 1.0883789.0112305.2978516-.0288696.5805664-.05896.8554688-.1835938 1.0917969-.65979 1.9482498-1.173584 2.5708084-.5134277.6298828-1.0637207 1.0366211-1.5361328 1.3193359-.9533691.5732422-1.588623.7089844-1.9088745.8720703-.3308716.1494141-.3832397.2900391-.382019.4301758.0012207.140625.0424194.2758789.4351196.3891602.3829346.0913086 1.1717529.2260742 2.5228271-.253418.6685181-.2407227 1.4758301-.6572266 2.2775269-1.4213867.7974854-.7558594 1.5987549-1.8813477 1.9934692-3.4384842.0819702-.3896484.1657104-.7993164.1863403-1.2314453.0328445-.3724442.0241623-.2302246.1299438-3.7128906.1318283-5.6451492.2129593-8.5181122.3342285-18.5517578 8.7799072.28125 17.4718018.559082 25.8076172.8261719 2.3409443.0688464 4.6541767.1362292 6.934084.2031238zm2.8067627-50.6582031c7.6506348-.409668 9.7928391-.8017578 10.3820114-1.2099609-.0547485.7568359-.1088257 1.793457-.1622314 3.0751953-.0240479.4379883-.0479736.9003906-.0717163 1.4140625-.2538147 6.7938919-.1903839 4.922226-.3162231 9.2597656-.0605011 2.3193283-.0379333 1.6391907-.1001587 3.0966797-.402153-.0151367-.8133469-.0302734-1.2332077-.0463867-13.303894-.2634659-19.3637543-.3166733-39.7701416-.5595703-15.3311157-.1088867-31.6981812-.2250977-46.3565063-.3295898.0316391-18.3534813.0219116-10.8825417.0219116-12.765625 17.1929892-.2659532 60.3433379-1.0106279 77.6062621-1.9345704zm-69.9743653 44.7495117-.4464111-.0214844-.3513184-.0375977c-.2353516-.0146484-.4678955-.0458984-.6954956-.105957-2.850029-.5867157-5.0713577-2.9770203-5.8399658-5.6972656-.2717285-.9365234-.3742676-1.8286133-.3759155-2.859375.0400276-10.4522781.0355492-9.9617462.0485229-17.4472656 7.0892944-.0571289 14.460022-.1171875 21.9174194-.1777344 28.7396393-.3344574 19.4635315-.2071304 47.276001-.6337891 6.71698-.1347656 12.8856812-.2583008 18.2447433-.3662109-.0975952 6.0883789-.2133713 13.3056641-.3417892 21.3125-.048645 1.8212891-.5620117 3.6679688-1.6293335 5.2236328-1.043457 1.5654297-2.6079102 2.8061523-4.4158325 3.503418-.9116821.3310547-1.8739014.5292969-2.8574219.5947266-.9257813.0219727-2.1359863-.0634766-3.2581787-.1152344-2.2780762-.1132813-4.5894775-.2280273-6.9285278-.3442383-18.7145996-.878418-39.1968384-1.8398438-58.5366211-2.7475586z"/><path d="m115.0564194 92.9631271c.0078125-.2807617-1.2738037-.5844727-3.350708-.8857422-1.0384521-.1503906-2.2756958-.3007813-3.6500854-.4472656-.4033813-.034668-.5401611-.0737305-.7658081-.1557617-.2060547-.0810547-.4015503-.1962891-.5709229-.3481445-.3416748-.2988281-.5813599-.7250977-.6470337-1.1645508-.0358276-.2553711-.0213623-.3408203.0043945-.8305664.1594849-3.0555801.2043915-4.2982635.2832031-6.2475586.0302734-.4438477.1957397-.7202148.4432373-.9511719.2486572-.2172852.5453491-.3100586.8423462-.2905273 2.849678.0970306 1.4675064.0580978 6.3157959.1704102 1.388855.0097656 1.3876343.0014648 1.7662354.2451172.3031006.21875.4896851.5473633.5309448.8676758.0480957 1.6123047.0894775 2.9995117.1251221 4.1943359.0310059.625.0595703 1.199707.0857544 1.7280273.0299683.4389648.057312.8393555.0822754 1.2050781.0115967.4174805-.1178589.7719727-.2860718 1.0415039-.3413696.5478516-.7359009.8022461-.9373779 1.0708008-.2174683.2475586-.2677613.5180664-.2713013.7983398-.0036011.2802734-.0079346.5512695.3913574.7827148.2006836.0996094.5111084.190918.9754028.1601563.4598999-.0297852 1.0879517-.1860352 1.7749634-.6777344.6756592-.4794922 1.4212646-1.3608398 1.6951294-2.6918945.128479-.769043.1113892-1.144043.1566162-1.6889648.1062775-2.1394196.0720749-1.3251877.1542358-3.7607422.032402-1.3466492.0247955-1.0016632.0393677-1.7382813l.0048828-.3168945-.0204468-.5043945c-.1900711-2.2894974-1.9701385-4.2798462-4.291687-4.6855469-.9804688-.1430664-1.3431396-.0727539-1.9227905-.1015625-4.8071136-.0136719-3.5415726-.0168457-6.4055786.0126953-1.2828979.0180664-2.5998535.5913086-3.492981 1.5615234-.9090576.9428711-1.3929443 2.3349609-1.3364258 3.5693359.121582 3.0020065.0757675 1.9618073.2192383 5.0195313.0214844.4125977.0428467.8222656.0640259 1.2280273.0125122.3203125.046936 1.0478516.2247314 1.5615234.3353882 1.1015625 1.0656128 2.0053711 1.9539185 2.5610352.4431763.28125.9307251.4726563 1.4214478.574707.4718018.1079102 1.0462036.1030273 1.3306274.078125 1.3803711-.0703125 2.6240845-.1513672 3.6693115-.2441406 2.0903931-.1860351 3.3868409-.4179687 3.3946534-.6992187z"/><path d="m46.529747 67.4782639c1.0606079.6811523 2.3609619.9394531 3.5043945.7651367 1.9187469-.2672653 3.5217285-1.6605148 4.0425415-3.503418.3519897-1.3393555.0245361-2.1416016-.1546631-2.1269531-.2300415-.0048828-.3562622.7558594-.9370728 1.65625-.5487061.8901367-1.7415161 1.8740234-3.130188 1.8217773-.682312-.0102539-1.3488159-.2553711-1.8745728-.6894531-.5195313-.4399414-.9093018-1.043457-1.0668945-1.6889648-.3568726-1.3144531.1702881-2.5883789.8024902-3.2265625.9386406-.9760056 2.2969475-1.1649475 3.4568481-.5083008.8448486.4980469 1.2377319 1.1586914 1.5201416 1.5883789.270874.4501953.4331055.7329102.6261597.8793945.1904907.1499023.392395.1689453.6030884.1674805.2108154-.0009766.411499-.0083008.5849609-.2138672.1659546-.2045898.3435669-.621582.2575684-1.4428711-.1140137-.7817383-.4677124-2.112793-2.0070801-3.3041992-.7644653-.5703125-1.8700562-1.0498047-3.2080688-1.0493164-1.3223267-.0053711-2.885498.5454102-4.0535889 1.7856445-1.5778008 1.6856689-2.0153885 4.1112785-1.2572021 6.199707.4069215 1.1655274 1.2344972 2.2109375 2.2911378 2.8901368z"/><path d="m48.656395 13.6247492c12.1784668 0 12.4331665-.9116211 12.4331665-2.0361328s-.2546997-2.0361328-12.4331665-2.0361328c-28.0259877 0-27.9591828 4.0722656 0 4.0722656z"/></g></g></svg>