<svg id="Layer_1" enable-background="new 0 0 135 135" height="512" viewBox="0 0 135 135" width="512" xmlns="http://www.w3.org/2000/svg"><g><g><path d="m101.6203461 96.621315c-3.4699707 8.4204102-9.7299805 23.9301758-10.6599731 25.8300781-4.0800171 8.3403244-15.6099854 9.7499924-24.75 9.6103439-2.2200356-.0400391-4.5300331-.2602539-6.660038-.8901367-1.9299927-.5800781-3.7099609-1.4799805-5.1300049-2.8598633-.1099854-.1103516-.2099609-.2099609-.3099976-.3203049-1.9299927-2.0600586-2.8799438-4.7998047-3.7699585-7.449707-2.1799927-6.5-4.3699951-12.9902344-6.5499878-19.4902344-.9700317-2.8901367-6.2200317-10.7998047-.5599976-11.449707 7.6699829-.8803711 15.2199707-1.2304688 22.7299843-1.1904297 10.6099854.0400391 21.1300049.8701172 31.8099976 2.0800781 3.0800171.3500977 4.9799805 3.3701173 3.8499756 6.1298829z" fill="#8b5e3c"/></g><g><path d="m101.6203461 96.621315c-3.4699707 8.4204102-9.7299805 23.9301758-10.6599808 25.8300781-2.3069229 4.7157974-7.1551361 7.2109604-12.0540619 8.4166489-2.6310043.6475372-5.337059.9682007-8.0395432 1.1131439-1.6640549.0892487-7.1902962 1.124649-8.2446518-.7459869-.7293816-1.2940826 1.6252594-2.3191223 2.5747147-2.6563721 1.8452148-.655426 3.8508224-.7501297 5.7814484-.950798 4.2730179-.4441223 8.6526031-1.5878372 11.8929062-4.4085388 1.7627792-1.5345078 3.1013489-3.4896393 4.3640137-5.4563065 3.5928574-5.596077 6.803421-11.4128418 5.3162842-18.280014-.3462982-1.5990829-.8060608-3.0767136-2.4794693-3.4519119-1.8633347-.417778-3.9303894-.3100357-5.8301392-.4764633-4.7174606-.4132767-9.4503403-.061882-14.1615067.2569504-4.4299927.2997971-5.7899704-4.3300781-4.1199875-7.4003906 10.6099854.0400391 21.1300049.8701172 31.8099976 2.0800781 3.0800171.3500975 4.9799805 3.3701171 3.8499756 6.1298827z" fill="#7c4f31"/></g><g><path d="m73.9503632 68.8014908-2.0499878-1.6699219c-2.4400024-3.4399414-6.7300415-5.75-11.2300453-6.0400391-4.9499512-.3198242-9.8299561 1.6401367-14.789978 1.3300781-5.789978-.3500977-10.7700195-3.7299805-15.0599976-7.2700195-2.5299683-2.0898438-5.0100098-4.4199219-7.039978-6.9702148-.710022-.8896484-1.3600464-1.7998047-1.9400024-2.7299805-1.9800415-3.199707 1.2600098-7.0800781 5.2199707-6.2299805 2.7000122.5800781 5.5200195.8300781 8.2900391.9399414 5.7299805.2304688 11.5499878-.0400391 17.1099854 1.2402344 5.9599609 1.3598633 11.2099609 4.6601563 15.0299721 9.0097656 4.5599973 5.1601563 7.1100462 11.800293 6.4600218 18.3901368z" fill="#2bb673"/></g><g><path d="m110.3503876 57.5617447c-.2400513.3896484-.5.7700195-.7800293 1.1499023-1.3800049 1.8798828-3.1799927 3.5898438-5.0100098 5.1098633-2.7699585 2.2802734-5.9799805 4.4599609-9.7199707 4.7001953-3.2000122.1899414-6.3500366-1.0703125-9.5499878-.8701172-2.9000244.1899414-5.6700439 1.6801758-7.2400513 3.8999023l-1.3299561 1.0800781c-.3699951-3.7900391.8999634-7.6098633 3.2600098-10.75 2.5099487-3.3500977 6.2699585-5.9501953 10.6099854-6.9399414 3.5899658-.8203125 7.3499756-.6401367 11.0499878-.7900391 1.7799683-.0800781 3.6099854-.2402344 5.3499756-.6098633 2.5500488-.5502928 4.6500244 1.9497072 3.3600464 4.0200197z" fill="#2bb673"/></g><g><path d="m67.4903412 50.4113541c-.3599854.0800781-.75.1103516-1.1699829.1000977-8.9299965-.2197266-17.6400185-2.1401367-26.5200233-2.8500977-2.8699951-.2299805-10.3699951-.7099609-16.0199585.5200195-.710022-.8896484-1.3600464-1.7998047-1.9400024-2.7299805-1.9800415-3.199707 1.2600098-7.0800781 5.2199707-6.2299805 2.7000122.5800781 5.5200195.8300781 8.2900391.9399414 5.7299805.2304688 11.5499878-.0400391 17.1099854 1.2402344 5.9599607 1.3598633 11.2099607 4.6601563 15.0299719 9.0097657z" fill="#40cc86"/></g><g><path d="m110.3503876 57.5617447c-.2400513.3896484-.5.7700195-.7800293 1.1499023-7.8200073-2.3198242-17.8399658.1000977-24.4099731 3.4799805-1.9299927 1-3.7900391.6699219-5.1799927-.3100586 2.5099487-3.3500977 6.2699585-5.9501953 10.6099854-6.9399414 3.5899658-.8203125 7.3499756-.6401367 11.0499878-.7900391 1.7799683-.0800781 3.6099854-.2402344 5.3499756-.6098633 2.5500487-.5502929 4.6500243 1.9497071 3.3600463 4.0200196z" fill="#40cc86"/></g><g><path d="m111.7803802 93.871315c-2.1600342 1.4301758-5.1400146.8603516-7.7399902.2900391-17.960022-3.9399414-36.7600098-4.7099609-55.0400429-2.25-4.2999878.5800781-8.6799927 1.3300781-12.9599609 1.0200195-1.0700073-.0698242-2.1400146-.2099609-3.1900024-.4399414-1.6100464-.3496094-3.3200073-1.0200195-3.9800415-2.3798828-.75-1.5297852.1100464-3.3198242 1.2900391-4.6000977 2.7599487-3 7.3800049-4.5 11.6099854-3.75l2.6499634-1.1098633c9.7200317-.6499023 19.4700317-.8198242 29.2100258-.5 9.4299927.3100586 18.8400269 1.0698242 28.1799927 2.2797852 3.4400024.4501953 7.0800171 1.050293 9.6099854 3.2001953 2.5300291 2.1499024 3.1600339 6.3901367.3600461 8.2397461z" fill="#a97c50"/></g><g><path d="m73.6303558 80.1515884c-.7999878.8500977-1.9400024 1.4199219-3.4299927 1.4599609-11.1400185.2900391-25.9299965 2.6499023-34.159977 11.3198242-1.0700073-.0698242-2.1400146-.2099609-3.1900024-.4399414-1.6100464-.3496094-3.3200073-1.0200195-3.9800415-2.3798828-.75-1.5297852.1100464-3.3198242 1.2900391-4.6000977 2.7599487-3 7.3800049-4.5 11.6099854-3.75l2.6499634-1.1098633c9.7200317-.6499022 19.4700317-.8198241 29.2100257-.4999999z" fill="#c19167"/></g><g><path d="m93.9603729 22.1613541c0 10-8.8500366 18.1000977-19.7600098 18.1000977-7.3300171 0-13.7199745-3.6499023-17.1199989-9.0898438-1.6799927-2.6499023-2.6300049-5.7299805-2.6300049-9.0102539 0-9.989747 8.8400269-18.0898438 19.7500038-18.0898438 4.8499756 0 9.289978 1.6000977 12.7299805 4.2602534 4.3000489 3.3198238 7.0300293 8.2797857 7.0300293 13.8295904z" fill="#fff200"/></g><g><path d="m86.9303436 8.3317633c-13.1599731 1.5200195-25.7799721 7.1396484-28.5399818 20.3696289-.2299805 1.0703125-.6900024 1.8901367-1.3099976 2.4702148-1.6799927-2.6499023-2.6300049-5.7299805-2.6300049-9.0102539 0-9.989747 8.8400269-18.0898438 19.7500038-18.0898438 4.8499756.0000005 9.2899781 1.6000982 12.7299805 4.260254z" fill="#fff685"/></g><g fill="#202020"><path d="m114.9957199 92.2665787c-.3300171 1.1000977-1.0800171 2.2202148-2.1199951 2.9604492-1.0200195.75-2.2800293 1.1499023-3.4899902 1.2797852-1.9899902.2099609-3.8900146-.1499023-5.7300415-.5297852-.0099487.0395508-.0099487.0898438-.0199585.1298828-.0499878.2597656-.1099854.5200195-.210022.7700195l-.1300049.3798828-.1099854.2797852c-6.0499573 14.1179047 2.402092-5.545517-10.6799927 24.9199219-3.3139267 9.3718643-17.2678909 10.9160233-27.2000122 10.3701248-3.8699951-.2597656-6.9699707-1.2597656-8.7999878-2.4799805-.9299927-.5898438-1.5599976-1.1699219-1.9199829-1.6098633-.3900146-.4199219-.5200195-.7001953-.4700317-.740242.1199951-.1298828.9400024.740242 2.7800293 1.6303787 1.8399658.909668 4.7699585 1.6098633 8.4699707 1.6098633 3.710022-.0302734 8.210022-.2099609 12.9000244-1.3901367 4.8852692-1.2314453 10.1201172-4.0587997 11.6499634-8.64991 10.2581635-25.8382568 3.7412643-9.452095 9.9500122-25.0297852l.0999756-.25.0500488-.1601563c.0499878-.1098633.0599976-.2202148.0799561-.3300781.0100098-.0400391.0100098-.0800781.0200195-.1201172-8.8499756-1.6298828-20.4299927-3.1499023-35.4099731-2.659668-4.460022.1499023-9.5599976.5097656-15.0300293 1.1899414-2.0800171.2597656-4.2600098.5898438-6.539978.8198242 1.5892982 4.6009521 1.557148 1.1159363 8.5100098 25.2402344 1.0699463 3.9799805 1.8899536 5.7099609 2.3299561 6.699707.4400024.9702148.3600464 1.2001953.1400146 1.3999023-.2000122.1704178-.4799805.3501053-1.4099731-.449707-.4500122-.4101563-1.0500488-1.0800781-1.710022-2.1801758-.6599731-1.0898438-1.3400269-2.6201172-2.0800171-4.5600586-.0403175-.1037445-9.4417114-24.824852-9.4799805-24.9296875-.1099854-.3100586-.2200317-.6303711-.3099976-.9702148-.9700317.0200195-1.9400024.0200195-2.9299927-.0498047-.8099976-.050293-1.6300049-.1503906-2.4500122-.2802734-.4099731-.0600586-.8200073-.1499023-1.2299805-.2299805-.4500122-.1000977-.9200439-.2397461-1.3699951-.3999023-.9000244-.3500977-1.7800293-.8100586-2.6100464-1.5698242-.8099976-.7099609-1.5700073-1.9799805-1.5799561-3.3701172.0099487-1.3999023.6099854-2.4599609 1.2199707-3.2900391.6900024-.8901367 1.539978-1.4897461 2.3099976-1.9399414 2.9700317-1.6699219 5.9899902-2.8701172 9.1699829-3.7700195 1.5800171-.4501953 3.2800293-.7700195 4.9100342-.9301758 1.6300049-.1699219 3.2299805-.2299805 4.7799683-.2797852 3.1199951-.1098633 6.2000122-.1801758 9.2000122-.1899414 5.2900391-.0200195 10.3500366.1298828 15.0300293.3701172-.0400391-.1904297-.0700073-.3901367-.1000366-.6201172-.25-1.9599609-.2799683-5.5400391-.1599731-12.0302734-.0200195-.1098633-.039978-.2099609-.0700073-.3398438-.0800171-.4199219-.1599731-.9101563-.25-1.4799805-.1300049-.5502892-.2800293-1.1899376-.4500122-1.8998985-.1900024-.7099609-.4799805-1.4902344-.7600098-2.3603516-.3800049-.8398438-.6999512-1.8095703-1.2599487-2.7900391-1.0300293-1.9897461-2.5100098-4.2797852-4.7700195-6.5595703-7.1994438-7.2635002-14.7586861-8.3608208-24.1600342-8.550293-4.6535606-.1282501-9.4574013-.0697784-14.539978-1.1899414-.6900024-.1699219-1.3300171-.1000977-1.9400024.1499023-.5999756.2402344-1.1099854.7299805-1.3800049 1.2602539-.2600098.5400391-.2999878 1.0898438-.0499878 1.6396484.0700073.2001953.4299927.7705078.7000122 1.1801758 3.4149685 5.1810341 12.1980553 13.1338501 18.7699585 15.0600586 1.9300537.5898438 3.8700562.7597656 5.8200073.6499023 1.960022-.1098633 3.8900146-.4296875 5.7900391-.6796875 1.8899536-.25 3.7600098-.4204102 5.539978-.3300781 1.7700195.0898438 3.4099731.4697266 4.8099976 1 2.8300171 1.0498047 4.7299805 2.6499023 5.8200073 3.8696251 1.0900269 1.25 1.4400024 2.1103516 1.3400269 2.1704102-.1300049.0898438-.7000122-.590332-1.9100342-1.5800781-1.210022-.9599609-3.1099854-2.2299767-5.7399902-2.9599571-1.3099976-.3701172-2.7800293-.5800781-4.3599854-.5600586-1.6000366.0297852-3.3099976.2797852-5.1400146.6401367-1.8300171.3398438-3.7999878.7797852-5.9400024 1.0097656s-4.5200195.1401367-6.789978-.449707c-7.4527435-1.8678703-17.2004585-10.0589142-21.0700073-15.75-.3600464-.5302734-.6500244-.8901367-1.0599976-1.7104492-.7399902-1.4799805-.6900024-3.3999023.0100098-4.8398438.6999512-1.4599609 1.8799438-2.5698242 3.2699585-3.1801758 3.1325245-1.4167976 1.9527416.1319656 18.1400146.5200195 3.0299683.0703125 5.9500122.2104492 8.7000122.6201172 6.7502403 1.0771713 12.8296089 3.8011017 18.0899658 9.4199219 2.4899902 2.6801758 4.0599976 5.3603516 5.0900269 7.7001953.0100098 0 .0100098.0097656.0100098.0097656.1099854-3.7397461.2299805-7.8798828.289978-11.5996094.0200195-.9301758.039978-1.8300781.0499878-2.6899414-1.5599976.0097656-3.1499634-.1503906-4.7299805-.4604492-2.1500244-.409668-4.2700195-1.1899414-6.2399902-2.2797852-4.3135376-2.3769913-7.2967148-5.8152695-8.9800415-9.8198242-1.7999878-4.1601563-1.8199463-8.8300781-.5999756-12.7299805 1.25-3.9204102 3.6300049-7.0400391 6.1500244-9.1201172 4.6199951-3.8798828 10-5.2099609 14.5100098-5.2402344 10.1031113.0670738 18.0463104 6.3163962 20.25 13.8500977.4299927 1.4702148.5799561 2.6298828.5899658 3.5102539.0599976.8696289-.0700073 1.4697266-.1599731 1.8696289-.2000122.8100586-.4700317.8603516-.75.8603516-.2800293 0-.5500488-.0703125-.8300171-.7802734-.1600342-.3598633-.25-.8798828-.5100098-1.6098633-.210022-.7299805-.5299683-1.6801758-1.039978-2.8598633-3.0643924-6.8797117-9.9617847-10.889917-17.5200198-10.8500977-3.7600098.0800781-8.1699829 1.2197266-11.9099731 4.3598638-2.0400391 1.6801758-3.9400024 4.1601563-4.9800415 7.2299805-2.9935989 9.1298923 3.2627716 18.3336525 12.7000122 20.5400391 1.8300171.4399414 3.710022.6699219 5.539978.5698242 7.1000519-.2330132 13.0553131-4.158432 15.8099976-8.9897461 1.2600098-2.1098633 1.8700562-4.0703125 2.1700439-5.4399414.289978-1.3701172.4099731-2.1699219.5700073-2.1699219.1199951 0 .2799683.7998047.2399902 2.2797852-.0499878 1.4799805-.4299927 3.6401367-1.5900269 6.0800781-2.3941803 5.2585831-8.2983475 10.0874367-16.1599731 11.0200195.0999756.8798828.2099609 1.7998047.2999878 2.75.6099854 6.1201172.7999878 13.3798828.7199707 18.1899414.6300049-1.1401367 1.4500122-2.3398438 2.5500488-3.5400391 7.8421249-8.5078964 17.2068558-6.1530533 24.7199707-7.0498047.6000366-.0703125 1.210022-.1601563 1.8200073-.2802734 1-.2197266 2.2000122-.1298828 3.2200317.3500977 1.0299683.4501953 1.9199829 1.2797852 2.4399414 2.3901367.5300293 1.0898438.5700073 2.5600586 0 3.6899414-.3199463.6298828-.5.8300781-.7399902 1.199707-2.5969391 3.7272377-8.9824142 9.0719643-14.0100098 10.2802696-1.5299683.3798828-3.1399536.4296875-4.5499878.2597656-1.4199829-.1699219-2.6900024-.4799805-3.8599854-.7197266-2.3499756-.5200195-4.3200073-.6401367-5.9799805-.1801758-1.6700439.4199219-2.9000244 1.1801758-3.7000122 1.75-.789978.590332-1.2000122 1-1.3300171.9101563-.0999756-.0698242.0800171-.6499023.7700195-1.5 1.4878845-1.8162842 4.0442123-3.1838837 6.9500122-3.3798828 1.1799927-.0800781 2.4099731.0097656 3.6499634.1499023 1.2300415.1499023 2.4800415.3300781 3.7000122.3798828 1.2299805.0498047 2.4000244-.0698242 3.5900269-.4501953 3.7950745-1.1746597 8.7400742-5.6009369 11.1399536-8.7797813.2000122-.2700195.3900146-.5400391.5599976-.8198242.1700439-.2402344.4000244-.6201172.4000244-.6601563.0700073-.2001953.039978-.2998047-.039978-.5-.1100464-.1801758-.3099976-.3798828-.5599976-.4702148-.2600098-.0898438-.5100098-.1196289-.8300171-.0395508-9.056488 2.0082855-17.0183563-1.5073204-24.6400146 6.0595703-1.4199829 1.4003906-2.3499756 2.8100548-3.0200195 4.0302696-.3599854.6098633-.5699463 1.199707-.8299561 1.7197266-.1799927.5302734-.3800049 1.0102539-.5100098 1.4501953s-.2399902.8300781-.3400269 1.1801758c-.0700073.3398438-.1399536.6499023-.2099609.9199219-.1600342.5297852-.210022.8999023-.3300171 1.159668-.1400146.3203125-.289978.4702148-.4500122.550293-.2099609 2.8300781-.4500122 4.699707-.6900024 5.9301758-.0499878.2397461-.0999756.449707-.1499634.6499023 4.8999634.3100586 9.3299561.7197266 13.0499878 1.159668 7.789978.9199219 12.5499878 1.8701172 12.5499878 2.1503906-.0299683.2900391-4.8699951-.1401367-12.6900024-.5703125-7.8099976-.4399414-18.6099854-.7900391-30.5100098-.3798828-2.9799805.1000977-6.0199585.25-9.1099854.4501953-3.1099854.1796875-6.0599976.3999023-8.9000244 1.3095703-2.8699951.8701172-5.75 2.1201172-8.2599487 3.590332-.5700073.3500977-1.0100098.7197266-1.2800293 1.0800781-.2999878.4199219-.4500122.8398438-.4299927 1.0297852.0299683.1801758.0800171.3999023.4400024.7099609.3300171.2900391.8300171.5703125 1.3800049.7700195 3.5499878-.7524414 75.285675-.0288086 76.5899658 2.5200195.34729.6787109 1.3699951-.2597656 1.8400269-.5698242.4400024-.300293.7299805-.6801758.9000244-1.1499023.3599854-.9501953.1399536-2.1704102-.3000488-3.0703125-.4499512-.9296875-1.1199951-1.5400391-1.8899536-2.0898438-1.5300293-1.0400391-3.0400391-1.5102539-4.1600342-1.8901367-1.1300049-.3500977-1.9500122-.5898438-2.4899902-.7900391-1.1099854-.3999023-1.1599731-.6699219-1.1300049-.949707.039978-.2802734.1599731-.5400391 1.3499756-.6201172.6000366-.0302734 1.4800415-.0302734 2.7700195.1396484 1.2700195.2001953 3.0300293.4702148 5.1900024 1.6704102.5300293.3295898 1.0700073.659668 1.6300049 1.1796875.5599976.5102539 1.0800171 1.1201172 1.4899902 1.8500977.799988 1.4399414 1.4100344 3.3701172.76001 5.6098633z"/><path d="m78.0629807 19.6347466c-.5587769-.3881836-1.253479-.6713867-1.9153442-.8051758-.5105591-.1079102-1.0062256-.1386719-1.4866943-.1484375-.1587524-.8208008-.3391724-1.6347656-.5442505-2.3984375-.0940552-.3588867-.1920166-.7041016-.291687-1.0371094.0249634-.0039063.0513916-.0097656.0761719-.0131836 1.3015747-.1650391 2.2081909-.1972656 2.2244263-.4243164.0145264-.190918-.7682495-.559082-2.230835-.7646484-.1477661-.0170898-.3108521-.0283203-.4763184-.0371094-.5165405-1.4516602-1.0245361-2.4023438-1.300293-2.3354492-.2736206.065918-.3029785 1.0439453-.253418 2.4545898-.2226563.0483398-.4492188.1069336-.6813354.190918-.9949951.362793-2.1890259 1.1499023-2.6237793 2.6674805-.1939087.7163086-.1878052 1.5043945.1089478 2.2836914.2660522.7734375 1.026123 1.5410156 1.8282471 1.8227539.6242676.2392578 1.1982422.2998047 1.6994019.3271484.0396729 1.1098633.0727539 2.1425781.1005859 2.9716797.0126343.3652344.0235596.699707.0343628 1.0297852-.9473877.0620117-1.6378784-.0585938-2.1304932-.1450195-.6136475-.1274414-.9696655-.2114258-1.2263184-.1762695-.2573853.0327148-.4047852.1723633-.5405884.3334961-.1358643.1611328-.2592163.3198242-.1929932.6020508.0680542.2768555.3225098.715332 1.0891113 1.2172852.6279907.3930664 1.6523438.8251953 3.0955811.8935547.0529785 1.2866211.116333 2.1401367.2515869 2.6899414.2143555.965332.5924072 1.0361328 1.0129395 1.0668945.4206543.0302734.803772.0239258 1.1430664-.9394531.1982422-.6049805.40271-1.5966797.494812-3.1923828.4370117-.1318359.8847656-.2915039 1.3482056-.5166016.6000366-.284668 1.2491455-.6826172 1.8631592-1.2719727.5957642-.5825195 1.2668457-1.4619141 1.3922729-2.7260742.0641479-.6660156-.0853271-1.4492188-.4428711-2.078125-.3482667-.6440431-.8556519-1.1523439-1.4256592-1.541504zm-6.7139893-.9291993c-.258606-.0722656-.3633423-.137207-.517395-.3740234-.1338501-.2260742-.2028198-.5668945-.1641846-.8764648.0411377-.5844727.5744019-1.2216797 1.2175903-1.581543.0188599-.0112305.0391235-.0180664.0581665-.0292969.0131836.2543945.0265503.5102539.0401001.7753906.0397949.6928711.0753784 1.4169922.1077881 2.1450195-.3045044.0039063-.5640259-.0083007-.7420654-.059082zm5.060791 5.1069336c-.2988892.296875-.6616211.5483398-1.0546265.7524414-.0029297-.1015625-.0026855-.1899414-.0062866-.2944336-.0253906-.7617188-.1029053-1.6831055-.2247314-2.6728516.1220703.0229492.250061.0419922.3598633.0727539.3583374.0981445.6152344.2314453.8590698.4125977.232666.1743164.395813.3735352.4668579.527832.0802002.1591797.0834961.2543945.0787354.378418-.0123292.2016602-.1713257.5200196-.4788819.8232422z"/></g></g></svg>