<svg id="Layer_1" enable-background="new 0 0 135 135" height="512" viewBox="0 0 135 135" width="512" xmlns="http://www.w3.org/2000/svg"><g><g><path d="m83.6524887 118.6249771-12.2980423 12.0568619c-.8332672.8132324-2.3391495.8632355-3.2427063.1004944l-5.1601105-4.3166656-9.5172157-7.9612732c-.4718132-.401474-.6927109-.943634-.6023293-1.4857864l10.8222427-66.0779419c.140564-.8838234 1.0742035-1.5460777 2.1685028-1.5460777h6.3246994c1.1042862 0 2.0379257.6725502 2.1684418 1.5661774l3.0318604 20.429409 6.7965698 45.8794098c.070282.4818648-.1104202.9735335-.4919128 1.3553923z" fill="#1c75bc"/></g><g><path d="m83.6524887 118.6249771-12.2980423 12.0568619c-.8332672.8132324-2.3391495.8632355-3.2427063.1004944l-5.1601105-4.3166656c5.6319885-3.8553925 10.932663-8.784317 13.010788-14.486763 1.8472443-5.0598068-.4617691-12.1073532-1.2549057-17.2877502-.8734055-5.6818619-1.8371887-11.35392-2.8611526-17.0063705-.6927032-3.8249969 2.5599899-6.3147049 5.5014725-6.2946091l6.7965698 45.8794098c.0702819.4818648-.1104203.9735335-.4919129 1.3553923z" fill="#146ba5"/></g><g><path d="m88.0396194 42.4171371c-.7128067.492157-1.8371887.2411766-2.1283035-.4720573-1.7167282-4.1058846-5.9733505-12.9803944-12.328186-14.9985313-1.8471832-.5818634-4.0357895-.9333324-6.0235291-.8328438-2.0580292.1000004-14.5869522.9735298-16.3840103 15.2593155-.0100479.0700989-.0200386.1303902-.0300865.2009811-.0401955.3411751-.2610283.6024475-.5722427.7627449-.4718742.2509804-1.1444855.2612724-1.6464462-.0803947-1.9476089-1.3348045-4.3871307-3.2323532-6.6258583-5.742157-3.8249397-4.2970581-7.0876846-10.4004898-6.3949738-18.6632347.3914833-4.6279402 2.1382942-9.1553917 4.8589439-13.2813721.7027588-1.0745096 1.8672791-1.0441175 2.4997559.059804 16.1330261 28.0196075 43.5802727 12.960784 49.7343102-.2205882.6324768-1.335294 3.021759-1.4656863 3.8048477-.2308822.0301437.0401959.0501785.0803919.070282.1200981 9.296318 18.0509796-1.8171006 33.3607826-8.8345033 38.1191177z" fill="#ffefe1"/></g><g><path d="m81.0222168 43.8828239c0 6.3049011-5.621994 11.4147034-12.5490189 11.4147034-2.349205 0-4.5477905-.5823517-6.4251213-1.596077-3.6643372-1.9980392-6.1238976-5.6524506-6.1238976-9.8186264 0-6.3044128 5.6118889-11.4147072 12.5490189-11.4147072 3.8550262 0 7.3185654 1.5862732 9.6175232 4.0862732 1.8271485 1.9774514 2.9314957 4.5377465 2.9314957 7.328434z" fill="#1c75bc"/></g><g><path d="m88.0396194 42.4171371c-.7128067.492157-1.8371887.2411766-2.1283035-.4720573-1.7167282-4.1058846-5.9733505-12.9803944-12.328186-14.9985313-1.8471832-.5818634-4.0357895-.9333324-6.0235291-.8328438-2.0580292.1000004-14.5869522.9735298-16.3840103 15.2593155-.2208328.3210793-.4216309.6426468-.6023293.963726-.471756.2509155-1.1441422.2612686-1.6460609-.0801315-1.1028595-.7501488-2.5516014-1.4416466-2.8137779-2.7832336-.3188362-1.6315269.8414192-3.6481133 1.6578522-4.9610634 4.318016-6.9440384 12.3249283-12.8210583 20.6918754-12.7961617 3.2325974.010294 6.4652557.5926476 9.4770203 1.7568626 2.6403198 1.0240192 7.2784348 5.5720596 9.8785553 4.3872547 2.4797211-1.1245098 4.5477982-6.5455875 5.5416718-9.0053921 1.5058823-3.7745094 2.2387238-7.7299013 2.4194183-11.7754898.0502472-1.184804.4316788-2.1485295 1.024025-2.9014707.0301437.0401959.0501785.0803919.070282.1200981 9.296318 18.0509802-1.8171006 33.3607832-8.8345033 38.1191183z" fill="#fcdbc3"/></g><g><path d="m78.0907211 36.55439c-.7629852.5318642-1.7669067.8132362-3.0218124.682354-4.6481628-.4818611-8.7039795 4.4877472-10.7118225 8.2323532-1.4155045 2.630394-2.1283112 5.3808823-2.3090096 8.2323532-3.6643372-1.9980392-6.1238976-5.6524506-6.1238976-9.8186264 0-6.3044128 5.6118889-11.4147072 12.5490189-11.4147072 3.8550263 0 7.3185654 1.5862732 9.6175232 4.0862732z" fill="#2a8fd3"/></g><g fill="#202020"><path d="m59.3227768 71.2632141c-4.7388344 25.8624802-2.9915123 16.1610107-8.1777344 45.4516602-.1479492.8266602.0491333 1.6904297.5187988 2.3813477.5314865.8235245 15.4365921 13.4663086 16.4094238 13.8432617 1.4625854.5317383 3.0576172.3852539 4.3990479-.675293 8.9583282-8.6734009-11.8211174 11.5277252 12.5884399-12.1962891.661438-.6450195 1.072937-1.5180664 1.1126099-2.4213867.0891037-1.0288544-6.7047272-44.9838638-6.8756714-46.0703125-.7506104-4.6586914-1.3945923-8.6552734-1.9469604-12.0834961-.34198-1.9873047-.6495972-3.7749023-.928772-5.3974609.0233765-.0170898.0491333-.0327148.0723267-.0498047 1.909729-1.3833008 3.2021484-3.1289063 3.9143677-4.7260742.7216187-1.6005859.9284668-3.0136719.9141846-3.9672852-.0224609-.9575195-.1730957-1.4672852-.3010864-1.465332-.352478-.0297852-.3444214 2.0957031-2.0055542 4.6748047-6.8709413 10.744049-24.3213693 3.5781364-20.6760865-7.2993165.6220093-1.7807617 1.7450562-3.2265625 2.9598999-4.2128906 2.2169189-1.8447266 4.8392334-2.5244141 7.0843506-2.5791016 4.8506012-.0448685 8.7630844 2.5532341 10.625061 6.277832.3466797.6948242.5794067 1.2553711.7467651 1.6938477.2032471.4345703.303833.7504883.4452515.9663086.2687988.4350586.5394287.4804688.8203125.4785156.2809448-.0024414.5477295-.0283203.7630005-.5566406.0997314-.2646484.2272949-.6606445.2211304-1.2397461.0286255-.5834961-.0380859-1.3540039-.295166-2.340332-3.1606293-12.0364952-23.0313187-12.6522312-27.164978.2792969-1.7684708 5.6439972.6770668 11.9165916 6.4938965 15.0229492.4399414.2387695.8932495.4418945 1.3513184.6289063-.0551758.2558594-.1116943.5205078-.170105.7973633-.7501222 3.5532226-1.7443849 8.6474609-2.8980714 14.7846679zm10.048584-14.5605469c1.3649902-.1259766 2.6835327-.4204102 3.8810425-.8974609.0328369-.012207.0634155-.0273438.0960693-.0395508.1672363 1.3120117.3455811 2.7109375.5404053 4.2397461.465332 3.4414063 1.0077515 7.453125 1.6400757 12.1293945 2.0190659 14.5285034 4.4530716 31.0095901 6.5731201 45.1835938-8.3612442 8.2742462-5.3657837 5.3047562-10.368103 10.269043-.5743408.5698242-1.15271 1.1435547-1.7346191 1.7211914-.0097046.0576172-.3887329.1503906-.5679321.0639648-.0432129-.015625-.0775757-.0292969-.092041-.043457l-.008728-.0029297-.0627441-.0517578-.1279297-.1049805c.3889465.3196411-3.8604126-3.1733093-14.4125977-11.847168-.0863037-.0688477-.0725708-.0537109-.1081543-.0917969-.0449219-.0532227-.0683594-.1269531-.0557251-.1987305 4.38237-29.1227417 2.9490471-19.4048309 6.7125244-45.4487305.864563-6.184082 1.5477905-11.3295898 1.970459-14.9365234.0252075-.215332.048645-.4194336.0717773-.6225586 1.9983519.6562501 4.0953368.8642579 6.0531005.678711z"/><path d="m67.743309 118.8755188c3.6751556 0 1.5559464-60.315918 0-60.315918-1.4501419 0-3.7824783 60.315918 0 60.315918z"/><path d="m88.9081039 43.5054016c10.8981094-8.4720192 16.366188-23.3542404 8.8150635-38.5161133-.1726685-.3325195-.2974854-.612793-.4973755-.9599609-.1987915-.3452146-.5114746-.5800779-.8185425-.7412107-1.3205566-.5927734-2.3746338-.1411133-2.8933716.262207-.5396729.4404297-.5541382.8540037-.5111084.8574216.0769653.0429688.2221069-.2729492.7298584-.5249021.2475586-.1269531.5866089-.2314453.9928589-.2431641.4047241-.0053711.8797607.0566406 1.2703857.3203125.1945801.1308591.3833618.3066404.4881592.5449216.114624.2875977.2348633.5893555.3605347.9052734 5.8153076 14.4339256.4875336 28.1834335-8.4110107 35.0043945l-.7203979.5175781c-.2419434.2280273-.7172241.1357422-.7763062-.2285156 0 0-.2921753-.6992188-.494812-1.1645508-11.2326584-24.6432648-33.177803-14.6893501-36.2924194-2.3349609-.1571045.574707-.3824463 1.1420898-.4762573 1.7211914l-.2144165 1.184082c-.0039063.0458984-.0370483.0830078-.0837402.0776367-.0209351-.0014648-.0410767-.0097656-.055603-.0239258l-.0167847-.0161133c-.0054321-.0043945.0067749.003418-.0128784-.0112305l-.2211304-.1582031c-1.1629028-.8623047-2.2532349-1.7783203-3.2813721-2.7255859-2.0234375-1.9233398-3.7443848-4.0224609-5.0285645-6.246582-3.7903481-6.6401482-4.030899-14.7348537.1262817-22.6542969.2359009-.4555664.4905396-.9023438.7444458-1.3374023l.3525391-.5869141.0011597-.0043945c.0009766-.0068359.0111084-.0117188.0165405-.0053711.3947754.6328125.78302 1.2553711 1.1647949 1.8676758 5.6259956 7.7975445 12.1624451 13.3591862 21.793457 13.9765625 2.9656982.1914063 5.684021-.1459961 8.0830688-.722168 5.6639023-1.3761387 10.7442474-4.3560028 14.4859619-7.8955078 3.7994385-3.644043 4.9857178-6.2431641 5.4937744-7.5517578.4432373-1.3696289.2330322-1.5639648-.0181274-1.684082-.2546387-.1225586-.5460205-.1308594-1.3612061.902832-.8778687.9799805-2.3006592 3.0957031-6.0123291 6.1674805-5.6896591 4.6487122-13.0864944 7.6190434-20.3914795 7.0410156-8.7483177-.7327194-14.0713158-6.0009794-18.7194214-12.4609375-.6735229-1.0307617-1.3310547-2.1108396-2.0797119-3.2143552-.6333618-.6738281-1.4957275-1.081543-2.4282837-1.0830078-.928894.0102539-1.8114624.402832-2.4711304 1.1274414-.302063.421875-.6054077.8452148-.9099731 1.2700193-.0930786.1259766-.1133423.1674805-.152832.2314453l-.1116943.1845703-.2238159.3701174c-.2922363.496582-.5777588.9956055-.8479614 1.5136719-.5447388 1.03125-1.0479126 2.1098633-1.4942627 3.2363281-3.0608864 7.7256184-2.7054901 16.1130695 1.4918213 23.3227539 1.5249023 2.5976563 3.5283203 4.9853516 5.821106 7.1166992 1.1604614 1.0498047 2.3830566 2.0512695 3.6688232 2.980957l.6954346.4887695c.3070679.215332.6169434.4365234.9329834.5571289.6219482.2719727 1.3158569.3422852 1.9768066.2382813.6578369-.1098633 1.2959595-.3989258 1.7781982-.8632813.473999-.4658203.7748413-.9975586.8883057-1.7783203.112915-.6713867.2261353-1.3447266.3397217-2.0195313.0687256-.4970703.2574463-.9501953.3775635-1.4306641 2.1501503-9.4644623 19.352066-18.4570904 29.3353271 1.0444336.2432861.4614258.4667969.9331055.69487 1.3999023.2397003.5058594.359024.8046875.8291168 1.7226563.2886353.8505859 1.0640869 1.3505859 1.8812866 1.5322266.8248902.1811524 1.7026368.0004884 2.3980713-.5009765z"/></g></g></svg>