<svg id="Layer_1" enable-background="new 0 0 135 135" height="512" viewBox="0 0 135 135" width="512" xmlns="http://www.w3.org/2000/svg"><g><g><path d="m111.0630417 8.5311098v117.949707c0 .7900391-.210022 1.5400391-.5800171 2.1899414-.3999634.7402344-1.0100098 1.3500977-1.75 1.75-.6499634.3603516-1.3900146.5703125-2.1799927.5703125h-78.9899883c-2.4899902 0-4.5100098-2.0200195-4.5100098-4.5102539v-117.949707c0-2.4902344 2.0200195-4.5 4.5100098-4.5h78.9899902c2.4899884 0 4.5100079 2.0097656 4.5100079 4.5z" fill="#8dc63f"/></g><g><path d="m94.0455551 107.8117676h-53.225029c-.9615479 0-1.7410316-.7794876-1.7410316-1.7410278v-84.8861619c0-.9615459.7794838-1.7410336 1.7410316-1.7410336h53.225029c.9615402 0 1.7410278.7794876 1.7410278 1.7410336v84.8861618c0 .9615403-.7794876 1.7410279-1.7410278 1.7410279z" fill="#fff"/></g><g><path d="m67.2330246 4.0311098c-13.789978 1.9697266-31.0999756 4.6699219-35.7799664 19.6298819-4.9500122 15.7900391-5.9299927 33.4799805-5.8900146 49.9101601.0100098 2.1201172-1.0599976 3.5400391-2.5100098 4.25v-69.290042c0-2.4902344 2.0200195-4.5 4.5100098-4.5z" fill="#a8db58"/></g><g><path d="m111.0630417 56.1312065v70.3496094c0 .7900391-.210022 1.5400391-.5800171 2.1899414-.5700073.590332-1.1499634 1.1801758-1.75 1.75-.6499634.3603516-1.3900146.5703125-2.1799927.5703125h-78.9899883c-2.4899902 0-4.5100098-2.0200195-4.5100098-4.5102539 0 0 0-1.5297699 0-1.5297852 0-.0198975 25.5588207-.0604706 28.0016346-.0283051 3.8925705.0512619 7.7908592.522789 11.585865-.3991089 2.9945831-.7274475 7.9698792-2.3515244 10.7024765-.3025665 7.1800537-1.7001953 14.5-4.0400391 20.6000366-7.8999023 8.8900146-5.6000977 10.6699829-14.5800781 11.8099976-24.3901367 1.210022-10.3300781 1.1599731-20.7299805.0899658-31.069828-.3599853-3.5102501 2.4700318-5.0800743 5.2200318-4.7299767z" fill="#7fb22f"/></g><g><path d="m64.7437973 125.2597427c9.7587051 4.3630905 13.1711121-12.873085 2.2897568-12.1361618-6.3843956.4323655-8.3393784 9.4313965-2.2897568 12.1361618z" fill="#d1d3d4"/></g><g fill="#202020"><path d="m74.3436356 59.1451263c-1.2846069-.2817383-2.5411987-.3891602-3.7470093-.4521484-.2877197-5.6577148-.6768799-11.7114258-1.0963135-16.4462891.0112915-.0024414.0230713-.0063477.0343628-.0087891 1.9107666-.4399414 3.5517578-.5043945 4.6842041-.5722656 1.1367188-.0527344 1.7827759-.0966797 1.8000488-.2407227.0165405-.1347656-.5943604-.3642578-1.746521-.578125-1.1348877-.1943359-2.8152466-.3916016-4.9180298-.1772461-.4019775-4.1655273-.822998-6.9775391-1.2022705-6.96875-.388855.0092773-.6825562 2.9794922-.8894043 7.3359375-1.6556396.4135742-3.4446449 1.1674805-5.0844765 2.480957-1.1654053.9189453-2.2384033 2.1191406-3.0522461 3.5708008-.8175659 1.4414063-1.3127441 3.2045898-1.3603516 4.9838867-.0530396 1.7851563.3049927 3.6699219 1.2808228 5.3911133.9558105 1.746582 2.7177124 3.1235352 4.5581665 3.777832 1.113102.4111328 2.2116737.6171875 3.2755165.7539063.0054321 2.9907227.0350342 5.7626953.0881348 8.0224609.0728149 3.1015625.1552124 5.7441406.2459106 8.0141602-4.0760536-1.4545898-6.3244057-3.6430664-7.7586708-5.0585938-.3453369-.3881836-.656311-.7290039-.9404907-1.0253906-.265686-.3115234-.4956665-.581543-.6951904-.8154297-.4327393-.4526367-.6842651-.7978516-.9377441-.9951172-.4827271-.409668-.75-.3442383-1.0049438-.2260742s-.4812622.2641602-.4124756.9360352c.0474243.3295898.1144409.8237305.4014893 1.4545898.1367188.3193359.2974243.6918945.5109253 1.1088867.2347412.4023438.5099487.8583984.8371582 1.3706055.7192993.9672852 1.6403198 2.1870117 3.0869141 3.3955078 1.4285889 1.2158203 3.3233643 2.4990234 5.8659096 3.472168.3937378.1420898.8104248.2739258 1.2376099.3989258.5210571 9.1806641 1.2544556 9.4208984 2.1035767 9.4008789.8242188-.0195313 1.5276489-.2836914 1.6503296-8.7036133 1.4091797.1147461 2.9190063.0795898 4.5239868-.2080078 1.8473511-.3339844 3.8458252-1.0073242 5.7254028-2.3847656.925415-.6987305 1.8121338-1.5830078 2.4975586-2.6713867.6923218-1.090332 1.1832886-2.3535156 1.3959351-3.6591797.4779663-2.862793-.0944824-6.1826172-2.1015015-9.0854492-2.0074465-2.8798828-5.3397219-4.8408203-8.8563234-5.5913086zm-12.6025429-3.2988281c-.6935425-1.0722656-1.0615845-2.4306641-1.0957642-3.7651367-.1201782-2.6962891 1.2115479-5.1699219 3.0136719-6.8339844 1.0850868-1.0239258 2.3057289-1.7451172 3.5205116-2.2548828-.1757202 4.5551758-.2715454 10.1835938-.2946777 15.4931641-.7670288-.0805664-1.4918823-.206543-2.1604004-.4301758-1.27808-.4116211-2.300663-1.1337891-2.9833412-2.2089844zm19.547306 17.2822266c-.5066528 3.293457-3.5532837 4.9609375-6.3567505 5.4902344-1.3167114.2592773-2.5741577.3032227-3.7564697.2172852-.0100708-2.4624023-.0528564-5.3945313-.135498-8.9140625-.050354-2.1450195-.1431274-4.7475586-.2678833-7.5615234.9602051.0917969 1.8648682.2104492 2.7113647.4375 2.7764282.6894531 5.1282349 2.2441406 6.4387817 4.2133789 1.3073121 1.9374999 1.685608 4.3393553 1.3664551 6.1171874z"/><path d="m109.9787674 3.1353617c-.6763306-.3647461-1.4282227-.5991211-2.1947632-.699707-1.099823-.1937146-77.7887802.0108395-78.9579468.0141602-.4590454.0078125-.7667847-.015625-1.4650269.0317383-.6119385.0668945-1.2254639.1943359-1.7996826.4335938-2.3225098.8964844-4.0016479 3.2548828-4.048645 5.7758789.0235329 16.6738853.4538574 100.010437.569397 116.1157227l.0091553 1.2607422c.0055542.4199219-.0059814.8012695.0401001 1.3911133.2208862 2.1738281 1.7468262 4.0908203 3.7423096 4.8178711.4928589.1967773 1.0177612.2939453 1.5385132.3496094.5741577.0361328.9214478.015625 1.3400269.0166016 17.082346-.133194 15.4266033-.1258545 48.5936279-.4838867 9.1368408-.121582 16.5313721-.2495117 21.6416626-.3823242 2.5551758-.065918 4.5393066-.1337891 5.8846436-.2021484s2.0518188-.1376953 2.0518188-.2080078-.7064819-.1396484-2.0518188-.2084961c-1.3453369-.0683594-3.3294678-.1357422-5.8846436-.2021484-5.1102905-.1323242-12.5048218-.2602539-21.6416626-.3818359-29.3805046-.3171539-30.9410973-.3462372-48.5936279-.4838867-.9143066.003418-1.3863525-.0009766-1.9544678-.2333984-1.0950928-.4199219-1.9157715-1.4946289-2.0151367-2.6699219-.0154419-.2441406-.0125122-.7006836-.0077515-1.1191406.0178566-3.4163666.1449051-17.0051041.5941772-117.2456055.0211792-1.0063477.7061157-1.9423828 1.6283569-2.2924805.4864502-.190918.809021-.1865234 1.8286743-.1757813 80.7838898.2294345 78.0972977-.2733431 79.2564087.3618164.5145264.2739258.9267578.734375 1.144043 1.2617188.3210297.7450447.1365738-4.5667925.3302612 58.3583984.1030884 21.9311523.2521362 36.7529297.4364014 46.7680664.0921021 5.0078125.1929932 8.8134766.3013306 11.7060547.0298462.7226563.057312 1.3886719.0826416 2.0019531.0278931.4936523-.0323486.9150391-.1501465 1.3041992-.2345581.7734375-.6655884 1.3300781-1.0733032 1.7084961-.8395996.7587891-1.5077515.9277344-1.8310547 1.1113281-.342041.1489258-.4004517.2905273-.3986816.4306641.0018311.1401367.0437622.2763672.477478.3862305.4122925.0610352 1.328186.1728516 2.7056885-.6616211.6665649-.4233398 1.4283447-1.1347656 1.9337158-2.2836914.2509766-.565918.4227905-1.2607422.4480591-1.9956055.0253296-.6132813.0527954-1.2792969.0826416-2.0019531.1083374-2.8925781.2092285-6.6982422.3013306-11.7060547.1842651-10.0151367.333374-24.8369141.4364014-46.7680664.1980057-64.2141953.3817596-58.155632-.3341675-59.8808594-.5697633-1.4023441-1.6381837-2.5976566-2.996338-3.3193363z"/><path d="m41.4217567 17.4913177c-.168396.0102539-.8800659-.0366211-1.4099121.0976563-.5510254.121582-1.0652466.3764648-1.5013428.7265625-.8774414.7006836-1.3968506 1.8149414-1.3681641 2.9697266.0026245.6235352.005249 1.2490234.0078735 1.8764648.0645905 14.0029449.4374275 65.667511.5966797 80.6469727.0062256.5678711.0124512 1.1342773.0186157 1.6977539.0092773.1982422-.0220337.784668.0806274 1.2001953.0949097.4438477.2925415.859375.5681763 1.2114258.5449219.7114258 1.4150391 1.1469727 2.3099976 1.1650391.6040649-.0048828 1.2054443-.0097656 1.803833-.0141602 10.756424-.1292572 7.3617973-.083374 31.3989296-.4648438 25.7752762-.5042572 27.8538208-1.0400391 0-1.5849609-18.7021942-.2967987-21.2832527-.3472977-31.3989296-.4643555-.4984131-.0063477-.9992065-.0131836-1.5023804-.0195313-.2061157.0004883-.4088745-.1040039-.5238647-.2729492-.0588989-.0830078-.0970459-.1801758-.1090088-.2807617-.0115356-.128418-.0002441-.1113281.0006714-.4750977.0061646-.5634766.0123291-1.1298828.0185547-1.6977539.1654129-15.5587616.5363159-67.7035065.5966797-80.6469727l.0078125-1.6870117c.0003052-.0283203.0145874-.0556641.0375977-.0698242 33.2538109.0921192 41.6466331.0730324 52.7058144.0698242.0398331 19.027832.0073776 9.7598362.1503296 41.3481445.1030273 14.9169922.2521362 24.9985352.4363403 31.8105469.0809021 2.9902573.2243042 7.5102844.4692383 10.4711914.0321655.3486328.0613403.6645508.0877686.9506836.0298462.1591797.0253906.284668.0006714.4140625-.1184692.5195313-.4731445.7509766-.6316528.9106445-.1802979.1606445-.230896.2871094-.2271729.4316406.0026855.1337891.0238647.2919922.366333.3774414.1698608.0351563.432251.0507813.7836914-.0737305.8668365-.3155518 1.4149246-1.1581192 1.4738159-2.0600586.0264282-.2861328.055603-.6020508.0877686-.9506836.2448807-2.9572754.3884583-7.4833908.4692993-10.4711914.1842651-6.8120117.333313-16.8935547.4364014-31.8105469.117012-25.8572769.1255951-25.8016586.1467285-40.2412109l.0014038-1.0673828c.027832-.6445313-.0778198-1.4082031-.4022217-2.019043-1.3422242-2.742769.8455352-2.1937426-55.9870034-2.0039061z"/><path d="m73.5117874 113.4620209c-.6467896-.6938477-1.4293823-1.2270508-2.2353516-1.6118164-.81073-.3525391-1.6348267-.5800781-2.4082031-.6699219-6.1595764-.8078766-10.2588539 4.164917-9.6118202 9.2705078.1331787.6660156.2286987 1.284668.4835815 1.8100586.1154175.2626953.225769.5136719.3313599.7539063.1448364.2197266.28302.4296875.414978.6303711.250061.4077148.5552368.7109375.8391113.972168.2753906.269043.5283203.4921875.7988892.6328125 1.0131836.659668 1.6740112.6381836 2.0236244.5849609.3604126-.0805664.4795532-.3193359.5957642-.5751953.116272-.2558594.2018433-.5136719.1098022-.8447266-.0756226-.3442383-.4003296-.6801758-.8137817-1.3154297-3.7316704-5.7566528 3.2358093-10.142601 6.7866211-7.0166016 2.6738205 2.5658722 1.0500793 8.8201828-3.3157959 9.0776367-1.5512085.1362305-2.6514893-.2006836-2.7668457.0991211-.0993042.1992188.7282715 1.081543 2.6848145 1.4838867.9665527.1889648 2.2649536.1337891 3.5452881-.4628906 4.3048171-1.9057541 6.1655044-8.8012924 2.5379638-12.8188476z"/></g></g></svg>