<svg id="Layer_1" enable-background="new 0 0 135 135" height="512" viewBox="0 0 135 135" width="512" xmlns="http://www.w3.org/2000/svg"><g><g><path d="m112.3339691 107.590004c-2.2299805 5.3798828-6.5099487 9.7199707-11.4299927 13.0100098-2.8099976 1.869873-5.8200073 3.4099121-8.7799683 4.6101074-12.6400146 5.1098557-26.710022 6.5598068-40.1500244 4.2900314-3.1699829-.5302734-6.3099976-1.2802734-9.3800049-2.230217-2.8899536-.8898926-6.0499878-2.0898438-8.6999512-3.8798828h-.0100098c-1.4200439-.9599609-2.6900043-2.0900879-3.6900043-3.4401855-2.5400391-3.4099121-1.9899902-7.3898926-2.6900024-11.5498047-1.6300049-9.6699219-2.5599976-19.4399414-3.4899902-29.2001953-.5900269-6.119873-4.4400024-19.4799805 2.0799561-23.6599121 4.2700195-2.7399902 9.6300068-2.4699707 14.4400043-3.4599609 10.4899902-2.1599121 20.8900146-4.1699219 31.5-5.7099609 2.25-.3300781 4.5200195-.6501465 6.7900391-.9001465 4.789978-.5297852 9.5899658-.7099609 14.2999878.1901855.4299927.079834.8499756.1699219 1.2799683.2800293 2.2900391.5498047 4.5200195 1.4099121 6.4000244 2.8198242 2.5800171 1.920166 4.3599854 4.7299805 5.6300049 7.6801758 2.5499878 5.9399414 3.1599731 12.5097656 3.75 18.9599609.8499755 9.3198242 5.830017 23.2998046 2.1499633 32.1899414z" fill="#27aae1"/></g><g><path d="m64.7152481 92.9561005c-1.5752945-.3123627-2.877533-1.4966812-3.6542168-2.9023438-2.033886-3.6809692-.3210335-8.8933487 3.4610863-10.7323074 3.7821274-1.8389511 8.8735046-.0385284 10.7421722 3.7290039.2928391.5904083.5163651 1.225563.5564194 1.8833923.189682 3.115097-3.5923538 5.3448029-3.5705032 8.4655991.0175476 2.506691 2.5015259 4.4333191 2.6949921 6.9325867.1460648 1.8868866-1.2570419 3.7724838-3.106369 4.1745529-.6208801.1349869-1.2675095.1184998-1.8950577.019043-2.4042816-.3810577-4.5653687-2.0491714-5.5429688-4.2785416-.9775963-2.2293701-.7406006-4.9490585.607872-6.9757309" fill="#58595b"/></g><g><path d="m94.0640106 46.3600235-10.1099854-.0300293-3.7000122-.0100098c-.2700195-7.5300293-1.5200195-15.3898945-5.9500122-21.0698261-2.7000122-3.4702148-6.5300293-5.8200684-10.6699829-6.7900391-3-.7001953-6.1500244-.670166-9.1700439.1799316-7.1900024 2.0300293-13.2299805 8.6499023-14.9799805 16.4299335-1.2199707 5.4301758-.4699707 11.0400391.2800293 16.4899902l-8.9800434.6000977-1.6199951.1098633c-1.4400024-7.8798828-2.8699951-16.0100098-1.1300049-23.7800312 2.5-11.1398926 11.9400043-20.4399414 23.4299946-23.0698242 6.8900146-1.5800781 14.3300171-.7099609 20.8400269 2.1499023 4.3300171 1.8999023 8.25 4.6801758 11.3400269 8.1899414 7.3499755 8.3601076 9.6799926 19.7402364 10.4199828 30.6000997z" fill="#d1d3d4"/></g><g><path d="m72.3040009 7.5699825c-.7800293.7199707-1.8400269 1.1899414-3.1799927 1.2299805-10.3500366.3100586-21.6900024 2.5200195-28.6199951 10.9399414-6.8400269 8.3100586-10.1300068 20.290041-9.580019 30.8701191.0300293.5700684-.0200195 1.0800781-.1400146 1.5500488l-1.6199951.1098633c-1.4400024-7.8798828-2.8699951-16.0100098-1.1300049-23.7800312 2.5-11.1398926 11.9400043-20.4399414 23.4299946-23.0698242 6.8900145-1.5800781 14.330017-.709961 20.8400268 2.1499023z" fill="#ebeced"/></g><g><path d="m83.9540253 46.3299942-3.7000122-.0100098c-.2700195-7.5300293-1.5200195-15.3898945-5.9500122-21.0698261-2.7000122-3.4702148-6.5300293-5.8200684-10.6699829-6.7900391 1.039978-.7700195 2.4199829-1.1201172 4.039978-.7202148 1.0900269.2700195 2.1099854.630127 3.0700073 1.0600586 10.9099731 4.5600586 16.8599853 16.0000019 13.210022 27.5300312z" fill="#b7bbbc"/></g><g><path d="m74.1539764 52.090004c-9.8999634 1.1499023-19.7199707 2.8598633-29.4199829 5.1601563-4.0999756.9799805-9.4099731 1.7897949-12.2700195 5.2197266-2.2899799 2.75-2.7299824 6.670166-3.0399799 10.0800781-1.5599976 17.0200195 1.2700195 34.1101074 4.4600239 50.8400879-1.4200439-.9599609-2.6900043-2.0900879-3.6900043-3.4401855-2.5400391-3.4099121-1.9899902-7.3898926-2.6900024-11.5498047-1.6300049-9.6699219-2.5599976-19.4399414-3.4899902-29.2001953-.5900269-6.119873-4.4400024-19.4799805 2.0799561-23.6599121 4.2700195-2.7399902 9.6300068-2.4699707 14.4400043-3.4599609 10.4899902-2.1599121 20.8900146-4.1699219 31.5-5.7099609 2.25-.3300781 4.5200195-.6501465 6.7900391-.9001465.5199583 2.7402342-1.050049 6.2102049-4.6700442 6.620117z" fill="#3dc5f4"/></g><g><path d="m112.3339691 107.590004c-2.2299805 5.3798828-6.5099487 9.7199707-11.4299927 13.0100098-2.8099976 1.869873-5.8200073 3.4099121-8.7799683 4.6101074-12.6400146 5.1098557-26.710022 6.5598068-40.1500244 4.2900314.7900391-.8400879 1.9700317-1.3300781 3.5499954-1.170166 12.018631 1.212204 23.5877991-4.2324982 32.0929718-12.4584732 4.7033463-4.5489578 8.4423981-9.7895355 10.8488541-15.8862152 2.4103165-6.1064682 2.0345612-13.8767471 1.8847122-20.4166489-.1516953-6.6203537-2.6655273-13.6386642-4.3083496-20.0043793-.8602829-3.3334579-2.732811-8.1026802-2.2452545-11.5705109.5143433-3.6583786 4.776207-.906868 7.0070877.7661667 2.5800171 1.920166 4.3599854 4.7299805 5.6300049 7.6801758 2.5499878 5.9399414 3.1599731 12.5097656 3.75 18.9599609.8499756 9.3198243 5.8300171 23.2998047 2.1499634 32.1899415z" fill="#0e9bcc"/></g><g fill="#202020"><path d="m26.7028141 117.2999649c.4276733 1.5041504 1.1895752 3.0126953 2.1682129 4.1948242 1.9001465 2.3666992 4.2878399 3.9265137 6.5986309 5.0969238 8.6270103 4.3137283 24.0256805 7.2282791 39.4760742 4.9011307 5.480835-.8469238 9.7904663-2.0969238 13.1741943-3.3061523 3.3786621-1.2138748 5.8787231-2.3559647 7.7027588-3.3794022 1.8251953-1.0095215 2.9935303-1.8339844 3.7612305-2.4355469 1.522522-1.2241211 1.4666748-1.5488281 1.3168335-1.7753906-.1598511-.2424316-.4162598-.3549805-2.1367798.4187012-1.748291.7263184-4.8952026 2.4538574-11.5447998 4.4365234-3.3082275.9907227-7.4782715 2.0283203-12.7369385 2.6962967-15.1097527 1.8596344-29.6595879-1.2184753-37.227417-5.0732498-1.9974976-1.0227051-3.8956299-2.3325195-5.2581768-4.0595703-2.8212452-3.3492584-8.2210712-54.1948471-7.1692505-58.2197227.2389526-.934082.6188354-1.767334 1.1203613-2.4431152.5076904-.7023926 1.0986938-1.1259766 2.0509644-1.6352539 1.7810669-.9487305 3.937439-1.4360352 6.2683697-1.7697754 6.2899704-.8354263 3.9427948-.4295845 14.7962646-2.675293 9.9018555-2.0007324 20.175354-3.8935547 30.34021-5.1691895 5.039978-.5734863 10.0927124-.6943359 14.789917.4018555 2.3204956.550293 4.4919434 1.4438477 6.2040405 2.8500977 1.7289429 1.4094238 3.0772705 3.317627 4.1217651 5.3771973 3.5858536 7.1422157 9.1213303 42.1619606 7.9398193 48.5803185-.5274048 3.0209961-1.8713379 5.5844727-3.2581787 7.6516113-1.40802 2.0664063-2.8924561 3.6643066-4.1618042 4.9077148-2.5754395 2.4609375-4.2396851 3.5817871-4.1383667 3.7248535.0367432.0551758.4927368-.1584473 1.3065796-.6574707.8148804-.496582 1.9805298-1.2929688 3.3814697-2.4577637 1.3894043-1.1743164 3.0177002-2.7270508 4.5981445-4.814209 1.552002-2.0852051 3.111145-4.7324219 3.8277588-8.0495605 1.50914-6.8032532-3.0610046-42.0926323-6.9147949-50.1635704-1.1272583-2.3237305-2.6414795-4.6088867-4.7752686-6.4172363-2.1472778-1.8237305-4.7711182-2.9199219-7.3773804-3.5827637-.0090942-.0021973-.0182495-.0036621-.0273438-.0058594.0828857-.9482422.1005859-2.3625488-.0473022-4.5083008-.1329346-1.5285645-.3081665-3.4294434-.7533569-5.7670898-.4414673-2.3349628-1.0961304-5.1213398-2.2960815-8.3430195-5.6383132-14.5735656-17.5562819-21.9443184-29.8029784-22.9897459-2.0594482-.2268066-4.2185669-.1804199-6.4175415-.0227051-16.6647148 1.7672942-28.9646435 15.0189569-29.432066 30.9885271-.1028442 3.7434082.3225708 7.0554199.7806396 9.7888184.8399048 4.6638184 1.6765747 7.7126465 2.0576782 8.4790039-.9607544.2961426-1.9122314.6674805-2.8347778 1.1467285-.6045532.3210449-1.1723633.6433105-1.8082275 1.1254883-.5957642.4750977-1.1430054 1.0163574-1.5842896 1.614502-.8986816 1.190918-1.4656982 2.5146484-1.805481 3.7929688-1.7592372 6.6790808 5.1378576 55.5208319 5.7266847 57.546871zm21.6346416-68.709713c-9.4376144 1.8577156-7.6043625 1.4981194-8.3838501 1.6435547.0079956-1.029541-.0502319-2.6013184-.1107178-4.6027832-.5125275-29.2245903 29.1401062-33.9078102 36.6162109-12.0507813 1.3062134 3.9221191 1.708374 6.8063965 2.0983887 8.7197266.098999.5686035.1923218 1.0490723.2821655 1.4692383-10.3408202 1.1582031-20.5727538 2.9216309-30.5021972 4.8210449zm-19.8134136-5.1933594c-.2113647-2.7114258-.3890381-5.9448242-.0802612-9.4592285 1.3521538-15.1741085 13.2606487-25.9844933 27.484129-27.244875 1.9506226-.0969238 3.8632202-.1140137 5.6930542.1166992 10.8146133 1.0626121 21.1212463 7.2161255 26.7113647 20.3964844 2.3500977 5.8759785 3.062561 10.2355976 3.6861572 13.1167011.3127441 1.6162109.5473633 2.7961426.7484131 3.6708984-3.7746582-.6738281-7.6193848-.7050781-11.3946533-.4418945.0270996-.4355469.0459595-.9321289.0527344-1.5170898-.0391846-2.0461426-.1369019-5.1230469-1.3886108-9.5876465-3.137642-10.758995-11.2616578-16.084402-19.5700684-16.4353046-11.1680222-.5458155-22.4024887 9.0809021-22.7023926 23.2221699-.0375977 2.503418.213501 4.7143555.5002441 6.5402832.3380127 2.0461426.6848145 3.6064453.9724731 4.5957031-3.3952103.5600853-6.655735.6539116-9.9854107 1.6347656.0744019-.8879394-.3153686-4.0153808-.7271728-8.607666z"/><path d="m76.8519211 82.1324844c-.3760376-.670166-.8087769-1.3120117-1.3334351-1.8603516-1.0310669-1.1137695-2.2919922-1.9731445-3.6595459-2.5075684-1.3644409-.5415039-2.8270264-.7988281-4.2755127-.7355957-1.4470825.0612793-2.8788452.4904785-4.0918579 1.2192383-2.4511719 1.4855957-3.7676392 3.9377441-4.1776733 6.173584-.4260864 2.2661133.0678711 4.4108887.9813843 5.8664551.8965454 1.4692383 2.1035767 2.2668457 2.9802856 2.5778809.8926392.3139648 1.421936.2131348 1.4396973.0898438.0308228-.1494141-.4202271-.3310547-1.0539551-.8144531-.6251221-.4763184-1.4462891-1.3178711-1.9619141-2.5891113-.5217896-1.2438965-.6793213-2.9140625-.1690063-4.6091309.4908447-1.6801758 1.69104-3.3649902 3.3618774-4.1789551 1.6450806-.8449707 3.8217773-.7617188 5.6320801.1022949.9107056.416748 1.7058716 1.0490723 2.3094482 1.7753906.3138428.3571777.5438232.7619629.7509766 1.1643066.2113037.421875.3252563.8210449.3517456 1.1225586.0488892.5668945-.206604 1.2451172-.7573242 2.0981445-.5355835.8508301-1.2784424 1.7390137-1.9289551 2.8920898-.3286743.5581055-.6192017 1.2297363-.8154907 1.9460449-.192688.7280273-.2454224 1.5336914-.1586914 2.2792969.2128296 1.4936523.8190308 2.5446777 1.272644 3.362793.4283447.7429199.8043823 1.3586426 1.0469971 1.8859863.2380981.5151367.3250122.9448242.333374 1.2414551.0112915.6240234-.4465942 1.3581543-.9627686 1.6860352-.2745972.1721191-.4701538.2568359-.8021851.2980957-.3187256.0390625-.7113647.0231934-1.0958862-.0498047-.7619019-.1257324-1.4552612-.4279785-2.0396118-.7976074-2.3807373-1.5861816-2.697876-3.7573242-2.7468262-5.0849609-.0142822-1.3779297.1919556-2.1396484.1617432-2.6081543-.0020752-.4655762-.1987305-.6533203-.4347534-.8068848-.2344971-.1525879-.4718018-.2861328-.9439697.0244141-.4316406.3203125-1.2092896 1.1137695-1.6463623 3.0834961-.1958008.9782715-.2706299 2.269043.1598511 3.8195801.4338379 1.5449219 1.4572754 3.307373 3.3175049 4.6599121.928894.6687012 2.0678711 1.2416992 3.4206543 1.5263672.6663208.145752 1.3977051.2275391 2.2316284.1591797.8216553-.057373 1.7938232-.3640137 2.565918-.8613281 1.5546265-.9990234 2.7791138-2.7172852 2.8657837-4.9667969.0115967-1.128418-.2938232-2.1455078-.6821289-3.0073242-.3907471-.8510742-.8397217-1.5671387-1.2131348-2.2224121-.4119263-.7102051-.7195435-1.3684082-.7911377-1.8666992-.0510254-.4694824.0244141-.9909668.4522095-1.7768555.3925171-.7680664 1.0761719-1.654541 1.7507935-2.7851563.3393555-.5598145.6776123-1.2329102.9248657-2.0048828.2639771-.7670898.3465576-1.7038574.2369385-2.6040039-.1342164-.897461-.4464723-1.6599121-.8062745-2.3164063z"/></g></g></svg>