<svg id="Layer_1" enable-background="new 0 0 135 135" height="512" viewBox="0 0 135 135" width="512" xmlns="http://www.w3.org/2000/svg"><g><g><path d="m119.2398682 98.038475c-.0899658.0400391-.1899414.0800781-.289978.1201172-5.9500122 2.409668-12.75 2.75-19.3399658 2.9697266-17.9800415.6098633-35.9900513.6201172-53.9700317.0600586-10.0100098-.3198242-33.539978 2.6899414-39.1099854-6.2797852-.3300171-.5400391-.6000366-1.1201172-.7999878-1.75-1.9000244-6.050293-1.8500366-13.5600586-1.4700317-21 .3200073-6.1000977.8599854-12.1503944.7399902-17.3300819-.109984-4.3803711.429994-7.8300781 1.5300307-10.5600586 2.5800166-6.3901367 8.2099609-8.7802734 15.7799683-9.7602539 5.4700317-.7099609 11.9600201-.6796875 19.0200176-.8896484 15.75-.4599609 31.5100098-.4902344 47.2600098-.0703125 8.3599854.2099609 16.7199707.550293 25.0700073 1.0102539 9.8699951.5400391 13.5299683 4.9296875 15.2399902 10.9599609.9299927 3.2700195 1.289978 7.0400391 1.75 10.9296875 1.52002 12.8300819 5.27002 34.620121-11.4100337 41.5903358z" fill="#8dc63f"/></g><g><path d="m83.6617584 54.0267334c-2.8813858-4.8194008-7.8866043-8.4742279-13.5554733-9.8339729-6.1833992-1.4831581-13.0351105-.2103233-18.1790771 3.3666534-2.9169769 2.0283852-5.264225 4.7232552-7.183033 7.6315041-10.6404037 16.1271667 1.2229233 36.5964584 22.0681725 34.464035 17.6231155-1.802803 24.634552-20.0262222 17.5804062-34.2880058-.2254411-.4557648-.4694673-.9027863-.7309953-1.3402138z" fill="#e6e7e8"/></g><g><path d="m88.5899048 33.5482368c.0100098 2.5102539-1.6000366 5.1298828-4.8200073 5.3100586-11.8800049.6401367-23.7600098 1.2900391-35.6300049 1.9301758-10.3699951.5698242-21.7199688.909668-30.5899639 7.0297852-8.04004 5.550293-11.25 15.1401367-13.2900391 24.3403358.3200073-6.1000977.8599854-12.1503944.7399902-17.3300819-.1099858-4.3803711.4299922-7.8300781 1.5300289-10.5600586 1.4199829-1.5200195 2.97998-2.9199219 4.7099605-4.1899414.6800537-.4902344 1.3600464-.9501953 2.0600586-1.3803711.6299438-1.699707 2.1199951-3.0297852 4.4699717-3.0297852.4000244 0 .7800293.0400391 1.1300049.1098633 1.1199951-.4697266 2.2600098-.8999023 3.4099731-1.2700195 5.4700317-.7099609 11.9600201-.6796875 19.0200176-.8896484 15.7499999-.459961 31.5100097-.4902344 47.2600097-.0703126z" fill="#a6dd4e"/></g><g><path d="m119.2398682 98.038475c-.0899658.0400391-.1899414.0800781-.289978.1201172-5.9500122 2.409668-12.75 2.75-19.3399658 2.9697266-17.9800415.6098633-35.9900513.6201172-53.9700317.0600586-10.0100098-.3198242-33.539978 2.6899414-39.1099854-6.2797852 26.5399761 4.3798828 53.789978 4.7895508 80.4299927 1.0097656 10.6799927-1.5200195 23.6599731-3.0200195 31.75-10.9599609 9.1099854-8.9199219 7.75-23.2202187 6.8599854-34.7900429-.2000122-2.6401367 1.3699951-4.1899414 3.3300171-4.6499023.9299927 3.2700195 1.289978 7.0400391 1.75 10.9296875 1.5200194 12.8300819 5.2700194 34.620121-11.4100343 41.5903358z" fill="#87bc33"/></g><g fill="#202020"><path d="m131.1923218 51.4621277c-1.6607513-13.1773148-5.9877701-17.5794525-19.5830154-18.4228516-31.8183212-1.8462524-46.1923752-1.6185493-77.8133545-1.1167011-3.0412617.0668945-6.0806904.1528339-9.123415.4077168-3.0395508.2626953-6.0986328.6831055-9.1036377 1.6264648-2.9838867.9311523-5.9603271 2.5576172-8.1273193 5.0361328-5.3714027 6.2001114-5.1456814 18.640728-5.4034424 38.6616211-.0461426 4.1147461.0524902 8.1650391.7924805 12.1147461 1.2006452 6.3035812 2.6731737 11.3903198 17.3187256 13.1938477 3.4350586.3769531 6.7250977.4580078 9.8806152.4541016 6.323122.0092773 12.0814228-.4638672 17.3520527-.2363281 17.7338676.4569321 36.52071.3299332 54.435421-.690918 8.501709-.4667969 12.9428711-1.8349609 15.0709229-2.7578125 2.1418457-.9614258 2.1616211-1.3374023 2.0664063-1.5766602-.1107178-.2827148-.3570557-.3979492-2.538208.0629883-2.1949463.4233398-6.3562012 1.2944336-14.7174072 1.394043-17.902092.2352829-33.6153717.3633652-54.2026329-.3193359-5.5080566-.2709961-11.3312988.1743164-17.4643574.1342773-3.0704346-.0087891-6.2352295-.1030273-9.4311523-.4643555-12.3065233-1.479332-12.8415585-5.0508728-13.769165-9.9233398-.6636963-3.5292969-.7686768-7.3613281-.7216797-11.3217773.3324585-26.4482384.7192497-31.9309196 4.3092041-36.1381836 1.5731201-1.8110352 3.7908936-3.1000977 6.3410645-3.9208984 2.5518799-.8237305 5.3653564-1.25 8.2502441-1.5185547 2.8903809-.2641602 5.8651123-.375 8.8793964-.4663086 30.4463539-.8476105 46.4374962-1.1448326 77.5712891.1713867 12.1760178.5522385 15.7023697 3.8159676 17.4741287 15.918457 1.546875 11.6895027 4.3588409 26.5476074-.1864014 36.4643555-1.1947098 2.7285156-2.8555984 4.7416992-4.3754959 6.1816406-1.5391846 1.4414063-2.9835205 2.2666016-3.9394531 2.8466797-.9844971.5371094-1.5025635.8408203-1.4793701.8989258.0292969.0722656.5992432-.1020508 1.6644287-.5258789 1.036377-.4682617 2.5928955-1.1962891 4.2938232-2.6010742 1.678833-1.4008789 3.5476151-3.4521484 4.9292068-6.2792969 5.1949309-10.1882173 2.6464079-25.4806673 1.3500975-37.2871095z"/><path d="m84.8428268 54.5368347c-.6800537-.7382813-.9388428-.6523438-1.1809082-.5102539-.2423096.1425781-.4345703.3500977-.2203369 1.2514648 6.471756 21.6129913-6.5565186 34.7640305-23.4548302 32.1884766-3.2857666-.5307617-6.9718018-1.8564453-10.1362305-4.4624023-15.7322922-12.8592682-3.5595093-38.7788963 16.1380577-38.2456055 3.9755859.0693359 7.4686279 1.2890625 10.1090088 2.7875977 2.6544189 1.5024414 4.5064697 3.222168 5.675415 4.4931641 1.177124 1.2734375 1.7539063 2.0693359 1.888916 1.9873047.1060791-.0605469-.234375-1.0043945-1.2480469-2.5004883-1.0061035-1.4892578-2.7678223-3.5004883-5.4847412-5.3295898-24.3104933-16.4318486-52.4773634 20.7336577-29.6242636 39.8798827 3.7666016 3.1787109 8.1798096 4.793457 12.0408936 5.4121094 1.7722168.2719727 3.5059814.3764648 5.1761436.3354492 22.8630829-.066742 29.9507751-27.7983093 20.3209228-37.2871094z"/><path d="m74.6759567 63.4430847c-1.2480469-.9951172-2.6945801-1.5083008-4.0444336-1.7954102-1.0440674-.2109375-2.0634766-.3125-3.0474854-.3793945-.166748-3.2294922-.3945313-6.4780273-.6633301-9.0688477 1.1923828-.0327148 2.2148438.0297852 2.9499512.0415039.8590088.0205078 1.3510742-.0170898 1.3780518-.1567383.0264893-.1362305-.4082031-.3671875-1.2335205-.6513672-.7570801-.2524414-1.8566895-.5654297-3.2658691-.746582-.2838135-2.2807617-.6040039-3.7685547-.940918-3.7714844-.331665-.0029297-.6420898 1.4375-.914917 3.6577148-1.3048058.0126953-2.7862511.2382813-4.3203087 1.0615234-1.0239258.5922852-1.9772949 1.4208984-2.7137451 2.5053711-.7330322 1.0737305-1.2841797 2.4384766-1.2548828 3.9902344.0012207.7680664.2039795 1.5737305.5415039 2.2851563.1838379.3461914.3756104.6953125.5814209 1.0361328.2615967.3066406.5357666.6113281.8186035.9082031 1.230835 1.1088867 2.7200928 1.5913086 4.050415 1.8876953.4587402.1005859.9072266.175293 1.350708.2416992-.0887451 2.4746094-.1364746 4.793457-.1333008 6.6162109.005249 3.0834961.0534668 5.5024414.1373291 7.4013672-.8649902.2333984-1.6947021.3857422-2.4642334.472168-1.6273193.1806641-3.019165.121582-4.1607666-.0512695-1.1508789-.1416016-2.0617676-.3837891-2.7966309-.590332-.748291-.1821289-1.28125-.4228516-1.7432861-.5146484-.4295654-.1484375-.7501221-.2246094-.9985352-.2402344-.4967041-.0341797-.6887207.159668-.8538818.387207-.1650391.2275391-.3009033.4584961-.0404053.921875.1314697.2304688.3607178.5249023.74646.8984375.4157715.3154297.9552002.7905273 1.7766113 1.2036133.8094482.4370117 1.8679199.9086914 3.2512207 1.2460938 1.3754883.3681641 3.0844727.5888672 5.1173096.4794922.7752686-.0429688 1.6016846-.1386719 2.4669151-.3051758.3770752 2.9116211.9631348 3.0112305 1.6226807 3.0048828.7247314-.0068359 1.3604736-.140625 1.7147217-3.9824219.3682861-.1459961.7392578-.3022461 1.1147461-.4790039 1.2349854-.6337891 2.5449219-1.3813477 3.7501221-2.4545898.6373291-.4946289 1.1820068-1.1279297 1.7832031-1.7504883 3.4101411-3.9283294 4.4966813-9.417572.4384766-13.3085937zm-11.4427452-2.5126953c-1.0710449-.1655273-2.0009766-.4560547-2.623291-.940918-.1348877-.1411133-.2770996-.2729492-.4301758-.4013672-.1048584-.1728516-.2121582-.3432617-.331543-.5097656-.199707-.3422852-.3364258-.7021484-.368042-1.1025391-.1937256-1.6201172.9549561-3.4560547 2.3022461-4.4125977.868042-.612793 1.9029541-.9580078 2.9095421-1.1489258-.2438965 2.4926758-.4487305 5.5625-.598877 8.628418-.2924766-.0307616-.579708-.0668944-.8598594-.1123046zm9.003048 11.5913086c-.3199463.578125-.6845703 1.1176758-1.085083 1.5810547-.4543457.4575195-.8553467.9570313-1.3442383 1.3325195-.6274414.5776367-1.3060303 1.0327148-1.9796143 1.434082.0421143-1.6069336.0629883-3.5112305.059082-5.7797852-.0029297-1.706543-.0518799-3.8496094-.1383057-6.1489258.7296143.0917969 1.4277344.1977539 2.0487061.3652344.993042.2563477 1.8037109.6318359 2.3684082 1.1074219.2324219.2866211.5057373.5249023.6682129.8256836.1452637.3085938.2913818.6108398.3425293.9638672.2941895 1.3872071-.2509765 3.0722657-.9396972 4.3188477z"/></g></g></svg>