<svg id="Layer_1" enable-background="new 0 0 135 135" height="512" viewBox="0 0 135 135" width="512" xmlns="http://www.w3.org/2000/svg"><g><g><path d="m130.3866272 12.4930763c-.9199219 5.8901367-2.3900223 13.9902344-4.109993 23.0400391-5.4200439 28.3901367-13.4300537 66.1401367-15.4200439 74.2402344-.1099854.4697266-.2099609.8398438-.2800293 1.0996094-.9499512 3.4404297-3.4699707 7.090332-7.3499756 6.6401367-.6500244-.0698242-1.3399658-.2597656-2.0599365-.5800781-1.2700195-.5698242-2.3400879-1.4799805-3.2199707-2.5297852-.9400635-1.1098633-1.9001465-2.2202148-2.880127-3.3100586-2-2.2797852-4.0699463-4.5102539-6.2099609-6.6601563-1.9499512-1.9697266-3.9599609-3.8896484-6.0400391-5.7197266-1.0100098-.8803711-3.1899414-3.9199219-4.3399658-4.2700195-.3099365-.0898438-.6199951-.1298828-.9200439-.1000977-3.0599365.1601563-6.119873 5.3701172-8.289917 9.1000977-.7800293 1.3500977-1.4500732 2.5097656-1.960083 3.1699219-2.25 2.9199219-4.5699463 5.7797852-6.9799805 8.5698242-2.0499268 2.3901367-4.1599121 4.7299805-6.3299561 7.0200195-1.0299072-7.9697266-2.0599365-15.9399414-3.0899658-23.909668-.5500488-4.25-1.1000977-8.4902344-1.6500244-12.7402344-.25-1.9301758-.5300293-3.9301758-1.6300049-5.5600586-1.6699219-2.4697266-4.8200684-3.4897461-7.75-4.2397461-6.8300781-1.7402344-14.5999737-3.6601563-22.2700176-4.8901367-4.8499756-.7802734-9.6599121-1.2900391-14.1599121-1.2998047-.2700195-.0102539-.5400391-.0102539-.8100586-.0102539.2199707-.0800781.4499512-.1601563.6699219-.2397461 42.960083-15.3901405 82.9799805-35.5200233 122.2700195-57.6503944.6401367-.3598633 1.2800293-.7197266 1.9200439-1.0800781 1.4000302-.7998008 3.1300106.3403359 2.8900204 1.9101601z" fill="#fff200"/></g><g><path d="m125.576561 11.6629982c-6.3598633 6.300293-13.0699463 12.0703125-20.6098633 17.1801758-9.8500977 6.6801758-20.0500488 12.9399414-30.3901367 18.8300781-17.8798828 10.1801758-36.8199463 18.8798866-56.9699688 23.1899452-4.8499756-.7802734-9.6599121-1.2900391-14.1599121-1.2998047-.0500488-.0800781-.0900879-.1601563-.1401367-.25 42.9600811-15.3901405 82.9799785-35.5200233 122.2700176-57.6503944z" fill="#fff89f"/></g><g><path d="m77.5565414 94.3431778c-3.0599365.1601563-6.119873 5.3701172-8.289917 9.1000977-.0899658-.1201172-.1900635-.2299805-.2900391-.3500977-3.0098877 3.9399414-5.8900146 7.9702148-8.6500244 12.0898438-2.0499268 2.3901367-4.1599121 4.7299805-6.3299561 7.0200195-1.0299072-7.9697266-2.0599365-15.9399414-3.0899658-23.909668 2.6398926-3.4399414 5.4099121-6.7700195 8.3199463-10 1.75-1.9399414 3.9400635-1.9301758 5.6500244-.9204102 2.4799805-1.0097656 5.2299805.9003906 6.1099854 3.5102539.3800049.3300781.7301025.6899414 1.0999756 1.0297852.8500977.0200195 1.6999512.2099609 2.4799805.550293 1.1101074.4897461 2.1000977 1.1298828 2.9899902 1.8798828z" fill="#e8d705"/></g><g><path d="m126.2766342 35.5331154c-5.4200439 28.3901367-13.4300537 66.1401367-15.4200439 74.2402344-1.0200195 1.5097656-2.1999512 2.949707-3.5799561 4.2900391-1.2700195 1.25-2.6300049 2.3896484-4.0500488 3.449707-.6500244-.0698242-1.3399658-.2597656-2.0599365-.5800781-1.2700195-.5698242-2.3400879-1.4799805-3.2199707-2.5297852-.9400635-1.1098633-1.9001465-2.2202148-2.880127-3.3100586 2.2700195-1.4799805 4.380127-3.1699219 6.2000732-5.1801758 4.8699951-5.3999023 6.3099365-13.3095703 8.2399902-20.1298828 4.3800049-15.4399414 7.8699951-31.1098671 11.3699951-46.7597694.6599122-2.9404259 3.1099855-3.9199181 5.4000245-3.4902306z" fill="#e8d705"/></g><g fill="#202020"><path d="m2.6358387 69.5509415c.0651855.1816406.208252.328125.9125977.2587891 1.3388674.1967773 4.0843506.4379883 7.7844238 1.0083008 8.9821577 1.3427658 29.2586899 6.3103638 32.5056152 8.1108398.821167.4536133 1.5246582.996582 2.0341797 1.6318359.5128174.6245117.8439941 1.3710938 1.0808105 2.2685547.4376221 1.7675781.5755615 4.0791016.8564453 6.1777344 1.8726883 15.9991684 2.7663918 22.6487579 4.026001 32.3110352.1660156 1.2329102.3293457 2.4453125.4899902 3.6376953l.1210938.8857422.0600586.4394531.0300293.2192383.0148926.109375c.0073242.0288086.0008545.1010742.0352783.0458984.4061279-.4355469.80896-.8671875 1.208252-1.2954102 1.5574951-1.684082 3.0625-3.3110352 4.5168457-4.8833008 5.6054039-6.3043823 11.2450905-13.3454361 15.6047401-20.4555664 2.0854492-3.4677734 2.6010742-4.8300781 2.5793457-5.4428711 12.4833832 9.5766678 19.9764938 20.896965 23.102417 22.8916016 4.456955 2.8257599 9.2879715 1.1633682 11.7277832-4.6240234.2232666-.5439453.4212646-1.1079102.5834961-1.6699219 3.3789291-12.9589844 15.1453552-67.1687012 20.4377365-98.3735352.1915283-1.2421875-.2399902-2.5151367-1.1188965-3.3515625-.8638916-.8422852-2.1225586-1.2719727-3.3283615-1.0820313-.2990723.0454102-.5991211.1176758-.8809814.2353516-.1418457.0585938-.282959.1171875-.4202881.1865234-.1383057.0673828-.2955322.1625977-.333374.1821289l-.810791.4521484c-.5390625.3007813-1.0750732.6000977-1.6081543.8979492-2.1333008 1.1879883-4.2181396 2.3486328-6.2480469 3.4790039-4.0657959 2.2495117-7.9195557 4.3618164-11.512207 6.3032227-35.0641339 19.0295182-59.6041577 30.1944886-89.6853058 42.7797852-6.7519541 2.8100586-10.2680669 4.2729493-12.0380865 5.1899414-1.7738039.9077148-1.8226321 1.2104492-1.7280276 1.4750977 0 0 .0001221.0004883.0002441.0004883h-.000122zm14.8033455-3.9799805c30.276495-10.9125862 62.5111389-26.6472588 90.5872803-41.8852539 3.6055908-1.9482422 7.4683838-4.0742188 11.5391846-6.3447266 2.03125-1.1416016 4.1175537-2.3144531 6.2521973-3.5146484.8256836-.4667969 1.6607666-.9384766 2.504509-1.4150391.0192871-.0073242.052124.0117188.050293.0410156-.326416 2.0019531-.6580734 4.0351563-.9940109 6.0952148-5.6313324 32.3839226-17.5911484 90.775528-18.552002 93.2753906-1.5088043 3.8214264-4.4133148 5.7212372-7.9373779 3.578125-.7310791-.4418945-1.3944092-1.0302734-1.9833984-1.6962891-6.5164337-7.3978882-14.7640991-16.1289825-23.9748535-22.0039063-4.4006348-2.859375-8.3226318-4.512207-11.1098671-5.2573242-.7011719-.175293-1.3077393-.3779297-1.8569336-.4580078-.5487061-.0727539-1.012207-.1342773-1.3867188-.184082-.7476807-.0869141-1.1374512-.1025391-1.1456299-.0419922s.3651123.1958008 1.0799561.3979492c.3575439.0952148.8000488.2128906 1.3238525.3520508.5231934.1342773 1.1025391.3901367 1.7689209.6152344 2.6503944.9462891 6.3640175 2.7529297 10.5504189 5.7275391.5072021.3540039 1.0216064.7265625 1.5413818 1.1137695-.5397949.1542969-1.543335 1.0942383-4.1416016 4.4082031-5.6379013 7.0644073-7.9109917 10.2598495-15.9937782 19.2016602-.1610107.159668-.1109619.0834961-.1153564.0639648-.8578835-6.7207642-1.7281342-13.6652374-3.9143066-29.1137695-.1506348-1.0605469-.3024902-2.1293945-.4550781-3.203125-.1557617-1.0800781-.3215332-2.2460938-.6750488-3.4609375-.3466797-1.203125-.9439697-2.5004883-1.8641357-3.5444336-.90271-1.0478516-2.0128174-1.8100586-3.1228027-2.3754883-4.3304443-2.1826172-24.4159203-6.1422348-33.9133301-6.7001953-1.8884277-.1196289-3.521606-.1489258-4.8604732-.1279297 2.1755392-.6040038 5.5559103-1.6640624 10.7987091-3.5429686z"/><path d="m58.6623268 85.2403946c.3729248.0131836.5548096-.1162109.5616455-.1757813.0083008-.0737305-.154541-.0864258-.4150391-.2084961-.2600098-.1157227-.5946045-.4077148-.777832-.8710938-.2020264-.4804688-.1887207-1.0390625.1967773-1.6679688.3653564-.6274414 1.0615234-1.234375 1.8837891-1.980957 5.2921028-4.8378983 13.0184441-12.2248993 40.927494-38.7192383 13.2987061-12.6904297 20.079834-19.1782227 23.3458252-22.7026367 3.2808838-3.5083008 3.0800781-4.0146484 2.7006836-4.4296875-.3795166-.4150391-.8640137-.6616211-4.6494141 2.3095703-3.7702637 2.9868164-10.8791504 9.1567383-24.2110596 21.8789063-11.189949 10.6646385-29.0106201 28.8586044-39.2470741 40.5546875-.7021484.8071289-1.4512939 1.605957-1.8405762 2.5625-.1911621.4663086-.2949219.96875-.248291 1.4414063.0445557.4663086.2210693.8598633.427002 1.1567383.4230958.6098633.9813233.8447266 1.3460694.8520508z"/></g></g></svg>