<svg id="Layer_1" enable-background="new 0 0 135 135" height="512" viewBox="0 0 135 135" width="512" xmlns="http://www.w3.org/2000/svg"><g><g><path d="m71.6380386 127.092514c-8.7000084.7099609-17.6400108-.670166-26.2000084-4.6201172-19.7600117-9.1101074-33.2199707-29.5100098-36.0999756-51.0700684-.8200073-6.1499023-.1300049-12.7900429 1.7299805-19.3498573 4.3900146-15.4902344 15.2999868-30.4902325 28.2199707-37.3901367 7.3300171-3.9099121 14.9000244-5.8898926 22.3800049-6.2399902.3000488-.0100098.6100464-.0300293.9100342-.0300293 12.2299767-.369873 24.1799889 3.6000977 34.339962 10.5100098 4.8099976 3.2700195 9.2200317 7.1901855 13.0500488 11.630127.2799683.3100586.5499878.6298828.8199463.9499512 5.3500366 6.3898907 9.5599976 13.7900372 12.1800537 21.7600079.0099487.0100098 0 .0100098 0 .0100098.5999756 1.8498535 1.1199951 3.7199707 1.539978 5.619873.2000122.8400879.3699951 1.6801758.5200195 2.5300293 6.0399857 33.570074-21.9900512 63.1901911-53.3900146 65.6901911z" fill="#ee2a7b"/></g><g><path d="m110.788002 32.3024712c-.4799805.3098145-.9699707.619873-1.4499512.9299316-8.8600464 5.6799316-17.8900146 11.0598145-26.9300537 16.4399414-3.1999512 1.9001465-6.3999634 3.8100586-9.5999756 5.7099609-.9099731.5500488-1.8300171 1.0900879-2.7399902 1.630127-.6099854.3598633-1.5200195 1.2900391-2.2200317 1.3798828.6100464-3.1999512.3500366-6.4899902-.0099487-9.7299805-.7600098-6.8500977-1.9800415-13.6398926-2.9200439-20.4699688-.4799805-3.4099121-.8800049-6.8300781-1.1199913-10.2600098-.0899658-1.3000488-.2999878-2.5700684-.5199585-3.8398438-.2800293-1.6201172-.5800171-3.2302246-.7000122-4.880127 12.2299767-.369873 24.7099571 3.0900879 34.8699913 10 5.1499633 3.5000002 9.3099975 8.2600099 13.3399657 13.0900862z" fill="#8dc63f"/></g><g><path d="m66.3980484 56.9924126c-1.2600098 2.0100098-3.7800255 2.9699707-6.1899986 3.0400391-2.4100342.0698242-4.7600098-.6201172-7.0900269-1.2402344-13.1599731-3.4897461-28.5399799-5.6599121-42.0899658-7.0998535l.039978-.5200195c.0499878-.1899414.1099854-.3898926.1699829-.579834 4.4899902-15.2802734 15.2900381-29.9999981 28.0499878-36.8100586 7.3300171-3.9101563 14.9000244-5.8901372 22.3800049-6.2402349.1700439 1.3701177.8800049 2.5600591 1.1100464 3.9301763.1099854.6098633.1900024 1.2199707.2699585 1.8398438.1300049.9501953.2399902 1.9101563.4000244 2.8601074.6499596 3.8601074 1.2700157 7.7099609 1.8200035 11.5800781 1.1199951 7.8298321 1.9599609 15.709959 2.1399536 23.6098614.0500489 1.9401874.0200196 3.9802264-1.0099487 5.6301288z" fill="#f9ed32"/></g><g><path d="m71.6380386 127.092514c9.539978-4.0800781 17.75-10.7202148 24.4899902-18.7900391 2.1400146-2.5700684 4.1099854-5.2800293 5.960022-8.0800781 10.8899536-18.8601074 17.2299805-43.9899902 4.1399612-62.4899902-1.6709595-2.3615456-.78759-5.1996193 1.6892014-6.5399323 2.896225-1.5672913 4.6311417 1.2993011 6.4211273 3.3457298 4.2435532 4.85149 7.9038696 11.177887 8.4756699 17.6391296.3409271 3.852459 1.6381683 7.7226563 2.2339096 11.5557976.5960236 3.8349152.9465332 7.7406921.5846786 11.6170425-.6740723 7.220871-2.9082108 14.2488022-6.3847046 20.6053543-6.9139633 12.6417847-18.5856857 22.5666733-32.0508957 27.6291046-4.9925841 1.8770296-10.2398528 3.0843813-15.5589599 3.5078813z" fill="#e20e6f"/></g><g><path d="m110.788002 32.3024712c-.4799805.3098145-.9699707.619873-1.4499512.9299316-.2600098-.1201172-.5200195-.2600098-.7800293-.4299316-13.710022-8.9702129-28.1199951-18.380125-45.0599937-18.6901836-.0700073 0-.1500244 0-.2199707-.0197754-.2800293-1.6201172-.8450317-4.9584513-.9650269-6.6083536 12.2299767-.369873 25.6472206 4.4658289 35.8072548 11.375741 5.1499634 3.4999999 8.6377488 8.6124953 12.667717 13.4425716z" fill="#a6e04b"/></g><g><path d="m63.0480156 13.3122387c-.5599976.9101563-1.539978 1.5900879-3.0100098 1.8200684-12.6699829 1.9499512-23.1599731 9.0800781-32.7099609 17.2700176-6.4899902 5.5700684-12.1300039 11.2900391-16.0900269 18.1901855 4.4899902-15.2802734 15.2900381-29.9999981 28.0499878-36.8100586 7.3300171-3.9101563 14.9000244-5.8901372 22.3800049-6.2402349.1700439 1.3701177.8800049 2.5600591 1.1100464 3.9301763.1099853.6098652.1900024 1.2199726.2699585 1.8398457z" fill="#fff385"/></g><path d="m21.2116604 104.0898285c7.6583252 10.3884277 18.3472309 18.0603027 29.5463276 21.6804199 5.5947266 1.8225098 11.2744751 2.637207 16.6531372 2.6357422 20.8548126.0160675 40.9851456-12.1665573 51.2189331-28.472168 12.8478928-19.1865387 12.9982224-47.9274101-7.1646729-70.7441406-5.6991043-6.3572731-13.7766418-12.2790623-14.543457-11.1645508-.6603088.9603577 4.6632919 3.8421936 11.8861084 12.4763184-.1965332.0932617-.3987427.190918-.6331177.3154297-2.6046753 1.3440094-39.3880691 25.6273193-39.4897461 25.6965332.0039063-.0095215.0097656-.0192871.0136108-.0288086.8114624-2.0581055.7454224-3.9221191.739624-5.4624023-.3385925-13.3728752-2.7950668-29.1295834-5.1072388-38.652832-.3045654-1.2404785-.5605469-2.1567383-.7969971-2.8845215-.1224365-.3881836-.2662964-.7297363-.4194946-1.0158691 10.0013809-.3215256 20.400528 2.5134935 27.6948242 6.3557129.9838257.5073242 1.8578491.9580078 2.6154785 1.3486328.7422485.4211426 1.3705444.7773438 1.8786011 1.0656738 1.0212402.5708008 1.5787964.8442383 1.6183472.7861328s-.4400635-.4467773-1.3937378-1.1369629c-.4794312-.3408203-1.0664063-.7751465-1.7862549-1.2478027-.7375488-.4460449-1.5883179-.9606934-2.5460815-1.5397949-7.7705688-4.7008038-19.3165817-8.1210537-30.9504395-7.4138188-10.508831.6261039-21.3393364 4.6153245-29.4995747 11.3999023-9.4333096 7.7534962-16.6756153 19.0270596-20.4645996 30.3796368-6.5288614 19.6973518-1.3994158 39.1437477 10.9304201 55.6235374zm11.1933613-84.01367c7.7285309-6.6641293 18.0551872-10.615056 27.9819946-11.4533691.2926025-.0251465.5808105-.0400391.8711548-.0598145.0081177.3010254.0192261.720459.0355225 1.328125.0142212.7150879.0773926 1.699707.1982422 2.9592285.7786293 8.3362503 2.9353943 19.5583744 3.7243042 34.0527344.0737305 1.3144531.1200562 2.7248535.1716309 4.2080078.0427856 1.451416.0172729 2.8515625-.3908081 3.8850098-.2039185.5175781-.4737549.9333496-.8963623 1.3205566-.4100952.387207-.9584961.7150879-1.5810547.9599609-1.2636719.5031738-2.7293091.6044922-4.3553467.3962402-1.7041931-.2054214-26.5822601-6.6034164-45.4025879-6.5292969.1641235-.5715332.3294067-1.1428223.508728-1.7075195 3.5254917-11.0491618 10.3790073-21.903057 19.1345825-29.3598632zm-19.8496714 31.7907696c.1039391.0234299 44.990757 9.5070343 45.0914917 9.5224609 1.9718628.3171387 4.2119141.2856445 6.239624-.4714355 1.0141602-.3718262 2.0013428-.9094238 2.8533325-1.670166.0838623-.0722656.1584473-.1582031.2391357-.2355957 9.8464966-3.4817429 34.1417084-17.5497932 42.8870239-25.8642578.2258911-.2197266.4182129-.4177246.586731-.6005859 17.6218185 22.7393913 16.2308426 48.3814163 4.8338623 65.2094727-9.5862045 15.1674652-28.3919754 26.5614319-47.8808594 26.5976563-4.9857788.013916-10.2373047-.7197266-15.4262085-2.3825684-10.3753052-3.2995605-20.4556293-10.3798828-27.7753925-20.1462402-11.0406694-14.5081331-16.5123586-32.2050935-11.6487407-49.9587404z" fill="#202020"/></g></svg>