<svg id="Layer_1" enable-background="new 0 0 135 135" height="512" viewBox="0 0 135 135" width="512" xmlns="http://www.w3.org/2000/svg"><g><g><path d="m131.5473938 108.8899002c-.5549164 2.7440338-1.9471283 5.1149216-5.1047592 6.5272064-2.5827103 1.1502304-5.7706375 1.7152405-8.4743347 2.6836929-3.9042282 1.4122849-8.0405426 2.1588211-12.166687 2.7844238-3.7428436.5751114-7.4856262 1.048996-11.2486649 1.4324875-3.5914917.3632889-7.1930771.6455536-10.8047028.8374176-4.0152512.2219162-8.0405426.3428497-12.0658264.352951-6.3759155.0100937-12.7518349-.2320175-19.0974579-.7364426-6.9912987-.5546646-13.9422646-1.4223785-20.8428001-2.6028976-4.8928814-.8472748-11.2788963-1.20047-15.7884102-3.7225876-.8978882-.504425-1.7150517-1.0896301-2.4313545-1.7755814-3.7831745-3.611496-5.5082626-8.7163239-6.2447624-13.6595688-1.6847563-11.1781004-3.127399-22.9616011-2.7541309-34.5128477.1513515-5.4173737.7264014-10.7845078 1.8563047-16.0203629 2.3808622-11.0771141 10.4113035-13.7709007 20.4089441-14.1945381 6.7895184-.2926025 14.497118.4640312 21.9424114.3531952 8.0505753-.1211777 16.1112442-.1817703 24.1719818-.3329964 9.9270172-.1714249 19.8338928-.4640312 29.6903458-1.1300278 5.5687866-.3832436 11.3091278-.4337349 16.5955353 1.2915993 5.2762451 1.7349396 10.0884705 5.5686073 11.5008087 10.7138214.5448151 1.9672012.575058 4.0353851.6053467 6.0732765.0504303 4.2976952.1008606 8.6054878.1512909 12.9132843.0302887 2.1285248.0504303 4.2472.080719 6.3757324.0101013.7768326.0202026 1.5435638.0302429 2.3203964.080719 6.6786804.3027039 13.5083466-.1613922 20.2173233-.2724152 4.0050889 1.0290374 9.4025117.1513519 13.8110429z" fill="#a97c50"/></g><g><path d="m131.0832977 67.3153839c-.4337921.5650101-1.1298981 1.0896301-1.9470673 1.5738525-1.5031662.9078674-3.3796692 1.6544037-4.5802002 2.2396164-2.1286469 1.0391388-4.3279266 1.9369049-6.5776367 2.6834412-4.7718811 1.5637589-9.765625 2.4514236-14.628273 3.7528763-6.7189484 1.7957764-13.1856308 4.1666641-20.2576523 4.1565704-6.6785583 0-13.2965851.3026962-19.9751472-.1211853-19.6826019-1.220665-39.0524673-6.0227814-56.8283386-14.1539001-.2522116-.1110764-.4943247-.2221603-.7364378-.3329926-.393465-.1817703-.7364998-.3832474-1.0290432-.615509.1513529-5.4173737.7264028-10.7845078 1.8563061-16.0203629.4035015-1.8563652.9583549-3.4804688 1.6645594-4.8930016 2.0681229-4.20681 5.3973656-6.5776978 9.5134144-7.8892479 2.7642918-.8775711 5.8815918-1.2709122 9.2309704-1.4122887 3.5914898.1211815 7.15275.111084 10.5121632.2017212 7.5462112.2120628 15.0923653.3228989 22.6385155.4440804l1.0492401-.0504913 11.9144745-.5751114c9.9270172-.1714249 19.8338928-.4640312 29.6903458-1.1300278 5.5687866-.3832436 11.3091278-.4337349 16.5955353 1.2915993 5.2762451 1.7349396 10.0884705 5.5686073 11.5008087 10.7138214.5448151 1.9672012.575058 4.0353851.6053467 6.0732765.0302277 2.6935387.0605316 5.3971786.0907593 8.0909691.0202024 1.6241036.7264097 4.6306954-.3026431 5.9722939z" fill="#c19368"/></g><g><path d="m60.9886703 36.8785629c-.7566338.6051598-1.7352486 1.0088463-2.9357758 1.0691872-11.8337517.6155052-23.9702034 1.3721428-34.3209763 7.7683182-7.4452305 4.600399-15.3243179 12.7416115-17.4429321 21.730587-.2522116-.1110764-.4943247-.2221603-.7364378-.3329926-.393465-.1817703-.7364998-.3832474-1.0290432-.615509.1513492-5.4173737.7263991-10.7845078 1.8563024-16.0203629.4035015-1.8563652.9583549-3.4804688 1.6645594-4.8930016 2.5120182-2.5824623 5.2561121-4.9129562 8.1010666-6.9306488.4640293-.3329964.9382191-.6457977 1.4123478-.9585991 2.7642918-.8775711 5.8815918-1.2709122 9.2309704-1.4122887 3.5914898.1211815 7.15275.111084 10.5121632.2017212 7.5462112.2120628 15.0923653.3228989 22.6385155.4440804z" fill="#dbaa82"/></g><g><path d="m131.5473938 108.8899002c-.5549164 2.7440338-1.9471283 5.1149216-5.1047592 6.5272064-2.5827103 1.1502304-5.7706375 1.7152405-8.4743347 2.6836929-3.9042282 1.4122849-8.0405426 2.1588211-12.166687 2.7844238-3.7428436.5751114-7.4856262 1.048996-11.2486649 1.4324875-3.4678879.3507919-6.604126 1.3504944-10.0985336 1.4040985-4.2780991.0656281-8.553688-.1560822-12.8305206-.214653-6.3594666-.0870895-12.6952858-.2312469-19.0389328-.7355194-6.9912987-.5546646-13.9422646-1.4223785-20.8428001-2.6028976-4.8928814-.8472748-11.2788963-1.20047-15.7884102-3.7225876 19.1983147.7265854 38.477417-.3330002 57.4638519-3.3393402 12.4088593-1.9672012 25.7659836-4.0250397 36.8128586-10.3505249 5.4881287-3.1477203 10.3002853-7.2537918 12.4290085-13.3975372 1.5476837-4.4983826 1.8435211-9.2926636 1.888855-14.0134125.0182419-1.8997192-.5535583-4.3827896.676651-5.7410812.7453537-.8229523 4.2290497-3.4477234 5.3701477-3.1462326 1.6080933.424881.9125824 4.7139969.9320679 6.0831146.0101013.7768326.0202026 1.5435638.0302429 2.3203964.080719 6.6786804.3027039 13.5083466-.1613922 20.2173233-.2724153 4.0050888 1.0290373 9.4025116.1513518 13.8110428z" fill="#99693d"/></g><g><path d="m80.1166077 78.4580078c-2.3992157-.6590958-5.7756805.8167343-6.2050476 3.5233307-.3206863 2.0211411-.7152557 4.4196167-2.9602814 4.6649323-1.8087692.1977768-2.5304947.1275787-2.5687943-1.6551437-.1391602-6.4823761-10.2281151-6.5052872-10.0884628 0 .1482124 6.9042969 4.7863541 11.6613388 11.7420654 11.7689743 7.4295883.1150208 12.462616-4.9050751 13.6035995-12.0970459.4263459-2.6873856-.6903762-5.4264909-3.5230788-6.2050477z" fill="#99693d"/></g><g><path d="m60.5658722 74.0885162c.1964722 3.8807831.6846199 7.7481613 1.4594765 11.5627899.2651749 1.3054657.5874329 2.6542282 1.4476395 3.7018127 1.1236153 1.3683853 2.995388 1.9966583 4.81036 2.1741028 2.6256104.2567062 5.3327179-.3077164 7.6052322-1.5856628 1.51828-.8538055 2.8844299-2.0785217 3.4772263-3.6594849.4279327-1.1412582.4264755-2.3845901.3567123-3.5945511-.1521149-2.6380081-.6268768-5.3187027-1.968689-7.6313858-1.3418198-2.3126907-3.664772-4.2202759-6.4085846-4.61763-1.0662231-.1544113-2.1564026-.0805588-3.2210617.0832901-2.3690796.3645935-4.7776299 1.2565155-6.2536125 3.0578384" fill="#bcbec0"/></g><path d="m4.9776168 99.9046097c.161438 1.0754395.3025513 2.1435547.5131836 3.2746582 1.2654777 6.9241867 4.4684997 13.2873535 10.8624878 16.2297363 7.1785412 3.1241455 36.5704803 6.8044205 57.5369873 6.4604492 29.2485123-.5344696 48.6305923-6.6007385 53.274231-9.034668 1.3051147-.673584 2.2856445-1.5217285 2.9546509-2.3388672.6731567-.8215332 1.0620117-1.5922852 1.3042603-2.2258301.4676514-1.2797852.4656982-2.0046387.4345703-2.3898926-.0493164-.3894043-.1746216-.4587402-.3122559-.4868164-.1376953-.0283203-.28302-.0073242-.4868774.2995605-.2168579.2983398-.465332.9084473-1.05896 1.8796387-5.3423157 8.3385925-46.2537613 10.4648514-56.1550903 10.5446777-21.1457329.130249-50.0188293-3.8259277-55.8275146-6.4023438-5.1154375-2.3729095-7.5234251-7.7760162-8.5238047-13.279541-.1824341-.9736328-.3260498-2.045166-.4865112-3.119873-1.4467684-10.1632918-2.6835071-20.1049727-2.508361-30.7949217 8.221405 4.6278839 17.7483597 8.1858444 26.8588238 10.6821289 8.4437866 2.3288574 17.932251 3.9909668 26.9986572 4.654541.7335205 1.9172363 1.2000122 1.8718262 1.6691284 1.7941895.5647583-.0942383.9958496-.3781738.7894897-3.3823242-.0413208-1.4746094-.3261108-3.6188965.503418-6.3378906.7403641-2.2423935 1.2772903-2.9538803 5.6830444-3.4836426 4.8503723-.5113602 7.6976547 3.1769028 8.5754395 7.8276367.1921387.9755859.3132324 2.0432129.3834839 3.0761719.1387863 2.1857986-.2215805 4.271347-4.25 6.0234375-3.4749756 1.5249023-7.5231934 1.2717285-9.331665-.2109375-.9222412-.7165527-1.3594971-1.7453613-1.6866455-2.4311523-.3172607-.7036133-.5253296-1.1123047-.6665649-1.0812988-.1331177.0288086-.1986084.4765625-.1268921 1.2910156.0971069.7854004.2689209 2.0861816 1.3752441 3.3583984 1.0939331 1.2524414 2.9221191 2.0681152 4.9263306 2.3615723 1.9962158.3007813 4.2860107.1699219 6.5402832-.5983887 4.0602722-1.3917389 6.652977-3.9841843 6.7845459-8.223877 1.2650757-.0969238 2.4974365-.2026367 3.651001-.3244629 12.6681595-1.328331 36.2863159-6.0309601 45.3215942-15.0507813.371582 15.7235184 1.2214661 31.9780121 1.0527344 39.0400391-.003418 1.2336426-.0939331 1.8676758-.0043335 1.8884277.046875.015625.2787476-.6201172.4194946-1.8562012.7317505-5.409317.6401978-18.941124.446167-54.8037109-.1239319-10.9057198-7.6451645-16.7180557-18.053894-18.2539063-5.9266281-.8630714-11.3526993-.229248-18.4413452.0793457.9231033-3.6136074 1.7177734-8.9375496 1.3890991-12.7648926-.5044174-10.5937347-9.7396011-10.8722868-15.4748535-11.7177734-6.8833847-1.0260658-18.867424-1.7115126-26.4746094.4777832-7.8210068 2.1783104-12.43256 7.4861107-13.4087524 12.3840332-.5776367 2.7578125-.3414917 5.2214355-.0084229 7.1989746.4570313 2.4145508 1.041748 4.1674805 1.4818115 5.1608887-6.2432861-.1809082-12.5336895-.7145996-18.9343853-.2490234-12.7650819.9695587-18.2534285 6.5072899-20.3148804 16.9868164-3.0747686 16.518692-1.5395573 31.3984604.8064575 47.8688965zm38.5360703-69.9470215c-.0855713-1.8925781-.0493164-4.173584.6382446-6.4509277 1.4982452-5.1463699 6.8339157-8.4866247 12.0637207-9.6867676 6.9802933-1.6653357 18.7873917-.6469316 25.0202026.2851563 2.1241455.3088379 3.9958496.4748535 5.6365967.8083496 3.0444565.5797243 6.2448196 1.8386383 6.7047729 7.3081055.5795975 4.3729553-.3027954 9.157156.0958862 12.4301758-13.5167236.5351143-25.3312912.5702553-38.8429565.6677246-3.3932495.0075684-6.7768555.1032715-10.0881958.0158691-.2261353-.0043945-.4528809-.0136719-.6791382-.019043-.1053465-1.0356446-.3969115-2.8933106-.5491332-5.3586426zm-35.4840078 22.8320312c.1416016-.7458496.2756348-1.5087891.4630127-2.1875 1.9483757-8.2398224 7.8673029-11.1257439 16.3007813-11.8134766 6.3636475-.5227051 13.0707378.0463867 19.8823223.1269531 3.4381104.057373 6.8217163-.0727539 10.1975708-.1135254 52.4417648-.9266815 58.1678085-4.1115036 67.3989258.9248047 6.167099 3.3255386 7.700882 7.6373405 7.8625488 13.052002.1182861 4.7443848.215332 9.2753906.3140259 13.5825195-.0712891.0222168-.1241455.0292969-.2072754.060791-2.4065323.9043274-15.597084 9.913475-45.4874268 13.0429688-1.0942383.1154785-2.2637939.2199707-3.4630127.3183594-.0060425-.0432129-.0074463-.0856934-.0137939-.1291504-.3382568-2.3828125-1.1294556-4.7768555-2.5407715-6.7270508-2.2370529-3.1283417-5.6939011-5.0340347-10.1920166-4.5053711-4.8702888.6556396-7.5854073 1.7665558-8.8341675 6.4770508-.4783936 1.9101563-.4650879 3.5136719-.3406372 4.8168945.012085.1179199.02948.2199707.043396.3327637-8.4967651-.4995117-17.3533325-1.7902832-25.3533325-3.6386719-12.6436138-2.8103027-22.9525757-7.090332-27.5357647-8.8378906.1454243-5.9845314.5931735-9.7059745 1.5056152-14.7824707z" fill="#202020"/></g></svg>