<svg id="Layer_1" enable-background="new 0 0 135 135" height="512" viewBox="0 0 135 135" width="512" xmlns="http://www.w3.org/2000/svg"><g><g><path d="m99.5071106 59.1907921c-10.8400269 22.2700157-42.3300171 28.8300743-62.1199951 15.3300743-3.3400269-2.2797852-6.3400269-5.1298828-8.8599854-8.5698242-.3400269-.4599609-.6600342-.9199219-.9800415-1.4003906-7.5599976-11.3998985-8.4400024-26.0297813-2.8399658-38.4399414 6.3599854-14.0795889 18.4599609-21 33.4500122-22.7797852 11.3599854-1.3398438 23.2999878 1.9296873 32.039978 9.2998047.7700195.6601563 1.5200195 1.340332 2.2299805 2.0600586 1.3200073 1.3100576 2.5300293 2.70996 3.6199951 4.1899405 3.3699951 4.5800781 5.6100464 9.8603516 6.6900024 15.3701191v.0097656c1.6000367 8.2802762.5800172 17.1001005-3.2299804 24.9301786z" fill="#fff200"/></g><g><path d="m58.1271057 80.1009445c-.0700073.449707-.1500244.8999023-.210022 1.3500977-1.5999756 9.9399414-2.4099731 19.9799805-2.4499512 30.0297852-.0200195 5.6499023.1699829 11.4902344-2.1900024 16.7202225-.4200439.9296875-.9500122 1.8598633-1.8699951 2.3999023-1.9100342 1.1098633-4.5700073-.0400391-5.7700195-1.7802734-1.2000122-1.7500076-1.4100342-3.8798904-1.9100342-5.8896561-.4899902-2-1.4799805-4.1303711-3.5299683-5.0102539-2.3499756-1.0097656-5.1599731.0302734-7.2600098 1.4301758-2.0899658 1.3999023-3.9500122 3.2099609-6.3999634 4.0097656-.5400391.1704102-1.1400146.300293-1.7000122.1704102-1.7999878-.3901367-1.9000244-2.6704102-1.5300293-4.3100586.1799927-.7900391.3800049-1.5800781.6000366-2.3603516 3.8899536-14.2900391 12.5799561-27.5795898 13.4599609-42.2700195z" fill="#f7941e"/></g><g><path d="m113.5019226 118.4004974c-.6815643 2.0533142-3.3528595 2.6880798-5.3425903 1.962471-1.9897385-.7150879-3.495842-2.3596191-5.1447906-3.7211151-1.6379547-1.3609314-3.7155838-2.5296631-5.7713394-2.0306015-2.3634567.5671997-3.7485886 3.1084976-4.3751984 5.5246201-.6376114 2.4161148-.8354797 5.013916-2.1106415 7.1464386-.2858276.4769058-.6376114.9305496-1.132309 1.1687241-1.5609894.7488861-3.089035-1.0778885-3.85849-2.6659241-.4947052-1.0208435-.967392-2.0416794-1.4181442-3.0857849-6.0241547-13.9638596-8.2557678-29.8115387-16.8413086-42.2560501l18.6441803-7.8726044c.5496521.9870529 1.1103058 1.9624786 1.6709595 2.9384537 4.9468536 8.5760574 10.4323578 16.8003845 16.4345016 24.6275711 3.5947418 4.6848984 7.4643021 9.4152222 9.080246 15.155304.2858276 1.0097579.4946976 2.1098098.1649246 3.1084975z" fill="#f7941e"/></g><g><path d="m92.4270935 14.6907911c-7.4299927-3.2197266-14.289978-4.1899414-22.6099854-2.2998047-7.4500122 1.6899414-15.3499756 4.0498037-21.6500244 8.5097647-13.3099976 9.4399414-17.6299438 26.4399433-18.3599854 41.8803711-.0700073 1.329586-.5499878 2.3896446-1.2799683 3.1699181-.3400269-.4599609-.6600342-.9199219-.9800415-1.4003906-7.5599976-11.3998985-8.4400024-26.0297813-2.8399658-38.4399414 6.3599854-14.0795889 18.4599609-21 33.4500122-22.7797852 11.3599854-1.3398438 23.2999878 1.9296873 32.039978 9.2998047.7700197.660161 1.5200197 1.3403368 2.2299806 2.0600633z" fill="#fff573"/></g><g><path d="m99.5071106 59.1907921c-10.8400269 22.2700157-42.3300171 28.8300743-62.1199951 15.3300743 1.0200195-.6899414 2.3399658-.9799805 3.8800049-.5800781 16.0800171 4.1499023 33.9099731.4301758 46.6900024-10.3398399 9.5800171-8.0698242 13.3900146-18.2700195 14.7799683-29.340332 1.6000366 8.2802733.5800171 17.1000976-3.2299805 24.9301757z" fill="#ead903"/></g><g><path d="m113.5019226 118.4004974c-.6815643 2.0533142-3.3528595 2.6880798-5.3425903 1.962471-1.9897385-.7150879-3.495842-2.3596191-5.1447906-3.7211151-1.6379547-1.3609314-3.7155838-2.5296631-5.7713394-2.0306015-2.3634567.5671997-3.7485886 3.1084976-4.3751984 5.5246201-.6376114 2.4161148-.8354797 5.013916-2.1106415 7.1464386-.2858276.4769058-.6376114.9305496-1.132309 1.1687241-1.5609894.7488861-3.089035-1.0778885-3.85849-2.6659241-.4946823-1.0208054-.9673615-2.0416107-1.4180984-3.0856781-.5206451-1.2060013 2.2458954-4.9358826 2.9376755-5.819603 1.4442215-1.8449402 3.2725067-3.3646545 5.3302841-4.4217377 2.522377-1.2957458 5.6291504-.7738266 8.1735306-2.0486221 4.3364868-2.1726913.4088974-5.6511002-1.4801788-8.2423401-2.9873199-4.1156693-6.1680298-8.0755844-9.3522186-12.0292053-2.6715775-3.3171387-4.2310181-6.3016739-5.847641-10.2170715-.5956345-1.4426117-1.4946365-2.3136826-.3349075-3.7556076 1.4866028-1.8483429 4.1101761-.9057693 5.4705582.5659485 2.0488281 2.2165298 2.5662766 5.4679413 4.1791077 7.9814148 3.3981247 5.2956924 7.0127335 10.4434128 10.832077 15.4240875 3.5947418 4.6848984 7.4643021 9.4152222 9.080246 15.155304.2858274 1.0097579.4946974 2.1098098.1649244 3.1084975z" fill="#ea8518"/></g><g><path d="m57.9170837 81.4510422c-1.5999756 9.9399414-2.4099731 19.9799805-2.4499512 30.0297852-.0200195 5.6499023.1699829 11.4902344-2.1900024 16.7202225-.4200439.9296875-.9500122 1.8598633-1.8699951 2.3999023-1.9100342 1.1098633-4.5700073-.0400391-5.7700195-1.7802734-1.2000122-1.7500076-1.4100342-3.8798904-1.9100342-5.8896561-.4899902-2-1.4799805-4.1303711-3.5299683-5.0102539-2.3499756-1.0097656-5.1599731.0302734-7.2600098 1.4301758-2.0899658 1.3999023-3.9500122 3.2099609-6.3999634 4.0097656-.5400391.1704102-1.1400146.300293-1.7000122.1704102-1.7999878-.3901367-1.9000244-2.6704102-1.5300293-4.3100586.1799927-.7900391.3800049-1.5800781.6000366-2.3603516 1.5899582-1.4799728 3.4099579-2.6996918 5.5499611-3.5400238 3.5383148-1.3894196 7.4651833-1.3141251 10.9858437.0902634 2.739151 1.0926437 7.8848991 6.9811325 9.1941757 1.1099167.4000244-1.8198242.7600098-3.6499023 1.0800171-5.4799805 1.3200073-7.5302734 1.8499756-15.1401367 1.8699951-22.7700195.0100099-3.3598634 2.7299806-4.9702149 5.3299561-4.8198243z" fill="#ea8518"/></g><g fill="#202020"><path d="m112.4996719 108.2769775c-.0579834-.1000137-1.7781296-3.5435715-23.7651978-33.4897461 15.2745209-11.1404839 19.5440903-29.7245636 14.2871704-45.1806641-2.1126709-5.9018555-4.2578735-8.4584961-5.3302612-9.7148438-1.1378174-1.2373047-1.4169312-1.1708984-1.6444092-1.0058594-.227478.1645508-.3704224.4311523.3243408 1.8833008.6344604 1.4663086 2.2821655 4.1083984 3.9018555 9.6967773 4.385704 16.0708485-.9174423 33.115036-16.0656738 42.5869141-3.6269531 2.1894531-7.8417969 4.0610352-12.5955811 5.1699219-4.7367554 1.1313477-9.999691 1.5913086-15.4898643.9594727-5.9881592-.6601563-12.8147583-2.7470703-18.7828369-7.1782227-2.9750366-2.199707-5.7025757-4.9638672-7.942627-8.2138672-7.2730808-10.4348984-8.3172092-24.3700981-3.6682739-35.7285156 1.5953369-3.9321289 3.7319336-7.6523438 6.5029907-10.7558594 13.962822-15.8932486 43.2712593-18.30093 60.447567-1.7871084 2.1906128 2.1142569 3.2393188 3.4648428 3.368103 3.3671865.0973511-.0678711-.7290039-1.5859375-2.776123-3.9355459-15.4890442-17.7017737-47.5433921-17.1076132-63.3847007.2636701-3.0930176 3.3403311-5.4860229 7.3369131-7.2823486 11.5664053-5.4151573 12.6501141-4.1494579 27.8695698 3.5760498 39.1962891 2.4520874 3.6347656 5.4752808 6.7524414 8.774353 9.2260742.6185303.465332 1.2471313.9003906 1.8799438 1.3203125-1.4334526 7.3586426-15.1570072 42.3233109-15.1297607 42.2231445-.0841064.3251953-.1638184.722168-.2061157 1.0898438-.0928345.7495117-.1011963 1.5400391.0911255 2.4150391.1102905.4414063.276001.9057617.5606079 1.3676758.2954712.4633789.7252808.8989258 1.2380371 1.2036133.9763393.5487823 1.9630394.6266251 3.0326538.3989258.8242798-.1879883 1.4412842-.4399414 2.1047974-.7431641 2.56427-1.2333984 4.3864136-3.0371094 6.1591797-4.0029297 1.7840576-1.003418 3.7533569-1.3554688 4.8987427-.6889648 1.1934814.5820313 1.9667358 2.2670898 2.3410034 4.1821289.4442139 1.9599609.723999 4.5004883 2.5718384 6.6621094.9286499 1.0332031 2.0393066 1.7275391 3.2873535 2.1313477 1.227417.4086914 2.7123413.4536133 4.059021-.1069336 1.2434692-.5151367 2.1226196-1.5107422 2.640625-2.3710938.5457153-.8916016.8118896-1.6386719 1.1297607-2.4052734.5869751-1.5405273.9754639-3.0761719 1.2394409-4.5566406.019474-.1105118 1.9163017-39.7465363 1.9202881-39.8520508 3.4135742.1655273 6.7192345-.0317383 9.8562584-.5258789.2652588.5117188.5636597 1.1000977.8775024 1.7695313 5.8888321 11.8724594 7.9744034 25.0190735 12.821167 37.3110352.6077271 1.590332 1.2911377 3.0986328 2.0314331 4.7236328.4657593.8935547 1.0003662 1.7407227 1.8886719 2.527832.3925781.362793 1.1699219.8588867 1.9017334 1.0039063.7521362.1850586 1.5459595.0668945 2.2474365-.2480469.3458252-.1655273.6655273-.3867188.9486084-.6513672.2886963-.2661133.5408325-.5869141.6872559-.7978516 1.8884659-2.7175369 2.0245819-6.2602386 2.8495483-8.6513672.4404297-1.3061523 1.1585693-2.4726563 1.9486694-3.034668.7784424-.5429688 1.5556641-.590332 2.6079102-.1894531.5111084.1972656 1.0425415.5102539 1.5552368.8764648 1.5402145 1.0945053 3.1193237 2.9850388 5.3348999 4.1704102.3844604.2075195.7840576.3842773 1.2190552.5410156.4691772.1601563.9400635.2749023 1.4085083.3291016.9364014.1225586 1.8660889.0498047 2.7731934-.2041016.9014893-.2509766 1.8009033-.7241211 2.5289307-1.46875.734436-.7270508 1.2243652-1.753418 1.364624-2.6875.2067871-1.2998047-.0294189-2.3666992-.2520142-3.246582-.6152115-2.2115004-1.4662553-4.3026793-2.8717042-6.7402327zm-60.6843223 18.1455079c-.2529297.6147461-.5223389 1.300293-.7960815 1.7226563-.2799683.4492188-.5238647.659668-.7663574.7602539-.2719727.1040039-.7042847.1586914-1.2442017-.0214844-.5266113-.1591797-1.1049194-.5166016-1.4927368-.9545898-.1786499-.1923828-.3672485-.4750977-.5408936-.809082-.1696777-.3271484-.3180542-.6967773-.4500122-1.1083984-.2670288-.8237305-.4555054-1.8076172-.7069702-2.9140625-.2490234-1.1113281-.6210938-2.3964844-1.2902222-3.6049805-.6546631-1.2099609-1.7166748-2.4589844-3.1935425-3.1796875-1.4594116-.7363281-3.1437988-.8515625-4.5772705-.5869141-1.4532471.2568359-2.7466431.8071289-3.9290771 1.4882813-2.3615112 1.4257813-4.0204468 3.1376953-5.8619385 4.0400391-.4335327.2192383-.9536133.4282227-1.317627.519043-.3841553.097168-.4624023.034668-.5217285.0307617-.0109253-.0102539-.0255127-.0083008-.0683594-.0546875-.0375366-.0581055-.0911255-.168457-.1368408-.3164063-.0812378-.3164063-.1146851-.7626953-.0671387-1.222168.020813-.2382813.0530396-.4418945.1126709-.7075195 3.6569805-15.3335876 12.1948242-29.7180405 12.5652466-42.5205078 5.9552613 3.7705076 12.4175415 5.6142576 18.1300049 6.2456053.2589111.0297852.5141602.0449219.7720337.0703125-4.5743485 18.1824417-1.3596878 34.6281204-4.6189575 43.1235352zm59.7925377-8.8378907c-.0422974.2431641-.1126709.3652344-.2590942.5209961-.1414185.1508789-.3933105.3144531-.7409058.4091797-.3399048.0981445-.7549438.1430664-1.1534424.0888672-.2010498-.019043-.3920288-.0703125-.5713501-.1264648-.2086182-.0737305-.4446411-.1708984-.6721802-.293457-.9276733-.4711914-1.9042969-1.3261719-3.0274658-2.3110352-1.1123047-.9755859-2.5213013-2.1484375-4.3464355-2.8364258-.9161377-.3447266-1.9992676-.5732422-3.144043-.4633789-1.144043.0893555-2.2702637.5683594-3.1558228 1.2324219-1.763916 1.3769531-2.6373291 3.1914063-3.2198486 4.9477539-.5626221 1.809082-.7466431 3.4511719-1.1088867 4.9384766-.1724243.7412109-.3842773 1.4228516-.6541138 2.0380859-.1347656.2910156-.3021851.6186523-.4437256.8320313l-.1110229.1572266c-.0176392.0214844-.038269.0410156-.0622559.0566406-.0483398.0292969-.1090088.0454102-.168396.0361328-.083313-.0283203-.0446777.0170898-.2843018-.1655273-.3874512-.3071289-.8095703-.875-1.1238403-1.4541016-.6834106-1.4023438-1.4291382-2.9121094-2.0501099-4.4018555-5.1720276-11.9737854-8.2566605-26.4419022-14.8591919-36.6088867-.3258667-.5273438-.6355591-.9824219-.9294434-1.3959961 1.0298462-.1816406 2.046814-.3842773 3.0371704-.6235352 5.1776123-1.2250977 9.7824097-3.284668 13.7537842-5.7202148.173584-.1098633.3388672-.2250977.5098877-.3364258 7.4903641 16.5710526 20.7604065 29.5350876 23.9526978 37.9306641.4797974 1.2749022.9921265 2.9140624.8323365 3.548828z"/><path d="m68.0818253 55.7325439c-.7174072-.0351563-1.5369263-.0615234-2.4209595-.0791016.5383911-2.3349609 1.0075073-7.6313477 1.4004517-19.6210938.0610962-1.8642578.1098022-4.0747089.1436768-6.4702168.0147705-1.2597656.0300903-2.5678711.0457764-3.9038086.0031128-.6044922.0514526-1.2382813-.0166626-1.8017578-.0625-.5620117-.2012329-1.0327148-.4075928-1.449707-.210144-.4106445-.4785156-.7583008-.8493652-1.0400391-.3687134-.2822266-.8795166-.4682617-1.3278198-.4907227-.4744263-.0097656-.871212.0454102-1.3301353.2949219l-1.4078979 1.0551758c-.2322388.1616211-.4633179.3569336-.6929932.5800781l-.5471802.519043-.7380981.7250977c-.9783325.9677734-1.9192505 1.9492188-2.8154297 2.9160156-1.7928467 1.934082-3.3878784 3.8291016-4.6945801 5.5078144-2.6139526 3.3608398-4.072998 5.8442383-3.7842407 6.0717773.3081055.2446289 2.3168945-1.7827148 5.3327637-4.6777344 1.5085449-1.4472656 3.2699585-3.1118183 5.1899414-4.8247089.9597778-.8564453 1.9545898-1.7299805 2.9771729-2.5942383l.7695923-.6489258.1729126-.1430664.0397949-.0234375.0724487-.0400391c.0947876-.0444336.1591797-.0952148.2351685-.0874023.0846558.0107422.1092529.1386719.0935059.215332-.0115967.0825195-.0374146.1464844-.0532837.1943359-.067627 1.2036133-.1337891 2.3823242-.1974487 3.5170898-.1230469 2.3925781-.2192383 4.6010761-.2803345 6.4658222-.3963623 12.0942383-.2692871 17.3955078.1229248 19.7299805-6.1365356-.0039063-13.6116333.3676758-13.6538086 1.2299805-.0550537 1.1230469 12.5350342 2.652832 18.4224205 2.940918 10.7443237.5263672 11.0136108-.3730469 11.0686035-1.4960938.0550534-1.1235348-.1250003-2.0449216-10.869324-2.5712888z"/></g></g></svg>