<svg id="Layer_1" enable-background="new 0 0 135 135" height="512" viewBox="0 0 135 135" width="512" xmlns="http://www.w3.org/2000/svg"><g><g><path d="m112.2220306 101.4403305c-2.7299805 1.3999023-5.8899536 1.5898438-8.9599609 1.75-15.0800171.7895508-30.1600342 1.449707-45.2499962 2.0097656-9.1799927.3398438-18.460022.6201172-27.5599995-.8798828-2.6400146-.4399414-5.2000122-.8300781-7.4700317-1.4599609-4.9699707-1.3701172-8.5999746-3.8803711-8.8300161-10.5703125-.4899902-14.0795898-.4799805-28.1699219-.039978-42.2397461.1699829-5.7099609-.8300171-8.7802734 5.1500235-11.0200195 4.6599731-1.7402344 9.6399536-2.4799805 14.7299824-2.7001953 6.210022-.2797852 12.5599976.2001953 18.6500244.550293 1.6999512.0898438 3.3699951.1796875 5.0099487.2299805 14.9999962.4897461 29.9999962.6499023 45.010006.4897461 3.3400269-.0400391 6.9299927-.0200195 9.6799927 1.9003906 2.7700195 1.9399414 4.0200195 5.3798828 4.9100342 8.6499023 3.0299683 11.25 1.7600098 21.8896484 2.5899658 33.2397461.5400389 7.3100585-.0299684 16.1401367-7.6199953 20.0502929z" fill="#fbb040"/></g><g><path d="m95.5220795 11.4901371c-.0300293 2.1801758-.2700195 4.5102539-.2600098 5.9199219.0499878 6.6098633-.3099976 13.2202148-1.0800171 19.7900372l-53.9700279-1.9101563c-.039978-1.0297852-.0699463-2.0600586-.0999756-3.0898438-.1900024-6.1601543-.2199707-12.3198223-.1300049-18.4799786.1400146-8.9301758.4100342-9.7099609 9.3800049-9.5200195 1.2200317.0297852 2.4400024.050293 3.6600342.0800781.5199585.0097656 1.039978.0200195 1.5599976.0297852 11.37994.2402344 22.7599449.4902344 34.1399498.7202148 3.3600464.0698242 4.7200317-.6000977 6.1199951 1.9702148.5500488 1.0097657.6900024 2.6997071.6800537 4.4897462z" fill="#5ecff7"/></g><g><path d="m107.5851746 58.8231583c.6971054-6.333744-3.4975204-11.6172676-10.2702789-10.6739273-6.0466919.8422127-9.1837616 6.7613907-8.0175018 12.4344673.5237274 2.5475273 1.9835205 5.0535851 4.354187 6.1232185 1.3993683.6313934 2.9782715.7123642 4.5134583.7213058 1.3343582.0077667 2.6948013-.0358582 3.9539719-.4774933 3.2511061-1.140274 5.0892332-4.7029495 5.4661635-8.127571z" fill="#e6e7e8"/></g><g><path d="m52.6420784 36.8802719c-.6600342 1.5400391-2.1100464 2.6499023-4.3699951 2.449707-5.9400024-.5200195-12.4900513-.4799805-17.6800556 2.8901367-5.1599731 3.3398438-7.289978 9.3999023-8.0099487 15.25-.8300171 6.7597656-.4000244 13.7700195-.3200073 20.5600586.0799561 7.0297852-.2000122 14.2597656 1.289978 21.1499023.3099976 1.4399414.0499878 2.6899414-.5700073 3.6801758-4.9699707-1.3701172-8.5999746-3.8803711-8.8300161-10.5703125-.4899902-14.0795898-.4799805-28.1699219-.039978-42.2397461.1699829-5.7099609-.8300171-8.7802734 5.1500235-11.0200195 4.6599731-1.7402344 9.6399536-2.4799805 14.7299824-2.7001953 6.2100218-.2797851 12.5599973.2001954 18.6500242.550293z" fill="#ffc67b"/></g><g><path d="m95.8420258 117.8001938c.1600342 9.4101563-9.4400024 11.7197342-17.0799561 12.1298904-9.5800171.5200195-19.1500206.0600586-28.7200279-.6098633-1.6300049-.1098633-3.25-.2299805-4.8699951-.3500977-1.3599854-.1000977-2.8099976-.2402344-3.8599854-1.1098709-.6000366-.5-.9700317-1.1499023-1.1900024-1.8803711-.3599854-1.1499023-.3599854-2.5-.3099976-3.7294922.3300171-7.75.6599731-15.5102539.9899902-23.2705078.1699829-3.8696289.3300171-7.75.5-11.6298828.0999756-2.3100586-.5800171-6.2597656.9199829-8.2299805 2.1300049-2.8100586 9.0800171-1.3999023 12.1000366-1.409668 5.3999634-.0200195 10.799984-.0400391 16.2000084-.0600586 5.0999756-.0200195 10.2199707-.0302734 15.2799683.6899414 1.2800293.1796875 2.5999756.4399414 3.7800293.9599609.6199951.2700195 1.1900024.6098633 1.6999512 1.0600586 3.6000366 3.1499023 3.9200439 10.8999023 4.0200195 15.3198242.1799927 7.3701174.3599854 14.7500002.5399781 22.1201174z" fill="#5ecff7"/></g><g><path d="m95.5220795 11.4901371c-6.0600586-.8901367-12.210022-.9199219-18.3200073-.9702148-5.3500366-.0400391-10.8000488-.0595703-15.9100304 1.7700195-4.9299927 1.7602539-10.9899902 5.090332-14.5199585 9.0102539-2.7700195 3.0800781-4.9300537 7-6.6600342 10.8999004-.1900024-6.1601543-.2199707-12.3198223-.1300049-18.4799786.1400146-8.9301758.4100342-9.7099609 9.3800049-9.5200195 1.2200317.0297852 2.4400024.050293 3.6600342.0800781.1799927.1601563.3499756.3300781.5.5200195.3499756-.1699219.7099609-.3300781 1.0599976-.4902344 11.37994.2402344 22.7599449.4902344 34.1399498.7202148 3.3600464.0698242 4.7200317-.6000977 6.1199951 1.9702148.5500488 1.0097658.6900024 2.6997072.6800537 4.4897463z" fill="#85e5ff"/></g><g><path d="m95.8420258 117.8001938c.1600342 9.4101563-9.4400024 11.7197342-17.0799561 12.1298904-9.5800171.5200195-19.1500206.0600586-28.7200279-.6098633-1.6300049-.1098633-3.25-.2299805-4.8699951-.3500977-1.3599854-.1000977-2.8099976-.2402344-3.8599854-1.1098709-.6000366-.5-.9700317-1.1499023-1.1900024-1.8803711 12.9000244 1.2602539 26.4699669 2.2202225 38.510006-2.1396484 7.5799561-2.75 11.6400146-7.4702148 11.8099976-15.6601563.1799927-8.1401367-.7800293-16.3701172-2.210022-24.3701172-.3399658-1.8798828.2800293-3.4296875 1.3500366-4.5097656.6199951.2700195 1.1900024.6098633 1.6999512 1.0600586 3.6000366 3.1499023 3.9200439 10.8999023 4.0200195 15.3198242.1799926 7.3701173.3599853 14.7500001.539978 22.1201173z" fill="#4bc6e8"/></g><g fill="#202020"><path d="m122.2667236 84.846344c-.0242081-2.249855-.2453995-4.3866653-.3115845-6.2646484-.4441681-9.953125.3056488-19.8821602-2.4049683-30.1796875-2.0041428-7.5895309-4.9549332-11.7694206-12.7461548-12.3583984-2.0859909-.1474037-3.1214676-.0536385-11.3233032.0146484.2131348-.8144531.4423828-1.9506836.6928711-3.5581055.5101852-3.4860229 1.7411194-20.13381 1.0760498-23.6967793-.0926514-.5844727-.3358765-1.3569336-.7109375-2.0449219-.3126221-.5600586-.7283325-1.203125-1.4311523-1.8071289-.6992798-.6293945-1.7559814-.9892578-2.5300293-1.0693359-.7959595-.0976563-1.4193115-.0678711-2.0064697-.0610352-2.7897568.0559993-41.0919876-.912755-46.4188843-.2177734-1.0761108.1801758-2.3425293.4208984-3.4842529 1.3803711l-.4025269.3671875-.321167.4282227c-.2296143.2885742-.3704834.5844727-.4984741.8828125-.1517944.3032227-.2354736.5883789-.3079224.8701172-.083252.2861328-.1567383.5688477-.1884155.8295898-.6824608 4.3330584.1757622 23.2540665 1.026062 27.1596699-1.56604.0620117-2.7178955.1635742-3.545105.2797852-2.0673218.2910156-2.203186.5825195-2.1915894.8574219.0119629.2866211.1802368.5307617 2.2200317.7275391 46.5917511 3.774971 63.4994202 2.1357841 70.0471191 2.5908203 4.5822296.3378601 7.2446747 1.8492393 9.149231 9.4423828 2.51577 9.696209 1.7816467 19.0353622 2.2316284 29.347168.0360107 1.0131836.1141968 2.0512695.1773071 3.1040039.0670776.9995117.1235352 2.0126953.1358032 3.0317383.0267944 2.0371094-.0861816 4.1142578-.4812622 6.1381836-.8281784 4.3152466-2.9474564 7.5625-7.0209351 9.3491211-1.9293823.7724609-4.2650146 1.0029297-6.7755737 1.140625-1.982605.0961914-4.0047607.1943359-6.0325317.2924805-.0566406-3.2329102-.0308228-6.4345703-.230957-9.7797852-.1243286-1.7866211-.3305054-3.5864258-.722229-5.3925781-1.7839355-7.9605026-5.526474-9.1706619-12.3169556-10.0053711-3.3464966-.3686523-6.5930176-.4594727-9.6851196-.4902344-29.8870964.0118866-26.769928-.6906586-30.0161133.0766602-.3041382.0766602-.6216431.190918-.9275513.2905273-.3114014.1142578-.6361084.2856445-.9458008.4360352-2.0278778 1.1666489-2.7101402 2.9275208-2.9819946 5.175293-.2285042 2.1439667.2496223-1.5000534-.5878296 21.8173828-4.7982101-.2520065-12.8474121-1.2703705-16.7722187-2.487793-3.6899033-1.2129517-5.9900837-2.9381332-6.713623-7.065918-.7393122-3.8049545-1.0385075-47.1144753-.6293945-49.8837891.208374-1.5664063 1.0491333-2.7143555 2.2936401-3.4814453 1.2063599-.7807617 2.5947266-1.265625 3.8723145-1.7158203 2.5713501-.8681641 4.8760376-1.3691406 6.7712402-1.7050781 3.7990742-.652832 5.9520283-.7871094 5.9417744-.9521484-.0029297-.0664063-.5424805-.1201172-1.5695801-.1201172-1.0264912.0039063-2.5429096.0473633-4.4885883.2597656-1.9440918.2094727-4.3237305.5893555-7.0181274 1.3623047-1.3327637.4057617-2.7858276.8256836-4.2503052 1.6831055-.7305298.4091797-1.4451904 1.0019531-2.0136719 1.7626953-.5732422.7626953-.9267578 1.7055664-1.1002197 2.6337891-.3584032 2.0133171-.8484659 21.5119324-.8959961 24.4936523-.4065161 27.4679413-.9011374 32.2077332 8.8713379 35.5966797 4.37393 1.4261932 12.5485058 2.5646133 17.5946064 2.8959961-.1282959 4.5449219-.2376099 8.4194336-.3304443 11.7094727-.0187378.9067383-.036499 1.7700195-.0534668 2.5913086-.0118408.8125-.0402222 1.5981445-.0151367 2.4199219.0542603 1.5947266.3200073 3.2963867 1.3532104 4.6376953.49646.659668 1.1634521 1.1484375 1.7987061 1.4394531.6376953.2954102 1.2316284.4257813 1.7577515.5083008 1.0547485.1455078 1.861145.1157227 2.5369873.1171875 1.3686523-.0097656 2.3074951-.0581055 2.9521484-.1337891 1.2893066-.1513672 1.4020386-.4121094 1.4215088-.6923828s-.0567627-.5546875-1.3098755-.8891602c-.6265259-.1669922-1.5472412-.3496094-2.8970337-.5551758-1.3185425-.2207031-3.25-.3188477-3.9336548-1.4912109-.3892822-.5825195-.5778809-1.6230469-.5372925-2.9633789.0157471-.6586914.0808105-1.4306641.1332397-2.2587891.0528564-.8198242.1084595-1.6811523.1668701-2.5864258.2060547-3.6225586.4519653-7.9453125.7454224-13.1040039 1.31073-26.7533798.6471596-21.1802139.9078979-23.409668.0751343-.7587891.2825317-1.4243164.5015869-1.7060547.1450806-.2387695.6190186-.5185547 1.3464355-.7006836 2.3293877-.5775681.0681229.1398926 29.0014648-.0146484 3.0368652.0029297 6.1567993.0605469 9.300293.3686523 5.7328491.6023941 7.7458878 1.0469437 9.1431885 6.956543.3630371 1.5473633.5846558 3.1826172.7299805 4.8457031.2618408 3.315918.2893677 6.8554688.4364624 10.3046875.1235352 3.4638672.246582 6.9135742.368042 10.3178711.0628662 1.7021484.1253052 3.3925781.1871948 5.0678711.0189819 1.5498047-.1098022 2.9575195-.6529541 4.2563477-1.090332 2.5639648-3.5814209 4.3115234-6.2906494 5.3154297-2.7246094 1.019043-5.6192627 1.4726563-8.3812256 1.6992188-5.6210938.4282227-10.7357178.4892578-15.0249634.4882813-8.586853-.0449219-13.9216919-.246582-13.9404297.0585938-.0095215.1386719 1.30896.371582 3.7058716.6557617 2.3974609.2783203 5.8731689.6181641 10.1871948.8701172 4.3152466.2446289 9.4639282.4179688 15.210083.2001953 2.9067383-.1318359 5.9968872-.4853516 9.121582-1.5351563 1.5602417-.5131836 3.1183472-1.2788086 4.550415-2.3432617 1.4273071-1.0634766 2.6971436-2.5136719 3.4971313-4.2475586.7969971-1.7294922 1.0189209-3.6870117 1.0318604-5.4799805-.0195923-1.6767578-.0393677-3.3696289-.0592651-5.0732422-.0305786-2.3618164-.0615234-4.75-.0925293-7.1455078 2.0856323-.0859375 4.1554565-.171875 6.1938477-.2563477 2.5737305-.1362305 5.336792-.3237305 8.0304565-1.3696289 4.5510101-1.781105 8.2722931-5.8890686 9.5241089-12.2578125.4791873-2.4165041.6007693-4.7617189.5764773-6.9946291zm-81.8592529-49.3417969c.4757156-3.3323517.5651054-22.8392906 1.3643799-26.5717793.1821289-.7993164.4605713-1.3789063.8326416-1.6386719.3624878-.2949219 1.0964966-.4848633 1.9484253-.5737305 1.8506126-.1669064 2.4245872-.1007485 17.6860962.4619141 12.621994.4322906 19.4551773.5796423 26.5904541.7133789.6452026.0107422 1.267395-.0097656 1.836792-.0244141.5648804-.0161133 1.0806274-.0234375 1.3935547.0170898.3284302.0527344.3561401.0654297.4723511.1572266.1193237.0981445.3267212.3378906.5182495.6884766.1134644.230957.2138672.4389648.2866821.8500977.3569031 1.7097664.1758423 2.4717751-.0336914 22.6821308-.0344238 1.7539063-.0151978 2.9628906.0454102 3.8071289-31.7788964.2058755-46.6395684-.7774162-52.9413453-.5688476z"/><path d="m89.2416992 65.546051c.9807129 1.4003906 2.3590088 2.5317383 3.8730469 3.1333008 3.4995041 1.3795166 10.8236313 1.4499969 13.9315186-3.5708008.6818848-1.1191406 1.0117798-2.09375 1.206604-2.8813477.3719482-1.5834961.2313232-2.4365234.0603638-2.8769531-.1853638-.4433594-.4487305-.4951172-.7279053-.5268555-.2792969-.0322266-.5505371-.0268555-.8411255.3007813-.2993774.3198242-.5906372.9814453-1.1947632 2.1108398-2.6374283 4.8433914-7.7531128 5.017189-10.9127808 3.6894531-.7459717-.3139648-1.465271-.8759766-2.0745239-1.7363281-.6696777-.9311523-1.2310181-2.2670898-1.4368896-3.8076172-1.2855377-9.9297562 11.8068237-13.9058723 15.3961182-4.5712891.8492432 2.309082.7283936 3.9946289 1.0639648 4.0141602.2070313.0439453.9259033-1.59375.4682007-4.4208984-1.0053101-5.4996872-5.8702011-8.5020599-11.2177734-7.7597656-5.8173981.6654549-10.3831406 6.202179-9.6717529 13.2138672.2299193 2.1767578.9847411 4.159668 2.0776976 5.6894531z"/><path d="m66.9918823 49.342926c12.7764282 0 13.0435791-.9116211 13.0435791-2.0361328s-.2671509-2.0361328-13.0435791-2.0361328c-7.0009155 0-22.0252686.9116211-22.0252686 2.0361328s15.0243531 2.0361328 22.0252686 2.0361328z"/><path d="m79.0720215 56.9410706c0-1.1245117-.2524414-2.0361328-12.3269043-2.0361328-6.616272 0-20.8150635.9116211-20.8150635 2.0361328s14.1987915 2.0361328 20.8150635 2.0361328c12.0744629 0 12.3269043-.9116211 12.3269043-2.0361328z"/><path d="m58.1089478 64.5392151c-12.4956665 0-12.756958.9116211-12.756958 2.0361328s.2612915 2.0361328 12.756958 2.0361328c6.8470459 0 21.5411377-.9116211 21.5411377-2.0361328s-14.6940918-2.0361328-21.5411377-2.0361328z"/><path d="m64.8088989 92.2691956c8.6138916 0 27.0997925-.6835938 27.0997925-1.5273438 0-.8432617-18.4859009-1.5268555-27.0997925-1.5268555-15.7200928 0-16.0488281.6835938-16.0488281 1.5268555 0 .84375.3287354 1.5273438 16.0488281 1.5273438z"/><path d="m64.8088989 101.2691956c8.6138916 0 27.0997925-.6835938 27.0997925-1.5273438 0-.8432617-18.4859009-1.5268555-27.0997925-1.5268555-15.7200928 0-16.0488281.6835938-16.0488281 1.5268555 0 .84375.3287354 1.5273438 16.0488281 1.5273438z"/><path d="m64.8088989 110.2691956c8.6138916 0 27.0997925-.6835938 27.0997925-1.5273438 0-.8432617-18.4859009-1.5268555-27.0997925-1.5268555-15.7200928 0-16.0488281.6835938-16.0488281 1.5268555 0 .84375.3287354 1.5273438 16.0488281 1.5273438z"/><path d="m91.7420654 117.7418518c0-.8432617-18.4859009-1.5268555-27.0998535-1.5268555-15.7200928 0-16.0488281.6835938-16.0488281 1.5268555 0 .84375.3287354 1.5273438 16.0488281 1.5273438 8.6139527 0 27.0998535-.6835938 27.0998535-1.5273438z"/></g></g></svg>