<svg id="Layer_1" enable-background="new 0 0 135 135" height="512" viewBox="0 0 135 135" width="512" xmlns="http://www.w3.org/2000/svg"><g><g><path d="m131.4175568 47.1515503c0 .090332-.0100098.1904297-.0100098.2802734-.1199951 2.5898438-.1699829 5.1601563-.1799927 7.7197266-.0599976 9.1401367.3300171 18.1401367-.3900146 27.340332-.4699707 5.9697266-.9500122 11.9301758-1.4400024 17.8901367-.1099854 1.3295898-.2199707 2.659668-.3299561 3.9799805-.2000122 2.4399414-.4000244 4.8798828-.6100464 7.3198242-.2299805 2.7700195-1.1499634 5.1201172-2.5799561 7.0698242-1.0100098 1.3603516-2.2700195 2.5400391-3.7400513 3.5200195-.0099487.0102539-.0199585.0200195-.039978.0302734-1.5100098 1.0297852-3.2399902 1.8598633-5.1300049 2.5-12.3399658 4.2299805-26.8499756 2.3398438-39.789978 2.2998047-14.0800133-.0498047-28.1699791-.2397461-42.2499962-.5400391-5.2700195-.1098633-14.1900024.6298828-19.7900391-1.7197266-.9799805-.4101563-1.8599854-.9199219-2.5999756-1.5400391-4.9400024-4.1601563-5.75-11.6103516-6.4500122-17.5800781-1.8399667-15.6601561-2.5100106-31.4501951-2.0199594-47.2099607.0999756-3.300293 0-6.9599609.0799561-10.6899414 0-.1601563 0-.3300781.0100098-.4902344.1300049-6.1899414.75-12.5297852 3.5300293-17.6596699.9099731-1.6801758 2.0499878-3.2402344 3.4899902-4.6103516 3.3800049-3.2299805 7.9400034-4.8100586 12.5700083-5.5400391 2.1799927-.3496094 4.3899536-.5 6.5-.5600586 10.3099976-.2597656 20.6300049-.3696289 30.9400024-.3198242.539978 0 1.0899658.0097656 1.6300049.0097656 11.0199547.0600586 22.0199547.300293 33.0199547.7202148 3.3300171.1201172 6.6500244.2700195 9.9800415.4101563 3.4799805.1401367 6.9599609.2900391 10.4400024.4399414 3.5699463.1499023 7.3199463.3598633 10.3399658 2.2797852 3.9899902 2.5400391 5.0100098 8.800293 5.1400146 14.7500019.0800172 3.760254-.2000121 7.3999024-.3200072 9.8999024z" fill="#ed6e7d"/></g><g><path d="m106.3639679 75.6617966c-.8079071-1.7250443-1.9558868-3.291275-3.2083893-4.7180634-1.191864-1.3577118-2.3725281-2.9102325-3.6817245-4.1320724-2.4273987-2.2654266-6.0486298-3.060482-9.2682114-2.4980774-3.9698105.6934509-7.4329605 3.155571-10.2259445 6.0606537-1.0922241 1.1360626-2.1114426 2.3582993-2.8692551 3.7400742-.8051987 1.4681549-1.299202 3.0867386-1.6815567 4.7169647-1.4104691 6.0137177-1.9686584 13.9727783.9024353 19.5968475 2.5283203 4.9526062 5.6603241 8.8735504 11.0912704 10.8108292 2.4073029.8587036 4.9905167 1.4323654 7.5159912 1.0394135 3.3612823-.5230026 5.8566895-3.2111359 7.762619-5.8465347 1.9624023-2.7134857 3.3362732-5.8477325 4.2621155-9.0550766 1.8063584-6.2576219 2.2266007-13.6817934-.5993499-19.7149583z" fill="#f97d91"/></g><g><path d="m131.4175568 47.1515503c0 .090332-.0100098.1904297-.0100098.2802734h-126.1799898c-.2600098 0-.5200195-.0200195-.7600098-.0600586-.1099854 0-.2099609-.0200195-.3099976-.0400391.1300049-6.1899414.75-12.5297852 3.5300293-17.6596699.9099731-1.6801758 2.0499878-3.2402344 3.4899902-4.6103516 3.3800049-3.2299805 7.9400034-4.8100586 12.5700083-5.5400391 2.1799927-.3496094 4.3899536-.5 6.5-.5600586 10.3099976-.2597656 20.6300049-.3696289 30.9400024-.3198242.539978 0 1.0899658.0097656 1.6300049.0097656 11.0199547.0600586 22.0199547.300293 33.0199547.7202148 3.3300171.1201172 6.6500244.2700195 9.9800415.4101563 3.4799805.1401367 6.9599609.2900391 10.4400024.4399414 3.5699463.1499023 7.3199463.3598633 10.3399658 2.2797852 3.9899902 2.5400391 5.0100098 8.800293 5.1400146 14.7500019.0800173 3.7602541-.200012 7.3999025-.3200071 9.8999025z" fill="#ff94a6"/></g><g><path d="m62.817585 18.6515484c-10.6800537 1.1801758-21.5 4.2104492-30.8800049 8.1000977-10.7900391 4.4799804-20.5300302 11.3100604-27.4700327 20.620119-.1099854.1499023-.2199707.300293-.3200073.4501953 0-.1601563 0-.3300781.0100098-.4902344.1300049-6.1899414.75-12.5297852 3.5300293-17.6596699 4.8800049-4.0205078 10.3099985-7.4003906 16.0599976-10.1503906 2.1799927-.3496094 4.3899536-.5 6.5-.5600586 10.3099976-.2597656 20.6300049-.3696289 30.9400024-.3198242.5399789.0000001 1.0899667.0097657 1.6300058.0097657z" fill="#ffabbd"/></g><g><path d="m130.8375397 82.4918823c-.4699707 5.9697266-.9500122 11.9301758-1.4400024 17.8901367-.5599976 1.2197266-1.1599731 2.409668-1.789978 3.5698242.5100098.0698242 1 .2099609 1.460022.4101563-.2000122 2.4399414-.4000244 4.8798828-.6100464 7.3198242-.2299805 2.7700195-1.1499634 5.1201172-2.5799561 7.0698242-1.1600342 1.25-2.4100342 2.4204102-3.7400513 3.5200195-.0099487.0102539-.0199585.0200195-.039978.0302734-1.5100098 1.0297852-3.2399902 1.8598633-5.1300049 2.5-12.3399658 4.2299805-26.8499756 2.3398438-39.789978 2.2998047-14.0800133-.0498047-28.1699791-.2397461-42.2499962-.5400391-5.2700195-.1098633-14.1900024.6298828-19.7900391-1.7197266.4400024-1.9902344 2.000001-3.6303711 4.6800547-3.4702148 13.0599976.800293 26.1499634.9799805 39.2299805.4199219 12.3999596-.5297852 24.9699669-1.3300781 36.9699669-4.699707 11.6300049-3.2602539 19.1900024-9.9501953 24.3400269-20.8803711 5.3800049-11.3896484 5.3599854-23.949707 5.2299805-36.2797852-.039978-3.5200195 2.9299927-5.1098633 5.6400146-4.7802734-.0599986 9.1401368.330016 18.1401368-.3900157 27.3403321z" fill="#dd5f74"/></g><g><path d="m55.7648926 89.7178345c1.3798027-.6885757 2.9076576-1.240242 4.0291328-2.302124 4.0475464-3.8330078 5.9123497-9.2490234 4.2903404-14.6816406-3.6876183-12.3505859-20.129879-15.2290039-31.1227379-14.2329102-6.3571777.5761719-6.4176636 10.5820313 0 10 6.2464371-.565918 16.3551559-.3754883 20.5326729 5.2841263 3.7147598 5.0326767-3.510006 9.3029022-7.7353935 10.139122-1.542942.3053513-3.1261711.3580627-4.6740494.6373215-1.5478821.2792587-3.110302.8191223-4.230011 1.9237366-3.4790115 3.432106-.4334641 8.5643082 3.3700562 9.9482651 2.4041634.8747635 20.6424637 3.3465576 12.3633118 7.760788-5.4266968 2.8930664-11.7160645 2.7089844-17.3734131.7167969-6.0819683-2.1416016-8.697813 7.5161057-2.6584549 9.6430588 6.9025612 2.4309692 15.1345444 2.4841843 22.0227814-.0131531 6.8340874-2.4776993 15.4207191-10.3550034 8.343029-17.4964676-1.5703278-1.584465-3.6872368-2.5447693-5.863945-3.0330429-1.5272141-.3425827-3.3419571-.6344604-4.0452538-2.0327148.6298638-1.066025 1.6430931-1.707802 2.7519341-2.261162z" fill="#f97d91"/></g><g fill="#202020"><path d="m132.5848694 46.6776772c.0591431-2.9589844.0410156-5.0258789-.0584106-6.4262695-.2020264-2.809082-.5209351-3.0053711-.7888794-3-.2939453.0053711-.5115356.2216797-.7960205 2.9672852-.1373901 1.3813477-.3377686 3.3964844-.6306763 6.3413086-.0036011.0410156-.0068359.0864258-.010376.1274414-.970459-.9038086-7.1875-1.5776367-46.5018311-1.5776367-23.1260986 0-70.7141113.7768555-77.9011841 1.7807617.0639648-2.9018555.2422485-5.7617188.7125854-8.5483398 1.3208652-7.5766964 4.5767751-13.1502743 11.781189-15.8471699 3.2617798-1.2255859 6.8138428-1.7578125 10.3578491-1.9658203 2.0690308-.0859375 4.1696186-.1206055 6.2631855-.1499023-.0111084.6489258-.0144653 1.2558594-.0085449 1.796875.1055908 9.6948242 1.0194092 9.8876972 2.1438599 9.8750019 1.1246338-.012207 2.0339966-.2246113 1.9284058-9.9194355-.0059814-.546875-.0228271-1.1606445-.0485229-1.8173828.1724243-.003418.34729-.0053711.5192261-.0092773 7.1465454-.1235352 14.1242676-.2441406 20.8638306-.3608398 6.7402954.0791016 13.2423706.1557617 19.4367065.2285156 3.3092651.0483398 6.5233765.0776367 9.6470337.112793.0288696.7929688.0655518 1.5283203.1095581 2.1723633.666748 9.76758 1.59021 9.9096699 2.7120972 9.8330097 1.1221313-.0766602 2.0177002-.3427753 1.3509521-10.1103535-.0379028-.5551758-.0907593-1.1782227-.1550903-1.84375 1.3290405.0195313 2.6425781.0419922 3.9312744.0708008 5.5128174.1655273 10.6481934.3198242 15.3366699.4604492 12.8022766.4721832 17.0087738.4349365 18.663208 14.2910175.1497192 1.3691406.2171021 2.0942383.2946167 2.0922852.0629272-.0014648.1347046-.7285156.1209717-2.1181641-.2295227-11.1589088-4.3868637-14.5781555-12.296875-15.4106464-2.1502686-.2211914-4.3723755-.2949219-6.7146606-.4384766-4.6862183-.2495117-9.8190918-.5229492-15.3292847-.815918-1.3839111-.0600586-2.7923584-.1132813-4.2235107-.1630859-.6589355-5.6513662-1.9145508-12.8842773-2.8083496-12.8232422-.8734741.0595703-1.1427612 7.0722661-1.046875 12.7006836-3.0895996-.09375-6.2694702-.1811523-9.5407715-.2861328-6.2064819-.1743164-12.7221069-.3989258-19.4780884-.5429688-6.7577515.0234375-13.7543945.0478516-20.9202881.0722656-.2091675.0019531-.4180908.0014648-.6271362.003418-.3638916-5.475585-1.1638184-11.9970703-2.0150146-11.987793-.8496094.0092773-1.5064697 6.5244145-1.7520142 12.0009766-2.1409912.0029297-4.2973042.0102539-6.5107441.0761719-3.7391968.1782227-7.5795288.6845703-11.2997437 2.03125-8.3263035 3.0145929-12.4028626 9.4954565-14.0111097 18.2075212-.7182617 3.8798828-.8352661 7.7612305-.9019775 11.5795898-.411594 15.2877693-.7401457 51.7348824 3.4522703 66.4204102 1.0142822 3.5234375 2.80481 7.1459961 6.0606084 9.5385742 1.6751099 1.1958008 3.4764404 1.8286133 5.2077017 2.277832 1.7418823.4487305 3.4458008.6557617 5.1148071.8076172 3.3364868.2919922 6.5394897.230957 9.5861206.2089844 2.9937763-.0297852 5.9647236.0581055 8.866518.0820313 2.8919678.0375977 5.6957397.0737305 8.4025269.1083984 9.8796997.1206055 19.1547852.2338867 27.8623047.340332 8.5822144.0522461 16.7624512.7026367 24.5272827.3149414 3.8777466-.1835938 7.6514893-.5986328 11.2516479-1.4013672.8951416-.2290039 1.786377-.434082 2.6609497-.6801758 15.3661346-4.9422989 18.306015-9.5710373 17.2918701-68.7236328-.1157837-5.1264648-.1248779-9.0063476-.0818481-11.9531249zm-2.7978516 11.9633789c-.4474945 24.2622643.5432892 9.1483498-3.1550903 52.063961-.6645584 8.7036819-6.4410553 11.3615723-14.7700195 13.4785156-3.3195801.7236328-6.8679199 1.1044922-10.5822144 1.2666016-7.4398804.3510742-15.515625-.3066406-24.3308105-.3803711-8.6921997-.112793-17.9509888-.2329102-27.8132935-.3608398-2.7020264-.0332031-5.5009155-.0673828-8.3878174-.1030273-2.8771362-.0195313-5.861145-.1040039-8.9819965-.0668945-3.0645142.0307617-6.1465454.0913086-9.2053833-.168457-1.5223999-.1328125-3.0509033-.3183594-4.4850464-.6860352-1.4312744-.359375-2.7983999-.875-3.8469229-1.625-2.1973267-1.5810547-3.7246094-4.340332-4.6067505-7.4042969-4.0032153-13.6752853-3.9800887-53.0086937-3.7310185-67.2548828 7.1616216 1.0043945 54.7739258 1.7817383 77.90802 1.7817383 38.375 0 45.2142944-.6420898 46.421814-1.5136719-.2158189 2.8330115-.3734117 6.4277381-.4334703 10.97266z"/><path d="m62.9829407 94.9955444c-1.0454712-.8364258-2.1810913-1.4628906-3.317688-1.9311523-2.0896606-.8569336-4.131958-1.2192383-5.9972534-1.4194336.8019409-.3369141 1.6235962-.7382813 2.4680786-1.2587891 2.4086304-1.4868164 4.8520508-3.7514648 6.5493774-7.0908203.4608154-.9121094.8705444-1.9453125 1.1477661-3.0898438.3016968-1.1352539.4433594-2.3930664.4055786-3.6972656-.0383911-2.6347656-1.0554199-5.3769531-2.7003784-7.6064453-1.6346436-2.2431641-3.8977661-4.0610352-6.3399048-5.2641563-2.4401855-1.2260742-5.019165-1.9111328-7.4609375-2.296875-4.8664551-.7807617-9.4472046-.4326172-12.5282593.6308594-3.1079102 1.0219727-4.6046162 2.4506798-4.4670429 2.6376915.1610107.2827148 1.8815327-.6225548 4.8467426-1.0981407 2.9457397-.5244141 7.1428223-.4145508 11.5935059.6552696 2.2085571.5258789 4.4405518 1.2988281 6.4212646 2.4477539 1.9890137 1.1298828 3.6773071 2.6689453 4.8643799 4.4448242 1.1826782 1.7695313 1.8060303 3.7241211 1.7817383 5.53125.0126343 1.8164063-.5079346 3.5170898-1.2073364 4.8842773-1.2752686 2.5214844-3.1828003 4.34375-5.017334 5.5263672-1.8687134 1.1870117-3.7669678 1.8564453-5.4194946 2.2797852-3.3434448.8291016-5.7922974.8549805-7.4259644.9804688-3.2988281.1333008-3.5318604.5058594-3.6049194 1.0947266-.0387573.2783203-.0443726.5478516.3890381.8491211.4343262.2988281 1.3065186.6455078 3.0645752.9316406 1.5031128.2070313 3.6934204.4604492 6.7920532.0581055.0117798.0004883.0219116.0009766.0336914.0014648 1.4347534.0893555 3.1311035.2670898 4.9696655.6420898 1.8377075.3779297 3.8314209.9140625 5.6401367 1.8432617 1.8165894.9179688 3.3797607 2.284668 4.2287598 4.0322266.8796997 1.7402344.8692627 3.6108398.008728 5.1264648-.8372803 1.5341797-2.425293 2.7495117-4.0552979 3.6279297-1.6567383.8959961-3.3237305 1.4350586-4.9020996 1.8881836-5.6921387 1.5917969-10.2185669 1.7856445-13.588501 1.7543945-3.3865356-.0366211-5.6708984-.3520508-7.2358398-.4736328-1.5599384-.1611328-2.4044819-.1757813-2.8823261-.0571289-.4790039.1206055-.5881958.3686523-.6675415.6381836s-.1261597.534668.2340698.8867188c.3602295.3540039 1.1268921.8037109 2.7127705 1.3481445 1.5897217.5024414 4.0072021 1.1503906 7.6790771 1.4067383 3.6519775.2480469 8.6196899.1606445 14.8696899-1.5883789 1.6743774-.4804688 3.718689-1.1621094 5.7227173-2.3178711 1.9819336-1.15625 4.1499634-2.7895508 5.4594727-5.4150391.6383057-1.3041992.9767456-2.8046875.8834229-4.3066406-.0886841-1.4956055-.5610962-2.9140625-1.269165-4.1269531-.7070313-1.2177735-1.6218262-2.2675782-2.6790161-3.1093751z"/><path d="m108.2559509 81.7538452c-.3845825-2.831543-1.1427612-6.2041016-2.7711182-9.7036133-.819519-1.7426758-1.8652954-3.5161133-3.2601929-5.1665039-1.3789673-1.6523438-3.1742554-3.1679649-5.385498-4.1401329-2.1967163-.9995117-4.7949219-1.2524414-7.2376099-.8779297-2.4465942.4262695-4.7212524 1.3579102-6.8178101 2.6562462-4.2380981 2.6000977-7.2249146 6.8554688-8.9280396 11.2275391-1.7174072 4.4091797-2.2747803 8.9975586-2.1221924 13.2070313.1612549 4.21875 1.0506592 8.0961914 2.3900146 11.296875.6099243 1.4594727 1.2973022 2.8466797 2.1193848 4.1137695.8266602 1.2836914 1.6655273 2.4208984 2.7396851 3.5151367 2.1417847 2.1430664 4.7089233 3.409668 7.182251 4.0615234 2.4858398.6416016 4.9213257.7211914 7.1207886.3227539 2.1887207-.4116211 4.1268311-1.1953125 5.7455444-2.1879883 1.6164551-1.0058594 2.864502-2.2094727 3.9157104-3.3623047.9921875-1.1992188 1.8112793-2.3491211 2.4120483-3.4638672 1.2397461-2.2128906 1.8859253-4.1259766 2.3324585-5.6689453.802063-3.1162109.8204346-4.7910156.7176514-5.6645508-.1088257-.8754883-.3656006-.9667969-.6439819-1.0053711-.2785034-.0385742-.5545044-.0083008-.9211426.7539063-.3687744.7558594-.8157349 2.2641602-1.8814697 4.996582-.5722046 1.3457031-1.3070068 3.0053711-2.4946289 4.8432617-.5757446.9316406-1.3226318 1.8540039-2.1764526 2.8066406-.9028931.8969727-1.9306641 1.8178711-3.2002563 2.5527344-1.2713013.7216797-2.7595215 1.2744141-4.4381104 1.5620117-1.6682129.2724609-3.5485229.1762695-5.447937-.3369141-1.8922729-.5195313-3.8198242-1.5112305-5.3486938-3.0649414-1.5313721-1.6083984-2.946228-3.8251953-3.9689941-6.3286133-1.1549072-2.7514648-1.9742432-6.1694336-2.1679688-9.918457-.1890869-3.7382813.2401123-7.8369141 1.6461182-11.7026367 1.401001-3.8422852 3.821167-7.4619141 7.2530518-9.7202148 1.6916504-1.1323242 3.62323-1.9921875 5.5320435-2.3969727 1.9152222-.3544922 3.8505249-.253418 5.5858765.4438477 1.7417603.6748047 3.2872925 1.8271484 4.5529175 3.2016602 1.277832 1.3657227 2.3154907 2.9106445 3.1616211 4.46875 1.6899414 3.1323242 2.6424561 6.2822266 3.2427368 8.9487305 1.1716309 5.3818359.7509766 8.859375 1.0712891 8.890625.22937.0644531 1.219055-3.4458008.4909056-9.159668z"/></g></g></svg>