<svg id="Layer_1" enable-background="new 0 0 135 135" height="512" viewBox="0 0 135 135" width="512" xmlns="http://www.w3.org/2000/svg"><g><g><path d="m123.184639 75.3018799c-.1228714 1.1059799-.2457428 2.1914597-.3686752 3.2664337-.3378677 2.8979492-.737236 5.8469009-2.0377121 8.4888535-1.7305374 3.5429306-4.8843536 6.2563858-7.9870453 8.8473358-1.1776047.9729843-2.3448944 1.9559631-3.5327454 2.9184494-7.0142517 5.7748947-14.1309357 11.4172897-21.3602448 16.9161911-6.2258224 4.7509155-15.4211578 14.612236-23.5515671 15.1752243-2.8364525.1945038-5.66259-.8704834-8.3864136-2.5804443-5.3554039-3.337944-10.3115005-9.1033401-14.1206818-12.5437775-7.9358559-7.147377-15.625967-14.5817413-23.0600834-22.292099-5.0994072-5.283905-7.2498055-12.1032791-8.0689783-19.425148-1.1468544-10.2908134.3481808-21.5646095.0409365-30.9444389-.1638088-5.1099091-.3788681-8.8573418.4505548-12.2777786.7782354-3.2969398 2.5292664-6.2973862 6.2053251-9.9223194 4.4543571-4.3929214 9.6254501-7.9868565 15.1856632-10.7618055 3.9423637-1.9764643 8.0792274-3.5329366 12.298027-4.669416 1.5462227-.4094925 3.1026917-.7779856 4.6693535-1.0749803.0102501-.0105.0307465-.0105.0511856-.0105 12.9328918-2.5599537 26.4494591-1.597471 39.3311653 1.4334741 3.1640625.7474866 6.7787476 1.720469 10.4446182 3.0104451 10.0964432 3.5634356 20.5922546 9.5233288 23.295578 19.5786457.0511856.1434975.0818787.2869949.1228714.4299927 3.5020068 14.3152408 2.0479663 31.6209278.3788684 46.4376621z" fill="#fbb040"/></g><g><path d="m96.1720047 69.9569702c-2.8466949 6.5223846-7.6901093 12.4102783-14.2128677 15.3902206-10.9361115 4.9969101-24.5960541 3.6864395-33.0336494-5.058403-3.9525528-4.0959244-6.8196907-9.1748352-8.3659096-14.612236-1.0547333-3.696434-1.5052872-7.5568657-1.2697296-11.3967934.8089256-13.6192551 7.5467377-22.6405907 20.5512543-25.3130436 9.0520248-1.853466 19.0460892-2.1399612 26.8488235 2.4269562 2.6623306 1.566473 5.0687256 3.6864338 7.0961838 6.5123844 6.5636977 9.1238328 6.8811874 21.7701035 2.3858947 32.0509148z" fill="#39b54a"/></g><g><path d="m99.3873215 8.8555794c-.7577972 1.2289782-2.1401443 2.0074644-4.1266708 1.7614689-19.803833-2.4269562-40.2117729.6349878-57.9675789 9.9838181-18.759346 9.8713226-26.4392071 28.8249798-24.8212986 49.4171066.1433096 1.9049606-.6041775 3.2564392-1.761281 4.054924-1.1468544-10.2908134.3481808-21.5646095.0409365-30.9444389-.1638088-5.1099091-.3788681-8.8573418.4505548-12.2777786 4.3724203-6.9628735 10.3319998-12.9737644 17.929924-17.4381828 6.4101334-3.7684317 13.2913208-6.7683778 20.4284439-8.9903374.0102501-.0105.0307465-.0105.0511856-.0105 12.9328918-2.5599537 26.4494591-1.597471 39.3311653 1.4334741 3.1640634.7474874 6.7787485 1.7204699 10.4446192 3.010446z" fill="#ffc06e"/></g><g><path d="m123.184639 75.3018799c-3.0105057 8.867836-7.5262985 17.0391846-13.926178 23.5210724-7.0142517 5.7748947-14.1309357 11.4172897-21.3602448 16.9161911-6.2258224 4.7509155-15.4211578 14.612236-23.5515671 15.1752243-2.8364525.1945038-5.66259-.8704834-8.3864136-2.5804443 12.9636383-10.1478271 25.9169693-20.3156433 38.8396072-30.5249557 4.628418-3.6554337 9.16465-7.4033661 12.3594666-12.4412766 3.3074417-5.2224045 5.4475861-11.1512985 7.1473694-17.0696869 3.2767563-11.3967934 4.2802963-23.1420822 3.3791885-34.9588661-.2559967-3.3994408 2.3448944-5.0279102 4.9970322-4.9049129.0511856.1434975.0818787.2869949.1228714.4299927 3.5020066 14.3152407 2.0479661 31.6209277.3788682 46.437662z" fill="#f9a435"/></g><g><path d="m84.0149155 41.2004929c-5.0161591 6.1593895-10.1998138 12.1752815-15.5949707 18.006176-.9267273 1.0019798-3.6103058 2.8924484-3.9162369 4.1664238-.0366898.0254974-.0583801.0469971-.0920639.0719986-.2533722-.2464943-.5068016-.4924927-.7602348-.738987-2.8005753-2.7219505-5.6012115-5.4434013-8.4017868-8.1653519-4.7284775-4.5949173-11.9768448 2.6379509-7.2406197 7.2408676 5.2917175 5.1424065 13.2313881 17.0721931 21.5120468 10.8988075 3.9956818-2.9789505 7.3272476-7.470871 10.6256256-11.1703033 3.8060532-4.2684212 7.497673-8.6348419 11.1088562-13.0692596 4.1269302-5.0674096-3.0758209-12.3547783-7.2406158-7.2403717z" fill="#47c954"/></g><g><path d="m86.6899261 31.393671c-8.9598389.1839981-17.9708633 1.3104763-25.9989014 5.2734051-9.5435143 4.7204132-17.4896202 13.6597519-17.6226807 24.7190514-.0307503 2.0989647-1.0854797 3.5324364-2.5087662 4.2904243-1.0547333-3.696434-1.5052872-7.5568657-1.2697296-11.3967934.8089256-13.6192551 7.5467377-22.6405907 20.5512543-25.3130436 9.0520249-1.853466 19.0460893-2.1399612 26.8488236 2.4269562z" fill="#47c954"/></g><g fill="#202020"><path d="m8.4286509 62.1423569c-.1974535 8.1608887.1863441 18.568924 4.1192017 25.8081055 3.8033361 7.8850327 37.3152924 38.497261 40.2240601 40.6635818 2.0515747 1.4990234 4.3817749 2.9575195 7.2388916 3.7924805 1.4093628.4438477 2.9986572.5917969 4.5889282.5166016 1.548584-.1733398 3.0853882-.5 4.4710693-1.0756836 2.8259888-1.0805664 5.3372803-2.6728516 7.7253418-4.415535.1015396-.0741959 39.7630844-31.2566223 43.8381348-36.6640625 1.0913696-1.4555664 2.0272827-3.1630859 2.6021118-4.9291992.5930176-1.7597656.9044189-3.5356445 1.1348267-5.2573242.791626-6.7602539 1.4841309-13.4755859 1.9006958-20.2724609.6531906-11.4222183 1.0857162-30.4845428-5.836792-39.5708008-9.1549922-12.1681109-32.8338863-17.4465796-48.0817271-18.4887689-4.9616699-.3081053-9.6044922-.2324219-13.8140259.1464844-8.430603.777832-15.0542603 2.7490237-19.4168701 4.5053711-2.189209.8735352-3.8328247 1.6777344-4.9260864 2.2583008-1.0923462.5839844-1.6367798.9433594-1.6067505 1.003418.072937.1523438 2.4049072-.9956055 6.8153687-2.4912109 4.4000853-1.4873046 10.9708861-3.1728515 19.2562865-3.6953126 4.1378784-.2514648 8.6882935-.2075195 13.5436401.2084963 14.2762527 1.3130393 37.5504456 6.7596512 45.930481 18.2866211 6.1949005 8.3848419 5.4738693 27.2405548 4.7664185 37.6201172-.4785767 6.6547852-1.2432861 13.3999023-2.0783691 20.0029297-.2293091 1.6088867-.5261841 3.1567383-1.0205078 4.5751953-.4815063 1.4223633-1.1881104 2.6811523-2.1038208 3.8930664-3.5472641 4.6555634-43.1682892 35.5392609-43.2683716 35.6118164-2.2302856 1.6225586-4.5124512 3.0253906-6.7947998 3.8837967-1.1373291.4775391-2.2670288.6791992-3.3491211.815918-1.0565796.027832-2.1096191-.0395508-3.1633301-.3798828-2.1063843-.6108475-4.1099854-1.8139725-5.9354858-3.158699-2.1556473-1.6017456-35.4797974-31.6758041-39.1170044-39.1586914-3.562644-6.3851318-3.9989481-16.7155762-3.890624-23.9628906.1196423-7.7700882.1082153-23.8251953.1081543-25.5292969-.0349731-3.4228516.4358521-6.2792969 1.5842285-8.6245117 3.1921911-6.3810482 11.2497454-12.1514006 16.7456665-15.9624014 2.0319214-1.3852539 2.1049805-1.671875 1.9711914-1.9350586-.1206055-.237793-.4187622-.4389648-2.7387695.5478516-6.3352356 2.7580891-15.2910213 9.4359941-18.7868652 15.9399405-.7192993 1.4013672-1.291748 2.996582-1.6355591 4.6982422-.7739832 3.7722538-.3002197 3.7010944-.999817 30.7934559z"/><path d="m64.4830933 89.4704819c2.3199463.1875 4.5866699.1650391 6.7503662-.1201172 9.725914-1.050148 17.4516678-5.8790207 22.7803955-14.4165039 8.1750793-13.2495384 6.4558792-29.7654648-.2020874-37.0410156-.9011841-.921875-1.1641846-.8334961-1.3934326-.6713867-.2293091.1625977-.3916626.4033203.0622559 1.5317383 3.4873199 9.6477737 5.310463 16.8627739 1.5767212 27.2421875-3.9381485 11.0133362-11.9877167 18.1289139-23.300354 19.315918-1.9064331.2514648-3.8984375.2641602-5.927124.1010742-11.6644707-.8536453-19.8818932-9.0840073-23.4824829-19.8046875-.9637451-2.9399414-1.5834961-6.0610352-1.6734619-9.2197266-.4609222-13.4353409 5.4277649-23.8748436 19.6583862-26.9423828 2.8671875-.6118164 5.6651001-1.0395508 8.3408203-1.222168 11.5917435-.7887688 17.6315079 2.2836857 23.9991455 8.3974609.432251.4316406.6890259.6416016.7460938.6005859s-.086853-.3325195-.4174805-.8564453c-5.312645-8.0663548-14.8221588-10.6948395-24.4404297-10.4160156-2.8078613.0810547-5.7346191.4208984-8.7268677.9541016-15.8241234 2.8539619-22.9394569 14.6827126-22.739502 29.5771484.0366821 3.519043.6616821 6.9970703 1.6834106 10.2841797 3.916481 12.3105087 13.4377938 21.7217712 26.7056275 22.7060547z"/><path d="m89.6972046 41.6643295c-.8313599-.7578125-1.7940063-1.0546875-15.6055908 14.1015625-1.8920288 2.0761719-4.2839966 4.7856445-6.7947388 7.6938477-1.2277222 1.4291992-2.4918213 2.9008789-3.7462769 4.3608398-.265564.284668-.5128174.4853516-.6873169.5844727-.1835327.0957031-.2423096.125-.4165649.1132813-.3614502-.0024414-1.1264038-.503418-1.897583-1.0375977-6.0686035-4.0883789-10.4849243-8.1953125-10.906189-7.7954102-.4049072.3583984 3.3274536 5.2456055 9.1724243 10.0947266.3692017.3007813.7091064.6005859 1.1755371.9379883.4602661.3251953 1.0265503.6811523 1.7974854.8730469.7682495.2080078 1.72229.1025391 2.4210815-.2133789.7142334-.3071289 1.2424927-.7285156 1.6813965-1.1225586.4453125-.4057617.7862549-.7744141 1.1257324-1.1171875l1.02771-1.0546875c.6810913-.7045898 1.3585815-1.4057617 2.026123-2.0961914 2.6630859-2.7695313 5.1392822-5.4018555 7.031311-7.4780273 13.8115846-15.1562501 13.4265748-16.0874025 12.5954591-16.8447267z"/></g></g></svg>