<svg id="Layer_1" enable-background="new 0 0 135 135" height="512" viewBox="0 0 135 135" width="512" xmlns="http://www.w3.org/2000/svg"><g><g><path d="m127.7972031 82.3714294c-.2199707.8898926-.5100098 1.7597656-.8299561 2.6098633-3.3600464 8.9599609-12.75 21.8598633-23.5800171 31.5400391-4.8800049 4.3598633-10.039978 8.0600586-15.0900269 10.4499512-4.5599976 2.170166-9.0299683 3.2800293-13.0899658 2.8300781-2.5700073-.2800293-4.9500122-1.2199707-7.1799927-2.5400391-3.5300293-2.1101074-6.6799965-5.1899414-9.6199989-8.1799316-14.2300415-14.4702148-28.1800537-29.25-41.8200073-44.3200684-.8600454-.9399414-1.710021-1.880127-2.5599966-2.8200684-2.2200317-2.4699707-4.5-5.0498047-5.5400391-8.2700157-3.9199833-12.2099609-1.9299931-30.5698242-2.8599858-43.6398925-1.1400146-15.9401861 11.0800166-17.0300298 23.2700191-16.1398931h.0100098c1.7199707.1298828 3.4400024.2897949 5.1199951.4599609 2.9099731.2900391 5.6999512.5898438 8.1900024.7199707 7.039978.3398438 14.1799927.8498535 20.8699951 3.2099614 13.1099892 4.6298828 22.9599648 15.7399902 32.0999794 26.6999512.3900146.4599609.7800293.9299316 1.1600342 1.3901367 9.289978 11.1599121 18.5699463 22.3198242 27.8499756 33.4799767 1.539978 1.8498535 3.1300049 3.7900391 3.789978 6.1599121.1500168.5500488.2499924 1.119873.2900314 1.6799316.1399537 1.5600587-.0700073 3.1401368-.4800338 4.6801758z" fill="#f40ff4"/></g><g><path d="m38.521225 36.992466c14.257885-8.6912651-2.5117455-21.6588478-13.3885193-18.9983921-1.2325478.3014793-2.4741764.7639408-3.3757992 1.663002-3.4673347 3.4574661-.1919231 12.7521038 2.8339634 15.6145344 3.6628056 3.4649467 9.6318321 4.3410682 13.9303551 1.7208557z" fill="#fff"/></g><g><path d="m28.8972359 3.8914523c-5.5300293 3.2697754-9.210022 10.0898438-11.3200073 15.8098145-2.6600332 7.1901855-3.499999 14.8300781-3.5300283 22.4499512-.039978 10.8400879 1.0300293 21.7700195 2.5400381 32.6101036-.8600454-.9399414-1.710021-1.880127-2.5599966-2.8200684-2.2200317-2.4699707-4.5-5.0498047-5.5400391-8.2700157-3.9199834-12.2099605-1.9299932-30.5698238-2.8599859-43.6398921-1.1400146-15.9401861 11.0800166-17.0300298 23.2700191-16.1398931z" fill="#f569f9"/></g><g><path d="m128.2772369 77.6912537c-.0200195 1.5700684-.1900024 3.130127-.4800339 4.6801758-1.3299561 7.0898438-5.1999512 13.869873-9.6399536 19.5898438-4.2700195 5.5100098-9.3200073 10.2700195-14.7700195 14.5600586-4.3099976 3.3898926-8.8699951 6.4899902-13.4799805 9.4299316-.5300293.3400879-1.0700073.6799316-1.6100464 1.0200195-4.5599976 2.170166-9.0299683 3.2800293-13.0899658 2.8300781-2.5700073-.2800293-4.9500122-1.2199707-7.1799927-2.5400391 5.9199829-2.8000488 11.5099487-6.5700684 16.8299561-9.9499512 8.460022-5.380127 16.6600342-11.3000488 23.3099976-18.8701172 7.1500244-8.1298828 13.8300171-19.5698242 7.3300171-29.9199219-5.8300171-9.2800255-14.5899658-17.300045-21.8200073-25.4999962-2.539978-2.8798828-1.0299683-6.5900879 1.5100098-8.0400391.3900146.4599609.7800293.9299316 1.1600342 1.3901367 9.289978 11.1599121 18.5699463 22.3198242 27.8499756 33.4799767 1.539978 1.8498535 3.1300049 3.7900391 3.789978 6.1599121.1500167.5500489.2499923 1.1198732.2900313 1.6799318z" fill="#dc05e2"/></g><g fill="#202020"><path d="m126.3163757 69.2325211c-29.227417-35.049015-32.6340485-39.150692-36.482605-43.3366699-6.7489624-7.4580079-13.4395751-13.0244141-19.8762207-16.3728028-3.2058716-1.6750493-6.3005981-2.8540044-9.1561279-3.603272-2.8554688-.7495117-5.4423828-1.1479492-7.7438354-1.4169922-4.6085816-.5017089-8.088562-.5334472-10.7216187-.5698242-2.6034546-.1140137-4.3891602-.1569824-5.6164551-.140625-2.4545288.0307617-2.6660767.2810059-2.6934814.560791-.0273438.2797852.1245728.5620117 2.5612793 1.0187988 1.2184448.2275391 3.0097656.5031738 5.6369629.8352051 2.605957.2507324 6.0410767.4870605 10.4501953 1.1499023 2.1990967.3476563 4.6416016.8132329 7.2817383 1.5896001 2.6362915.7753906 5.4472046 1.9294434 8.3994141 3.5493164 5.9155273 3.2382813 12.1754761 8.5627441 18.6968384 15.9189453 3.8108139 4.2309265 4.3983536 5.1132088 36.1292725 43.3842773 3.2488708 3.9539413 4.5644379 6.6674423.9401855 14.6992188-.8361206 1.8356934-1.8101196 3.6745605-2.9058838 5.4914551-7.3880768 12.3997269-21.659111 27.9202423-35.0635986 33.8105469-10.2503357 4.4998703-16.2082748 1.8863449-24.1611938-5.7402344-6.306427-6.1169128-27.6423492-27.9869766-47.7254028-50.0166016-2.0783081-2.3146973-3.8867188-4.6115723-4.6277466-7.3491211-.8807373-2.8254395-1.4134521-5.7556152-1.7549438-8.6662598-1.307101-10.9591216-.5290138-22.7672728-1.2088625-32.6474608-.0778198-1.2487793-.1828613-2.3969727-.1831665-3.5268555-.013916-1.1328125.067688-2.2370605.2420654-3.2949219.3380737-2.1142578 1.1289063-4.0422363 2.3577271-5.513916 1.2056274-1.4992681 2.8266602-2.502686 4.4625854-3.1960454 1.6564941-.6723633 3.3405762-1.0517578 4.9344482-1.2895508 3.2003784-.4538574 6.0351563-.4301758 8.3386841-.3835449 4.6176147.1381836 7.1860352.3393555 7.1994019.1772461.0068359-.0688477-.6237183-.2045898-1.8338623-.3876953-1.2104492-.1806641-2.9995728-.420166-5.3233032-.609375-2.3215942-.1784668-5.1891479-.3395996-8.5348511.0019531-1.6687012.1843262-3.4619751.5151367-5.2946167 1.1884766-1.8099365.6945801-3.6974487 1.7687988-5.1572266 3.4729009-1.4838257 1.6713867-2.4528198 3.894043-2.8862915 6.2248535-.2249146 1.1691895-.3424683 2.3742676-.3587646 3.5930176-.0297852 1.2219238.0543823 2.4667969.098938 3.6513672.4513621 9.9764404-.5705119 21.6124954.573059 32.8317871.3040161 3.0151367.8048096 6.0964355 1.7088013 9.1696777.397583 1.5808105 1.1837158 3.1928711 2.0812378 4.5751953.9069214 1.4052734 1.9534912 2.6743164 3.0098267 3.8862305 18.7524853 21.1826859 40.0702972 43.5794144 47.3286133 50.7458496 9.0369873 8.7932358 16.4809494 11.7272873 28.2467651 6.6779709 14.393692-6.2355728 29.2557144-22.2593079 37.0305176-35.3012619 1.1560669-1.9189453 2.1989136-3.8815918 3.1150513-5.8950195 4.2776336-9.5395661 2.7286224-13.739563-1.5135499-18.9465332z"/><path d="m20.3321228 18.2632828c-1.1630859 1.1713867-1.6517334 2.5866699-1.8990479 3.8012695-.2611084 1.2446289-.1950684 2.3366699-.1366577 3.3479004.1681519 1.8256836.600647 3.423584 1.1177979 4.8789063 3.0488434 8.4359741 10.2309704 11.231163 16.2009277 9.3701172 1.7973633-.6162109 2.5579834-1.2949219 2.8612061-1.7412109.3079224-.4462891.1894531-.6867676.0449829-.9277344-.1445313-.2409668-.3217163-.4494629-.8034668-.4643555-.4726563-.0095215-1.265625.1635742-2.7108765.3186035-7.557951.592804-11.9218254-4.4911118-12.6540527-11.795166-.1436768-1.4667969.0522461-3.1826172.8076172-3.9743652 4.2563896-4.6273651 22.1081543 1.4969826 19.4725952 10.2788086-.2539063.7304688-.5845337 1.4086914-.9884033 1.9836426-.3800049.5925293-.828186 1.0693359-1.197937 1.5170898-.4133301.416748-.7698975.7763672-1.0627441 1.0715332-.6164551.5671387-.9356689.9440918-.8627319 1.064209.072876.1201172.5372314-.0224609 1.3376465-.3947754.3964844-.1914063.8466187-.4897461 1.3828125-.8273926.4980469-.3913574 1.0854492-.8254395 1.6390991-1.4382324.5715942-.5900879 1.1071167-1.3510742 1.5571289-2.2612305 2.6713638-5.8720493-2.6604729-11.7752934-8.5139771-14.4450684-5.3061314-2.4573336-12.2497788-2.6615744-15.591919.6374512z"/><path d="m41.480011 59.2815933c-.4102783-1.112793-.5576782-2.0810547-.5914307-2.8608398-.065918-1.5700684.1672974-2.4069824.1236572-2.9223633-.0031738-.5075684-.2102661-.6899414-.4528809-.8310547s-.4849854-.2578125-.9624023.1169434c-.4243164.3825684-1.2264404 1.2983398-1.5817871 3.4453125-.1685791 1.0654297-.1735229 2.4321289.2398071 4.0537109 1.2475395 4.7278976 5.4735413 7.7519455 10.1026001 9.0192871 1.5021973.3908691 3.1950684.6472168 5.0945435.4472656.9558716-.1289063 1.9260254-.3178711 2.9723511-.814209 3.6759224-1.7721176 4.7503357-5.6082458 4.7539673-9.6901855.0024414-1.3049316-.0956421-2.6188965-.2287598-3.9240723-.3349037-3.5467453-3.0432587-14.3127556 4.4969482-14.3601074 4.1314774-.0950394 6.6969452 3.4525909 7.6323242 7.4440918.3640747 1.5456543.3435059 2.8427734.1844482 3.7172852-.15448.8769531-.3815308 1.3564453-.2408447 1.4499512.0858765.0673828.567688-.2722168 1.0211792-1.1955566.4539795-.9155273.7618408-2.4086914.6020508-4.2126465-.4830017-5.2773933-3.7389526-9.7820053-9.1161499-10.0817871-5.0829735-.3278427-9.8392906 3.3593674-8.8076172 13.7229004.1434326 1.3740234.2706299 2.572998.3527832 3.8520508.3660431 5.1457253.2384605 9.4426651-4.0884399 10.067627-1.2258911.1435547-2.4890747-.0092773-3.6361084-.2868652-2.3112793-.5749512-4.1876831-1.6503906-5.4812622-2.7414551-1.2613525-1.0871584-1.9571533-2.305176-2.388977-3.4152834z"/><path d="m68.7743835 64.897316c-1.2982178 1.0778809-2.6930542 2.236084-4.1305542 3.4296875-3.1115494 2.6728363-7.1961212 6.5408249-6.6047974 10.5783691.5355034 3.2446365 3.8628654 6.0029831 6.8100586 7.4335938 2.2480469 1.1008301 3.8453369 1.2050781 3.9014282.9536133.0838623-.2912598-1.2492065-.8896484-3.0731812-2.3054199-9.6980286-7.4356995-2.7094612-10.3106842 5.6606445-17.0327148 3.5331802-2.9011459 7.3876572-7.3166466 12.3193359-6.2998047 1.0847778.2736816 1.9450073.7246094 2.5630493 1.1757813.6240234.4553223 1.007019.9064941 1.2939453 1.2841797.5111694.7695313.715271 1.295166.9116211 1.6044922.2156372.3139648.4764404.4040527.7530518.4499512.2766724.0461426.5424805.0839844.8255005-.3046875.1504517-.1958008.2896729-.5021973.3458252-.9887695.0769043-.4819336.0397339-1.1464844-.2166748-1.9577637-.5252075-1.5878906-2.1202393-3.7580566-5.4453125-4.8713379-6.5076979-1.9268-11.3392256 2.8675192-15.9139403 6.8508299z"/><path d="m78.1567688 79.0374527c.8303833.2021484 1.4286499.1865234 1.8359375.0969238.8212891-.201416.9180298-.7021484 1.0189819-1.2548828.1009521-.5524902.1443481-1.0649414-.3638306-1.5493164-.4904175-.532959-1.5655518-.9272461-3.451355-2.1132813-1.0342407-.6425781-2.6279297-1.7490234-3.8625488-2.9621582-1.2519531-1.1782227-2.1517334-2.4277344-2.7017212-2.2634277-.524353.1433105-.5720825 1.8962402.3102417 3.8676758.4337158.9726563 1.0751343 1.9699707 1.807373 2.8112793.723999.8518066 1.557251 1.5117188 2.2366333 1.9675293 1.2592775.8110352 2.3382569 1.2089844 3.1702882 1.3996582z"/><path d="m81.3835754 82.3465347c-9.416214 9.5406189-8.3107529 18.0883484-4.538208 21.5117188 5.0236816 4.6677704 13.3442383-.1704636 18.3063965-4.8361816 2.7700806-2.611084 3.8458252-4.7397461 3.6438599-4.8740234-.2491455-.1953125-1.7302856 1.5532227-4.6536255 3.6520996-3.9662094 2.8442993-11.6838989 7.3578796-15.1243896 3.7871094-.7384644-.7514648-1.1942139-1.8466797-1.3742065-3.0429688-.7266235-5.104332 2.8124084-9.7680664 6.5302734-13.3457031 3.4714279-3.3588715 8.7937012-7.0691986 13.6478882-6.6208496 2.4143677.286377 3.2148438 1.458252 3.4986572 3.1955566.3592224 2.6119232-.6151505 5.7060776-1.583252 8.1645508-.7085571 1.7768555-1.1393433 2.7006836-1.2357178 3.2753906-.1147461.5646973.0706177.7646484.2943726.9348145.2238159.170166.4573364.3049316.9908447-.0068359.5142212-.3237305 1.3717041-1.079834 2.5150757-2.8935547 2.636879-4.2346954 4.2321014-10.5659485.9138794-14.2724609-1.2518921-1.3710938-3.1149292-2.1447754-4.8809814-2.354248-6.1969147-.7592318-12.6135636 3.3586805-16.9508668 7.7255857z"/></g></g></svg>