<svg id="Layer_1" enable-background="new 0 0 135 135" height="512" viewBox="0 0 135 135" width="512" xmlns="http://www.w3.org/2000/svg"><g><g><path d="m129.1128693 54.0317001c-.3300171 1.5898438-.8099976 3.1401367-1.1699829 4.5-1.4100342 5.3701172-3.3200073 10.6103516-5.6900024 15.6401367-2.25 4.7900391-5.1800537 11.3798828-10.1300049 14.0097656-5.75 3.050293-14.0599976 3.1801758-20.4100342 3.4799805-7.4699707.3701172-14.9400024.1000977-22.4099731.1000977-5.8100014.0102539-11.7100258-.1196289-17.2300453-1.8999023-1.1999512-.3798828-2.4499512-.8500977-3.6799927-1.3999023-4.4199829-1.9702148-8.6099854-5.0800781-9.4899902-9.8901367-.4500122-2.4599609-.8999634-4.9199219-1.3499756-7.3798828-.7700195-4.2299805-1.5400391-8.4599609-2.3099976-12.6899414-.6199951-3.4101563-1.25-6.8203125-1.8699951-10.2299805-.2700195-1.5102539-.8200073-2.9501953-.960022-4.4902344-.1199951-1.3598633-.0700073-2.1298828.4500122-2.5200195.3699951-.2797852.9799805-.3598633 1.9199829-.3300781 6.5800171.2104492 13.1799927.2001953 19.7600098.3500977 13.3800087.2802734 26.7700233.6699219 40.1500282 1.1103516 7.289978.2397461 14.5699463.5 21.8599854.7695313 1.1400146.0400391 2.2799683.090332 3.4199829.1303711 2.6199951.1000977 5.4700317.2900391 7.4299927 2.0297852 2.5100097 2.2299802 2.3900145 5.5400388 1.7100219 8.7099606z" fill="#be1e2d"/></g><g><path d="m58.7874832 111.5754318c-2.8204193-6.2448654-12.3941498-3.2681808-12.8374977 2.8558197-.3410492 4.7109909 4.6039886 7.8729782 8.8255997 6.4238586 3.5867462-1.2311858 5.5726547-5.8219985 4.011898-9.2796783z" fill="#808285"/></g><g><path d="m111.5662079 111.5754318c-2.8204193-6.2448654-12.3941498-3.2681808-12.8374939 2.8558197-.3410568 4.7109909 4.6039886 7.8729782 8.825592 6.4238586 3.5867462-1.2311858 5.5726548-5.8219985 4.0119019-9.2796783z" fill="#808285"/></g><g><path d="m116.5528717 43.1615829c-16.5599976 2.4501953-33.1000366 4.7700195-49.710022 6.8203125-13.2700233 1.6499023-24.3499794 9.1201172-29.2899818 21.2099609-.7700195-4.2299805-1.5400391-8.4599609-2.3099976-12.6899414-.6199951-3.4101563-1.25-6.8203125-1.8699951-10.2299805-.2700195-1.5102539-.8200073-2.9501953-.960022-4.4902344-.1199951-1.3598633-.0700073-2.1298828.4500122-2.5200195.3699951-.2797852.9799805-.3598633 1.9199829-.3300781 6.5800171.2104492 13.1799927.2001953 19.7600098.3500977 13.3800087.2802734 26.7700233.6699219 40.1500282 1.1103516 7.2899781.2397461 14.5699463.5 21.8599854.7695312z" fill="#d32d41"/></g><g><path d="m129.1128693 54.0317001c-.3300171 1.5898438-.8099976 3.1401367-1.1699829 4.5-1.4100342 5.3701172-3.3200073 10.6103516-5.6900024 15.6401367-2.25 4.7900391-5.1800537 11.3798828-10.1300049 14.0097656-5.75 3.050293-14.0599976 3.1801758-20.4100342 3.4799805-7.4699707.3701172-14.9400024.1000977-22.4099731.1000977-5.8100014.0102539-11.7100258-.1196289-17.2300453-1.8999023-1.1999512-.3798828-2.4499512-.8500977-3.6799927-1.3999023.1700439-2.840332 2.6100464-5.7700195 6.25-5.0302734 7.6150856 1.5476074 15.1353951 1.0393524 22.8214149.8491211 10.0248184-.2481537 20.8918839-3.1214523 29.7807846-7.7956238 7.705101-4.0516739 13.2184525-10.8516617 15.1378555-19.3933411.789978-3.5297852 4.1699829-4.2299805 6.7299805-3.0600587z" fill="#af1023"/></g><g><path d="m25.1636581 22.4352055c-1.8402081-5.2524567-14.3716297-12.7316561-19.015583-6.9266777-1.3092694 1.6375809-.8808422 4.1190948.4063826 5.7731495 1.2872248 1.6540565 3.234386 2.673645 5.1193919 3.6429062 1.2345533.6348019 2.4691048 1.2696037 3.7036562 1.9044056 2.981082 1.5328598 7.1760378 2.8588085 9.2728243.2890778 1.0465006-1.2825471 1.0564303-3.1326963.513328-4.6828614z" fill="#d1d3d4"/></g><g fill="#202020"><path d="m58.7525864 110.6828308c-.0425415-.1342773-.0894165-.2822266-.140564-.4433594-.0734863-.1503906-.1716919-.3051758-.2745972-.4770508-.109314-.1708984-.2258911-.3530273-.3493652-.5458984-.1333008-.1884766-.3218384-.3452148-.5021362-.5327148-1.4224854-1.5727539-4.6866455-2.3754883-7.7269287-1.2397461-3.7817307 1.3594437-5.9722023 4.8233948-5.6525879 8.2353516.1310425 1.8642578.9694824 3.6274414 2.1356201 4.8193359 1.1508789 1.2202148 2.5324707 1.9741211 3.8098755 2.3564453 6.5837517 1.971611 11.9348984-4.0245361 10.678894-9.4287109-.3013916-1.1875-.7825928-1.6831055-1.1040039-1.8745117-.3342896-.190918-.5823364-.090332-.8391724.0234375-.256897.1137695-.4909058.2514648-.6355591.5581055-.1513062.3051758-.1773071.765625-.2896118 1.5488281-.7388916 4.4879684-3.774807 6.1382446-6.6345825 5.2739258-1.4042969-.394043-3.1209717-1.6889648-3.3873901-3.6479492-.1713867-.9916992.0337524-2.0219727.5874023-2.9575195.5519409-.9355469 1.4589233-1.7368164 2.4649048-2.2597656 2.0349121-1.0708008 4.3192139-.9692383 5.6275635-.1499023 1.3618164.7685547 1.9693604 1.7900391 2.2672729 1.6342773.1278687-.0571291.1163941-.3583986-.0350341-.8925783z"/><path d="m111.5312729 110.6828308c-.0424805-.1342773-.0894165-.2822266-.140564-.4433594-.0734253-.1503906-.1716919-.3051758-.2745361-.4770508-.109314-.1708984-.2259521-.3530273-.3494263-.5458984-.1333008-.1884766-.3218384-.3452148-.5021362-.5327148-1.4224854-1.5727539-4.6866455-2.3754883-7.7269287-1.2397461-5.9669342 2.1449814-7.4087219 9.0771179-3.5169067 13.0546875 1.1508789 1.2202148 2.5324707 1.9741211 3.8098145 2.3564453 6.5839233 1.971611 11.9347229-4.0243454 10.6789551-9.4287109-.3014526-1.1875-.7826538-1.6831055-1.1040649-1.8745117-.3342285-.190918-.5823364-.090332-.8391724.0234375-.256897.1137695-.4909058.2514648-.6355591.5581055-.1513062.3051758-.1773071.765625-.2895508 1.5488281-.3484421 2.116394-1.31987 4.1552048-3.2412109 5.0717773-.8687134.4003906-2.0993652.5932617-3.3934326.2021484-7.8345566-2.1983643-.7379456-12.7917862 5.2924805-9.0151367 1.3618774.7685547 1.9693604 1.7900391 2.2672729 1.6342773.1278685-.0571289.1164549-.3583984-.0350343-.8925781z"/><path d="m25.0953598 21.3034325c-.2218628-.6728516-.6973877-1.5947266-1.4707642-2.5761719-1.5440674-1.9609375-4.1780396-4.2602539-7.7664785-5.8046875-1.7981567-.7363281-3.8696899-1.340332-6.2151489-1.1132813-6.062499.6275511-8.0671072 6.8653393-4.2737432 11.1625977 2.230731 2.533432 9.6116486 5.9072456 10.2581787 6.1884766 1.9295645.8276367 3.7884512 1.3193359 5.6128531 1.2773438.9059448-.0292969 1.8045654-.1855469 2.5999146-.5639648.4714966-.2246094.8969727-.5019531 1.2623291-.8076172.7357788.5083008 1.4896851 1.0673828 2.2228394 1.7290039.8547974.7939453 1.6272583 1.7412109 2.1641235 2.9125977.5427246 1.1733398.880127 2.5390625 1.1442261 4.0224609 3.3119507 19.8881187 3.6110382 21.7751045 6.8189697 40.498539.6629524 4.6316223 3.6214066 7.8188858 7.6127319 10.1894531-1.0477295.3081055-2.2841797 1.0483398-3.234375 2.4106445-2.6912193 3.7986145-.6748009 10.3652267 6.7287598 12.9360352 3.0097046 1.0322266 6.170105 1.277832 9.2160034 1.5678711 14.2894745 1.3880692 29.8158035.7011871 44.0428467-.7529297 4.5574341-.4746094 7.6208496-.9077148 9.6846313-1.2753906 4.1248169-.7431641 4.2446289-1.2666016 4.1938477-1.8261719-.0509033-.5605469-.2645264-1.0507813-4.4522705-1.0419922-2.0932007.0004883-5.1797485.1362305-9.7307129.4033203-13.6078568.7737808-28.9140625 1.8408356-43.5057373 1.1245117-3.0536499-.1362305-6.0296021-.2368164-8.5848389-.9462891-8.4181328-2.3501053-8.3426285-10.2973099-3.3068237-11.9633789.0227051-.0068359.0395508-.0087891.0618286-.015625.2745972.1464844.5454712.3022461.8230591.4399414 2.2669067 1.0996094 4.6173706 1.9633789 7.1028442 2.5805664 4.9563599 1.2207031 10.0564575 1.3564453 15.017334 1.3945313 4.9252319.0327148 9.8896484.1816406 14.8667603.1889648 2.4875488.0053711 4.9776001-.0292969 7.4608765-.128418 2.4435425-.1030273 4.8930664-.1738281 7.3621826-.3515625 2.4644165-.1713867 4.9380493-.4458008 7.3934326-.9506836 2.4545898-.5195313 4.8903198-1.2407227 7.2041016-2.5361328 1.2001953-.6708984 2.2393799-1.5195313 3.1425781-2.4287109.9087524-.9082031 1.711731-1.8730469 2.409668-2.8666992 1.4151611-1.980957 2.520752-4.0356445 3.5176392-6.0390625 5.4814529-11.1036682 9.2053299-23.5200119 9.0757523-28.0952187-.0218811-6.5563049-4.9535675-8.7192078-11.5238724-8.980957-21.3880157-.7368469-52.0422974-1.7715225-73.3890381-1.5844727-10.4830322.1030273-13.1461792.4501953-13.8161621.8588867-.2165527-1.0668945-.4302979-2.1152344-.6377563-3.121582-.3352661-1.5258789-.7600098-3.0126953-1.4421387-4.3291016-.6784668-1.3242188-1.6465454-2.3945313-2.6228027-3.2055664-.7807617-.6308594-1.5470581-1.1445313-2.2820435-1.5966797.857605-1.090332 1.0515747-2.2314453 1.0670776-3.0175781-.0252686-1.6923828-.5614624-2.3759766-.8695068-2.6938477-.3476563-.3066406-.6102905-.2304688-.8747559-.1401367-.2672119.0908203-.5050049.2138672-.6491089.5771484-.1654053.3496094-.1826782.9975586-.4641724 1.9003906-.1530151.4414063-.3723145.8979492-.8010864 1.2280273-.434082.3549805-.9655762.5952148-2.010498.5444336-1.0216064-.0473633-2.4187622-.4331055-3.9835205-1.1674805-7.7848196-3.6153278-14.0756035-9.0532894-7.1484365-10.3632813 1.4545898-.2773438 3.1837158-.0063477 4.7603149.4716797 3.1936026.9936523 5.8971548 2.746582 7.6079702 4.1928711 1.7536011 1.4472656 2.4111328 2.7016602 2.6885376 2.6162109.120911-.0375975.1537479-.4531248-.0684201-1.1318357zm10.9159546 35.2373047c1.1348267.2421875 2.805481.5185547 4.8948975.7871094 2.7472534.3510742 6.2235107.6704102 10.1071167.9013672.5893555 5.0214844 1.397644 10.2661171 2.1297607 14.1064491-6.541626.4267578-11.7406616.8310547-13.8100586 1.2080078-.64217-3.3101273-2.6799164-13.7461739-3.3217163-17.0029335zm67.3814087 1.2167968c.9406738 4.0561523 1.9553833 8.2944374 2.8064575 11.6914101-3.6400757.1523438-8.0435181.3579102-13.3467407.6166992-.9138184-3.4697266-2.1204224-7.7460976-3.3433228-11.8139687 3.0124359-.0892829 6.7541046-.197277 13.883606-.4941406zm-14.631897 12.5136757c-3.715271.1923828-8.0366211.4296875-12.5620728.6865234-.7437134-3.4575195-1.796936-7.9409218-2.9056396-12.3447304 4.5223999-.0527344 8.9345093-.1557617 12.9286499-.2666016.7990112 4.0747071 1.7183228 8.3735391 2.5390625 11.9248086zm-16.6575317.9213867c-4.4851227.2588654-9.6062012.5606461-14.8648682.8823242-.7388306-3.6640625-1.8074951-8.7441444-2.8502197-13.6718788 5.0491142.2169952 10.3975067.2653999 15.4697266.2392578.7245483 4.4414063 1.5407714 8.9902382 2.2453613 12.5502968zm-23.7952271 15.569336c-4.1217766-1.9456253-7.4099541-4.5727768-8.1616821-9.0249023-.230835-1.1904297-.4596558-2.3696289-.6867676-3.5405273 2.1966553.3041992 7.5220947.5219727 14.1782837.6147461 1.6088257 7.8168945 2.8201294 11.8452148 3.6465454 13.90625.1288452.3134766.2479858.5703125.3623047.7988281-.9487915-.1391602-1.8896484-.3022461-2.8147583-.5141602-2.2444458-.5136719-4.4680786-1.2871094-6.5239258-2.2402344zm11.7468872 3.0473633c.072998-.3847656.0944214-.9321289.0326538-1.7514648-.1417847-2.1254883-.861084-6.0024414-2.2941895-13.2060547 4.9721184.0340576 10.0937042-.0046616 15.0457764-.0869141 2.1564941 10.1914063 3.3220215 13.9643555 4.1586914 15.3041992-2.6271362.0024414-5.2528076.0053711-7.8757324.0078125-3.0703125.024414-6.1117553.0043945-9.0671997-.2675781zm31.2259522.0380859c-2.4163818.1245117-4.8554077.1884766-7.3096924.2143555-1.6511841.0014648-3.309082.003418-4.9643555.0048828.3994141-1.1831055.1362915-4.6508789-2.0349121-15.3808594 4.6351929-.1015625 9.0283203-.2402344 12.7557983-.3989258 2.6320801 10.5126953 3.9519043 14.1879883 4.8511963 15.3901367-1.0924072.0581055-2.1912841.1108399-3.2980346.1704102zm14.1298828-1.3774414c-2.2058105.4760742-4.5188599.762207-6.8841553.9511719-.6636963.0551758-1.3432007.0908203-2.0166626.1333008.4053955-1.1279297.0504761-4.4995117-2.6383057-15.4643555 5.3218384-.2705078 9.7081909-.5419922 13.3113403-.8061523 1.8598633 7.1181641 2.9423828 10.8408203 3.7553711 12.7436523.0707397.168457.1359253.3022461.2022705.4433594-1.6801147.9067382-3.6727294 1.5512695-5.7298583 1.9990234zm13.4898071-11.8930664c-1.3595734 2.7814713-3.0341873 5.8308334-5.2294922 8.0117188-.227417-2.1279297-.8859863-5.6879883-2.3765869-11.6308594 2.7069321-.2334061 7.1848831-.6598587 9.835144-1.1806641-.7000732 1.5786133-1.4387206 3.171875-2.2290649 4.7998047zm3.2768555-7.2524414c-.6177368-.0864258-1.4573975-.1484375-2.6219482-.1777344-1.9945068-.0581055-4.9260864-.0107422-9.2149658.1411133-.90979-3.3271484-2.2067871-7.5878944-3.5789185-11.6752968 11.3692017-.5097656 16.9743042-.9775391 19.7164307-1.4448242-.0836182.3046875-.166748.6079102-.2548828.9248047-1.1258622 4.1318016-1.9892503 7.248867-4.0457154 12.2319374zm-2.2988892-24.010746c4.156517.1202087 7.561264.7647285 7.6066895 5.0493164.0361938 1.0458984-.1409302 2.2128906-.4074097 3.4257813-2.5645752-.3476563-8.3981934-.4609375-21.6796875-.1054688-1.4443359-4.0297852-2.8380127-7.4560547-3.7195435-9.0625 2.8702012.1050033.3541489.0102119 18.1999512.6928711zm-19.1374511-.7270508c.1037598 1.6040039.8208008 5.0864258 1.7380981 9.1787109-2.6323242.0776367-5.5205078.1713867-8.699585.2832031-1.6762085.0507813-3.5283203.1230469-5.4996948.2080078-1.7776489-5.6357422-3.3821411-10.0522461-3.9064941-9.921875-.5076904.1264648.0873413 4.4936523 1.0974731 10.0478516-4.0704346.1889648-8.5440674.4169922-13.1014404.6323242-1.3085327-4.996582-2.5933838-9.4550781-3.4437866-11.5883789 14.4577102.5201149 1.3201217.0422364 31.8154297 1.1601563zm-32.8258057-1.1967774c.0296631 2.1303711.6052856 6.659668 1.3897705 11.7670898-5.116745.2306557-10.3958054.4385719-15.4907227.5366211-.1219482-.5751953-.242981-1.1464844-.3615723-1.7060547-1.2312622-5.7456055-2.291687-10.5009766-2.8974609-11.2548828 4.5430909.1884766 10.2316285.3994141 17.3599854.6572266zm-21.3266602-.8300781c1.1333008.0522461 2.3668213.105957 3.6907959.1611328-.4187012.7504883-.257019 5.7133789.3275146 11.7070313.0411987.4326172.0852661.8710938.1310425 1.3129883-3.7202759.0419922-7.0551147.027832-9.7246704.0053711-2.2340698-.0209961-4.0030518-.0366211-5.1586914 0-1.0262451-5.2060547-1.9806519-10.0283203-2.8617554-14.3823242.9075928.3886718 3.8919678.7607421 13.5957642 1.1958007z"/></g></g></svg>