<svg id="Layer_1" enable-background="new 0 0 135 135" height="512" viewBox="0 0 135 135" width="512" xmlns="http://www.w3.org/2000/svg"><g><g><path d="m82.341362 124.8632736c-.5900269 1.6601563-2.4100342 2.4902344-4.0900269 3.0102539-4.7299805 1.4999924-9.75 2.0297775-14.6900063 1.5800705-1.8899536-.1801758-3.8099976-.5205078-5.539978-1.2802734-.6099854-.2700119-1.2000122-.5898361-1.75-.9799728-1.8499756-1.2998047-3.4699707-3.7001953-3.2000122-6.0600586.2000122-1.8798828 2.4800415-3.7900391 3.8800049-5.0097656.7700195-.6801758 1.5900269-1.340332 2.1400146-2.2099609 1.039978-1.6601563.539978-4.6801758.5700073-6.5800781.0499878-2.7099609.0999756-5.4199219.1499634-8.1201172.1000366-5.3100586.2000122-10.6201172.3000488-15.9301758.3899536-20.8100586.7799683-41.6196289 1.1699829-62.4399414.0700073-3.6396484.1799927-7.4399405 1.9400024-10.6298819 1.7600136-3.1801758 5.7199745-5.4702148 9.0899696-4.0898438.9000244.3696289 1.6500244.9399414 2.2800293 1.6396484 1.5200195 1.7099609 2.3200073 4.2001953 2.8099976 6.5200195 2.0299683 9.7202139 1.5999756 19.7700195 1.1599731 29.7001953-.3800049 8.5297852-.7799683 17.0600586-1.2099609 25.6000977-.4299927 8.6098633-.8800049 17.2299805-1.2999878 25.8496094-.2300415 4.6801758-.4500122 9.3603516-.6700439 14.0302734-.0700073 1.6499023-.7799683 4.2099609-.3999634 5.7797852.4400024 1.7602539 3.1999512 3 4.539978 3.9702148 1.840027 1.3198233 3.5700075 3.5097647 2.8200075 5.6499014z" fill="#c2b59b"/></g><g><path d="m68.8513718 70.4433517c-.0400391 12.3398438-.5700073 25.0200195-2.2600098 37.2397461-.7800293 5.6000977-2.3500366 11.0205078-5.2600136 15.8901367-.9699707 1.6401367-2.1799927 3.090332-3.3099976 4.60009-.6099854-.2700119-1.2000122-.5898361-1.75-.9799728-1.8499756-1.2998047-3.4699707-3.7001953-3.2000122-6.0600586.2000122-1.8798828 2.4800415-3.7900391 3.8800049-5.0097656.7700195-.6801758 1.5900269-1.340332 2.1400146-2.2099609 1.039978-1.6601563.539978-4.6801758.5700073-6.5800781.0499878-2.7099609.0999756-5.4199219.1499634-8.1201172.1000366-5.3100586.2000122-10.6201172.3000488-15.9301758.3899536-20.8100586.7799683-41.6196289 1.1699829-62.4399414.0700073-3.6396484.1799927-7.4399405 1.9400024-10.6298819 1.7600136-3.1801758 5.7199745-5.4702148 9.0899696-4.0898438.9000244.3696289 1.6500244.9399414 2.2800293 1.6396484-9.3500364 19.140134-5.6900022 41.8701164-5.73999 62.6801749z" fill="#d6c9b0"/></g><g><path d="m110.7313766 34.2231369c-2.7800293 3.6303711-5.1500244 8.0302734-9.3600464 10.1303711-2.2299805.9697266-4.7299805 1.0297852-7.1599731 1.0898438-9.4299927.2099609-18.8599854.4199219-28.289978.6298828-8.9600258.2001953-17.9200478.3999023-26.8900185.6000977-.2900391.0097656-.5900269.0097656-.8800049.0200195-2.2399902.0498047-4.5999756.0698242-6.5499859-1.0297852-3.3200073-1.8603516-4.2600098-6.2304688-4.0700073-10.0400391.0999756-2.1103516-.25-4.380373.0899658-6.3901386.2700195-1.6298828.9900513-3.0898438 2.7700195-4.1499023.9899902-.590332 2.0800152-.9599609 3.2100201-1.1899414 1.5199585-.3100586 3.1300049-.3701172 4.6900024-.4204102 15.0899658-.4799805 30.1799965-.9599609 45.2699623-1.4399414 5.6900024-.1796875 11.5500488-.3295898 16.8400269 1.7700195.3200073.1298828.6400146.2602539.9500122.4101563 2.5700073 1.1601563 4.8999634 2.7998047 7.1399536 4.5600586.6200562.4897461 1.2300415.9897461 1.8400269 1.4897461.5700073.4702148 1.1900024 1.0102539 1.2999878 1.7500019.1199951.8100586-.4099731 1.5600586-.8999634 2.2099609z" fill="#ec008c"/></g><g><path d="m110.6813278 76.3432541c-2.6099854 1.3701172-5.789978 1.4902344-8.8299561 1.5703125-16.8500366.4697266-33.7000122.9399414-50.5600014 1.409668-4.1600342.1201172-8.4000244.2202148-12.5-.2998047-2.1500244-.2700195-4.2600098-.7202148-6.2900391-1.4301758-2.8699932-1-5.459959-2.4799805-7.9299908-4.1201172-1.0700073-.7099609-2.1199951-1.449707-3.1599731-2.199707-.6400146-.4702148-1.3300171-1-1.4500122-1.7202148-.1400146-.7900391.4500122-1.5297852 1-2.159668l.0100098-.0102539c2.5499878-2.9199219 4.789978-6.3598633 8.1300049-8.6298828.7199707-.4902344 1.4799805-.9301758 2.3099976-1.2900391 1.169981-.4399414 2.3999615-.6899414 3.6499615-.8300781 1.4299927-.1699219 2.9000244-.2001953 4.3400269-.2299805 20.8699951-.4101563 41.739994-.8100586 62.6099892-1.2202148 2.5-.0498047 5.1300049-.0698242 7.3099976 1 1.0499878.5102539 1.9000244 1.2304688 2.5599976 2.0800781.9100342 1.1801758 1.4700317 2.6103516 1.7600098 4.1103516.1199951.5698242.1900024 1.1499023.2200317 1.7299805.0499878.6499023.0499878 1.2900391.0099487 1.909668-.2099611 3.7499999 1.2499999 7.9902342-3.1900026 10.330078z" fill="#00a79d"/></g><g><path d="m101.3513718 24.2133694c-13.2999878 2.8901367-26.7900391 4.9501953-40.3600502 6.0498047-6.5199585.5302734-13.6199951-.0200195-20.0099487 1.4301758-7.4500122 1.6899433-6.7900391 8.8999043-2.6900024 13.83008.3099976.3701172.5599976.7597656.7399902 1.1499023-.2900391.0097656-.5900269.0097656-.8800049.0200195-2.2399902.0498047-4.5999756.0698242-6.5499859-1.0297852-3.3200073-1.8603516-4.2600098-6.2304688-4.0700073-10.0400391.0999756-2.1103516-.25-4.380373.0899658-6.3901386 1.5100098-2.3901367 3.5800171-4.1201172 5.9800396-5.3398438 1.5199585-.3100586 3.1300049-.3701172 4.6900024-.4204102 15.0899658-.4799805 30.1799965-.9599609 45.2699623-1.4399414 5.6900024-.1796875 11.5500488-.3295898 16.8400269 1.7700195.3200073.129883.6400146.2602541.9500122.4101565z" fill="#ff15ab"/></g><g><path d="m110.7313766 34.2231369c-2.7800293 3.6303711-5.1500244 8.0302734-9.3600464 10.1303711-2.2299805.9697266-4.7299805 1.0297852-7.1599731 1.0898438-9.4299927.2099609-18.8599854.4199219-28.289978.6298828-.3800049-2.7299805 1.2199707-5.7597656 4.7699585-5.7197266 7.6199951.0795898 15.710022.449707 23.2800293-.6201172 5.6099854-.800293 11.3599854-5.8100586 14.5199585-10.9599628.6200562.4897461 1.2300415.9897461 1.8400269 1.4897461.5700073.4702148 1.1900024 1.0102539 1.2999878 1.7500019.119995.8100586-.4099732 1.5600586-.8999635 2.2099609z" fill="#e00391"/></g><g><path d="m111.88134 58.263176c-15.2000122 1.0200195-30.3900146 2.0200195-45.6199951 1.9404297-8.2792053-.0432663-16.642868-.3244858-24.8330917 1.1253395-4.054554.7177315-8.0722427 1.8664055-11.7309055 3.786068-1.5940857.8363953-3.3099041 1.7716217-4.7963047 2.7736053-1.0984974.7404938-2.8746605 3.7123642-4.4069786 2.9912109-.5964794-.2807236-.7871876-1.0828934-.5921021-1.7126007.5949879-1.9205322 2.7733707-3.8653336 4.0387115-5.3903694 1.5369244-1.8523598 3.157011-3.6616478 5.160696-5.0234489.7199707-.4902344 1.4799805-.9301758 2.3099976-1.2900391 1.169981-.4399414 2.3999615-.6899414 3.6499615-.8300781 1.4299927-.1699219 2.9000244-.2001953 4.3400269-.2299805 20.8699951-.4101563 41.739994-.8100586 62.6099892-1.2202148 2.5-.0498047 5.1300049-.0698242 7.3099976 1 1.0499877.5102538 1.9000243 1.2304687 2.5599974 2.0800781z" fill="#08bfad"/></g><g><path d="m110.6813278 76.3432541c-2.6099854 1.3701172-5.789978 1.4902344-8.8299561 1.5703125-16.8500366.4697266-33.7000122.9399414-50.5600014 1.409668-4.1600342.1201172-8.4000244.2202148-12.5-.2998047.3699951-2.1098633 1.9499512-3.9399414 4.7399902-3.8701172 13.9400024.3901367 27.8800087.1201172 41.8100014-.2202148 6.210022-.1499023 12.1099854-.2998047 18-2.4794922 4.8900146-1.8100586 7.9400024-4.6000977 10.5200195-8.3500977.0499878.6499023.0499878 1.2900391.0099487 1.909668-.2099608 3.75 1.2500002 7.9902343-3.1900023 10.3300781z" fill="#029687"/></g><path d="m78.6784668 80.3073654c26.4557724-.5057449 25.7666321-.5077744 27.6491089-.7177734 1.3609619-.1591797 2.7626953-.4506836 4.1292114-.9819336 3.2939301-1.3273239 5.1850891-3.6088562 5.4265137-7.0537109.0243149-.2804108.0263519-6.9910583.0223999-7.0942383-.046936-1.2480431-.2237549-2.4873009-.5704346-3.6918907-1.7399292-6.0397606-6.2880325-7.6756744-12.2321167-7.6362305-6.4154282.1265755-13.5446854.2686272-22.9957275.5092773.1008301-1.9882813.2044067-4.0307617.3117676-6.1479492 4.8911133-.1943359 8.6507568-.3798828 11.5378418-.5600586 2.2886963-.1484375 4.0560913-.2578125 5.4484863-.5 1.3826904-.2353516 2.3233032-.5688477 2.9264526-.8676758 1.2022095-.6308594 1.1421509-.965332 1.0402222-1.2075195-.1132202-.2744141-.3045044-.4267578-1.4761963-.3164063-.5913086.0405273-1.4330444.1162109-2.6993408.1240234-1.2561035.0141602-2.9909668-.0751953-5.303772-.1113281-16.5570221-.2930832-54.2060204.6906586-56.0330811.5996094-.9221191-.0439453-1.7852173-.1665039-2.5186157-.4287109-.7320557-.2592773-1.3337402-.668457-1.8718243-1.2368164-.8391113-.9082031-1.4385376-2.3193359-1.7207642-3.9467773-1.7085037-9.6980114.0727692-12.5215359 4.5111675-13.2846699 2.2376366-.4195023 1.5731544-.1776237 43.0263672-1.9804688 15.7360687-.5686684 20.4282227-2.162262 32.2192383 7.0175781.3494263.2709961.6559448.5063477.8805542.7373047.1812744.1826172.3103638.3730469.3605347.6093769.3524475 2.3799629-9.4295959 12.1170311-9.3742676 12.2172852.0263672.1040039 1.6847534-.3339844 3.8687744-2.3085938.7299881-.6574593 7.5934601-7.9930649 7.2468262-10.1660175-.0726929-.574707-.3796997-1.1303711-.7679443-1.565918-.3453369-.3920898-.7112427-.690918-1.0314331-.96875-3.9948349-3.4338474-7.7164764-6.2831993-12.786499-7.6391602-4.3867645-1.1965599-9.0977859-1.2197304-13.6416016-1.1435547-1.2683105.0229492-2.5501099.0463867-3.8396606.0698242-.1257324-1.1499023-.270874-2.3110352-.4597168-3.4951172-.6025009-3.7851505-1.3930817-7.8787565-3.9313965-10.7172842-.7628784-.84375-1.7504883-1.5947266-2.8775024-2.0678711-1.1387329-.4838867-2.4233398-.6738281-3.6304321-.5556641-2.4358521.2407227-4.5157471 1.4414063-6.1146851 3.0390625-3.1161003 3.1237335-3.7786217 7.6163511-3.9086914 12.019042-.010498.7304688-.0211792 1.4663086-.0317383 2.2001953-23.3155365.5243206-23.8060379.4896851-25.8996582.8588867-1.2677002.2177734-2.5800762.6010742-3.8026714 1.2583008-1.2142334.6538086-2.4358521 1.6772461-3.1810913 3.0107422-1.5864964 2.8190575-.957674 5.5403004-1.0943604 10.2680683-.0072021 1.1083984.0731812 2.2050781.258728 3.284668.3704834 2.1416016 1.1726685 4.2993164 2.7123413 5.9931641.961792 1.0507813 2.2250977 1.8828125 3.5166626 2.3286133 1.2901592.4550781 2.5439434.6000977 3.6913433.65625 1.2131348.0554466.6148872.0587807 17.1091919-.3554688 2.2330322-.0649414 4.3538818-.1259766 6.387146-.1850586-.0193481 2.0273438-.0386353 4.0380859-.0577393 6.0327148-7.7443237.2485352-13.3393555.4829102-17.3733521.7099609-2.5015869.1445313-4.434082.2568359-5.9401245.496582-1.4986572.2333984-2.5192871.5571289-3.1828613.8496094-1.3242168.6162109-1.2904644.9545898-1.1990337 1.2016602.1013184.2788086.2904053.4379883 1.5861797.3354492.6524048-.0375977 1.5875244-.109375 2.984375-.1176758 1.3893433-.0136719 3.2820435.0737305 5.8077393.1132813 5.0317383.0859375 12.4759521.0898438 23.4885254-.0224609 20.3238983-.2721558 17.1398544-.2139931 37.8521729-.5766602 4.0968323-.0415001 7.1333389.6041832 8.305542 4.703125.2436523.8339844.3847046 1.7524414.4256592 2.708004.2534714 7.0218658 1.1309128 10.2057343-6.0189819 11.1118164-1.8742065.2384796.525177.0868759-31.5987549 1.2602539-5.4000854.2089844-10.7802124.4169922-16.0343018.6201172-5.2527466.1713867-10.4030762.5327148-15.1864624.4316406-4.7974243-.0981445-9.2633667-.871582-13.031004-2.6733398-1.8977661-.875-3.6501465-1.9160156-5.2927856-2.9746094-.8215332-.5297852-1.616272-1.0649414-2.3890991-1.5922852-.3831787-.262207-.7852173-.5302734-1.0214233-.7353516-.1969604-.1650391-.3790894-.3730469-.4382935-.6289063-.0429077-.1870117-.0148926-.3828125.0551147-.5576172.0790405-.1914063.1404419-.300293.3224487-.5493164.3831787-.4804688.7566528-.9487305 1.1200562-1.4047852.7190552-.9389648 1.3981934-1.8251953 2.0340576-2.6552734 1.2578735-1.6474571 2.4146729-2.9848595 3.461792-3.9829063 2.1049194-1.9892578 3.6543579-2.6352539 3.5674438-2.8125-.0236206-.1010742-1.7355347.2753906-4.1437988 2.1450195-1.1902466.9326172-2.5054932 2.2382813-3.8886719 3.824707-.6831055.7880821-1.4126587 1.6303673-2.1852417 2.5219688-.3974609.4467773-.8059082.90625-1.2250366 1.3774414-.463623.5385742-1.0126953 1.4750977-.8445435 2.3720703.0969849.6147461.4628906 1.1674805.9367676 1.6157227.4373779.4140625.8075562.6650391 1.1846313.9545898.7553711.5678711 1.5393677 1.1479492 2.3596802 1.7275391 1.6402588 1.1577148 3.4279175 2.3217773 5.427124 3.3359375 1.9901733 1.0263672 4.2311993 1.8354492 6.5772686 2.3808594 2.3504639.5366211 4.8065186.8300781 7.3046265.96875 5.0132446.25 10.1231689.0185547 15.3807983-.0258789.2092285-.003418.4245605-.0073242.6342163-.0107422-.0253983 7.1339417-.0586166 21.6320267.1434937 28.8081055.0549927 1.9521484.1253052 3.2685547.2120361 3.8706055-.5250854.2353516-1.6350708 1.0361328-3.3270264 2.1264648-3.4855919 2.4315109-6.5737343 5.5262833-4.4637451 9.7583008.5457153 1.1313477 1.3754883 2.0913086 2.3621826 2.8515701 4.1733513 3.2124481 16.3456879 3.2858582 20.9529419 3.1118164 1.4406128-.0605469 2.9476318-.2006836 4.4238892-.7587891 5.1032562-1.846283 6.5525208-8.9199524 1.354248-13.771492-.9388428-.8378906-1.772583-1.3491211-2.4544067-1.7104492-1.0620728-.550293-1.765686-.7573242-2.2453613-.8178711 1.1715317-4.4037166 2.4830475-28.4575496 2.7913819-33.8154293zm-8.826416-72.6323213c4.9521942-.4195676 5.9637527 8.0384407 6.5119629 13.0356436-4.3618164.0878906-8.8037109.1772461-13.2651367.2670898.1366386-5.7998276.9640274-12.862545 6.7531738-13.3027334zm-4.647583 46.3486337c-1.0686646.0307617-2.0936279.0615234-3.0960693.0917969.0619507-1.9941406.1243896-4.003418.1873779-6.0302734 7.0443115-.2035027 8.7235031-.244976 14.0684204-.4389648-.0962524 2.0991211-.189209 4.1264648-.2796021 6.0981445-3.9642944.1015625-7.5857544.1948242-10.8801269.2792968zm12.979248 64.9999962c.5905151.7104492 1.2432861 1.6323242 1.5446167 2.7124023.5712051 1.9205246.1811295 4.1084595-1.9260864 4.8959961-.7906494.2939453-1.8731689.4331055-3.1602783.4799805-3.512291.1329041-15.7691307.4636459-18.9550781-1.5961914-.6829834-.4379883-1.2642822-1.012207-1.6446533-1.6381836-1.6936531-2.6949997.7780113-5.0451965 2.9205933-7.1923828 1.899292-1.7983398 2.8687744-3.2319336 2.6401367-3.4086914-.0142822-.0112305-.0446167-.0053711-.0673828-.0073242.1080933-.6259766.2278442-1.9106445.3574219-3.7915039.4939079-7.1689224 1.0511055-21.6935196 1.3167725-28.8623047 4.3302612-.0742188 8.7139893-.1489258 13.1287842-.2246094.2009277-.0039063.4020386-.0078125.6030273-.0117188-.1201859 3.0878448-1.396347 31.8581314-.2699585 34.4575195-.0581665.1806641-.0637207.3823242.0836182.652832.2047119.3999023.7526245.9233398 1.7387085 1.8193359.48822.4492189 1.080139.9985353 1.6897581 1.7148439z" fill="#202020"/></g></svg>