<svg id="Layer_1" enable-background="new 0 0 135 135" height="512" viewBox="0 0 135 135" width="512" xmlns="http://www.w3.org/2000/svg"><g><g><path d="m116.6108322 104.1355515c-.0299683.0898438-.0599976.1699219-.0999756.2597656-3.1199951 7.6801758-8.3500366 13.6601563-14.8099976 17.9604492-.0100098.0097656-.0100098.0097656-.0200195.0200195-3.2199707 2.1499023-6.7600098 3.8798828-10.5 5.1899414-9.460022 3.3295822-20.1799927 3.9897385-30.3699951 2.0400314-10.1300049-1.9399338-19.7299805-6.4604416-27.0499878-13.5302658-5.8800068-5.6699219-9.3099995-13.25-10.619997-21.1801758-.460022-2.7197266-.6600342-5.4897461-.6199951-8.2294922.4199829-29.050293 26.2799702-51.1601563 56.8799438-46.3100586 1.4000244.2197266 2.8200073.5 4.2400513.8398438 14.2999878 3.3901367 25.0799561 12.5200195 31.0499878 24.0297852 6.0599995 11.6904297 7.1499653 25.8300781 1.9199848 38.9101563z" fill="#ffefe1"/></g><g><path d="m63.4588547 40.0823288c-.3146362-6.7905273-.3240738-13.5942669-.0283241-20.3857098 5.6939049.0988808 11.8559303-3.7531309 16.6484947-.8220272 3.6718292 2.2456551 4.0593796 7.2184315 3.3254318 11.3165779-.7339554 4.0981445-2.1743622 8.3682098-.748642 12.2974091-5.1964721-3.6293945-11.8621216-3.8041992-19.1969604-2.40625z" fill="#e88418"/></g><g><path d="m69.1137009 79.6845398c-4.6874466-.7097549-5.0588531 6.7470016-3.1025314 9.782486 1.2833023 1.9912033 3.4072418 3.2180099 5.5819397 3.3722687 4.3795395.3106384 8.6818542-5.1662598 6.3710938-9.9669876-1.7253799-3.5845642-6.4270935-4.8453522-9.7272263-2.9316406" fill="#fff6f0"/></g><g><path d="m34.4608688 54.5154343-6.3600483 12.3300781c-3.6699829-.5297852-5.9199829-2.0200195-8.4500122-4.1401367-.5499878-.4599609-1.0999756-.949707-1.6899414-1.4599609-3.3100576-2.909668-4.1300039-8.7597656-.4300537-11.2099609 2.5400391-1.6796875 6.0599976-1.1098633 8.8400269.1801758.6599731.3100586 1.2999878.6601563 1.9400024 1.0200195 2.0200195 1.1596679 3.9600239 2.4697265 6.1500263 3.2797851z" fill="#f7941e"/></g><g><path d="m118.3408127 51.5056686c-1.1299438 3.0200195-3.5599976 5.3999023-5.9199829 7.6899414l-10.9599609-10.4101563c.5599976-.6699219 1.1299438-1.3500977 1.7099609-2 1.3500366-1.5097656 2.8200073-2.909668 4.6199951-3.8901367 2.5800171-1.409668 6.0100098-1.7597656 8.4200439-.1098633 1.4199829.9702148 2.2399902 2.4599609 2.5499878 4.1000977.2899781 1.5200196.1300049 3.1699219-.4200439 4.6201172z" fill="#f7941e"/></g><g><path d="m116.6108322 104.1355515c-2.9299927 5.0800781-6.6400146 9.8701172-10.9899902 14.3598633-1.289978 1.3300781-2.5900269 2.6201172-3.9199829 3.8603516-.0100098.0097656-.0100098.0097656-.0200195.0200195-3.2199707 2.1499023-6.7600098 3.8798828-10.5 5.1899414-9.460022 3.3295822-20.1799927 3.9897385-30.3699951 2.0400314 5.4899902-.5200195 10.9199829-1.4399414 16.2000122-3.1899338 8.0899658-2.6704102 14.4099731-7.7602539 20.3200073-13.7402344 11.7199707-11.8598633 19.3099976-25.8999023 16.1300049-43.0200195-.3400269-1.8198242.2199707-3.3398438 1.2299805-4.4301758 6.0599975 11.6904297 7.1499633 25.8300781 1.9199828 38.9101563z" fill="#f9e4d4"/></g><g><path d="m79.4008102 40.3557663c-.7999878.8100586-1.8899536 1.3598633-3.2999878 1.4399414-12.7999878.7797852-24.7600098 8.2099609-34.2000122 16.4697266-9.6699829 8.4501953-17.0499897 19.5302734-16.9199848 32.7602539.0200195 1.7900391-.7399902 3.0698242-1.8399658 3.8696289-.460022-2.7197266-.6600342-5.4897461-.6199951-8.2294922.4199829-29.050293 26.2799702-51.1601563 56.8799457-46.3100586z" fill="#fff6f0"/></g><g><path d="m93.3608322 16.7156277c-1.4299927 2.7099609-3.5599976 3.3798828-6.4099731 4.0600586-6.2600098 1.5097656-12.7800293 1.3901367-19.1799927 1.1899414-1.5100098-.0498047-2.75-.5-4.1800537-.7602539-.0499878-.0097656-.0999756-.0200195-.1499634-.0297852-1.1000366-.1801758-2.2800293-.1000977-3.4100342-.3100586-2.0299683-.3798828-4.0999756-.9399414-6.0299683-1.7202148h-.0100098c-.2700195-.1196289-.539978-.2294922-.8099976-.3496094-2.460022-1.1103516-4.2399902-4.0400381-3.0300293-6.3603506 1.0500488-2.0197754 7.2900391-6.6699224 9.6100464-7.0898442 10.789978-1.98999 18.4199829.0300293 29.0199585 2.7500005 1.3099976.3400879 2.6600342.7700195 3.6900024 1.6201172.1000366.0800781.2000122.1599121.2900391.25 1.8599855 1.7700195 1.7199708 4.6201171.5999757 6.749999z" fill="#f7941e"/></g><g><path d="m92.4708176 9.7156286c-.3200073 0-.6499634-.0200195-1-.0800781-13.0799561-2.1899419-28.75-1.4099121-37.4699707 9.5097647h-.0100098c-.2700195-.1196289-.539978-.2294922-.8099976-.3496094-2.460022-1.1103516-4.2399902-4.0400381-3.0300293-6.3603506 1.0500488-2.0197754 7.2900391-6.6699224 9.6100464-7.0898442 10.789978-1.98999 18.4199829.0300293 29.0199585 2.7500005 1.3099976.3400878 2.6600342.7700195 3.6900025 1.6201171z" fill="#f99f3d"/></g><g><path d="m28.3108425 51.2356491c-4.1300049 1.7998047-7.5999756 4.9897461-8.2399902 9.7900391-.0800171.5800781-.2200317 1.1499023-.4200439 1.6796875-.5499878-.4599609-1.0999756-.949707-1.6899414-1.4599609-3.3100576-2.909668-4.1300039-8.7597656-.4300537-11.2099609 2.5400391-1.6796875 6.0599976-1.1098633 8.8400269.1801758.659973.3100585 1.2999877.6601561 1.9400023 1.0200194z" fill="#f99f3d"/></g><g><path d="m118.7608566 46.8855515c-.3400269-.0698242-.6900024-.1298828-1.0400391-.1899414-3.2799683-.550293-8.2399902-1.6401367-11.4699707-.2602539-1.0700073.4599609-2.1199951.5400391-3.0800171.3500977 1.3500366-1.5097656 2.8200073-2.909668 4.6199951-3.8901367 2.5800171-1.409668 6.0100098-1.7597656 8.4200439-.1098633 1.419983.9702147 2.2399904 2.4599608 2.5499879 4.1000976z" fill="#f99f3d"/></g><g fill="#202020"><path d="m117.9362183 68.5205612c-1.2000122-3.0898438-2.75-6.0996056-4.6199951-8.9497032.3299561-.0400391.7699585-.2099609 1.4299927-.6401367.7600098-.5097656 1.8299561-1.3300781 3.1999512-2.9501953.6700439-.8095703 1.4200439-1.8496094 2.0500488-3.2397461 4.9569397-10.843338-8.9494705-19.0570908-17.4400024-6.4599609-.2800293.4301758-.5.7998047-.6799927 1.1401367-1.25-.9301758-2.5400391-1.8100586-3.8800049-2.6103516-3.9331818-2.5051384-9.4696274-4.6452026-13.9899902-5.7099609.0699463-.3300781.1299438-.7197266.1999512-1.1796875.2000122-1.4003906.3200073-3.4003906.8600464-6.290041.0699463-.3603516.1499634-.7402344.2299805-1.1298828.0800171-.4501953.1699829-.9204102.2299805-1.4101563.1300049-.9799805.2000122-2.0600586.1500244-3.2402344-.0599976-1.1699219-.2399902-2.4599609-.710022-3.8198242 1.0100098-.0698242 1.9799805-.1801758 2.8699951-.3901367 2.3099976-.4897461 3.9800415-1.7900391 4.6799927-2.8798828.7300415-1.0898438.8500366-1.7998047.7400513-1.8500977.25.1201172.5099487.2299805 1.0199585-.409668.1000366-.1704102.2200317-.3901367.3400269-.6704092.0799561-.2797852.2099609-.6298828.25-1.0400391.1099854-.8398438.039978-1.9697266-.4100342-3.2797852-1.6395264-4.6042967-5.1723557-6.6590028-9.75-7.4902349-1.3999634-.2499998-2.8899536-.3798826-4.4400024-.4897459-5.7599869-.4082685-9.0573959-.4339261-13.9899902-.3901367-1.0999756.0400391-2.2000122.0302734-3.5199547.1601563-5.0158157.5998566-10.999485 2.6471388-12.8900146 7.3500977-1.6650581 4.3420057-.6158943 8.7548342 4.5100098 10.8598623 1.8999634.7197266 3.7999878 1.0400391 5.6399536 1.2099609.7000122.0698242 1.3800049.1000977 2.0700073.1401367-.2199707 1.0297852-.2699585 2.0200195-.2699585 2.9599609.289978 5.2397461.6699829 9.7500019 1.0599976 12.2299824-3.7300415.5600586-7.3500366 1.5400391-10.7800293 2.8398438-4.7199707 1.8603516-9.0899658 4.3203125-12.8300171 7.300293-2.1699829 1.6796875-4.1300049 3.5200195-5.8899536 5.4399414-.1600342-.1201172-.3400269-.25-.5200195-.3798828-.7299805-.5400391-1.5900288-1.1801758-2.5499897-1.8901367-.9899902-.7001953-2.1100464-1.4799805-3.5-2.1401367-14.4500126-6.7797848-18.6799931 13.6899418-3.2900395 17.979977.3500366.0898438.6600342.1601563.9500122.2099609-.2199707.5200195-.4299927 1.0400391-.6300049 1.550293-2.5499878 6.6196289-3.5 13.3095703-3.3200073 19.5297852.2200317 6.2397461 1.5800171 12.0297852 3.8300171 17.0400391 2.2399902 5 5.3900146 9.2700195 8.9700336 12.3798828 9.4647255 7.99543 18.0639839 11.699852 29.9499512 13.4199295 10.1312828 1.3349457 17.800251.0477753 24.4999962-2.0600586.7000122-.2695313 1.25-.5097656 1.6900024-.7099609 1.7800293-.8095779 1.8200073-1.099617 1.7300415-1.3696365.0199585.0698242.5099487-.0400391 1.4199829-.3100586.4699707-.1298828 1.0299683-.3203125 1.6799927-.5703125.6599731-.2397461 1.4099731-.5297852 2.2399902-.909668 12.0139084-5.2990494 20.3446198-15.2065506 23.4899902-28.8803711 1.9700319-8.4897462 1.630005-18.5297852-2.0799559-28.0000001zm-2.9900513-14.7900352c-1.3641129 2.0257416-2.395668 3.1595078-2.7699585 4.1704102-2.7629318-3.8528824-5.7238998-6.8930168-9.3900146-9.800293 12.3863372-9.287056 17.2400054-1.9866105 12.1599731 5.6298828zm-59.2099571-35.5297871c-2.2775574-1.0540199-3.6818161-2.8231726-2.2700195-6.0800772.2399902-.5698242.5700073-1.0698242.9100342-1.409668.4299927-.4101563.9699707-.7900391 1.5299683-1.1303711 2.3099976-1.3295898 5.0300293-1.9799809 7.2700195-2.2299809.9799767-.0996094 2.1199913-.1098633 3.1899986-.1396484 4.2436142-.0406666 13.3082428-.0785208 17.7399902.5195313 3.5124359.4747167 6.0064163 1.7017875 7.6900024 4.8901372.4799805.8999023.6900024 1.6201172.789978 2.1699219.0700073.2802734.0700073.5102539.1199951.7202148 0 .1899414.0300293.3701172.0500488.5200186.039978.5498047.2299805.7397461.4699707.8701172-.1599731 0-.539978.5698242-1.3300171 1.3198242-.8299561.8100586-2.2799683 1.6499023-4.3399658 1.8598633-1.0200195.1303711-2.1700439.1303711-3.4299927.0703125h-.0400391c-2.3099976.0400391-11.0199585.0400391-13.5100098-.0200195-.6699829-.0200195-6.5-.4101563-7.1699791-.4501953-2.52544-.1982633-5.3272665-.4952298-7.6699827-1.4799806zm25.589962 19.7001972c.0300293.2299805.0599976.4296875.0900269.6298828-4.6900024-.9199219-9.4799805-1.2797852-14.1900024-.9399414-1.0800171.0600586-2.1599731.1699219-3.2299767.3100586.2899742-2.5200195.510006-6.9599628.6999474-11.9702168.0800171-1.0498047.2800293-2.0800781.6400146-2.9697266h.0599976c2.5911484.0588436 3.2027435.0958328 5.1799927.0498047 3.4300537-.1000977 6.6100464-.4599609 9.4800415-.6801758.2000122-.0097656.3800049-.0200195.5799561-.0400391.6700439 1.1401367.960022 2.5200195 1.0500488 3.7900391.0700073.8999023.039978 1.7700195-.0300293 2.5800781-.0299683.3999023-.0800171.7900391-.1300049 1.1699219-.0599976.4301758-.1099854.840332-.1699829 1.2402344-.380005 3.2197286-.2000123 5.4199239-.0300294 6.8300801zm-58.6099835 24.8896485c-7.6400146-5.7299805-5.4599609-11.2299805-.6300049-11.4399414 1.1900024-.0600586 2.4700317.1699219 3.6600342.550293 2.3699951.7797852 4.5999756 2.0898438 6.3499775 2.7397461.0999756.0400391.2000122.0703125.289978.1103516-2.6900043 3.1298828-4.8799458 6.4599609-6.579958 9.7998009-.8099975-.3500978-1.830017-.799801-3.0900268-1.7602502zm95.0700054 33.2499961c-2.6093063 12.7957764-9.8423538 22.3949966-21.6199951 28.6201172-3.1199951 1.6298828-4.9799805 2.3500977-4.9799805 2.5200195-.1100464-.2597656-.3500366-.4599609-2.2000122-.1298828-.460022.0800781-1.0300293.2001953-1.7299805.3398438-2.3111115.3643341-6.8196869 1.3701248-13.7300415 1.3701248.4199829-1.1001053.6900024-2.5000076.6900024-3.3598709 0-2.9101563-.9099731-2.9799805-2.039978-2.9799805-1.1199951 0-2.0300293.0698242-2.0300293 2.9799805 0 .8500977.2600098 2.2099609.6700439 3.2998123-2.1400146-.0898438-4.4900513-.2998047-7.0599937-.7099686-12.1506271-2.1494598-19.753418-6.060463-27.8100586-12.9399414-3.2099609-2.8398438-5.9399433-6.6098633-7.9599628-11.1401367-2-4.5297852-3.2399902-9.8198242-3.4199829-15.5400391-.0200195-.6499023-.0100098-1.2998047 0-1.9599609 1.8099976.7602539 5.9899902 1.300293 8.2199726 1.300293 5.2800293 0 5.3900146-.9101563 5.3900146-2.0302734 0-1.1298828-.1099854-2.0400391-5.3900146-2.0400391-2.2000141 0-6.330019.5302734-8.1699848 1.2802734.2199707-4.7099609 1.1499634-9.6303711 3.0199585-14.4902344 2.5500488-6.6098595 7.1600361-13.6498985 14.1000385-19.1098595 3.4199829-2.7700195 7.4299927-5.050293 11.7700195-6.8100586 4.3699951-1.6899414 9.0999756-2.8500977 13.9899864-3.1801758.9599609-.0795898 1.9199829-.1196289 2.8899536-.1396484-.1499634.4399414-.2399902 1.0698242-.2399902 1.9599609 0 1.6000977.9100342 5.0200195 2.0300293 5.0200195 1.1300049 0 2.039978-3.4199219 2.039978-5.0200195 0-.8500977-.0800171-1.4599609-.2199707-1.8901367 20.1090012 1.0882416 35.0019073 12.894516 41.2600098 28.3300743 1.9299927 4.6499023 2.9799805 9.4799805 3.3099976 14.199707-.7400513-.0996094-1.7300415-.1499023-3.0300293-.1499023-2.8900146 0-9.1099854.9101563-9.1099854 2.0400391 0 1.1201172 6.2199707 2.0302734 9.1099854 2.0302734 1.3699951 0 2.3800049-.0600586 3.1500244-.1704102-.040039 2.9301759-.3400268 5.7900392-.9000244 8.5000001z"/><path d="m79.0771484 84.0869675c-.3043823-.2509766-.5709229-.2001953-.8427734-.1328125-.2736816.0678711-.5249023.1586914-.7080688.4614258-.2000122.3051758-.2753906.8481445-.4446411 1.7236328-.1807861.8681641-.4088135 2.0688477-1.5750732 3.1342773-.574646.53125-1.5152588 1.0771484-2.671875 1.3955078-1.147644.3022461-2.5639648.3623047-3.7300415-.2324219-.6165161-.3452148-1.2853394-.8818359-1.7780762-1.7387695-.4915771-.8413086-.8431396-1.9628906-.8319702-3.1386719.0093384-1.1645508.2997437-2.3808594.9525757-3.2919922.6485596-.8964844 1.6022339-1.5610352 2.7572632-1.8261719 2.2891235-.5390625 4.8984375.2705078 6.0449219 1.2900391 1.2597046 1.121582 1.6895752 2.3212891 1.9849854 2.2231445.1316528-.0327148.2085571-.3598633.1362305-.9379883-.0751343-.5732422-.3024902-1.4116211-.9257202-2.3261719-.3109131-.449707-.7428589-.921875-1.2709961-1.3144531-.5269775-.3979492-1.1063843-.7241211-1.7598877-1.0170898-.6447144-.2841797-1.3649902-.5175781-2.1404419-.659668.2605591-1.2314453.3452759-3.4482422.1362915-7.5112305-.2463379-4.7890625-1.6862183-15.0278282-2.8098755-14.977047-1.1234131.0507813-1.5020752 10.4272423-1.2539063 15.2441368.196167 3.8076172.4800415 5.9829102.8297729 7.2226563-1.574646.2788086-3.2094116 1.1430664-4.3660889 2.480957-1.3040123 1.4980469-1.9241295 3.4194336-2.0646935 5.2529297-.1378174 1.8466797.2751465 3.6699219 1.088562 5.2148438.8062706 1.5576172 2.1087608 2.7524414 3.4334068 3.4448242 1.2261963.6137695 2.4810181.8481445 3.6105957.8691406 1.1339111.0180664 2.1577759-.1665039 3.0710449-.4399414 1.8162231-.5771484 3.2243652-1.4873047 4.2453003-2.6079102 1.0269775-1.1074219 1.5249023-2.3662109 1.725769-3.3666992.1906738-1.0166016.1488037-1.8222656.0412598-2.4331055-.2130127-1.2290037-.6026001-1.7524412-.8838501-2.0053709z"/></g></g></svg>