<svg id="Layer_1" enable-background="new 0 0 135 135" height="512" viewBox="0 0 135 135" width="512" xmlns="http://www.w3.org/2000/svg"><g><g><path d="m120.3766937 33.5208817c-.1599731 4.6601563-3.4099731 6.9702148-6.7699585 8.9702148-1.3500366.7998047-2.7399902 2.6801758-4.2700195 2.1401367-1.4699707-.5302734-2.2199707-3.1699219-2.75-4.5703125-1.960022-5.25-5.6900024-9.5400372-10.0200195-12.619627-5.3399658-3.800293-11.3599854-6.25-17.6699829-6.4399414-5.4199829-.1704102-10.8300171 1.0195313-15.8999596 3.0996094-.3200073.1298828-.6400146.2602539-.9500122.4003906-10.5400391 4.6098633-20.0300293 13.0795879-26.0499878 23.6997051-2.6700439 4.7099609-3.8900146 8.9599609-5.1000385 14.2900391-.1300049.5600586-.2600098 1.1499023-.1300049 1.7099609.4500122 2.1000977 3.3500385 1.4799805 4.8200092 1.6801758 4.710022.659668 4.3400269 4.6699219 1.9899902 8.159668-3.5199585 5.2299805-7.869997 9.7299805-12.5700092 13.6801758-1.3399658 1.1298828-2.7799683 2.2597656-4.4499512 2.5600586-4.3700562.7998047-7.8300161-6.1298828-10.1500235-9.2797852-.1099854-.1401367-.210022-.2900391-.3200073-.4301758-1.9400024-2.6298828-3.8800049-5.2402344-5.8099976-7.8701172-1.3699954-1.8598633-.0800171-4.5800781 2.1400146-4.5097656l9.2299805.3198242-.2999878-.3198242c2.460021-22.8901367 15.0200186-44.5102539 33.4799805-55.3603516 7.8200073-4.5898438 16.6300011-7.1000977 25.4800377-7.449707 12.0599976-.5 24.2199707 2.9897461 34.1299438 10.5800781 2.2600098 1.7299814 5.2800293 4.3798838 7.710022 7.449708 2.4700328 3.1098643 4.3500377 6.6499033 4.2299815 10.1098624z" fill="#da1c5c"/></g><g><path d="m131.1467133 72.5311356c-3.0899658.949707-6.4199829 1.0898438-9.5800171.4101563-.1399536.9897461-.3099976 1.9697266-.5 2.949707-3.6799927 19.4902344-15.0799561 37.300293-31.1399536 46.6699219-8.8099976 5.1303711-18.9200439 7.5102615-28.8900108 7.0600662h-.0100098c-10.0100098-.449707-19.8499756-3.7700272-28.0900269-10.0200272-3.4899921-2.659668-8.9099751-7.5996094-10.7599506-12.8300781v-.0097656c-.4500122-1.2597656-.6900024-2.5400391-.6500244-3.8100586.0900269-2.6899414 1.2800293-4.5600586 2.9299927-6.0297852 1.0499878-.9501953 2.2900391-1.7402344 3.5400391-2.4799805 1.289978-.7602539 2.6199951-2.5400391 4.079958-2.0200195 1.4100342.5 2.1300049 3 2.6300049 4.3300781.210022.5498047.4299927 1.0898438.6900024 1.6196289 1.9799805 4.25 5.210022 7.7402344 8.8900146 10.340332 5.0999756 3.5996094 10.8599854 5.9199219 16.8999634 6.1098633 5.4999962.1699219 10.9900475-1.1098633 16.1000328-3.3198242 10.0700073-4.3701172 19.1499634-12.4003906 24.8999634-22.4702148 2.0100098-3.5102539 5.9800415-11.1098633 5.1300049-15.2900391-1.039978-5.1201172-13.4699707-3.3999023-11.3199463-9.5498047 1.1499634-3.2700195 6.9899902-6.0703125 9.7099609-7.9101563 3.6600342-2.4702148 7.4199829-4.800293 11.2700195-6.9702148.1400146-.0800781.289978-.159668.4299927-.2299805.25-.1098633.5-.199707.7700195-.199707.9799805-.0200195 1.6199951.9897461 2.0599976 1.8598633 3.6399535 7.2700195 7.2799682 14.5297852 10.9099731 21.7900391z" fill="#8dc63f"/></g><g><path d="m74.3067474 5.3812342c-.4400024 1.3300781-1.5100098 2.449707-3.3200073 2.8896484-20.1300011 4.840332-34.8900108 19.6704111-41.0300274 39.2402334-2.6300049 8.3500977-3.1699829 19.3701172-11.7299805 24.1098633-1.9400024 1.0703125-4.2600088 1.3803711-6.1799917 2.4301758-2.3500366 1.2900391-2.2200317 3.2700195-2.0300293 5.7397461.0200195.2602539.0400391.5200195.0700073.7802734-1.9400024-2.6298828-3.8800049-5.2402344-5.8099976-7.8701172-1.3699954-1.8598633-.0800171-4.5800781 2.1400146-4.5097656l9.2299805.3198242-.2999878-.3198242c2.460021-22.8901367 15.0200186-44.5102539 33.4799805-55.3603516 7.8200084-4.5898427 16.6300021-7.1000967 25.4800387-7.449706z" fill="#f4317b"/></g><g><path d="m131.1467133 72.5311356c-3.0899658.949707-6.4199829 1.0898438-9.5800171.4101563-.1399536.9897461-.3099976 1.9697266-.5 2.949707.0800171-1.0097656.1199951-2.0200195.1199951-3.0297852 0-.3701172-.0099487-.7299805-.0199585-1.1000977-.1600342-5.8901367-1.6000366-11.7099609-4.3599854-17.1801758-1.0500488-2.0898438-.5800171-4.0795898.5999756-5.5.25-.1098633.5-.199707.7700195-.199707.9799805-.0200195 1.6199951.9897461 2.0599976 1.8598633 3.6399536 7.2700195 7.2799683 14.5297852 10.9099732 21.7900391z" fill="#a4d852"/></g><g><path d="m61.026722 129.6209869c-10.0100098-.449707-19.8499756-3.7700272-28.0900269-10.0200272-3.4899921-2.659668-8.9099751-7.5996094-10.7599506-12.8300781v-.0097656c.0299683-3.3798828.7999878-6.75 2.2799683-9.8398438 1.0499878-.9501953 2.2900391-1.7402344 3.5400391-2.4799805 1.289978-.7602539 2.6199951-2.5400391 4.079958-2.0200195 1.4100342.5 2.1300049 3 2.6300049 4.3300781.210022.5498047.4299927 1.0898438.6900024 1.6196289-2.6099854 3.0400391-3.9899921 6.840332-3.1199951 11.0600586 1.0700073 5.2001953 5.0499878 8.25 9.3200073 10.9101563 6.1300048 3.8198243 12.7000121 6.7299805 19.4299926 9.2797928z" fill="#80b52c"/></g><g><path d="m120.3766937 33.5208817c-.1599731 4.6601563-3.4099731 6.9702148-6.7699585 8.9702148-1.3500366.7998047-2.7399902 2.6801758-4.2700195 2.1401367-1.4699707-.5302734-2.2199707-3.1699219-2.75-4.5703125-1.960022-5.25-5.6900024-9.5400372-10.0200195-12.619627-5.3399658-3.800293-11.3599854-6.25-17.6699829-6.4399414-5.4199829-.1704102-10.8300171 1.0195313-15.8999596 3.0996094 1.6499596-6.0800781 9.2199669-8.3100595 15.0299644-9.2299814 6.7000122-1.0498047 13.7200317.6401367 19.2600098 4.5502939 2.8099976 1.9897461 4.8999634 4.409668 6.8900146 7.1699219 1.9499512 2.7197266 4.6799927 6.5698223 8.6300049 5.1000977 2.5999756-.9702148 3.3899536-4.3203125 3.3399658-8.2802734 2.4700318 3.1098632 4.3500367 6.6499022 4.2299805 10.1098613z" fill="#ce135a"/></g><g fill="#202020"><path d="m5.111876 69.143692c.355835-.2998047.7911377-.4584961 1.2330933-.465332.5366211.0019531 1.052002.0043945 1.5455933.0063477.9949336.0029297 1.901916.0058594 2.7163081.0087891 4.2293119-.0025406 8.8130817-.0911713.0245361-.706543-3.32831-.2219925-2.3734493-.1587219-4.2776484-.2714844-.6389771-.0263672-1.3338623.1796875-1.8907471.6074219-1.1225586.8295898-1.6912231 2.519043-1.0655518 4.0332031.3579102.7924805.7907715 1.2402344 1.1829224 1.8398438 9.5781937 13.5241852 7.9911056 11.9252853 10.100708 14.2817383.6859131.7294922 1.4506226 1.4458008 2.4075928 2.0234375.9351196.5810547 2.1964111.9633789 3.4538574.7773438 4.8873539-.5788651 14.4900608-11.5450287 17.4423847-15.637207.6750488-.9423828 1.4471436-2.0493164 1.93573-3.3012695.4922485-1.2392578.8753662-2.7041016.4420776-4.3574219-.2405396-.8168945-.7563477-1.5893555-1.4111938-2.1347656-.6588745-.5634766-1.4024048-.84375-2.1192627-1.0708008-1.8167152-.4898224-2.4364128-.1805115-3.8477173-.3798828-.4689941-.0688477-.7716064-.2211914-.7800903-.2919922-.5191059-.5899467 3.2167664-23.5070114 26.7052612-36.1508789 4.6015015-2.4516602 9.5595093-4.2397461 14.6322021-4.875 10.9596024-1.3775005 20.8352661 3.5727177 26.6761475 10.2055645 4.5193939 5.1260986 4.4865494 8.5632362 6.1105957 11.15625.2272339.3574219.458252.6816406.8547974 1.090332.432312.4150391.9404297.7416992 1.4901733.9638672.7424927.2626953 1.5603638.2802734 2.3165283.0532227.8310547-.25 1.2942505-.5864258 1.708313-.8642578.7991943-.5776367 1.3904419-1.1337891 1.8234253-1.4091797.5153656-.4339027 5.6617661-2.8093338 7.2400513-7.3676758 1.7897415-4.7406082-.3635483-9.8872337-3.413269-13.963377-9.4057928-12.6641896-27.7079244-21.2727387-47.5006719-19.3173859-6.5114136.7021484-12.425354 2.4321289-17.5770264 4.7695313-20.2235985 9.1666231-34.3423157 30.6636086-37.8102417 51.8789063-.1698608 1.2392578-.3129883 2.2836914-.4335327 3.1630859-.0970459.8813515-.109314 1.6059608-.1348877 2.1904335-.0708008 2.3427734.1735229 2.5351563.4528198 2.5664063.2793579.03125.5696411-.1162109 1.1172485-2.3476563.5947132-2.5918198.3363075-1.5105667 1.227478-5.107914 6.4764977-25.3932877 21.2884541-41.7354431 37.1749878-48.7954102 4.8098755-2.140625 10.322876-3.7182617 16.382019-4.347168 18.4873505-1.7434425 35.2658691 6.2405825 43.8407593 17.7749023 2.1366425 2.8402901 4.1754227 6.8534908 2.8846436 10.1640606-.8378372 2.4755974-3.0317001 3.7223015-7.5793457 6.9057617-.2377319.175293-.4620361.2792969-.4024658.25-.0090942.0043945-.0199585.0058594-.0302124.0029297-.0078735-.0024414-.0145264-.0053711-.0215454-.012207-.0272217-.0292969-.168396-.1914063-.2648926-.3525391-.2191162-.3369141-.4351196-.8139648-.637146-1.3193359-.8920746-2.3149986-1.9283676-5.8309364-5.9239502-10.2988262-6.4516068-7.2351723-17.4997253-12.8984184-30.0441895-11.2099609-5.5903931.7578125-10.928894 2.7641602-15.8008423 5.4296875-13.7845268 7.630846-25.3344364 21.6661053-27.9034443 38.0898438-.1207886.7871094-.0632935 1.9628944.7172241 2.8637733.3694458.4536133.8607788.7451172 1.2960205.9165039.4509277.1879883.8495502.2485352 1.239748.3105469.7564697.0908203 1.4290771.0722656 2.0224609.074707.2890625.0009766.5615845.0087891.7540894.0297852.2417603.0507813.498291.0849609.7316895.1425781.4457397.1367188.8737183.2929688 1.1455078.5317383.2783203.2333984.4678345.496582.5874634.8388672.2150269.7089844.0715942 1.7172852-.3068848 2.6708984-.362793.9804688-.9317627 1.8452148-1.5991821 2.8149414-2.7011336 3.8969107-11.8102588 14.5276404-15.6900653 15.0913077-1.4831543.2910156-3.0198364-.8491211-4.2374878-2.0898438-2.2114697-2.3387604-1.0462618-1.5808716-10.4032593-13.7880859-.4058228-.5532227-.918335-1.1289063-1.1105347-1.550293-.4585566-.9472656-.1250605-2.1557617.6008306-2.7348633z"/><path d="m131.7064819 72.9078522.130188-.0341797c.0621338-.003418-.0129395-.0678711-.0126953-.0991211l-.1061401-.2348633c-.7132263-1.5554962-10.4347382-22.0699005-11.1546021-23.1503944-.1696167-.2573242-.4108887-.5576172-.664917-.7866211-.5110474-.4755859-1.2104492-.7714844-1.9229126-.6987305-.6781616.0341797-1.4680176.5307617-1.8042603.7104492-3.4833984 1.9174805-7.0900879 4.0737305-10.7567139 6.4799805-2.5971222 1.7282028-6.0211716 3.324398-8.5561523 5.734375-.4598389.4379883-.9005127.9311523-1.3032837 1.4931641-.3781128.5708008-.762085 1.2670898-.927063 1.9819374-.1868286.7172852-.2629395 1.5991211.02771 2.46875.2831421.871582.888855 1.5571289 1.4841919 2.0166016 1.2167358.9165039 2.4470215 1.331543 3.616272 1.7504883 1.1734619.4072266 2.3209839.7509766 3.369751 1.1772461 1.0369263.4155273 2.0083008.9467773 2.4521484 1.5566406 3.0825958 4.1621017-11.4215775 35.2667389-38.4251709 39.3461914-10.8828773 1.6428604-20.4260178-3.0691605-26.1053467-9.3212891-5.0831909-5.5862579-4.3196449-9.2217712-6.8618774-11.8320313-.4242554-.3974609-.9144287-.7114258-1.4470825-.9243164-.6629028-.2231445-1.3815937-.2675781-2.0641499-.1010742-.347229.0893555-.6549072.1845703-1.0166626.3730469-.2506104.1259766-.4744873.2607422-.666687.3911133-4.8621311 3.2848434-7.0772495 4.7168884-8.4495239 7.496582-.7731934 1.5332031-1.0863037 3.2211914-1.0248413 4.8071289-.0087891.8154297.1459351 1.5761719.2770996 2.340332.9809303 3.4631348 2.7545147 7.0042114 7.5501709 11.621582 5.8733654 5.6784363 13.9054737 10.0838165 19.9094257 11.7255859 6.9401855 2.2246094 13.8309937 2.7612305 20.1437988 2.3032227 6.3312378-.4384766 12.1072998-1.9814453 17.1519165-4.1240234 12.0567627-5.0909271 21.5113297-14.2626877 28.3666382-25.5957031 5.0212097-8.4837494 8.1057205-18.2889557 8.927063-24.0336914.1766357-1.2011719.314209-2.2124023.4193115-3.0634766.0623779-.519043.0864868-.9643555.1029663-1.3754883.8051758.1845703 1.8917236.3657227 3.2785645.4091797.8192749.0249023 1.7360229-.0019531 2.7354736-.1176758.5309448-.059082 1.2001953-.1772461 1.829834-.315918.3220215-.078125.6503906-.1577148.9850464-.2387695zm-100.2683735 21.4716797c.0008545-.0004883.0018921 0 .0028076 0-.0056762.0014648.0003663-.0019532-.0028076 0zm98.571352-22.0874024c-.196228.0576172-.3887939.1132813-.5775757.168457-.3997803.1010742-.7369995.1845703-1.1801147.2597656-.9463501.1660156-1.8226318.2485352-2.6119385.2817383-1.3692627.0444336-2.4498291-.027832-3.258606-.1098633.0037842-.1064453.0084839-.2324219.0129395-.3305664.0633545-2.2685547-.1815796-2.4560547-.4608154-2.4873047-.2792969-.0317383-.5690918.1103516-1.1088867 2.265625-.0324097.1206055-.064209.2724609-.0953979.40625-.0009766.0019531-.0087891.0014648-.0092163.003418-.0003662.0014648.0068359.0048828.007019.0063477-.1071777.4609375-.2148438.9765625-.37854 1.6010742-.2039185.8115234-.4458008 1.7739258-.7330322 2.9165039-1.8317413 7.7521286-5.6036987 16.3658066-9.5824585 22.7475586-6.7347717 10.5785751-15.6668167 19.0867844-26.9829102 23.765625-4.6958008 1.9541016-10.0662231 3.3554688-15.94104 3.7338867-14.3482857.9748993-27.7949791-4.1391602-36.9360352-12.9794922-14.0611515-13.5033875-1.3189354-17.89991-1.1765137-18.3637695.1965942-.1201172.4232788-.2675781.593689-.3945313.7023315-.5200195 1.2089233-.9916992 1.6143799-1.2573242.097168-.0683594.177002-.1123047.2426758-.1469727.0048218-.0004883.0096436-.0019531.0145874-.0009766 1.3280125 1.3742599 1.2632504 5.6391754 6.7172871 11.5493164 4.8974838 5.330864 13.1908188 9.9659653 21.282959 10.6391602 2.7836914.234375 5.5318604.0766602 8.2563477-.3588867 10.546608-1.7060699 20.7083282-7.9974823 28.0194092-15.7890625 6.0235062-6.3961487 15.1433334-21.6125641 12.7380371-27.7319336-.1710205-.4194336-.4005127-.8061523-.6659546-1.1459961-1.109375-1.3530273-2.4657593-1.9033203-3.6680908-2.394043-1.2244263-.4707031-2.4127197-.8007813-3.5230103-1.1660156-1.1021729-.3569336-2.1697388-.7592773-2.8639526-1.2758789-.6790161-.5439453-.8031616-.9116211-.6329346-1.7705078.1903687-.8022461.7354736-1.576664 1.4868774-2.3120155 2.1620865-2.1423607 5.5847931-3.8821106 8.0883789-5.6176758 3.5640869-2.4501953 7.0737305-4.6601563 10.4663696-6.6396484.5186157-.296875.5797729-.3637695.8682861-.4306641.2523804-.0478516.5064087.0634766.6868286.2348633.0982056.0922852.1616821.1645508.2597046.3007813.0301056.0424538 10.3088989 19.7018013 11.2981567 21.4970741.2349834.2514649-.0967426.253418-.2669087.3256836z"/></g></g></svg>