<svg id="Layer_1" enable-background="new 0 0 135 135" height="512" viewBox="0 0 135 135" width="512" xmlns="http://www.w3.org/2000/svg"><g><g><path d="m99.8340149 21.8487892-30.3931503 26.5778427c-.2125626-.1314545-.4250641-.263401-.6376266-.4052353-2.9047012-1.8314552-5.5766449-4.0078506-7.9854317-6.436779-2.6112213-2.6414261-4.8985023-5.5966606-6.7810402-8.7846565-1.3663025-2.2673283-2.5099754-4.6458473-3.441082-7.1152973-1.9128723-5.0703526-2.7933922-11.0722475.0708504-15.6770763 4.5847549-7.3683205 15.5760803-6.9230585 23.794342-4.0078526 2.9957581 1.062501 5.9105911 2.3375025 8.7343063 3.795352 1.9533997 1.0120945 3.8560791 2.115118 5.6980972 3.3194504 3.107132 2.0039263 6.0624924 4.2509928 8.8052292 6.7407026.7287369.6375007 1.4371567 1.3056411 2.1355057 1.9935493z" fill="#a97c50"/></g><g><path d="m128.6179657 23.6708546c-.0303345.5263081-.1821747 1.1030235-.4553986 1.7000008-.4251175.9112797-1.2651138 1.5487804-2.0748367 2.1358738-18.6933441 13.582222-41.8804474 24.0777512-51.3232422 45.0786972-1.3764954 3.0461655-3.2893066 6.8514023-6.6393356 6.6290207-3.532196-.2327652-4.8378372-4.7061386-4.8681679-8.2282028-.0405235-4.9897995.6780853-9.9692268 2.0646477-14.7564087 2.5808334-8.906723 7.4895248-17.1650734 14.2300415-23.5717049 7.4085312-7.0545139 20.3734512-14.9081249 30.5955734-16.760334 3.5322647-.6478797 18.9565582 1.3357848 18.4707184 7.7730579z" fill="#c9976b"/></g><g><path d="m113.3859634 56.1690483c-.718544 5.9411125-5.9105911 11.0114632-11.7402649 11.3756828-5.8296738.354332-13.8151093-5.1815491-14.9891052-11.0519905l3.107132-2.4694481 15.1206894-12.0438194c4.230545 1.58881 7.4287338 5.6273003 8.3295059 10.1110573.2732925 1.3357849.3340149 2.7120933.1720428 4.0785179z" fill="#fff200"/></g><g><path d="m92.2534409 129.1104736c-14.3110275 2.5406189-28.9155312 1.8018036-43.3681984 2.6720734-6.0422325.374588-12.0945358.2732849-18.1266365-.010376-1.1841335-.050415-2.3581352-.1112061-3.532198-.1818695-3.3702278-.1823578-6.7506485-.4151154-10.1108074-.6172333-.1821709-.010376-.354208-.0202637-.5363789-.0306396-1.8521481-.1111908-7.3073492.4961548-8.6939125-1.133667-4.4025831-5.121254 21.4766026-16.486557 25.3529377-17.7012634 17.3371735-5.4148026 35.0690804-5.8096542 52.5074348-.435379 1.8217545.5668335 3.7750931 1.2448578 5.6980972 2.0750885 2.671936 1.1331711 5.2932281 2.550499 7.4692535 4.3112793.7692032.6172409 1.4877472 1.2754974 2.1253738 1.9836655 5.2527696 5.7992782-4.3924559 8.2889937-8.7849653 9.0683211z" fill="#a97c50"/></g><g><path d="m91.443779 113.7472076c-25.909584-1.6703491-54.0357094-.5263062-74.3281784 17.2258606-.1821709-.010376-.354208-.0202637-.5363789-.0306396-1.8521481-.1111908-7.3073492.4961548-8.6939125-1.133667-4.4025831-5.121254 21.4766026-16.486557 25.3529377-17.7012634 17.3371735-5.4148026 35.0690804-5.8096542 52.5074348-.435379 1.8217545.5668334 3.7750931 1.2448577 5.6980973 2.0750884z" fill="#b7895f"/></g><g><path d="m83.1951828 9.7950869c-.2327576 0-.4756546-.0103779-.7286758-.0405235-9.00766-1.0323554-20.1608925-1.4776173-25.2112313 7.6509942-2.6314812 4.7674179-3.5727196 10.1011715-3.2185097 15.3944035-1.3663025-2.2673283-2.5099754-4.6458473-3.441082-7.1152973-1.9128723-5.0703526-2.7933922-11.0722475.0708504-15.6770763 4.5847549-7.3683205 15.5760803-6.9230585 23.794342-4.0078526 2.9957581 1.0625009 5.9105912 2.3375025 8.7343064 3.795352z" fill="#b7895f"/></g><g><path d="m92.2534409 129.1104736c-14.3110275 2.5406189-28.9155312 1.8018036-43.3681984 2.6720734-6.0422325.374588-12.0945358.2732849-18.1266365-.010376.8097248-.9513092 2.0444489-1.5581818 3.6941681-1.5077667 13.1167564.3948517 25.9905624-1.9228821 38.8239059-4.3419266 8.7141113-1.6397095 17.8229599-3.5220642 25.6363525-7.8639908.7692032.6172409 1.4877472 1.2754974 2.1253738 1.9836655 5.2527695 5.7992783-4.392456 8.2889938-8.7849654 9.0683212z" fill="#9e7046"/></g><g><path d="m97.6985092 19.8552399c-12.539856 5.7483768-22.8125763 15.8287926-28.8952713 28.1661568-2.9047012-1.8314552-5.5766449-4.0078506-7.9854317-6.436779 6.4571648-12.0032941 16.1631737-21.8306847 28.0754738-28.4700805 3.107132 2.0039263 6.0624924 4.2509928 8.8052292 6.7407027z" fill="#9e7046"/></g><g><path d="m128.6179657 23.6708546c-22.6000137-.8099728-44.3094406 10.6269855-56.1712112 31.0813618-1.7104416 2.9552345-4.928894 2.9552345-7.1251221 1.4776192 2.5808334-8.906723 7.4895248-17.1650734 14.2300415-23.5717049 7.4085312-7.0545139 20.3734512-14.9081249 30.5955734-16.760334 3.5322647-.6478797 18.9565582 1.3357848 18.4707184 7.7730579z" fill="#d8a47d"/></g><g><path d="m113.3859634 56.1690483c-.718544 5.9411125-5.9105911 11.0114632-11.7402649 11.3756828-5.8296738.354332-13.8151093-5.1815491-14.9891052-11.0519905l3.107132-2.4694481c6.1028976 2.0849724 10.6168594 7.5096588 17.1043472 3.532444 2.3986588-1.4677315 4.50383-3.35009 6.3458481-5.4652061.2732925 1.3357849.3340149 2.7120933.1720428 4.0785179z" fill="#f2e000"/></g><path d="m125.5742722 18.3729916c-1.4898071-.9233398-3.3242798-1.659668-5.3942871-2.253418-7.2645416-2.0635548-11.9322739-2.0246258-22.1563721 2.5957031-.3755493-.6401367-1.128418-1.6186523-2.6364746-3.0825195-8.4464493-8.0843449-27.1979599-16.759028-39.139164-12.4052732-7.0557137 2.7280967-10.8437157 9.2237806-8.4935913 18.9008789.1765137.6933594.3823242 1.375.6022339 2.0488281-.5598755.4140625-1.2313232.9458008-2.0565186 1.640625-1.989502 1.6962891-4.831604 4.3295898-8.7523804 8.477541-1.9611282 2.0727539-4.1893311 4.5244141-6.7223492 7.4111328-1.2556152 1.449707-2.5987549 3.0004883-4.0355225 4.659668-.7072754.8242188-1.4376221 1.6757813-2.1917114 2.5551758-.6789551.7739258-1.5319214 1.5859375-2.4333496 2.4892578-.9788208.9960938-2.0986328 2.1196289-3.0810547 3.6694336-.4849243.7739258-.9348755 1.6606445-1.2194214 2.6796875-.2800293 1.0297852-.3526001 2.1235352-.2348022 3.2177734.260437 2.2192383 1.3795166 4.0854492 2.529541 5.6274414 1.1637573 1.546875 2.4713745 2.8959961 3.5002441 4.2353516 4.3955078 5.9746094 9.065733 12.262207 13.4258404 18.0737305 4.4226074 5.7485352 8.6011353 10.7236328 11.465332 14.4575195.9300537 1.1933594 1.7387695 2.2446289 2.4188232 3.1191406-1.7519531.2001953-3.5101318.4438477-5.269165.746582-12.570488 2.1649017-24.2177067 7.5370026-32.7559204 13.2607422-1.5999146 1.0898438-3.1560059 2.2285156-4.574646 3.6386719-.700561.7172852-1.3852534 1.5004883-1.9016109 2.5717773-.1299438.2646484-.2466431.5473633-.314209.890625-.0353394.1660156-.0864868.3291016-.1008911.5092697-.0062256.1855469-.0064087.3730469-.0003662.559082-.0179443.375.1335449.7250977.2409058 1.0756836.1361084.3378906.3695679.6376953.5770874.9335938.4074707.4316406.9660645.7905273 1.3989863.9379883.2288208.0957031.4508057.1708984.6601563.2197266.2158813.0620117.4266968.1118164.6281128.1430664 2.3557758.4328308 7.1228037.1615906 14.314332.4550781 4.9608765.2236328 9.4160137.3139648 13.128355.2753906 3.7149048-.0356445 6.6943359-.2070313 8.7377319-.4008789 2.0439453-.1948242 3.1531372-.3984375 3.1455078-.5209961-.0172729-.2734375-4.4890137-.144043-11.8544922-.5209961-.100029-.0050201-26.8549957-1.8048553-26.9550781-1.8266602-.6013794-.125-1.0934448-.3554688-1.1879883-.5068359-.0941772-.1264648-.1300659-.2763672-.145813-.4243164-.0053101-.0732422.0100098-.1450195.0534668-.2578125.0129395-.1030273.0728149-.2333984.1508789-.3715744 2.2217274-4.309967 19.9895935-14.2943726 37.3630981-17.0009766 7.4886475-1.1635742 14.9197388-1.3881836 21.7366371-.6918945 8.862999.8479233 22.2893982 3.8042984 29.3395996 9.2421875 1.4174805 1.1152344 2.8991089 2.578125 3.105896 3.4501953.1104126.4223633.0770264.5244141-.1742554.9277344-.2670288.3793945-.8373413.815918-1.468689 1.1762695-10.491127 5.8220291-50.1775436 3.6511307-49.9632607 6.8046799.0927315 1.4343262 41.0088692 2.5727539 51.9140663-3.324707.9155273-.5312424 1.8883667-1.1528244 2.7399902-2.2709885.4154663-.5595703.7803955-1.2675781.9411011-2.0727539.1738281-.8076172.0843506-1.6484375-.1211548-2.355957-.4260864-1.4433594-1.241333-2.4296875-2.0112915-3.2719727-.7544556-.8266602-1.5985107-1.5551758-2.4729614-2.2587891-7.7966156-6.0267105-21.597374-9.1484299-31.4667358-10.0024414-5.1681557-.4794922-10.6658974-.4291992-16.2523232.1357422-.5839233-1.0654297-1.3569336-2.3852539-2.3046265-3.9008789-2.4908447-4.050293-6.3644409-9.3496094-10.4338379-15.2407227-3.9917603-5.9287109-8.4811993-12.4785156-12.742918-18.6181641-1.2026978-1.6425781-2.4265747-2.9638672-3.3804321-4.3037109-.9500732-1.3227539-1.5982056-2.6142578-1.6983643-3.7705078-.3189087-2.2910156 1.5997314-4.3793945 3.4555054-6.2451172.8515015-.8564453 1.7483521-1.7036133 2.6094971-2.6855469.7617798-.8964844 1.4995117-1.7646484 2.2139282-2.6054688 1.4135742-1.6655273 2.7349834-3.2226563 3.970274-4.6782227 2.4742432-2.9013672 4.6172485-5.3774414 6.4766235-7.4912109 3.7164307-4.2299805 6.2925415-7.0185566 7.9951172-8.9492207.3762207-.4213867.7025757-.7954102.9973145-1.1401367.0765381.1811523.1491089.3657227.2283325.5439453.6947021 1.6342773 1.4954834 3.1923828 2.348877 4.668457 3.4086304 5.9331074 7.8551025 10.3247089 11.3656616 12.9716816 1.3694496 1.0366211 2.5824623 1.8222656 3.569767 2.3916016-5.5572777 11.4019623-6.319809 23.4670181-4.8816566 28.2529297.2630005.8442383.6083984 1.6845703 1.1038818 2.4970703.4876709.8076172 1.1737099 1.6015625 2.0764809 2.1967773 1.8317261 1.2207031 4.2434082 1.2758789 6.0380249.315918 4.8716125-2.5760803 4.412735-7.9204559 11.6817017-17.3208008 1.3884888-1.6967773 2.7803345-3.2788086 4.1894531-4.7548828.1428223.605957.3919678 1.3286133.815979 2.1323242 5.8185577 11.6433792 22.5239944 11.3182068 26.8372803-1.1889648.9805908-2.7475586.9603882-5.4301758.5088501-7.5732422-.4417725-2.1704102-1.2624512-3.8989258-2.1378784-5.2485352-1.7927246-2.6987305-3.6865845-3.9467773-4.9741211-4.5976563-.0908813-.0444336-.1603394-.065918-.2462769-.1049805 3.3019943-2.2557487 18.1084213-12.015646 20.1052856-14.9096699.4182053-.597168.5054245-1.0273438.4860153-1.2612305-.0246582-.2421875-.1428833-.3164063-.2694092-.3764648-.283989-.1381836-.4636765-.0732422-1.3411789.5205078-.1001053.0657902-16.0935211 9.6546116-25.1421509 15.7211933-4.2113647 2.8466797-9.0991211 6.2583008-14.2734985 10.9492188-13.7045885 12.0659638-14.6207567 22.6674424-18.0793444 24.4033204-.621582.3525391-1.4126587.2958984-1.9858398-.0688477-.6154785-.3588867-1.2162476-1.3466797-1.5822144-2.5117188-6.8500938-22.6453133 25.7170792-63.0395355 54.0333252-56.7280273 2.0009766.4501953 3.7709961 1.0341797 5.1863403 1.7695313 1.4138184.7250977 2.4745483 1.6293945 2.944519 2.5795898.5044479.9394531.4622726 1.8452148.3551559 2.4228516-.1012573.5864258-.1895142.9101563-.1151123.9423828.0526123.0253906.2694702-.2358398.5174561-.8349609.2474976-.5786133.4747925-1.637207-.0078125-2.8642578-.4505614-1.2363301-1.6138839-2.3901387-3.0940474-3.2973652zm-35.473877 37.1264667c4.8955078-4.512207 9.6113281-7.9101563 13.6992798-10.7949219.5914917-.4145508 1.1439209-.7939453 1.7109985-1.1865234.2521362.2412109.5737305.5297852.9844971.90625.8427124.793457 2.12323 1.9619141 3.3501587 4.1357422.5975952 1.0854492 1.1516724 2.4365234 1.430603 4.0556641.2874756 1.6157227.2736816 3.4912109-.4302979 5.4711914-3.3425598 9.7550735-15.0636978 10.09655-21.661499 1.6889648-.6564331-.7880859-1.0878296-1.5029297-1.401123-2.0527344.7654419-.7739258 1.5353393-1.5249023 2.3173828-2.2236328zm-22.824646-9.1079101c-.8299561-.7050781-1.8521729-1.5927734-2.9941406-2.6801758-7.2728996-6.8918877-11.7810211-15.4586811-13.2345619-22.3330097-1.3513985-6.5868721.3047791-12.0812044 6.5614014-14.3999023 8.1216011-2.8265347 19.1234627 1.4602528 26.7777138 5.2861328 4.4945679 2.262207 7.2593384 4.2602539 9.161377 5.5839844 1.140564.8056641 1.9571533 1.3774414 2.5669556 1.7641602-15.1886217 7.4296912-23.7061159 16.7208346-28.8387453 26.7788104z" fill="#202020"/></g></svg>