<svg id="Layer_1" enable-background="new 0 0 135 135" height="512" viewBox="0 0 135 135" width="512" xmlns="http://www.w3.org/2000/svg"><g><g><path d="m81.2748032 111.1746368c-10.6199951 9.1499023-24.5200233 13.4399414-38.739994 10.5498047-2.8800049-.579834-5.7600098-1.449707-8.6400146-2.6398926-8.5300274-3.5200195-15.9801006-9.7199707-21.460083-17.4499512-4.6298828-6.5200195-7.869873-14.1298828-9.1899414-22.1601563-3.0200185-18.3498496 4.0500496-38.1997031 18.3900164-49.2397422 9.7000732-7.4702148 20.5399151-11.0800781 31.5899639-10.5500488 6.6201172.3200684 13.3200722 2.119873 19.9000282 5.4499512 11.1800537 5.6799316 20.3599854 16.2800293 23.2700195 29.0100098.6400146 2.8100586 1.1400146 5.5998535 1.4899902 8.380127 2.3499757 18.4497031-1.9200438 35.9799766-16.6099852 48.6498984z" fill="#d33548"/></g><g><path d="m72.6723022 99.6704407c11.8345795-10.4787216 14.0134278-25.5962067 10.5857544-41.0327378-2.0338058-9.1592827-8.4638596-16.7863388-16.2906647-20.8687744-12.2972755-6.4142208-25.1925125-4.9271851-36.0505753 3.6667252-10.0409812 7.9473381-14.9975575 22.2275047-12.8819331 35.4250793 2.0252361 12.6337204 10.4576263 23.8303604 21.4656658 28.5023651 11.9820099 5.0853653 24.2290077 2.2255249 33.1717529-5.6926574z" fill="#d1d3d4"/></g><g><path d="m62.8248482 85.1846466c-4.9200439 4.3598633-11.6601563 5.9299316-18.25 3.1398926-3.5400391-1.5100098-6.6000977-4.25-8.75-7.6599121-1.5300293-2.4099121-2.6000977-5.1501465-3.0600586-8.0300293-1.1600323-7.2700195 1.5700684-15.129879 7.0899658-19.4999962 5.9700928-4.7399902 13.0699463-5.5500488 19.8299561-2.0200195 3.8400879 1.9899902 7.0700722 5.5400391 8.5100136 9.8598633.1900635.5302734.3400879 1.0700684.460083 1.6201172 1.8800048 8.4999961.6800537 16.8200645-5.8299599 22.590084z" fill="#d33548"/></g><g><path d="m123.3994217 22.4908657c2.5118256.6748028 5.001915 1.439827 7.4645309 2.2933044.4808044.1666393.9888153.357048 1.3009796.7777157.3144226.4237309.3669281 1.0001793.3451691 1.5380516-.1874847 4.6335754-3.4595184 5.5119438-6.4538879 7.6724396-4.1861801 3.0204048-8.405098 5.9242439-12.8630676 8.4854813-.9026947.5186234-1.8370895 1.034481-2.8566284 1.1701889-.9564667.1273079-1.9213409-.0892067-2.8597641-.3223648-3.1879959-.7920723-6.3298492-1.7912712-9.401886-2.9900665l.4199677-.3078842c.074028-4.5542908.5042267-9.1020679 1.28479-13.5818043 6.9201126-4.1948662 13.5694199-8.8879776 19.886467-14.0359697.4503784-.3670292 1.0656586-.749157 1.5431137-.4225292.2801056.191618.3892899.5611687.4784546.9008293.8334961 3.1752672 1.6669998 6.3505316 2.5005035 9.5257978" fill="#808285"/></g><g><path d="m53.2247505 19.6846504c-.5400391.75-1.3299561 1.3798828-2.3798828 1.7800293-16.7401123 6.2900391-30.1900616 16.7399903-36.6501455 33.8398438-5.6499023 14.9501915-5.2099609 30.9799767-1.7600098 46.3300743-4.6298828-6.5200195-7.869873-14.1298828-9.1899414-22.1601563-3.0200193-18.3498497 4.0500488-38.1997032 18.3900156-49.2397423 9.7000732-7.4702148 20.5399151-11.0800781 31.5899639-10.5500488z" fill="#f25a7b"/></g><g><path d="m81.8793564 111.7791977c-10.6199951 9.1499023-24.5200233 13.4399414-38.739994 10.5498047 12.1599121-3.1799316 25.699955-8.1599121 34.5400429-17.0698242 9.6699219-9.75 14.1799316-24.0300293 14.2299805-37.5200195.0100098-3.8999062 3.6899414-5.4399452 6.5799561-4.6098671 2.3499754 18.4497108-1.9200441 35.9799842-16.6099855 48.6499061z" fill="#bc193c"/></g><g><path d="m66.2215729 49.6794281c-.1386185-.770031-.5724411-1.5875092-1.3470459-2.3356514-6.6489792-6.4218521-19.5810966-7.5177231-27.1700935-2.4505653-8.4109077 5.6159515-13.6641731 15.9466019-10.2869053 25.9496536.592062 1.7536087 2.2363815 5.5174713 4.478508 3.9342957 1.8189793-1.2843857 1.3038502-4.5075684 1.3449078-6.3951035.0742493-3.4137573.7406502-6.451313 1.9572296-9.62043 1.1423416-2.9757195 3.1882324-4.4660721 5.7915802-6.3063965 3.779705-2.6719017 8.4737473-3.723278 13.0319061-2.9211731 2.9057922.5113335 5.4120827 2.6026764 8.3404312 3.1915512 2.6786346.5386582 4.2093582-1.1026344 3.8594818-3.0461807z" fill="#e8e9ea"/></g><g><path d="m63.4294014 85.7892075c-4.9200439 4.3598633-11.6601563 5.9299316-18.25 3.1398926-3.5400391-1.5100098-6.6000977-4.25-8.75-7.6599121.7700195-.1901855 1.6398926-.1599121 2.5998535.1599121 14.0300293 4.6401367 27.370121-4.0600586 29.4101601-18.5300331.0699463-.4899902.1899414-.9299316.3598633-1.3200684.1900635.5302734.3400879 1.0700684.460083 1.6201172 1.8800048 8.5000038.6800537 16.8200721-5.8299599 22.5900917z" fill="#bc193c"/></g><path d="m21.7316589 114.1917343c3.916748 3.0134277 7.9691162 5.2443848 11.9093018 6.7990723 11.0205421 4.4652176 23.7212334 4.5660629 35.0799561-.3952637 6.9766846-3.2285156 9.8969727-6.0532227 11.3676758-7.4443359 1.4333496-1.472168 1.3677979-1.763916 1.185791-1.9780273-.1821289-.2138672-.4796143-.3181152-2.1680908.7338867-1.717041.9746094-4.7888184 3.3237305-11.4807129 6.0251465-11.1259537 4.2164688-22.6867371 3.7406616-32.5856934-.4233398-3.6075439-1.4772949-7.3139648-3.5666504-10.9161377-6.3840332-13.0683375-10.3212053-20.9686899-27.1646272-19.2888174-45.090088 1.858932-18.7828979 12.9121923-34.792366 31.1323242-41.7138672 9.5687256-3.7893066 20.7487793-3.802002 30.6668701-.1542969 4.9493637 1.948082 8.6292877 3.5030613 13.704834 7.5463867 4.036499 3.251709 7.479126 7.1474609 10.067749 11.4240723.1151123.1918945.2208252.3876953.3331299.5808105-2.688324 1.7160454-5.9197617 3.825695-9.3417969 6.1196289-3.6595459-6.71875-10.0021973-12.4580078-17.5905762-15.3347168-20.4341087-8.5220337-45.3779678 5.7251053-48.0895996 32.1640625-1.5898266 18.2804794 8.7766123 34.5219116 22.9910889 40.3962402 13.2051086 5.3880157 26.4069672 1.5229263 33.2844238-5.7978516.9666748-1.119873.8638916-1.3830566.6789551-1.5947266-.1849365-.2114258-.4506836-.3393555-1.6774902.3632813-3.5239563 1.8294373-14.9870605 10.3402786-30.8131104 3.5778809-12.5403471-5.4411162-21.8293371-20.021675-20.4107675-36.5480956 2.4674969-24.0613098 24.5796242-36.5628433 42.8143311-29.4128418 6.9873047 2.4973145 12.8187256 7.5722656 16.3308105 13.6472168.0290527.0510254.0511475.1044922.079834.1555176-3.230957 2.1799316-6.7895508 4.6003418-10.3295898 6.9855957-.1464844-.3227539-.2869873-.6474609-.4533691-.963623-2.0405273-3.8623047-5.6560059-7.1901855-9.9829102-8.8671875-11.6142273-4.9567986-26.0835381 3.0764046-27.6469727 18.3193359-.1326904 1.5170898-.1384277 2.9985352-.0177002 4.4299316 1.3580799 12.7502441 11.8363609 21.111145 21.9804688 19.9980469 2.4581299-.248291 4.3439941-.9301758 5.7550049-1.6203613 2.8074951-1.451416 3.885498-2.7177734 4.3770752-3.3945313.4733887-.7102051.3338623-.9428711.1489258-1.1542969-.1850586-.2114258-.4141846-.3696289-1.1477051-.0766602-.7423096.2634277-1.979248 1.0544434-4.4937744 1.970459-1.2618408.4291992-2.8681641.8383789-4.8735352.9064941-10.1411286.4401399-18.7908173-9.5898894-17.6756592-20.6621093 1.2918739-12.6055603 12.7438278-19.239193 22.3703613-15.5686035 3.7041016 1.2888184 6.7937012 3.9289551 8.6920166 7.123291.2199707.3757324.4194336.7595215.6057129 1.1472168-6.0673943 4.0656586-8.3302078 5.4890671-14.6557617 9.5515137-2.6514893 1.6889648-4.2730713 2.7973633-4.1436768 3.0566406.1212158.2441406 1.9875488-.3876953 4.8947754-1.6606445 2.9007568-1.2832031 6.8144531-3.251709 11.0427246-5.5876465 1.2972412-.7192383 2.6245117-1.4755859 3.961792-2.2504883.0664063.2756348.1345215.5478516.1983643.8330078 1.5247192 7.0300217.8580093 13.6001892-3.4591064 19.3117676-.8701172 1.168457-1.4273682 1.7834473-1.3165283 1.9057617.0749512.0876465.8173828-.3203125 1.9277344-1.3579102 4.1683502-3.8477097 6.9551163-10.7169189 5.3931885-20.3415527-.0942383-.5620117-.201416-1.1567383-.338623-1.7585449 3.7497559-2.2185059 7.5024414-4.5383301 10.8876953-6.6799316.1279297.3183594.2752686.6323242.3922119.9528809 4.5353317 12.1903915 3.6735229 28.9554977-5.7735596 40.4309082-.807251 1.065918-1.5505371 1.7924805-2.0045166 2.3383789-.4624023.5375977-.6851807.8474121-.6386719.8999023.0466309.0527344.3616943-.1530762.9237061-.5964355.5535889-.4516602 1.4033203-1.0927734 2.3304443-2.09375 9.5005493-9.4703903 11.2940063-23.4252167 9.0113525-36.5415039-.5142059-2.859314-.8507843-4.3839302-1.8398438-6.9182129 3.6207199-2.317688 5.5374756-3.5927773 9.5158691-6.2106934.3764648.8134766.7341309 1.6323242 1.0495605 2.4619141.8477783 2.2875977 1.4676514 4.5793457 1.9375 6.9592285 3.8465881 18.1823044 1.7872696 36.0403366-10.4207764 50.0480957-1.1806641 1.4716797-2.2631836 2.4616699-2.932373 3.2021484-.6811523.7285156-1.0192871 1.1386719-.9733887 1.1918945s.4748535-.251709 1.2542725-.8845215c.7675781-.6450195 1.9552002-1.5480957 3.2550049-2.9533691 2.6949463-2.6882324 6.2956543-7.0522461 9.1495361-13.3483887 4.2082672-9.0735397 6.2420044-21.8039627 3.2076416-37.765625-.4238281-2.4157715-1.046875-4.9416504-1.9075928-7.3947754-.3713379-1.0358887-.7980957-2.0585938-1.256958-3.0720215 1.887085-1.2434082 3.5262451-2.3269043 4.9682617-3.2866211 2.2453537 1.1671143 5.0299683 2.2014503 7.4360352 2.947998.8161621.2434082 1.7883301.5236816 2.9666748.4597168 1.1988525-.0744629 2.239502-.53125 3.1062012-.9599609 2.6426086-1.3341331 18.4598694-10.3246536 20.2067871-14.1259766.5063477-1.0524902.6870117-2.0930176.760498-3.0021973.0270996-.482666.0819092-.8100586-.0092773-1.5612793-.0887451-.6789551-.3343506-1.3034668-.715332-1.8005371-.3328857-.4304199-.7579346-.7592773-1.2138672-.9931641-.2631989-.1366844-.4257813-.191412-.5288086-.2351074l-.1254883-.0454102c-.1612549-.0551758-.3028564-.1018066-.4245605-.1333008-.4954834-.1264648-.9588623-.244873-1.3925781-.3554688-1.3606873-.3370171-3.6128159-.8668499-5.0007324-.9248047.0021973-.0791016.0074463-.1491699.0064697-.237793-.0167236-1.5523224-.5532761-4.2047462-.8800049-5.7387695-.203186-.9382124-.1139297-.5429907-.4185791-1.8491211-.1365967-.529541-.2441406-1.1303711-.4786377-1.6132813-.2310791-.4851074-.5155029-.8391113-.9194336-1.1379395-.3468018-.253418-.8289795-.4404297-1.2888184-.4790039-.4611816-.0405273-.9194336.0253906-1.4035645.2163086-.4790039.1816406-.9952393.5361328-1.4890137.9494629-7.8293533 6.1993675-13.8935928 10.4618549-18.3206787 13.5119629-.1003723.0655937-1.4673157.9589043-1.3669434.8933105-.1196289.1252441-.0782471.357666-.125.5290527-.0505371.3671875-.1009521.7324219-.151123 1.0959473l-.069458.6540527c-.4714355 4.5883789-.3762207 8.5791016-.0966797 10.6855469-1.4261475.8483887-3.0319824 1.8293457-4.8422852 2.9641113-.0964355-.171875-.1860352-.3464355-.28479-.5175781-2.6872559-4.6218262-6.2918701-8.8417969-10.5565186-12.387207-5.5926361-4.5998116-10.2362366-6.4140778-10.6444092-6.6486816-1.2492676-.6398926-2.5825195-1.1030273-3.887207-1.6337891-10.5235596-4.052002-22.7495117-4.2011719-33.1420898-.1882324-19.9038858 7.3427471-31.8841964 24.781155-33.8704826 44.8400882-1.8556304 19.7768021 7.0961082 37.7907639 20.9508049 48.5449219zm79.2189942-85.2155762.1286621-.5908203.0605469-.1601563c.0054932-.0588379.0577393-.0825195.1168213-.0981445l.0777588-.0290527.0374756-.0136719.0186768-.0068359.0718994-.0393066c.7628174-.4309082 1.5357666-.8676758 2.3116455-1.3059082 5.9815598-3.4648266 10.992691-6.9604645 15.7983398-10.878418l.3945313-.3234863c.0913086-.0749512.0742188-.0637207.0742188-.0637207l.0026855-.0061035.0112305-.0270996c.0083008-.0202637.0340576-.0493164.0587158-.046875.0245361.0026855.0424805.0205078.0715332.048584l.0106201.0114746c.0028076.0058594.0013428-.0046387.0078125.0146484.3758621 1.2384262.7707062 2.5009499 1.1971436 3.7104492.4952393 1.4040527.8953857 2.338623 1.2337646 2.9541016.2918701.5310059.5361328.8156738.7572021.9685059.0904541.251709.3320313.5351563.894165.8945313 1.1492844.7348309 3.3076324 1.5665054 4.605957 2.048584.4060059.1472168.8398438.3044434 1.3037109.4726563.1182861.0415039.2156982.0849609.2971191.1206055l.0559082.026123c-.0059814-.0004883-.0021973.0036621-.0021973.0036621l.0109863.0129395c.0115967.015625.0184326.0324707.0227051.0495605-.0150146.2329102-.1016846 1.6130371-.5223389 2.3144531-.5456543 1.177599-15.6831207 11.5503769-15.8684082 11.6726074-.7562256.487793-1.5095215.9736328-2.2530518 1.4533691-.7093506.4416504-1.3286133.7504883-1.8774414.8469238-1.1239014.2036133-2.9366455-.3066406-4.361084-.5512695-4.3895111-.9389877-3.7341537-.7978554-4.3443604-.9321289 2.6450195-1.7724609 4.4790039-3.0424805 5.7227783-3.9855957 2.7655029-2.0695801 2.6318359-2.5822754 2.3480225-3.067627-.2838135-.4855957-.6557617-.8566895-3.8282471.5974121-1.4556885.6779785-3.517334 1.7629395-6.392334 3.4421387.3990482-2.1701661.9084476-5.6606446 1.7468265-9.5371095z" fill="#202020"/></g></svg>