<svg id="Layer_1" enable-background="new 0 0 135 135" height="512" viewBox="0 0 135 135" width="512" xmlns="http://www.w3.org/2000/svg"><g><g><path d="m93.7686005 127.5020142c-6.6052399 2.0976563-13.8991394 2.6397705-21.0782776 2.90065-11.7809067.4279785-23.6034698.1778107-35.3321571-.7510223-1.0226517-.0835571-2.0556831-.1773071-3.0991631-.2817535-7.7947521-.8244019-15.798275-2.5358429-20.1808319-7.252388-.5426292-.584404-1.0330973-1.2518616-.9600458-1.9616165.1565466-1.4505768 2.4104319-2.1598129 4.2991257-2.5144348 9.1513233-1.7012558 18.7095585-2.2122955 28.1008625-1.4923553l36.7096176-2.1496277c3.6730042-.239975 9.8712692-.2608719 14.4730377.7617188 2.7130203.6154938 4.8834763 1.5861053 5.645195 3.0993576 2.0034551 3.9859007-3.2973643 7.9616163-8.577363 9.6414717z" fill="#f9b19d"/></g><g><path d="m99.7789841 73.0949173c-.5947266 5.0400772-1.4295654 9.788208-2.7025757 14.2229919-2.264328 7.8887558-5.9269485 14.8486786-12.1461029 20.6815567-8.1078491 7.6069946-19.9825668 11.7289429-31.48172 11.0191956-9.4748001-.5844116-19.4921684-5.2800674-25.126976-12.6990509-1.074749-1.3986053-1.9825706-2.9011536-2.7025738-4.4872665-.0834961-.1875-.1669922-.3648071-.2295971-.5528183-1.2730141-2.9740143-1.8991375-6.1146393-2.4834843-9.297554-1.1269741-6.1773071-2.0556202-12.6261902-2.7965126-19.3563156-.5321846-4.8001022-2.6921921-12.1044502 1.7843704-15.297554 6.3025856-4.4867554 17.6660786-.9390297 25.3043461-.6363792 10.987793.4483681 20.5251999 3.0570641 31.5652161.2710609 3.5269623-.8865509 7.3251801-2.0869598 10.8416901-2.0344772h.0104446c1.8469772.0101891 3.6104584.3856964 5.217392 1.3252373 2.6295853 1.5443268 4.0487061 4.1423225 4.7165451 7.1163368.7095566 3.0993575.6052322 6.6053008.229538 9.7250365z" fill="#ffbeaa"/></g><g><path d="m89.6050644 54.9283066c-5.0503922 4.2156906-10.4034424 8.1598167-16.758255 10.1214294-7.4399414 2.2958603-15.2243118 1.4714737-22.8312454.6990509-6.0313339-.6047897-17.8644066-3.0152855-21.2557106 3.6628723-1.9512997 3.8401871-1.3460655 8.9424286-1.304348 13.1163406.0417786 4.8418808.1043854 9.6730652.1565475 14.514946.0208893 2.0242844-.9078217 3.4432755-2.2226143 4.2365799-1.2730141-2.9740143-1.8991375-6.1146393-2.4834843-9.297554-1.1269741-6.1773071-2.0556202-12.6261902-2.7965126-19.3563156-.5321846-4.8001022-2.6921921-12.1044502 1.7843704-15.297554 6.3025856-4.4867554 17.6660786-.9390297 25.3043461-.6363792 10.987793.4483681 20.5251999 3.0570641 31.5652161.2710609 3.5269623-.8865509 7.3251801-2.0869598 10.8416901-2.0344772z" fill="#ffd3c7"/></g><g><path d="m99.7789841 73.0949173c-.5947266 5.0400772-1.4295654 9.788208-2.7025757 14.2229919-2.264328 7.8887558-5.9269485 14.8486786-12.1461029 20.6815567-8.1078491 7.6069946-19.9825668 11.7289429-31.48172 11.0191956-9.4748001-.5844116-19.4921684-5.2800674-25.126976-12.6990509.1356583-.0208893.2817593-.0208893.4278622-.0208893 14.7339077.0626678 31.0538578 1.2309799 44.2538834-6.4071045 12.1252136-7.0123978 19.5026093-19.1061478 21.4748001-32.8068924.4382401-3.0259857 2.7651825-4.080162 5.0712891-3.7148438.7095584 3.0993577.605234 6.605301.2295398 9.7250367z" fill="#f9b19d"/></g><g><path d="m93.7686005 127.5020142c-6.6052399 2.0976563-13.8991394 2.6397705-21.0782776 2.90065-11.7809067.4279785-23.6034698.1778107-35.3321571-.7510223-1.0226517-.0835571-2.0556831-.1773071-3.0991631-.2817535.4591331-2.118042 2.0974007-3.9130478 4.8939171-3.8819733 11.8121796.1253433 23.6243629-.6883469 35.3426018-2.1598129 7.5652161-.9497299 16.8313141-2.7651138 22.205246-8.5669174 2.7130203.6154938 4.8834763 1.5861053 5.645195 3.0993576 2.003456 3.9859008-3.2973634 7.9616164-8.5773621 9.6414718z" fill="#f2a694"/></g><g fill="#202020"><path d="m90.6496048 104.0299606c.5228271.3061523 1.4116211.6396484 2.9089355.8686523 7.8211823 1.0170593 17.3215485-3.5600586 23.0292358-9.4438477 6.6360931-6.965004 7.987709-15.1990585 5.5285034-21.559082-1.0039673-2.722168-2.8289795-5.0898438-4.9265747-6.7695313-3.6591873-2.914032-8.2141418-4.23423-12.5032349-4.1083984-1.8529663.0571289-3.2460938.3535156-4.1348267.6464844-.1339722-.7290039-.3078613-1.4677734-.5408325-2.215332-1.9700928-6.0990982-6.9940262-8.3604774-13.3768921-7.5410156-1.9174805.2412109-3.8005981.6816406-5.6662598 1.1469727-1.8825684.4702148-3.6974487.9365234-5.5869141 1.2109375-7.1394043 1.1440048-24.403019-.7211723-30.6942177-1.4643555-4.1541138-.4824219-8.4371948-1.340332-12.9189434-1.4951172-2.2390747-.0668945-4.5563354.0322266-6.8798828.6621094-4.2076416 1.165123-6.956255 3.584301-7.5080566 7.8623047-.6062603 4.4214478 2.9143105 27.2524185 3.8557129 32.2382813 1.6479416 8.5772705 4.7068386 15.1866913 13.8507061 21.012207-.1600952-.003418-.3143311-.0078125-.477478-.0102539-8.2296772-.0888977-16.5538368 1.0250778-18.9940166 1.6635742-.6491089.1811523-1.3136597.3994141-2.0087891.7885742-.8613892.4912109-1.644043 1.2954102-1.8114624 2.309082-.2271118.9926758.2772827 2.0869141.8959351 2.8305664.2455444.3164063.4891968.5585938.7376709.8051758.2496338.2470703.493042.5058594.7530518.7436523 5.9013615 5.2076797 15.6969299 6.5755692 23.5698223 7.2626877 2.7114258.2426758 5.4122925.4472656 8.0766602.6079102 10.6594849.6547852 20.7187538.6303711 28.5289345.2924805 8.18396-.3370972 20.0357666-1.3642578 26.461731-6.3041916 1.0570679-.824707 2.0313721-1.7670898 2.7848511-2.9667969 6.1228943-9.5462494-12.0205917-12.0210419-21.8502808-10.2592773 2.0010986-1.4399414 3.7315063-2.9472656 5.1831055-4.4375 1.4683227-1.5009766 2.6813354-2.9702149 3.7138061-4.3769532zm-9.8232422 10.6186524c1.9914017.4219818 7.7896729.5260773 13.2504883 1.4833984 3.759819.6853256 8.3597794 1.7566071 6.2922974 4.9277344-.4223633.6479492-1.1005859 1.3154297-1.9134521 1.9208984-9.2760468 6.8396988-40.9681854 5.8349533-52.4362831 5.3539963-9.3266335-.3803101-23.1598511-.7438126-29.9450665-6.2929611-.404541-.3818359-.8933105-.7885742-1.2094116-1.1582031-.1880493-.2158203-.281189-.3486328-.2630615-.574707.0187378-.2133789.1746216-.3657227.3617554-.4921875 2.5740662-1.6122971 15.411747-2.8973541 19.6824322-3.1611328 1.0280762-.059082 1.9885864-.1035156 2.8917236-.1391602 1.8250732.9672852 3.6815186 1.7519531 5.5222168 2.4003906 2.2919312.8139648 4.5878296 1.3647461 6.838623 1.7050781 10.5933342 1.5093536 21.4038124-1.0622482 29.8935585-6.4511719.1006469.1796875.3544921.3422852 1.0341796.4780274zm3.732605-8.640625c-6.1500244 5.9095993-14.1422119 9.4835968-22.6186562 10.7128906-1.7688599.2163086-3.6131592.4086914-5.52948.3930664-.9578247.034668-1.9312744-.0463867-2.9197998-.0791016-5.4650764-.5636063-10.3105659-1.8166656-15.2427979-4.7524414-8.5408211-5.0754089-11.4544582-10.9222794-13.036314-18.9892578-.7111645-3.6845016-5.3189678-29.9539566-3.3601074-33.1821289.9316864-1.538578 2.6471424-2.0866737 2.7515259-2.1533203.3914795-.2006836.8345337-.3256836 1.2765503-.4550781 1.7741089-.512207 3.7693481-.6513672 5.7989502-.6162109 4.0872173.0742188 8.2921734.8344727 12.6539898 1.2734375.1006889.0103683 23.1819267 2.3469048 31.50214.8061523 2.0179443-.3442383 3.9713135-.8999023 5.7883301-1.4052734 7.1900253-2.0017509 13.8463364-2.9102402 16.5518188 4.5195313 1.9560013 5.5030518.7501831 14.0501556-.3797607 20.6635742-.5004883 2.9213867-.866394 4.5292969-.7196655 4.5712891.1229858.0366211.7550659-1.5004883 1.5217896-4.3974609 1.2677383-4.7982864 2.8717957-13.0209579 2.0713501-18.5166016.901062.0014648 2.2512207-.0078125 3.9495239.2001953 6.2923126.7672806 12.4418106 4.3119507 14.3139038 10.4194336 1.6587753 5.1350174.3514709 11.8334732-5.2721558 17.6030273-4.7704086 4.923439-11.9298706 8.7249527-19.9783325 9.3979492-.6985474.0390625-1.2524414.0629883-1.7041016.0874023.6578979-1.0161133 1.2271729-1.987793 1.7161255-2.890625 1.4092407-2.6694336 2.210022-4.8120117 2.7410278-6.4516602.5311279-1.6420898.7734985-2.7963867.9058228-3.5922852.234375-1.5991211.0031738-1.7817383-.2649536-1.859375-.2716064-.0795898-.5588989-.0341797-1.2460938 1.3803711-.3577271.7011719-.809082 1.7470703-1.5146484 3.2397461-.7047119 1.4912109-1.6465454 3.4423828-3.1182861 5.8486328-1.4951782 2.385254-3.5255127 5.2441407-6.6376953 8.2241212z"/><path d="m50.384037 17.9484177c-.2978973-4.1308985-1.8356934-7.8551321-4.4158936-10.9399424-1.8847046-2.2231445-3.5516357-3.3076169-4.7014771-3.9204099-1.1636351-.6074219-1.8635863-.7294922-2.2767333-.6884766-.4144897.0429688-.5599976.2685547-.694458.5151367-.1343994.2470703-.237793.496582-.0847168.8652344.151062.3691404.5690918.8403318 1.3742676 1.6455076.7955322.8076172 2.0186768 1.9394531 3.4239502 3.890625 1.3665771 1.9423828 2.9975586 4.7807617 3.3122559 8.9135752.1700439 2.2446289-.109436 5.2353516-1.3632813 8.1123047-1.5154114 3.67243-8.2740173 9.9725761-1.0653076 18.7412109 1.4963379 1.7753906 2.7168579 2.5249023 2.8994751 2.3432617.2189331-.2070313-.5969849-1.3291016-1.5804443-3.2226563-6.303669-12.2586822 6.2592925-12.0582847 5.1723632-26.255371z"/><path d="m63.9653969 21.4508591c-2.9019051 4.9006805-13.8511658 14.4751396-4.2821045 24.4780273.9319458.9130859 1.550293 1.2353516 1.9561157 1.315918.4070435.0791016.6138916-.0917969.8164063-.2871094.4337158-.4018555.6220093-.7944336-.4746704-2.7641602-5.2333717-10.4564819.5539436-11.8879356 5.2851601-20.9580078 1.8681564-3.5925426 2.2167282-7.5702467 1.1429443-11.3330088-1.0111694-3.5351563-3.0864868-6.2148438-4.9021034-7.6430664-1.8167114-1.4628904-3.2102661-1.8642576-3.3276367-1.6513669-.1653442.2666016.9051514 1.1259766 2.2003784 2.7656248 3.4908103 4.2862711 4.7673835 10.7063837 1.5855102 16.0771494z"/><path d="m78.3674393 27.6984177c-2.0134506 5.3334618-7.9700394 9.6137123-3.4382324 17.8579102.8480835 1.5180664 1.5353394 2.331543 1.7860718 2.2255859.2669067-.1123047.0579834-1.1743164-.3032227-2.7861328-1.8896027-8.9068642 2.7912521-9.1457367 5.6311035-15.7456055.5518799-1.2099609.9107056-2.3930664 1.1429443-3.440918.8386841-3.8491211.3949585-6.8671875-.159668-8.9946289-.5971069-2.1416025-1.3591919-3.4570322-1.9609985-4.2631845-1.241272-1.5986328-1.7561646-1.3251953-2.21521-1.0419922-.4959106.3032227-.8172607.640625-.3713989 2.3076172.208252.8364258.5809326 2.027832.885498 3.8159189.2686157 1.7807617.5192261 4.2114258-.1536255 7.2924805-.1860351.8388671-.4459838 1.7895507-.8432616 2.7729492z"/></g></g></svg>