<svg id="Layer_1" enable-background="new 0 0 135 135" height="512" viewBox="0 0 135 135" width="512" xmlns="http://www.w3.org/2000/svg"><g><g><path d="m131.4867554 37.1943741c-.0510406.8259392-.1122284 1.6605797-.1835632 2.5048409-.5711517 7.2520294-1.0199127 14.5136795-1.325943 21.7844887-.3161621 7.0550537-.4997406 14.1100998-.5609283 21.1651535-.0305634 2.8889771.2854614 6.1717377.5301971 9.5108871.2204742 3.008049-.5585327 5.9783478-2.417572 8.5593262-2.8928146 4.0161819-7.0003204 4.156662-11.7313614 3.9523315-5.7100143-.2466125-11.4255371-.3833237-17.1416931-.4167099-16.1655884-.1030731-32.3209076.4878616-48.4762917.7695923-6.9047432.1122284-13.8095436.187355-20.7143478.1122284-.9892807-.0091629-6.986351.3096695-12.36129.3660126-4.6405725.04673-8.8222361-.1030655-8.8834276-.8254776-1.3870611-14.8045654-2.3253598-29.6462326-2.9372802-44.506691-.4487625-10.7797814-4.4876239-29.7964898 2.5293536-39.3000336 1.3564968-1.8479366 3.090292-3.189682 5.0281429-4.1562538 2.3967609-1.200655 5.1097536-1.829155 7.8736658-2.1576061 2.2030392-.2533236 4.4468498-.3188305 6.5682163-.3096685 6.0379047.0284014 12.0757465.2157602 18.1135921.4127398 3.8144455.11269 7.6289597.2441616 11.443409.3380699 20.0717964.5066481 40.1435966 1.022459 60.2153893 1.5291061 14.7784729.3751754 15.2170258 9.7944316 14.4317322 20.6676635z" fill="#27aae1"/></g><g><path d="m70.0608978 28.6163197c-2.7486801.1066151-8.1887093.3428497-9.8973732 2.8838577-1.1285172 1.6782551-.4165192 5.5052929-.2633705 7.4166393.4573784.991497 1.6326523 1.4664726 2.7185898 1.7893906 5.4981232 1.6349449 11.3577728 1.7265549 17.1175079 1.6559715 11.6973801-.1433411 23.3759232-.8976517 35.0474167-1.6516838.4208145-.0271873.8591156-.0593338 1.2221603-.2637062.6792145-.3823624.8727264-1.2171745 1.0017166-1.9581566.5845947-3.3583145.8252487-7.5264053-2.1607132-9.4001408-1.4683685-.9214268-3.3347092-.9788742-5.0933533-1.0002594-13.232643-.1609077-26.4698028.0152054-39.6925811.5280877z" fill="#d1d3d4"/></g><g><path d="m72.5351791 63.8087502c2.1196671.7825584 4.69841-.3073845 5.7800217-2.3022423 1.081604-1.9948349.6739655-4.6455574-.8258057-6.3442764-3.8749847-4.3890152-11.2705536-3.0516815-8.7853165 3.8392143.6498795 1.8019027 1.9463197 4.1114616 3.8311005 4.8073044z" fill="#e6e7e8"/></g><g><path d="m90.2641602 63.8087502c2.1196671.7825584 4.69841-.3073845 5.7800217-2.3022423 1.081604-1.9948349.6739655-4.6455574-.8258057-6.3442764-3.8749847-4.3890152-11.2705536-3.0516815-8.7853165 3.8392143.6498794 1.8019027 1.9463196 4.1114616 3.8311005 4.8073044z" fill="#e6e7e8"/></g><g><path d="m107.9931412 63.8087502c2.1196671.7825584 4.69841-.3073845 5.7800217-2.3022423 1.081604-1.9948349.6739655-4.6455574-.8258057-6.3442764-3.8749847-4.3890152-11.2705536-3.0516815-8.7853165 3.8392143.6498795 1.8019027 1.9463196 4.1114616 3.8311005 4.8073044z" fill="#e6e7e8"/></g><g><path d="m72.5351791 79.0540009c2.1196671.7825623 4.69841-.3073883 5.7800217-2.3022461 1.081604-1.9948349.6739655-4.6455536-.8258057-6.3442688-3.8749847-4.3890228-11.2705536-3.0516891-8.7853165 3.8392105.6498795 1.8019027 1.9463197 4.1114578 3.8311005 4.8073044z" fill="#e6e7e8"/></g><g><path d="m90.2641602 79.0540009c2.1196671.7825623 4.69841-.3073883 5.7800217-2.3022461 1.081604-1.9948349.6739655-4.6455536-.8258057-6.3442688-3.8749847-4.3890228-11.2705536-3.0516891-8.7853165 3.8392105.6498794 1.8019027 1.9463196 4.1114578 3.8311005 4.8073044z" fill="#e6e7e8"/></g><g><path d="m107.9931412 79.0540009c2.1196671.7825623 4.69841-.3073883 5.7800217-2.3022461 1.081604-1.9948349.6739655-4.6455536-.8258057-6.3442688-3.8749847-4.3890228-11.2705536-3.0516891-8.7853165 3.8392105.6498795 1.8019027 1.9463196 4.1114578 3.8311005 4.8073044z" fill="#e6e7e8"/></g><g><path d="m72.5351791 94.2992477c2.1196671.7825623 4.69841-.3073883 5.7800217-2.3022385 1.081604-1.9948349.6739655-4.6455612-.8258057-6.3442764-3.8749847-4.3890152-11.2705536-3.0516815-8.7853165 3.8392105.6498795 1.8019028 1.9463197 4.1114655 3.8311005 4.8073044z" fill="#e6e7e8"/></g><g><path d="m90.2641602 94.2992477c2.1196671.7825623 4.69841-.3073883 5.7800217-2.3022385 1.081604-1.9948349.6739655-4.6455612-.8258057-6.3442764-3.8749847-4.3890152-11.2705536-3.0516815-8.7853165 3.8392105.6498794 1.8019028 1.9463196 4.1114655 3.8311005 4.8073044z" fill="#e6e7e8"/></g><g><path d="m107.9931412 94.2992477c2.1196671.7825623 4.69841-.3073883 5.7800217-2.3022385 1.081604-1.9948349.6739655-4.6455612-.8258057-6.3442764-3.8749847-4.3890152-11.2705536-3.0516815-8.7853165 3.8392105.6498795 1.8019028 1.9463196 4.1114655 3.8311005 4.8073044z" fill="#e6e7e8"/></g><g><path d="m131.4867554 37.1943741c-1.9480591-3.2364082-4.4264221-6.257513-6.9354248-9.1375275-2.5701294-2.9739227-5.0179291-5.05686-9.0465851-6.0046501-3.998024-.9473305-8.2918625-1.14431-12.3714981-1.4164143-17.7056046-1.1818733-35.4621887.11269-53.1779976.4690838-4.1714554.0842896-5.6911087-3.6683884-4.5590248-6.4453316 3.8144455.11269 7.6289597.2441616 11.443409.3380699 20.0717964.5066481 40.1435966 1.022459 60.2153893 1.5291061 14.7784728.3751756 15.2170257 9.7944318 14.4317321 20.6676637z" fill="#29bbef"/></g><g><path d="m127.7942657 101.8263245c-.2535782.3017044-.5207977.5925446-.8002701.8709335-3.3431625 3.3302612-8.4664841 2.0788422-12.8534546 1.9056702-5.1588211-.2036514-10.3212662-.3153305-15.4846497-.3482361-16.1655884-.1030731-32.3209076.4878616-48.4762917.7695923-6.9047432.1122284-13.8095436.187355-20.7143478.1122284-.9892807-.0091629-6.986351.3096695-12.36129.3660126-.795496-1.1067429-1.4788799-2.2794571-2.0908003-3.4521637-6.4356222-12.2713318-6.1704359-26.6255951-6.29282-39.947319-.1428021-15.1893617.8362705-30.3594857 4.0897819-45.2762834.0102091-.0375633.0204182-.0751266.0306273-.11269.8873158-3.7338953 5.2423468-4.0060005 7.8736658-2.1576061 1.4483166 1.0224581 2.3764057 2.6830368 1.9276428 4.7563534-3.3963127 15.5833206-3.9878159 31.4662285-3.6512909 47.3120384.1325932 6.7453766.1632214 13.6130676 1.4585247 20.2737045.7138863 3.6871719 2.5497723 13.0876465 6.9557228 15.4985733-.3671513-2.5611801 1.25453-5.3660736 4.8649845-5.3005676 2.1418457.04673 4.2938385.0939102 6.4356232.1502609 1.937851-2.8053513 3.2637215-6.0229797 3.885849-8.1902008 2.070446-7.2428665 2.519207-14.9827652 2.8047523-22.441391.2958107-7.6272087.0713997-15.2635727-.5303116-22.8724556-.5303726-6.8108902-.1428032-15.5924816-3.6819191-21.7464695-3.0800819-5.3385849 5.731884-10.0761557 8.8018188-4.7380276 3.9470406 6.8580704 4.0592804 15.2548676 4.7731667 22.8257294.8159752 8.8186989 1.1831284 17.6845779.8363304 26.5312233-.3671494 9.7385406-.7139473 21.484436-5.3545189 30.8849106 14.7071304.3563995 29.4141998.7224121 44.1110535.8067017 8.6896439.0467224 18.8377533-.4127426 25.3549194-6.4828949 6.9354324-6.4732819 6.1398697-17.505928 6.0888901-25.8747864-.0102081-2.6734123 1.9684143-4.1557922 4.1815948-4.4654617-.3161621 7.0550537-.4997406 14.1100998-.5609283 21.1651535-.0305634 2.8896332.2855988 6.1732254.530365 9.5131607.1446533 1.8758392.8038788 3.4617157.2487793 5.3003159-.4743957 1.5713196-1.3118743 3.0679092-2.4011993 4.3639908z" fill="#1ca2d1"/></g><g><path d="m48.4253845 102.6316757c-.1734276 3.2084656-.4284058 6.585968-2.3457794 9.2222748-1.9072838 2.6175308-5.150589 4.0435638-8.353054 4.9908981-7.6391697 2.2423477-15.227293 1.7641068-18.6745281-6.0697021-1.6318913-3.7059479-1.8460941-7.8241806-2.0092525-11.8398056-.6629658-16.1925735-1.030117-32.3856125-1.0811005-48.5878143-.0102091-.619339-.0102091-1.2478409-.0102091-1.8667183-.0204182-8.4155807.0204182-16.8306999.2039938-25.23666.1019669-4.6629028.2549782-13.1907129 4.130619-16.6245594 1.3055134-1.1539297 3.0495167-1.7357049 4.7731647-2.1763878 5.497324-1.3793101 11.7391624-1.3980918 16.4511337 1.6417961 2.8047485 1.819993 4.6609917 4.3715568 5.8848953 7.3175359 1.9276428 4.5877752 2.3050041 10.1132631 2.396759 15.1609602.438553 24.69245-.0203551 49.4036774-1.3666419 74.0681824z" fill="#4cc3ed"/></g><g><path d="m47.3952675 13.4025335c-1.3055153.3563948-2.6721573.5533733-3.7532578.6005573-5.7727203.2624855-10.882473 2.7957258-14.3603344 7.0738325-3.1515446 3.8836899-4.7221813 8.6592827-5.3443108 13.4252548-.5915661 4.4842491-.3161697 9.4187965-3.4167328 13.2186584-1.0811005 1.313343-2.6007557 2.4109268-4.3753853 2.6079063-.0611935.0096207-.122385.0096207-.1835766.0187836-.0102091-.619339-.0102091-1.2478409-.0102091-1.8667183-.0204182-8.4155807.0204182-16.8306999.2039938-25.23666.1019669-4.6629028.2549782-13.1907129 4.130619-16.6245594 1.3055134-1.1539297 3.0495167-1.7357049 4.7731647-2.1763878 5.497324-1.3793101 11.7391624-1.3980918 16.4511337 1.6417961 2.8047488 1.8199937 4.6609919 4.3715574 5.8848956 7.3175365z" fill="#57d5f7"/></g><g fill="#202020"><path d="m78.7071075 53.8513069-.7598267-.8120117c-.2789917-.2431641-.5701294-.4731445-.8579712-.7036133-2.3605347-1.7416992-5.5881958-2.2827148-8.017395-.9863281-1.0738525.6049805-1.9425049 1.5488281-2.3695679 2.5742188-.2310181.4975586-.3102417.9985352-.4311523 1.4780273-.0324707.4570313-.0498047.9018555-.0545044 1.3276367.0930786.7885742.1941528 1.5341797.4189453 2.1166992.1876831.6225586.3920288 1.1508789.6251221 1.6064453.9124146 1.8496094 1.9776611 2.9394531 2.8635254 3.5009766.8880615.5659218 1.5342407.5976601 1.8688965.4853554.34552-.1171875.4421997-.3676758.5419312-.6298866.0997925-.262207.1661377-.5258789.1027832-.8183594-.0615234-.2978516-.2364502-.6025391-.5639648-1.1567383-.3218384-.5458984-.8388672-1.3950195-1.3648682-2.8613281-.1397095-.3681641-.2418213-.765625-.3247681-1.1630859-.1350708-.4155273-.1256714-.8071289-.180481-1.2255859.0272827-.1821289.0429688-.3666992.0448608-.5615234.0759277-.1391602.0800781-.3256836.1550903-.4511719.1208496-.2685547.3158569-.4418945.602417-.6381836.3379517-.1899414.9310303-.324707 1.6513062-.2661133.7193604.0561523 1.546814.3110352 2.3163452.7680664l.5673218.3769531.5252075.4584961c.935936.8336716 1.4480362 2.218399 1.3460693 3.503418-.0657349.8476563-.3795166 1.5820313-.8920288 2.171875-.5125732.5859375-1.15625 1.0004883-1.7471924 1.2421875-1.1956177.4946289-2.1361084.3354492-2.2380981.6210938-.0465698.1206055.121582.3554726.5504761.573246.4238281.2202148 1.1213989.4116211 2.0056763.3583984.8779907-.0537109 1.9333496-.3647461 2.9293213-1.0820351.9962769-.7041016 1.8792725-1.9360352 2.2219238-3.3525391.3596802-1.4160156.2627563-2.9916992-.3140259-4.4389648-.2852783-.716797-.7078857-1.432129-1.2213745-2.0156251z"/><path d="m96.4361115 53.8513069-.7598267-.8120117c-.2789917-.2431641-.5701294-.4731445-.8580322-.7036133-2.3605347-1.7416992-5.5881348-2.2827148-8.017334-.9863281-1.0738525.6049805-1.9425049 1.5488281-2.3695679 2.5742188-.2310181.4975586-.3103027.9985352-.4311523 1.4780273-.0325317.4570313-.0498047.9018555-.0545654 1.3276367.0930786.7885742.1942139 1.5341797.4189453 2.1166992.1877441.6225586.3920288 1.1508789.6251831 1.6064453.9123535 1.8496094 1.9776611 2.9394531 2.8634644 3.5009766.8881226.5659218 1.5343018.5976601 1.8689575.4853554.345459-.1171875.4421997-.3676758.5419312-.6298866.0997314-.262207.1660767-.5258789.1027222-.8183594-.0614624-.2978516-.2364502-.6025391-.5639038-1.1567383-.3218994-.5458984-.8388672-1.3950195-1.3648682-2.8613281-.1397095-.3681641-.2418213-.765625-.3247681-1.1630859-.1350708-.4155273-.1257324-.8071289-.180542-1.2255859.0273438-.1821289.0430298-.3666992.0449219-.5615234.0758667-.1391602.0800781-.3256836.1550293-.4511719.1208496-.2685547.315918-.4418945.602417-.6381836.3379517-.1899414.9310913-.324707 1.6513062-.2661133.7194214.0561523 1.546875.3110352 2.3164063.7680664l.5673218.3769531.5252075.4584961c.9574051.8527908 1.4454498 2.2513084 1.3460083 3.503418-.0657349.8476563-.3795166 1.5820313-.8920288 2.171875-.5125122.5859375-1.15625 1.0004883-1.7471313 1.2421875-1.1956177.4946289-2.1361694.3354492-2.2380981.6210938-.0466309.1206055.121582.3554726.5504761.573246.4237671.2202148 1.1213989.4116211 2.0056763.3583984.8779297-.0537109 1.9333496-.3647461 2.9293213-1.0820351.9962158-.7041016 1.8792114-1.9360352 2.2219238-3.3525391.3596802-1.4160156.2626953-2.9916992-.3140259-4.4389648-.2852787-.716797-.7078861-1.432129-1.2213748-2.0156251z"/><path d="m114.1650543 53.8513069-.7597656-.8120117c-.2790527-.2431641-.5701904-.4731445-.8580322-.7036133-2.3605347-1.7416992-5.5881348-2.2827148-8.017395-.9863281-1.0737915.6049805-1.9424438 1.5488281-2.3695679 2.5742188-.2310181.4975586-.3102417.9985352-.4310913 1.4780273-.0325317.4570313-.0498657.9018555-.0545654 1.3276367.0930786.7885742.1941528 1.5341797.4189453 2.1166992.1876831.6225586.3920288 1.1508789.6251221 1.6064453.9124146 1.8496094 1.9777222 2.9394531 2.8635254 3.5009766.8880615.5659218 1.5343018.5976601 1.8688965.4853554.34552-.1171875.4421997-.3676758.5419922-.6298866.0997314-.262207.1660767-.5258789.1027222-.8183594-.0614624-.2978516-.2364502-.6025391-.5639648-1.1567383-.3218384-.5458984-.8388062-1.3950195-1.3648682-2.8613281-.1396484-.3681641-.2417603-.765625-.324707-1.1630859-.1351318-.4155273-.1257324-.8071289-.180542-1.2255859.0272827-.1821289.0430298-.3666992.0449219-.5615234.0758667-.1391602.0800171-.3256836.1550293-.4511719.1208496-.2685547.3158569-.4418945.602417-.6381836.3379517-.1899414.9310303-.324707 1.6513062-.2661133.7193604.0561523 1.546814.3110352 2.3163452.7680664l.5673218.3769531.5252075.4584961c.3234253.2880859.5678711.609375.7867432.9916992.4276123.7568359.6257324 1.6748047.5593262 2.5117188-.0657349.8476563-.3795166 1.5820313-.8920288 2.171875-.5125122.5859375-1.15625 1.0004883-1.7471313 1.2421875-1.1956787.4946289-2.1361694.3354492-2.2380981.6210938-.0466309.1206055.121521.3554726.550415.573246.4238281.2202148 1.12146.4116211 2.0056763.3583984.8779907-.0537109 1.9334106-.3647461 2.9293213-1.0820351.9962769-.7041016 1.8792725-1.9360352 2.2219238-3.3525391.3597412-1.4160156.2627563-2.9916992-.3139648-4.4389648-.2852788-.716797-.7079472-1.432129-1.221436-2.0156251z"/><path d="m78.7071075 69.0964279-.7598267-.8120117c-.2789917-.2426758-.5701294-.4731445-.8579712-.7036133-2.3605347-1.7416992-5.5881958-2.2827148-8.017395-.9863281-1.0738525.6049805-1.9425049 1.5493164-2.3695679 2.5742188-.2310181.4975586-.3102417.9985352-.4311523 1.4785156-.0324707.456543-.0498047.9013672-.0545044 1.3271484.0930786.7885742.1941528 1.5341797.4189453 2.1166992.1876831.6225586.3920288 1.1508789.6251221 1.6064453.9124146 1.8500977 1.9776611 2.9394531 2.8635254 3.5009766.8880615.565918 1.5342407.5976563 1.8688965.4853516.34552-.1166992.4421997-.3671875.5419312-.6298828.0997925-.262207.1661377-.5258789.1027832-.8183594-.0615234-.2973633-.2364502-.6020508-.5639648-1.15625-.3218384-.5463867-.8388672-1.3955078-1.3648682-2.8618164-.1397095-.3676758-.2418213-.765625-.3247681-1.1630859-.1350708-.4155273-.1256714-.8071289-.180481-1.2255859.0272827-.1821289.0429688-.3666992.0448608-.5615234.0759277-.1391602.0800781-.3256836.1550903-.4511719.1208496-.2685547.3158569-.4418945.602417-.6376953.3379517-.1904297.9310303-.3251953 1.6513062-.2666016.7193604.0561523 1.546814.3115234 2.3163452.7685547l.5673218.3764648.5252075.4584961c.9574203.8528061 1.4454269 2.2513046 1.3460693 3.503418-.0657349.8481445-.3795166 1.5825195-.8920288 2.1723633-.5125732.5854492-1.15625 1-1.7471924 1.2416992-1.1956177.4946289-2.1361084.3354492-2.2380981.6210938-.0465698.1206055.121582.3554688.5504761.5737305.4238281.2197266 1.1213989.4111328 2.0056763.3579102.8779907-.0537109 1.9333496-.3647461 2.9293213-1.081543.9962769-.7041016 1.8792725-1.9365234 2.2219238-3.3530273.3596802-1.4160156.2627563-2.9916992-.3140259-4.4389648-.2852783-.7163089-.7078857-1.4316409-1.2213745-2.0156253z"/><path d="m96.4361115 69.0964279-.7598267-.8120117c-.2789917-.2426758-.5701294-.4731445-.8580322-.7036133-2.3605347-1.7416992-5.5881348-2.2827148-8.017334-.9863281-1.0738525.6049805-1.9425049 1.5493164-2.3695679 2.5742188-.2310181.4975586-.3103027.9985352-.4311523 1.4785156-.0325317.456543-.0498047.9013672-.0545654 1.3271484.0930786.7885742.1942139 1.5341797.4189453 2.1166992.1877441.6225586.3920288 1.1508789.6251831 1.6064453.9123535 1.8500977 1.9776611 2.9394531 2.8634644 3.5009766.8881226.565918 1.5343018.5976563 1.8689575.4853516.345459-.1166992.4421997-.3671875.5419312-.6298828.0997314-.262207.1660767-.5258789.1027222-.8183594-.0614624-.2973633-.2364502-.6020508-.5639038-1.15625-.3218994-.5463867-.8388672-1.3955078-1.3648682-2.8618164-.1397095-.3676758-.2418213-.765625-.3247681-1.1630859-.1350708-.4155273-.1257324-.8071289-.180542-1.2255859.0273438-.1821289.0430298-.3666992.0449219-.5615234.0758667-.1391602.0800781-.3256836.1550293-.4511719.1208496-.2685547.315918-.4418945.602417-.6376953.3379517-.1904297.9310913-.3251953 1.6513062-.2666016.7194214.0561523 1.546875.3115234 2.3164063.7685547l.5673218.3764648.5252075.4584961c.9574051.8527832 1.4454498 2.2513046 1.3460083 3.503418-.0657349.8481445-.3795166 1.5825195-.8920288 2.1723633-.5125122.5854492-1.15625 1-1.7471313 1.2416992-1.1956177.4946289-2.1361694.3354492-2.2380981.6210938-.0466309.1206055.121582.3554688.5504761.5737305.4237671.2197266 1.1213989.4111328 2.0056763.3579102.8779297-.0537109 1.9333496-.3647461 2.9293213-1.081543.9962158-.7041016 1.8792114-1.9365234 2.2219238-3.3530273.3596802-1.4160156.2626953-2.9916992-.3140259-4.4389648-.2852787-.7163089-.7078861-1.4316409-1.2213748-2.0156253z"/><path d="m114.1650543 69.0964279-.7597656-.8120117c-.2790527-.2426758-.5701904-.4731445-.8580322-.7036133-2.3605347-1.7416992-5.5881348-2.2827148-8.017395-.9863281-1.0737915.6049805-1.9424438 1.5493164-2.3695679 2.5742188-.2310181.4975586-.3102417.9985352-.4310913 1.4785156-.0325317.456543-.0498657.9013672-.0545654 1.3271484.0930786.7885742.1941528 1.5341797.4189453 2.1166992.1876831.6225586.3920288 1.1508789.6251221 1.6064453.9124146 1.8500977 1.9777222 2.9394531 2.8635254 3.5009766.8880615.565918 1.5343018.5976563 1.8688965.4853516.34552-.1166992.4421997-.3671875.5419922-.6298828.0997314-.262207.1660767-.5258789.1027222-.8183594-.0614624-.2973633-.2364502-.6020508-.5639648-1.15625-.3218384-.5463867-.8388062-1.3955078-1.3648682-2.8618164-.1396484-.3676758-.2417603-.765625-.324707-1.1630859-.1351318-.4155273-.1257324-.8071289-.180542-1.2255859.0272827-.1821289.0430298-.3666992.0449219-.5615234.0758667-.1391602.0800171-.3256836.1550293-.4511719.1208496-.2685547.3158569-.4418945.602417-.6376953.3379517-.1904297.9310303-.3251953 1.6513062-.2666016.7193604.0561523 1.546814.3115234 2.3163452.7685547l.5673218.3764648.5252075.4584961c.3234253.2880859.5678711.6098633.7867432.9916992.4276123.7568359.6257324 1.6748047.5593262 2.5117188-.0657349.8481445-.3795166 1.5825195-.8920288 2.1723633-.5125122.5854492-1.15625 1-1.7471313 1.2416992-1.1956787.4946289-2.1361694.3354492-2.2380981.6210938-.0466309.1206055.121521.3554688.550415.5737305.4238281.2197266 1.12146.4111328 2.0056763.3579102.8779907-.0537109 1.9334106-.3647461 2.9293213-1.081543.9962769-.7041016 1.8792725-1.9365234 2.2219238-3.3530273.3597412-1.4160156.2627563-2.9916992-.3139648-4.4389648-.2852788-.7163089-.7079472-1.4316409-1.221436-2.0156253z"/><path d="m78.7071075 84.3420334-.7598267-.8120117c-.2789917-.2431641-.5701294-.4736328-.8579712-.7041016-2.3605347-1.7416992-5.5881958-2.2822266-8.017395-.9863281-1.0738525.6049805-1.9425049 1.5493164-2.3695679 2.5742188-.2310181.4980469-.3102417.9990234-.4311523 1.4785156-.0324707.456543-.0498047.9013672-.0545044 1.3276367.0930786.7885742.1941528 1.5336914.4189453 2.1166992.1876831.6220703.3920288 1.1503906.6251221 1.605957.9124146 1.8500977 1.9776611 2.9394531 2.8635254 3.5009766.8880615.565918 1.5342407.5976563 1.8688965.4853516.34552-.1166992.4421997-.3671875.5419312-.6293945.0997925-.2626953.1661377-.5263672.1027832-.8188477-.0615234-.2973633-.2364502-.6020508-.5639648-1.15625-.3218384-.5458984-.8388672-1.3950195-1.3648682-2.8613281-.1397095-.3681641-.2418213-.7661133-.3247681-1.1635742-.1350708-.4155273-.1256714-.8066406-.180481-1.2250977.0272827-.1826172.0429688-.3671875.0448608-.5615234.0759277-.1396484.0800781-.3256836.1550903-.4516602.1208496-.2685547.3158569-.4418945.602417-.6376953.3379517-.1899414.9310303-.324707 1.6513062-.2661133.7193604.0556641 1.546814.3110352 2.3163452.7680664l.5673218.3764648.5252075.4584961c.9434967.8404007 1.4471359 2.2304688 1.3460693 3.503418-.0657349.8481445-.3795166 1.5825195-.8920288 2.1723633-.5125732.5854492-1.15625 1-1.7471924 1.2416992-1.1956177.4951172-2.1361084.3359375-2.2380981.621582-.0465698.1206055.121582.3554688.5504761.5732422.4238281.2202148 1.1213989.4111328 2.0056763.3583984.8779907-.0541992 1.9333496-.3652344 2.9293213-1.0820313.9962769-.7041016 1.8792725-1.9365234 2.2219238-3.3525391.3596802-1.4165039.2627563-2.9916992-.3140259-4.4394531-.2852783-.7163085-.7078857-1.4316405-1.2213745-2.0151366z"/><path d="m96.4361115 84.3420334-.7598267-.8120117c-.2789917-.2431641-.5701294-.4736328-.8580322-.7041016-2.3605347-1.7416992-5.5881348-2.2822266-8.017334-.9863281-1.0738525.6049805-1.9425049 1.5493164-2.3695679 2.5742188-.2310181.4980469-.3103027.9990234-.4311523 1.4785156-.0325317.456543-.0498047.9013672-.0545654 1.3276367.0930786.7885742.1942139 1.5336914.4189453 2.1166992.1877441.6220703.3920288 1.1503906.6251831 1.605957.9123535 1.8500977 1.9776611 2.9394531 2.8634644 3.5009766.8881226.565918 1.5343018.5976563 1.8689575.4853516.345459-.1166992.4421997-.3671875.5419312-.6293945.0997314-.2626953.1660767-.5263672.1027222-.8188477-.0614624-.2973633-.2364502-.6020508-.5639038-1.15625-.3218994-.5458984-.8388672-1.3950195-1.3648682-2.8613281-.1397095-.3681641-.2418213-.7661133-.3247681-1.1635742-.1350708-.4155273-.1257324-.8066406-.180542-1.2250977.0273438-.1826172.0430298-.3671875.0449219-.5615234.0758667-.1396484.0800781-.3256836.1550293-.4516602.1208496-.2685547.315918-.4418945.602417-.6376953.3379517-.1899414.9310913-.324707 1.6513062-.2661133.7194214.0556641 1.546875.3110352 2.3164063.7680664l.5673218.3764648.5252075.4584961c.9412689.8384171 1.4474487 2.2269669 1.3460083 3.503418-.0657349.8481445-.3795166 1.5825195-.8920288 2.1723633-.5125122.5854492-1.15625 1-1.7471313 1.2416992-1.1956177.4951172-2.1361694.3359375-2.2380981.621582-.0466309.1206055.121582.3554688.5504761.5732422.4237671.2202148 1.1213989.4111328 2.0056763.3583984.8779297-.0541992 1.9333496-.3652344 2.9293213-1.0820313.9962158-.7041016 1.8792114-1.9365234 2.2219238-3.3525391.3596802-1.4165039.2626953-2.9916992-.3140259-4.4394531-.2852787-.7163085-.7078861-1.4316405-1.2213748-2.0151366z"/><path d="m114.1650543 84.3420334-.7597656-.8120117c-.2790527-.2431641-.5701904-.4736328-.8580322-.7041016-2.3605347-1.7416992-5.5881348-2.2822266-8.017395-.9863281-1.0737915.6049805-1.9424438 1.5493164-2.3695679 2.5742188-.2310181.4980469-.3102417.9990234-.4310913 1.4785156-.0325317.456543-.0498657.9013672-.0545654 1.3276367.0930786.7885742.1941528 1.5336914.4189453 2.1166992.1876831.6220703.3920288 1.1503906.6251221 1.605957.9124146 1.8500977 1.9777222 2.9394531 2.8635254 3.5009766.8880615.565918 1.5343018.5976563 1.8688965.4853516.34552-.1166992.4421997-.3671875.5419922-.6293945.0997314-.2626953.1660767-.5263672.1027222-.8188477-.0614624-.2973633-.2364502-.6020508-.5639648-1.15625-.3218384-.5458984-.8388062-1.3950195-1.3648682-2.8613281-.1396484-.3681641-.2417603-.7661133-.324707-1.1635742-.1351318-.4155273-.1257324-.8066406-.180542-1.2250977.0272827-.1826172.0430298-.3671875.0449219-.5615234.0758667-.1396484.0800171-.3256836.1550293-.4516602.1208496-.2685547.3158569-.4418945.602417-.6376953.3379517-.1899414.9310303-.324707 1.6513062-.2661133.7193604.0556641 1.546814.3110352 2.3163452.7680664l.5673218.3764648.5252075.4584961c.3234253.2880859.5678711.6098633.7867432.9916992.4276123.7573242.6257324 1.675293.5593262 2.5117188-.0657349.8481445-.3795166 1.5825195-.8920288 2.1723633-.5125122.5854492-1.15625 1-1.7471313 1.2416992-1.1956787.4951172-2.1361694.3359375-2.2380981.621582-.0466309.1206055.121521.3554688.550415.5732422.4238281.2202148 1.12146.4111328 2.0056763.3583984.8779907-.0541992 1.9334106-.3652344 2.9293213-1.0820313.9962769-.7041016 1.8792725-1.9365234 2.2219238-3.3525391.3597412-1.4165039.2627563-2.9916992-.3139648-4.4394531-.2852788-.7163085-.7079472-1.4316405-1.221436-2.0151366z"/><path d="m132.647049 27.7267971c-.0513306-.7822266-.2651978-1.5737305-.4071655-2.3671875-.0797119-.3969727-.2338257-.7885742-.3497314-1.1845703-.1342773-.3930664-.2249756-.7978516-.4285889-1.1767578-.6295776-1.5742188-1.7009888-3.0087891-2.9915161-4.2148438-1.3693848-1.0957031-2.9233398-2.0068359-4.5776978-2.4882813-3.2826538-1.0849619-6.7780151-1.118165-10.0033569-1.2197275-3.2956543-.1069336-6.6394653-.2148438-10.0232544-.324707-13.5356445-.4228516-27.7105713-.8657227-41.9986534-1.3125-4.1425171-.1240234-8.2902832-.2490234-12.4384766-.3740234-.2335815-.5844727-.484375-1.1699219-.7745972-1.7539063-.9326782-1.8676758-2.2147217-3.6977539-3.8911133-5.2207031-1.6663818-1.5112305-3.6998901-2.7612305-5.9145508-3.4628906-4.4351196-1.4633789-9.2124634-1.2539063-13.7268677-.1904297-1.1240845.2646484-2.2891846.5839844-3.4905396 1.1098633-1.1790161.5102539-2.4519043 1.3198242-3.3770752 2.4238281-1.8320923 2.1816406-2.56598 4.6723633-3.0808725 7.0512695-.0494385.2460938-.0836792.4921875-.1272583.7382813-.5656738.1860352-1.1279297.3984375-1.6837158.6479492-1.7808838.7993164-3.5459595 2.0073252-4.7993164 3.6274424-2.4015498 2.9921875-3.776855 6.5463867-4.5578609 9.9882813-.7864382 3.4658203-1.0867312 6.8637676-1.3385623 10.147459-.2456055 3.2998047-.4072876 6.5517578-.4746704 9.7421875-.2698363 12.7695313.579895 24.5112343 1.2827759 34.7265663 1.1690204 16.2601776 1.1414683 15.974678 1.2412112 16.8920898.1353149 1.1748047.3751831 2.4682617.9650269 3.7304688.6000028 1.2433853 1.4743543 2.4636078 2.6220698 3.2602539.642395.4521484 1.3885498.7607422 2.0673828.9316406.2897949.0737305.5641479.121582.8339233.1640625-.213623.5869141-.4434204 1.4345703-.6444092 2.5029297-.4119263 2.1879883-.6624146 5.2827148-.3320313 8.7260742.171814 1.7255859.5111694 3.5625 1.1715698 5.371582.6611328 1.8095703 1.6425781 3.5649414 3.0043945 5.0400314 2.689271 2.9448242 6.5446177 4.3461914 9.6392221 4.137207 2.8547363-.1425781 5.126709-1.4370117 6.6707764-2.8203125 1.5656128-1.4042969 2.5181274-3.0019455 3.0769043-4.4213791 1.0678101-2.8701172.8910522-4.9008789.7317505-6.1708984-.1489868-.9609375-.3635254-1.5483398-.5779419-1.9101563 1.0951538-.2226563 1.9562378-.4848633 2.5787354-.6899414.812561-.2910156 1.2260132-.4750977 1.2061768-.5424805-.0455933-.1850586-1.7857056.3632813-4.9736328.6118164-1.5838013.1098633-3.5534058.1171875-5.6877441-.4316406-1.0475464-.3164063-2.1502686-.7236328-3.1610107-1.4145508-1.0076294-.6875-1.940918-1.5874023-2.7319946-2.6894531-.7437744-1.1367188-1.3887939-2.4267578-1.8484497-3.8662109-.4512329-1.440918-.7530518-3-.9246826-4.6499023-.3371582-3.2895508-.3060913-6.9663086-.4279175-10.7910156-.177063-7.6606445-.3190918-16.0830078-.3830566-24.9228516-.045105-8.8383827-.0983887-18.0976601.1074829-27.4223671.071228-4.6621094.1427612-9.3432598.2138672-13.9995098.0732422-4.6674805.0465698-9.3027344.9331665-13.4716806.4462891-2.0600586 1.1676025-4.0327148 2.2799072-5.2954102 1.0091553-1.2045898 2.8379517-1.8144531 4.8829346-2.2744141 4.0078735-.9174805 8.1257935-.9926758 11.5630493.1831055 3.4481812 1.1411133 5.9864502 3.6889648 7.4572754 6.7119141 1.5078125 3.0332041 2.0968628 6.4296885 2.421875 9.6113291.2891235 2.921875.3108521 5.8168945.3537598 8.6987305.0864143 7.3401661.1774254 13.4899654.1196899 23.3959942-.0465088 9.3828163-.2008667 17.4570351-.3657837 24.4043007-.2277603 9.2719193-.4655495 15.8531342-.7597046 24.2631836-.0751343 1.9462891-.2545166 3.5932617-.637207 4.9545898-.7303467 2.734375-2.3434448 4.1772461-3.7146606 5.1733398-1.387146.9746094-2.4993896 1.4995117-3.2319336 1.9042969-1.4978638.7744141-1.5715942 1.0375977-1.4852295 1.3164063.0795898.2578125.2738647.5200195 2.0230103.1748047.8678589-.1992188 2.147583-.5234375 3.899292-1.4638672.8635864-.4858398 1.8622437-1.1279297 2.8303223-2.1469727.9830322-1.0024414 1.8603516-2.4204102 2.4265747-4.0947266.1089478-.315918.1981201-.6479492.2873535-.9794922 8.052845-.1057816 2.0443802-.0213242 23.7720909-.3295898 5.3336182-.0859375 10.2350464-.1645508 14.7391968-.2368164 4.5001831-.2055664 8.6035156-.3930664 12.3449097-.5639648 7.4832764-.3657227 13.5096436-.6713867 18.3796387-.9663086 2.4528198-.1674805 4.7798462-.4707031 6.7388916-1.3188477.9797974-.4179688 1.8244629-.9628906 2.5592041-1.5517578.708313-.6259766 1.3079224-1.2856445 1.7269897-1.984375.8724365-1.3828125 1.15271-2.7124023 1.3052979-3.7705078.1387329-1.0712891.1213989-1.9267578.0725098-2.609375-.2543945-2.7148438-.633606-2.8466797-.8857422-2.8369141-.3078613.0107422-.4650269.2626953-.6990967 2.8037109-.0708618.6293945-.1724854 1.3974609-.395813 2.2856445-.2323608.8789063-.5671387 1.9047852-1.2852783 2.8544922-.3421631.4873047-.8133545.921875-1.3532715 1.3481445-.5705566.3930664-1.2340698.7749023-2.0058594 1.0556641-1.5495605.5776367-3.5377808.7792969-5.9320679.8486328-4.8577271.1235352-10.8804321.2768555-18.3477173.4667969-3.7331543.1088867-7.8273315.2285156-12.3175049.359375-11.3221436.0492249-17.3895569.068222-37.7477379.215332.0966492-.9911728-.0492287.9870377.538147-7.3598633.3154297-4.8862305.6315308-10.722168.9059448-17.6914063.5092163-13.2065277.7186737-26.1303444.6448364-39.6298866-.0266724-2.6948242-.0541382-5.4775391-.0825195-8.350584-.0401001-2.8515625-.0564575-5.8808594-.3675537-9.0361328-.1923828-1.8310547-.4641113-3.7695313-.9516602-5.7485352 3.7456055.0771484 7.4899902.1538086 11.2300415.230957 14.2923546.2773438 28.4715538.5527344 42.0112267.8154297 3.3850098.0620117 6.7300415.1230469 10.0268555.1831055 3.3428345.0483398 6.4467773.0634766 9.2698975.9453125 1.4279175.3837891 2.6467285 1.1108398 3.7415771 1.9321289.9986572.9272461 1.8595581 1.9946289 2.3951416 3.2783203.1747437.2949219.2528076.6459961.37146.9726563.1021729.3349609.2420044.6523438.3162231.9990234.1312866.699707.3380127 1.3701172.3952637 2.0908203.0958862.7070313.1802368 1.4140625.2011719 2.1352539.0534668.7124023.0643921 1.4311523.0598145 2.1489239.0023193 2.8676758-.2271729 5.7075195-.4069824 8.4853516-.1881104 2.7783203-.3483276 5.4770508-.4856567 8.0874023-.2786255 5.2202148-.4595337 10.0864258-.579834 14.5292969-.2182617 8.8930702-.2433472 16.0654335-.0687866 21.0639687.1532593 2.4960938.3952026 4.4101563.5588379 5.7089844.1704712 1.2978516.2907104 1.9765625.3609009 1.9716797.1720581-.0078125-.0075073-2.7685547-.0993652-7.7060547.0912476-4.9296875.3713989-12.1279297.8323364-20.9746132.2415771-4.4267578.5404053-9.2729492.9332275-14.4692383.2109375-2.5966797.4291382-5.2827148.6538696-8.0488281.2340698-2.7651367.524353-5.6303711.5784302-8.6323242.0183105-.7495098.0206299-1.506834-.0220337-2.2768536-.0095217-.765625-.0855716-1.5429687-.1781008-2.3271484zm-122.6851779 74.8046894c-.2223511-.2949219-.460022-.6850586-.602417-.9887695-.6456909-1.3134766-.6814575-3.4111328-.8540649-5.6425781-.3129272-4.3769532-.6357417-8.8920899-.9687495-13.5493165-.7029419-10.1982421-1.5682373-21.8349647-1.3560791-34.3564491.0525513-3.1293945.196167-6.3105469.4192505-9.5327148.2283936-3.2324219.5099487-6.4731426 1.1975708-9.5756817.683166-3.0981445 1.8491206-6.0561523 3.7527461-8.4614258.7593994-.9897461 1.789856-1.7509766 2.9744263-2.3476563-.0494385.703125-.0898438 1.4047852-.1168823 2.1040039-.089179 2.340229-.0728941 2.7888489-.0864868 21.0668926-.0596313 9.3574219.1605225 18.6333008.3901978 27.4902382.2485352 8.855957.5928345 17.2900391.9868774 24.956543.2150269 3.5424805.3060923 6.9023438.6898203 10.1455078-1.8954802-.054924-2.9269924-.0718231-3.8252573-.137207-.9283447-.0698242-1.5526733-.2226563-1.9448853-.5112305-.21344-.1484374-.4309693-.3662109-.656067-.6601562zm9.9324351 11.3198242c.9526978 1.222168 2.0777588 2.2133789 3.2666626 2.9399414 1.1940918.7319336 2.4541016 1.1264648 3.6237793 1.4067383 1.9716187.3916016 3.7244263.3476563 5.1953125.1821289-.1183472.3623047-.2188721.8735352-.3375244 1.6240234-.1937256 1.0737305-.3673706 2.6933594-1.296814 4.6611328-.472168.9584961-1.1717529 1.9912109-2.2593384 2.9072266-1.0786743.8984299-2.5217896 1.6772385-4.2651978 1.7568283-1.8820801.1459961-4.645874-.668457-6.7296753-2.6889572-2.1027842-1.9750977-3.3912363-5.1499023-4.0172129-8.2285156-.9936523-4.6591797-.9061279-8.8330078-1.0390015-10.6918945.0708008.0058594.1482544.0175781.2175293.0229492.9779682.0669861 1.5095539.0736694 4.8804331.1625977.1552734.5825195.3236084 1.1567383.5211182 1.7124023.5627442 1.5595703 1.3378907 2.9838867 2.2399293 4.2333984z"/><path d="m118.0581207 29.487051c-.5501099-.8666992-1.3197021-1.6108398-2.163269-2.140625-1.7658691-1.0625-3.5300293-1.1865234-4.9508667-1.2563477-2.7783813-.0537109-5.1930542-.0473633-7.5493774-.0473633-4.6633911.0073242-8.6760254.0742188-12.1278687.1645508-6.9038696.1845703-11.5645142.4663086-14.7091064.7446289-6.2886353.5693359-6.5177612 1.1088867-6.4967651 1.6640625.0214844.5683594.2956543 1.0463867 6.5842285 1.2143555 3.1442261.090332 7.7919312.1074219 14.664917.1293945 3.4360962.0205078 7.428894.0449219 12.0686646.0727539 2.2948608.0258789 4.8565674.0444336 7.3994141.105957 1.2119141.0454102 2.2918701.2299805 2.973999.6650391.6992798.4545898 1.1713867 1.1416016 1.4178467 2.2656231.2630615 1.2177734.196106 2.8164063-.0698242 4.5341797-.0649414.4233398-.1503906.9355469-.1956177 1.0634766 0 0 .0009155.0102539-.0026855.0151367.4246216-.019043-1.0791016.0859375-2.0057983.1513672-4.0716553.2861328-8.446106.5932617-12.9537964.909668-4.5042114.3017578-9.1390381.5795898-13.7375488.7919922-4.595459.1870117-9.1795654.4116211-13.4580688.2988281-3.0935974-.0888405-6.0578156-.3739319-9.0667686-1.0961914-.9519653-.2231445-1.8005981-.4604492-2.3270264-.8188477-.1779785-.1269531-.3583374-.2705078-.3956909-.4833984-.1837196-1.2809601-.3778076-2.511219-.444458-3.6958008-.0471802-.7895508-.0216675-1.5410156.1237183-2.1494141.0872192-.3095703.1506348-.5327148.3344116-.7563457.1513672-.2368164.3695679-.4438477.5980225-.6357422.9499512-.7670898 2.1866455-1.1523438 3.2301598-1.4492188 1.0666504-.2832031 2.0239258-.4482422 2.8074951-.5830078 1.5723877-.2543945 2.4616089-.4033203 2.4544067-.5498047-.0064087-.1342773-.8942871-.2607422-2.5230713-.2680664-.8145752.0043945-1.8154297.0415039-2.9837036.2148438-1.1580772.2060547-2.5275841.4404297-3.9262657 1.359375-.3408813.2382813-.6891479.515625-.9820557.8852539-.3204956.3388672-.557312.8442383-.7011108 1.2773418-.288147.9003906-.3599243 1.7958984-.3729248 2.6894531-.0165977 1.3290825.1133385 2.6021347.1702271 3.3823242.0226326.2773857.0334282.521637.0791016.8500977.0892334.6972656.6237793 1.293457 1.1726685 1.7392578 1.0218506.765625 2.0947876 1.0483398 3.0479126 1.3432617 3.1449165.9344215 6.2992668 1.3897285 9.5590172 1.6210938 4.4709473.3037109 9.0626221.2407227 13.704834.2001953 4.640564-.0668945 9.3128662-.2207031 13.843811-.4204102 4.53125-.1992188 8.9216309-.4399414 13.0032349-.675293.5101318-.0297852 1.015564-.059082 1.5158691-.0878906.296875-.0131836 1.5941162-.0463867 2.3729858-.5556641.8389282-.4804688 1.4089966-1.3149414 1.6958618-2.2241211.2405396-.7895508.2737427-1.2216797.3660278-1.7197266.3067017-1.9667969.4699097-3.9702148.050293-6.0043945-.1981206-.9223612-.5395513-1.8706034-1.0954595-2.7358378z"/></g></g></svg>