<svg id="Layer_1" enable-background="new 0 0 135 135" height="512" viewBox="0 0 135 135" width="512" xmlns="http://www.w3.org/2000/svg"><g><g><path d="m14.195447 39.6435623c2.0177126-8.8419247 9.1160288-13.273983 17.2286301-15.5208511 9.9935265-2.7678089 20.3886452-3.7047939 30.7170258-4.6299477 9.1436424-.8190308 18.287281-1.6380615 27.4309196-2.4570942 3.2665024-.292593 6.6117249-.5791836 9.7826614.2579899 6.6815338 1.7640266 10.4590912 8.0841846 7.7970657 14.5601559" fill="#159e56"/></g><g><path d="m128.049942 84.40802c.0300293 3.0200195-.0199585 6.050293-.1699829 9.0698242-.0200195.4599609-.039978.9301758-.0700073 1.3901367-.3699951 6.3500977-.3499756 13.9799805-6.4099731 17.6499023-6.2999878 3.800293-16.2000122 3.8300781-23.2399902 4.6904297-10.1100464 1.2397461-20.2800293 1.9794922-30.4700317 1.8198242-6.9099731-.1098633-14.25 0-21.4699707-.5200195-6.6700439-.4799805-13.2300415-1.5102539-19.2800274-3.75-3.3399658-1.2402344-6.6199951-2.8500977-9.2199707-5.2402344l-.0100098-.0097656c-.4000244-.3798828-.789978-.7700195-1.1500244-1.1801758-2.1399546-2.3999023-3.4899912-5.3500977-4.4699717-8.4296875-.4400024-1.4101563-.8200073-2.8500977-1.1500244-4.2802734-3.4099732-14.5200195-6.8499757-34.1801795-.7600098-48.8999061.0100098-.0200195.0200195-.0302734.0200195-.0400391.6799927-1.6601563 1.4899902-3.2597656 2.4400024-4.7797852 2.8400269-4.550293 6.4899912-7.0200195 10.6400156-8.3500977h.0100098c4.9699707-1.6103516 10.6599712-1.6103516 16.4799786-1.6899414 10.0200195-.1401367 20.039978-.2802734 30.0599976-.4204102 8.460022-.1196289 16.9199829-.2397461 25.3800049-.3598633 6.6499634-.1000977 13.710022-.0898438 19.4199829 3.340332 3.1400146 1.8896484 5.6000366 4.6899414 7.4199829 7.8798828 1.0100098 1.75 1.8300171 3.6201172 2.4500122 5.5297852 1.7600098 5.3901367 2.210022 11.1098633 2.6099854 16.7700233.4600218 6.5800784.8800048 13.2001955.9400023 19.8100588z" fill="#2bb673"/></g><g><path d="m66.259964 36.3279381c-15.9799805 2.7602539-33.710022 6.0102539-43.3699932 20.5302734-9.9299936 14.9296913-8.4400034 35.8398476-5.1799927 52.6499062-.4000244-.3798828-.789978-.7700195-1.1500244-1.1801758-2.1399546-2.3999023-3.4899912-5.3500977-4.4699717-8.4296875-.4400024-1.4101563-.8200073-2.8500977-1.1500244-4.2802734-3.4099731-14.5200196-6.8499756-34.1801796-.7600097-48.8999062.0100098-.0200195.0200195-.0302734.0200195-.0400391.5499878-.9199219 1.1400146-1.8100586 1.7800293-2.6801758 3.1199951-4.25 7.0199594-7.6098633 11.2999887-10.449707h.0100098c4.9699707-1.6103516 10.6599712-1.6103516 16.4799786-1.6899414 10.0200195-.1401367 20.039978-.2802734 30.0599976-.4204102.2999877 2.1904297-.7299806 4.4003907-3.5700074 4.8901368z" fill="#3dc983"/></g><g><path d="m128.1799469 83.2879028c-.039978.3803711-.0799561.75-.1300049 1.1201172-.3899536 3.0102539-1.1599731 5.8100586-2.25 8.4501953.7300415.0795898 1.4400024.2900391 2.0800171.6196289-.0200195.4599609-.039978.9301758-.0700073 1.3901367-.3699951 6.3500977-.3499756 13.9799805-6.4099731 17.6499023-6.2999878 3.800293-16.2000122 3.8300781-23.2399902 4.6904297-10.1100464 1.2397461-20.2800293 1.9794922-30.4700317 1.8198242-6.9099731-.1098633-14.25 0-21.4699707-.5200195.5599976-1.8598633 2.0999756-3.4199219 4.5899658-3.4902344 18.5700073-.5097656 38.4400024-1.4399414 54.1799927-12.5400391 8.1900024-5.7695313 12.8800049-12.7998047 13.4500122-22.8696289.6000366-10.4101563-.1199951-20.8203163-2.0599976-31.0600624-.7399902-3.9101563 2.6799927-6.4199219 5.6699829-6.25 1.8400269.0898438 3.5100098 1.1899414 3.9700317 3.5898438 2.330017 12.2700196 3.3900146 24.9399453 2.1599731 37.3999062z" fill="#20a562"/></g><g><path d="m128.8899689 86.8279419c-5.6400146 2.6601563-12.0800171 2.840332-18.1699829 1.800293-3.4800415-.590332-7.0499878-1.6503906-9.6799927-4.1503906-.4000244-.3798828-.7700195-.7797852-1.1000366-1.2197266-1.8800049-2.3999023-2.8499756-5.5898438-2.5999756-8.7001953.2999878-3.6796875 2.3099976-7.1499023 5.2600098-9.1098633 1.3899536-.9199219 2.9599609-1.5102577 4.5199585-2.0498085 5.7200317-1.9501953 12.1799927-3.1704102 17.7200317-1.1103516.9299927.340332 1.8200073.7700195 2.6900024 1.3100586z" fill="#bcbec0"/></g><g><path d="m118.8824997 75.5382919c-.52771-4.6208496-8.9112015-8.4641876-10.6537857-2.5434875-1.0723801 3.6435471 2.6302948 7.812767 6.1695633 7.5741806 2.505722-.1689072 4.7690887-2.5353241 4.4842224-5.0306931z" fill="#bcbec0"/></g><g><path d="m124.8399811 62.287899c-.710022.550293-1.5900269.9204102-2.6600342 1.0302734-9.7199707.9897499-18.4099731 6.5097694-19.9299927 16.6699257-.2600098 1.7202148-1.1599731 2.7797852-2.3099976 3.2700195-1.8800049-2.3999023-2.8499756-5.5898438-2.5999756-8.7001953.2999878-3.6796875 2.3099976-7.1499023 5.2600098-9.1098633 1.3899536-.9199219 2.9599609-1.5102577 4.5199585-2.0498085 5.7200318-1.9501952 12.1799927-3.1704101 17.7200318-1.1103515z" fill="#cccdce"/></g><g><path d="m118.8824997 75.5382919c-.52771-4.6208496-8.9112015-8.4641876-10.6537857-2.5434875-1.0723801 3.6435471 2.6302948 7.812767 6.1695633 7.5741806 2.505722-.1689072 4.7690887-2.5353241 4.4842224-5.0306931z" fill="#fff"/></g><g fill="#202020"><path d="m109.2867126 28.2793579c.0469971-.5756836.1368408-1.2397461.0666504-1.9985352-.2523346-4.3173027-3.221344-8.5798054-8.4884033-10.4785156-4.7299576-1.7801189-9.7787704-.900878-24.3164673.3554688-5.5621948.5039063-12.6918373 1.1816406-20.302372 1.9916992-7.6090088.8227539-15.7341309 1.980957-22.9671021 3.9995117-6.3959675 1.7902012-12.570364 4.3507442-16.4609985 9.953125-1.0770254 1.6074219-1.7467642 3.109375-2.1364737 4.3334961-1.6569824 1.581543-2.9920654 3.3691406-4.0192261 5.1645508-8.3371469 14.3978462-5.821051 34.6815033-1.6087035 50.84375.324646 1.2216797.6216431 2.2436523.8746338 3.1030273.2669678.8598633.5338135 1.5561523.7423096 2.1152344.8561401 2.2358398 1.1549683 2.3149414 1.4232178 2.2319336.2683716-.0834961.4761963-.3417969.1073608-2.6445313-.201355-1.1542969-.494812-2.8364258-.9235229-5.2939453-2.6667996-15.6454315-5.5764757-34.6558189 2.6159057-48.4472656 1.1237183-1.9160156 2.5300894-3.6904297 4.3344717-5.1333008 6.1948357-4.9811172 15.2380943-4.4054642 23.8308105-4.5512695 59.5564308-.7886848 56.2078056-.7895508 58.7969398-.7001953 2.5053711.0776367 5.0278931.315918 7.4672852.9052734 8.3338623 2.0854568 12.9176102 8.505352 14.9968872 16.7324219.805542 3.0927734 1.2422485 6.3691406 1.5565796 9.7397461-.0384521-.0229492-.0701904-.0439453-.1097412-.0668945-1.9845352-1.1156044-3.9954834-1.5960693-6.2411499-1.6660156-.9162598-.0283203-1.8779297-.0151367-2.9456787.0537109-2.1234131.1416016-4.6029663.4892578-7.3901978 1.3833008-17.1680603 5.6140213-18.1020126 27.0241699 2.2533569 29.8359375 5.2493286.7387695 10.1451416.309082 13.4667358-.7099609.8959351-.2651367 1.6677856-.5517578 2.3297119-.8344727-.0266724 2.8393555-.1376343 5.6435547-.2930298 8.5366211-.1630859 3.1547852-.3966675 6.2524414-1.3809814 8.9438477-1.6956787 5.6088867-8.1782837 7.3540039-14.1094971 8.3354492-3.0267944.4882813-6.1096191.7460938-9.2022705 1.0566406-18.1260757 1.7715988-52.9921112 4.7069702-70.522522-.2138672-3.7683105-1.0361328-7.1071777-2.309082-9.7362061-3.9047852-2.6499634-1.578125-4.5115356-3.5097656-5.7251577-5.3110352-1.2280884-1.7988281-1.9192505-3.3769531-2.3994751-4.4331055-.4663696-1.065918-.7056885-1.6352539-.7766113-1.6123047-.0628662.0200195.043396.6303711.3866577 1.7583008.3588257 1.1186523.9328613 2.7807617 2.0991211 4.730957 1.1461182 1.9501953 3.0491323 4.1235352 5.7680655 5.890625 2.706665 1.7929688 6.098877 3.2177734 9.9439697 4.4042969 17.8169708 5.594101 52.7287025 3.2267838 71.2422485 1.6923828 3.0640259-.2651367 6.2111816-.4819336 9.3970947-.9516602 1.5924683-.2265625 3.1970825-.5239258 4.8000488-.934082 1.6014404-.4067383 3.2098389-.9155273 4.7687988-1.6552734 1.5320435-.7114258 3.1397095-1.6972656 4.4025879-3.0537109 1.2732544-1.3398438 2.1989746-2.9599609 2.8244629-4.6113281 1.2470093-3.3310547 1.4847412-6.7207031 1.6970215-9.934082.2045288-3.1699219.3816528-6.4589844.4154663-9.6708984.0846558-6.4550781-.203125-12.8505859-.5855103-19.1176758-.427063-6.2231445-.6255493-12.5058594-2.1659546-18.6450195-2.39814-9.6759109-8.0116959-17.2076874-17.7956543-19.675293-.1499634-.0371094-.2980957-.0595703-.4477539-.09375.0359497-.0947266.0708008-.1811523.1080322-.2851563.1242679-.40625.2269901-.8935547.3342288-1.4633789zm14.2853394 59.5029297c-3.2294922.4951172-7.776123.4624023-12.6421509-.5791016-15.8883057-3.3271713-15.0341187-18.5465164-1.4851074-23.2109375 2.3898315-.8217773 4.5786133-1.2104492 6.4674072-1.4326172.9417725-.1103516 1.8342896-.1772461 2.621521-.2104492 1.8865204-.0821266 3.2794189.1424141 5.0501099.7104492.6121826.2075195 1.1235962.3881836 1.5535889.534668.5940857 7.8498611 1.1335144 15.7927017 1.1185913 23.6928711-.7556153.1674805-1.6447144.3466797-2.68396.4951172zm-22.5761719-58.7080078c-3.0844116-.1134453-2.4029617-.0943985-58.9935951.7602539-3.213562.0620117-6.3163452.0683594-9.3939819.2373047-5.7455158.3285503-10.9699249 1.208971-15.6644287 4.5117188.3378906-.4951172.7063599-1.0019531 1.1359863-1.5219727 4.147089-4.824482 9.7997456-6.7333889 15.8970337-8.1186523 7.0959473-1.6040039 15.0561523-2.4458008 22.6275635-3.0581055 7.5822792-.6005859 14.7554359-1.1679688 20.3073769-1.6708984 15.3520889-1.4213085 19.1369171-2.0868969 22.7442017-.859375 3.4959488 1.1238728 6.1050873 3.6792049 6.8382568 7.2705078.1387939.5556641.1454468 1.0625.2057495 1.5131836.0048218.4570313.0090332.8520508.0126343 1.1948242-.0065308.0981445-.0101318.1835938-.0148315.2744141-1.944275-.3149415-3.8562623-.4697267-5.7019655-.5332032z"/><path d="m118.8825989 75.538147c-.2792969.0292969-.5445557.0874023-.7796631.2714844-.2280884.1806641-.4430542.4790039-.763855.9223633-.3186646.4208984-.8363647 1.1035156-1.8613281 1.5810547-.5147095.2333984-1.0792847.3613281-1.730896.2338867-.6656494-.1054688-1.5355835-.527832-2.3143311-1.3095703-.868042-.8266602-1.6697388-2.3188477-1.4172363-3.6337891.180542-.7460938.4780884-1.3544922.9710693-1.6782227.4903564-.3530273 1.3304443-.4775391 2.1918945-.3422852 1.7559204.2587891 3.3468018 1.3144531 4.1993408 2.2290039.8995362.916504 1.1934205 1.7563477 1.505005 1.7260743.2398682.0073242.5185547-1.0644531-.1779175-2.5932617-.3311157-.7587891-.9154053-1.5595703-1.7122803-2.3046875-.7889404-.7583008-1.8317871-1.4130859-3.0988159-1.8461914-1.2463989-.4145508-2.8700562-.5986328-4.4607544.1333008l-.5811157.2885742c-.1741333.1254883-.3423462.2626953-.5111694.3999023l-.4960327.4267578c-1.5853729 2.0989685-2.3368759 4.1351624-1.2562866 7.0234375.47229 1.2763672 1.1982422 2.2792969 1.9469604 3.0332031 1.3684692 1.371582 3.0092163 2.2036133 4.6677856 2.4003906 1.6804199.2207031 3.1592407-.2978516 4.1290283-.9243164 1.0062866-.6298828 1.6494141-1.390625 2.0703125-2.0898438.4238281-.7001953.6148682-1.3549805.6833496-1.8876953.1224976-1.0791016-.1453247-1.6328125-.3997192-1.871582-.2572021-.2436523-.5241089-.2172851-.8033447-.1879882z"/></g></g></svg>