<svg id="Layer_1" enable-background="new 0 0 135 135" height="512" viewBox="0 0 135 135" width="512" xmlns="http://www.w3.org/2000/svg"><g><g><path d="m128.3303223 109.4535675c-1.5899658 2.9499512-4.0799561 5.1899414-7.8199463 6.75-1.4400024.5998535-3.0700073 1.0998535-4.9000244 1.5-9.5999756 2.079834-19.7299805 3.329834-30.0599976 3.8999023-.5200195.0300293-1.0499878.0600586-1.5800171.0800781-22.5299683 1.0998535-45.9400024-.9699707-66.8499756-4.5800781-5.1900024-.8898926-8.4100342-2.5900879-10.2999878-5.4199219-1.6000366-2.369873-2.25-5.5200195-2.3700562-9.670166-.0499878-1.7998047-.0999756-3.5998535-.1299438-5.3898926-.2000122-9-.2600098-18-.2200317-27 0-.5100098 0-1.0100098.0100098-1.5100098.0599976-9.9399414.3900146-19.3999023 1.5899658-29.0898438.0900269-.7700195.1900024-1.5400391.3000488-2.3100586.3699951-2.75.8200073-5.5100098 1.3499756-8.3200684 1.1600342-6.1599121 3.1799927-10.9199219 7.8900146-13.0500479 1.1099854-.5 2.3599854-.8498535 3.789978-1.0400391.0100098-.0097656.0100098-.0097656.0100098-.0097656.2700195-.0302734.5499878-.0600586.8400269-.0900879 10.4199829-.920166 21.3399658.0100098 31.8099976.0100098 11.6599731-.0100098 23.4799805-.4399414 35.2699585-.5700684 9.1700439-.119873 18.3099976-.0500488 27.3600464.5400391 15.4899902 1.0100098 14.3899536 16.8100586 14.3999634 29.2299805.0200195 13.2600098.9500122 26.4899902 1.5700073 39.7399902.1900024 4.1401367.3400269 8.2900391.4299927 12.4299316.119995 5.679931-.4699708 10.3000481-2.3900147 13.8701165z" fill="#9addef"/></g><g><path d="m78.2893372 15.6795626c.1425323.6825876-.0048447 1.5892992-.5491409 2.7871161-.4203644.9250755-1.120163 1.6900558-1.8182602 2.4283924-5.2481003 5.5506134-11.2226257 10.6660023-18.3654289 13.3738041-8.9648743 3.3985367-19.0892372 2.7596779-27.996851 6.3055763-8.6630459 3.4485397-15.3733664 10.552681-20.7256489 18.1877213-1.9549608 2.7887535-3.6791821 5.6787682-4.7281666 8.9336205.1432586-6.9885139.2426834-13.9625282.8069715-20.9343643.2447166-3.0234947-.0521231-5.7391434.518167-8.7562294.6028495-3.1893387 1.3377438-6.5232315 1.9193854-9.6118107 1.0109272-5.3680725 2.5846157-9.8538017 7.6351795-12.4186363.6259975-.3179007 1.2612-.639101 1.9485836-.7825766 11.2684937-2.3517475 23.1224136-.9686098 34.7562866-.9785976 5.772377-.0049562 11.5440102-.1125517 17.3149185-.2342396 2.8722688-.0605661 8.6801149-1.1917659 9.2840044 1.7002238z" fill="#b3f1ff"/></g><g><path d="m21.8488503 29.5385036c2.9329338 2.4740124 7.4593163 1.1309032 7.2715282-3.0962753-.1847687-4.1592503-5.101038-6.126646-7.6908188-2.5586987-1.7082767 2.3534966-1.0597801 4.407198.4192906 5.654974z" fill="#fff"/></g><g><path d="m36.5989456 29.5385036c2.9329338 2.4740124 7.4593163 1.1309032 7.2715302-3.0962753-.1847725-4.1592503-5.1010399-6.126646-7.6908226-2.5586987-1.7082749 2.3534966-1.0597763 4.407198.4192924 5.654974z" fill="#fff"/></g><g><path d="m51.349041 29.5385036c2.9329338 2.4740124 7.4593163 1.1309032 7.2715302-3.0962753-.1847687-4.1592503-5.1010399-6.126646-7.6908188-2.5586987-1.7082787 2.3534966-1.0597802 4.407198.4192886 5.654974z" fill="#fff"/></g><g><g><path d="m49.0703735 56.1234894c-.0800171.8300781-.2700195 1.6000977-.5500488 2.3400879-1.0599976 2.8500977-3.3599854 5.1000977-5.4599609 7.25-1.6100464 1.6398926-3.1799927 3.3300781-4.6900024 5.0600586-1.25 1.4299316-3.5200195 2.9799805-2.4299927 5 2.5099487 4.6398926 5.1999512 9.1899414 7.789978 13.7797852 1.4699707 2.6000977 2.9400024 5.2001953 4.0300293 7.9799805.1499634.3701172.289978.7602539.3999634 1.1601563.210022.8000488.2999878 1.6201172.0300293 2.3898926-.460022 1.3500977-1.9299927 2.1501465-3.3400269 2.1999512-2.5499878.1101074-4.6799927-1.7998047-6.25-3.579834-1.9899902-2.2700195-4.0700073-4.4899902-6.0899658-6.7299805-3.9900513-4.4299316-7.9000244-8.9401855-11.7300415-13.5-.0899658-.1000977-.1699829-.2102051-.2600098-.3100586-1.5899658-1.9001465-2.8200073-4.2900391-1.7299805-6.8000488 1.0499878-2.4299316 4.5700073-4.6999512 6.5-6.4299316 5.0900269-4.5300293 10.4500122-8.7600098 16.039978-12.630127 1.4400024-.9897461 3.3900146-2.6098633 5.210022-1.8498535 1.7700196.73999 2.710022 2.8400877 2.5300293 4.6699217z" fill="#f1f2f2"/></g></g><g><g><path d="m115.6203613 80.3334503c-.1000366.1101074-.2000122.2302246-.2900391.3400879-3.9099731 4.6699219-7.9099731 9.2800293-11.9899902 13.8100586-2.0299683 2.25-4.0999756 4.4599609-6.0999756 6.7299805-1.5599976 1.7800293-3.7000122 3.6899414-6.2399902 3.5800781-1.4100342-.0500488-2.8800049-.8500977-3.3400269-2.2001953-.2700195-.7700195-.1900024-1.5898438.0300293-2.3898926.1099854-.4001465.25-.7900391.3999634-1.1599121 1.0900269-2.7802734 2.5599976-5.380127 4.0300293-7.9799805 2.5899658-4.5900879 5.2799683-9.1401367 7.7799683-13.7802734 1.0900269-2.0200195-1.1699829-3.5698242-2.4199829-5-1.5200195-1.7299805-3.0800171-3.4199219-4.6900024-5.0598145-2.1799927-2.2299805-4.5800171-4.5800781-5.5700073-7.5700684-.2199707-.6401367-.3699951-1.3100586-.4400024-2.0200195-.1799927-1.8300781.7600098-3.9299316 2.5300293-4.6699219 1.8200073-.7600098 3.7699585.8598633 5.2099609 1.8500977 5.5900269 3.869873 10.9500122 8.0998535 16.0300293 12.6298828 1.9400024 1.7299805 5.460022 4 6.5100098 6.4299316 1.0199584 2.3601075-.0000001 4.6201173-1.4400026 6.459961z" fill="#f1f2f2"/></g></g><g><path d="m49.0703735 56.1234894c-.0800171.8300781-.2700195 1.6000977-.5500488 2.3400879-9.9899902 4.1599121-19.4299927 9.9399414-26.0099487 18.619873-.1500244.2900391-.3200073.5700684-.5500488.8601074-.3299561.4399414-.6599731.8701172-1 1.3100586-.0599976.079834-.1199951.1499023-.1799927.2199707-.0899658-.1000977-.1699829-.2102051-.2600098-.3100586-1.5899658-1.9001465-2.8200073-4.2900391-1.7299805-6.8000488 1.0499878-2.4299316 4.5700073-4.6999512 6.5-6.4299316 5.0900269-4.5300293 10.4500122-8.7600098 16.039978-12.630127 1.4400024-.9897461 3.3900146-2.6098633 5.210022-1.8498535 1.7700196.7399902 2.710022 2.8400879 2.5300293 4.6699219z" fill="#fff"/></g><g><path d="m115.6203613 80.3334503c-8.6500244-7.9699707-18.1199951-14.8598633-28.4000244-20.6799316-.2199707-.6401367-.3699951-1.3100586-.4400024-2.0200195-.1799927-1.8300781.7600098-3.9299316 2.5300293-4.6699219 1.8200073-.7600098 3.7699585.8598633 5.2099609 1.8500977 5.5900269 3.869873 10.9500122 8.0998535 16.0300293 12.6298828 1.9400024 1.7299805 5.460022 4 6.5100098 6.4299316 1.0199585 2.3601074 0 4.6201172-1.4400025 6.4599609z" fill="#fff"/></g><g><path d="m128.3303223 109.4535675c-2.3199463 2.5100098-5.0299683 4.7399902-7.8199463 6.75-1.4400024.5998535-3.0700073 1.0998535-4.9000244 1.5-9.5999756 2.079834-19.7299805 3.329834-30.0599976 3.8999023.0100098-.0700684.039978-.1499023.0599976-.2199707-.5499878.1000977-1.0900269.1999512-1.6400146.3000488-22.5299683 1.0998535-45.9400024-.9699707-66.8499756-4.5800781-5.1900024-.8898926-8.4100342-2.5900879-10.2999878-5.4199219 1.0799561-.9399414 2.5699463-1.4399414 4.3499756-1.0400391 12.7799683 2.8400879 26.460022 2.8200684 39.5100098 3.0800781 12.7699585.2600098 25.6699829-.2102051 38.1300049-3.2399902 16.289978-3.9501953 32.5100098-12.9799805 41.4799805-27.3300781.1900024 4.1401367.3400269 8.2900391.4299927 12.4299316.1199949 5.6799318-.4699709 10.3000489-2.3900148 13.8701173z" fill="#88d3e5"/></g><g fill="#202020"><path d="m132.0661774 82.889122c-.8985138-19.5056229-1.8848267-54.2862473-1.8907471-54.3300819-.2449951-1.7800293-.605957-3.5622559-1.1773071-5.3127441-2.2942963-7.0732079-7.1909027-10.4541817-14.4232254-11.0615225-13.0731583-.7888374-90.254921-.2766485-94.6765137.0571289-.8846436.1044922-1.812439.1970215-2.7067261.4306641-1.7944956.4155273-3.5575571 1.1704102-5.0456553 2.2805176-1.4950562 1.1025381-2.6724854 2.5161123-3.5460205 3.9768057-1.7506709 2.9528809-2.4649043 5.989502-3.0342402 8.8112793-4.9399552 26.4691467-2.6816883 68.905777-1.249939 68.878418 2.2070389-.0421753-.1533985-34.1693802 3.5124512-59.7490273 1.4520259.2038574 3.7480464.4331055 6.6718745.6755371 5.215394.4260254 12.425477.8933105 20.3926392 1.3076172 15.9336548.8439941 34.8958702 1.4577637 46.9539757 1.6257324 22.0058594.3098145 33.2418823.0759277 38.9732666-.2646484 5.7317505-.3581543 5.9613647-.8669434 5.961853-1.4291992s-.2297974-1.0717773-5.9547119-1.4506836c-5.7249756-.3962402-16.9437256-.6181641-38.9210205-.9274902-12.0426025-.1677246-30.9879723-.3251953-46.9292564-.4321289-7.9707642-.0456543-15.1901855-.0744629-20.4203491-.0134277-2.8850098.0300293-5.1601563.0878906-6.6262813.1806641.3648067-2.4682617.7971797-5.0263672 1.3178096-7.6791992.5401001-2.6123047 1.25354-5.3105469 2.6247559-7.5529785 1.3447876-2.2590332 3.4281006-3.8522949 6.2003794-4.449707.684082-.1784668 1.3983154-.239502 2.1593628-.3291016 2.3453903-.1618233 80.1264801-.7235622 94.059082.076416 7.7541809.6449051 10.8279343 4.9469852 11.9768066 12.8925781.4539795 3.2199707.5125732 6.6281738.5217896 10.1181641-.0944901 14.4694786.7774582 26.7116508 1.6987991 43.8356972.1901855 3.7211914.3486938 7.4487305.4584351 11.1755371.0723267 1.8840332.0737305 3.6633301.0001831 5.4743652-.1201782 1.7851563-.2993774 3.5598145-.7144165 5.2368164-.8188553 3.3466797-2.5296097 6.307373-5.3485794 8.1379395-1.3712769.9428711-2.9206543 1.6918945-4.5790405 2.2219238-1.6309814.5778809-3.3666382.9296875-5.1709595 1.2922363-7.1254272 1.480957-14.260376 2.4958496-21.2688599 3.1245117-23.76297 2.0952606-48.6524696.5910034-72.0454102-2.9780273-2.3057861-.3430176-4.4537363-.6442871-6.3789682-1.2600098-1.9259033-.5991211-3.6213379-1.4775391-4.8947144-2.6572266-1.2654414-1.1896973-2.0667109-2.6513672-2.5811763-4.0803223-.5262451-1.4321289-.7651367-2.8400879-.9321899-4.1064453-.3034058-2.5395508-.3330688-4.576416-.4577637-5.9362793-.1022949-1.3649902-.1895142-2.0812988-.2597656-2.079834s-.1219482.7209473-.1565552 2.0898438c-.0110474 1.3710938-.1200562 3.3779297.0577393 6.0117188.1060791 1.3103027.2838135 2.7832031.7839966 4.3459473.4866333 1.5529785 1.3132935 3.2265625 2.7016602 4.6237793 1.3930659 1.3869629 3.2567744 2.4165039 5.2973628 3.1176758 5.3469534 1.8839874 42.9624672 8.4921494 79.1074829 5.7788086 7.1095581-.5449219 14.3693237-1.4863281 21.6511841-2.9143066 3.5933838-.6572266 7.5755615-1.5839844 10.9678955-3.8999023 1.7011108-1.1276855 3.2484741-2.6188965 4.3689041-4.3813477 1.140686-1.748291 1.9042969-3.6848145 2.4138184-5.6311035.9697266-3.9055176 1.0144043-7.8510742.9200439-11.6171875-.0765372-3.7607387-.2035514-7.5158657-.3631583-11.2543911z"/><path d="m27.8646965 20.8676338c-1.0543213-.6481934-2.2519531-.9094238-3.2901611-.8598633-1.9434814.0576172-3.4286499 1.1259766-4.2705688 2.1186523-.442688.5222168-.7515259.9821777-.9973755 1.4829102-.256958.4863281-.4329834 1.0048828-.5533447 1.496582-.2265625 1.0061035-.1411133 1.953125.0950317 2.6591797.2353516.7138672.5859985 1.1955566.894104 1.5244141.6446533.6411133 1.1201172.7468262 1.432373.7072754.3147583-.0432129.4915771-.2443848.6740112-.458252.1824951-.213623.3400879-.4326172.3955078-.7119141.0552979-.2729492.0113525-.621582-.0606689-1.0646973-.0565796-.4643555-.1080322-.927002.1828613-1.6430664.0891724-.1860352.182251-.3930664.3433228-.6262207.140564-.2365723.364624-.4992676.5582275-.6955566.4141235-.4111328.8878784-.7133789 1.4769287-.7202148.6195679-.0566406 1.6360474.2895508 2.2075195 1.2734375.2846069.4711914.4537354 1.1115723.453186 1.7609863-.0028076.6245117-.1740112 1.1501465-.515686 1.5859375-.3383789.4365234-.871582.7629395-1.4452515.9204102-.5748291.1633301-1.1644897.1640625-1.6760254.1208496-1.024353-.1162109-1.727417-.4328613-1.9199219-.1999512-.1679688.1806641.1833496.9753418 1.3920898 1.6945801.6046143.3325195 1.4251099.6337891 2.4172974.6516113.9801636.0217285 2.1520996-.2626953 3.1569824-1.0458984 1.0134888-.7651367 1.7310791-2.0402832 1.9418335-3.3115234.2199707-1.2429199.1029663-2.5756836-.4168701-3.7910156-.512451-1.2106934-1.418701-2.2314453-2.4754027-2.8686524z"/><path d="m42.6148186 20.8676338c-2.3499756-1.4446735-5.5451126-1.117651-7.560791 1.2587891-.442627.5222168-.7514648.9821777-.9973145 1.4829102-.256958.4863281-.4330444 1.0048828-.5533447 1.496582-.2265625 1.0061035-.1411133 1.953125.0950317 2.6591797.2352905.7138672.5859375 1.1955566.894104 1.5244141.6446533.6411133 1.1200562.7468262 1.432312.7072754.3148193-.0432129.4916382-.2443848.6740723-.458252.1824341-.213623.3400269-.4326172.3955078-.7119141.0552368-.2729492.0113525-.621582-.06073-1.0646973-.0565186-.4643555-.1080322-.927002.1828613-1.6430664.0891724-.1860352.182312-.3930664.3433228-.6262207.140625-.2365723.3646851-.4992676.5582886-.6955566.4140625-.4111328.8878784-.7133789 1.4769287-.7202148.6195679-.0566406 1.6360474.2895508 2.2074585 1.2734375.2846069.4711914.4537354 1.1115723.4532471 1.7609863-.0028076.6245117-.1740723 1.1501465-.515686 1.5859375-.3384399.4365234-.8716431.7629395-1.4453125.9204102-.5747681.1633301-1.1644287.1640625-1.6759644.1208496-1.024353-.1162109-1.727417-.4328613-1.9199219-.1999512-.1680298.1806641.1833496.9753418 1.3920288 1.6945801.6046753.3325195 1.4251099.6337891 2.4173584.6516113.9801025.0217285 2.1520996-.2626953 3.1569214-1.0458984 1.0134888-.7651367 1.7310791-2.0402832 1.9418945-3.3115234.2199707-1.2429199.1029053-2.5756836-.4168701-3.7910156-.5124512-1.2106935-1.4187012-2.2314454-2.4754028-2.8686525z"/><path d="m57.3648796 20.8676338c-1.0543213-.6481934-2.2518921-.9094238-3.2901611-.8598633-1.9434814.0576172-3.4286499 1.1259766-4.2705688 2.1186523-.442688.5222168-.7515259.9821777-.9973755 1.4829102-.256958.4863281-.4329834 1.0048828-.5533447 1.496582-.2265625 1.0061035-.1411133 1.953125.0950317 2.6591797.2353516.7138672.5859985 1.1955566.894104 1.5244141.6446533.6411133 1.1201172.7468262 1.432373.7072754.3147583-.0432129.4916382-.2443848.6740112-.458252.1824951-.213623.3400879-.4326172.3955078-.7119141.0552979-.2729492.0113525-.621582-.0606689-1.0646973-.0565186-.4643555-.1080322-.927002.1828613-1.6430664.0891724-.1860352.182251-.3930664.3433228-.6262207.140564-.2365723.3646851-.4992676.5582275-.6955566.4141235-.4111328.8878784-.7133789 1.4769287-.7202148.6195679-.0566406 1.6360474.2895508 2.2075195 1.2734375.2846069.4711914.4537354 1.1115723.4532471 1.7609863-.0028687.6245117-.1740723 1.1501465-.5157471 1.5859375-.3383789.4365234-.871582.7629395-1.4452515.9204102-.5748291.1633301-1.1644287.1640625-1.6759644.1208496-1.0244141-.1162109-1.727478-.4328613-1.9199829-.1999512-.1679688.1806641.1833496.9753418 1.3920898 1.6945801.6046753.3325195 1.4251099.6337891 2.4173584.6516113.9801025.0217285 2.1520996-.2626953 3.1569214-1.0458984 1.0134888-.7651367 1.7310791-2.0402832 1.9418335-3.3115234.2200317-1.2429199.1029663-2.5756836-.4168701-3.7910156-.51239-1.2106934-1.418701-2.2314453-2.4754027-2.8686524z"/><path d="m41.4352531 103.1745224c1.4850464.7832031 3.1588745 1.003418 4.4899292.5549316 1.3182373-.4111328 2.2438354-1.3532715 2.5627441-2.2851563.3216553-.9399414.1472168-1.6789551.019043-2.1176758-.1437378-.4477539-.2862549-.6516113-.3505249-.6342773-.071167.0185547-.0632935.2634277-.0608521.6989746-.0040283.4274902-.0098877 1.0808105-.3599854 1.7248535-.338501.6347656-1.0952759 1.2375488-2.1246948 1.4438477-1.0067749.2219238-2.2491455-.0388184-3.395813-.765625-2.6552315-1.6468277-21.1914845-24.3654709-21.7661133-25.6772461-.3911743-.8876953-.4987793-1.7297363-.2995605-2.4985352.102356-.4023438.2623901-.755127.5201416-1.126709.2576294-.3786621.5939331-.7685547.9681396-1.1508789.8046741-.8048096 11.6079445-9.9214211 19.0690918-15.1599159.8839111-.614502 1.7513428-1.2177734 2.6000366-1.8078613.7892456-.557373 1.5292358-.9709473 1.9830933-1.0563965.2255249-.0456543.3289185-.027832.4146729-.001709.0858765.0212402.3392334.15625.4846802.2937012.3380127.2912598.6242065.7746582.760376 1.2866211.0608521.2333984.0950317.4711914.1022339.6972656.0061646.1149902-.0036621.220459-.008667.329834l-.0640259.4492188c-.1032104.59375-.2685547 1.1704102-.5028076 1.7299805-1.6287041 3.8154411-10.6591759 11.8114891-12.1596069 14.4230995-.390625.6867676-.7008057 1.699707-.5494385 2.704834.071228.4907227.2279663.9394531.4219971 1.3205566.0529785.1149902.0893555.1799316.1168213.2241211 3.4126358 5.8633499 6.0978432 10.4761505 9.7337646 16.2963867 1.7134399 2.7861328 2.5397339 4.2619629 3.0601807 4.9799805.4998779.7106934.7867432.71875 1.0563354.6416016.2696533-.0771484.5133057-.1958008.4317017-1.1879883-.0935059-.9697266-.5631104-2.7250977-2.0153198-5.8037109-2.0633659-4.2935638-6.1388588-11.7339859-8.6207886-16.2614746l-.178894-.3251953-.0900879-.1635742c-.0366211-.0634766-.0592651-.1091309-.0536499-.1113281-.0311279-.0698242-.0362549-.1069336-.0380249-.1242676.0079346-.0180664-.0059814-.0632324.1245117-.2995605.7262344-1.3411026 10.4935608-10.0574493 12.5049438-14.7253456.3494873-.8256836.6157227-1.722168.7752686-2.6557617l.0986938-.7067871c.0223999-.2802734.0385742-.5664063.027771-.8452148-.0164185-.5605469-.0986328-1.1123047-.2421875-1.6518555-.3227539-1.1730957-.947876-2.3505859-2.026062-3.2937012-.5617065-.4719238-1.1369019-.84375-1.9725342-1.107666-.836792-.2597656-1.7431641-.2387695-2.4816284-.0646973-1.4910889.3635254-2.4936523 1.0891113-3.401001 1.7106934-.8508911.605957-1.7205811 1.2250977-2.6066895 1.8562012-7.734972 5.5767365-18.9090099 15.6194801-19.2667847 15.9973183-.4684448.5070801-.9273682 1.0563965-1.3396606 1.7043457-.4194336.6489258-.7619629 1.435791-.9276123 2.2285156-.3720093 1.6293945-.0141602 3.3239746.6286011 4.6257324 1.0614567 2.2128752 20.4094544 23.8794325 23.9482422 25.6874998z"/><path d="m84.8518753 58.5443916c1.169487 6.8415184 11.8692093 14.7747536 13.2802124 17.3811073.3599396.6521606-10.37117 17.8923187-10.8723755 23.0888672-.081665.9924316.1619263 1.1108398.4315796 1.1879883.2696533.0773926.5565186.0693359 1.0564575-.6413574.0725708-.1001511 12.9801483-20.3929291 13.3328857-22.8210449.1513062-1.0053711-.1588135-2.0180664-.5494385-2.704834-2.2613525-3.9360657-12.9958344-12.0315475-12.7351685-16.9321327.0072021-.2263184.0413818-.4638672.1022949-.6972656.1361084-.5119629.4223633-.9956055.760376-1.2866211.1454468-.1376953.3987427-.2724609.4846191-.2939453.0857544-.026123.1891479-.0439453.4146729.001709.4539185.0856934 1.1939087.4992676 1.9831543 1.0566406 9.4722977 6.5859871 21.1803589 16.4787941 21.6690674 16.9677773.3742676.3823242.7105713.7722168.9682007 1.1508789.2577515.371582.4177856.7241211.5201416 1.126709.7268829 2.8059464-1.5080795 4.7539444-18.7155762 24.927002-1.1234741 1.3764648-2.1726685 2.5185547-3.3500977 3.2487793-1.1466675.7268066-2.3890381.9875488-3.395874.765625-1.02948-.2062988-1.7862549-.809082-2.1248169-1.4438477-.3501587-.644043-.355957-1.2973633-.3600464-1.7248535.0024414-.435791.0103149-.6806641-.0608521-.6992188-.06427-.0170898-.2067871.1865234-.3504639.6345215-.1281738.4387207-.3026123 1.1774902.019043 2.1176758.3189697.9318848 1.2446289 1.8742676 2.5628662 2.2851563 1.3311157.4484863 3.0049438.2285156 4.4900513-.5549316 1.491272-.7619629 2.8078613-2.0361328 4.0267334-3.345459 18.3838654-19.1457748 21.6126099-22.3145218 20.5499878-26.9680176-.1655884-.7927246-.5081787-1.5793457-.9275513-2.2285156-.4122925-.6479492-.8712158-1.1972656-1.3396606-1.7041016-.7411118-.7826767-12.0772629-10.877449-21.8734741-17.8537636-.9073486-.6213379-1.9099731-1.3469238-3.401062-1.7106934-.7384644-.1738281-1.6448364-.1948242-2.4815674.0646973-.8356934.263916-1.4108276.6357422-1.9725342 1.107666-1.078186.9433594-1.7033081 2.1208496-2.026062 3.2937012-.1435547.5397949-.2258301 1.0915527-.2421875 1.6518555-.0108032.2790527.0053101.5651855.027771.8452148z"/><path d="m49.1052971 114.2589951c.5092163.2385254 1.03302.3212891 2.9156494-2.8144531 3.4133949-5.6232071 32.8167076-65.1088715 31.730587-65.7019043-1.45121-.7929192-27.8298531 46.3136177-34.3349571 64.4729004-1.2195435 3.4575195-.8203735 3.8046874-.3112793 4.043457z"/></g></g></svg>