<svg id="Layer_1" enable-background="new 0 0 135 135" height="512" viewBox="0 0 135 135" width="512" xmlns="http://www.w3.org/2000/svg"><g><g><path d="m129.7044983 100.4931259c-.4892883 5.2472305.0208435 14.9710312-2.9464188 19.5312195-2.248703 3.4771423-6.4756622 3.883316-10.6192627 4.1435928-1.2492752.0729446-2.4986877.1456451-3.6855621.2811203-22.3108978 2.5506668-44.8302231 3.3106537-67.2660446 2.2695465-7.2565002-.3332291-14.5131283-.8537827-21.748785-1.5720825-6.1945496-.6143494-10.4319344-2.5089874-13.2220354-5.6221466 0 0 0 0-.0104208 0-3.2171192-3.5605087-4.5496421-8.7139511-4.7994981-15.3040009-.5413971-14.1073303-.5205546-28.2245788.051979-42.3212356.1354766-3.3106537-.1664858-8.8806915.5830822-13.5239944 0-.0104218.0104213-.0104218 0-.0208435.4163418-2.5089798 1.1244793-4.7475204 2.3841805-6.2049713 3.1545916-3.6334572 9.5989952-2.1134796 13.7530098-2.1134796h73.1587524c8.3809814 0 26.3192673-4.3517647 31.4727097 3.8520508 1.8219376 2.9151573 2.4465866 6.3717117 2.810936 9.8178444.0625305.5307198.1042175 1.0619507.1562042 1.5926704 1.3533669 15.0233917 1.3326455 30.1713256-.0728263 45.1947097z" fill="#f9ed32"/></g><g><circle cx="23.893" cy="72.821" fill="#f1f2f2" r="6.944"/></g><g><circle cx="23.893" cy="97.528" fill="#f1f2f2" r="6.944"/></g><g><circle cx="47.157" cy="72.821" fill="#f1f2f2" r="6.944"/></g><g><circle cx="47.157" cy="97.528" fill="#f1f2f2" r="6.944"/></g><g><circle cx="70.421" cy="72.821" fill="#f1f2f2" r="6.944"/></g><g><circle cx="70.421" cy="97.528" fill="#f1f2f2" r="6.944"/></g><g><circle cx="93.685" cy="72.821" fill="#f1f2f2" r="6.944"/></g><g><circle cx="93.685" cy="97.528" fill="#f1f2f2" r="6.944"/></g><g><circle cx="116.949" cy="72.821" fill="#f1f2f2" r="6.944"/></g><g><path d="m10.8201876 82.3880997c-.395627 10.4736176-.1353493 20.9055481 3.3733101 30.8896255 1.2075949 3.4252853-1.1765852 5.7886276-3.977108 6.2466507 0 0 0 0-.0104208 0-3.2171192-3.5605087-4.5496421-8.7139511-4.7994981-15.3040009-.5413971-14.1073303-.5205546-28.2245788.051979-42.3212356.1354766-3.3106537-.1664858-8.8806915.5830822-13.5239944 0-.0104218.0104213-.0104218 0-.0208435.4476056-.9058876.9368968-1.7802544 1.4574513-2.6236153 3.5295019-5.6948357 12.5245724-.4580269 8.9849033 5.2472305-2.6965637 4.3517647-3.3940258 10.2758675-4.1852789 15.2729912-.8537806 5.3410187-1.2805432 10.7443161-1.4784201 16.1371918z" fill="#fcef7c"/></g><g><path d="m129.7044983 100.4931259c-.4892883 5.2472305.0208435 14.9710312-2.9464188 19.5312195-2.248703 3.4771423-6.4756622 3.883316-10.6192627 4.1435928-1.2492752.0729446-2.4986877.1456451-3.6855621.2811203-22.3108978 2.5506668-44.8302155 3.3106537-67.266037 2.2695465 4.9083214.2277679 10.3191338-.943573 15.1542168-1.7121887 5.1274719-.8151016 10.2173843-1.8639374 15.2521973-3.1307602 8.8781204-2.2338562 17.2961655-4.6988297 25.2118683-9.5126572 4.8806992-2.968132 9.3688583-6.619133 13.0390244-11.0111313 2.2102661-2.6449738 4.2592697-5.4378815 6.0091019-8.4104462 2.8824463-4.8967285 4.376976-10.0420685 5.1310425-15.6947327.6791763-5.0912247.8605499-10.2371063 1.4694138-15.337265.1124039-.9415054.8898926-8.2969055 2.5546188-7.9495811.8583374.1790848.9390717 2.9571114 1.0111847 3.559063.4335938 3.6194839.4556885 7.2725143.5892334 10.9104919.3924826 10.6924592.0920218 21.4104997-.9046213 32.0637284z" fill="#ead40c"/></g><g><circle cx="116.949" cy="97.528" fill="#f1f2f2" r="6.944"/></g><g><path d="m126.2166824 46.8343239c-7.0690384 1.0619507-14.5130005 1.207592-21.6549911 1.1971741-2.6027756 0-5.1951218-.0625305-7.7978973-.1352234-2.1134796-.0625267-4.2165451-.1458969-6.329895-.2084236-12.3476715-.3746605-24.7054977-.3433952-37.0635872-.3017082-.5622406 0-1.1347733 0-1.7073059.0104179-14.023838.041687-28.0683899.2602806-42.0920982.1456451-.6559038 0-1.2285652-.0729485-1.7386985-.1977501-3.6438818-.8850441-3.8207889-4.6433067-4.0810661-8.7868996-.2082982-3.2692261-.0416851-7.3815556 1.9884267-10.1716557.4060478-.5413971.864202-1.0202675 1.4055991-1.4472847.8119683-.6349335 1.6552005-1.1346455 2.5298238-1.5408211 4.4663992-2.1030598 9.5573111-1.5616646 14.5234213-1.5929279 7.3398705-.0310097 14.6901627-.0726948 22.0299034-.1039581 13.6593475-.0729485 27.3186951-.1250553 40.9780426-.1980038 1.0306854 0 2.0613708-.0101662 3.0920639-.0101662 7.2462006-.0312653 14.4818573-.0729504 21.7176437.0208416 1.6968842.0208435 3.4044495.0518513 5.1013336.0935364 1.3743362.0312653 2.7486725.0625286 4.1227493.1352234 1.468132.0729485 2.8630524.437439 4.1124573 1.0411091 3.5085373 1.6658764 5.9759598 5.164114 6.163414 9.2764454.2394408 5.2263871 1.0515289 11.8166886-5.2993394 12.7744294z" fill="#8dc63f"/></g><g><path d="m87.2063599 23.5029049c-.1560669.0729485-.3123856.1458969-.4788742.2084255-7.1940994 2.7796803-13.9924469 4.4455566-21.7487793 4.3517647-7.9957771-.1039581-15.9288979-.3228054-23.9142494.0833702-11.7021828.593504-32.9302864 2.0717964-33.1176147 18.1464615 0 .3746567-.0416851.7183037-.114634 1.0515289-3.6438818-.8850441-3.8207889-4.6433067-4.0810661-8.7868996-.2082982-3.2692261-.0416851-7.3815556 1.9884267-10.1716557 1.2181435-1.0827942 2.5402451-2.0822182 3.9354229-2.9881058 4.4663992-2.1030598 9.5573111-1.5616646 14.5234213-1.5929279 7.3398705-.0310097 14.6901627-.0726948 22.0299034-.1039581 13.6593483-.0729484 27.3186958-.1250553 40.9780434-.1980037z" fill="#a3d850"/></g><g><path d="m126.2166824 46.8343239c-7.0690384 1.0619507-14.5130005 1.207592-21.6549911 1.1971741-2.6027756 0-5.1951218-.0625305-7.7978973-.1352234 3.0505066-.343647 6.0904617-.8746223 9.0992813-1.634613 5.9968033-1.5095558 23.8101578-6.6942596 19.2085419-16.3036766-.9163055-1.9157333-.6351852-3.7480946.2809906-5.1745358 3.5085373 1.6658764 5.9759598 5.164114 6.163414 9.2764454.2394408 5.226387 1.0515289 11.8166885-5.2993394 12.7744293z" fill="#84b734"/></g><g><path d="m24.6718159 31.6997681h-1.5573979c-2.2546558 0-4.0824127-1.8277588-4.0824127-4.0824127v-14.7518464c0-2.2546549 1.8277569-4.0824127 4.0824127-4.0824127h1.5573978c2.2546539 0 4.0824127 1.8277578 4.0824127 4.0824127v14.7518463c.0000001 2.254654-1.8277587 4.0824128-4.0824126 4.0824128z" fill="#f1f2f2"/></g><g><path d="m106.2690582 31.6997681h-1.5574036c-2.2546539 0-4.0824127-1.8277588-4.0824127-4.0824127v-14.7518464c0-2.2546549 1.8277588-4.0824127 4.0824127-4.0824127h1.5574036c2.2546539 0 4.0824127 1.8277578 4.0824127 4.0824127v14.7518463c0 2.254654-1.8277587 4.0824128-4.0824127 4.0824128z" fill="#f1f2f2"/></g><g fill="#202020"><path d="m31.0582561 68.0056534c-.4945068-.8532715-1.2515869-1.8186035-2.4465332-2.6298828-1.1762695-.817627-2.821167-1.4724083-4.7946777-1.4907188-1.9489746-.0175781-4.2849121.6796837-6.1478271 2.4689903-1.0147705.9643555-1.9320068 2.3623047-2.3751221 4.0427246-.4467773 1.6740723-.3995361 3.6013184.2924805 5.3737793.6622314 1.7802734 1.9898682 3.3178711 3.6083984 4.2885742 1.6234131.9770508 3.548584 1.3417969 5.2669678 1.1193848 1.732666-.2001953 3.2624512-.9699707 4.3378906-1.9428711 1.1026611-.9589844 1.7454834-2.1259766 2.086792-3.1196289.6568604-2.0476074.1793213-3.3217773-.0491943-3.2946777-.3149414-.010498-.4522705 1.1945801-1.3845215 2.6181641-.4697266.6960449-1.1278076 1.451416-2.0375977 1.9882813-2.0088005 1.2508163-4.5723438 1.1530151-6.3796387-.1999512-.9187012-.6943359-1.6179199-1.6672363-1.9128418-2.7128906-.3203125-1.0336914-.2740479-2.1308594.0117188-3.0368652.6497707-2.0766983 2.5294037-3.5267792 4.7161865-3.6032715 1.1014404-.027832 2.0275879.2651367 2.75.6691895 1.470459.8171387 2.0958252 1.904541 2.5336914 2.5976563.4155273.7282715.6369629 1.1796875.8959961 1.4138184.2565918.2387695.526123.2675781.8070068.2658691.2810059-.001709.5484619-.0141602.7768555-.3337402.2185059-.3168945.45117-.9677734.2626953-2.223877-.114624-.6184085-.3310547-1.3913577-.8187256-2.2580569z"/><path d="m31.0582561 92.7119522c-.4945068-.8532715-1.2515869-1.8186035-2.4465332-2.6298828-1.1762695-.817627-2.821167-1.4724121-4.7946777-1.4907227-1.9489746-.0175781-4.2849121.6796875-6.1478271 2.4689941-1.0147705.9643555-1.9320068 2.3623047-2.3751221 4.0427246-.4467773 1.6740723-.3995361 3.6013184.2924805 5.3737793.6622314 1.7802734 1.9898682 3.3178711 3.6083984 4.2885742 1.6234131.9770508 3.548584 1.3417969 5.2669678 1.1193848 1.732666-.2001953 3.2624512-.9699707 4.3378906-1.9428711 1.1026611-.9589844 1.7454834-2.1259766 2.086792-3.1196289.6568604-2.0476074.1793213-3.3217773-.0491943-3.2946777-.3149414-.010498-.4522705 1.1945801-1.3845215 2.6181641-.4697266.6960449-1.1278076 1.451416-2.0375977 1.9882813-2.0088005 1.2508163-4.5723438 1.1530151-6.3796387-.1999512-.9187012-.6943359-1.6179199-1.6672363-1.9128418-2.7128906-.3203125-1.0336914-.2740479-2.1308594.0117188-3.0368652.6497707-2.0766983 2.5294037-3.5267792 4.7161865-3.6032715 1.1014404-.0280762 2.0275879.2651367 2.75.6691895 1.470459.8171387 2.0958252 1.904541 2.5336914 2.5976563.4155273.7282715.6369629 1.1796875.8959961 1.4138184.2565918.2387695.526123.2675781.8070068.2658691.2810059-.001709.5484619-.0141602.7768555-.3337402.2185059-.3168945.45117-.9677734.2626953-2.223877-.114624-.6184084-.3310547-1.3913576-.8187256-2.2580568z"/><path d="m54.3221703 68.0056534c-.4945068-.8532715-1.2515869-1.8186035-2.4465332-2.6298828-1.1762695-.817627-2.821167-1.4724083-4.7946777-1.4907188-1.9489746-.0175781-4.2849121.6796837-6.1478271 2.4689903-1.0147705.9643555-1.9320068 2.3623047-2.3751221 4.0427246-.4467773 1.6740723-.3995361 3.6013184.2924805 5.3737793.6622314 1.7802734 1.9897461 3.3178711 3.6083984 4.2885742 1.6234131.9770508 3.548584 1.3417969 5.2669678 1.1193848 1.732666-.2001953 3.2624512-.9699707 4.3378906-1.9428711 1.1026611-.9589844 1.7454834-2.1259766 2.086792-3.1196289.6568604-2.0476074.1793213-3.3217773-.0491943-3.2946777-.3149414-.010498-.4522705 1.1945801-1.3845215 2.6181641-.4697266.6960449-1.1278076 1.451416-2.0375977 1.9882813-2.0087891 1.2508087-4.5723419 1.1530151-6.3796387-.1999512-.9187012-.6943359-1.6179199-1.6672363-1.9128418-2.7128906-.3203125-1.0336914-.2740479-2.1308594.0117188-3.0368652.649807-2.0768051 2.5295525-3.5267792 4.7160645-3.6032715 1.1015625-.027832 2.02771.2651367 2.7501221.6691895 1.470459.8171387 2.0958252 1.904541 2.5336914 2.5976563.4155273.7282715.6369629 1.1796875.8959961 1.4138184.2564697.2387695.526001.2675781.8070068.2658691s.5484619-.0141602.7768555-.3337402c.2185059-.3168945.4511719-.9677734.2626953-2.223877-.1146242-.6184085-.3310548-1.3913577-.8187257-2.2580569z"/><path d="m54.3221703 92.7119522c-.4945068-.8532715-1.2515869-1.8186035-2.4465332-2.6298828-1.1762695-.817627-2.821167-1.4724121-4.7946777-1.4907227-1.9489746-.0175781-4.2849121.6796875-6.1478271 2.4689941-1.0147705.9643555-1.9320068 2.3623047-2.3751221 4.0427246-.4467773 1.6740723-.3995361 3.6013184.2924805 5.3737793.6622314 1.7802734 1.9897461 3.3178711 3.6083984 4.2885742 1.6234131.9770508 3.548584 1.3417969 5.2669678 1.1193848 1.732666-.2001953 3.2624512-.9699707 4.3378906-1.9428711 1.1026611-.9589844 1.7454834-2.1259766 2.086792-3.1196289.6568604-2.0476074.1793213-3.3217773-.0491943-3.2946777-.3149414-.010498-.4522705 1.1945801-1.3845215 2.6181641-.4697266.6960449-1.1278076 1.451416-2.0375977 1.9882813-2.0087891 1.2508087-4.5723419 1.1530151-6.3796387-.1999512-.9187012-.6943359-1.6179199-1.6672363-1.9128418-2.7128906-.3203125-1.0336914-.2740479-2.1308594.0117188-3.0368652.649807-2.0768051 2.5295525-3.5267792 4.7160645-3.6032715 1.1015625-.0280762 2.02771.2651367 2.7501221.6691895 1.470459.8171387 2.0958252 1.904541 2.5336914 2.5976563.4155273.7282715.6369629 1.1796875.8959961 1.4138184.2564697.2387695.526001.2675781.8070068.2658691s.5484619-.0141602.7768555-.3337402c.2185059-.3168945.4511719-.9677734.2626953-2.223877-.1146242-.6184084-.3310548-1.3913576-.8187257-2.2580568z"/><path d="m77.5860901 68.0056534c-.4945068-.8532715-1.251709-1.8186035-2.4465332-2.6298828-1.1762695-.817627-2.821167-1.4724083-4.7946777-1.4907188-1.9489746-.0175781-4.2850342.6796837-6.1478271 2.4689903-1.0147743.9643555-1.9320107 2.3623047-2.375248 4.0427246-.4467773 1.6740723-.3994141 3.6013184.2926025 5.3737793.6622314 1.7802734 1.9897499 3.3178711 3.6082802 4.2885742 1.6235352.9770508 3.5487061 1.3417969 5.2670898 1.1193848 1.732666-.2001953 3.2624512-.9699707 4.3378906-1.9428711 1.1025391-.9589844 1.7454834-2.1259766 2.086792-3.1196289.6567383-2.0476074.1793213-3.3217773-.0491943-3.2946777-.3149414-.010498-.4522705 1.1945801-1.3845215 2.6181641-.4697266.6960449-1.1278076 1.451416-2.0377197 1.9882813-2.0047455 1.2484589-4.5686111 1.1557236-6.3795166-.1999512-.9187012-.6943359-1.6179199-1.6672363-1.9129639-2.7128906-.3201904-1.0336914-.2739258-2.1308594.0118408-3.0368652.6498032-2.0768051 2.5295486-3.5267792 4.7160645-3.6032715 1.1015625-.027832 2.02771.2651367 2.7501221.6691895 1.4703369.8171387 2.0958252 1.904541 2.5335693 2.5976563.4156494.7282715.637085 1.1796875.8961182 1.4138184.2564697.2387695.526001.2675781.8070068.2658691s.5484619-.0141602.7767334-.3337402c.2186279-.3168945.4512939-.9677734.2628174-2.223877-.114624-.6184085-.3310547-1.3913577-.8187256-2.2580569z"/><path d="m77.5860901 92.7119522c-.4945068-.8532715-1.251709-1.8186035-2.4465332-2.6298828-1.1762695-.817627-2.821167-1.4724121-4.7946777-1.4907227-1.9489746-.0175781-4.2850342.6796875-6.1478271 2.4689941-1.0147743.9643555-1.9320107 2.3623047-2.375248 4.0427246-.4467773 1.6740723-.3994141 3.6013184.2926025 5.3737793.6622314 1.7802734 1.9897499 3.3178711 3.6082802 4.2885742 1.6235352.9770508 3.5487061 1.3417969 5.2670898 1.1193848 1.732666-.2001953 3.2624512-.9699707 4.3378906-1.9428711 1.1025391-.9589844 1.7454834-2.1259766 2.086792-3.1196289.6567383-2.0476074.1793213-3.3217773-.0491943-3.2946777-.3149414-.010498-.4522705 1.1945801-1.3845215 2.6181641-.4697266.6960449-1.1278076 1.451416-2.0377197 1.9882813-.8895264.5539551-1.9989014.8999023-3.1469727.8776855-1.1506348-.0065918-2.30896-.3862305-3.2325439-1.0776367-.9187012-.6943359-1.6179199-1.6672363-1.9129639-2.7128906-.3201904-1.0336914-.2739258-2.1308594.0118408-3.0368652.6498032-2.0768051 2.5295486-3.5267792 4.7160645-3.6032715 1.1015625-.0280762 2.02771.2651367 2.7501221.6691895 1.4703369.8171387 2.0958252 1.904541 2.5335693 2.5976563.4156494.7282715.637085 1.1796875.8961182 1.4138184.2564697.2387695.526001.2675781.8070068.2658691s.5484619-.0141602.7767334-.3337402c.2186279-.3168945.4512939-.9677734.2628174-2.223877-.114624-.6184084-.3310547-1.3913576-.8187256-2.2580568z"/><path d="m100.8500061 68.0056534c-.4945068-.8532715-1.251709-1.8186035-2.4465332-2.6298828-1.1762695-.817627-2.821167-1.4724083-4.7947998-1.4907188-1.9488525-.0175781-4.2849121.6796837-6.1478271 2.4689903-1.0147705.9643555-1.9318848 2.3623047-2.3751221 4.0427246-.4467773 1.6740723-.3994141 3.6013184.2924805 5.3737793.6623535 1.7802734 1.9898682 3.3178711 3.6083984 4.2885742 1.6235352.9770508 3.5487061 1.3417969 5.2669678 1.1193848 1.7327881-.2001953 3.2624512-.9699707 4.3380127-1.9428711 1.1025391-.9589844 1.7453613-2.1259766 2.0866699-3.1196289.6568604-2.0476074.1793213-3.3217773-.0490723-3.2946777-.3149414-.010498-.4522705 1.1945801-1.3845215 2.6181641-.4698486.6960449-1.1279297 1.451416-2.0377197 1.9882813-2.0047455 1.2484589-4.5686188 1.1557159-6.3795166-.1999512-.9187012-.6943359-1.6179199-1.6672363-1.9129639-2.7128906-.3201904-1.0336914-.2740479-2.1308594.0117188-3.0368652.6501617-2.0770798 2.5297546-3.5267868 4.7161865-3.6032715 1.1015625-.027832 2.0275879.2651367 2.7501221.6691895 1.4703369.8171387 2.0958252 1.904541 2.5335693 2.5976563.4156494.7282715.6369629 1.1796875.8961182 1.4138184.2564697.2387695.526001.2675781.8070068.2658691s.5484619-.0141602.7767334-.3337402c.2186279-.3168945.4512939-.9677734.2628174-2.223877-.1147461-.6184085-.3310547-1.3913577-.8187256-2.2580569z"/><path d="m100.8500061 92.7119522c-.4945068-.8532715-1.251709-1.8186035-2.4465332-2.6298828-1.1762695-.817627-2.821167-1.4724121-4.7947998-1.4907227-1.9488525-.0175781-4.2849121.6796875-6.1478271 2.4689941-1.0147705.9643555-1.9318848 2.3623047-2.3751221 4.0427246-.4467773 1.6740723-.3994141 3.6013184.2924805 5.3737793.6623535 1.7802734 1.9898682 3.3178711 3.6083984 4.2885742 1.6235352.9770508 3.5487061 1.3417969 5.2669678 1.1193848 1.7327881-.2001953 3.2624512-.9699707 4.3380127-1.9428711 1.1025391-.9589844 1.7453613-2.1259766 2.0866699-3.1196289.6568604-2.0476074.1793213-3.3217773-.0490723-3.2946777-.3149414-.010498-.4522705 1.1945801-1.3845215 2.6181641-.4698486.6960449-1.1279297 1.451416-2.0377197 1.9882813-.8895264.5539551-1.9990234.8999023-3.1469727.8776855-1.1506348-.0065918-2.30896-.3862305-3.2325439-1.0776367-.9187012-.6943359-1.6179199-1.6672363-1.9129639-2.7128906-.3201904-1.0336914-.2740479-2.1308594.0117188-3.0368652.2852783-.911377.8011475-1.661377 1.3590088-2.1896973 1.0275879-.9790039 2.2684326-1.3754883 3.3571777-1.4135742 1.1015625-.0280762 2.0275879.2651367 2.7501221.6691895 1.4703369.8171387 2.0958252 1.904541 2.5335693 2.5976563.4156494.7282715.6369629 1.1796875.8961182 1.4138184.2564697.2387695.526001.2675781.8070068.2658691s.5484619-.0141602.7767334-.3337402c.2186279-.3168945.4512939-.9677734.2628174-2.223877-.1147461-.6184084-.3310547-1.3913576-.8187256-2.2580568z"/><path d="m112.2505188 80.0591202c1.6234131.9770508 3.5487061 1.3417969 5.2669678 1.1193848 1.7327881-.2001953 3.2624512-.9699707 4.3378906-1.9428711 1.1026611-.9589844 1.7454834-2.1259766 2.086792-3.1196289.6568604-2.0476074.1793213-3.3217773-.0491943-3.2946777-.3148193-.010498-.4522705 1.1945801-1.3845215 2.6181641-.4697266.6960449-1.1278076 1.451416-2.0375977 1.9882813-2.0088043 1.2508163-4.5723419 1.1530151-6.3796387-.1999512-.9185791-.6943359-1.6179199-1.6672363-1.9128418-2.7128906-.3203125-1.0336914-.2740479-2.1308594.0117188-3.0368652.6502151-2.07724 2.5296707-3.5267792 4.7161865-3.6032715 1.1015625-.027832 2.0275879.2651367 2.7501221.6691895 1.4703369.8171387 2.0958252 1.904541 2.5335693 2.5976563.4155273.7282715.6369629 1.1796875.8961182 1.4138184.2564697.2387695.526001.2675781.8068848.2658691.2810059-.001709.5484619-.0141602.7768555-.3337402.2185059-.3168945.4512939-.9677734.2628174-2.223877-.1147461-.6184082-.3310547-1.3913574-.8187256-2.2580566-.4945068-.8532715-1.251709-1.8186035-2.4465332-2.6298828-1.1762695-.817627-2.821167-1.4724083-4.7947998-1.4907188-1.9488525-.0175781-4.2849121.6796837-6.1478271 2.4689903-1.0147705.9643555-1.9318848 2.3623047-2.3751221 4.0427246-.4467773 1.6740723-.3994141 3.6013184.2924805 5.3737793.6622313 1.7802731 1.989868 3.3178708 3.6083983 4.2885739z"/><path d="m3.5273724 46.4697685c.2128906.3444824.4816895.6589355.7727051.9545898-.2526855 1.3737793-.3969727 2.7351074-.4921875 4.0869141-.2382813 3.4794922-.1054688 6.9763184-.1817627 10.2607422-.4845486 13.4598961-.492954 27.1381111.1090088 41.4782677.1430664 3.4619141.4310303 7.0617676 1.5661621 10.5161133 1.0493164 3.4467773 3.1778564 6.7993164 6.2111816 8.9240723l1.1387939.7719727 1.201416.6362305.6015625.3125.6218262.2485352 1.2424316.4914551c.8422852.2485352 1.6818848.5229492 2.5269775.7114258.8480225.1533203 1.690918.3813477 2.5360107.4660645 1.7106934.2416992 3.321167.3583984 4.9348145.4943848 1.6137695.1416016 3.2177734.2700195 4.8118896.3752441 3.1857891.2404785 6.3293438.4106445 9.4177227.5754395 6.1783447.30616 12.1442871.4414139 17.826416.4792557 16.5427895.0970001 34.4717979-.888504 50.3990517-2.9973221 4.7574463-.6896973 7.3756104-.9208984 7.371582-1.090332-.0043945-.0700684-.6699219-.0891113-1.9382324-.060791-1.2733154.0070801-3.1326904.1398926-5.519165.3349609-4.77771.3654785-11.6889648.8962402-20.2397461 1.2539063-8.5493164.361084-18.7384033.5654297-30.0397987.2827148-5.6499023-.145752-11.5777588-.3842773-17.7125244-.7888184-3.0664063-.2138672-6.1867676-.4318848-9.3480206-.71875-1.5819092-.128418-3.1732178-.2797852-4.7740479-.4438477-1.6020508-.1572266-3.2319336-.3034668-4.7567139-.5429688-.7827148-.0871582-1.5255127-.3083496-2.293335-.4538574-.7558594-.1789551-1.4836426-.4331055-2.2230225-.6569824l-1.0596924-.4387207-.5313721-.2172852-.4984131-.2712402-.9979248-.541748-.9212646-.6464844c-2.4293213-1.7644043-4.09729-4.411377-4.9924316-7.4377441-.9562988-3.0222168-1.2032471-6.3098145-1.3009033-9.6855469-.4287856-14.0410998-.3052595-27.6127169.2978518-41.2160609.1085205-3.5534668.0063477-6.8725586.2565918-10.1379395.0666504-.8623047.1696777-1.706543.2932129-2.5380859.2111816.0366211.4221191.0727539.6303711.1030273 1.0578241.0650673 44.9059219-.040329 44.9005127-1.9575195-.0058784-1.9359055-39.7831917-1.5359955-44.4885254-1.7524414-.3271484-.060791-.6669922-.1069336-.930542-.2189941-.5544434-.2072754-.9117432-.484375-1.2293701-.9765625-.7511325-1.1531563-.8960276-3.5967484-.9824219-4.9816895-.0665283-1.0605469-.126709-2.0524902-.114624-3.0703125.0633092-6.487421 2.416194-10.3239784 12.1936035-10.5788574.0241699.4318848.0476074.8549805.0705566 1.2678223.0151367.2150879.0300293.4274902.0447998.6369629.0219727.2568359.0522461.5075684.1119385.7504883.1075439.4855957.2816162.9394531.5112305 1.3381348.4443359.809082 1.0841064 1.3977051 1.7276611 1.7861328 1.2949219.8063965 2.644043.6743164 3.2873535.5239258.7052002-.1325684 1.0952148-.2700195 1.0952148-.4104004 0-.140625-.3900146-.277832-1.0952148-.4104004-.3706055-.0695801-.7593994-.1188965-1.1591797-.2651367-.4040527-.1479492-.8314209-.3793945-1.2080078-.7290039-.3748779-.3459473-.7121582-.7966309-.8978271-1.3352051-.1010742-.2646484-.1589355-.5507813-.1779785-.84375-.0151367-.145752-.0080566-.2949219-.0003662-.4443359.012207-.1965332.0246582-.395752.0373535-.5974121.0926514-1.6679688.194458-3.5004883.3012695-5.4230957.3963165-9.5079775.3304996-8.7901211.3594971-8.9165039.0610352-.5688477.3356934-1.0827637.7406006-1.4440918.8328991-.7582817 3.2676678-.5656328 3.6026611-.4472656.8931885.2421875 1.4650879 1.0529785 1.5241699 1.7661133.0229492 2.5583496.0429688 4.8032227.0605469 6.7739258.0270996 2.043457.0671387 3.802002.1186523 5.3154297.0310059.7563477.0595703 1.4516602.0858154 2.0908203.015625.3063965.0305176.5991211.0449219.8791504.012207.1694336.0096436.3322754-.0073242.4873047-.0639648.6254883-.3449707 1.1118164-.6202393 1.4731445-.5834961.7163086-1.1234131.9760742-1.3856201 1.2612305-.2813721.2561035-.3276367.5288086-.3237305.809082.0040283.2802734.0131836.5500488.477417.7685547.2324219.0927734.5855713.1687012 1.1083984.1230469.5145264-.0566406 1.2147217-.2338867 1.989502-.7685547.755249-.5314941 1.6307373-1.4458008 2.0455322-2.9104004.1021729-.3620605.1712646-.7541504.1981201-1.1682129.0172119-.3039551.0351563-.6218262.0539551-.9543457.0129395-.3146973.0263672-.6435547.0405273-.9858398 4.5532207-.0192871 9.3073711-.0390625 14.3231182-.0600586 14.3599854-.1005859 32.8342323-.2299805 52.4683876-.3676758.6687012-.0029297 1.3447266-.0058594 2.019165-.0087891.0323486.583252.0643311 1.1567383.0948486 1.7070313.0151367.2150879.0301514.4274902.0449219.6369629.0218506.2568359.0522461.5075684.1118164.7504883.107666.4855957.2816162.9394531.5112305 1.3381348.4443359.809082 1.0841064 1.3977051 1.7276611 1.7861328 1.2950439.8063965 2.644165.6743164 3.2874756.5239258.7052002-.1325684 1.0952148-.2700195 1.0952148-.4104004 0-.140625-.3900146-.277832-1.0952148-.4104004-.3706055-.0695801-.7593994-.1188965-1.1591797-.2651367-.4040527-.1479492-.831543-.3793945-1.2080078-.7290039-.375-.3459473-.7121582-.7966309-.8979492-1.3352051-.1009521-.2646484-.1589355-.5507813-.1778564-.84375-.0152588-.145752-.0080566-.2949219-.0004883-.4443359.0123291-.1965332.0247803-.395752.0373535-.5974121.0927734-1.6679688.1945801-3.5004883.3013916-5.4230957.3963165-9.5079775.3304977-8.7901211.3594971-8.9165039.0609131-.5688477.3356934-1.0827637.7404785-1.4440918.832901-.7582817 3.2677917-.5656328 3.6027832-.4472656.8930664.2421875 1.4650879 1.0529785 1.5241699 1.7661133.0445557 4.9938431.0524902 8.3668766.1791992 12.0893555.0310059.7563477.0594482 1.4516602.0856934 2.0908203.015625.3063965.0306396.5991211.0449219.8791504.0123291.1694336.0097656.3322754-.0072021.4873047-.0640869.6254883-.3449707 1.1118164-.6203613 1.4731445-.5834961.7163086-1.1234131.9760742-1.3856201 1.2612305-.28125.2561035-.3276367.5288086-.3236084.809082.0039063.2802734.0130615.5500488.4772949.7685547.2325439.0927734.5856934.1687012 1.1083984.1230469.5145264-.0566406 1.2148438-.2338867 1.989624-.7685547.755127-.5314941 1.6307373-1.4458008 2.0455322-2.9104004.1021729-.3620605.1711426-.7541504.1981201-1.1682129.0172119-.3039551.0351563-.6218262.0539551-.9543457.0187988-.4594727.0393066-.9589844.0606689-1.4785156.017334 0 .034668-.0002441.0522461-.0002441 2.4949951.0292969 5.0065918.0410156 7.4783936.1218262 3.8617249 1.0739346 9.5111237-.1457043 10.2492676 10.0644531.072876 1.230957.1396484 2.4284668.1191406 3.5800781-.0874023 6.1937485-2.4557495 6.162693-8.0716553 6.8317871-9.3134766 1.029541-18.3875732.8850098-26.5932617.7626953-5.4963074-.0964966-10.5044327-.0203819-21.8879395.0856934-6.2344971.0708008-11.2784462.1574707-14.7634315.2617188-3.4849854.1040039-5.4111328.2255859-5.4105225.3662109.0004883.140625 1.9273682.293457 5.4093018.4545898 7.097126.3279228 17.880146.583065 24.9166298.7634277 3.6563721.081543 7.5616455.1638184 11.6905518.3449707 8.2435303.3364258 17.3206787.6945801 26.9349365-.1750488 1.1727142-.1164856 3.1384201-.316143 4.2980957-.5205078.0047607.015625.0111084.0305176.0157471.0463867.4158936 1.345459.6789551 2.7565918.8758545 4.1799316.6796875 5.8076172 1.0164795 11.4057617 1.2312012 16.4792442.4099121 10.5439148.1924286 20.601944-.637207 31.0456543-.1380615 1.6813965-.1738281 3.2731934-.2124023 4.7397461-.0701904 2.9448242-.1516113 5.5280762-.3974609 7.786377-.2288818 2.2580566-.6335449 4.1860352-1.2437744 5.6813965-.5950928 1.4990234-1.458252 2.4682617-2.439209 3.1171875-.9621582.6638184-1.9727783 1.0097656-2.8319092 1.2746582-.8669434.2583008-1.6091309.4174805-2.2163086.5473633-2.4492188.4880371-2.652832.7202148-2.6259766 1.0144043.024292.2651367.2058105.5737305 2.807373.5603027.6529541-.0129395 1.463623-.0588379 2.4720459-.2307129 1.0004883-.184082 2.2341309-.4567871 3.5875244-1.2263184 1.3546143-.7192383 2.7694092-2.1379395 3.6085205-3.9929199.8676758-1.8344727 1.3947754-3.980957 1.7384033-6.3811035.3568115-2.4035645.5270996-5.0825195.6809082-8.0258789.0803223-1.4775391.1542969-2.9899902.3220215-4.565918.1696777-1.6376953.3292236-3.3603516.4787598-5.1726074.5849609-7.2480469.9578857-15.9377441.6589355-26.3022461-.1721191-5.2055626-.4487305-10.7238731-1.1262207-16.8640099-.232666-1.6789551-.5445557-3.4511719-1.1265869-5.2307129 1.1606445-.9174805 1.9564209-2.2329102 2.3597412-3.5092773.4476318-1.3835449.585083-2.7458496.6386719-4.0583496.0449219-1.3129883-.0080566-2.5876465-.060791-3.8327637-.5020142-8.857317-5.7116547-13.1160851-12.3570557-13.3422852l-.9520264-.0378418c-2.5466309-.1176758-5.0552979-.1611328-7.5667725-.222168.0293503-1.4365368.1461411-8.8464556.03125-9.6210938-.12854-1.0825195-.5848389-2.2131348-1.3771973-3.1540527-.793335-.9301758-1.9180908-1.6867676-3.2314453-1.9851074-1.840538-.4802599-5.279274-.3291621-7.1860352 1.6401367-1.0197754 1.0266113-1.6480713 2.4658203-1.6898193 3.9243164-.0237274.6051779.3067245 8.4084473.3355713 9.1020508-.6037598-.0043945-1.2094727-.0087891-1.8082275-.0129395-19.6605225-.0927734-38.123539-.0019531-52.491581.0476074-4.9631348.0263672-9.670166.0515137-14.1801739.0754395.0153809-.7453613.0292969-1.5244141.0404053-2.3632813.0571632-6.1355028.0365486-5.8496885.0404053-6.5385742-.0124512-.2434082-.0125732-.489502-.0490723-.7355957-.1286621-1.0825195-.5849609-2.2131348-1.3773193-3.1540527-2.7825203-3.2629743-8.3852215-2.443881-10.4174805-.3449707-1.0197754 1.0266113-1.6480713 2.4658203-1.6896973 3.9243164-.0294247.7448311.2526989 7.1138992.3361816 9.1166992.0023193.0429688.0047607.0842285.0070801.1271973-2.6799316.0876465-5.4456787.4086914-7.9971924 1.4785156-1.3311768.5490723-2.5705566 1.2768555-3.6802979 2.1269531-3.2731659 2.5749683-4.1469355 6.821022-4.1816406 10.9821777-.0037842 1.166748.0786133 2.3151855.1542969 3.3520508.0789795 1.067627.1663818 2.1535645.3730469 3.2810059.2153322 1.1186521.5197756 2.3159177 1.2598879 3.4704587z"/><path d="m117.5174866 105.8848038c1.7327881-.2001953 3.2624512-.9699707 4.3378906-1.9428711 1.1026611-.9589844 1.7454834-2.1259766 2.086792-3.1196289.6568604-2.0476074.1793213-3.3217773-.0491943-3.2946777-.3148193-.010498-.4522705 1.1945801-1.3845215 2.6181641-.4697266.6960449-1.1278076 1.451416-2.0375977 1.9882813-2.0088043 1.2508163-4.5723419 1.1530151-6.3796387-.1999512-.9185791-.6943359-1.6179199-1.6672363-1.9128418-2.7128906-.3203125-1.0336914-.2740479-2.1308594.0117188-3.0368652.2852783-.911377.8011475-1.661377 1.3588867-2.1896973 1.02771-.9790039 2.2685547-1.3754883 3.3572998-1.4135742 1.1015625-.0280762 2.0275879.2651367 2.7501221.6691895 1.4703369.8171387 2.0958252 1.904541 2.5335693 2.5976563.4155273.7282715.6369629 1.1796875.8961182 1.4138184.2564697.2387695.526001.2675781.8068848.2658691.2810059-.001709.5484619-.0141602.7768555-.3337402.2185059-.3168945.4512939-.9677734.2628174-2.223877-.1147461-.6184082-.3310547-1.3913574-.8187256-2.2580566-.4945068-.8532715-1.251709-1.8186035-2.4465332-2.6298828-1.1762695-.817627-2.821167-1.4724121-4.7947998-1.4907227-1.9488525-.0175781-4.2849121.6796875-6.1478271 2.4689941-1.0147705.9643555-1.9318848 2.3623047-2.3751221 4.0427246-.4467773 1.6740723-.3994141 3.6013184.2924805 5.3737793.6622314 1.7802734 1.9898682 3.3178711 3.6083984 4.2885742 1.623413.9770506 3.548706 1.3417967 5.2669677 1.1193846z"/></g></g></svg>