<svg version="1.2" xmlns="http://www.w3.org/2000/svg" viewBox="0 0 1188 1194" width="1188" height="1194">
	<title>linky-1</title>
	<style>
		.s0 { fill: #ac3226 } 
		.s1 { fill: #cb4e44 } 
		.s2 { fill: #bc6f3a } 
		.s3 { fill: #dba251 } 
		.s4 { fill: #e8be50 } 
	</style>
	<path class="s0" d="m354.6 202.3c-166.3 102.2-349.7 205.3-308.3 190l-6.4 3.8 163.2 72.7c89.6 39.9 163.3 72.2 164 71.5 0.4-0.4 65.6-117.9 144.9-260.8 79.2-143 144.6-260.6 145.1-261.8 0.4-0.9 0.7-1.6 0.2-1.6-0.5 0.3-136.5 84-302.7 186.2z"/>
	<path id="Layer copy" class="s1" d="m356.6 202.3m344.7-159.8c-1.4 2.6-65 116.8-141.3 254.1l-138.7 249.6 186.7 0.6c102.8 0.2 270.3 0.2 372.5-0.1l185.5-0.8-224.8-247.2c-123.6-136.1-227.6-250.2-231.3-253.9-5.9-6.1-6.6-6.1-8.6-2.3zm-683.8 400.6c4.6 23.7 142.5 617.3 143.4 617.3 1.6 0 187.2-474.5 186.3-475.4-0.5-0.2-73-32.6-161.4-71.7-88.5-39.2-162.6-72.2-165.1-73.4-3.7-2-4.1-1.6-3.2 3.2zm438.9 188.2c14.8 18.6 113.6 143.1 219.6 276.8 106.1 133.6 193.5 243 194.1 243.2 1 0 280.7-515.1 298-549l2.7-5.1-741.1 0.3zm-161.5 223.3c-49.9 127.4-90.4 231.8-90 232.1 1.2 0.7 622.6 91.8 623.1 91.4 0.4-0.7-439.3-554.3-441.1-554.7-0.9-0.5-42.4 103.7-92 231.2z"/>
	<path id="Layer copy 2" class="s2" d="m356.6 202m-339.2 240.8c4.6 23.7 142.3 617.3 143.2 617.3 1.6 0 187.4-474.4 186.4-475.3-0.4-0.3-72.9-32.6-161.4-71.8-88.4-39.2-162.5-72.3-165-73.4-3.7-2.1-4.1-1.6-3.2 3.2zm438.8 188.3c14.9 18.6 113.6 143.1 219.6 276.9 106 133.6 193.3 243 194 243.3 0.9 0 280.8-515 298.1-549l2.8-5h-741.1zm-161.7 223.2c-49.9 127.4-90.5 231.8-90 232.1 1.1 0.6 622.6 92.1 623 91.6 0.5-0.7-439-554.4-440.9-554.9-0.9-0.4-42.4 103.8-92.1 231.2z"/>
	<path id="Layer copy 3" class="s3" d="m356.6 202m-339.2 240.8c4.6 23.7 142.3 617.3 143.2 617.3 1.6 0 187.4-474.4 186.4-475.3-0.4-0.3-72.9-32.6-161.4-71.8-88.4-39.2-162.5-72.3-165-73.4-3.7-2.1-4.1-1.6-3.2 3.2zm852.4 708.5m-575.2-297.1c-49.9 127.5-90.5 231.9-90 232.1 1.1 0.7 622.5 92.1 623 91.6 0.5-0.6-439.1-554.4-440.9-554.8-0.9-0.5-42.4 103.7-92.1 231.1z"/>
	<path id="Layer copy 4" class="s4" d="m356.6 202m-339.2 240.8c4.6 23.7 142.3 617.3 143.2 617.3 1.6 0 187.4-474.4 186.4-475.3-0.4-0.3-72.9-32.6-161.4-71.8-88.4-39.2-162.5-72.3-165-73.4-3.7-2.1-4.1-1.6-3.2 3.2zm187.2 643.5"/>
</svg>