<svg version="1.2" xmlns="http://www.w3.org/2000/svg" viewBox="0 0 1188 1194" width="1188" height="1194">
	<title>linky-1</title>
	<style>
		.s0 { fill: #ffffff } 
	</style>
	<path class="s0" d="m354.6 202c-166.2 102.1-305 187.6-308.4 189.9l-6.4 3.9 163.2 72.7c89.6 39.9 163.2 72.3 163.9 71.6 0.5-0.5 65.7-117.9 145-260.8 79.3-142.9 144.8-260.6 145.2-261.7 0.5-0.9 0.7-1.6 0.3-1.6-0.5 0.2-136.6 83.9-302.8 186zm344.7-159.6c-1.4 2.6-65 116.8-141.3 254l-138.9 249.6 186.7 0.7c102.8 0.2 270.4 0.2 372.5 0l185.6-0.7-224.8-247.3c-123.5-136.1-227.5-250.3-231.1-254-6-6.1-6.6-6.1-8.7-2.3zm-683.9 400.4c4.6 23.7 142.3 617.3 143.2 617.3 1.6 0 187.4-474.4 186.4-475.3-0.4-0.3-72.9-32.6-161.4-71.8-88.4-39.2-162.5-72.3-165-73.4-3.7-2.1-4.1-1.6-3.2 3.2zm438.8 188.3c14.9 18.6 113.6 143.1 219.6 276.9 106 133.6 193.3 243 194 243.3 0.9 0 280.8-515 298.1-549l2.8-5h-741.1zm-161.7 223.2c-49.9 127.4-90.5 231.8-90 232.1 1.1 0.6 622.6 92.1 623 91.6 0.5-0.7-439-554.4-440.9-554.9-0.9-0.4-42.4 103.8-92.1 231.2z"/>
</svg>