<svg xmlns="http://www.w3.org/2000/svg" version="1.0" viewBox="0 0 1168 1168"><path d="m115.2 148.1-5.2 2-4.8 4.7-4.8 4.7-2.4 5-2.5 5v297l2.4 5 2.5 4.9 4.1 4.1 4.1 4.1 4.9 2.5 5 2.4 74 .6 74 .5 2.5.9 2.5.8 24.4 8.9 24.3 8.8h.8V165.2l-3.2-.8-3.3-.7-23.5-8.6-23.5-8.6-73.5-.2-73.5-.2zM258.5 222l2.5 1 1 2.5.9 2.5-25.4 81.5L212 391v23.8l10.5.4 10.4.3 1.7 1.7 1.7 1.7v6.2l-1.7 1.7-1.7 1.7h-54.8l-1.7-1.7-1.7-1.7v-6.2l1.7-1.7 1.7-1.7 9.9-.3 10-.4v-24l-23.6-81.6-23.5-81.6 1-2.3 1.1-2.4 2.2-.9 2.3-.9h49.2l49.2-.1z"/><path d="m167.2 236.2.5 1.3 5.8 20.7 5.8 20.6 4.1 3.1 4 3.1h10.1l7.2-4.9 7.2-4.9 5.8-1.2 5.7-1.2 5.4 1.5 5.3 1.5.4-1.2.4-1.1L240 257l5.1-16.5.9-2.8.9-2.7h-80.1zm44.7 54.9-5.4 4-3.5 1.6-3.5 1.6-7.3.1H185l.3 1.1.4 1L195 333l9.3 32.5.7.8.6.7 12.1-38.7 12.2-38.8-1.1-1.2-1-1.3h-10.4zM389 146.7l-1.5.5-23.5 8.4-23.5 8.3-2.7.7-2.8.6V510h.8l24.3-8.8 24.4-8.9 2.5-.8 2.5-.9 74-.5 74-.6 5-2.4 4.9-2.5 4.1-4.1 4.1-4.1 2.5-4.9 2.4-5 .3-147.2.2-147.2-2.1-5.6-2.1-5.7-5.3-5.3-5.3-5.3-5.7-2.1-5.6-2.1-72.2.1-72.2.1zm56.9 72.7 2.1 1.9v5.4l-2.1 1.9-2.1 1.9-26.6.3-26.6.3-2.8-1.2-2.8-1.2-.6-2.3-.6-2.4.6-2.3.6-2.4 2.2-1.1 2.3-1.1 27.1.2 27.2.2zm70 63 2.1 1.9v5.4l-2.1 1.9-2.1 1.9-61.6.3-61.7.2-2.8-1.1-2.7-1.2-.6-2.3-.6-2.4.6-2.3.6-2.4 2.2-1.1 2.3-1.1 62.1.2 62.2.2zm0 63 2.1 1.9v5.4l-2.1 1.9-2.1 1.9-61.6.3-61.7.2-2.8-1.1-2.7-1.2-.6-2.3-.6-2.4.6-2.3.6-2.4 2.2-1.1 2.3-1.1 62.1.2 62.2.2zm0 62 2.1 1.9v5.4l-2.1 1.9-2.1 1.9-61.6.3-61.7.2-2.8-1.1-2.7-1.2-.6-2.3-.6-2.4.6-2.3.6-2.4 2.2-1.1 2.3-1.1 62.1.2 62.2.2z"/></svg>