<svg xmlns="http://www.w3.org/2000/svg" version="1.0" viewBox="0 0 1024 1024"><path fill="#008040" fill-opacity=".9" d="M339.8 256.7c.7.3 1.6.2 1.9-.1.4-.3-.2-.6-1.3-.5-1.1 0-1.4.3-.6.6m-83.7 83.9c0 1.1.3 1.4.6.6.3-.7.2-1.6-.1-1.9-.3-.4-.6.2-.5 1.3"/><path fill="#00BF40" d="M334.1 257.1c-34.1 3.3-63.7 27.8-74 61.3-3.6 11.6-4.1 25.8-4.1 112.6s.5 101 4.1 112.6c8.6 27.8 30.5 49.7 58.2 58.3 11.8 3.6 24.9 4.1 112.7 4.1s100.9-.5 112.7-4.1c23.2-7.2 42.5-23.7 52.9-45.4 5.3-11 7.2-17.9 8.4-31 1.3-13.5 1.2-175 0-189.1-1.1-12.7-3.6-21.7-9-32.4-10.4-20.6-29.8-36.9-52.3-43.9-3.8-1.1-11.6-2.5-17.5-3.1-12.7-1.2-179.5-1.1-192.1.1"/><path fill="#008040" d="M256.1 520.6c0 1.1.3 1.4.6.6.3-.7.2-1.6-.1-1.9-.3-.4-.6.2-.5 1.3"/><path fill="#408040" d="M522.8 256.7c1.2.2 3 .2 4 0 .9-.3-.1-.5-2.3-.4-2.2 0-3 .2-1.7.4M256.2 525c0 1.9.2 2.7.5 1.7.2-.9.2-2.5 0-3.5-.3-.9-.5-.1-.5 1.8"/><path fill="#BF4040" d="M534.8 257.1c11.2 1.9 26.6 8.5 35.5 15.3l4.7 3.6h56.7c63.7 0 63.2-.1 78.3 7.3 6.8 3.3 10.2 5.8 17 12.7 9.4 9.4 13.8 16.1 17.8 27.2l2.7 7.3v363l-2.7 7.3c-4 11-8.4 17.8-17.3 26.7s-15.7 13.3-26.7 17.3l-7.3 2.7h-363l-7.3-2.7c-11-4-17.8-8.4-26.7-17.3s-13.3-15.7-17.3-26.7l-2.7-7.3-.3-59.3-.3-59.3-3.5-4.6c-6.4-8.4-12.4-21.8-14.8-33.3-1.3-5.8-1.4 1.3-1.5 65-.1 40.9.4 76.4.9 83 2 22 10.6 40.4 26.1 55.9 15.3 15.3 33.8 24 55.4 26.1 15 1.4 332 1.4 347 0 39.8-3.8 71.4-32 80.3-71.8 1.6-7.1 1.7-20.7 1.7-183.2s-.1-176.1-1.7-183.2c-8.9-39.8-40.5-68-80.3-71.8-13.7-1.3-158.5-1.2-150.7.1"/><path fill="#BF4040" fill-opacity=".9" d="M679.8 256.7c.7.3 1.6.2 1.9-.1.4-.3-.2-.6-1.3-.5-1.1 0-1.4.3-.6.6m54.2 19.7c0 .2.8 1 1.8 1.7 1.5 1.3 1.6 1.2.3-.4s-2.1-2.1-2.1-1.3m11 11c0 .2.8 1 1.8 1.7 1.5 1.3 1.6 1.2.3-.4s-2.1-2.1-2.1-1.3m22.2 56.6c0 1.4.2 1.9.5 1.2.2-.6.2-1.8 0-2.5-.3-.6-.5-.1-.5 1.3m-511 336c0 1.4.2 1.9.5 1.2.2-.6.2-1.8 0-2.5-.3-.6-.5-.1-.5 1.3m511 0c0 1.4.2 1.9.5 1.2.2-.6.2-1.8 0-2.5-.3-.6-.5-.1-.5 1.3M276 734.4c0 .2.8 1 1.8 1.7 1.5 1.3 1.6 1.2.3-.4s-2.1-2.1-2.1-1.3m469.9 1.3c-1.3 1.6-1.2 1.7.4.4s2.1-2.1 1.3-2.1c-.2 0-1 .8-1.7 1.7M287 745.4c0 .2.8 1 1.8 1.7 1.5 1.3 1.6 1.2.3-.4s-2.1-2.1-2.1-1.3m447.9 1.3c-1.3 1.6-1.2 1.7.4.4s2.1-2.1 1.3-2.1c-.2 0-1 .8-1.7 1.7m-392.1 21c.7.3 1.6.2 1.9-.1.4-.3-.2-.6-1.3-.5-1.1 0-1.4.3-.6.6m337 0c.7.3 1.6.2 1.9-.1.4-.3-.2-.6-1.3-.5-1.1 0-1.4.3-.6.6"/><path fill="#BF4040" fill-opacity=".7" d="M740 281.4c0 .2.8 1 1.8 1.7 1.5 1.3 1.6 1.2.3-.4s-2.1-2.1-2.1-1.3"/><path fill="#BF4040" fill-opacity=".6" d="M727 296.5c1.3 1.4 2.6 2.5 2.8 2.5.3 0-.5-1.1-1.8-2.5s-2.6-2.5-2.8-2.5c-.3 0 .5 1.1 1.8 2.5M296.5 728c1 1.1 2 2 2.3 2s-.3-.9-1.3-2-2-2-2.3-2 .3.9 1.3 2m430.4-.3c-1.3 1.6-1.2 1.7.4.4.9-.7 1.7-1.5 1.7-1.7 0-.8-.8-.3-2.1 1.3M279 738.4c0 .2.8 1 1.8 1.7 1.5 1.3 1.6 1.2.3-.4s-2.1-2.1-2.1-1.3m463.9 1.3c-1.3 1.6-1.2 1.7.4.4s2.1-2.1 1.3-2.1c-.2 0-1 .8-1.7 1.7m-4 4c-1.3 1.6-1.2 1.7.4.4s2.1-2.1 1.3-2.1c-.2 0-1 .8-1.7 1.7"/><path fill="#00BF40" fill-opacity=".9" d="M286.9 276.7c-1.3 1.6-1.2 1.7.4.4.9-.7 1.7-1.5 1.7-1.7 0-.8-.8-.3-2.1 1.3m297.1 9.7c0 .2.8 1 1.8 1.7 1.5 1.3 1.6 1.2.3-.4s-2.1-2.1-2.1-1.3m21.2 54.6c0 1.4.2 1.9.5 1.2.2-.6.2-1.8 0-2.5-.3-.6-.5-.1-.5 1.3m0 180c0 1.4.2 1.9.5 1.2.2-.6.2-1.8 0-2.5-.3-.6-.5-.1-.5 1.3m-265.4 84.7c.7.3 1.6.2 1.9-.1.4-.3-.2-.6-1.3-.5-1.1 0-1.4.3-.6.6m181 0c.7.3 1.6.2 1.9-.1.4-.3-.2-.6-1.3-.5-1.1 0-1.4.3-.6.6"/><path fill="#00BF40" fill-opacity=".6" d="M282.9 279.7c-1.3 1.6-1.2 1.7.4.4.9-.7 1.7-1.5 1.7-1.7 0-.8-.8-.3-2.1 1.3m-4 4c-1.3 1.6-1.2 1.7.4.4s2.1-2.1 1.3-2.1c-.2 0-1 .8-1.7 1.7"/></svg>