<svg xmlns="http://www.w3.org/2000/svg" viewBox="0 0 750 500"><g id="freepik--Device--inject-389"><path d="M619.55,78.28l-.17,305.81a17.11,17.11,0,0,1-17.13,17.11L148.48,401a17.11,17.11,0,0,1-17.11-17.13L131.53,78A17.14,17.14,0,0,1,148.66,60.9l453.77.24A17.14,17.14,0,0,1,619.55,78.28Z" style="fill:#e0e0e0"></path><path d="M619.55,78.28s0-.36-.07-1.06a8.86,8.86,0,0,0-.13-1.3,13.81,13.81,0,0,0-.36-1.79,16.09,16.09,0,0,0-2-4.74,17.39,17.39,0,0,0-4.86-5.15,16.39,16.39,0,0,0-3.8-2,16.57,16.57,0,0,0-4.63-1l-1.26-.06H391.09l-120.38,0-67,0h-53a28.86,28.86,0,0,0-4.47.2,16.55,16.55,0,0,0-4.28,1.2A17,17,0,0,0,135,68.08,19.65,19.65,0,0,0,133.81,70a21,21,0,0,0-.92,2,16.93,16.93,0,0,0-1,4.39c-.1,1.49-.08,3-.08,4.57v4.61q0,9.22,0,18.57,0,18.69,0,37.79,0,38.2,0,77.94c0,52.95-.05,107.76-.08,163.9a19.22,19.22,0,0,0,.77,5.11,18.21,18.21,0,0,0,2.29,4.61,16.76,16.76,0,0,0,3.57,3.71,15.78,15.78,0,0,0,4.5,2.46c3.23,1.31,6.77,1,10.24,1h10.42l41.31,0,80.77,0,152.7.1,138.16.09,16.09,0h7.94a33.76,33.76,0,0,0,3.91-.13,16.65,16.65,0,0,0,3.76-.91,17,17,0,0,0,10.29-10.64c.19-.6.32-1.22.49-1.83s.21-1.24.26-1.87c.09-1.25.09-2.52.08-3.79q0-3.81,0-7.57,0-30.12,0-57.76c.07-73.59.13-133.14.17-174.3,0-20.58.06-36.56.08-47.39,0-5.42,0-9.55,0-12.33s0-4.19,0-4.19,0,1.42,0,4.19,0,6.91,0,12.33c0,10.83,0,26.81,0,47.39,0,41.16,0,100.71,0,174.3q0,27.6,0,57.76v7.57c0,1.27,0,2.54-.08,3.83-.06.64-.18,1.28-.27,1.92s-.3,1.26-.5,1.87a17.4,17.4,0,0,1-10.54,10.91,16.38,16.38,0,0,1-3.85.92,30.9,30.9,0,0,1-4,.14h-24l-138.17-.05-152.69-.07-80.77,0-41.31,0H153c-1.74,0-3.47,0-5.23,0a17.38,17.38,0,0,1-9.83-3.56,16.64,16.64,0,0,1-3.67-3.82,17.93,17.93,0,0,1-2.36-4.76,19.1,19.1,0,0,1-.8-5.26c0-56.14.06-111,.09-163.9q0-39.7.05-77.94,0-19.09,0-37.79,0-9.34,0-18.57V81c0-1.54,0-3.06.08-4.62a17.87,17.87,0,0,1,1.07-4.51,18.14,18.14,0,0,1,.95-2.11,20.68,20.68,0,0,1,1.25-1.94,17.49,17.49,0,0,1,7.11-5.7,17,17,0,0,1,4.41-1.23,28.73,28.73,0,0,1,4.53-.2h17.9l35.07,0,67,0,120.38.1L565.4,61l27.35,0h9.7l1.27.06a16.36,16.36,0,0,1,4.66,1,16.77,16.77,0,0,1,3.82,2,17.56,17.56,0,0,1,4.87,5.2,16.34,16.34,0,0,1,2,4.76,13.89,13.89,0,0,1,.34,1.8,8.91,8.91,0,0,1,.12,1.31C619.54,77.92,619.55,78.28,619.55,78.28Z" style="fill:#263238"></path><rect x="209.65" y="27.91" width="318.61" height="407.55" transform="matrix(0, -1, 1, 0, 137.07, 600.52)" style="fill:#fff"></rect><path d="M595,218.12a13.05,13.05,0,1,1-13.06,13A13.05,13.05,0,0,1,595,218.12Z" style="fill:#263238"></path><rect x="96.99" y="228.24" width="102.42" height="5.39" rx="1.22" transform="matrix(0, -1, 1, 0, -82.81, 379.01)" style="fill:#263238"></rect><rect x="196.3" y="342.77" width="159.37" height="26.4" rx="5.43" style="fill:#f5f5f5"></rect><rect x="194.94" y="286.22" width="159.37" height="26.4" rx="5.43" style="fill:#f5f5f5"></rect><rect x="366.21" y="286.22" width="159.37" height="26.4" rx="5.43" style="fill:#f5f5f5"></rect><rect x="370.47" y="125.54" width="153.44" height="26.4" rx="5.43" style="fill:#f5f5f5"></rect><rect x="196.3" y="177.97" width="331.23" height="26.4" rx="5.43" style="fill:#f5f5f5"></rect><rect x="196.06" y="125.54" width="159.37" height="26.4" rx="5.43" style="fill:#f5f5f5"></rect><path d="M207.11,139.37v1.8h-.74v-1.81L204.31,136h.79l1.67,2.74,1.67-2.74h.73Z" style="fill:#e0e0e0"></path><path d="M209,139.2a2.05,2.05,0,1,1,2.05,2A2,2,0,0,1,209,139.2Zm3.38,0a1.33,1.33,0,1,0-1.33,1.39A1.29,1.29,0,0,0,212.39,139.2Z" style="fill:#e0e0e0"></path><path d="M217.77,137.23v3.94h-.68v-.59a1.62,1.62,0,0,1-1.34.63,1.54,1.54,0,0,1-1.69-1.71v-2.27h.71v2.19c0,.77.39,1.16,1.07,1.16a1.15,1.15,0,0,0,1.21-1.31v-2Z" style="fill:#e0e0e0"></path><path d="M221.25,137.19v.7h-.17a1.18,1.18,0,0,0-1.24,1.33v2h-.71v-3.94h.68v.66A1.52,1.52,0,0,1,221.25,137.19Z" style="fill:#e0e0e0"></path><path d="M228.76,136v5.2h-.61L225,137.29v3.88h-.74V136h.61l3.12,3.88V136Z" style="fill:#e0e0e0"></path><path d="M233.34,138.79v2.38h-.68v-.52a1.46,1.46,0,0,1-1.29.56c-.9,0-1.46-.47-1.46-1.15s.41-1.16,1.58-1.16h1.13v-.14c0-.6-.35-.95-1.05-.95a1.93,1.93,0,0,0-1.25.43l-.3-.54a2.62,2.62,0,0,1,1.63-.51C232.73,137.19,233.34,137.71,233.34,138.79Zm-.72,1.18v-.55h-1.1c-.7,0-.9.27-.9.61s.32.63.86.63A1.14,1.14,0,0,0,232.62,140Z" style="fill:#e0e0e0"></path><path d="M241.2,138.9v2.27h-.71V139c0-.78-.38-1.16-1-1.16s-1.18.46-1.18,1.31v2h-.72V139c0-.78-.37-1.16-1-1.16a1.15,1.15,0,0,0-1.18,1.31v2h-.71v-3.94h.68v.59a1.62,1.62,0,0,1,1.36-.63,1.46,1.46,0,0,1,1.37.73,1.8,1.8,0,0,1,1.52-.73A1.51,1.51,0,0,1,241.2,138.9Z" style="fill:#e0e0e0"></path><path d="M246.08,139.44h-3.19a1.34,1.34,0,0,0,1.43,1.15,1.49,1.49,0,0,0,1.13-.47l.4.46a2,2,0,0,1-1.56.63,2,2,0,0,1-2.11-2,1.93,1.93,0,0,1,2-2,1.9,1.9,0,0,1,1.95,2A1.8,1.8,0,0,1,246.08,139.44Zm-3.19-.51h2.53a1.27,1.27,0,0,0-2.53,0Z" style="fill:#e0e0e0"></path><path d="M224.42,113.59v5.21h-.8l-2.87-3.53v3.53h-1v-5.21h.8l2.87,3.53v-3.53Z" style="fill:#263238"></path><path d="M229.05,116.47v2.33h-.88v-.49a1.38,1.38,0,0,1-1.25.54c-.9,0-1.48-.5-1.48-1.19s.45-1.18,1.65-1.18h1v-.06c0-.54-.33-.86-1-.86a1.92,1.92,0,0,0-1.2.39l-.37-.68a2.85,2.85,0,0,1,1.68-.49C228.39,114.78,229.05,115.33,229.05,116.47Zm-.93,1.09v-.47h-1c-.63,0-.8.24-.8.53s.28.55.76.55A1,1,0,0,0,228.12,117.56Z" style="fill:#263238"></path><path d="M236.87,116.52v2.28H236v-2.16c0-.7-.33-1-.9-1s-1,.4-1,1.19v2h-.93v-2.16c0-.7-.32-1-.89-1s-1,.4-1,1.19v2h-.93v-4h.88v.5a1.67,1.67,0,0,1,1.3-.55,1.5,1.5,0,0,1,1.34.66,1.89,1.89,0,0,1,1.49-.66A1.52,1.52,0,0,1,236.87,116.52Z" style="fill:#263238"></path><path d="M241.82,117.11h-3.11a1.19,1.19,0,0,0,1.28,1,1.42,1.42,0,0,0,1.08-.43l.5.57a2.23,2.23,0,0,1-3.79-1.39,2,2,0,0,1,2.05-2,1.94,1.94,0,0,1,2,2C241.84,116.91,241.83,117,241.82,117.11Zm-3.12-.62H241a1.07,1.07,0,0,0-1.12-1A1.09,1.09,0,0,0,238.7,116.49Z" style="fill:#263238"></path><path d="M202.44,114.62v1.29h2.26v.91h-2.26v1.77h-1.12v-4.87H205v.9Z" style="fill:#263238"></path><path d="M205.48,113.72a.62.62,0,0,1,.67-.61.61.61,0,0,1,.68.59.63.63,0,0,1-.68.63A.62.62,0,0,1,205.48,113.72Zm.13,1.13h1.09v3.74h-1.09Z" style="fill:#263238"></path><path d="M210,114.79v1h-.25a.92.92,0,0,0-1,1v1.77H207.7v-3.74h1v.49A1.53,1.53,0,0,1,210,114.79Z" style="fill:#263238"></path><path d="M210.32,118.24l.37-.78a2.5,2.5,0,0,0,1.3.36c.5,0,.69-.13.69-.34,0-.61-2.27,0-2.27-1.48,0-.71.64-1.21,1.74-1.21a3.09,3.09,0,0,1,1.44.33l-.36.77a2.15,2.15,0,0,0-1.08-.28c-.49,0-.7.16-.7.35,0,.64,2.26,0,2.26,1.5,0,.69-.64,1.19-1.76,1.19A3.23,3.23,0,0,1,210.32,118.24Z" style="fill:#263238"></path><path d="M216.79,118.41a1.54,1.54,0,0,1-.88.24,1.24,1.24,0,0,1-1.4-1.35v-1.53h-.58v-.84h.58V114h1.08v.91h.94v.84h-.94v1.52a.44.44,0,0,0,.47.49.74.74,0,0,0,.44-.14Z" style="fill:#263238"></path><path d="M246.6,113l-.85,1.11v0l1.35-.18v.61l-1.35-.16h0l.86,1.08-.56.32-.54-1.25h0l-.58,1.26-.51-.33.85-1.08v0l-1.32.17v-.61l1.31.17v0L244.4,113l.55-.31.55,1.24h0l.54-1.25Z" style="fill:#595959"></path><path d="M208.13,301v1.8h-.73V301l-2.07-3.38h.8l1.66,2.74,1.67-2.74h.74Z" style="fill:#e0e0e0"></path><path d="M210,300.82a2,2,0,1,1,2.05,2A2,2,0,0,1,210,300.82Zm3.37,0a1.33,1.33,0,1,0-2.65,0,1.33,1.33,0,1,0,2.65,0Z" style="fill:#e0e0e0"></path><path d="M218.79,298.85v3.94h-.67v-.6a1.6,1.6,0,0,1-1.34.64,1.55,1.55,0,0,1-1.7-1.71v-2.27h.72V301c0,.78.38,1.16,1.06,1.16a1.16,1.16,0,0,0,1.22-1.3v-2Z" style="fill:#e0e0e0"></path><path d="M222.27,298.81v.69h-.16a1.17,1.17,0,0,0-1.24,1.33v2h-.72v-3.94h.69v.66A1.5,1.5,0,0,1,222.27,298.81Z" style="fill:#e0e0e0"></path><path d="M229.78,297.59v5.2h-.61l-3.12-3.88v3.88h-.74v-5.2h.61l3.12,3.88v-3.88Z" style="fill:#e0e0e0"></path><path d="M234.36,300.41v2.38h-.68v-.52a1.46,1.46,0,0,1-1.29.56c-.89,0-1.46-.47-1.46-1.16s.41-1.15,1.59-1.15h1.13v-.14c0-.6-.35-.95-1.06-.95a2,2,0,0,0-1.25.42l-.29-.53a2.57,2.57,0,0,1,1.62-.51C233.75,298.81,234.36,299.33,234.36,300.41Zm-.71,1.17V301h-1.1c-.71,0-.91.28-.91.61s.33.64.87.64A1.14,1.14,0,0,0,233.65,301.58Z" style="fill:#e0e0e0"></path><path d="M242.22,300.52v2.27h-.71V300.6c0-.77-.37-1.15-1-1.15s-1.18.45-1.18,1.31v2h-.71V300.6c0-.77-.37-1.15-1-1.15s-1.18.45-1.18,1.31v2h-.72v-3.94h.69v.59a1.57,1.57,0,0,1,1.36-.63,1.47,1.47,0,0,1,1.37.73,1.74,1.74,0,0,1,1.51-.73A1.51,1.51,0,0,1,242.22,300.52Z" style="fill:#e0e0e0"></path><path d="M247.11,301.06h-3.2a1.34,1.34,0,0,0,1.43,1.15,1.48,1.48,0,0,0,1.14-.48l.39.46a2.15,2.15,0,0,1-3.67-1.37,1.93,1.93,0,0,1,2-2,1.9,1.9,0,0,1,1.94,2A1.7,1.7,0,0,1,247.11,301.06Zm-3.2-.52h2.53a1.27,1.27,0,0,0-2.53,0Z" style="fill:#e0e0e0"></path><path d="M237.87,272.5l-.85,1.12v0l1.35-.18v.61l-1.35-.16h0l.86,1.08-.56.32-.54-1.25h0l-.58,1.26-.51-.33.85-1.08v0l-1.32.17v-.61l1.31.17v0l-.84-1.09.55-.31.55,1.24h0l.54-1.25Z" style="fill:#595959"></path><path d="M394.88,274.74l-.85,1.11v0l1.35-.18v.61l-1.35-.16v0l.86,1.07-.56.32-.54-1.25h0l-.59,1.26-.5-.32.84-1.09v0l-1.32.17v-.61l1.32.17h0l-.84-1.09.54-.32.55,1.24h0l.55-1.24Z" style="fill:#595959"></path><path d="M378,301v1.8h-.74V301l-2.06-3.38H376l1.67,2.74,1.67-2.74h.73Z" style="fill:#e0e0e0"></path><path d="M379.94,300.82a2.05,2.05,0,1,1,2.05,2A2,2,0,0,1,379.94,300.82Zm3.38,0a1.33,1.33,0,1,0-1.33,1.39A1.29,1.29,0,0,0,383.32,300.82Z" style="fill:#e0e0e0"></path><path d="M388.7,298.85v3.94H388v-.6a1.6,1.6,0,0,1-1.34.64,1.55,1.55,0,0,1-1.69-1.71v-2.27h.71V301c0,.78.39,1.16,1.07,1.16a1.15,1.15,0,0,0,1.21-1.3v-2Z" style="fill:#e0e0e0"></path><path d="M392.18,298.81v.69H392a1.17,1.17,0,0,0-1.24,1.33v2h-.71v-3.94h.68v.66A1.52,1.52,0,0,1,392.18,298.81Z" style="fill:#e0e0e0"></path><path d="M399.69,297.59v5.2h-.61L396,298.91v3.88h-.74v-5.2h.61l3.12,3.88v-3.88Z" style="fill:#e0e0e0"></path><path d="M404.27,300.41v2.38h-.68v-.52a1.48,1.48,0,0,1-1.29.56c-.9,0-1.46-.47-1.46-1.16s.41-1.15,1.58-1.15h1.13v-.14c0-.6-.35-.95-1.05-.95a2,2,0,0,0-1.25.42l-.3-.53a2.62,2.62,0,0,1,1.63-.51C403.66,298.81,404.27,299.33,404.27,300.41Zm-.72,1.17V301h-1.1c-.7,0-.9.28-.9.61s.32.64.87.64A1.13,1.13,0,0,0,403.55,301.58Z" style="fill:#e0e0e0"></path><path d="M412.13,300.52v2.27h-.71V300.6c0-.77-.38-1.15-1-1.15s-1.18.45-1.18,1.31v2h-.72V300.6c0-.77-.37-1.15-1-1.15s-1.18.45-1.18,1.31v2h-.71v-3.94h.68v.59a1.59,1.59,0,0,1,1.36-.63,1.47,1.47,0,0,1,1.37.73,1.78,1.78,0,0,1,1.52-.73A1.51,1.51,0,0,1,412.13,300.52Z" style="fill:#e0e0e0"></path><path d="M417,301.06h-3.19a1.34,1.34,0,0,0,1.43,1.15,1.46,1.46,0,0,0,1.13-.48l.4.46a2.15,2.15,0,0,1-3.67-1.37,1.92,1.92,0,0,1,2-2,1.9,1.9,0,0,1,1.95,2A1.8,1.8,0,0,1,417,301.06Zm-3.19-.52h2.53a1.24,1.24,0,0,0-1.27-1.13A1.22,1.22,0,0,0,413.82,300.54Z" style="fill:#e0e0e0"></path><path d="M206.35,170.49v.81h-3.9v-5.21h3.8v.81h-2.83v1.36h2.51v.79h-2.51v1.44Z" style="fill:#263238"></path><path d="M214,169v2.28h-.93v-2.16c0-.71-.33-1-.89-1s-1,.4-1,1.19v2h-.93v-2.16c0-.71-.32-1-.89-1s-1,.4-1,1.19v2h-.93v-4h.89v.5a1.64,1.64,0,0,1,1.3-.55,1.48,1.48,0,0,1,1.33.66,1.89,1.89,0,0,1,1.49-.66A1.53,1.53,0,0,1,214,169Z" style="fill:#263238"></path><path d="M218.49,169v2.33h-.88v-.49a1.4,1.4,0,0,1-1.24.54c-.91,0-1.48-.5-1.48-1.19s.44-1.18,1.65-1.18h1v-.06c0-.54-.32-.86-1-.86a1.94,1.94,0,0,0-1.2.39l-.36-.68a2.83,2.83,0,0,1,1.68-.49C217.83,167.28,218.49,167.83,218.49,169Zm-.93,1.08v-.46h-1c-.63,0-.8.24-.8.53s.28.55.76.55A1,1,0,0,0,217.56,170.05Z" style="fill:#263238"></path><path d="M219.56,166.12a.56.56,0,0,1,.59-.56.55.55,0,0,1,.59.53.56.56,0,0,1-.59.58A.56.56,0,0,1,219.56,166.12Zm.12,1.21h.93v4h-.93Z" style="fill:#263238"></path><path d="M221.83,165.78h.93v5.52h-.93Z" style="fill:#263238"></path><path d="M208.13,192.74v1.8h-.73v-1.82l-2.07-3.38h.8l1.66,2.74,1.67-2.74h.74Z" style="fill:#e0e0e0"></path><path d="M210,192.57a2,2,0,1,1,2.05,2A2,2,0,0,1,210,192.57Zm3.37,0a1.33,1.33,0,1,0-2.65,0,1.33,1.33,0,1,0,2.65,0Z" style="fill:#e0e0e0"></path><path d="M218.79,190.6v3.94h-.67v-.6a1.6,1.6,0,0,1-1.34.64,1.55,1.55,0,0,1-1.7-1.71V190.6h.72v2.18c0,.78.38,1.16,1.06,1.16a1.16,1.16,0,0,0,1.22-1.3v-2Z" style="fill:#e0e0e0"></path><path d="M222.27,190.56v.69h-.16a1.17,1.17,0,0,0-1.24,1.33v2h-.72V190.6h.69v.66A1.5,1.5,0,0,1,222.27,190.56Z" style="fill:#e0e0e0"></path><path d="M229.08,193.89v.65h-3.77v-5.2H229V190h-2.93v1.6h2.61v.63h-2.61v1.68Z" style="fill:#e0e0e0"></path><path d="M236.72,192.27v2.27H236v-2.19c0-.77-.37-1.15-1-1.15s-1.18.45-1.18,1.31v2h-.71v-2.19c0-.77-.37-1.15-1-1.15s-1.18.45-1.18,1.31v2h-.72V190.6h.69v.59a1.59,1.59,0,0,1,1.36-.63,1.45,1.45,0,0,1,1.36.73,1.78,1.78,0,0,1,1.52-.73A1.51,1.51,0,0,1,236.72,192.27Z" style="fill:#e0e0e0"></path><path d="M241.16,192.16v2.38h-.67V194a1.49,1.49,0,0,1-1.3.56c-.89,0-1.45-.47-1.45-1.16s.41-1.15,1.58-1.15h1.13v-.14c0-.6-.35-.95-1.06-.95a2,2,0,0,0-1.24.42l-.3-.53a2.6,2.6,0,0,1,1.63-.51A1.47,1.47,0,0,1,241.16,192.16Zm-.71,1.17v-.55h-1.1c-.71,0-.91.28-.91.61s.33.64.87.64A1.14,1.14,0,0,0,240.45,193.33Z" style="fill:#e0e0e0"></path><path d="M242.36,189.38a.47.47,0,0,1,.48-.47.47.47,0,1,1-.48.47Zm.13,1.22h.71v3.94h-.71Z" style="fill:#e0e0e0"></path><path d="M244.56,189h.71v5.52h-.71Z" style="fill:#e0e0e0"></path><path d="M228.68,165.49l-.85,1.11v0l1.35-.18v.61l-1.35-.16h0l.86,1.08-.56.32-.54-1.25h0l-.59,1.26-.5-.33.84-1.08v0l-1.32.17v-.61l1.32.17v0l-.84-1.09.54-.31.55,1.24h0l.55-1.25Z" style="fill:#595959"></path><path d="M269.29,219.45l-.85,1.12v0l1.35-.18V221l-1.35-.16h0l.86,1.08-.56.32L268.2,221h0l-.58,1.26-.51-.33.85-1.08v0l-1.32.17v-.61l1.31.17v0l-.84-1.09.55-.31.55,1.24h0l.54-1.25Z" style="fill:#595959"></path><rect x="195.81" y="233.99" width="331.71" height="26.4" rx="5.43" style="fill:#f5f5f5"></rect><path d="M374.55,111.61h1V116h2.72v.82h-3.68Z" style="fill:#263238"></path><path d="M382.27,114.48v2.33h-.88v-.49a1.38,1.38,0,0,1-1.25.54c-.9,0-1.48-.5-1.48-1.19s.45-1.18,1.65-1.18h1v-.06c0-.54-.33-.86-1-.86a2,2,0,0,0-1.2.39l-.37-.68a2.85,2.85,0,0,1,1.68-.49C381.61,112.79,382.27,113.34,382.27,114.48Zm-.93,1.09v-.46h-1c-.63,0-.8.23-.8.52s.28.55.76.55A1,1,0,0,0,381.34,115.57Z" style="fill:#263238"></path><path d="M383,116.41l.35-.7a2.69,2.69,0,0,0,1.38.39c.59,0,.84-.16.84-.44,0-.76-2.46,0-2.46-1.63,0-.75.68-1.24,1.75-1.24a3.12,3.12,0,0,1,1.49.35l-.36.7a2.21,2.21,0,0,0-1.14-.3c-.56,0-.83.19-.83.45,0,.8,2.45.09,2.45,1.64,0,.75-.68,1.23-1.8,1.23A3,3,0,0,1,383,116.41Z" style="fill:#263238"></path><path d="M389.67,116.59a1.45,1.45,0,0,1-.89.27,1.22,1.22,0,0,1-1.37-1.34v-1.91h-.65v-.74h.65V112h.93v.91h1.06v.74h-1.06v1.89c0,.39.2.59.55.59a.83.83,0,0,0,.52-.16Z" style="fill:#263238"></path><path d="M397.2,111.61v5.2h-.79l-2.87-3.53v3.53h-1v-5.2h.79l2.87,3.52v-3.52Z" style="fill:#263238"></path><path d="M401.83,114.48v2.33H401v-.49a1.41,1.41,0,0,1-1.25.54c-.91,0-1.48-.5-1.48-1.19s.45-1.18,1.65-1.18h1v-.06c0-.54-.32-.86-1-.86a2,2,0,0,0-1.21.39l-.36-.68a2.83,2.83,0,0,1,1.68-.49C401.17,112.79,401.83,113.34,401.83,114.48Zm-.93,1.09v-.46H400c-.63,0-.81.23-.81.52s.29.55.76.55A1,1,0,0,0,400.9,115.57Z" style="fill:#263238"></path><path d="M409.66,114.53v2.28h-.93v-2.16c0-.7-.33-1.05-.89-1.05s-1,.41-1,1.19v2h-.93v-2.16c0-.7-.33-1.05-.89-1.05s-1,.41-1,1.19v2H403v-4h.88v.5a1.67,1.67,0,0,1,1.3-.55,1.49,1.49,0,0,1,1.34.67,1.84,1.84,0,0,1,1.48-.67A1.53,1.53,0,0,1,409.66,114.53Z" style="fill:#263238"></path><path d="M414.61,115.12h-3.12a1.2,1.2,0,0,0,1.29.95,1.45,1.45,0,0,0,1.08-.43l.49.57a2,2,0,0,1-1.59.65,2,2,0,0,1-2.2-2,2,2,0,0,1,2.05-2,1.94,1.94,0,0,1,2,2.06C414.62,114.92,414.61,115,414.61,115.12Zm-3.13-.62h2.26a1.15,1.15,0,0,0-2.26,0Z" style="fill:#263238"></path><path d="M383.74,139.37v1.8H383v-1.81L380.94,136h.8l1.66,2.74,1.67-2.74h.74Z" style="fill:#e0e0e0"></path><path d="M385.65,139.2a2,2,0,1,1,2.05,2A2,2,0,0,1,385.65,139.2Zm3.37,0a1.33,1.33,0,1,0-2.65,0,1.33,1.33,0,1,0,2.65,0Z" style="fill:#e0e0e0"></path><path d="M394.4,137.23v3.94h-.67v-.59a1.62,1.62,0,0,1-1.34.63,1.54,1.54,0,0,1-1.69-1.71v-2.27h.71v2.19c0,.77.39,1.16,1.06,1.16a1.16,1.16,0,0,0,1.22-1.31v-2Z" style="fill:#e0e0e0"></path><path d="M397.88,137.19v.7h-.16a1.17,1.17,0,0,0-1.24,1.33v2h-.71v-3.94h.68v.66A1.5,1.5,0,0,1,397.88,137.19Z" style="fill:#e0e0e0"></path><path d="M405.39,136v5.2h-.61l-3.12-3.88v3.88h-.74V136h.61l3.12,3.88V136Z" style="fill:#e0e0e0"></path><path d="M410,138.79v2.38h-.67v-.52a1.46,1.46,0,0,1-1.3.56c-.89,0-1.45-.47-1.45-1.15s.4-1.16,1.58-1.16h1.13v-.14c0-.6-.35-.95-1.06-.95a2,2,0,0,0-1.25.43l-.29-.54a2.59,2.59,0,0,1,1.62-.51C409.36,137.19,410,137.71,410,138.79Zm-.71,1.18v-.55h-1.1c-.71,0-.91.27-.91.61s.33.63.87.63A1.14,1.14,0,0,0,409.26,140Z" style="fill:#e0e0e0"></path><path d="M417.84,138.9v2.27h-.72V139c0-.78-.37-1.16-1-1.16a1.15,1.15,0,0,0-1.18,1.31v2h-.71V139c0-.78-.37-1.16-1-1.16a1.15,1.15,0,0,0-1.18,1.31v2h-.71v-3.94H412v.59a1.59,1.59,0,0,1,1.36-.63,1.47,1.47,0,0,1,1.37.73,1.77,1.77,0,0,1,1.51-.73A1.52,1.52,0,0,1,417.84,138.9Z" style="fill:#e0e0e0"></path><path d="M422.72,139.44h-3.19a1.32,1.32,0,0,0,1.42,1.15,1.51,1.51,0,0,0,1.14-.47l.39.46a2.15,2.15,0,0,1-3.67-1.38,1.93,1.93,0,0,1,2-2,1.89,1.89,0,0,1,1.94,2A1.7,1.7,0,0,1,422.72,139.44Zm-3.19-.51h2.52a1.27,1.27,0,0,0-2.52,0Z" style="fill:#e0e0e0"></path><path d="M419.71,111l-.85,1.11v0l1.35-.18v.61l-1.35-.16v0l.86,1.07-.56.32-.54-1.25h0l-.58,1.26-.51-.32.85-1.09v0l-1.32.17V112l1.31.17v0l-.84-1.09.55-.31.55,1.24h0l.54-1.25Z" style="fill:#595959"></path><path d="M199.82,222.06a2.65,2.65,0,0,1,2.78-2.68,2.61,2.61,0,0,1,2.06.87l-.62.59a1.83,1.83,0,0,0-1.39-.61,1.83,1.83,0,1,0,0,3.65,1.83,1.83,0,0,0,1.39-.61l.62.59a2.61,2.61,0,0,1-2.06.87A2.65,2.65,0,0,1,199.82,222.06Z" style="fill:#263238"></path><path d="M205,222.67a2.12,2.12,0,1,1,2.11,2A2,2,0,0,1,205,222.67Zm3.29,0a1.18,1.18,0,1,0-1.18,1.24A1.16,1.16,0,0,0,208.32,222.67Z" style="fill:#263238"></path><path d="M214.06,222.38v2.28h-.93V222.5c0-.7-.35-1.05-.94-1.05a1.05,1.05,0,0,0-1.11,1.2v2h-.93v-4H211v.51a1.75,1.75,0,0,1,1.37-.56A1.56,1.56,0,0,1,214.06,222.38Z" style="fill:#263238"></path><path d="M217.63,224.44a1.45,1.45,0,0,1-.89.27,1.22,1.22,0,0,1-1.37-1.34v-1.91h-.66v-.74h.66v-.91h.93v.91h1.06v.74H216.3v1.89c0,.38.19.59.55.59a.85.85,0,0,0,.52-.16Z" style="fill:#263238"></path><path d="M221.72,222.33v2.33h-.88v-.49a1.38,1.38,0,0,1-1.25.54c-.91,0-1.48-.5-1.48-1.19s.45-1.18,1.65-1.18h1v-.06c0-.54-.33-.86-1-.86a1.9,1.9,0,0,0-1.2.39l-.37-.68a2.85,2.85,0,0,1,1.68-.49C221.06,220.64,221.72,221.19,221.72,222.33Zm-.93,1.08V223h-1c-.63,0-.8.24-.8.53s.28.55.75.55A1,1,0,0,0,220.79,223.41Z" style="fill:#263238"></path><path d="M222.62,222.67a2,2,0,0,1,2.15-2,1.79,1.79,0,0,1,1.69.92l-.71.42a1.13,1.13,0,0,0-1-.55,1.24,1.24,0,0,0,0,2.48,1.13,1.13,0,0,0,1-.55l.71.42a1.81,1.81,0,0,1-1.69.93A2,2,0,0,1,222.62,222.67Z" style="fill:#263238"></path><path d="M229.7,224.44a1.45,1.45,0,0,1-.89.27,1.22,1.22,0,0,1-1.37-1.34v-1.91h-.65v-.74h.65v-.91h.93v.91h1.06v.74h-1.06v1.89c0,.38.19.59.55.59a.85.85,0,0,0,.52-.16Z" style="fill:#263238"></path><path d="M238.4,219.45v5.21h-.79l-2.87-3.53v3.53h-1v-5.21h.79l2.87,3.53v-3.53Z" style="fill:#263238"></path><path d="M243.55,220.69v4h-.88v-.51a1.62,1.62,0,0,1-1.28.56,1.57,1.57,0,0,1-1.71-1.76v-2.26h.93v2.14c0,.72.34,1.06.93,1.06s1.08-.4,1.08-1.2v-2Z" style="fill:#263238"></path><path d="M251.41,222.38v2.28h-.93V222.5c0-.7-.33-1.05-.89-1.05s-1,.4-1,1.19v2h-.93V222.5c0-.7-.33-1.05-.89-1.05s-1,.4-1,1.19v2h-.93v-4h.89v.5a1.67,1.67,0,0,1,1.3-.55,1.51,1.51,0,0,1,1.34.66,1.87,1.87,0,0,1,1.48-.66A1.53,1.53,0,0,1,251.41,222.38Z" style="fill:#263238"></path><path d="M256.82,222.67a1.94,1.94,0,0,1-2,2,1.63,1.63,0,0,1-1.31-.57v.52h-.89v-5.52h.93v2a1.65,1.65,0,0,1,1.27-.53A1.93,1.93,0,0,1,256.82,222.67Zm-.95,0a1.18,1.18,0,1,0-1.17,1.24A1.15,1.15,0,0,0,255.87,222.67Z" style="fill:#263238"></path><path d="M261.42,223H258.3a1.21,1.21,0,0,0,1.29.95,1.43,1.43,0,0,0,1.08-.43l.5.57a2.23,2.23,0,0,1-3.79-1.39,2,2,0,0,1,2.05-2,1.93,1.93,0,0,1,2,2.05A2.72,2.72,0,0,1,261.42,223Zm-3.12-.62h2.25a1.14,1.14,0,0,0-2.25,0Z" style="fill:#263238"></path><path d="M264.62,220.64v.89a.82.82,0,0,0-.21,0,1.07,1.07,0,0,0-1.15,1.22v1.93h-.93v-4h.88v.58A1.56,1.56,0,0,1,264.62,220.64Z" style="fill:#263238"></path><path d="M205.82,277.11h-2.6l-.51,1.21h-1l2.34-5.21h1l2.34,5.21h-1Zm-.32-.76-1-2.27-1,2.27Z" style="fill:#263238"></path><path d="M211.78,272.8v5.52h-.89v-.52a1.66,1.66,0,0,1-1.32.57,2,2,0,0,1,0-4.07,1.61,1.61,0,0,1,1.28.54v-2Zm-.92,3.53a1.18,1.18,0,1,0-1.18,1.24A1.16,1.16,0,0,0,210.86,276.33Z" style="fill:#263238"></path><path d="M216.89,272.8v5.52H216v-.52a1.63,1.63,0,0,1-1.31.57,2,2,0,0,1,0-4.07,1.63,1.63,0,0,1,1.28.54v-2Zm-.92,3.53a1.18,1.18,0,1,0-1.18,1.24A1.16,1.16,0,0,0,216,276.33Z" style="fill:#263238"></path><path d="M220.4,274.3v.89a.82.82,0,0,0-.21,0,1.08,1.08,0,0,0-1.16,1.22v1.93h-.92v-4H219v.58A1.56,1.56,0,0,1,220.4,274.3Z" style="fill:#263238"></path><path d="M224.87,276.63h-3.11a1.19,1.19,0,0,0,1.28.95,1.42,1.42,0,0,0,1.08-.43l.5.57a2,2,0,0,1-1.6.65,2,2,0,0,1-2.19-2,2,2,0,0,1,2-2,1.93,1.93,0,0,1,2,2.05A2.72,2.72,0,0,1,224.87,276.63Zm-3.12-.62H224a1.07,1.07,0,0,0-1.12-1A1.09,1.09,0,0,0,221.75,276Z" style="fill:#263238"></path><path d="M225.33,277.92l.35-.7a2.69,2.69,0,0,0,1.38.39c.59,0,.84-.16.84-.44,0-.76-2.46,0-2.46-1.63,0-.75.68-1.24,1.75-1.24a3.24,3.24,0,0,1,1.49.34l-.36.71a2.21,2.21,0,0,0-1.14-.3c-.56,0-.83.19-.83.45,0,.8,2.45.09,2.45,1.64,0,.75-.68,1.23-1.8,1.23A3.13,3.13,0,0,1,225.33,277.92Z" style="fill:#263238"></path><path d="M229.15,277.92l.36-.7a2.66,2.66,0,0,0,1.38.39c.59,0,.83-.16.83-.44,0-.76-2.45,0-2.45-1.63,0-.75.68-1.24,1.75-1.24a3.24,3.24,0,0,1,1.49.34l-.36.71a2.21,2.21,0,0,0-1.14-.3c-.56,0-.83.19-.83.45,0,.8,2.45.09,2.45,1.64,0,.75-.68,1.23-1.8,1.23A3.19,3.19,0,0,1,229.15,277.92Z" style="fill:#263238"></path><path d="M209.11,355.82l2.16,1.22-.56,1-2.2-1.3v2.48h-1.09l0-2.48-2.2,1.3-.57-1,2.19-1.22-2.19-1.21.57-1,2.2,1.29,0-2.46h1.09v2.46l2.2-1.29.56,1Z" style="fill:#e0e0e0"></path><path d="M216.75,355.82l2.17,1.22-.57,1-2.2-1.3,0,2.48h-1.1l0-2.48-2.2,1.3-.56-1,2.18-1.22-2.18-1.21.56-1,2.2,1.29,0-2.46h1.1l0,2.46,2.2-1.29.57,1Z" style="fill:#e0e0e0"></path><path d="M224.39,355.82l2.17,1.22-.57,1-2.2-1.3,0,2.48h-1.09v-2.48l-2.2,1.3-.56-1,2.18-1.22L220,354.61l.56-1,2.2,1.29v-2.46h1.09l0,2.46,2.2-1.29.57,1Z" style="fill:#e0e0e0"></path><path d="M232,355.82,234.2,357l-.56,1-2.21-1.3,0,2.48h-1.09l0-2.48-2.2,1.3-.57-1,2.19-1.22-2.19-1.21.57-1,2.2,1.29,0-2.46h1.09l0,2.46,2.21-1.29.56,1Z" style="fill:#e0e0e0"></path><path d="M239.68,355.82l2.16,1.22-.56,1-2.2-1.3v2.48H238l0-2.48-2.2,1.3-.57-1,2.19-1.22-2.19-1.21.57-1,2.2,1.29,0-2.46h1.09v2.46l2.2-1.29.56,1Z" style="fill:#e0e0e0"></path><path d="M247.32,355.82l2.17,1.22-.57,1-2.2-1.3,0,2.48h-1.09v-2.48l-2.2,1.3-.56-1,2.18-1.22-2.18-1.21.56-1,2.2,1.29v-2.46h1.09l0,2.46,2.2-1.29.57,1Z" style="fill:#e0e0e0"></path><path d="M255,355.82l2.17,1.22-.56,1-2.21-1.3,0,2.48h-1.09l0-2.48L251.1,358l-.56-1,2.18-1.22-2.18-1.21.56-1,2.21,1.29,0-2.46h1.09l0,2.46,2.21-1.29.56,1Z" style="fill:#e0e0e0"></path><path d="M370.73,280l.33-.75a2.93,2.93,0,0,0,1.72.57c.81,0,1.15-.29,1.15-.67,0-1.13-3.09-.39-3.09-2.32,0-.84.67-1.56,2.09-1.56a3.39,3.39,0,0,1,1.74.46l-.31.76a2.84,2.84,0,0,0-1.43-.41c-.81,0-1.13.31-1.13.7,0,1.11,3.08.39,3.08,2.3,0,.83-.68,1.54-2.1,1.54A3.36,3.36,0,0,1,370.73,280Z" style="fill:#263238"></path><path d="M378.14,280.37a1.45,1.45,0,0,1-.89.27,1.22,1.22,0,0,1-1.37-1.33v-1.92h-.66v-.74h.66v-.9h.93v.9h1.06v.74h-1.06v1.89c0,.39.19.6.55.6a.85.85,0,0,0,.52-.17Z" style="fill:#263238"></path><path d="M382.23,278.26v2.33h-.88v-.48a1.4,1.4,0,0,1-1.25.53c-.91,0-1.48-.5-1.48-1.19s.45-1.18,1.65-1.18h1v-.06c0-.54-.33-.86-1-.86a2,2,0,0,0-1.2.39l-.37-.67a2.76,2.76,0,0,1,1.68-.49C381.56,276.58,382.23,277.12,382.23,278.26Zm-.93,1.09v-.46h-1c-.63,0-.8.24-.8.53s.28.55.75.55A1,1,0,0,0,381.3,279.35Z" style="fill:#263238"></path><path d="M385.8,280.37a1.45,1.45,0,0,1-.89.27,1.22,1.22,0,0,1-1.37-1.33v-1.92h-.65v-.74h.65v-.9h.93v.9h1.06v.74h-1.06v1.89c0,.39.2.6.55.6a.83.83,0,0,0,.52-.17Z" style="fill:#263238"></path><path d="M390.15,278.9H387a1.19,1.19,0,0,0,1.28,1,1.42,1.42,0,0,0,1.08-.43l.5.58a2,2,0,0,1-1.6.64,2,2,0,0,1-2.19-2,2,2,0,0,1,2.05-2,1.94,1.94,0,0,1,2,2.05C390.17,278.7,390.16,278.81,390.15,278.9Zm-3.12-.61h2.25a1.07,1.07,0,0,0-1.12-1A1.1,1.1,0,0,0,387,278.29Z" style="fill:#263238"></path><path d="M204.54,331.8c0,1.14-.84,1.85-2.21,1.85h-1.18v1.5h-1V330h2.14C203.7,330,204.54,330.65,204.54,331.8Zm-1,0c0-.65-.44-1-1.29-1h-1.13v2.06h1.13C203.13,332.83,203.57,332.45,203.57,331.8Z" style="fill:#263238"></path><path d="M208.71,332.83v2.32h-.88v-.48a1.4,1.4,0,0,1-1.25.53c-.91,0-1.48-.49-1.48-1.19s.45-1.18,1.65-1.18h1v-.06c0-.54-.33-.86-1-.86a1.9,1.9,0,0,0-1.2.4l-.37-.68a2.78,2.78,0,0,1,1.68-.49C208.05,331.14,208.71,331.68,208.71,332.83Zm-.93,1.08v-.46h-1c-.63,0-.8.24-.8.53s.28.55.75.55A1,1,0,0,0,207.78,333.91Z" style="fill:#263238"></path><path d="M209.44,334.76l.36-.71a2.69,2.69,0,0,0,1.38.4c.59,0,.84-.17.84-.44,0-.76-2.46-.05-2.46-1.63,0-.75.68-1.24,1.75-1.24a3.12,3.12,0,0,1,1.49.34l-.36.71a2.12,2.12,0,0,0-1.14-.3c-.56,0-.83.19-.83.45,0,.8,2.45.08,2.45,1.64,0,.74-.68,1.22-1.8,1.22A3.19,3.19,0,0,1,209.44,334.76Z" style="fill:#263238"></path><path d="M213.27,334.76l.36-.71a2.66,2.66,0,0,0,1.38.4c.59,0,.83-.17.83-.44,0-.76-2.45-.05-2.45-1.63,0-.75.68-1.24,1.75-1.24a3.05,3.05,0,0,1,1.48.34l-.35.71a2.12,2.12,0,0,0-1.14-.3c-.56,0-.83.19-.83.45,0,.8,2.45.08,2.45,1.64,0,.74-.68,1.22-1.8,1.22A3.19,3.19,0,0,1,213.27,334.76Z" style="fill:#263238"></path><path d="M223.67,331.18l-1.46,4h-.89l-1-2.73-1,2.73h-.89l-1.46-4h.88l1.05,2.93,1.09-2.93h.78l1.07,2.95,1.08-2.95Z" style="fill:#263238"></path><path d="M223.87,333.17a2.12,2.12,0,1,1,2.11,2A2,2,0,0,1,223.87,333.17Zm3.3,0a1.18,1.18,0,1,0-1.19,1.24A1.16,1.16,0,0,0,227.17,333.17Z" style="fill:#263238"></path><path d="M231.29,331.14V332l-.21,0a1.08,1.08,0,0,0-1.15,1.23v1.92H229v-4h.88v.58A1.57,1.57,0,0,1,231.29,331.14Z" style="fill:#263238"></path><path d="M235.93,329.64v5.51H235v-.51a1.63,1.63,0,0,1-1.32.56,2,2,0,0,1,0-4.06,1.63,1.63,0,0,1,1.28.53v-2Zm-.91,3.53a1.19,1.19,0,1,0-1.18,1.24A1.16,1.16,0,0,0,235,333.17Z" style="fill:#263238"></path><path d="M503.68,369.17a9,9,0,0,0,1.56-.29,5.41,5.41,0,0,0,3.28-2.92,6.65,6.65,0,0,0,.46-3.2c0-1.22,0-2.54,0-3.95,0-2.84,0-6.06,0-9.62a7.63,7.63,0,0,0-.27-2.65,5.22,5.22,0,0,0-1.52-2.26,5.12,5.12,0,0,0-2.54-1.22,23.47,23.47,0,0,0-3-.08l-13.38,0-30.67,0a5.16,5.16,0,0,0-5.15,4.72c0,2.6,0,5.24,0,7.8v7.55a5.54,5.54,0,0,0,.78,3.37,5.09,5.09,0,0,0,2.59,2.13,9,9,0,0,0,3.37.33h9.89l11.66,0,16.89.08,4.59.05,1.19,0,.41,0-.41,0-1.19,0-4.59,0-16.89.08-11.66,0h-9.89c-.58,0-1.15,0-1.74,0a5.47,5.47,0,0,1-1.79-.35,5.69,5.69,0,0,1-2.85-2.32,6.1,6.1,0,0,1-.86-3.63q0-3.71,0-7.55c0-2.58,0-5.16,0-7.85a5.74,5.74,0,0,1,1.81-3.68,5.67,5.67,0,0,1,3.86-1.51l30.67,0,13.38,0a25.08,25.08,0,0,1,3.12.1,5.64,5.64,0,0,1,4.35,3.77,7.81,7.81,0,0,1,.28,2.77c0,3.56,0,6.78,0,9.62,0,1.41,0,2.73,0,3.95a6.78,6.78,0,0,1-.53,3.28,5.43,5.43,0,0,1-3.43,2.94A4.47,4.47,0,0,1,503.68,369.17Z" style="fill:#595959"></path><path d="M462.65,356.35a2.8,2.8,0,0,1,3-2.83,2.84,2.84,0,0,1,2.25,1l-.81.75a1.77,1.77,0,0,0-1.38-.64,1.75,1.75,0,0,0,0,3.49,1.74,1.74,0,0,0,1.38-.64l.81.75a3,3,0,0,1-5.21-1.85Z" style="fill:#595959"></path><path d="M468.16,357a2.31,2.31,0,1,1,2.31,2.16A2.17,2.17,0,0,1,468.16,357Zm3.38,0a1.08,1.08,0,1,0-2.15,0,1.08,1.08,0,1,0,2.15,0Z" style="fill:#595959"></path><path d="M477.87,356.68v2.4h-1.22v-2.22c0-.68-.31-1-.85-1s-1,.36-1,1.13v2.08h-1.21v-4.2h1.16v.49a1.84,1.84,0,0,1,1.39-.55A1.65,1.65,0,0,1,477.87,356.68Z" style="fill:#595959"></path><path d="M481.67,358.87a1.74,1.74,0,0,1-1,.27,1.39,1.39,0,0,1-1.57-1.51v-1.72h-.64V355h.64v-1h1.22v1h1v.94h-1v1.71a.48.48,0,0,0,.52.55.81.81,0,0,0,.49-.15Z" style="fill:#595959"></path><path d="M482.21,353.62a.69.69,0,0,1,.75-.68.68.68,0,0,1,.76.66.76.76,0,0,1-1.51,0Zm.15,1.26h1.21v4.2h-1.21Z" style="fill:#595959"></path><path d="M489,356.68v2.4h-1.22v-2.22c0-.68-.31-1-.85-1s-1,.36-1,1.13v2.08H484.7v-4.2h1.16v.49a1.84,1.84,0,0,1,1.39-.55A1.65,1.65,0,0,1,489,356.68Z" style="fill:#595959"></path><path d="M494.31,354.88v4.2h-1.15v-.5a1.72,1.72,0,0,1-1.3.56,1.67,1.67,0,0,1-1.79-1.89v-2.37h1.21v2.19c0,.7.31,1,.85,1s1-.36,1-1.13v-2.08Z" style="fill:#595959"></path><path d="M499.53,357.32h-3.17a1.11,1.11,0,0,0,1.2.84,1.43,1.43,0,0,0,1.05-.4l.65.7a2.22,2.22,0,0,1-1.73.68,2.18,2.18,0,0,1-2.4-2.16,2.13,2.13,0,0,1,2.24-2.16,2.08,2.08,0,0,1,2.18,2.17C499.55,357.09,499.54,357.22,499.53,357.32Zm-3.19-.71h2.07a1,1,0,0,0-1-.87A1,1,0,0,0,496.34,356.61Z" style="fill:#595959"></path><rect x="384.89" y="342.77" width="57.05" height="26.4" rx="5.43" style="fill:#595959"></rect><path d="M404.13,358.54l.43-1a3.24,3.24,0,0,0,1.8.57c.75,0,1.05-.25,1.05-.59,0-1-3.17-.32-3.17-2.35,0-.92.75-1.7,2.3-1.7a3.64,3.64,0,0,1,1.89.49l-.39,1a3,3,0,0,0-1.51-.43c-.75,0-1,.28-1,.62,0,1,3.18.31,3.18,2.32,0,.91-.76,1.69-2.32,1.69A3.9,3.9,0,0,1,404.13,358.54Z" style="fill:#fff"></path><path d="M413.16,356.68v2.4H412v-.53a1.37,1.37,0,0,1-1.28.59c-1,0-1.57-.55-1.57-1.27s.52-1.26,1.8-1.26h1c0-.52-.31-.82-1-.82a2,2,0,0,0-1.21.39l-.43-.85a3.21,3.21,0,0,1,1.81-.51C412.42,354.82,413.16,355.41,413.16,356.68Zm-1.22,1.07v-.43h-.83c-.57,0-.75.21-.75.49s.25.51.68.51A.9.9,0,0,0,411.94,357.75Z" style="fill:#fff"></path><path d="M418.34,354.88l-1.77,4.2h-1.25l-1.77-4.2h1.26l1.16,2.86,1.2-2.86Z" style="fill:#fff"></path><path d="M422.81,357.32h-3.18a1.12,1.12,0,0,0,1.2.84,1.44,1.44,0,0,0,1.06-.4l.64.7a2.21,2.21,0,0,1-1.73.68,2.17,2.17,0,0,1-2.39-2.16,2.13,2.13,0,0,1,2.24-2.16,2.08,2.08,0,0,1,2.18,2.17C422.83,357.09,422.81,357.22,422.81,357.32Zm-3.19-.71h2.06a1,1,0,0,0-2.06,0Z" style="fill:#fff"></path><path d="M209.84,248.16V250h-.73v-1.82L207,244.76h.8l1.66,2.74,1.67-2.74h.74Z" style="fill:#e0e0e0"></path><path d="M211.75,248a2,2,0,1,1,2.05,2A2,2,0,0,1,211.75,248Zm3.37,0a1.33,1.33,0,1,0-2.65,0,1.33,1.33,0,1,0,2.65,0Z" style="fill:#e0e0e0"></path><path d="M220.5,246V250h-.67v-.6a1.6,1.6,0,0,1-1.34.64,1.54,1.54,0,0,1-1.69-1.71V246h.71v2.18c0,.78.39,1.16,1.06,1.16a1.15,1.15,0,0,0,1.22-1.3v-2Z" style="fill:#e0e0e0"></path><path d="M224,246v.69h-.16a1.17,1.17,0,0,0-1.24,1.33v2h-.71V246h.68v.66A1.5,1.5,0,0,1,224,246Z" style="fill:#e0e0e0"></path><path d="M231.49,244.76V250h-.61l-3.12-3.88V250H227v-5.2h.61l3.12,3.88v-3.88Z" style="fill:#e0e0e0"></path><path d="M236.62,246V250H236v-.6a1.6,1.6,0,0,1-1.34.64,1.55,1.55,0,0,1-1.7-1.71V246h.72v2.18c0,.78.38,1.16,1.06,1.16a1.16,1.16,0,0,0,1.22-1.3v-2Z" style="fill:#e0e0e0"></path><path d="M244.52,247.69V250h-.71v-2.19c0-.77-.37-1.15-1-1.15a1.15,1.15,0,0,0-1.18,1.31v2h-.71v-2.19c0-.77-.37-1.15-1-1.15a1.15,1.15,0,0,0-1.18,1.31v2H238V246h.69v.59A1.59,1.59,0,0,1,240,246a1.45,1.45,0,0,1,1.36.73,1.8,1.8,0,0,1,1.52-.73A1.51,1.51,0,0,1,244.52,247.69Z" style="fill:#e0e0e0"></path><path d="M249.92,248a1.92,1.92,0,0,1-2,2,1.63,1.63,0,0,1-1.4-.67V250h-.69v-5.51h.72v2.17a1.64,1.64,0,0,1,1.37-.64A1.92,1.92,0,0,1,249.92,248Zm-.72,0a1.33,1.33,0,1,0-1.33,1.39A1.29,1.29,0,0,0,249.2,248Z" style="fill:#e0e0e0"></path><path d="M254.46,248.23h-3.2a1.34,1.34,0,0,0,1.43,1.15,1.48,1.48,0,0,0,1.14-.48l.39.46a2.15,2.15,0,0,1-3.67-1.37,1.93,1.93,0,0,1,2-2,1.9,1.9,0,0,1,1.95,2C254.47,248.07,254.46,248.16,254.46,248.23Zm-3.2-.52h2.53a1.27,1.27,0,0,0-2.53,0Z" style="fill:#e0e0e0"></path><path d="M257.58,246v.69h-.16a1.17,1.17,0,0,0-1.24,1.33v2h-.72V246h.69v.66A1.5,1.5,0,0,1,257.58,246Z" style="fill:#e0e0e0"></path><rect x="164.97" y="71.85" width="407.96" height="24.97" style="fill:#595959"></rect><path d="M189.31,83.12v1.65h2.89v1.16h-2.89v2.28h-1.44V82h4.72v1.16Z" style="fill:#fff"></path><path d="M193.11,85.08a3.43,3.43,0,1,1,3.42,3.23A3.23,3.23,0,0,1,193.11,85.08Zm5.37,0a2,2,0,1,0-1.95,2A1.9,1.9,0,0,0,198.48,85.08Z" style="fill:#fff"></path><path d="M205,88.21l-1.2-1.74h-1.33v1.74H201V82h2.71c1.67,0,2.71.86,2.71,2.26a2,2,0,0,1-1.28,2l1.4,2Zm-1.35-5.07h-1.18v2.17h1.18c.88,0,1.33-.41,1.33-1.09S204.54,83.14,203.66,83.14Z" style="fill:#fff"></path><path d="M213.28,88.21V84.46l-1.84,3.09h-.65l-1.83-3v3.67h-1.36V82h1.2l2.34,3.88,2.3-3.88h1.19v6.25Z" style="fill:#fff"></path><path d="M572.81,72.49l-407.55,0,.24-.24c-.05,95.09-.09,203.72-.15,318.58v0l-.26-.27,407.56.26-.22.22c.23-192.32.38-316.82.38-318.61,0,1.79,0,126.29.05,318.61v.22h-.21l-407.56-.17h-.26v-.3c.07-114.86.14-223.49.2-318.58V72h.23Z" style="fill:#263238"></path></g><g id="freepik--Character--inject-389"><path d="M594.74,165.72s-8-1.29-12.67,2.43a19.29,19.29,0,0,0-7.33,13.51c-.59,5.12-4.29,24.92-4.29,24.92l-7.24-9.79-8,7s6.74,32.3,13.06,34.47,13.2-4.92,14.83-6.2S594.74,165.72,594.74,165.72Z" style="fill:#595959"></path><path d="M592,165.51s-10.52,15-11.74,18.83-10.08,10.76-9.92,19.84a87.85,87.85,0,0,0,1.11,12.36,19.16,19.16,0,0,1-.13,7l-4.11,19.8a12.11,12.11,0,0,0,9,5.22c6.44.7,22.86,4.57,33.76,0l7.84-3.83V214.1l5.39-12.53,15.36-24.89s-7.84-5.43-15.16-7.77C615.79,166.44,603.35,166.22,592,165.51Z" style="fill:#595959"></path><path d="M568.06,239.39a3.47,3.47,0,0,1,.1-.69l.36-2c.34-1.76.82-4.21,1.41-7.22.26-1.53.76-3.16,1-5,.07-.45.14-.9.21-1.37s.08-.94.13-1.42a26.43,26.43,0,0,0,.07-3,26.89,26.89,0,0,0-1.06-6.28,21.54,21.54,0,0,1-1.18-6.85,19.53,19.53,0,0,1,1.73-6.74,42.65,42.65,0,0,1,3-5.71c2.18-3.5,4.37-6.48,6.18-9l4.3-6,1.17-1.62a3,3,0,0,1,.44-.55,3.85,3.85,0,0,1-.36.6c-.27.43-.64,1-1.09,1.68-1,1.44-2.39,3.51-4.18,6s-3.94,5.54-6.08,9a45.13,45.13,0,0,0-3,5.67,19.34,19.34,0,0,0-1.67,6.57,21.24,21.24,0,0,0,1.15,6.71,27,27,0,0,1,1,6.39,27.29,27.29,0,0,1-.1,3c0,.48-.09,1-.13,1.44s-.16.92-.23,1.38c-.27,1.81-.79,3.44-1.07,5-.65,3-1.19,5.43-1.57,7.18-.19.81-.34,1.45-.45,1.95A3.72,3.72,0,0,1,568.06,239.39Z" style="fill:#263238"></path><path d="M633.5,173.5s19.15,6.85,11.88,30.73c-5.79,19-17.68,41.71-25.21,42.16-3.91.23-8.17.09-10.82-2C598.58,235.9,592,213.16,592,213.16l10.29-11.51,12.49,18.5c1.4-.61,9.71-26.21,9.71-26.21S630.49,174.3,633.5,173.5Z" style="fill:#595959"></path><path d="M624.4,196.07a2.85,2.85,0,0,1-.14.46l-.45,1.32-1.8,5c-1.59,4.29-3.84,10.35-6.53,17.58l-.15.41-.25-.36c-3.68-5.45-8-11.76-12.51-18.48l.4,0-1.26,1.29-9.5,9.71.06-.25a119.83,119.83,0,0,0,5,13.66,63.94,63.94,0,0,0,5.55,10.07,53.58,53.58,0,0,0,4.68,5.93l1.41,1.46a4.12,4.12,0,0,1,.47.52,4.92,4.92,0,0,1-.53-.46l-1.47-1.4a48.49,48.49,0,0,1-4.82-5.87,62,62,0,0,1-5.68-10.07,116.89,116.89,0,0,1-5.06-13.69l0-.15.11-.1c3-3,6.17-6.33,9.49-9.72l1.26-1.3.23-.23.17.27c4.54,6.73,8.79,13.06,12.46,18.51l-.4.05c2.75-7.21,5.06-13.24,6.7-17.52.81-2.08,1.46-3.73,1.91-4.9.22-.54.39-1,.53-1.29A3,3,0,0,1,624.4,196.07Z" style="fill:#263238"></path><path d="M577.81,446.85l1.28,19.46s-19.35,7.83-19.46,11.45l37.81-1.12-.74-30.4Z" style="fill:#595959"></path><path d="M590.73,464.33a1.53,1.53,0,0,1,1.12,1.73,1.47,1.47,0,0,1-1.7,1.12,1.63,1.63,0,0,1-1.18-1.84,1.55,1.55,0,0,1,1.91-1" style="fill:#e0e0e0"></path><path d="M597.5,478l-.08-3.49-36.36,1.31s-1.66.78-1.43,2Z" style="fill:#263238"></path><path d="M578.47,466.14c0,.18.94.24,1.86.8s1.44,1.33,1.61,1.25-.14-1.13-1.28-1.8S578.43,466,578.47,466.14Z" style="fill:#263238"></path><path d="M574.55,467.89c0,.18.78.47,1.43,1.24s.85,1.58,1,1.57.27-1.06-.56-2S574.55,467.72,574.55,467.89Z" style="fill:#263238"></path><path d="M572.44,472.71c.17,0,.4-.9-.1-1.9s-1.38-1.37-1.46-1.21.48.68.88,1.5S572.26,472.69,572.44,472.71Z" style="fill:#263238"></path><path d="M578.67,461.67c.08.17.92-.11,2-.07s1.87.34,2,.18-.71-.8-1.94-.83S578.58,461.53,578.67,461.67Z" style="fill:#263238"></path><path d="M612.65,447.23l1.11,19.47S594.35,474.36,594.2,478l37.83-.8-.49-30.4Z" style="fill:#595959"></path><path d="M625.42,464.81a1.55,1.55,0,0,1,1.11,1.74,1.48,1.48,0,0,1-1.72,1.11,1.63,1.63,0,0,1-1.16-1.85,1.54,1.54,0,0,1,1.92-.95" style="fill:#e0e0e0"></path><path d="M632.07,478l0-3-36.37,1s-1.67.77-1.46,2Z" style="fill:#263238"></path><path d="M613.15,466.52c0,.18.93.25,1.85.82s1.42,1.34,1.59,1.27-.13-1.14-1.25-1.82S613.1,466.35,613.15,466.52Z" style="fill:#263238"></path><path d="M609.21,468.24c0,.18.77.48,1.42,1.25s.84,1.59,1,1.58.28-1.06-.54-2S609.21,468.07,609.21,468.24Z" style="fill:#263238"></path><path d="M607.06,473c.17,0,.41-.9-.09-1.9s-1.37-1.38-1.44-1.23.47.69.86,1.52S606.88,473,607.06,473Z" style="fill:#263238"></path><path d="M613.39,462.05c.08.17.92-.1,2-.05s1.87.36,2,.2-.7-.81-1.93-.85S613.29,461.91,613.39,462.05Z" style="fill:#263238"></path><path d="M618.43,244.07s9.63,10.11,14.69,22.55S636,339,636,339l-1.06,31.41s1.53,27,.36,46.25-2.48,40.58-2.48,40.58l-21,1L589.49,295l5.57,75.28c3.55,19.2,3.13,53.07,2.44,87.93l-22.24,0s-7.66-52.11-9.41-64.49c-2-14-7.8-52.46-7.8-52.46s-4.48-36.82-2.92-56.65,13.37-47.56,13.76-48.73l47.5,8.55" style="fill:#263238"></path><path d="M620.85,238.79l5.57,14.83s41.42,57.77,40.21,62.59-23.77,23.47-30.39,20.46S612.47,321.32,606.75,309s-22-46.94-22-46.94l-5.11-9.63,5.71-3.91Z" style="fill:#455a64"></path><path d="M568.52,236.73h0c5,2.69,4.48,11.11,9.5,13.8-8.38,11.73-11.24,26.49-12.38,40.85s-.79,28.91-3.67,43l-10.39-.73a244.5,244.5,0,0,1,8.86-82.41A36.13,36.13,0,0,1,568.52,236.73Z" style="fill:#455a64"></path><path d="M609,261a12.47,12.47,0,0,0,2.62-.6,56.39,56.39,0,0,0,6.09-2.21,53.36,53.36,0,0,0,5.8-2.91,12.33,12.33,0,0,0,2.24-1.48,15.86,15.86,0,0,0-2.41,1.16c-1.47.76-3.52,1.76-5.83,2.76s-4.45,1.78-6,2.33A17.29,17.29,0,0,0,609,261Z" style="fill:#263238"></path><g style="opacity:0.2"><path d="M635.88,305l1,.07a24.47,24.47,0,0,1-27.22,5c-3-1.43-6-4.06-5.92-7.41A61.19,61.19,0,0,0,635.88,305Z"></path></g><path d="M584.17,252.45c3.87-.71,11.3,1.32,14,4.16s4.35,6.54,5.69,10.24c2.91,8,5,16.9,11.28,22.65,5.93,5.41,14.36,6.85,22.29,8.07.21,2.93.18,6.42-2.23,8.1a7.63,7.63,0,0,1-2.39,1,39.32,39.32,0,0,1-7.21,1.27c-11.29.93-23.25-3.61-29.88-12.8-8.38-11.62-9-25.59-13.79-39.11" style="fill:#455a64"></path><path d="M582,256a2.38,2.38,0,0,0,.12.43l.38,1.23c.35,1.08.82,2.69,1.38,4.78s1.2,4.65,1.92,7.63,1.54,6.39,2.68,10.09a55.17,55.17,0,0,0,4.94,11.66,34,34,0,0,0,4.1,5.76,29.59,29.59,0,0,0,5.67,4.91,35.25,35.25,0,0,0,15,5.49,37.29,37.29,0,0,0,8.52.09,39.91,39.91,0,0,0,4.31-.71q1.07-.24,2.13-.54a8.12,8.12,0,0,0,2.1-.87,4.91,4.91,0,0,0,1.62-1.77,7.12,7.12,0,0,0,.74-2.21,17.47,17.47,0,0,0,.11-4.44v-.21l-.2,0c-5.31-.81-10.49-1.69-15.12-3.63a24.6,24.6,0,0,1-6.28-3.71,23.26,23.26,0,0,1-4.61-5.23A53.5,53.5,0,0,1,606.2,273a103.93,103.93,0,0,0-4-10.57,25.45,25.45,0,0,0-2.52-4.22,17.78,17.78,0,0,0-1.48-1.72,9.3,9.3,0,0,0-1.69-1.3,21.2,21.2,0,0,0-6.51-2.45,18.53,18.53,0,0,0-4.36-.45,6.9,6.9,0,0,0-1.51.19s.51-.08,1.51-.09a19.8,19.8,0,0,1,4.32.53,21.61,21.61,0,0,1,6.41,2.5,9.26,9.26,0,0,1,1.63,1.28,17.55,17.55,0,0,1,1.43,1.7,25.14,25.14,0,0,1,2.46,4.18,102.85,102.85,0,0,1,3.88,10.55A53.53,53.53,0,0,0,611.1,285a23.67,23.67,0,0,0,4.69,5.35,24.76,24.76,0,0,0,6.39,3.79c4.7,2,9.92,2.87,15.23,3.69l-.22-.24a17.88,17.88,0,0,1-.1,4.32,5.19,5.19,0,0,1-2.14,3.63,14.44,14.44,0,0,1-4.07,1.35,41.36,41.36,0,0,1-4.25.7,36.82,36.82,0,0,1-8.4-.08,35,35,0,0,1-14.83-5.38,29.36,29.36,0,0,1-5.59-4.82,33.35,33.35,0,0,1-4.07-5.68,54.92,54.92,0,0,1-5-11.55c-1.16-3.68-2-7.07-2.75-10s-1.4-5.55-2-7.62-1.1-3.69-1.48-4.76c-.18-.52-.33-.92-.43-1.22A2.06,2.06,0,0,0,582,256Z" style="fill:#263238"></path><path d="M628.61,307.4a12.72,12.72,0,0,1,1.16-11.17,3.86,3.86,0,0,0-1.09,1.37,10.05,10.05,0,0,0-1.3,4,10.26,10.26,0,0,0,.44,4.21A3.85,3.85,0,0,0,628.61,307.4Z" style="fill:#263238"></path><path d="M628.32,300.19a19.34,19.34,0,0,0,4.43.56,19.89,19.89,0,0,0,4.46,0,39.75,39.75,0,0,0-8.89-.6Z" style="fill:#263238"></path><path d="M627.49,303.42a20.57,20.57,0,0,0,4.6.36,21.2,21.2,0,0,0,4.61-.16,20.4,20.4,0,0,0-4.6-.36A21.26,21.26,0,0,0,627.49,303.42Z" style="fill:#263238"></path><path d="M574.65,255c-6.93,6.26-9.52,16.19-9.27,25.52s3,18.41,5,27.51,3.55,18.66,1.31,27.73l8.89,1.28a37.36,37.36,0,0,0,9.85-29.12c-.91-8.71-4.86-16.75-7.7-25s-4.51-17.62-.94-25.62" style="fill:#455a64"></path><path d="M581.84,257.23a3.2,3.2,0,0,0-.19.39l-.49,1.17a25.32,25.32,0,0,0-1.19,4.72,31.44,31.44,0,0,0-.08,7.72,51.63,51.63,0,0,0,2.18,10c1.14,3.63,2.68,7.5,4.24,11.69a65.73,65.73,0,0,1,3.78,13.72,36.45,36.45,0,0,1-1.27,15.58,37,37,0,0,1-8.38,14.59l.23-.08-4.37-.63-4.52-.64.21.31a47.31,47.31,0,0,0,.66-17,134.43,134.43,0,0,0-3.12-15.55c-1.2-4.89-2.34-9.53-3.06-13.93a59.5,59.5,0,0,1-.87-12.31A34.76,34.76,0,0,1,570.54,260a26.13,26.13,0,0,1,2.94-3.83c.37-.39.67-.68.88-.9a1.7,1.7,0,0,0,.29-.32l-.32.28-.93.87a25,25,0,0,0-3,3.79,34.51,34.51,0,0,0-5.12,17,58.72,58.72,0,0,0,.81,12.4c.7,4.42,1.83,9.08,3,14a137.13,137.13,0,0,1,3.07,15.5,47,47,0,0,1-.66,16.87l-.07.28.28,0,4.53.64,4.36.63.14,0,.09-.1a37.49,37.49,0,0,0,8.48-14.79,36.93,36.93,0,0,0,1.25-15.79,65.47,65.47,0,0,0-3.85-13.8c-1.58-4.19-3.14-8.05-4.3-11.66a52.7,52.7,0,0,1-2.23-9.93,31.93,31.93,0,0,1,0-7.66,26.38,26.38,0,0,1,1.09-4.72l.44-1.18C581.8,257.38,581.84,257.23,581.84,257.23Z" style="fill:#263238"></path><path d="M573.19,328.57a42,42,0,0,1,6.21.1,42.77,42.77,0,0,1,6,1.53,5.19,5.19,0,0,0-1.63-.88,17.36,17.36,0,0,0-4.32-1.16,17.54,17.54,0,0,0-4.47,0A4.9,4.9,0,0,0,573.19,328.57Z" style="fill:#263238"></path><path d="M578.37,336.76a16.4,16.4,0,0,0,2.08-3.52,16.21,16.21,0,0,0,1.63-3.75A16.18,16.18,0,0,0,580,333,16.42,16.42,0,0,0,578.37,336.76Z" style="fill:#263238"></path><path d="M573.72,336.1a34.33,34.33,0,0,0,3.36-7.77,35.56,35.56,0,0,0-3.36,7.77Z" style="fill:#263238"></path><path d="M586.48,252.06c.06,0,.21-.2.28-.6a2.91,2.91,0,0,0-1.2-2.78c-.35-.22-.6-.26-.63-.2s.73.62,1.15,1.63A10.1,10.1,0,0,1,586.48,252.06Z" style="fill:#263238"></path><path d="M574.92,249.89c1.2-1.89,4-2.52,6.26-2.79a5.47,5.47,0,0,1,5.62,4.8,6,6,0,0,1-4.37,6.14,6.76,6.76,0,0,1-7.15-2.8A5.07,5.07,0,0,1,574.92,249.89Z" style="fill:#455a64"></path><path d="M579.91,248.15a3.27,3.27,0,0,0-1.19,1.4,5.94,5.94,0,0,0,2.13,7.92,3.2,3.2,0,0,0,1.72.62c0-.08-.64-.28-1.52-.92a6,6,0,0,1-2-7.46C579.49,248.72,580,248.21,579.91,248.15Z" style="fill:#263238"></path><path d="M575.48,249.18c-.05,0-.39.27-.72.93a5.34,5.34,0,0,0-.46,2.81,5.23,5.23,0,0,0,1,2.64c.46.58.86.81.9.77s-.25-.39-.6-1a6.49,6.49,0,0,1-.83-2.5,6.39,6.39,0,0,1,.29-2.61C575.32,249.6,575.55,249.23,575.48,249.18Z" style="fill:#263238"></path><g style="opacity:0.2"><path d="M574.8,255a9.18,9.18,0,0,0,6.75,3.08,4.64,4.64,0,0,1-3.49,2.42,3.58,3.58,0,0,1-3.26-5.5Z"></path></g><g style="opacity:0.2"><path d="M606.44,263.66a8,8,0,0,1,3.71-2.16c5.15-1.86,10.71-5,15.86-6.9-4.7,4.17-9.79,9.08-15.18,12.3-1.3.78-3,1.52-4.24.64S605.52,264.79,606.44,263.66Z"></path></g><g style="opacity:0.2"><path d="M563.77,272.92c.81-6.18,3.67-12.29,8.66-16-2.69,4.89-5.4,9.86-6.6,15.31-1.31,6-.35,9.8.25,15.9l-.58,3A45.17,45.17,0,0,1,563.77,272.92Z"></path></g><path d="M609.22,267.94a3,3,0,0,0,.8-.39c.5-.28,1.2-.71,2.05-1.27a61.75,61.75,0,0,0,6.36-4.82,62.65,62.65,0,0,0,5.7-5.59c.68-.77,1.21-1.4,1.56-1.85s.53-.71.5-.74a28.17,28.17,0,0,0-2.33,2.34c-1.41,1.46-3.42,3.42-5.76,5.45s-4.58,3.72-6.23,4.91A27.33,27.33,0,0,0,609.22,267.94Z" style="fill:#263238"></path><path d="M583.78,118.31c-1.5-2.67-.57-6.26,1.64-8.37a11.74,11.74,0,0,1,8.48-2.84,34.68,34.68,0,0,1,9,1.85A9.76,9.76,0,0,1,620,112.19a6.2,6.2,0,0,1,8.34,7.13l-13,6.54-11.44,28a12,12,0,0,1-19.51-13.51,10.37,10.37,0,0,1-2.41-2.31,10.52,10.52,0,0,1-5.64-5.8C574.36,126.68,578,119.75,583.78,118.31Z" style="fill:#263238"></path><path d="M599.91,168.86a41.81,41.81,0,0,1,.41-4.64s-8.41-2.07-9.31-13.33c-.44-5.6.54-14.64,1.58-22,.94-6.64,6-14.48,12.59-13.26l20.35,6.86c2,.37,2.57,2.13,2.37,4.16l.09,1-3.44,31.77-1.07,9.54c-.63,6-6.05,12.18-12.12,12.09h0A11.35,11.35,0,0,1,599.91,168.86Z" style="fill:#9f7362"></path><path d="M594.72,139a1.42,1.42,0,0,0,1.26,1.54,1.36,1.36,0,0,0,1.57-1.17,1.42,1.42,0,0,0-1.26-1.54A1.36,1.36,0,0,0,594.72,139Z" style="fill:#263238"></path><path d="M594.46,134.87c.16.2,1.31-.51,2.84-.39s2.6,1,2.78.8-.06-.42-.53-.82a3.92,3.92,0,0,0-2.2-.87,3.79,3.79,0,0,0-2.28.54C594.57,134.46,594.38,134.78,594.46,134.87Z" style="fill:#263238"></path><path d="M607.94,139.81a1.42,1.42,0,0,0,1.26,1.54,1.37,1.37,0,0,0,1.57-1.17,1.43,1.43,0,0,0-1.26-1.55A1.38,1.38,0,0,0,607.94,139.81Z" style="fill:#263238"></path><path d="M609.14,135.72c.16.2,1.3-.52,2.84-.39s2.59,1,2.78.8-.07-.42-.53-.82a4,4,0,0,0-2.21-.87,3.79,3.79,0,0,0-2.28.54C609.24,135.31,609.06,135.63,609.14,135.72Z" style="fill:#263238"></path><path d="M602.8,146.15a9.81,9.81,0,0,0-2.46-.64c-.39-.07-.75-.18-.8-.45a2,2,0,0,1,.35-1.14c.45-.92.91-1.89,1.4-2.9,1.94-4.12,3.37-7.52,3.21-7.6s-1.88,3.2-3.82,7.33c-.47,1-.92,2-1.34,2.91a2.25,2.25,0,0,0-.33,1.52,1,1,0,0,0,.6.63,3.27,3.27,0,0,0,.66.14A10.13,10.13,0,0,0,602.8,146.15Z" style="fill:#263238"></path><path d="M600.32,164.22a28.32,28.32,0,0,0,15.2-2.81s-4.37,7.56-15.41,5.65Z" style="fill:#65463c"></path><path d="M609.45,131.56c.15.41,1.69.2,3.5.41s3.27.68,3.5.3c.11-.18-.15-.57-.74-1a5.84,5.84,0,0,0-2.6-.89,5.93,5.93,0,0,0-2.74.34C609.71,131,609.38,131.36,609.45,131.56Z" style="fill:#263238"></path><path d="M594.77,130.39c.29.37,1.57.11,3.07.21s2.76.45,3.08.11c.14-.17,0-.53-.56-.91a4.83,4.83,0,0,0-2.45-.76,4.77,4.77,0,0,0-2.51.51C594.84,129.86,594.64,130.21,594.77,130.39Z" style="fill:#263238"></path><path d="M619.89,115.9a7.64,7.64,0,0,1-9.55,6.83c-1.67-.44-3.47-1.44-5-.65s-1.86,3.17-3.32,4.25c-2.09,1.56-5.09-.28-7.63.27-2,.43-3.3,2.17-4.7,3.62s-3.42,2.78-5.29,2.06a22.46,22.46,0,0,1,1.15-5.07,7.65,7.65,0,0,1,3.22-4,25.35,25.35,0,0,0,2.57-1.24c1.69-1.17,2.23-3.38,3.35-5.1a8.35,8.35,0,0,1,6.67-3.74c2.21-.06,4.41.77,6.59.4,1.6-.28,3.06-1.2,4.68-1.38,3.15-.36,5.87,2.09,8,4.48" style="fill:#263238"></path><path d="M609.6,119.57c1.42-.29,4.34-1,5.18-2.13a8.53,8.53,0,0,1,7.74-3.7,7.06,7.06,0,0,1,5.91,6A10.14,10.14,0,0,1,636.7,126a11.78,11.78,0,0,1-1.14,10.88,20.41,20.41,0,0,0-1.34,2.6,17,17,0,0,1,2.14,2.48c2.95,4.78-3,7.54-3,7.54.43,3.42-2.72,3.81-4.74,4.06s-2.45,5.78-4,5.78L624,142.52a1.79,1.79,0,0,1-.72.23c-3.79.56-3.74-6.77-2.74-8.79a21.64,21.64,0,0,1-3.45-4.23,15.67,15.67,0,0,1-1.15-7.68C614.57,122,609,119.7,609.6,119.57Z" style="fill:#263238"></path><path d="M623.53,143.48a3.25,3.25,0,0,1,5-2.4c1.08.73,1.84,2.11,1.55,4.61-.78,6.68-7.33,4.52-7.31,4.32S623.18,146.24,623.53,143.48Z" style="fill:#9f7362"></path><path d="M625.05,147.72s.11.1.29.21a1.19,1.19,0,0,0,.87.12,2.92,2.92,0,0,0,1.64-2.43,4,4,0,0,0-.13-1.7,1.36,1.36,0,0,0-.77-1,.6.6,0,0,0-.73.23c-.11.18-.08.32-.12.33s-.13-.13,0-.4a.74.74,0,0,1,.31-.39.86.86,0,0,1,.66-.09,1.65,1.65,0,0,1,1.1,1.17,4,4,0,0,1,.18,1.91,3.06,3.06,0,0,1-2,2.69,1.27,1.27,0,0,1-1-.31C625,147.88,625,147.73,625.05,147.72Z" style="fill:#65463c"></path><path d="M587.67,139c0-.06-.64-.38-1.6-1.28a9.59,9.59,0,0,1-2.67-4.76,9.32,9.32,0,0,1-.12-3.78,8,8,0,0,1,1.83-3.86,9.51,9.51,0,0,1,9-3c.32.06.61.17.92.26s.57.23.84.34l.43.17,0-.44a3.29,3.29,0,0,1,.54-2.22,5.33,5.33,0,0,1,1.68-1.56,6.92,6.92,0,0,1,4.27-.88c2.86.27,5.37,1.24,7.63,1.2a7.14,7.14,0,0,0,4.88-1.66,4,4,0,0,0,.85-1.13,2,2,0,0,0,.17-.46,5.91,5.91,0,0,1-1.15,1.45,7.19,7.19,0,0,1-4.75,1.44,18.27,18.27,0,0,1-3.5-.53,28.59,28.59,0,0,0-4.09-.78,8.51,8.51,0,0,0-2.3.07,6.94,6.94,0,0,0-2.27.84,5.74,5.74,0,0,0-1.86,1.72,3.83,3.83,0,0,0-.62,2.57l.37-.27c-.29-.12-.59-.26-.9-.37a10.07,10.07,0,0,0-1-.27,9.94,9.94,0,0,0-9.48,3.19,8.52,8.52,0,0,0-1.9,4.11,9.9,9.9,0,0,0,3.09,8.76,6.53,6.53,0,0,0,1.26.89A2.74,2.74,0,0,0,587.67,139Z" style="fill:#455a64"></path><path d="M586,116.07a6.83,6.83,0,0,1,2-1,5.51,5.51,0,0,1,2.5-.1,4.92,4.92,0,0,1,2.78,1.53l.3.32.1-.42a7.61,7.61,0,0,1,5.53-5.35,9.79,9.79,0,0,1,6.11.94,26.42,26.42,0,0,0,5,1.81,7.41,7.41,0,0,0,3.59,0,4.92,4.92,0,0,0,.9-.38c.19-.12.29-.19.28-.2s-.43.19-1.24.38a7.77,7.77,0,0,1-3.45-.12,28.57,28.57,0,0,1-4.88-1.9,16.15,16.15,0,0,0-3-1,7.64,7.64,0,0,0-3.43,0,8,8,0,0,0-5.86,5.75l.39-.1a5.2,5.2,0,0,0-3.06-1.58,5.54,5.54,0,0,0-2.64.21,4.93,4.93,0,0,0-1.5.8C586.16,115.89,586,116.05,586,116.07Z" style="fill:#455a64"></path><path d="M603.76,149.39a2.2,2.2,0,0,1,1.7-.74,2.56,2.56,0,0,1,1.85,1s0,0,0,0l.07.08,0,0a1.2,1.2,0,0,1,.29.74,1.82,1.82,0,0,1-.87,1.49,2.31,2.31,0,0,1-2.68,0A1.91,1.91,0,0,1,603.76,149.39Z" style="fill:#65463c"></path><path d="M607.73,148.14c-.09,0-.22.32-.55.79a3.59,3.59,0,0,1-3.83,1.48c-.56-.12-.89-.29-.94-.21s.22.37.82.62a3.48,3.48,0,0,0,2.48,0,3.4,3.4,0,0,0,1.83-1.69C607.82,148.56,607.8,148.15,607.73,148.14Z" style="fill:#263238"></path><path d="M633.45,129.69s.11-.06.3-.22a8.21,8.21,0,0,0,.75-.74,7.82,7.82,0,0,0,1.8-3.43,6,6,0,0,0,0-2.71,5.46,5.46,0,0,0-1.49-2.72,4.41,4.41,0,0,0-3.18-1.28,4.08,4.08,0,0,0-3.31,1.56l.31.17,0-.08a9.17,9.17,0,0,0-.19-7,6.08,6.08,0,0,0-4.5-3.44,4.93,4.93,0,0,0-3.71,1.06,4,4,0,0,0-.73.78,1.48,1.48,0,0,0-.17.33,6,6,0,0,1,1-1,5,5,0,0,1,3.59-.91,5.84,5.84,0,0,1,4.25,3.34,8.93,8.93,0,0,1,.15,6.74l0,.07-.34,1,.64-.88a3.79,3.79,0,0,1,3-1.43,4.12,4.12,0,0,1,2.94,1.17,5.29,5.29,0,0,1,1.44,2.56,6,6,0,0,1,0,2.59,8,8,0,0,1-1.67,3.39C633.82,129.34,633.43,129.67,633.45,129.69Z" style="fill:#263238"></path><path d="M537.61,191.09l6.48,24.48a3,3,0,0,0,3,2.27l33.56-.66a3,3,0,0,0,2.92-3.67l-4.94-23.45a3,3,0,0,0-3-2.42H540.27A2.74,2.74,0,0,0,537.61,191.09Z" style="fill:#263238"></path><path d="M534.79,196.62a2.48,2.48,0,0,1,0-3,3.76,3.76,0,0,1,2.88-1.36,8.31,8.31,0,0,1,3.21.66,20.88,20.88,0,0,1,3.63,1.82,3.45,3.45,0,0,1,1.81,2.11c.16.95-.87,2-1.7,1.55a4,4,0,0,1,2.35,2.79c.17,1.2-.47,1.84-1.63,2.19a1.79,1.79,0,0,1,1,2.3,2.07,2.07,0,0,1-2.59.79,6,6,0,0,1-2.25-1.9,5.54,5.54,0,0,1,.64,3.8,7.41,7.41,0,0,1-4.85-6,3.44,3.44,0,0,1-.94-4.22,3.54,3.54,0,0,1-2.11-3" style="fill:#9f7362"></path><path d="M545.3,203.35a9.84,9.84,0,0,1-1.1-.85,7.53,7.53,0,0,0-2.92-1.49,4.06,4.06,0,0,0-1.77,0,3.47,3.47,0,0,0-1.29.65,3.92,3.92,0,0,0-.84,1.06s0-.14.09-.37a2.72,2.72,0,0,1,.62-.84,3.27,3.27,0,0,1,1.36-.75,4.14,4.14,0,0,1,1.89,0,6.79,6.79,0,0,1,3,1.61A5.17,5.17,0,0,1,545.3,203.35Z" style="fill:#65463c"></path><path d="M545,198.48a6.45,6.45,0,0,1-1.34-.56,14.38,14.38,0,0,0-1.43-.63,11.48,11.48,0,0,0-1.84-.47,5.13,5.13,0,0,0-1.87,0,3.44,3.44,0,0,0-1.38.6,3.31,3.31,0,0,0-.9,1.08s0-.15.11-.39a2.4,2.4,0,0,1,.67-.85,3.57,3.57,0,0,1,1.45-.7,5.22,5.22,0,0,1,2,0,11,11,0,0,1,1.88.51,12,12,0,0,1,1.43.69A9.58,9.58,0,0,1,545,198.48Z" style="fill:#65463c"></path><path d="M559.69,199.48l.18,0a1.67,1.67,0,1,1-.18,0Z" style="fill:#fff"></path><path d="M592.3,191.06s-3.56-6.95-4.61-6.54-2.43.43-1.76,3.06,2.42,4.43,2.32,6.49-1.72,6.69.07,8.85,4.83,8.63,4.83,8.63l7.89-8-1.77-2.59s3-4.1,3.54-6.48a14.75,14.75,0,0,0-.29-5.76,5.73,5.73,0,0,0-.86-3.5,25.26,25.26,0,0,0,.15-3.19c0-1.61-4.18-8.24-4.18-8.24a2.41,2.41,0,0,0-1.41,3,30.68,30.68,0,0,0,1.63,4.1L593,179a2.7,2.7,0,0,0,1.31,3.74c2.57,1.39,3,2.56,3,2.56l-3.69.28s-.34,2,1.14,2.46l1.47.42Z" style="fill:#9f7362"></path><path d="M594.45,188l3.32.72h.05l0,.05a5.91,5.91,0,0,1,.65,2.95A5.44,5.44,0,0,1,597,195a12.51,12.51,0,0,1-3.29,2.11,8.29,8.29,0,0,0-2.53,1.82,3.87,3.87,0,0,0-.92,1.85c-.09.49,0,.77-.07.77s0-.06,0-.2a2.17,2.17,0,0,1,0-.59,3.9,3.9,0,0,1,.88-2,8.19,8.19,0,0,1,2.56-1.91,13.68,13.68,0,0,0,3.22-2.08,5.33,5.33,0,0,0,1.47-3.1,5.87,5.87,0,0,0-.58-2.84l.07.06A19.41,19.41,0,0,1,594.45,188Z" style="fill:#65463c"></path><path d="M601.73,188.41c-.05,0-.12-.31-.34-.78a3.41,3.41,0,0,0-1.36-1.41,6.92,6.92,0,0,0-1.91-.68,3,3,0,0,1-.83-.2,2,2,0,0,1,.87,0,5.54,5.54,0,0,1,2,.62,3.49,3.49,0,0,1,.92.76,3.14,3.14,0,0,1,.48.83A1.67,1.67,0,0,1,601.73,188.41Z" style="fill:#65463c"></path><path d="M601.31,184.32c-.08,0-.63-.89-1.58-1.81s-1.87-1.46-1.83-1.54a6.27,6.27,0,0,1,3.41,3.35Z" style="fill:#65463c"></path></g></svg>